<svg width="920" height="242" viewBox="0 0 920 242" fill="none" xmlns="http://www.w3.org/2000/svg">
<path d="M440.497 158.18L439.637 162.44H446.417L445.977 164.64H439.217L438.137 170H435.537L438.337 156H448.557L448.117 158.18H440.497ZM460.298 159.32L458.178 170H455.798L456.018 168.9C455.085 169.727 453.925 170.14 452.538 170.14C451.658 170.14 450.858 169.953 450.138 169.58C449.432 169.207 448.872 168.667 448.458 167.96C448.045 167.24 447.838 166.4 447.838 165.44C447.838 164.253 448.098 163.187 448.618 162.24C449.152 161.28 449.872 160.533 450.778 160C451.698 159.467 452.725 159.2 453.858 159.2C455.565 159.2 456.778 159.767 457.498 160.9L457.798 159.32H460.298ZM453.178 168C453.885 168 454.512 167.833 455.058 167.5C455.618 167.153 456.058 166.68 456.378 166.08C456.698 165.467 456.858 164.773 456.858 164C456.858 163.16 456.612 162.507 456.118 162.04C455.625 161.56 454.932 161.32 454.038 161.32C453.332 161.32 452.698 161.493 452.138 161.84C451.592 162.173 451.158 162.647 450.838 163.26C450.518 163.86 450.358 164.547 450.358 165.32C450.358 166.16 450.605 166.82 451.098 167.3C451.592 167.767 452.285 168 453.178 168ZM463.569 159.32H466.069L463.949 170H461.449L463.569 159.32ZM465.389 157.56C464.949 157.56 464.589 157.427 464.309 157.16C464.029 156.88 463.889 156.547 463.889 156.16C463.889 155.707 464.042 155.327 464.349 155.02C464.669 154.713 465.082 154.56 465.589 154.56C466.029 154.56 466.389 154.693 466.669 154.96C466.949 155.213 467.089 155.527 467.089 155.9C467.089 156.393 466.929 156.793 466.609 157.1C466.302 157.407 465.896 157.56 465.389 157.56ZM471.45 160.7C471.917 160.153 472.484 159.767 473.15 159.54C473.83 159.313 474.637 159.2 475.57 159.2L475.11 161.58C474.884 161.54 474.677 161.52 474.49 161.52C472.45 161.52 471.217 162.593 470.79 164.74L469.73 170H467.23L469.35 159.32H471.73L471.45 160.7ZM479.21 170.14C478.304 170.14 477.437 170.033 476.61 169.82C475.797 169.593 475.164 169.313 474.71 168.98L475.75 167.06C476.19 167.38 476.744 167.633 477.41 167.82C478.077 168.007 478.764 168.1 479.47 168.1C480.27 168.1 480.87 167.993 481.27 167.78C481.684 167.553 481.89 167.233 481.89 166.82C481.89 166.5 481.717 166.267 481.37 166.12C481.037 165.973 480.504 165.82 479.77 165.66C479.01 165.513 478.384 165.36 477.89 165.2C477.41 165.027 476.99 164.753 476.63 164.38C476.284 163.993 476.11 163.467 476.11 162.8C476.11 161.693 476.57 160.82 477.49 160.18C478.424 159.527 479.657 159.2 481.19 159.2C481.924 159.2 482.637 159.287 483.33 159.46C484.024 159.62 484.59 159.84 485.03 160.12L484.11 162.04C483.67 161.76 483.17 161.553 482.61 161.42C482.064 161.287 481.51 161.22 480.95 161.22C480.164 161.22 479.564 161.34 479.15 161.58C478.75 161.82 478.55 162.133 478.55 162.52C478.55 162.867 478.724 163.12 479.07 163.28C479.43 163.427 479.984 163.58 480.73 163.74C481.477 163.887 482.09 164.047 482.57 164.22C483.05 164.38 483.464 164.647 483.81 165.02C484.157 165.393 484.33 165.9 484.33 166.54C484.33 167.687 483.864 168.573 482.93 169.2C481.997 169.827 480.757 170.14 479.21 170.14ZM395.573 185C397.266 185 398.573 185.373 399.493 186.12C400.426 186.853 400.893 187.887 400.893 189.22C400.893 190.407 400.619 191.433 400.073 192.3C399.539 193.153 398.766 193.813 397.753 194.28C396.753 194.733 395.573 194.96 394.213 194.96H390.793L389.973 199H387.373L390.173 185H395.573ZM394.313 192.76C395.579 192.76 396.553 192.48 397.233 191.92C397.926 191.347 398.273 190.527 398.273 189.46C398.273 188.713 398.013 188.153 397.493 187.78C396.986 187.393 396.253 187.2 395.293 187.2H392.333L391.233 192.76H394.313ZM413.97 188.32L411.85 199H409.47L409.69 197.9C408.757 198.727 407.597 199.14 406.21 199.14C405.33 199.14 404.53 198.953 403.81 198.58C403.103 198.207 402.543 197.667 402.13 196.96C401.717 196.24 401.51 195.4 401.51 194.44C401.51 193.253 401.77 192.187 402.29 191.24C402.823 190.28 403.543 189.533 404.45 189C405.37 188.467 406.397 188.2 407.53 188.2C409.237 188.2 410.45 188.767 411.17 189.9L411.47 188.32H413.97ZM406.85 197C407.557 197 408.183 196.833 408.73 196.5C409.29 196.153 409.73 195.68 410.05 195.08C410.37 194.467 410.53 193.773 410.53 193C410.53 192.16 410.283 191.507 409.79 191.04C409.297 190.56 408.603 190.32 407.71 190.32C407.003 190.32 406.37 190.493 405.81 190.84C405.263 191.173 404.83 191.647 404.51 192.26C404.19 192.86 404.03 193.547 404.03 194.32C404.03 195.16 404.277 195.82 404.77 196.3C405.263 196.767 405.957 197 406.85 197ZM419.341 189.7C419.808 189.153 420.374 188.767 421.041 188.54C421.721 188.313 422.528 188.2 423.461 188.2L423.001 190.58C422.774 190.54 422.568 190.52 422.381 190.52C420.341 190.52 419.108 191.593 418.681 193.74L417.621 199H415.121L417.241 188.32H419.621L419.341 189.7ZM427.332 195.42C427.306 195.633 427.292 195.787 427.292 195.88C427.292 196.68 427.712 197.08 428.552 197.08C429.072 197.08 429.539 196.94 429.952 196.66L430.392 198.5C429.712 198.927 428.852 199.14 427.812 199.14C426.892 199.14 426.152 198.887 425.592 198.38C425.032 197.873 424.752 197.173 424.752 196.28C424.752 195.987 424.779 195.707 424.832 195.44L425.852 190.4H424.112L424.512 188.4H426.252L426.732 185.96H429.232L428.732 188.4H431.612L431.212 190.4H428.332L427.332 195.42ZM434.409 188.32H436.909L434.789 199H432.289L434.409 188.32ZM436.229 186.56C435.789 186.56 435.429 186.427 435.149 186.16C434.869 185.88 434.729 185.547 434.729 185.16C434.729 184.707 434.882 184.327 435.189 184.02C435.509 183.713 435.922 183.56 436.429 183.56C436.869 183.56 437.229 183.693 437.509 183.96C437.789 184.213 437.929 184.527 437.929 184.9C437.929 185.393 437.769 185.793 437.449 186.1C437.142 186.407 436.736 186.56 436.229 186.56ZM443.41 199.14C442.357 199.14 441.43 198.947 440.63 198.56C439.844 198.16 439.237 197.607 438.81 196.9C438.384 196.193 438.17 195.373 438.17 194.44C438.17 193.253 438.444 192.187 438.99 191.24C439.537 190.293 440.29 189.553 441.25 189.02C442.224 188.473 443.33 188.2 444.57 188.2C445.65 188.2 446.577 188.413 447.35 188.84C448.137 189.253 448.744 189.873 449.17 190.7L447.03 191.8C446.537 190.813 445.65 190.32 444.37 190.32C443.664 190.32 443.03 190.493 442.47 190.84C441.924 191.173 441.49 191.647 441.17 192.26C440.85 192.86 440.69 193.547 440.69 194.32C440.69 195.16 440.937 195.82 441.43 196.3C441.924 196.767 442.624 197 443.53 197C444.144 197 444.697 196.88 445.19 196.64C445.684 196.387 446.104 196.013 446.45 195.52L448.29 196.76C447.797 197.507 447.117 198.093 446.25 198.52C445.384 198.933 444.437 199.14 443.41 199.14ZM451.811 188.32H454.311L452.191 199H449.691L451.811 188.32ZM453.631 186.56C453.191 186.56 452.831 186.427 452.551 186.16C452.271 185.88 452.131 185.547 452.131 185.16C452.131 184.707 452.285 184.327 452.591 184.02C452.911 183.713 453.325 183.56 453.831 183.56C454.271 183.56 454.631 183.693 454.911 183.96C455.191 184.213 455.331 184.527 455.331 184.9C455.331 185.393 455.171 185.793 454.851 186.1C454.545 186.407 454.138 186.56 453.631 186.56ZM463.233 188.2C464.113 188.2 464.906 188.387 465.613 188.76C466.333 189.133 466.899 189.673 467.313 190.38C467.726 191.087 467.933 191.92 467.933 192.88C467.933 194.067 467.666 195.14 467.133 196.1C466.613 197.047 465.893 197.793 464.973 198.34C464.066 198.873 463.053 199.14 461.933 199.14C461.093 199.14 460.359 198.993 459.733 198.7C459.106 198.407 458.619 197.98 458.273 197.42L457.193 202.88H454.693L457.593 188.32H459.973L459.753 189.44C460.686 188.613 461.846 188.2 463.233 188.2ZM461.733 197C462.439 197 463.066 196.833 463.613 196.5C464.173 196.153 464.613 195.68 464.933 195.08C465.253 194.467 465.413 193.773 465.413 193C465.413 192.16 465.166 191.507 464.673 191.04C464.179 190.56 463.486 190.32 462.593 190.32C461.886 190.32 461.253 190.493 460.693 190.84C460.146 191.173 459.713 191.647 459.393 192.26C459.073 192.86 458.913 193.547 458.913 194.32C458.913 195.16 459.159 195.82 459.653 196.3C460.146 196.767 460.839 197 461.733 197ZM481.744 188.32L479.624 199H477.244L477.464 197.9C476.53 198.727 475.37 199.14 473.984 199.14C473.104 199.14 472.304 198.953 471.584 198.58C470.877 198.207 470.317 197.667 469.904 196.96C469.49 196.24 469.284 195.4 469.284 194.44C469.284 193.253 469.544 192.187 470.064 191.24C470.597 190.28 471.317 189.533 472.224 189C473.144 188.467 474.17 188.2 475.304 188.2C477.01 188.2 478.224 188.767 478.944 189.9L479.244 188.32H481.744ZM474.624 197C475.33 197 475.957 196.833 476.504 196.5C477.064 196.153 477.504 195.68 477.824 195.08C478.144 194.467 478.304 193.773 478.304 193C478.304 192.16 478.057 191.507 477.564 191.04C477.07 190.56 476.377 190.32 475.484 190.32C474.777 190.32 474.144 190.493 473.584 190.84C473.037 191.173 472.604 191.647 472.284 192.26C471.964 192.86 471.804 193.547 471.804 194.32C471.804 195.16 472.05 195.82 472.544 196.3C473.037 196.767 473.73 197 474.624 197ZM486.414 195.42C486.388 195.633 486.374 195.787 486.374 195.88C486.374 196.68 486.794 197.08 487.634 197.08C488.154 197.08 488.621 196.94 489.034 196.66L489.474 198.5C488.794 198.927 487.934 199.14 486.894 199.14C485.974 199.14 485.234 198.887 484.674 198.38C484.114 197.873 483.834 197.173 483.834 196.28C483.834 195.987 483.861 195.707 483.914 195.44L484.934 190.4H483.194L483.594 188.4H485.334L485.814 185.96H488.314L487.814 188.4H490.694L490.294 190.4H487.414L486.414 195.42ZM493.491 188.32H495.991L493.871 199H491.371L493.491 188.32ZM495.311 186.56C494.871 186.56 494.511 186.427 494.231 186.16C493.951 185.88 493.811 185.547 493.811 185.16C493.811 184.707 493.964 184.327 494.271 184.02C494.591 183.713 495.004 183.56 495.511 183.56C495.951 183.56 496.311 183.693 496.591 183.96C496.871 184.213 497.011 184.527 497.011 184.9C497.011 185.393 496.851 185.793 496.531 186.1C496.224 186.407 495.818 186.56 495.311 186.56ZM502.432 199.14C501.392 199.14 500.479 198.947 499.692 198.56C498.919 198.16 498.319 197.607 497.892 196.9C497.466 196.193 497.252 195.373 497.252 194.44C497.252 193.253 497.519 192.187 498.052 191.24C498.599 190.293 499.352 189.553 500.312 189.02C501.286 188.473 502.379 188.2 503.592 188.2C504.632 188.2 505.546 188.393 506.332 188.78C507.119 189.167 507.726 189.713 508.152 190.42C508.579 191.127 508.792 191.947 508.792 192.88C508.792 194.067 508.519 195.133 507.972 196.08C507.426 197.027 506.666 197.773 505.692 198.32C504.732 198.867 503.646 199.14 502.432 199.14ZM502.592 197C503.299 197 503.926 196.833 504.472 196.5C505.032 196.153 505.472 195.68 505.792 195.08C506.112 194.467 506.272 193.773 506.272 193C506.272 192.16 506.026 191.507 505.532 191.04C505.039 190.56 504.346 190.32 503.452 190.32C502.746 190.32 502.112 190.493 501.552 190.84C501.006 191.173 500.572 191.647 500.252 192.26C499.932 192.86 499.772 193.547 499.772 194.32C499.772 195.16 500.019 195.82 500.512 196.3C501.006 196.767 501.699 197 502.592 197ZM517.983 188.2C519.183 188.2 520.13 188.513 520.823 189.14C521.53 189.767 521.883 190.653 521.883 191.8C521.883 192.12 521.836 192.547 521.743 193.08L520.563 199H518.063L519.223 193.14C519.276 192.873 519.303 192.6 519.303 192.32C519.303 191.027 518.59 190.38 517.163 190.38C516.243 190.38 515.483 190.64 514.883 191.16C514.283 191.667 513.876 192.433 513.663 193.46L512.543 199H510.043L512.163 188.32H514.543L514.303 189.5C515.263 188.633 516.49 188.2 517.983 188.2ZM527.374 199.14C526.468 199.14 525.601 199.033 524.774 198.82C523.961 198.593 523.328 198.313 522.874 197.98L523.914 196.06C524.354 196.38 524.908 196.633 525.574 196.82C526.241 197.007 526.928 197.1 527.634 197.1C528.434 197.1 529.034 196.993 529.434 196.78C529.848 196.553 530.054 196.233 530.054 195.82C530.054 195.5 529.881 195.267 529.534 195.12C529.201 194.973 528.668 194.82 527.934 194.66C527.174 194.513 526.548 194.36 526.054 194.2C525.574 194.027 525.154 193.753 524.794 193.38C524.448 192.993 524.274 192.467 524.274 191.8C524.274 190.693 524.734 189.82 525.654 189.18C526.588 188.527 527.821 188.2 529.354 188.2C530.088 188.2 530.801 188.287 531.494 188.46C532.188 188.62 532.754 188.84 533.194 189.12L532.274 191.04C531.834 190.76 531.334 190.553 530.774 190.42C530.228 190.287 529.674 190.22 529.114 190.22C528.328 190.22 527.728 190.34 527.314 190.58C526.914 190.82 526.714 191.133 526.714 191.52C526.714 191.867 526.888 192.12 527.234 192.28C527.594 192.427 528.148 192.58 528.894 192.74C529.641 192.887 530.254 193.047 530.734 193.22C531.214 193.38 531.628 193.647 531.974 194.02C532.321 194.393 532.494 194.9 532.494 195.54C532.494 196.687 532.028 197.573 531.094 198.2C530.161 198.827 528.921 199.14 527.374 199.14Z" fill="#5B6568"/>
<path d="M279 61V1H26C12.1929 1 1 12.1929 1 26V216C1 229.807 12.1929 241 26 241H279V181" stroke="#727F84"/>
<path d="M641 61V1H894C907.807 1 919 12.1929 919 26V216C919 229.807 907.807 241 894 241H641V181" stroke="#727F84"/>
<path d="M321 61V1H599V61M321 181V241H599V181" stroke="#727F84"/>
<path d="M459.729 90.5C469.529 90.5 476.762 92.5 481.429 96.5C486.162 100.5 488.529 105.833 488.529 112.5C488.529 116.833 487.396 120.833 485.129 124.5C482.929 128.1 479.529 131 474.929 133.2C470.396 135.333 464.762 136.4 458.029 136.4C453.096 136.4 448.196 135.8 443.329 134.6C438.529 133.4 434.396 131.7 430.929 129.5L438.029 114.6C440.829 116.467 443.896 117.9 447.229 118.9C450.629 119.9 454.029 120.4 457.429 120.4C460.829 120.4 463.529 119.767 465.529 118.5C467.596 117.167 468.629 115.333 468.629 113C468.629 110.667 467.629 108.9 465.629 107.7C463.629 106.5 460.096 105.9 455.029 105.9H436.029L439.529 65H484.129V80.3H455.929L455.029 90.5H459.729Z" fill="#FFCD29"/>
<path d="M111.422 172.76H104.382L102.362 176H99.5822L108.682 162H111.262L114.742 176H112.162L111.422 172.76ZM110.942 170.72L109.522 164.56L105.662 170.72H110.942ZM134.676 165.32L128.716 176H126.256L124.816 168.64L120.636 176H118.216L116.256 165.32H118.536L119.896 173.18L124.356 165.32H126.496L127.916 173.18L132.316 165.32H134.676ZM146.46 165.32L144.34 176H141.96L142.18 174.9C141.247 175.727 140.087 176.14 138.7 176.14C137.82 176.14 137.02 175.953 136.3 175.58C135.594 175.207 135.034 174.667 134.62 173.96C134.207 173.24 134 172.4 134 171.44C134 170.253 134.26 169.187 134.78 168.24C135.314 167.28 136.034 166.533 136.94 166C137.86 165.467 138.887 165.2 140.02 165.2C141.727 165.2 142.94 165.767 143.66 166.9L143.96 165.32H146.46ZM139.34 174C140.047 174 140.674 173.833 141.22 173.5C141.78 173.153 142.22 172.68 142.54 172.08C142.86 171.467 143.02 170.773 143.02 170C143.02 169.16 142.774 168.507 142.28 168.04C141.787 167.56 141.094 167.32 140.2 167.32C139.494 167.32 138.86 167.493 138.3 167.84C137.754 168.173 137.32 168.647 137 169.26C136.68 169.86 136.52 170.547 136.52 171.32C136.52 172.16 136.767 172.82 137.26 173.3C137.754 173.767 138.447 174 139.34 174ZM151.831 166.7C152.298 166.153 152.865 165.767 153.531 165.54C154.211 165.313 155.018 165.2 155.951 165.2L155.491 167.58C155.265 167.54 155.058 167.52 154.871 167.52C152.831 167.52 151.598 168.593 151.171 170.74L150.111 176H147.611L149.731 165.32H152.111L151.831 166.7ZM169.214 161.16L166.254 176H163.874L164.094 174.9C163.134 175.727 161.981 176.14 160.634 176.14C159.754 176.14 158.954 175.953 158.234 175.58C157.528 175.207 156.968 174.667 156.554 173.96C156.141 173.24 155.934 172.4 155.934 171.44C155.934 170.24 156.194 169.167 156.714 168.22C157.234 167.273 157.948 166.533 158.854 166C159.774 165.467 160.801 165.2 161.934 165.2C162.774 165.2 163.501 165.34 164.114 165.62C164.741 165.9 165.228 166.313 165.574 166.86L166.714 161.16H169.214ZM161.274 174C161.968 174 162.594 173.833 163.154 173.5C163.714 173.153 164.148 172.68 164.454 172.08C164.774 171.467 164.934 170.773 164.934 170C164.934 169.16 164.688 168.507 164.194 168.04C163.701 167.56 163.008 167.32 162.114 167.32C161.421 167.32 160.794 167.493 160.234 167.84C159.674 168.173 159.234 168.647 158.914 169.26C158.608 169.86 158.454 170.547 158.454 171.32C158.454 172.16 158.701 172.82 159.194 173.3C159.688 173.767 160.381 174 161.274 174ZM173.185 176.14C172.278 176.14 171.412 176.033 170.585 175.82C169.772 175.593 169.138 175.313 168.685 174.98L169.725 173.06C170.165 173.38 170.718 173.633 171.385 173.82C172.052 174.007 172.738 174.1 173.445 174.1C174.245 174.1 174.845 173.993 175.245 173.78C175.658 173.553 175.865 173.233 175.865 172.82C175.865 172.5 175.692 172.267 175.345 172.12C175.012 171.973 174.478 171.82 173.745 171.66C172.985 171.513 172.358 171.36 171.865 171.2C171.385 171.027 170.965 170.753 170.605 170.38C170.258 169.993 170.085 169.467 170.085 168.8C170.085 167.693 170.545 166.82 171.465 166.18C172.398 165.527 173.632 165.2 175.165 165.2C175.898 165.2 176.612 165.287 177.305 165.46C177.998 165.62 178.565 165.84 179.005 166.12L178.085 168.04C177.645 167.76 177.145 167.553 176.585 167.42C176.038 167.287 175.485 167.22 174.925 167.22C174.138 167.22 173.538 167.34 173.125 167.58C172.725 167.82 172.525 168.133 172.525 168.52C172.525 168.867 172.698 169.12 173.045 169.28C173.405 169.427 173.958 169.58 174.705 169.74C175.452 169.887 176.065 170.047 176.545 170.22C177.025 170.38 177.438 170.647 177.785 171.02C178.132 171.393 178.305 171.9 178.305 172.54C178.305 173.687 177.838 174.573 176.905 175.2C175.972 175.827 174.732 176.14 173.185 176.14Z" fill="#5B6568"/>
<path d="M149.673 93C155.473 94.2 159.906 96.6 162.973 100.2C166.106 103.733 167.673 108.033 167.673 113.1C167.673 117.233 166.54 121.067 164.273 124.6C162.073 128.133 158.673 131 154.073 133.2C149.54 135.333 143.906 136.4 137.173 136.4C132.24 136.4 127.34 135.8 122.473 134.6C117.673 133.4 113.506 131.7 109.973 129.5L117.173 114.6C119.906 116.467 122.973 117.9 126.373 118.9C129.84 119.9 133.24 120.4 136.573 120.4C139.973 120.4 142.673 119.767 144.673 118.5C146.673 117.233 147.673 115.433 147.673 113.1C147.673 108.567 144.106 106.3 136.973 106.3H128.673V93.8L141.173 80.3H113.573V65H164.173V77.4L149.673 93Z" fill="#99A8AD"/>
<path d="M731.201 176.2C729.801 176.2 728.588 175.953 727.561 175.46C726.548 174.953 725.768 174.247 725.221 173.34C724.675 172.433 724.401 171.393 724.401 170.22C724.401 168.647 724.761 167.22 725.481 165.94C726.201 164.66 727.215 163.653 728.521 162.92C729.828 162.173 731.328 161.8 733.021 161.8C734.235 161.8 735.301 162 736.221 162.4C737.155 162.8 737.861 163.38 738.341 164.14L736.461 165.72C735.675 164.627 734.468 164.08 732.841 164.08C731.681 164.08 730.661 164.347 729.781 164.88C728.901 165.413 728.221 166.14 727.741 167.06C727.261 167.967 727.021 168.967 727.021 170.06C727.021 171.247 727.401 172.187 728.161 172.88C728.921 173.573 730.001 173.92 731.401 173.92C733.015 173.92 734.341 173.38 735.381 172.3L736.901 173.94C736.235 174.7 735.415 175.267 734.441 175.64C733.468 176.013 732.388 176.2 731.201 176.2ZM742.613 166.7C743.079 166.153 743.646 165.767 744.313 165.54C744.993 165.313 745.799 165.2 746.733 165.2L746.273 167.58C746.046 167.54 745.839 167.52 745.653 167.52C743.613 167.52 742.379 168.593 741.953 170.74L740.893 176H738.393L740.513 165.32H742.893L742.613 166.7ZM757.776 169.88C757.776 170.4 757.722 170.907 757.616 171.4H749.136C749.176 173.147 750.202 174.02 752.216 174.02C752.829 174.02 753.402 173.927 753.936 173.74C754.469 173.54 754.922 173.267 755.296 172.92L756.336 174.66C755.789 175.153 755.129 175.527 754.356 175.78C753.596 176.02 752.796 176.14 751.956 176.14C750.889 176.14 749.956 175.947 749.156 175.56C748.369 175.173 747.762 174.627 747.336 173.92C746.909 173.2 746.696 172.373 746.696 171.44C746.696 170.253 746.956 169.187 747.476 168.24C748.009 167.28 748.742 166.533 749.676 166C750.622 165.467 751.682 165.2 752.856 165.2C754.349 165.2 755.542 165.62 756.436 166.46C757.329 167.287 757.776 168.427 757.776 169.88ZM752.736 167.2C751.896 167.2 751.176 167.427 750.576 167.88C749.989 168.333 749.582 168.953 749.356 169.74H755.476C755.489 168.94 755.242 168.32 754.736 167.88C754.242 167.427 753.576 167.2 752.736 167.2ZM772.378 161.16L769.418 176H767.038L767.258 174.9C766.298 175.727 765.145 176.14 763.798 176.14C762.918 176.14 762.118 175.953 761.398 175.58C760.692 175.207 760.132 174.667 759.718 173.96C759.305 173.24 759.098 172.4 759.098 171.44C759.098 170.24 759.358 169.167 759.878 168.22C760.398 167.273 761.112 166.533 762.018 166C762.938 165.467 763.965 165.2 765.098 165.2C765.938 165.2 766.665 165.34 767.278 165.62C767.905 165.9 768.392 166.313 768.738 166.86L769.878 161.16H772.378ZM764.438 174C765.132 174 765.758 173.833 766.318 173.5C766.878 173.153 767.312 172.68 767.618 172.08C767.938 171.467 768.098 170.773 768.098 170C768.098 169.16 767.852 168.507 767.358 168.04C766.865 167.56 766.172 167.32 765.278 167.32C764.585 167.32 763.958 167.493 763.398 167.84C762.838 168.173 762.398 168.647 762.078 169.26C761.772 169.86 761.618 170.547 761.618 171.32C761.618 172.16 761.865 172.82 762.358 173.3C762.852 173.767 763.545 174 764.438 174ZM783.889 169.88C783.889 170.4 783.836 170.907 783.729 171.4H775.249C775.289 173.147 776.316 174.02 778.329 174.02C778.942 174.02 779.516 173.927 780.049 173.74C780.582 173.54 781.036 173.267 781.409 172.92L782.449 174.66C781.902 175.153 781.242 175.527 780.469 175.78C779.709 176.02 778.909 176.14 778.069 176.14C777.002 176.14 776.069 175.947 775.269 175.56C774.482 175.173 773.876 174.627 773.449 173.92C773.022 173.2 772.809 172.373 772.809 171.44C772.809 170.253 773.069 169.187 773.589 168.24C774.122 167.28 774.856 166.533 775.789 166C776.736 165.467 777.796 165.2 778.969 165.2C780.462 165.2 781.656 165.62 782.549 166.46C783.442 167.287 783.889 168.427 783.889 169.88ZM778.849 167.2C778.009 167.2 777.289 167.427 776.689 167.88C776.102 168.333 775.696 168.953 775.469 169.74H781.589C781.602 168.94 781.356 168.32 780.849 167.88C780.356 167.427 779.689 167.2 778.849 167.2ZM793.032 165.2C794.232 165.2 795.178 165.513 795.872 166.14C796.578 166.767 796.932 167.653 796.932 168.8C796.932 169.12 796.885 169.547 796.792 170.08L795.612 176H793.112L794.272 170.14C794.325 169.873 794.352 169.6 794.352 169.32C794.352 168.027 793.638 167.38 792.212 167.38C791.292 167.38 790.532 167.64 789.932 168.16C789.332 168.667 788.925 169.433 788.712 170.46L787.592 176H785.092L787.212 165.32H789.592L789.352 166.5C790.312 165.633 791.538 165.2 793.032 165.2ZM802.303 172.42C802.276 172.633 802.263 172.787 802.263 172.88C802.263 173.68 802.683 174.08 803.523 174.08C804.043 174.08 804.51 173.94 804.923 173.66L805.363 175.5C804.683 175.927 803.823 176.14 802.783 176.14C801.863 176.14 801.123 175.887 800.563 175.38C800.003 174.873 799.723 174.173 799.723 173.28C799.723 172.987 799.75 172.707 799.803 172.44L800.823 167.4H799.083L799.483 165.4H801.223L801.703 162.96H804.203L803.703 165.4H806.583L806.183 167.4H803.303L802.303 172.42ZM809.38 165.32H811.88L809.76 176H807.26L809.38 165.32ZM811.2 163.56C810.76 163.56 810.4 163.427 810.12 163.16C809.84 162.88 809.7 162.547 809.7 162.16C809.7 161.707 809.853 161.327 810.16 161.02C810.48 160.713 810.893 160.56 811.4 160.56C811.84 160.56 812.2 160.693 812.48 160.96C812.76 161.213 812.9 161.527 812.9 161.9C812.9 162.393 812.74 162.793 812.42 163.1C812.113 163.407 811.706 163.56 811.2 163.56ZM825.601 165.32L823.481 176H821.101L821.321 174.9C820.388 175.727 819.228 176.14 817.841 176.14C816.961 176.14 816.161 175.953 815.441 175.58C814.734 175.207 814.174 174.667 813.761 173.96C813.348 173.24 813.141 172.4 813.141 171.44C813.141 170.253 813.401 169.187 813.921 168.24C814.454 167.28 815.174 166.533 816.081 166C817.001 165.467 818.028 165.2 819.161 165.2C820.868 165.2 822.081 165.767 822.801 166.9L823.101 165.32H825.601ZM818.481 174C819.188 174 819.814 173.833 820.361 173.5C820.921 173.153 821.361 172.68 821.681 172.08C822.001 171.467 822.161 170.773 822.161 170C822.161 169.16 821.914 168.507 821.421 168.04C820.928 167.56 820.234 167.32 819.341 167.32C818.634 167.32 818.001 167.493 817.441 167.84C816.894 168.173 816.461 168.647 816.141 169.26C815.821 169.86 815.661 170.547 815.661 171.32C815.661 172.16 815.908 172.82 816.401 173.3C816.894 173.767 817.588 174 818.481 174ZM829.712 161.16H832.212L829.252 176H826.752L829.712 161.16ZM836.173 176.14C835.266 176.14 834.4 176.033 833.573 175.82C832.76 175.593 832.126 175.313 831.673 174.98L832.713 173.06C833.153 173.38 833.706 173.633 834.373 173.82C835.04 174.007 835.726 174.1 836.433 174.1C837.233 174.1 837.833 173.993 838.233 173.78C838.646 173.553 838.853 173.233 838.853 172.82C838.853 172.5 838.68 172.267 838.333 172.12C838 171.973 837.466 171.82 836.733 171.66C835.973 171.513 835.346 171.36 834.853 171.2C834.373 171.027 833.953 170.753 833.593 170.38C833.246 169.993 833.073 169.467 833.073 168.8C833.073 167.693 833.533 166.82 834.453 166.18C835.386 165.527 836.62 165.2 838.153 165.2C838.886 165.2 839.6 165.287 840.293 165.46C840.986 165.62 841.553 165.84 841.993 166.12L841.073 168.04C840.633 167.76 840.133 167.553 839.573 167.42C839.026 167.287 838.473 167.22 837.913 167.22C837.126 167.22 836.526 167.34 836.113 167.58C835.713 167.82 835.513 168.133 835.513 168.52C835.513 168.867 835.686 169.12 836.033 169.28C836.393 169.427 836.946 169.58 837.693 169.74C838.44 169.887 839.053 170.047 839.533 170.22C840.013 170.38 840.426 170.647 840.773 171.02C841.12 171.393 841.293 171.9 841.293 172.54C841.293 173.687 840.826 174.573 839.893 175.2C838.96 175.827 837.72 176.14 836.173 176.14Z" fill="#5B6568"/>
<path d="M789.673 93C795.473 94.2 799.906 96.6 802.973 100.2C806.106 103.733 807.673 108.033 807.673 113.1C807.673 117.233 806.54 121.067 804.273 124.6C802.073 128.133 798.673 131 794.073 133.2C789.54 135.333 783.906 136.4 777.173 136.4C772.24 136.4 767.34 135.8 762.473 134.6C757.673 133.4 753.506 131.7 749.973 129.5L757.173 114.6C759.906 116.467 762.973 117.9 766.373 118.9C769.84 119.9 773.24 120.4 776.573 120.4C779.973 120.4 782.673 119.767 784.673 118.5C786.673 117.233 787.673 115.433 787.673 113.1C787.673 108.567 784.106 106.3 776.973 106.3H768.673V93.8L781.173 80.3H753.573V65H804.173V77.4L789.673 93Z" fill="#99A8AD"/>
</svg>
