<svg width="304" height="482" viewBox="0 0 304 482" fill="none" xmlns="http://www.w3.org/2000/svg">
<path d="M77.124 313.611H2.24792L2.24792 168.389H77.124M226.876 313.611H301.752V168.389H226.876" stroke="#727F84"/>
<path d="M70.643 274.953L69.912 278.574H75.675L75.301 280.444H69.555L68.637 285H66.427L68.807 273.1H77.494L77.12 274.953H70.643ZM87.4742 275.922L85.6722 285H83.6492L83.8362 284.065C83.0429 284.768 82.0569 285.119 80.8782 285.119C80.1302 285.119 79.4502 284.96 78.8382 284.643C78.2375 284.326 77.7615 283.867 77.4102 283.266C77.0589 282.654 76.8832 281.94 76.8832 281.124C76.8832 280.115 77.1042 279.209 77.5462 278.404C77.9995 277.588 78.6115 276.953 79.3822 276.5C80.1642 276.047 81.0369 275.82 82.0002 275.82C83.4509 275.82 84.4822 276.302 85.0942 277.265L85.3492 275.922H87.4742ZM81.4222 283.3C82.0229 283.3 82.5555 283.158 83.0202 282.875C83.4962 282.58 83.8702 282.178 84.1422 281.668C84.4142 281.147 84.5502 280.557 84.5502 279.9C84.5502 279.186 84.3405 278.631 83.9212 278.234C83.5019 277.826 82.9125 277.622 82.1532 277.622C81.5525 277.622 81.0142 277.769 80.5382 278.064C80.0735 278.347 79.7052 278.75 79.4332 279.271C79.1612 279.781 79.0252 280.365 79.0252 281.022C79.0252 281.736 79.2349 282.297 79.6542 282.705C80.0735 283.102 80.6629 283.3 81.4222 283.3ZM90.2545 275.922H92.3795L90.5775 285H88.4525L90.2545 275.922ZM91.8015 274.426C91.4275 274.426 91.1215 274.313 90.8835 274.086C90.6455 273.848 90.5265 273.565 90.5265 273.236C90.5265 272.851 90.6568 272.528 90.9175 272.267C91.1895 272.006 91.5408 271.876 91.9715 271.876C92.3455 271.876 92.6515 271.989 92.8895 272.216C93.1275 272.431 93.2465 272.698 93.2465 273.015C93.2465 273.434 93.1105 273.774 92.8385 274.035C92.5778 274.296 92.2322 274.426 91.8015 274.426ZM96.9536 277.095C97.3502 276.63 97.8319 276.302 98.3986 276.109C98.9766 275.916 99.6622 275.82 100.456 275.82L100.065 277.843C99.8719 277.809 99.6962 277.792 99.5376 277.792C97.8036 277.792 96.7552 278.704 96.3926 280.529L95.4916 285H93.3666L95.1686 275.922H97.1916L96.9536 277.095ZM103.549 285.119C102.779 285.119 102.042 285.028 101.339 284.847C100.648 284.654 100.11 284.416 99.7244 284.133L100.608 282.501C100.982 282.773 101.453 282.988 102.019 283.147C102.586 283.306 103.17 283.385 103.77 283.385C104.45 283.385 104.96 283.294 105.3 283.113C105.652 282.92 105.827 282.648 105.827 282.297C105.827 282.025 105.68 281.827 105.385 281.702C105.102 281.577 104.649 281.447 104.025 281.311C103.379 281.186 102.847 281.056 102.427 280.92C102.019 280.773 101.662 280.54 101.356 280.223C101.062 279.894 100.914 279.447 100.914 278.88C100.914 277.939 101.305 277.197 102.087 276.653C102.881 276.098 103.929 275.82 105.232 275.82C105.856 275.82 106.462 275.894 107.051 276.041C107.641 276.177 108.122 276.364 108.496 276.602L107.714 278.234C107.34 277.996 106.915 277.82 106.439 277.707C105.975 277.594 105.504 277.537 105.028 277.537C104.36 277.537 103.85 277.639 103.498 277.843C103.158 278.047 102.988 278.313 102.988 278.642C102.988 278.937 103.136 279.152 103.43 279.288C103.736 279.413 104.207 279.543 104.841 279.679C105.476 279.804 105.997 279.94 106.405 280.087C106.813 280.223 107.165 280.45 107.459 280.767C107.754 281.084 107.901 281.515 107.901 282.059C107.901 283.034 107.505 283.787 106.711 284.32C105.918 284.853 104.864 285.119 103.549 285.119ZM121.077 273.1C122.516 273.1 123.627 273.417 124.409 274.052C125.202 274.675 125.599 275.554 125.599 276.687C125.599 277.696 125.366 278.568 124.902 279.305C124.448 280.03 123.791 280.591 122.93 280.988C122.08 281.373 121.077 281.566 119.921 281.566H117.014L116.317 285H114.107L116.487 273.1H121.077ZM120.006 279.696C121.082 279.696 121.91 279.458 122.488 278.982C123.077 278.495 123.372 277.798 123.372 276.891C123.372 276.256 123.151 275.78 122.709 275.463C122.278 275.134 121.655 274.97 120.839 274.97H118.323L117.388 279.696H120.006ZM136.714 275.922L134.912 285H132.889L133.076 284.065C132.283 284.768 131.297 285.119 130.118 285.119C129.37 285.119 128.69 284.96 128.078 284.643C127.478 284.326 127.002 283.867 126.65 283.266C126.299 282.654 126.123 281.94 126.123 281.124C126.123 280.115 126.344 279.209 126.786 278.404C127.24 277.588 127.852 276.953 128.622 276.5C129.404 276.047 130.277 275.82 131.24 275.82C132.691 275.82 133.722 276.302 134.334 277.265L134.589 275.922H136.714ZM130.662 283.3C131.263 283.3 131.796 283.158 132.26 282.875C132.736 282.58 133.11 282.178 133.382 281.668C133.654 281.147 133.79 280.557 133.79 279.9C133.79 279.186 133.581 278.631 133.161 278.234C132.742 277.826 132.153 277.622 131.393 277.622C130.793 277.622 130.254 277.769 129.778 278.064C129.314 278.347 128.945 278.75 128.673 279.271C128.401 279.781 128.265 280.365 128.265 281.022C128.265 281.736 128.475 282.297 128.894 282.705C129.314 283.102 129.903 283.3 130.662 283.3ZM141.28 277.095C141.676 276.63 142.158 276.302 142.725 276.109C143.303 275.916 143.988 275.82 144.782 275.82L144.391 277.843C144.198 277.809 144.022 277.792 143.864 277.792C142.13 277.792 141.081 278.704 140.719 280.529L139.818 285H137.693L139.495 275.922H141.518L141.28 277.095ZM148.072 281.957C148.05 282.138 148.038 282.269 148.038 282.348C148.038 283.028 148.395 283.368 149.109 283.368C149.551 283.368 149.948 283.249 150.299 283.011L150.673 284.575C150.095 284.938 149.364 285.119 148.48 285.119C147.698 285.119 147.069 284.904 146.593 284.473C146.117 284.042 145.879 283.447 145.879 282.688C145.879 282.439 145.902 282.201 145.947 281.974L146.814 277.69H145.335L145.675 275.99H147.154L147.562 273.916H149.687L149.262 275.99H151.71L151.37 277.69H148.922L148.072 281.957ZM154.088 275.922H156.213L154.411 285H152.286L154.088 275.922ZM155.635 274.426C155.261 274.426 154.955 274.313 154.717 274.086C154.479 273.848 154.36 273.565 154.36 273.236C154.36 272.851 154.49 272.528 154.751 272.267C155.023 272.006 155.374 271.876 155.805 271.876C156.179 271.876 156.485 271.989 156.723 272.216C156.961 272.431 157.08 272.698 157.08 273.015C157.08 273.434 156.944 273.774 156.672 274.035C156.411 274.296 156.065 274.426 155.635 274.426ZM161.739 285.119C160.843 285.119 160.056 284.955 159.376 284.626C158.707 284.286 158.191 283.816 157.829 283.215C157.466 282.614 157.285 281.917 157.285 281.124C157.285 280.115 157.517 279.209 157.982 278.404C158.446 277.599 159.087 276.97 159.903 276.517C160.73 276.052 161.671 275.82 162.725 275.82C163.643 275.82 164.43 276.001 165.088 276.364C165.756 276.715 166.272 277.242 166.635 277.945L164.816 278.88C164.396 278.041 163.643 277.622 162.555 277.622C161.954 277.622 161.416 277.769 160.94 278.064C160.475 278.347 160.107 278.75 159.835 279.271C159.563 279.781 159.427 280.365 159.427 281.022C159.427 281.736 159.636 282.297 160.056 282.705C160.475 283.102 161.07 283.3 161.841 283.3C162.362 283.3 162.832 283.198 163.252 282.994C163.671 282.779 164.028 282.461 164.323 282.042L165.887 283.096C165.467 283.731 164.889 284.229 164.153 284.592C163.416 284.943 162.611 285.119 161.739 285.119ZM168.88 275.922H171.005L169.203 285H167.078L168.88 275.922ZM170.427 274.426C170.053 274.426 169.747 274.313 169.509 274.086C169.271 273.848 169.152 273.565 169.152 273.236C169.152 272.851 169.282 272.528 169.543 272.267C169.815 272.006 170.166 271.876 170.597 271.876C170.971 271.876 171.277 271.989 171.515 272.216C171.753 272.431 171.872 272.698 171.872 273.015C171.872 273.434 171.736 273.774 171.464 274.035C171.203 274.296 170.857 274.426 170.427 274.426ZM178.588 275.82C179.336 275.82 180.01 275.979 180.611 276.296C181.223 276.613 181.704 277.072 182.056 277.673C182.407 278.274 182.583 278.982 182.583 279.798C182.583 280.807 182.356 281.719 181.903 282.535C181.461 283.34 180.849 283.974 180.067 284.439C179.296 284.892 178.435 285.119 177.483 285.119C176.769 285.119 176.145 284.994 175.613 284.745C175.08 284.496 174.666 284.133 174.372 283.657L173.454 288.298H171.329L173.794 275.922H175.817L175.63 276.874C176.423 276.171 177.409 275.82 178.588 275.82ZM177.313 283.3C177.913 283.3 178.446 283.158 178.911 282.875C179.387 282.58 179.761 282.178 180.033 281.668C180.305 281.147 180.441 280.557 180.441 279.9C180.441 279.186 180.231 278.631 179.812 278.234C179.392 277.826 178.803 277.622 178.044 277.622C177.443 277.622 176.905 277.769 176.429 278.064C175.964 278.347 175.596 278.75 175.324 279.271C175.052 279.781 174.916 280.365 174.916 281.022C174.916 281.736 175.125 282.297 175.545 282.705C175.964 283.102 176.553 283.3 177.313 283.3ZM194.322 275.922L192.52 285H190.497L190.684 284.065C189.891 284.768 188.905 285.119 187.726 285.119C186.978 285.119 186.298 284.96 185.686 284.643C185.085 284.326 184.609 283.867 184.258 283.266C183.907 282.654 183.731 281.94 183.731 281.124C183.731 280.115 183.952 279.209 184.394 278.404C184.847 277.588 185.459 276.953 186.23 276.5C187.012 276.047 187.885 275.82 188.848 275.82C190.299 275.82 191.33 276.302 191.942 277.265L192.197 275.922H194.322ZM188.27 283.3C188.871 283.3 189.403 283.158 189.868 282.875C190.344 282.58 190.718 282.178 190.99 281.668C191.262 281.147 191.398 280.557 191.398 279.9C191.398 279.186 191.188 278.631 190.769 278.234C190.35 277.826 189.76 277.622 189.001 277.622C188.4 277.622 187.862 277.769 187.386 278.064C186.921 278.347 186.553 278.75 186.281 279.271C186.009 279.781 185.873 280.365 185.873 281.022C185.873 281.736 186.083 282.297 186.502 282.705C186.921 283.102 187.511 283.3 188.27 283.3ZM198.292 281.957C198.269 282.138 198.258 282.269 198.258 282.348C198.258 283.028 198.615 283.368 199.329 283.368C199.771 283.368 200.168 283.249 200.519 283.011L200.893 284.575C200.315 284.938 199.584 285.119 198.7 285.119C197.918 285.119 197.289 284.904 196.813 284.473C196.337 284.042 196.099 283.447 196.099 282.688C196.099 282.439 196.122 282.201 196.167 281.974L197.034 277.69H195.555L195.895 275.99H197.374L197.782 273.916H199.907L199.482 275.99H201.93L201.59 277.69H199.142L198.292 281.957ZM204.307 275.922H206.432L204.63 285H202.505L204.307 275.922ZM205.854 274.426C205.48 274.426 205.174 274.313 204.936 274.086C204.698 273.848 204.579 273.565 204.579 273.236C204.579 272.851 204.71 272.528 204.97 272.267C205.242 272.006 205.594 271.876 206.024 271.876C206.398 271.876 206.704 271.989 206.942 272.216C207.18 272.431 207.299 272.698 207.299 273.015C207.299 273.434 207.163 273.774 206.891 274.035C206.631 274.296 206.285 274.426 205.854 274.426ZM211.907 285.119C211.023 285.119 210.247 284.955 209.578 284.626C208.921 284.286 208.411 283.816 208.048 283.215C207.686 282.614 207.504 281.917 207.504 281.124C207.504 280.115 207.731 279.209 208.184 278.404C208.649 277.599 209.289 276.97 210.105 276.517C210.933 276.052 211.862 275.82 212.893 275.82C213.777 275.82 214.554 275.984 215.222 276.313C215.891 276.642 216.407 277.106 216.769 277.707C217.132 278.308 217.313 279.005 217.313 279.798C217.313 280.807 217.081 281.713 216.616 282.518C216.152 283.323 215.506 283.957 214.678 284.422C213.862 284.887 212.939 285.119 211.907 285.119ZM212.043 283.3C212.644 283.3 213.177 283.158 213.641 282.875C214.117 282.58 214.491 282.178 214.763 281.668C215.035 281.147 215.171 280.557 215.171 279.9C215.171 279.186 214.962 278.631 214.542 278.234C214.123 277.826 213.534 277.622 212.774 277.622C212.174 277.622 211.635 277.769 211.159 278.064C210.695 278.347 210.326 278.75 210.054 279.271C209.782 279.781 209.646 280.365 209.646 281.022C209.646 281.736 209.856 282.297 210.275 282.705C210.695 283.102 211.284 283.3 212.043 283.3ZM225.125 275.82C226.145 275.82 226.95 276.086 227.539 276.619C228.14 277.152 228.44 277.905 228.44 278.88C228.44 279.152 228.401 279.515 228.321 279.968L227.318 285H225.193L226.179 280.019C226.225 279.792 226.247 279.56 226.247 279.322C226.247 278.223 225.641 277.673 224.428 277.673C223.646 277.673 223 277.894 222.49 278.336C221.98 278.767 221.635 279.418 221.453 280.291L220.501 285H218.376L220.178 275.922H222.201L221.997 276.925C222.813 276.188 223.856 275.82 225.125 275.82ZM233.108 285.119C232.337 285.119 231.601 285.028 230.898 284.847C230.207 284.654 229.668 284.416 229.283 284.133L230.167 282.501C230.541 282.773 231.011 282.988 231.578 283.147C232.145 283.306 232.728 283.385 233.329 283.385C234.009 283.385 234.519 283.294 234.859 283.113C235.21 282.92 235.386 282.648 235.386 282.297C235.386 282.025 235.239 281.827 234.944 281.702C234.661 281.577 234.207 281.447 233.584 281.311C232.938 281.186 232.405 281.056 231.986 280.92C231.578 280.773 231.221 280.54 230.915 280.223C230.62 279.894 230.473 279.447 230.473 278.88C230.473 277.939 230.864 277.197 231.646 276.653C232.439 276.098 233.488 275.82 234.791 275.82C235.414 275.82 236.021 275.894 236.61 276.041C237.199 276.177 237.681 276.364 238.055 276.602L237.273 278.234C236.899 277.996 236.474 277.82 235.998 277.707C235.533 277.594 235.063 277.537 234.587 277.537C233.918 277.537 233.408 277.639 233.057 277.843C232.717 278.047 232.547 278.313 232.547 278.642C232.547 278.937 232.694 279.152 232.989 279.288C233.295 279.413 233.765 279.543 234.4 279.679C235.035 279.804 235.556 279.94 235.964 280.087C236.372 280.223 236.723 280.45 237.018 280.767C237.313 281.084 237.46 281.515 237.46 282.059C237.46 283.034 237.063 283.787 236.27 284.32C235.477 284.853 234.423 285.119 233.108 285.119Z" fill="#5B6568"/>
<path d="M151.853 216.5C161.653 216.5 168.886 218.5 173.553 222.5C178.286 226.5 180.653 231.833 180.653 238.5C180.653 242.833 179.52 246.833 177.253 250.5C175.053 254.1 171.653 257 167.053 259.2C162.52 261.333 156.886 262.4 150.153 262.4C145.22 262.4 140.32 261.8 135.453 260.6C130.653 259.4 126.52 257.7 123.053 255.5L130.153 240.6C132.953 242.467 136.02 243.9 139.353 244.9C142.753 245.9 146.153 246.4 149.553 246.4C152.953 246.4 155.653 245.767 157.653 244.5C159.72 243.167 160.753 241.333 160.753 239C160.753 236.667 159.753 234.9 157.753 233.7C155.753 232.5 152.22 231.9 147.153 231.9H128.153L131.653 191H176.253V206.3H148.053L147.153 216.5H151.853Z" fill="#FFCD29"/>
<path d="M225.628 146.223H300.504L300.504 26C300.504 12.1929 289.311 1 275.504 1L26 1C12.1929 1 1.00002 12.1929 1.00002 26L1.00002 146.223L75.8761 146.223" stroke="#727F84"/>
<path d="M126.461 122.246H120.477L118.76 125H116.397L124.132 113.1H126.325L129.283 125H127.09L126.461 122.246ZM126.053 120.512L124.846 115.276L121.565 120.512H126.053ZM146.227 115.922L141.161 125H139.07L137.846 118.744L134.293 125H132.236L130.57 115.922H132.508L133.664 122.603L137.455 115.922H139.274L140.481 122.603L144.221 115.922H146.227ZM156.243 115.922L154.441 125H152.418L152.605 124.065C151.812 124.768 150.826 125.119 149.647 125.119C148.899 125.119 148.219 124.96 147.607 124.643C147.007 124.326 146.531 123.867 146.179 123.266C145.828 122.654 145.652 121.94 145.652 121.124C145.652 120.115 145.873 119.209 146.315 118.404C146.769 117.588 147.381 116.953 148.151 116.5C148.933 116.047 149.806 115.82 150.769 115.82C152.22 115.82 153.251 116.302 153.863 117.265L154.118 115.922H156.243ZM150.191 123.3C150.792 123.3 151.325 123.158 151.789 122.875C152.265 122.58 152.639 122.178 152.911 121.668C153.183 121.147 153.319 120.557 153.319 119.9C153.319 119.186 153.11 118.631 152.69 118.234C152.271 117.826 151.682 117.622 150.922 117.622C150.322 117.622 149.783 117.769 149.307 118.064C148.843 118.347 148.474 118.75 148.202 119.271C147.93 119.781 147.794 120.365 147.794 121.022C147.794 121.736 148.004 122.297 148.423 122.705C148.843 123.102 149.432 123.3 150.191 123.3ZM160.809 117.095C161.205 116.63 161.687 116.302 162.254 116.109C162.832 115.916 163.517 115.82 164.311 115.82L163.92 117.843C163.727 117.809 163.551 117.792 163.393 117.792C161.659 117.792 160.61 118.704 160.248 120.529L159.347 125H157.222L159.024 115.922H161.047L160.809 117.095ZM175.584 112.386L173.068 125H171.045L171.232 124.065C170.416 124.768 169.436 125.119 168.291 125.119C167.543 125.119 166.863 124.96 166.251 124.643C165.651 124.326 165.175 123.867 164.823 123.266C164.472 122.654 164.296 121.94 164.296 121.124C164.296 120.104 164.517 119.192 164.959 118.387C165.401 117.582 166.008 116.953 166.778 116.5C167.56 116.047 168.433 115.82 169.396 115.82C170.11 115.82 170.728 115.939 171.249 116.177C171.782 116.415 172.196 116.766 172.49 117.231L173.459 112.386H175.584ZM168.835 123.3C169.425 123.3 169.957 123.158 170.433 122.875C170.909 122.58 171.278 122.178 171.538 121.668C171.81 121.147 171.946 120.557 171.946 119.9C171.946 119.186 171.737 118.631 171.317 118.234C170.898 117.826 170.309 117.622 169.549 117.622C168.96 117.622 168.427 117.769 167.951 118.064C167.475 118.347 167.101 118.75 166.829 119.271C166.569 119.781 166.438 120.365 166.438 121.022C166.438 121.736 166.648 122.297 167.067 122.705C167.487 123.102 168.076 123.3 168.835 123.3ZM178.959 125.119C178.189 125.119 177.452 125.028 176.749 124.847C176.058 124.654 175.52 124.416 175.134 124.133L176.018 122.501C176.392 122.773 176.863 122.988 177.429 123.147C177.996 123.306 178.58 123.385 179.18 123.385C179.86 123.385 180.37 123.294 180.71 123.113C181.062 122.92 181.237 122.648 181.237 122.297C181.237 122.025 181.09 121.827 180.795 121.702C180.512 121.577 180.059 121.447 179.435 121.311C178.789 121.186 178.257 121.056 177.837 120.92C177.429 120.773 177.072 120.54 176.766 120.223C176.472 119.894 176.324 119.447 176.324 118.88C176.324 117.939 176.715 117.197 177.497 116.653C178.291 116.098 179.339 115.82 180.642 115.82C181.266 115.82 181.872 115.894 182.461 116.041C183.051 116.177 183.532 116.364 183.906 116.602L183.124 118.234C182.75 117.996 182.325 117.82 181.849 117.707C181.385 117.594 180.914 117.537 180.438 117.537C179.77 117.537 179.26 117.639 178.908 117.843C178.568 118.047 178.398 118.313 178.398 118.642C178.398 118.937 178.546 119.152 178.84 119.288C179.146 119.413 179.617 119.543 180.251 119.679C180.886 119.804 181.407 119.94 181.815 120.087C182.223 120.223 182.575 120.45 182.869 120.767C183.164 121.084 183.311 121.515 183.311 122.059C183.311 123.034 182.915 123.787 182.121 124.32C181.328 124.853 180.274 125.119 178.959 125.119Z" fill="#5B6568"/>
<path d="M160.549 52C166.349 53.2 170.782 55.6 173.849 59.2C176.982 62.7333 178.549 67.0333 178.549 72.1C178.549 76.2333 177.416 80.0667 175.149 83.6C172.949 87.1333 169.549 90 164.949 92.2C160.416 94.3333 154.782 95.4 148.049 95.4C143.116 95.4 138.216 94.8 133.349 93.6C128.549 92.4 124.382 90.7 120.849 88.5L128.049 73.6C130.782 75.4667 133.849 76.9 137.249 77.9C140.716 78.9 144.116 79.4 147.449 79.4C150.849 79.4 153.549 78.7667 155.549 77.5C157.549 76.2333 158.549 74.4333 158.549 72.1C158.549 67.5667 154.982 65.3 147.849 65.3H139.549V52.8L152.049 39.3H124.449V24H175.049V36.4L160.549 52Z" fill="#99A8AD"/>
<path d="M228 336H303L303 456C303 469.807 291.807 481 278 481L28 481C14.1929 481 3 469.807 3 456L3 336H78" stroke="#727F84"/>
<path d="M111.521 459.17C110.331 459.17 109.3 458.96 108.427 458.541C107.566 458.11 106.903 457.51 106.438 456.739C105.973 455.968 105.741 455.084 105.741 454.087C105.741 452.75 106.047 451.537 106.659 450.449C107.271 449.361 108.132 448.505 109.243 447.882C110.354 447.247 111.629 446.93 113.068 446.93C114.099 446.93 115.006 447.1 115.788 447.44C116.581 447.78 117.182 448.273 117.59 448.919L115.992 450.262C115.323 449.333 114.298 448.868 112.915 448.868C111.929 448.868 111.062 449.095 110.314 449.548C109.566 450.001 108.988 450.619 108.58 451.401C108.172 452.172 107.968 453.022 107.968 453.951C107.968 454.96 108.291 455.759 108.937 456.348C109.583 456.937 110.501 457.232 111.691 457.232C113.062 457.232 114.19 456.773 115.074 455.855L116.366 457.249C115.799 457.895 115.102 458.377 114.275 458.694C113.448 459.011 112.53 459.17 111.521 459.17ZM121.221 451.095C121.617 450.63 122.099 450.302 122.666 450.109C123.244 449.916 123.929 449.82 124.723 449.82L124.332 451.843C124.139 451.809 123.963 451.792 123.805 451.792C122.071 451.792 121.022 452.704 120.66 454.529L119.759 459H117.634L119.436 449.922H121.459L121.221 451.095ZM134.109 453.798C134.109 454.24 134.064 454.671 133.973 455.09H126.765C126.799 456.575 127.672 457.317 129.383 457.317C129.905 457.317 130.392 457.238 130.845 457.079C131.299 456.909 131.684 456.677 132.001 456.382L132.885 457.861C132.421 458.28 131.86 458.598 131.202 458.813C130.556 459.017 129.876 459.119 129.162 459.119C128.256 459.119 127.462 458.955 126.782 458.626C126.114 458.297 125.598 457.833 125.235 457.232C124.873 456.62 124.691 455.917 124.691 455.124C124.691 454.115 124.912 453.209 125.354 452.404C125.808 451.588 126.431 450.953 127.224 450.5C128.029 450.047 128.93 449.82 129.927 449.82C131.197 449.82 132.211 450.177 132.97 450.891C133.73 451.594 134.109 452.563 134.109 453.798ZM129.825 451.52C129.111 451.52 128.499 451.713 127.989 452.098C127.491 452.483 127.145 453.01 126.952 453.679H132.154C132.166 452.999 131.956 452.472 131.525 452.098C131.106 451.713 130.539 451.52 129.825 451.52ZM146.522 446.386L144.006 459H141.983L142.17 458.065C141.354 458.768 140.373 459.119 139.229 459.119C138.481 459.119 137.801 458.96 137.189 458.643C136.588 458.326 136.112 457.867 135.761 457.266C135.409 456.654 135.234 455.94 135.234 455.124C135.234 454.104 135.455 453.192 135.897 452.387C136.339 451.582 136.945 450.953 137.716 450.5C138.498 450.047 139.37 449.82 140.334 449.82C141.048 449.82 141.665 449.939 142.187 450.177C142.719 450.415 143.133 450.766 143.428 451.231L144.397 446.386H146.522ZM139.773 457.3C140.362 457.3 140.895 457.158 141.371 456.875C141.847 456.58 142.215 456.178 142.476 455.668C142.748 455.147 142.884 454.557 142.884 453.9C142.884 453.186 142.674 452.631 142.255 452.234C141.835 451.826 141.246 451.622 140.487 451.622C139.897 451.622 139.365 451.769 138.889 452.064C138.413 452.347 138.039 452.75 137.767 453.271C137.506 453.781 137.376 454.365 137.376 455.022C137.376 455.736 137.585 456.297 138.005 456.705C138.424 457.102 139.013 457.3 139.773 457.3ZM156.306 453.798C156.306 454.24 156.26 454.671 156.17 455.09H148.962C148.996 456.575 149.868 457.317 151.58 457.317C152.101 457.317 152.588 457.238 153.042 457.079C153.495 456.909 153.88 456.677 154.198 456.382L155.082 457.861C154.617 458.28 154.056 458.598 153.399 458.813C152.753 459.017 152.073 459.119 151.359 459.119C150.452 459.119 149.659 458.955 148.979 458.626C148.31 458.297 147.794 457.833 147.432 457.232C147.069 456.62 146.888 455.917 146.888 455.124C146.888 454.115 147.109 453.209 147.551 452.404C148.004 451.588 148.627 450.953 149.421 450.5C150.225 450.047 151.126 449.82 152.124 449.82C153.393 449.82 154.407 450.177 155.167 450.891C155.926 451.594 156.306 452.563 156.306 453.798ZM152.022 451.52C151.308 451.52 150.696 451.713 150.186 452.098C149.687 452.483 149.341 453.01 149.149 453.679H154.351C154.362 452.999 154.152 452.472 153.722 452.098C153.302 451.713 152.736 451.52 152.022 451.52ZM164.077 449.82C165.097 449.82 165.902 450.086 166.491 450.619C167.092 451.152 167.392 451.905 167.392 452.88C167.392 453.152 167.352 453.515 167.273 453.968L166.27 459H164.145L165.131 454.019C165.176 453.792 165.199 453.56 165.199 453.322C165.199 452.223 164.593 451.673 163.38 451.673C162.598 451.673 161.952 451.894 161.442 452.336C160.932 452.767 160.586 453.418 160.405 454.291L159.453 459H157.328L159.13 449.922H161.153L160.949 450.925C161.765 450.188 162.808 449.82 164.077 449.82ZM171.958 455.957C171.935 456.138 171.924 456.269 171.924 456.348C171.924 457.028 172.281 457.368 172.995 457.368C173.437 457.368 173.833 457.249 174.185 457.011L174.559 458.575C173.981 458.938 173.25 459.119 172.366 459.119C171.584 459.119 170.955 458.904 170.479 458.473C170.003 458.042 169.765 457.447 169.765 456.688C169.765 456.439 169.787 456.201 169.833 455.974L170.7 451.69H169.221L169.561 449.99H171.04L171.448 447.916H173.573L173.148 449.99H175.596L175.256 451.69H172.808L171.958 455.957ZM177.973 449.922H180.098L178.296 459H176.171L177.973 449.922ZM179.52 448.426C179.146 448.426 178.84 448.313 178.602 448.086C178.364 447.848 178.245 447.565 178.245 447.236C178.245 446.851 178.375 446.528 178.636 446.267C178.908 446.006 179.259 445.876 179.69 445.876C180.064 445.876 180.37 445.989 180.608 446.216C180.846 446.431 180.965 446.698 180.965 447.015C180.965 447.434 180.829 447.774 180.557 448.035C180.296 448.296 179.95 448.426 179.52 448.426ZM191.761 449.922L189.959 459H187.936L188.123 458.065C187.329 458.768 186.343 459.119 185.165 459.119C184.417 459.119 183.737 458.96 183.125 458.643C182.524 458.326 182.048 457.867 181.697 457.266C181.345 456.654 181.17 455.94 181.17 455.124C181.17 454.115 181.391 453.209 181.833 452.404C182.286 451.588 182.898 450.953 183.669 450.5C184.451 450.047 185.323 449.82 186.287 449.82C187.737 449.82 188.769 450.302 189.381 451.265L189.636 449.922H191.761ZM185.709 457.3C186.309 457.3 186.842 457.158 187.307 456.875C187.783 456.58 188.157 456.178 188.429 455.668C188.701 455.147 188.837 454.557 188.837 453.9C188.837 453.186 188.627 452.631 188.208 452.234C187.788 451.826 187.199 451.622 186.44 451.622C185.839 451.622 185.301 451.769 184.825 452.064C184.36 452.347 183.992 452.75 183.72 453.271C183.448 453.781 183.312 454.365 183.312 455.022C183.312 455.736 183.521 456.297 183.941 456.705C184.36 457.102 184.949 457.3 185.709 457.3ZM195.255 446.386H197.38L194.864 459H192.739L195.255 446.386ZM200.747 459.119C199.976 459.119 199.24 459.028 198.537 458.847C197.846 458.654 197.307 458.416 196.922 458.133L197.806 456.501C198.18 456.773 198.65 456.988 199.217 457.147C199.784 457.306 200.367 457.385 200.968 457.385C201.648 457.385 202.158 457.294 202.498 457.113C202.849 456.92 203.025 456.648 203.025 456.297C203.025 456.025 202.878 455.827 202.583 455.702C202.3 455.577 201.846 455.447 201.223 455.311C200.577 455.186 200.044 455.056 199.625 454.92C199.217 454.773 198.86 454.54 198.554 454.223C198.259 453.894 198.112 453.447 198.112 452.88C198.112 451.939 198.503 451.197 199.285 450.653C200.078 450.098 201.127 449.82 202.43 449.82C203.053 449.82 203.66 449.894 204.249 450.041C204.838 450.177 205.32 450.364 205.694 450.602L204.912 452.234C204.538 451.996 204.113 451.82 203.637 451.707C203.172 451.594 202.702 451.537 202.226 451.537C201.557 451.537 201.047 451.639 200.696 451.843C200.356 452.047 200.186 452.313 200.186 452.642C200.186 452.937 200.333 453.152 200.628 453.288C200.934 453.413 201.404 453.543 202.039 453.679C202.674 453.804 203.195 453.94 203.603 454.087C204.011 454.223 204.362 454.45 204.657 454.767C204.952 455.084 205.099 455.515 205.099 456.059C205.099 457.034 204.702 457.787 203.909 458.32C203.116 458.853 202.062 459.119 200.747 459.119Z" fill="#5B6568"/>
<path d="M162.673 386C168.473 387.2 172.906 389.6 175.973 393.2C179.106 396.733 180.673 401.033 180.673 406.1C180.673 410.233 179.54 414.067 177.273 417.6C175.073 421.133 171.673 424 167.073 426.2C162.54 428.333 156.906 429.4 150.173 429.4C145.24 429.4 140.34 428.8 135.473 427.6C130.673 426.4 126.506 424.7 122.973 422.5L130.173 407.6C132.906 409.467 135.973 410.9 139.373 411.9C142.84 412.9 146.24 413.4 149.573 413.4C152.973 413.4 155.673 412.767 157.673 411.5C159.673 410.233 160.673 408.433 160.673 406.1C160.673 401.567 157.106 399.3 149.973 399.3H141.673V386.8L154.173 373.3H126.573V358H177.173V370.4L162.673 386Z" fill="#99A8AD"/>
</svg>
