<svg width="41" height="42" viewBox="0 0 41 42" fill="none" xmlns="http://www.w3.org/2000/svg">
<rect x="0.230774" y="0.978027" width="40.4396" height="40.4396" rx="20.2198" fill="#FFCD29"/>
<path d="M20.4505 9.76929C14.1489 9.76929 9.02197 14.8962 9.02197 21.1979C9.02197 27.4991 14.1489 32.6264 20.4505 32.6264C26.7518 32.6264 31.8791 27.4991 31.8791 21.1979C31.8791 14.8962 26.7527 9.76929 20.4505 9.76929ZM23.2927 21.6002H21.4334C21.4334 24.5708 21.4334 28.2274 21.4334 28.2274H18.6782C18.6782 28.2274 18.6782 24.6063 18.6782 21.6002H17.3685V19.258H18.6782V17.743C18.6782 16.6579 19.1938 14.9625 21.4587 14.9625L23.5003 14.9703V17.2439C23.5003 17.2439 22.2597 17.2439 22.0185 17.2439C21.7773 17.2439 21.4343 17.3646 21.4343 17.882V19.2584H23.5335L23.2927 21.6002Z" fill="white"/>
</svg>
