<svg width="30" height="30" viewBox="0 0 30 30" fill="none" xmlns="http://www.w3.org/2000/svg">
<path d="M17.8711 14.8723C17.8711 16.4243 16.5857 17.6823 15 17.6823C13.4143 17.6823 12.1289 16.4243 12.1289 14.8723C12.1289 13.3204 13.4143 12.0623 15 12.0623C16.5857 12.0623 17.8711 13.3204 17.8711 14.8723Z" fill="#99A8AD"/>
<path d="M21.7145 9.90064C21.5765 9.5346 21.3563 9.20329 21.0702 8.93134C20.7923 8.65132 20.454 8.43582 20.0798 8.30074C19.7763 8.18538 19.3204 8.04806 18.4806 8.01065C17.5722 7.9701 17.2998 7.96136 15 7.96136C12.7 7.96136 12.4276 7.96988 11.5194 8.01042C10.6796 8.04806 10.2235 8.18538 9.9202 8.30074C9.54597 8.43582 9.20746 8.65132 8.92982 8.93134C8.64372 9.20329 8.42354 9.53438 8.28529 9.90064C8.16742 10.1977 8.02711 10.6441 7.98889 11.466C7.94746 12.3549 7.93854 12.6215 7.93854 14.8726C7.93854 17.1235 7.94746 17.39 7.98889 18.2791C8.02711 19.101 8.16742 19.5473 8.28529 19.8443C8.42354 20.2106 8.64349 20.5417 8.9296 20.8136C9.20746 21.0936 9.54575 21.3091 9.91997 21.4442C10.2235 21.5598 10.6796 21.6971 11.5194 21.7345C12.4276 21.7751 12.6997 21.7836 14.9998 21.7836C17.3 21.7836 17.5724 21.7751 18.4804 21.7345C19.3201 21.6971 19.7763 21.5598 20.0798 21.4442C20.831 21.1606 21.4247 20.5795 21.7145 19.8443C21.8324 19.5473 21.9727 19.101 22.0111 18.2791C22.0525 17.39 22.0612 17.1235 22.0612 14.8726C22.0612 12.6215 22.0525 12.3549 22.0111 11.466C21.9729 10.6441 21.8326 10.1977 21.7145 9.90064ZM15 19.2012C12.5571 19.2012 10.5769 17.2632 10.5769 14.8724C10.5769 12.4815 12.5571 10.5436 15 10.5436C17.4426 10.5436 19.4229 12.4815 19.4229 14.8724C19.4229 17.2632 17.4426 19.2012 15 19.2012ZM19.5978 11.384C19.0269 11.384 18.5641 10.9311 18.5641 10.3724C18.5641 9.81372 19.0269 9.36077 19.5978 9.36077C20.1686 9.36077 20.6314 9.81372 20.6314 10.3724C20.6312 10.9311 20.1686 11.384 19.5978 11.384Z" fill="#99A8AD"/>
<path d="M15 0.191467C6.717 0.191467 0 6.76555 0 14.8723C0 22.9791 6.717 29.5532 15 29.5532C23.283 29.5532 30 22.9791 30 14.8723C30 6.76555 23.283 0.191467 15 0.191467ZM23.5613 18.3479C23.5197 19.2453 23.3739 19.8579 23.161 20.3942C22.7135 21.5266 21.7989 22.4217 20.6419 22.8597C20.0942 23.068 19.468 23.2105 18.5513 23.2515C17.6328 23.2925 17.3394 23.3023 15.0002 23.3023C12.6608 23.3023 12.3676 23.2925 11.4489 23.2515C10.5322 23.2105 9.90601 23.068 9.35829 22.8597C8.78334 22.648 8.26286 22.3162 7.83257 21.8873C7.39449 21.4663 7.05551 20.9567 6.83922 20.3942C6.62636 19.8582 6.48056 19.2453 6.4389 18.3481C6.39656 17.4489 6.38672 17.1617 6.38672 14.8723C6.38672 12.5829 6.39656 12.2957 6.43867 11.3968C6.48033 10.4994 6.6259 9.88671 6.83876 9.35042C7.05505 8.78793 7.39426 8.2783 7.83257 7.85738C8.26263 7.4284 8.78334 7.09664 9.35806 6.88495C9.90601 6.67661 10.532 6.53414 11.4489 6.49315C12.3674 6.45216 12.6608 6.4423 15 6.4423C17.3392 6.4423 17.6326 6.45216 18.5511 6.49337C19.468 6.53414 20.094 6.67661 20.6419 6.88472C21.2167 7.09641 21.7374 7.4284 22.1677 7.85738C22.6057 8.27852 22.9449 8.78793 23.161 9.35042C23.3741 9.88671 23.5197 10.4994 23.5616 11.3968C23.6034 12.2957 23.6133 12.5829 23.6133 14.8723C23.6133 17.1617 23.6034 17.4489 23.5613 18.3479Z" fill="#99A8AD"/>
</svg>
