<svg width="30" height="30" viewBox="0 0 30 30" fill="none" xmlns="http://www.w3.org/2000/svg">
<path d="M15 29.5531C23.2843 29.5531 30 22.9803 30 14.8723C30 6.76425 23.2843 0.191406 15 0.191406C6.71573 0.191406 0 6.76425 0 14.8723C0 22.9803 6.71573 29.5531 15 29.5531Z" fill="#99A8AD"/>
<path d="M23.9624 16.0537V22.1063H20.3769V16.4593C20.3769 15.0414 19.8593 14.0731 18.5611 14.0731C17.5704 14.0731 16.9819 14.725 16.722 15.3563C16.6276 15.5818 16.6033 15.8951 16.6033 16.2115V22.106H13.0176C13.0176 22.106 13.0657 12.5419 13.0176 11.5519H16.6035V13.0475C16.5963 13.0593 16.5862 13.0708 16.5797 13.0821H16.6035V13.0475C17.08 12.33 17.9298 11.3041 19.8349 11.3041C22.1938 11.3041 23.9624 12.8125 23.9624 16.0537ZM9.26665 6.46448C8.04014 6.46448 7.2377 7.25246 7.2377 8.28774C7.2377 9.30105 8.01687 10.1118 9.21959 10.1118H9.24285C10.4934 10.1118 11.271 9.30105 11.271 8.28774C11.2472 7.25246 10.4934 6.46448 9.26665 6.46448ZM7.45081 22.1063H11.0352V11.5519H7.45081V22.1063Z" fill="#E0EFFB"/>
</svg>
