<svg width="41" height="42" viewBox="0 0 41 42" fill="none" xmlns="http://www.w3.org/2000/svg">
<rect x="0.230774" y="0.516479" width="40.4396" height="41.3187" rx="20.2198" fill="#FFCD29"/>
<g clip-path="url(#clip0)">
<path d="M25.4506 25.7547H15.4506C14.5315 25.7547 13.7839 25.0358 13.7839 24.1521V18.1997C13.7839 17.316 14.5315 16.5972 15.4506 16.5972H25.4506C26.3696 16.5972 27.1172 17.316 27.1172 18.1997V24.1521C27.1172 25.0358 26.3696 25.7547 25.4506 25.7547ZM15.4506 17.9708C15.3191 17.9708 15.2125 18.0734 15.2125 18.1997V24.1521C15.2125 24.2785 15.3191 24.381 15.4506 24.381H25.4506C25.582 24.381 25.6887 24.2785 25.6887 24.1521V18.1997C25.6887 18.0734 25.582 17.9708 25.4506 17.9708H15.4506Z" fill="white"/>
<path d="M20.4505 22.6795C20.2039 22.6795 19.9582 22.6264 19.7286 22.5211L14.1896 19.9643C13.8334 19.8004 13.6839 19.3901 13.8543 19.0477C14.0248 18.7061 14.4505 18.5605 14.8067 18.7253L20.3467 21.2821C20.4134 21.3123 20.4867 21.3123 20.5524 21.2821L26.0934 18.7253C26.4515 18.5614 26.8762 18.7061 27.0458 19.0477C27.2172 19.3901 27.0667 19.8004 26.7105 19.9643L21.1705 22.5211C20.9429 22.6264 20.6972 22.6795 20.4505 22.6795Z" fill="white"/>
<path d="M20.4505 32.1649C14.1486 32.1649 9.02197 27.2354 9.02197 21.1759C9.02197 15.1164 14.1486 10.1869 20.4505 10.1869C24.2163 10.1869 27.742 11.9754 29.881 14.9699C30.1039 15.283 30.021 15.7107 29.6972 15.925C29.3724 16.1411 28.9277 16.0605 28.7039 15.7482C26.8305 13.1255 23.7458 11.5605 20.4505 11.5605C14.9363 11.5605 10.4505 15.8737 10.4505 21.1759C10.4505 26.4781 14.9363 30.7913 20.4505 30.7913C25.9648 30.7913 30.4505 26.4781 30.4505 21.1759C30.4505 20.7968 30.7705 20.4891 31.1648 20.4891C31.5591 20.4891 31.8791 20.7968 31.8791 21.1759C31.8791 27.2354 26.7524 32.1649 20.4505 32.1649Z" fill="white"/>
<path d="M29.2601 16.1393H25.9267C25.5325 16.1393 25.2125 15.8316 25.2125 15.4525C25.2125 15.0734 25.5325 14.7657 25.9267 14.7657H28.5458V12.2474C28.5458 11.8682 28.8658 11.5605 29.2601 11.5605C29.6544 11.5605 29.9744 11.8682 29.9744 12.2474V15.4525C29.9744 15.8316 29.6544 16.1393 29.2601 16.1393Z" fill="white"/>
</g>
<defs>
<clipPath id="clip0">
<rect width="22.8571" height="21.978" fill="white" transform="translate(9.02197 10.1869)"/>
</clipPath>
</defs>
</svg>
