<svg width="304" height="482" viewBox="0 0 304 482" fill="none" xmlns="http://www.w3.org/2000/svg">
<path d="M77.124 313.611H2.24792L2.24792 168.389H77.124M226.876 313.611H301.752V168.389H226.876" stroke="#727F84"/>
<path d="M55.5918 273.1C57.0311 273.1 58.1418 273.417 58.9238 274.052C59.7171 274.675 60.1138 275.554 60.1138 276.687C60.1138 277.696 59.8814 278.568 59.4168 279.305C58.9634 280.03 58.3061 280.591 57.4448 280.988C56.5948 281.373 55.5918 281.566 54.4358 281.566H51.5288L50.8318 285H48.6218L51.0018 273.1H55.5918ZM54.5208 279.696C55.5974 279.696 56.4248 279.458 57.0028 278.982C57.5921 278.495 57.8868 277.798 57.8868 276.891C57.8868 276.256 57.6658 275.78 57.2238 275.463C56.7931 275.134 56.1698 274.97 55.3538 274.97H52.8378L51.9028 279.696H54.5208ZM71.2295 275.922L69.4275 285H67.4045L67.5915 284.065C66.7982 284.768 65.8122 285.119 64.6335 285.119C63.8855 285.119 63.2055 284.96 62.5935 284.643C61.9928 284.326 61.5168 283.867 61.1655 283.266C60.8142 282.654 60.6385 281.94 60.6385 281.124C60.6385 280.115 60.8595 279.209 61.3015 278.404C61.7548 277.588 62.3668 276.953 63.1375 276.5C63.9195 276.047 64.7922 275.82 65.7555 275.82C67.2062 275.82 68.2375 276.302 68.8495 277.265L69.1045 275.922H71.2295ZM65.1775 283.3C65.7782 283.3 66.3108 283.158 66.7755 282.875C67.2515 282.58 67.6255 282.178 67.8975 281.668C68.1695 281.147 68.3055 280.557 68.3055 279.9C68.3055 279.186 68.0958 278.631 67.6765 278.234C67.2572 277.826 66.6678 277.622 65.9085 277.622C65.3078 277.622 64.7695 277.769 64.2935 278.064C63.8288 278.347 63.4605 278.75 63.1885 279.271C62.9165 279.781 62.7805 280.365 62.7805 281.022C62.7805 281.736 62.9902 282.297 63.4095 282.705C63.8288 283.102 64.4182 283.3 65.1775 283.3ZM75.7948 277.095C76.1915 276.63 76.6731 276.302 77.2398 276.109C77.8178 275.916 78.5035 275.82 79.2968 275.82L78.9058 277.843C78.7131 277.809 78.5375 277.792 78.3788 277.792C76.6448 277.792 75.5965 278.704 75.2338 280.529L74.3328 285H72.2078L74.0098 275.922H76.0328L75.7948 277.095ZM82.5875 281.957C82.5648 282.138 82.5535 282.269 82.5535 282.348C82.5535 283.028 82.9105 283.368 83.6245 283.368C84.0665 283.368 84.4632 283.249 84.8145 283.011L85.1885 284.575C84.6105 284.938 83.8795 285.119 82.9955 285.119C82.2135 285.119 81.5845 284.904 81.1085 284.473C80.6325 284.042 80.3945 283.447 80.3945 282.688C80.3945 282.439 80.4172 282.201 80.4625 281.974L81.3295 277.69H79.8505L80.1905 275.99H81.6695L82.0775 273.916H84.2025L83.7775 275.99H86.2255L85.8855 277.69H83.4375L82.5875 281.957ZM88.6026 275.922H90.7276L88.9256 285H86.8006L88.6026 275.922ZM90.1496 274.426C89.7756 274.426 89.4696 274.313 89.2316 274.086C88.9936 273.848 88.8746 273.565 88.8746 273.236C88.8746 272.851 89.0049 272.528 89.2656 272.267C89.5376 272.006 89.8889 271.876 90.3196 271.876C90.6936 271.876 90.9996 271.989 91.2376 272.216C91.4756 272.431 91.5946 272.698 91.5946 273.015C91.5946 273.434 91.4586 273.774 91.1866 274.035C90.9259 274.296 90.5803 274.426 90.1496 274.426ZM96.2536 285.119C95.3583 285.119 94.5706 284.955 93.8906 284.626C93.222 284.286 92.7063 283.816 92.3436 283.215C91.981 282.614 91.7996 281.917 91.7996 281.124C91.7996 280.115 92.032 279.209 92.4966 278.404C92.9613 277.599 93.6016 276.97 94.4176 276.517C95.245 276.052 96.1856 275.82 97.2396 275.82C98.1576 275.82 98.9453 276.001 99.6026 276.364C100.271 276.715 100.787 277.242 101.15 277.945L99.3306 278.88C98.9113 278.041 98.1576 277.622 97.0696 277.622C96.469 277.622 95.9306 277.769 95.4546 278.064C94.99 278.347 94.6216 278.75 94.3496 279.271C94.0776 279.781 93.9416 280.365 93.9416 281.022C93.9416 281.736 94.1513 282.297 94.5706 282.705C94.99 283.102 95.585 283.3 96.3556 283.3C96.877 283.3 97.3473 283.198 97.7666 282.994C98.186 282.779 98.543 282.461 98.8376 282.042L100.402 283.096C99.9823 283.731 99.4043 284.229 98.6676 284.592C97.931 284.943 97.1263 285.119 96.2536 285.119ZM103.395 275.922H105.52L103.718 285H101.593L103.395 275.922ZM104.942 274.426C104.568 274.426 104.262 274.313 104.024 274.086C103.786 273.848 103.667 273.565 103.667 273.236C103.667 272.851 103.797 272.528 104.058 272.267C104.33 272.006 104.681 271.876 105.112 271.876C105.486 271.876 105.792 271.989 106.03 272.216C106.268 272.431 106.387 272.698 106.387 273.015C106.387 273.434 106.251 273.774 105.979 274.035C105.718 274.296 105.372 274.426 104.942 274.426ZM113.103 275.82C113.851 275.82 114.525 275.979 115.126 276.296C115.738 276.613 116.219 277.072 116.571 277.673C116.922 278.274 117.098 278.982 117.098 279.798C117.098 280.807 116.871 281.719 116.418 282.535C115.976 283.34 115.364 283.974 114.582 284.439C113.811 284.892 112.95 285.119 111.998 285.119C111.284 285.119 110.66 284.994 110.128 284.745C109.595 284.496 109.181 284.133 108.887 283.657L107.969 288.298H105.844L108.309 275.922H110.332L110.145 276.874C110.938 276.171 111.924 275.82 113.103 275.82ZM111.828 283.3C112.428 283.3 112.961 283.158 113.426 282.875C113.902 282.58 114.276 282.178 114.548 281.668C114.82 281.147 114.956 280.557 114.956 279.9C114.956 279.186 114.746 278.631 114.327 278.234C113.907 277.826 113.318 277.622 112.559 277.622C111.958 277.622 111.42 277.769 110.944 278.064C110.479 278.347 110.111 278.75 109.839 279.271C109.567 279.781 109.431 280.365 109.431 281.022C109.431 281.736 109.64 282.297 110.06 282.705C110.479 283.102 111.068 283.3 111.828 283.3ZM128.837 275.922L127.035 285H125.012L125.199 284.065C124.406 284.768 123.42 285.119 122.241 285.119C121.493 285.119 120.813 284.96 120.201 284.643C119.6 284.326 119.124 283.867 118.773 283.266C118.422 282.654 118.246 281.94 118.246 281.124C118.246 280.115 118.467 279.209 118.909 278.404C119.362 277.588 119.974 276.953 120.745 276.5C121.527 276.047 122.4 275.82 123.363 275.82C124.814 275.82 125.845 276.302 126.457 277.265L126.712 275.922H128.837ZM122.785 283.3C123.386 283.3 123.918 283.158 124.383 282.875C124.859 282.58 125.233 282.178 125.505 281.668C125.777 281.147 125.913 280.557 125.913 279.9C125.913 279.186 125.703 278.631 125.284 278.234C124.865 277.826 124.275 277.622 123.516 277.622C122.915 277.622 122.377 277.769 121.901 278.064C121.436 278.347 121.068 278.75 120.796 279.271C120.524 279.781 120.388 280.365 120.388 281.022C120.388 281.736 120.598 282.297 121.017 282.705C121.436 283.102 122.026 283.3 122.785 283.3ZM134.354 285.119C133.459 285.119 132.671 284.955 131.991 284.626C131.323 284.286 130.807 283.816 130.444 283.215C130.082 282.614 129.9 281.917 129.9 281.124C129.9 280.115 130.133 279.209 130.597 278.404C131.062 277.599 131.702 276.97 132.518 276.517C133.346 276.052 134.286 275.82 135.34 275.82C136.258 275.82 137.046 276.001 137.703 276.364C138.372 276.715 138.888 277.242 139.25 277.945L137.431 278.88C137.012 278.041 136.258 277.622 135.17 277.622C134.57 277.622 134.031 277.769 133.555 278.064C133.091 278.347 132.722 278.75 132.45 279.271C132.178 279.781 132.042 280.365 132.042 281.022C132.042 281.736 132.252 282.297 132.671 282.705C133.091 283.102 133.686 283.3 134.456 283.3C134.978 283.3 135.448 283.198 135.867 282.994C136.287 282.779 136.644 282.461 136.938 282.042L138.502 283.096C138.083 283.731 137.505 284.229 136.768 284.592C136.032 284.943 135.227 285.119 134.354 285.119ZM132.892 288.876C132.269 288.876 131.753 288.757 131.345 288.519L131.855 287.516C132.207 287.697 132.598 287.788 133.028 287.788C133.357 287.788 133.601 287.726 133.759 287.601C133.929 287.488 134.02 287.335 134.031 287.142C134.031 286.791 133.765 286.615 133.232 286.615H132.705L133.487 284.881H134.643L134.235 285.833C134.632 285.89 134.932 286.026 135.136 286.241C135.352 286.456 135.459 286.728 135.459 287.057C135.459 287.624 135.221 288.066 134.745 288.383C134.281 288.712 133.663 288.876 132.892 288.876ZM144.048 285.119C143.164 285.119 142.388 284.955 141.719 284.626C141.062 284.286 140.552 283.816 140.189 283.215C139.827 282.614 139.645 281.917 139.645 281.124C139.645 280.115 139.872 279.209 140.325 278.404C140.79 277.599 141.43 276.97 142.246 276.517C143.074 276.052 144.003 275.82 145.034 275.82C145.918 275.82 146.695 275.984 147.363 276.313C148.032 276.642 148.548 277.106 148.91 277.707C149.273 278.308 149.454 279.005 149.454 279.798C149.454 280.807 149.222 281.713 148.757 282.518C148.293 283.323 147.647 283.957 146.819 284.422C146.003 284.887 145.08 285.119 144.048 285.119ZM144.184 283.3C144.785 283.3 145.318 283.158 145.782 282.875C146.258 282.58 146.632 282.178 146.904 281.668C147.176 281.147 147.312 280.557 147.312 279.9C147.312 279.186 147.103 278.631 146.683 278.234C146.264 277.826 145.675 277.622 144.915 277.622C144.315 277.622 143.776 277.769 143.3 278.064C142.836 278.347 142.467 278.75 142.195 279.271C141.923 279.781 141.787 280.365 141.787 281.022C141.787 281.736 141.997 282.297 142.416 282.705C142.836 283.102 143.425 283.3 144.184 283.3ZM147.04 274.681C146.757 274.681 146.508 274.624 146.292 274.511C146.088 274.398 145.862 274.239 145.612 274.035C145.42 273.876 145.255 273.757 145.119 273.678C144.995 273.599 144.859 273.559 144.711 273.559C144.473 273.559 144.275 273.655 144.116 273.848C143.958 274.029 143.85 274.273 143.793 274.579H142.654C142.768 273.854 143.006 273.293 143.368 272.896C143.742 272.499 144.196 272.301 144.728 272.301C145 272.301 145.238 272.358 145.442 272.471C145.658 272.584 145.896 272.749 146.156 272.964C146.372 273.134 146.536 273.253 146.649 273.321C146.763 273.389 146.893 273.423 147.04 273.423C147.278 273.423 147.477 273.338 147.635 273.168C147.794 272.987 147.902 272.749 147.958 272.454H149.097C148.984 273.157 148.746 273.706 148.383 274.103C148.021 274.488 147.573 274.681 147.04 274.681ZM160.02 279.798C160.02 280.24 159.975 280.671 159.884 281.09H152.676C152.71 282.575 153.583 283.317 155.294 283.317C155.816 283.317 156.303 283.238 156.756 283.079C157.21 282.909 157.595 282.677 157.912 282.382L158.796 283.861C158.332 284.28 157.771 284.598 157.113 284.813C156.467 285.017 155.787 285.119 155.073 285.119C154.167 285.119 153.373 284.955 152.693 284.626C152.025 284.297 151.509 283.833 151.146 283.232C150.784 282.62 150.602 281.917 150.602 281.124C150.602 280.115 150.823 279.209 151.265 278.404C151.719 277.588 152.342 276.953 153.135 276.5C153.94 276.047 154.841 275.82 155.838 275.82C157.108 275.82 158.122 276.177 158.881 276.891C159.641 277.594 160.02 278.563 160.02 279.798ZM155.736 277.52C155.022 277.52 154.41 277.713 153.9 278.098C153.402 278.483 153.056 279.01 152.863 279.679H158.065C158.077 278.999 157.867 278.472 157.436 278.098C157.017 277.713 156.45 277.52 155.736 277.52ZM164.137 285.119C163.366 285.119 162.629 285.028 161.927 284.847C161.235 284.654 160.697 284.416 160.312 284.133L161.196 282.501C161.57 282.773 162.04 282.988 162.607 283.147C163.173 283.306 163.757 283.385 164.358 283.385C165.038 283.385 165.548 283.294 165.888 283.113C166.239 282.92 166.415 282.648 166.415 282.297C166.415 282.025 166.267 281.827 165.973 281.702C165.689 281.577 165.236 281.447 164.613 281.311C163.967 281.186 163.434 281.056 163.015 280.92C162.607 280.773 162.25 280.54 161.944 280.223C161.649 279.894 161.502 279.447 161.502 278.88C161.502 277.939 161.893 277.197 162.675 276.653C163.468 276.098 164.516 275.82 165.82 275.82C166.443 275.82 167.049 275.894 167.639 276.041C168.228 276.177 168.71 276.364 169.084 276.602L168.302 278.234C167.928 277.996 167.503 277.82 167.027 277.707C166.562 277.594 166.092 277.537 165.616 277.537C164.947 277.537 164.437 277.639 164.086 277.843C163.746 278.047 163.576 278.313 163.576 278.642C163.576 278.937 163.723 279.152 164.018 279.288C164.324 279.413 164.794 279.543 165.429 279.679C166.063 279.804 166.585 279.94 166.993 280.087C167.401 280.223 167.752 280.45 168.047 280.767C168.341 281.084 168.489 281.515 168.489 282.059C168.489 283.034 168.092 283.787 167.299 284.32C166.505 284.853 165.451 285.119 164.137 285.119ZM183.993 279.798C183.993 280.24 183.948 280.671 183.857 281.09H176.649C176.683 282.575 177.556 283.317 179.267 283.317C179.788 283.317 180.276 283.238 180.729 283.079C181.182 282.909 181.568 282.677 181.885 282.382L182.769 283.861C182.304 284.28 181.743 284.598 181.086 284.813C180.44 285.017 179.76 285.119 179.046 285.119C178.139 285.119 177.346 284.955 176.666 284.626C175.997 284.297 175.482 283.833 175.119 283.232C174.756 282.62 174.575 281.917 174.575 281.124C174.575 280.115 174.796 279.209 175.238 278.404C175.691 277.588 176.315 276.953 177.108 276.5C177.913 276.047 178.814 275.82 179.811 275.82C181.08 275.82 182.095 276.177 182.854 276.891C183.613 277.594 183.993 278.563 183.993 279.798ZM179.709 277.52C178.995 277.52 178.383 277.713 177.873 278.098C177.374 278.483 177.029 279.01 176.836 279.679H182.038C182.049 278.999 181.84 278.472 181.409 278.098C180.99 277.713 180.423 277.52 179.709 277.52ZM198.037 275.82C199.057 275.82 199.856 276.081 200.434 276.602C201.024 277.123 201.318 277.871 201.318 278.846C201.318 279.209 201.279 279.583 201.199 279.968L200.196 285H198.071L199.074 280.019C199.12 279.792 199.142 279.554 199.142 279.305C199.142 278.217 198.564 277.673 197.408 277.673C195.901 277.673 194.972 278.54 194.62 280.274L193.668 285H191.543L192.546 280.019C192.592 279.792 192.614 279.554 192.614 279.305C192.614 278.217 192.036 277.673 190.88 277.673C189.373 277.673 188.444 278.546 188.092 280.291L187.14 285H185.015L186.817 275.922H188.84L188.653 276.908C189.424 276.183 190.416 275.82 191.628 275.82C192.286 275.82 192.858 275.95 193.345 276.211C193.833 276.46 194.201 276.829 194.45 277.316C195.38 276.319 196.575 275.82 198.037 275.82ZM213.475 273.984C213.033 273.984 212.682 274.109 212.421 274.358C212.16 274.607 211.973 274.987 211.86 275.497L211.758 275.99H214.24L213.9 277.69H211.469L210.007 285H207.882L209.344 277.69H207.865L208.205 275.99H209.684L209.82 275.344C210.024 274.369 210.432 273.616 211.044 273.083C211.667 272.539 212.478 272.267 213.475 272.267C213.872 272.267 214.24 272.312 214.58 272.403C214.931 272.494 215.226 272.63 215.464 272.811L214.597 274.358C214.291 274.109 213.917 273.984 213.475 273.984ZM223.256 279.798C223.256 280.24 223.21 280.671 223.12 281.09H215.912C215.946 282.575 216.818 283.317 218.53 283.317C219.051 283.317 219.538 283.238 219.992 283.079C220.445 282.909 220.83 282.677 221.148 282.382L222.032 283.861C221.567 284.28 221.006 284.598 220.349 284.813C219.703 285.017 219.023 285.119 218.309 285.119C217.402 285.119 216.609 284.955 215.929 284.626C215.26 284.297 214.744 283.833 214.382 283.232C214.019 282.62 213.838 281.917 213.838 281.124C213.838 280.115 214.059 279.209 214.501 278.404C214.954 277.588 215.577 276.953 216.371 276.5C217.175 276.047 218.076 275.82 219.074 275.82C220.343 275.82 221.357 276.177 222.117 276.891C222.876 277.594 223.256 278.563 223.256 279.798ZM218.972 277.52C218.258 277.52 217.646 277.713 217.136 278.098C216.637 278.483 216.291 279.01 216.099 279.679H221.301C221.312 278.999 221.102 278.472 220.672 278.098C220.252 277.713 219.686 277.52 218.972 277.52ZM226.08 275.922H228.205L226.403 285H224.278L226.08 275.922ZM227.627 274.426C227.253 274.426 226.947 274.313 226.709 274.086C226.471 273.848 226.352 273.565 226.352 273.236C226.352 272.851 226.482 272.528 226.743 272.267C227.015 272.006 227.366 271.876 227.797 271.876C228.171 271.876 228.477 271.989 228.715 272.216C228.953 272.431 229.072 272.698 229.072 273.015C229.072 273.434 228.936 273.774 228.664 274.035C228.403 274.296 228.058 274.426 227.627 274.426ZM232.779 277.095C233.176 276.63 233.658 276.302 234.224 276.109C234.802 275.916 235.488 275.82 236.281 275.82L235.89 277.843C235.698 277.809 235.522 277.792 235.363 277.792C233.629 277.792 232.581 278.704 232.218 280.529L231.317 285H229.192L230.994 275.922H233.017L232.779 277.095ZM246.841 275.922L245.039 285H243.016L243.203 284.065C242.41 284.768 241.424 285.119 240.245 285.119C239.497 285.119 238.817 284.96 238.205 284.643C237.604 284.326 237.128 283.867 236.777 283.266C236.426 282.654 236.25 281.94 236.25 281.124C236.25 280.115 236.471 279.209 236.913 278.404C237.366 277.588 237.978 276.953 238.749 276.5C239.531 276.047 240.404 275.82 241.367 275.82C242.818 275.82 243.849 276.302 244.461 277.265L244.716 275.922H246.841ZM240.789 283.3C241.39 283.3 241.922 283.158 242.387 282.875C242.863 282.58 243.237 282.178 243.509 281.668C243.781 281.147 243.917 280.557 243.917 279.9C243.917 279.186 243.707 278.631 243.288 278.234C242.869 277.826 242.279 277.622 241.52 277.622C240.919 277.622 240.381 277.769 239.905 278.064C239.44 278.347 239.072 278.75 238.8 279.271C238.528 279.781 238.392 280.365 238.392 281.022C238.392 281.736 238.602 282.297 239.021 282.705C239.44 283.102 240.03 283.3 240.789 283.3ZM250.913 285.119C250.142 285.119 249.406 285.028 248.703 284.847C248.012 284.654 247.473 284.416 247.088 284.133L247.972 282.501C248.346 282.773 248.816 282.988 249.383 283.147C249.95 283.306 250.533 283.385 251.134 283.385C251.814 283.385 252.324 283.294 252.664 283.113C253.015 282.92 253.191 282.648 253.191 282.297C253.191 282.025 253.044 281.827 252.749 281.702C252.466 281.577 252.012 281.447 251.389 281.311C250.743 281.186 250.21 281.056 249.791 280.92C249.383 280.773 249.026 280.54 248.72 280.223C248.425 279.894 248.278 279.447 248.278 278.88C248.278 277.939 248.669 277.197 249.451 276.653C250.244 276.098 251.293 275.82 252.596 275.82C253.219 275.82 253.826 275.894 254.415 276.041C255.004 276.177 255.486 276.364 255.86 276.602L255.078 278.234C254.704 277.996 254.279 277.82 253.803 277.707C253.338 277.594 252.868 277.537 252.392 277.537C251.723 277.537 251.213 277.639 250.862 277.843C250.522 278.047 250.352 278.313 250.352 278.642C250.352 278.937 250.499 279.152 250.794 279.288C251.1 279.413 251.57 279.543 252.205 279.679C252.84 279.804 253.361 279.94 253.769 280.087C254.177 280.223 254.528 280.45 254.823 280.767C255.118 281.084 255.265 281.515 255.265 282.059C255.265 283.034 254.868 283.787 254.075 284.32C253.282 284.853 252.228 285.119 250.913 285.119Z" fill="#5B6568"/>
<path d="M151.853 216.5C161.653 216.5 168.886 218.5 173.553 222.5C178.286 226.5 180.653 231.833 180.653 238.5C180.653 242.833 179.519 246.833 177.253 250.5C175.053 254.1 171.653 257 167.053 259.2C162.519 261.333 156.886 262.4 150.153 262.4C145.219 262.4 140.319 261.8 135.453 260.6C130.653 259.4 126.519 257.7 123.053 255.5L130.153 240.6C132.953 242.467 136.019 243.9 139.353 244.9C142.753 245.9 146.153 246.4 149.553 246.4C152.953 246.4 155.653 245.767 157.653 244.5C159.719 243.167 160.753 241.333 160.753 239C160.753 236.667 159.753 234.9 157.753 233.7C155.753 232.5 152.219 231.9 147.153 231.9H128.153L131.653 191H176.253V206.3H148.053L147.153 216.5H151.853Z" fill="#FFCD29"/>
<path d="M225.628 146.223H300.504L300.504 26C300.504 12.1929 289.311 1 275.504 1L26 1C12.1929 1 1.00002 12.1929 1.00002 26L1.00002 146.223L75.8761 146.223" stroke="#727F84"/>
<path d="M106.406 113.1C107.846 113.1 108.956 113.417 109.738 114.052C110.532 114.675 110.928 115.554 110.928 116.687C110.928 117.696 110.696 118.568 110.231 119.305C109.778 120.03 109.121 120.591 108.259 120.988C107.409 121.373 106.406 121.566 105.25 121.566H102.343L101.646 125H99.4364L101.816 113.1H106.406ZM105.335 119.696C106.412 119.696 107.239 119.458 107.817 118.982C108.407 118.495 108.701 117.798 108.701 116.891C108.701 116.256 108.48 115.78 108.038 115.463C107.608 115.134 106.984 114.97 106.168 114.97H103.652L102.717 119.696H105.335ZM114.905 117.095C115.302 116.63 115.784 116.302 116.35 116.109C116.928 115.916 117.614 115.82 118.407 115.82L118.016 117.843C117.824 117.809 117.648 117.792 117.489 117.792C115.755 117.792 114.707 118.704 114.344 120.529L113.443 125H111.318L113.12 115.922H115.143L114.905 117.095ZM127.794 119.798C127.794 120.24 127.749 120.671 127.658 121.09H120.45C120.484 122.575 121.357 123.317 123.068 123.317C123.589 123.317 124.077 123.238 124.53 123.079C124.983 122.909 125.369 122.677 125.686 122.382L126.57 123.861C126.105 124.28 125.544 124.598 124.887 124.813C124.241 125.017 123.561 125.119 122.847 125.119C121.94 125.119 121.147 124.955 120.467 124.626C119.798 124.297 119.283 123.833 118.92 123.232C118.557 122.62 118.376 121.917 118.376 121.124C118.376 120.115 118.597 119.209 119.039 118.404C119.492 117.588 120.116 116.953 120.909 116.5C121.714 116.047 122.615 115.82 123.612 115.82C124.881 115.82 125.896 116.177 126.655 116.891C127.414 117.594 127.794 118.563 127.794 119.798ZM123.51 117.52C122.796 117.52 122.184 117.713 121.674 118.098C121.175 118.483 120.83 119.01 120.637 119.679H125.839C125.85 118.999 125.641 118.472 125.21 118.098C124.791 117.713 124.224 117.52 123.51 117.52ZM141.838 115.82C142.858 115.82 143.657 116.081 144.235 116.602C144.825 117.123 145.119 117.871 145.119 118.846C145.119 119.209 145.08 119.583 145 119.968L143.997 125H141.872L142.875 120.019C142.921 119.792 142.943 119.554 142.943 119.305C142.943 118.217 142.365 117.673 141.209 117.673C139.702 117.673 138.773 118.54 138.421 120.274L137.469 125H135.344L136.347 120.019C136.393 119.792 136.415 119.554 136.415 119.305C136.415 118.217 135.837 117.673 134.681 117.673C133.174 117.673 132.245 118.546 131.893 120.291L130.941 125H128.816L130.618 115.922H132.641L132.454 116.908C133.225 116.183 134.217 115.82 135.429 115.82C136.087 115.82 136.659 115.95 137.146 116.211C137.634 116.46 138.002 116.829 138.251 117.316C139.181 116.319 140.376 115.82 141.838 115.82ZM148.515 115.922H150.64L148.838 125H146.713L148.515 115.922ZM150.062 114.426C149.688 114.426 149.382 114.313 149.144 114.086C148.906 113.848 148.787 113.565 148.787 113.236C148.787 112.851 148.917 112.528 149.178 112.267C149.45 112.006 149.801 111.876 150.232 111.876C150.606 111.876 150.912 111.989 151.15 112.216C151.388 112.431 151.507 112.698 151.507 113.015C151.507 113.434 151.371 113.774 151.099 114.035C150.838 114.296 150.493 114.426 150.062 114.426ZM162.303 115.922L160.501 125H158.478L158.665 124.065C157.872 124.768 156.886 125.119 155.707 125.119C154.959 125.119 154.279 124.96 153.667 124.643C153.066 124.326 152.59 123.867 152.239 123.266C151.888 122.654 151.712 121.94 151.712 121.124C151.712 120.115 151.933 119.209 152.375 118.404C152.828 117.588 153.44 116.953 154.211 116.5C154.993 116.047 155.866 115.82 156.829 115.82C158.28 115.82 159.311 116.302 159.923 117.265L160.178 115.922H162.303ZM156.251 123.3C156.852 123.3 157.384 123.158 157.849 122.875C158.325 122.58 158.699 122.178 158.971 121.668C159.243 121.147 159.379 120.557 159.379 119.9C159.379 119.186 159.169 118.631 158.75 118.234C158.331 117.826 157.741 117.622 156.982 117.622C156.381 117.622 155.843 117.769 155.367 118.064C154.902 118.347 154.534 118.75 154.262 119.271C153.99 119.781 153.854 120.365 153.854 121.022C153.854 121.736 154.064 122.297 154.483 122.705C154.902 123.102 155.492 123.3 156.251 123.3ZM167.82 125.119C166.925 125.119 166.137 124.955 165.457 124.626C164.789 124.286 164.273 123.816 163.91 123.215C163.548 122.614 163.366 121.917 163.366 121.124C163.366 120.115 163.599 119.209 164.063 118.404C164.528 117.599 165.168 116.97 165.984 116.517C166.812 116.052 167.752 115.82 168.806 115.82C169.724 115.82 170.512 116.001 171.169 116.364C171.838 116.715 172.354 117.242 172.716 117.945L170.897 118.88C170.478 118.041 169.724 117.622 168.636 117.622C168.036 117.622 167.497 117.769 167.021 118.064C166.557 118.347 166.188 118.75 165.916 119.271C165.644 119.781 165.508 120.365 165.508 121.022C165.508 121.736 165.718 122.297 166.137 122.705C166.557 123.102 167.152 123.3 167.922 123.3C168.444 123.3 168.914 123.198 169.333 122.994C169.753 122.779 170.11 122.461 170.404 122.042L171.968 123.096C171.549 123.731 170.971 124.229 170.234 124.592C169.498 124.943 168.693 125.119 167.82 125.119ZM166.358 128.876C165.735 128.876 165.219 128.757 164.811 128.519L165.321 127.516C165.673 127.697 166.064 127.788 166.494 127.788C166.823 127.788 167.067 127.726 167.225 127.601C167.395 127.488 167.486 127.335 167.497 127.142C167.497 126.791 167.231 126.615 166.698 126.615H166.171L166.953 124.881H168.109L167.701 125.833C168.098 125.89 168.398 126.026 168.602 126.241C168.818 126.456 168.925 126.728 168.925 127.057C168.925 127.624 168.687 128.066 168.211 128.383C167.747 128.712 167.129 128.876 166.358 128.876ZM177.514 125.119C176.63 125.119 175.854 124.955 175.185 124.626C174.528 124.286 174.018 123.816 173.655 123.215C173.293 122.614 173.111 121.917 173.111 121.124C173.111 120.115 173.338 119.209 173.791 118.404C174.256 117.599 174.896 116.97 175.712 116.517C176.54 116.052 177.469 115.82 178.5 115.82C179.384 115.82 180.161 115.984 180.829 116.313C181.498 116.642 182.014 117.106 182.376 117.707C182.739 118.308 182.92 119.005 182.92 119.798C182.92 120.807 182.688 121.713 182.223 122.518C181.759 123.323 181.113 123.957 180.285 124.422C179.469 124.887 178.546 125.119 177.514 125.119ZM177.65 123.3C178.251 123.3 178.784 123.158 179.248 122.875C179.724 122.58 180.098 122.178 180.37 121.668C180.642 121.147 180.778 120.557 180.778 119.9C180.778 119.186 180.569 118.631 180.149 118.234C179.73 117.826 179.141 117.622 178.381 117.622C177.781 117.622 177.242 117.769 176.766 118.064C176.302 118.347 175.933 118.75 175.661 119.271C175.389 119.781 175.253 120.365 175.253 121.022C175.253 121.736 175.463 122.297 175.882 122.705C176.302 123.102 176.891 123.3 177.65 123.3ZM180.506 114.681C180.223 114.681 179.974 114.624 179.758 114.511C179.554 114.398 179.328 114.239 179.078 114.035C178.886 113.876 178.721 113.757 178.585 113.678C178.461 113.599 178.325 113.559 178.177 113.559C177.939 113.559 177.741 113.655 177.582 113.848C177.424 114.029 177.316 114.273 177.259 114.579H176.12C176.234 113.854 176.472 113.293 176.834 112.896C177.208 112.499 177.662 112.301 178.194 112.301C178.466 112.301 178.704 112.358 178.908 112.471C179.124 112.584 179.362 112.749 179.622 112.964C179.838 113.134 180.002 113.253 180.115 113.321C180.229 113.389 180.359 113.423 180.506 113.423C180.744 113.423 180.943 113.338 181.101 113.168C181.26 112.987 181.368 112.749 181.424 112.454H182.563C182.45 113.157 182.212 113.706 181.849 114.103C181.487 114.488 181.039 114.681 180.506 114.681ZM193.486 119.798C193.486 120.24 193.441 120.671 193.35 121.09H186.142C186.176 122.575 187.049 123.317 188.76 123.317C189.282 123.317 189.769 123.238 190.222 123.079C190.676 122.909 191.061 122.677 191.378 122.382L192.262 123.861C191.798 124.28 191.237 124.598 190.579 124.813C189.933 125.017 189.253 125.119 188.539 125.119C187.633 125.119 186.839 124.955 186.159 124.626C185.491 124.297 184.975 123.833 184.612 123.232C184.25 122.62 184.068 121.917 184.068 121.124C184.068 120.115 184.289 119.209 184.731 118.404C185.185 117.588 185.808 116.953 186.601 116.5C187.406 116.047 188.307 115.82 189.304 115.82C190.574 115.82 191.588 116.177 192.347 116.891C193.107 117.594 193.486 118.563 193.486 119.798ZM189.202 117.52C188.488 117.52 187.876 117.713 187.366 118.098C186.868 118.483 186.522 119.01 186.329 119.679H191.531C191.543 118.999 191.333 118.472 190.902 118.098C190.483 117.713 189.916 117.52 189.202 117.52ZM197.603 125.119C196.832 125.119 196.095 125.028 195.393 124.847C194.701 124.654 194.163 124.416 193.778 124.133L194.662 122.501C195.036 122.773 195.506 122.988 196.073 123.147C196.639 123.306 197.223 123.385 197.824 123.385C198.504 123.385 199.014 123.294 199.354 123.113C199.705 122.92 199.881 122.648 199.881 122.297C199.881 122.025 199.733 121.827 199.439 121.702C199.155 121.577 198.702 121.447 198.079 121.311C197.433 121.186 196.9 121.056 196.481 120.92C196.073 120.773 195.716 120.54 195.41 120.223C195.115 119.894 194.968 119.447 194.968 118.88C194.968 117.939 195.359 117.197 196.141 116.653C196.934 116.098 197.982 115.82 199.286 115.82C199.909 115.82 200.515 115.894 201.105 116.041C201.694 116.177 202.176 116.364 202.55 116.602L201.768 118.234C201.394 117.996 200.969 117.82 200.493 117.707C200.028 117.594 199.558 117.537 199.082 117.537C198.413 117.537 197.903 117.639 197.552 117.843C197.212 118.047 197.042 118.313 197.042 118.642C197.042 118.937 197.189 119.152 197.484 119.288C197.79 119.413 198.26 119.543 198.895 119.679C199.529 119.804 200.051 119.94 200.459 120.087C200.867 120.223 201.218 120.45 201.513 120.767C201.807 121.084 201.955 121.515 201.955 122.059C201.955 123.034 201.558 123.787 200.765 124.32C199.971 124.853 198.917 125.119 197.603 125.119Z" fill="#5B6568"/>
<path d="M160.549 52C166.349 53.2 170.782 55.6 173.849 59.2C176.982 62.7333 178.549 67.0333 178.549 72.1C178.549 76.2333 177.416 80.0667 175.149 83.6C172.949 87.1333 169.549 90 164.949 92.2C160.416 94.3333 154.782 95.4 148.049 95.4C143.116 95.4 138.216 94.8 133.349 93.6C128.549 92.4 124.382 90.7 120.849 88.5L128.049 73.6C130.782 75.4667 133.849 76.9 137.249 77.9C140.716 78.9 144.116 79.4 147.449 79.4C150.849 79.4 153.549 78.7667 155.549 77.5C157.549 76.2333 158.549 74.4333 158.549 72.1C158.549 67.5667 154.982 65.3 147.849 65.3H139.549V52.8L152.049 39.3H124.449V24H175.049V36.4L160.549 52Z" fill="#99A8AD"/>
<path d="M228 336H303L303 456C303 469.807 291.807 481 278 481L28 481C14.1929 481 3 469.807 3 456L3 336H78" stroke="#727F84"/>
<path d="M81.2481 459.17C80.0581 459.17 79.0268 458.96 78.1541 458.541C77.2928 458.11 76.6298 457.51 76.1651 456.739C75.7004 455.968 75.4681 455.084 75.4681 454.087C75.4681 452.75 75.7741 451.537 76.3861 450.449C76.9981 449.361 77.8594 448.505 78.9701 447.882C80.0808 447.247 81.3558 446.93 82.7951 446.93C83.8264 446.93 84.7331 447.1 85.5151 447.44C86.3084 447.78 86.9091 448.273 87.3171 448.919L85.7191 450.262C85.0504 449.333 84.0248 448.868 82.6421 448.868C81.6561 448.868 80.7891 449.095 80.0411 449.548C79.2931 450.001 78.7151 450.619 78.3071 451.401C77.8991 452.172 77.6951 453.022 77.6951 453.951C77.6951 454.96 78.0181 455.759 78.6641 456.348C79.3101 456.937 80.2281 457.232 81.4181 457.232C82.7894 457.232 83.9171 456.773 84.8011 455.855L86.0931 457.249C85.5264 457.895 84.8294 458.377 84.0021 458.694C83.1748 459.011 82.2568 459.17 81.2481 459.17ZM90.9477 451.095C91.3443 450.63 91.826 450.302 92.3927 450.109C92.9707 449.916 93.6563 449.82 94.4497 449.82L94.0587 451.843C93.866 451.809 93.6903 451.792 93.5317 451.792C91.7977 451.792 90.7493 452.704 90.3867 454.529L89.4857 459H87.3607L89.1627 449.922H91.1857L90.9477 451.095ZM103.836 453.798C103.836 454.24 103.791 454.671 103.7 455.09H96.4923C96.5263 456.575 97.399 457.317 99.1103 457.317C99.6317 457.317 100.119 457.238 100.572 457.079C101.026 456.909 101.411 456.677 101.728 456.382L102.612 457.861C102.148 458.28 101.587 458.598 100.929 458.813C100.283 459.017 99.6033 459.119 98.8893 459.119C97.9827 459.119 97.1893 458.955 96.5093 458.626C95.8407 458.297 95.325 457.833 94.9623 457.232C94.5997 456.62 94.4183 455.917 94.4183 455.124C94.4183 454.115 94.6393 453.209 95.0813 452.404C95.5347 451.588 96.158 450.953 96.9513 450.5C97.756 450.047 98.657 449.82 99.6543 449.82C100.924 449.82 101.938 450.177 102.697 450.891C103.457 451.594 103.836 452.563 103.836 453.798ZM99.5523 451.52C98.8383 451.52 98.2263 451.713 97.7163 452.098C97.2177 452.483 96.872 453.01 96.6793 453.679H101.881C101.893 452.999 101.683 452.472 101.252 452.098C100.833 451.713 100.266 451.52 99.5523 451.52ZM116.249 446.386L113.733 459H111.71L111.897 458.065C111.081 458.768 110.1 459.119 108.956 459.119C108.208 459.119 107.528 458.96 106.916 458.643C106.315 458.326 105.839 457.867 105.488 457.266C105.136 456.654 104.961 455.94 104.961 455.124C104.961 454.104 105.182 453.192 105.624 452.387C106.066 451.582 106.672 450.953 107.443 450.5C108.225 450.047 109.097 449.82 110.061 449.82C110.775 449.82 111.392 449.939 111.914 450.177C112.446 450.415 112.86 450.766 113.155 451.231L114.124 446.386H116.249ZM109.5 457.3C110.089 457.3 110.622 457.158 111.098 456.875C111.574 456.58 111.942 456.178 112.203 455.668C112.475 455.147 112.611 454.557 112.611 453.9C112.611 453.186 112.401 452.631 111.982 452.234C111.562 451.826 110.973 451.622 110.214 451.622C109.624 451.622 109.092 451.769 108.616 452.064C108.14 452.347 107.766 452.75 107.494 453.271C107.233 453.781 107.103 454.365 107.103 455.022C107.103 455.736 107.312 456.297 107.732 456.705C108.151 457.102 108.74 457.3 109.5 457.3ZM126.033 453.798C126.033 454.24 125.987 454.671 125.897 455.09H118.689C118.723 456.575 119.595 457.317 121.307 457.317C121.828 457.317 122.315 457.238 122.769 457.079C123.222 456.909 123.607 456.677 123.925 456.382L124.809 457.861C124.344 458.28 123.783 458.598 123.126 458.813C122.48 459.017 121.8 459.119 121.086 459.119C120.179 459.119 119.386 458.955 118.706 458.626C118.037 458.297 117.521 457.833 117.159 457.232C116.796 456.62 116.615 455.917 116.615 455.124C116.615 454.115 116.836 453.209 117.278 452.404C117.731 451.588 118.354 450.953 119.148 450.5C119.952 450.047 120.853 449.82 121.851 449.82C123.12 449.82 124.134 450.177 124.894 450.891C125.653 451.594 126.033 452.563 126.033 453.798ZM121.749 451.52C121.035 451.52 120.423 451.713 119.913 452.098C119.414 452.483 119.068 453.01 118.876 453.679H124.078C124.089 452.999 123.879 452.472 123.449 452.098C123.029 451.713 122.463 451.52 121.749 451.52ZM133.804 449.82C134.824 449.82 135.629 450.086 136.218 450.619C136.819 451.152 137.119 451.905 137.119 452.88C137.119 453.152 137.079 453.515 137 453.968L135.997 459H133.872L134.858 454.019C134.903 453.792 134.926 453.56 134.926 453.322C134.926 452.223 134.32 451.673 133.107 451.673C132.325 451.673 131.679 451.894 131.169 452.336C130.659 452.767 130.313 453.418 130.132 454.291L129.18 459H127.055L128.857 449.922H130.88L130.676 450.925C131.492 450.188 132.535 449.82 133.804 449.82ZM143.315 459.119C142.419 459.119 141.632 458.955 140.952 458.626C140.283 458.286 139.767 457.816 139.405 457.215C139.042 456.614 138.861 455.917 138.861 455.124C138.861 454.115 139.093 453.209 139.558 452.404C140.022 451.599 140.663 450.97 141.479 450.517C142.306 450.052 143.247 449.82 144.301 449.82C145.219 449.82 146.006 450.001 146.664 450.364C147.332 450.715 147.848 451.242 148.211 451.945L146.392 452.88C145.972 452.041 145.219 451.622 144.131 451.622C143.53 451.622 142.992 451.769 142.516 452.064C142.051 452.347 141.683 452.75 141.411 453.271C141.139 453.781 141.003 454.365 141.003 455.022C141.003 455.736 141.212 456.297 141.632 456.705C142.051 457.102 142.646 457.3 143.417 457.3C143.938 457.3 144.408 457.198 144.828 456.994C145.247 456.779 145.604 456.461 145.899 456.042L147.463 457.096C147.043 457.731 146.465 458.229 145.729 458.592C144.992 458.943 144.187 459.119 143.315 459.119ZM150.456 449.922H152.581L150.779 459H148.654L150.456 449.922ZM152.003 448.426C151.629 448.426 151.323 448.313 151.085 448.086C150.847 447.848 150.728 447.565 150.728 447.236C150.728 446.851 150.858 446.528 151.119 446.267C151.391 446.006 151.742 445.876 152.173 445.876C152.547 445.876 152.853 445.989 153.091 446.216C153.329 446.431 153.448 446.698 153.448 447.015C153.448 447.434 153.312 447.774 153.04 448.035C152.779 448.296 152.433 448.426 152.003 448.426ZM164.244 449.922L162.442 459H160.419L160.606 458.065C159.812 458.768 158.826 459.119 157.648 459.119C156.9 459.119 156.22 458.96 155.608 458.643C155.007 458.326 154.531 457.867 154.18 457.266C153.828 456.654 153.653 455.94 153.653 455.124C153.653 454.115 153.874 453.209 154.316 452.404C154.769 451.588 155.381 450.953 156.152 450.5C156.934 450.047 157.806 449.82 158.77 449.82C160.22 449.82 161.252 450.302 161.864 451.265L162.119 449.922H164.244ZM158.192 457.3C158.792 457.3 159.325 457.158 159.79 456.875C160.266 456.58 160.64 456.178 160.912 455.668C161.184 455.147 161.32 454.557 161.32 453.9C161.32 453.186 161.11 452.631 160.691 452.234C160.271 451.826 159.682 451.622 158.923 451.622C158.322 451.622 157.784 451.769 157.308 452.064C156.843 452.347 156.475 452.75 156.203 453.271C155.931 453.781 155.795 454.365 155.795 455.022C155.795 455.736 156.004 456.297 156.424 456.705C156.843 457.102 157.432 457.3 158.192 457.3ZM178.244 449.82C179.264 449.82 180.063 450.081 180.641 450.602C181.23 451.123 181.525 451.871 181.525 452.846C181.525 453.209 181.485 453.583 181.406 453.968L180.403 459H178.278L179.281 454.019C179.326 453.792 179.349 453.554 179.349 453.305C179.349 452.217 178.771 451.673 177.615 451.673C176.108 451.673 175.178 452.54 174.827 454.274L173.875 459H171.75L172.753 454.019C172.798 453.792 172.821 453.554 172.821 453.305C172.821 452.217 172.243 451.673 171.087 451.673C169.58 451.673 168.65 452.546 168.299 454.291L167.347 459H165.222L167.024 449.922H169.047L168.86 450.908C169.631 450.183 170.622 449.82 171.835 449.82C172.492 449.82 173.065 449.95 173.552 450.211C174.039 450.46 174.408 450.829 174.657 451.316C175.586 450.319 176.782 449.82 178.244 449.82ZM192.704 453.798C192.704 454.24 192.659 454.671 192.568 455.09H185.36C185.394 456.575 186.267 457.317 187.978 457.317C188.5 457.317 188.987 457.238 189.44 457.079C189.894 456.909 190.279 456.677 190.596 456.382L191.48 457.861C191.016 458.28 190.455 458.598 189.797 458.813C189.151 459.017 188.471 459.119 187.757 459.119C186.851 459.119 186.057 458.955 185.377 458.626C184.709 458.297 184.193 457.833 183.83 457.232C183.468 456.62 183.286 455.917 183.286 455.124C183.286 454.115 183.507 453.209 183.949 452.404C184.403 451.588 185.026 450.953 185.819 450.5C186.624 450.047 187.525 449.82 188.522 449.82C189.792 449.82 190.806 450.177 191.565 450.891C192.325 451.594 192.704 452.563 192.704 453.798ZM188.42 451.52C187.706 451.52 187.094 451.713 186.584 452.098C186.086 452.483 185.74 453.01 185.547 453.679H190.749C190.761 452.999 190.551 452.472 190.12 452.098C189.701 451.713 189.134 451.52 188.42 451.52ZM200.476 449.82C201.496 449.82 202.301 450.086 202.89 450.619C203.491 451.152 203.791 451.905 203.791 452.88C203.791 453.152 203.751 453.515 203.672 453.968L202.669 459H200.544L201.53 454.019C201.575 453.792 201.598 453.56 201.598 453.322C201.598 452.223 200.992 451.673 199.779 451.673C198.997 451.673 198.351 451.894 197.841 452.336C197.331 452.767 196.985 453.418 196.804 454.291L195.852 459H193.727L195.529 449.922H197.552L197.348 450.925C198.164 450.188 199.207 449.82 200.476 449.82ZM208.357 455.957C208.334 456.138 208.323 456.269 208.323 456.348C208.323 457.028 208.68 457.368 209.394 457.368C209.836 457.368 210.232 457.249 210.584 457.011L210.958 458.575C210.38 458.938 209.649 459.119 208.765 459.119C207.983 459.119 207.354 458.904 206.878 458.473C206.402 458.042 206.164 457.447 206.164 456.688C206.164 456.439 206.186 456.201 206.232 455.974L207.099 451.69H205.62L205.96 449.99H207.439L207.847 447.916H209.972L209.547 449.99H211.995L211.655 451.69H209.207L208.357 455.957ZM216.759 459.119C215.875 459.119 215.098 458.955 214.43 458.626C213.772 458.286 213.262 457.816 212.9 457.215C212.537 456.614 212.356 455.917 212.356 455.124C212.356 454.115 212.582 453.209 213.036 452.404C213.5 451.599 214.141 450.97 214.957 450.517C215.784 450.052 216.713 449.82 217.745 449.82C218.629 449.82 219.405 449.984 220.074 450.313C220.742 450.642 221.258 451.106 221.621 451.707C221.983 452.308 222.165 453.005 222.165 453.798C222.165 454.807 221.932 455.713 221.468 456.518C221.003 457.323 220.357 457.957 219.53 458.422C218.714 458.887 217.79 459.119 216.759 459.119ZM216.895 457.3C217.495 457.3 218.028 457.158 218.493 456.875C218.969 456.58 219.343 456.178 219.615 455.668C219.887 455.147 220.023 454.557 220.023 453.9C220.023 453.186 219.813 452.631 219.394 452.234C218.974 451.826 218.385 451.622 217.626 451.622C217.025 451.622 216.487 451.769 216.011 452.064C215.546 452.347 215.178 452.75 214.906 453.271C214.634 453.781 214.498 454.365 214.498 455.022C214.498 455.736 214.707 456.297 215.127 456.705C215.546 457.102 216.135 457.3 216.895 457.3ZM226.322 459.119C225.551 459.119 224.815 459.028 224.112 458.847C223.421 458.654 222.882 458.416 222.497 458.133L223.381 456.501C223.755 456.773 224.225 456.988 224.792 457.147C225.359 457.306 225.942 457.385 226.543 457.385C227.223 457.385 227.733 457.294 228.073 457.113C228.424 456.92 228.6 456.648 228.6 456.297C228.6 456.025 228.453 455.827 228.158 455.702C227.875 455.577 227.421 455.447 226.798 455.311C226.152 455.186 225.619 455.056 225.2 454.92C224.792 454.773 224.435 454.54 224.129 454.223C223.834 453.894 223.687 453.447 223.687 452.88C223.687 451.939 224.078 451.197 224.86 450.653C225.653 450.098 226.702 449.82 228.005 449.82C228.628 449.82 229.235 449.894 229.824 450.041C230.413 450.177 230.895 450.364 231.269 450.602L230.487 452.234C230.113 451.996 229.688 451.82 229.212 451.707C228.747 451.594 228.277 451.537 227.801 451.537C227.132 451.537 226.622 451.639 226.271 451.843C225.931 452.047 225.761 452.313 225.761 452.642C225.761 452.937 225.908 453.152 226.203 453.288C226.509 453.413 226.979 453.543 227.614 453.679C228.249 453.804 228.77 453.94 229.178 454.087C229.586 454.223 229.937 454.45 230.232 454.767C230.527 455.084 230.674 455.515 230.674 456.059C230.674 457.034 230.277 457.787 229.484 458.32C228.691 458.853 227.637 459.119 226.322 459.119Z" fill="#5B6568"/>
<path d="M162.673 386C168.473 387.2 172.906 389.6 175.973 393.2C179.106 396.733 180.673 401.033 180.673 406.1C180.673 410.233 179.54 414.067 177.273 417.6C175.073 421.133 171.673 424 167.073 426.2C162.54 428.333 156.906 429.4 150.173 429.4C145.24 429.4 140.34 428.8 135.473 427.6C130.673 426.4 126.506 424.7 122.973 422.5L130.173 407.6C132.906 409.467 135.973 410.9 139.373 411.9C142.84 412.9 146.24 413.4 149.573 413.4C152.973 413.4 155.673 412.767 157.673 411.5C159.673 410.233 160.673 408.433 160.673 406.1C160.673 401.567 157.106 399.3 149.973 399.3H141.673V386.8L154.173 373.3H126.573V358H177.173V370.4L162.673 386Z" fill="#99A8AD"/>
</svg>
