<svg width="920" height="242" viewBox="0 0 920 242" fill="none" xmlns="http://www.w3.org/2000/svg">
<path d="M394.86 156C396.553 156 397.86 156.373 398.78 157.12C399.713 157.853 400.18 158.887 400.18 160.22C400.18 161.407 399.907 162.433 399.36 163.3C398.827 164.153 398.053 164.813 397.04 165.28C396.04 165.733 394.86 165.96 393.5 165.96H390.08L389.26 170H386.66L389.46 156H394.86ZM393.6 163.76C394.867 163.76 395.84 163.48 396.52 162.92C397.213 162.347 397.56 161.527 397.56 160.46C397.56 159.713 397.3 159.153 396.78 158.78C396.273 158.393 395.54 158.2 394.58 158.2H391.62L390.52 163.76H393.6ZM413.257 159.32L411.137 170H408.757L408.977 168.9C408.044 169.727 406.884 170.14 405.497 170.14C404.617 170.14 403.817 169.953 403.097 169.58C402.391 169.207 401.831 168.667 401.417 167.96C401.004 167.24 400.797 166.4 400.797 165.44C400.797 164.253 401.057 163.187 401.577 162.24C402.111 161.28 402.831 160.533 403.737 160C404.657 159.467 405.684 159.2 406.817 159.2C408.524 159.2 409.737 159.767 410.457 160.9L410.757 159.32H413.257ZM406.137 168C406.844 168 407.471 167.833 408.017 167.5C408.577 167.153 409.017 166.68 409.337 166.08C409.657 165.467 409.817 164.773 409.817 164C409.817 163.16 409.571 162.507 409.077 162.04C408.584 161.56 407.891 161.32 406.997 161.32C406.291 161.32 405.657 161.493 405.097 161.84C404.551 162.173 404.117 162.647 403.797 163.26C403.477 163.86 403.317 164.547 403.317 165.32C403.317 166.16 403.564 166.82 404.057 167.3C404.551 167.767 405.244 168 406.137 168ZM418.628 160.7C419.095 160.153 419.661 159.767 420.328 159.54C421.008 159.313 421.815 159.2 422.748 159.2L422.288 161.58C422.061 161.54 421.855 161.52 421.668 161.52C419.628 161.52 418.395 162.593 417.968 164.74L416.908 170H414.408L416.528 159.32H418.908L418.628 160.7ZM426.62 166.42C426.593 166.633 426.58 166.787 426.58 166.88C426.58 167.68 427 168.08 427.84 168.08C428.36 168.08 428.826 167.94 429.24 167.66L429.68 169.5C429 169.927 428.14 170.14 427.1 170.14C426.18 170.14 425.44 169.887 424.88 169.38C424.32 168.873 424.04 168.173 424.04 167.28C424.04 166.987 424.066 166.707 424.12 166.44L425.14 161.4H423.4L423.8 159.4H425.54L426.02 156.96H428.52L428.02 159.4H430.9L430.5 161.4H427.62L426.62 166.42ZM433.696 159.32H436.196L434.076 170H431.576L433.696 159.32ZM435.516 157.56C435.076 157.56 434.716 157.427 434.436 157.16C434.156 156.88 434.016 156.547 434.016 156.16C434.016 155.707 434.169 155.327 434.476 155.02C434.796 154.713 435.209 154.56 435.716 154.56C436.156 154.56 436.516 154.693 436.796 154.96C437.076 155.213 437.216 155.527 437.216 155.9C437.216 156.393 437.056 156.793 436.736 157.1C436.429 157.407 436.023 157.56 435.516 157.56ZM442.697 170.14C441.644 170.14 440.717 169.947 439.917 169.56C439.131 169.16 438.524 168.607 438.097 167.9C437.671 167.193 437.457 166.373 437.457 165.44C437.457 164.253 437.731 163.187 438.277 162.24C438.824 161.293 439.577 160.553 440.537 160.02C441.511 159.473 442.617 159.2 443.857 159.2C444.937 159.2 445.864 159.413 446.637 159.84C447.424 160.253 448.031 160.873 448.457 161.7L446.317 162.8C445.824 161.813 444.937 161.32 443.657 161.32C442.951 161.32 442.317 161.493 441.757 161.84C441.211 162.173 440.777 162.647 440.457 163.26C440.137 163.86 439.977 164.547 439.977 165.32C439.977 166.16 440.224 166.82 440.717 167.3C441.211 167.767 441.911 168 442.817 168C443.431 168 443.984 167.88 444.477 167.64C444.971 167.387 445.391 167.013 445.737 166.52L447.577 167.76C447.084 168.507 446.404 169.093 445.537 169.52C444.671 169.933 443.724 170.14 442.697 170.14ZM451.098 159.32H453.598L451.478 170H448.978L451.098 159.32ZM452.918 157.56C452.478 157.56 452.118 157.427 451.838 157.16C451.558 156.88 451.418 156.547 451.418 156.16C451.418 155.707 451.572 155.327 451.878 155.02C452.198 154.713 452.612 154.56 453.118 154.56C453.558 154.56 453.918 154.693 454.198 154.96C454.478 155.213 454.618 155.527 454.618 155.9C454.618 156.393 454.458 156.793 454.138 157.1C453.832 157.407 453.425 157.56 452.918 157.56ZM462.52 159.2C463.4 159.2 464.193 159.387 464.9 159.76C465.62 160.133 466.186 160.673 466.6 161.38C467.013 162.087 467.22 162.92 467.22 163.88C467.22 165.067 466.953 166.14 466.42 167.1C465.9 168.047 465.18 168.793 464.26 169.34C463.353 169.873 462.34 170.14 461.22 170.14C460.38 170.14 459.646 169.993 459.02 169.7C458.393 169.407 457.906 168.98 457.56 168.42L456.48 173.88H453.98L456.88 159.32H459.26L459.04 160.44C459.973 159.613 461.133 159.2 462.52 159.2ZM461.02 168C461.726 168 462.353 167.833 462.9 167.5C463.46 167.153 463.9 166.68 464.22 166.08C464.54 165.467 464.7 164.773 464.7 164C464.7 163.16 464.453 162.507 463.96 162.04C463.466 161.56 462.773 161.32 461.88 161.32C461.173 161.32 460.54 161.493 459.98 161.84C459.433 162.173 459 162.647 458.68 163.26C458.36 163.86 458.2 164.547 458.2 165.32C458.2 166.16 458.446 166.82 458.94 167.3C459.433 167.767 460.126 168 461.02 168ZM481.031 159.32L478.911 170H476.531L476.751 168.9C475.817 169.727 474.657 170.14 473.271 170.14C472.391 170.14 471.591 169.953 470.871 169.58C470.164 169.207 469.604 168.667 469.191 167.96C468.777 167.24 468.571 166.4 468.571 165.44C468.571 164.253 468.831 163.187 469.351 162.24C469.884 161.28 470.604 160.533 471.511 160C472.431 159.467 473.457 159.2 474.591 159.2C476.297 159.2 477.511 159.767 478.231 160.9L478.531 159.32H481.031ZM473.911 168C474.617 168 475.244 167.833 475.791 167.5C476.351 167.153 476.791 166.68 477.111 166.08C477.431 165.467 477.591 164.773 477.591 164C477.591 163.16 477.344 162.507 476.851 162.04C476.357 161.56 475.664 161.32 474.771 161.32C474.064 161.32 473.431 161.493 472.871 161.84C472.324 162.173 471.891 162.647 471.571 163.26C471.251 163.86 471.091 164.547 471.091 165.32C471.091 166.16 471.337 166.82 471.831 167.3C472.324 167.767 473.017 168 473.911 168ZM487.522 170.14C486.468 170.14 485.542 169.947 484.742 169.56C483.955 169.16 483.348 168.607 482.922 167.9C482.495 167.193 482.282 166.373 482.282 165.44C482.282 164.253 482.555 163.187 483.102 162.24C483.648 161.293 484.402 160.553 485.362 160.02C486.335 159.473 487.442 159.2 488.682 159.2C489.762 159.2 490.688 159.413 491.462 159.84C492.248 160.253 492.855 160.873 493.282 161.7L491.142 162.8C490.648 161.813 489.762 161.32 488.482 161.32C487.775 161.32 487.142 161.493 486.582 161.84C486.035 162.173 485.602 162.647 485.282 163.26C484.962 163.86 484.802 164.547 484.802 165.32C484.802 166.16 485.048 166.82 485.542 167.3C486.035 167.767 486.735 168 487.642 168C488.255 168 488.808 167.88 489.302 167.64C489.795 167.387 490.215 167.013 490.562 166.52L492.402 167.76C491.908 168.507 491.228 169.093 490.362 169.52C489.495 169.933 488.548 170.14 487.522 170.14ZM485.802 174.56C485.068 174.56 484.462 174.42 483.982 174.14L484.582 172.96C484.995 173.173 485.455 173.28 485.962 173.28C486.348 173.28 486.635 173.207 486.822 173.06C487.022 172.927 487.128 172.747 487.142 172.52C487.142 172.107 486.828 171.9 486.202 171.9H485.582L486.502 169.86H487.862L487.382 170.98C487.848 171.047 488.202 171.207 488.442 171.46C488.695 171.713 488.822 172.033 488.822 172.42C488.822 173.087 488.542 173.607 487.982 173.98C487.435 174.367 486.708 174.56 485.802 174.56ZM498.926 170.14C497.886 170.14 496.973 169.947 496.186 169.56C495.413 169.16 494.813 168.607 494.386 167.9C493.96 167.193 493.746 166.373 493.746 165.44C493.746 164.253 494.013 163.187 494.546 162.24C495.093 161.293 495.846 160.553 496.806 160.02C497.78 159.473 498.873 159.2 500.086 159.2C501.126 159.2 502.04 159.393 502.826 159.78C503.613 160.167 504.22 160.713 504.646 161.42C505.073 162.127 505.286 162.947 505.286 163.88C505.286 165.067 505.013 166.133 504.466 167.08C503.92 168.027 503.16 168.773 502.186 169.32C501.226 169.867 500.14 170.14 498.926 170.14ZM499.086 168C499.793 168 500.42 167.833 500.966 167.5C501.526 167.153 501.966 166.68 502.286 166.08C502.606 165.467 502.766 164.773 502.766 164C502.766 163.16 502.52 162.507 502.026 162.04C501.533 161.56 500.84 161.32 499.946 161.32C499.24 161.32 498.606 161.493 498.046 161.84C497.5 162.173 497.066 162.647 496.746 163.26C496.426 163.86 496.266 164.547 496.266 165.32C496.266 166.16 496.513 166.82 497.006 167.3C497.5 167.767 498.193 168 499.086 168ZM502.446 157.86C502.113 157.86 501.82 157.793 501.566 157.66C501.326 157.527 501.06 157.34 500.766 157.1C500.54 156.913 500.346 156.773 500.186 156.68C500.04 156.587 499.88 156.54 499.706 156.54C499.426 156.54 499.193 156.653 499.006 156.88C498.82 157.093 498.693 157.38 498.626 157.74H497.286C497.42 156.887 497.7 156.227 498.126 155.76C498.566 155.293 499.1 155.06 499.726 155.06C500.046 155.06 500.326 155.127 500.566 155.26C500.82 155.393 501.1 155.587 501.406 155.84C501.66 156.04 501.853 156.18 501.986 156.26C502.12 156.34 502.273 156.38 502.446 156.38C502.726 156.38 502.96 156.28 503.146 156.08C503.333 155.867 503.46 155.587 503.526 155.24H504.866C504.733 156.067 504.453 156.713 504.026 157.18C503.6 157.633 503.073 157.86 502.446 157.86ZM517.717 163.88C517.717 164.4 517.664 164.907 517.557 165.4H509.077C509.117 167.147 510.144 168.02 512.157 168.02C512.77 168.02 513.344 167.927 513.877 167.74C514.41 167.54 514.864 167.267 515.237 166.92L516.277 168.66C515.73 169.153 515.07 169.527 514.297 169.78C513.537 170.02 512.737 170.14 511.897 170.14C510.83 170.14 509.897 169.947 509.097 169.56C508.31 169.173 507.704 168.627 507.277 167.92C506.85 167.2 506.637 166.373 506.637 165.44C506.637 164.253 506.897 163.187 507.417 162.24C507.95 161.28 508.684 160.533 509.617 160C510.564 159.467 511.624 159.2 512.797 159.2C514.29 159.2 515.484 159.62 516.377 160.46C517.27 161.287 517.717 162.427 517.717 163.88ZM512.677 161.2C511.837 161.2 511.117 161.427 510.517 161.88C509.93 162.333 509.524 162.953 509.297 163.74H515.417C515.43 162.94 515.184 162.32 514.677 161.88C514.184 161.427 513.517 161.2 512.677 161.2ZM522.56 170.14C521.653 170.14 520.787 170.033 519.96 169.82C519.147 169.593 518.513 169.313 518.06 168.98L519.1 167.06C519.54 167.38 520.093 167.633 520.76 167.82C521.427 168.007 522.113 168.1 522.82 168.1C523.62 168.1 524.22 167.993 524.62 167.78C525.033 167.553 525.24 167.233 525.24 166.82C525.24 166.5 525.067 166.267 524.72 166.12C524.387 165.973 523.853 165.82 523.12 165.66C522.36 165.513 521.733 165.36 521.24 165.2C520.76 165.027 520.34 164.753 519.98 164.38C519.633 163.993 519.46 163.467 519.46 162.8C519.46 161.693 519.92 160.82 520.84 160.18C521.773 159.527 523.007 159.2 524.54 159.2C525.273 159.2 525.987 159.287 526.68 159.46C527.373 159.62 527.94 159.84 528.38 160.12L527.46 162.04C527.02 161.76 526.52 161.553 525.96 161.42C525.413 161.287 524.86 161.22 524.3 161.22C523.513 161.22 522.913 161.34 522.5 161.58C522.1 161.82 521.9 162.133 521.9 162.52C521.9 162.867 522.073 163.12 522.42 163.28C522.78 163.427 523.333 163.58 524.08 163.74C524.827 163.887 525.44 164.047 525.92 164.22C526.4 164.38 526.813 164.647 527.16 165.02C527.507 165.393 527.68 165.9 527.68 166.54C527.68 167.687 527.213 168.573 526.28 169.2C525.347 169.827 524.107 170.14 522.56 170.14ZM423.479 192.88C423.479 193.4 423.425 193.907 423.319 194.4H414.839C414.879 196.147 415.905 197.02 417.919 197.02C418.532 197.02 419.105 196.927 419.639 196.74C420.172 196.54 420.625 196.267 420.999 195.92L422.039 197.66C421.492 198.153 420.832 198.527 420.059 198.78C419.299 199.02 418.499 199.14 417.659 199.14C416.592 199.14 415.659 198.947 414.859 198.56C414.072 198.173 413.465 197.627 413.039 196.92C412.612 196.2 412.399 195.373 412.399 194.44C412.399 193.253 412.659 192.187 413.179 191.24C413.712 190.28 414.445 189.533 415.379 189C416.325 188.467 417.385 188.2 418.559 188.2C420.052 188.2 421.245 188.62 422.139 189.46C423.032 190.287 423.479 191.427 423.479 192.88ZM418.439 190.2C417.599 190.2 416.879 190.427 416.279 190.88C415.692 191.333 415.285 191.953 415.059 192.74H421.179C421.192 191.94 420.945 191.32 420.439 190.88C419.945 190.427 419.279 190.2 418.439 190.2ZM440.002 188.2C441.202 188.2 442.142 188.507 442.822 189.12C443.515 189.733 443.862 190.613 443.862 191.76C443.862 192.187 443.815 192.627 443.722 193.08L442.542 199H440.042L441.222 193.14C441.275 192.873 441.302 192.593 441.302 192.3C441.302 191.02 440.622 190.38 439.262 190.38C437.488 190.38 436.395 191.4 435.982 193.44L434.862 199H432.362L433.542 193.14C433.595 192.873 433.622 192.593 433.622 192.3C433.622 191.02 432.942 190.38 431.582 190.38C429.808 190.38 428.715 191.407 428.302 193.46L427.182 199H424.682L426.802 188.32H429.182L428.962 189.48C429.868 188.627 431.035 188.2 432.462 188.2C433.235 188.2 433.908 188.353 434.482 188.66C435.055 188.953 435.488 189.387 435.782 189.96C436.875 188.787 438.282 188.2 440.002 188.2ZM458.164 186.04C457.644 186.04 457.23 186.187 456.924 186.48C456.617 186.773 456.397 187.22 456.264 187.82L456.144 188.4H459.064L458.664 190.4H455.804L454.084 199H451.584L453.304 190.4H451.564L451.964 188.4H453.704L453.864 187.64C454.104 186.493 454.584 185.607 455.304 184.98C456.037 184.34 456.99 184.02 458.164 184.02C458.63 184.02 459.064 184.073 459.464 184.18C459.877 184.287 460.224 184.447 460.504 184.66L459.484 186.48C459.124 186.187 458.684 186.04 458.164 186.04ZM469.67 192.88C469.67 193.4 469.617 193.907 469.51 194.4H461.03C461.07 196.147 462.097 197.02 464.11 197.02C464.723 197.02 465.297 196.927 465.83 196.74C466.363 196.54 466.817 196.267 467.19 195.92L468.23 197.66C467.683 198.153 467.023 198.527 466.25 198.78C465.49 199.02 464.69 199.14 463.85 199.14C462.783 199.14 461.85 198.947 461.05 198.56C460.263 198.173 459.657 197.627 459.23 196.92C458.803 196.2 458.59 195.373 458.59 194.44C458.59 193.253 458.85 192.187 459.37 191.24C459.903 190.28 460.637 189.533 461.57 189C462.517 188.467 463.577 188.2 464.75 188.2C466.243 188.2 467.437 188.62 468.33 189.46C469.223 190.287 469.67 191.427 469.67 192.88ZM464.63 190.2C463.79 190.2 463.07 190.427 462.47 190.88C461.883 191.333 461.477 191.953 461.25 192.74H467.37C467.383 191.94 467.137 191.32 466.63 190.88C466.137 190.427 465.47 190.2 464.63 190.2ZM472.993 188.32H475.493L473.373 199H470.873L472.993 188.32ZM474.813 186.56C474.373 186.56 474.013 186.427 473.733 186.16C473.453 185.88 473.313 185.547 473.313 185.16C473.313 184.707 473.466 184.327 473.773 184.02C474.093 183.713 474.506 183.56 475.013 183.56C475.453 183.56 475.813 183.693 476.093 183.96C476.373 184.213 476.513 184.527 476.513 184.9C476.513 185.393 476.353 185.793 476.033 186.1C475.726 186.407 475.32 186.56 474.813 186.56ZM480.874 189.7C481.341 189.153 481.908 188.767 482.574 188.54C483.254 188.313 484.061 188.2 484.994 188.2L484.534 190.58C484.308 190.54 484.101 190.52 483.914 190.52C481.874 190.52 480.641 191.593 480.214 193.74L479.154 199H476.654L478.774 188.32H481.154L480.874 189.7ZM497.417 188.32L495.297 199H492.917L493.137 197.9C492.204 198.727 491.044 199.14 489.657 199.14C488.777 199.14 487.977 198.953 487.257 198.58C486.551 198.207 485.991 197.667 485.577 196.96C485.164 196.24 484.957 195.4 484.957 194.44C484.957 193.253 485.217 192.187 485.737 191.24C486.271 190.28 486.991 189.533 487.897 189C488.817 188.467 489.844 188.2 490.977 188.2C492.684 188.2 493.897 188.767 494.617 189.9L494.917 188.32H497.417ZM490.297 197C491.004 197 491.631 196.833 492.177 196.5C492.737 196.153 493.177 195.68 493.497 195.08C493.817 194.467 493.977 193.773 493.977 193C493.977 192.16 493.731 191.507 493.237 191.04C492.744 190.56 492.051 190.32 491.157 190.32C490.451 190.32 489.817 190.493 489.257 190.84C488.711 191.173 488.277 191.647 487.957 192.26C487.637 192.86 487.477 193.547 487.477 194.32C487.477 195.16 487.724 195.82 488.217 196.3C488.711 196.767 489.404 197 490.297 197ZM502.208 199.14C501.302 199.14 500.435 199.033 499.608 198.82C498.795 198.593 498.162 198.313 497.708 197.98L498.748 196.06C499.188 196.38 499.742 196.633 500.408 196.82C501.075 197.007 501.762 197.1 502.468 197.1C503.268 197.1 503.868 196.993 504.268 196.78C504.682 196.553 504.888 196.233 504.888 195.82C504.888 195.5 504.715 195.267 504.368 195.12C504.035 194.973 503.502 194.82 502.768 194.66C502.008 194.513 501.382 194.36 500.888 194.2C500.408 194.027 499.988 193.753 499.628 193.38C499.282 192.993 499.108 192.467 499.108 191.8C499.108 190.693 499.568 189.82 500.488 189.18C501.422 188.527 502.655 188.2 504.188 188.2C504.922 188.2 505.635 188.287 506.328 188.46C507.022 188.62 507.588 188.84 508.028 189.12L507.108 191.04C506.668 190.76 506.168 190.553 505.608 190.42C505.062 190.287 504.508 190.22 503.948 190.22C503.162 190.22 502.562 190.34 502.148 190.58C501.748 190.82 501.548 191.133 501.548 191.52C501.548 191.867 501.722 192.12 502.068 192.28C502.428 192.427 502.982 192.58 503.728 192.74C504.475 192.887 505.088 193.047 505.568 193.22C506.048 193.38 506.462 193.647 506.808 194.02C507.155 194.393 507.328 194.9 507.328 195.54C507.328 196.687 506.862 197.573 505.928 198.2C504.995 198.827 503.755 199.14 502.208 199.14Z" fill="#5B6568"/>
<path d="M279 61V1H26C12.1929 1 1 12.1929 1 26V216C1 229.807 12.1929 241 26 241H279V181" stroke="#727F84"/>
<path d="M641 61V1H894C907.807 1 919 12.1929 919 26V216C919 229.807 907.807 241 894 241H641V181" stroke="#727F84"/>
<path d="M321 61V1H599V61M321 181V241H599V181" stroke="#727F84"/>
<path d="M459.729 90.5C469.529 90.5 476.762 92.5 481.429 96.5C486.162 100.5 488.529 105.833 488.529 112.5C488.529 116.833 487.396 120.833 485.129 124.5C482.929 128.1 479.529 131 474.929 133.2C470.396 135.333 464.762 136.4 458.029 136.4C453.096 136.4 448.196 135.8 443.329 134.6C438.529 133.4 434.396 131.7 430.929 129.5L438.029 114.6C440.829 116.467 443.896 117.9 447.229 118.9C450.629 119.9 454.029 120.4 457.429 120.4C460.829 120.4 463.529 119.767 465.529 118.5C467.596 117.167 468.629 115.333 468.629 113C468.629 110.667 467.629 108.9 465.629 107.7C463.629 106.5 460.096 105.9 455.029 105.9H436.029L439.529 65H484.129V80.3H455.929L455.029 90.5H459.729Z" fill="#FFCD29"/>
<path d="M87.8286 162C89.5219 162 90.8286 162.373 91.7486 163.12C92.6819 163.853 93.1486 164.887 93.1486 166.22C93.1486 167.407 92.8753 168.433 92.3286 169.3C91.7953 170.153 91.0219 170.813 90.0086 171.28C89.0086 171.733 87.8286 171.96 86.4686 171.96H83.0486L82.2286 176H79.6286L82.4286 162H87.8286ZM86.5686 169.76C87.8353 169.76 88.8086 169.48 89.4886 168.92C90.1819 168.347 90.5286 167.527 90.5286 166.46C90.5286 165.713 90.2686 165.153 89.7486 164.78C89.2419 164.393 88.5086 164.2 87.5486 164.2H84.5886L83.4886 169.76H86.5686ZM97.8273 166.7C98.294 166.153 98.8607 165.767 99.5273 165.54C100.207 165.313 101.014 165.2 101.947 165.2L101.487 167.58C101.261 167.54 101.054 167.52 100.867 167.52C98.8273 167.52 97.594 168.593 97.1673 170.74L96.1073 176H93.6073L95.7273 165.32H98.1073L97.8273 166.7ZM112.99 169.88C112.99 170.4 112.937 170.907 112.83 171.4H104.35C104.39 173.147 105.417 174.02 107.43 174.02C108.044 174.02 108.617 173.927 109.15 173.74C109.684 173.54 110.137 173.267 110.51 172.92L111.55 174.66C111.004 175.153 110.344 175.527 109.57 175.78C108.81 176.02 108.01 176.14 107.17 176.14C106.104 176.14 105.17 175.947 104.37 175.56C103.584 175.173 102.977 174.627 102.55 173.92C102.124 173.2 101.91 172.373 101.91 171.44C101.91 170.253 102.17 169.187 102.69 168.24C103.224 167.28 103.957 166.533 104.89 166C105.837 165.467 106.897 165.2 108.07 165.2C109.564 165.2 110.757 165.62 111.65 166.46C112.544 167.287 112.99 168.427 112.99 169.88ZM107.95 167.2C107.11 167.2 106.39 167.427 105.79 167.88C105.204 168.333 104.797 168.953 104.57 169.74H110.69C110.704 168.94 110.457 168.32 109.95 167.88C109.457 167.427 108.79 167.2 107.95 167.2ZM129.513 165.2C130.713 165.2 131.653 165.507 132.333 166.12C133.027 166.733 133.373 167.613 133.373 168.76C133.373 169.187 133.327 169.627 133.233 170.08L132.053 176H129.553L130.733 170.14C130.787 169.873 130.813 169.593 130.813 169.3C130.813 168.02 130.133 167.38 128.773 167.38C127 167.38 125.907 168.4 125.493 170.44L124.373 176H121.873L123.053 170.14C123.107 169.873 123.133 169.593 123.133 169.3C123.133 168.02 122.453 167.38 121.093 167.38C119.32 167.38 118.227 168.407 117.813 170.46L116.693 176H114.193L116.313 165.32H118.693L118.473 166.48C119.38 165.627 120.547 165.2 121.973 165.2C122.747 165.2 123.42 165.353 123.993 165.66C124.567 165.953 125 166.387 125.293 166.96C126.387 165.787 127.793 165.2 129.513 165.2ZM137.368 165.32H139.868L137.748 176H135.248L137.368 165.32ZM139.188 163.56C138.748 163.56 138.388 163.427 138.108 163.16C137.828 162.88 137.688 162.547 137.688 162.16C137.688 161.707 137.841 161.327 138.148 161.02C138.468 160.713 138.881 160.56 139.388 160.56C139.828 160.56 140.188 160.693 140.468 160.96C140.748 161.213 140.888 161.527 140.888 161.9C140.888 162.393 140.728 162.793 140.408 163.1C140.101 163.407 139.695 163.56 139.188 163.56ZM153.589 165.32L151.469 176H149.089L149.309 174.9C148.376 175.727 147.216 176.14 145.829 176.14C144.949 176.14 144.149 175.953 143.429 175.58C142.723 175.207 142.163 174.667 141.749 173.96C141.336 173.24 141.129 172.4 141.129 171.44C141.129 170.253 141.389 169.187 141.909 168.24C142.443 167.28 143.163 166.533 144.069 166C144.989 165.467 146.016 165.2 147.149 165.2C148.856 165.2 150.069 165.767 150.789 166.9L151.089 165.32H153.589ZM146.469 174C147.176 174 147.803 173.833 148.349 173.5C148.909 173.153 149.349 172.68 149.669 172.08C149.989 171.467 150.149 170.773 150.149 170C150.149 169.16 149.903 168.507 149.409 168.04C148.916 167.56 148.223 167.32 147.329 167.32C146.623 167.32 145.989 167.493 145.429 167.84C144.883 168.173 144.449 168.647 144.129 169.26C143.809 169.86 143.649 170.547 143.649 171.32C143.649 172.16 143.896 172.82 144.389 173.3C144.883 173.767 145.576 174 146.469 174ZM160.08 176.14C159.027 176.14 158.1 175.947 157.3 175.56C156.513 175.16 155.907 174.607 155.48 173.9C155.053 173.193 154.84 172.373 154.84 171.44C154.84 170.253 155.113 169.187 155.66 168.24C156.207 167.293 156.96 166.553 157.92 166.02C158.893 165.473 160 165.2 161.24 165.2C162.32 165.2 163.247 165.413 164.02 165.84C164.807 166.253 165.413 166.873 165.84 167.7L163.7 168.8C163.207 167.813 162.32 167.32 161.04 167.32C160.333 167.32 159.7 167.493 159.14 167.84C158.593 168.173 158.16 168.647 157.84 169.26C157.52 169.86 157.36 170.547 157.36 171.32C157.36 172.16 157.607 172.82 158.1 173.3C158.593 173.767 159.293 174 160.2 174C160.813 174 161.367 173.88 161.86 173.64C162.353 173.387 162.773 173.013 163.12 172.52L164.96 173.76C164.467 174.507 163.787 175.093 162.92 175.52C162.053 175.933 161.107 176.14 160.08 176.14ZM158.36 180.56C157.627 180.56 157.02 180.42 156.54 180.14L157.14 178.96C157.553 179.173 158.013 179.28 158.52 179.28C158.907 179.28 159.193 179.207 159.38 179.06C159.58 178.927 159.687 178.747 159.7 178.52C159.7 178.107 159.387 177.9 158.76 177.9H158.14L159.06 175.86H160.42L159.94 176.98C160.407 177.047 160.76 177.207 161 177.46C161.253 177.713 161.38 178.033 161.38 178.42C161.38 179.087 161.1 179.607 160.54 179.98C159.993 180.367 159.267 180.56 158.36 180.56ZM171.485 176.14C170.445 176.14 169.532 175.947 168.745 175.56C167.972 175.16 167.372 174.607 166.945 173.9C166.518 173.193 166.305 172.373 166.305 171.44C166.305 170.253 166.572 169.187 167.105 168.24C167.652 167.293 168.405 166.553 169.365 166.02C170.338 165.473 171.432 165.2 172.645 165.2C173.685 165.2 174.598 165.393 175.385 165.78C176.172 166.167 176.778 166.713 177.205 167.42C177.632 168.127 177.845 168.947 177.845 169.88C177.845 171.067 177.572 172.133 177.025 173.08C176.478 174.027 175.718 174.773 174.745 175.32C173.785 175.867 172.698 176.14 171.485 176.14ZM171.645 174C172.352 174 172.978 173.833 173.525 173.5C174.085 173.153 174.525 172.68 174.845 172.08C175.165 171.467 175.325 170.773 175.325 170C175.325 169.16 175.078 168.507 174.585 168.04C174.092 167.56 173.398 167.32 172.505 167.32C171.798 167.32 171.165 167.493 170.605 167.84C170.058 168.173 169.625 168.647 169.305 169.26C168.985 169.86 168.825 170.547 168.825 171.32C168.825 172.16 169.072 172.82 169.565 173.3C170.058 173.767 170.752 174 171.645 174ZM175.005 163.86C174.672 163.86 174.378 163.793 174.125 163.66C173.885 163.527 173.618 163.34 173.325 163.1C173.098 162.913 172.905 162.773 172.745 162.68C172.598 162.587 172.438 162.54 172.265 162.54C171.985 162.54 171.752 162.653 171.565 162.88C171.378 163.093 171.252 163.38 171.185 163.74H169.845C169.978 162.887 170.258 162.227 170.685 161.76C171.125 161.293 171.658 161.06 172.285 161.06C172.605 161.06 172.885 161.127 173.125 161.26C173.378 161.393 173.658 161.587 173.965 161.84C174.218 162.04 174.412 162.18 174.545 162.26C174.678 162.34 174.832 162.38 175.005 162.38C175.285 162.38 175.518 162.28 175.705 162.08C175.892 161.867 176.018 161.587 176.085 161.24H177.425C177.292 162.067 177.012 162.713 176.585 163.18C176.158 163.633 175.632 163.86 175.005 163.86ZM190.276 169.88C190.276 170.4 190.222 170.907 190.116 171.4H181.636C181.676 173.147 182.702 174.02 184.716 174.02C185.329 174.02 185.902 173.927 186.436 173.74C186.969 173.54 187.422 173.267 187.796 172.92L188.836 174.66C188.289 175.153 187.629 175.527 186.856 175.78C186.096 176.02 185.296 176.14 184.456 176.14C183.389 176.14 182.456 175.947 181.656 175.56C180.869 175.173 180.262 174.627 179.836 173.92C179.409 173.2 179.196 172.373 179.196 171.44C179.196 170.253 179.456 169.187 179.976 168.24C180.509 167.28 181.242 166.533 182.176 166C183.122 165.467 184.182 165.2 185.356 165.2C186.849 165.2 188.042 165.62 188.936 166.46C189.829 167.287 190.276 168.427 190.276 169.88ZM185.236 167.2C184.396 167.2 183.676 167.427 183.076 167.88C182.489 168.333 182.082 168.953 181.856 169.74H187.976C187.989 168.94 187.742 168.32 187.236 167.88C186.742 167.427 186.076 167.2 185.236 167.2ZM195.118 176.14C194.212 176.14 193.345 176.033 192.518 175.82C191.705 175.593 191.072 175.313 190.618 174.98L191.658 173.06C192.098 173.38 192.652 173.633 193.318 173.82C193.985 174.007 194.672 174.1 195.378 174.1C196.178 174.1 196.778 173.993 197.178 173.78C197.592 173.553 197.798 173.233 197.798 172.82C197.798 172.5 197.625 172.267 197.278 172.12C196.945 171.973 196.412 171.82 195.678 171.66C194.918 171.513 194.292 171.36 193.798 171.2C193.318 171.027 192.898 170.753 192.538 170.38C192.192 169.993 192.018 169.467 192.018 168.8C192.018 167.693 192.478 166.82 193.398 166.18C194.332 165.527 195.565 165.2 197.098 165.2C197.832 165.2 198.545 165.287 199.238 165.46C199.932 165.62 200.498 165.84 200.938 166.12L200.018 168.04C199.578 167.76 199.078 167.553 198.518 167.42C197.972 167.287 197.418 167.22 196.858 167.22C196.072 167.22 195.472 167.34 195.058 167.58C194.658 167.82 194.458 168.133 194.458 168.52C194.458 168.867 194.632 169.12 194.978 169.28C195.338 169.427 195.892 169.58 196.638 169.74C197.385 169.887 197.998 170.047 198.478 170.22C198.958 170.38 199.372 170.647 199.718 171.02C200.065 171.393 200.238 171.9 200.238 172.54C200.238 173.687 199.772 174.573 198.838 175.2C197.905 175.827 196.665 176.14 195.118 176.14Z" fill="#5B6568"/>
<path d="M149.673 93C155.473 94.2 159.906 96.6 162.973 100.2C166.106 103.733 167.673 108.033 167.673 113.1C167.673 117.233 166.54 121.067 164.273 124.6C162.073 128.133 158.673 131 154.073 133.2C149.54 135.333 143.906 136.4 137.173 136.4C132.24 136.4 127.34 135.8 122.473 134.6C117.673 133.4 113.506 131.7 109.973 129.5L117.173 114.6C119.906 116.467 122.973 117.9 126.373 118.9C129.84 119.9 133.24 120.4 136.573 120.4C139.973 120.4 142.673 119.767 144.673 118.5C146.673 117.233 147.673 115.433 147.673 113.1C147.673 108.567 144.106 106.3 136.973 106.3H128.673V93.8L141.173 80.3H113.573V65H164.173V77.4L149.673 93Z" fill="#99A8AD"/>
<path d="M695.586 176.2C694.186 176.2 692.973 175.953 691.946 175.46C690.933 174.953 690.153 174.247 689.606 173.34C689.059 172.433 688.786 171.393 688.786 170.22C688.786 168.647 689.146 167.22 689.866 165.94C690.586 164.66 691.599 163.653 692.906 162.92C694.213 162.173 695.713 161.8 697.406 161.8C698.619 161.8 699.686 162 700.606 162.4C701.539 162.8 702.246 163.38 702.726 164.14L700.846 165.72C700.059 164.627 698.853 164.08 697.226 164.08C696.066 164.08 695.046 164.347 694.166 164.88C693.286 165.413 692.606 166.14 692.126 167.06C691.646 167.967 691.406 168.967 691.406 170.06C691.406 171.247 691.786 172.187 692.546 172.88C693.306 173.573 694.386 173.92 695.786 173.92C697.399 173.92 698.726 173.38 699.766 172.3L701.286 173.94C700.619 174.7 699.799 175.267 698.826 175.64C697.853 176.013 696.773 176.2 695.586 176.2ZM706.997 166.7C707.464 166.153 708.031 165.767 708.697 165.54C709.377 165.313 710.184 165.2 711.117 165.2L710.657 167.58C710.431 167.54 710.224 167.52 710.037 167.52C707.997 167.52 706.764 168.593 706.337 170.74L705.277 176H702.777L704.897 165.32H707.277L706.997 166.7ZM722.16 169.88C722.16 170.4 722.107 170.907 722 171.4H713.52C713.56 173.147 714.587 174.02 716.6 174.02C717.214 174.02 717.787 173.927 718.32 173.74C718.854 173.54 719.307 173.267 719.68 172.92L720.72 174.66C720.174 175.153 719.514 175.527 718.74 175.78C717.98 176.02 717.18 176.14 716.34 176.14C715.274 176.14 714.34 175.947 713.54 175.56C712.754 175.173 712.147 174.627 711.72 173.92C711.294 173.2 711.08 172.373 711.08 171.44C711.08 170.253 711.34 169.187 711.86 168.24C712.394 167.28 713.127 166.533 714.06 166C715.007 165.467 716.067 165.2 717.24 165.2C718.734 165.2 719.927 165.62 720.82 166.46C721.714 167.287 722.16 168.427 722.16 169.88ZM717.12 167.2C716.28 167.2 715.56 167.427 714.96 167.88C714.374 168.333 713.967 168.953 713.74 169.74H719.86C719.874 168.94 719.627 168.32 719.12 167.88C718.627 167.427 717.96 167.2 717.12 167.2ZM736.763 161.16L733.803 176H731.423L731.643 174.9C730.683 175.727 729.53 176.14 728.183 176.14C727.303 176.14 726.503 175.953 725.783 175.58C725.077 175.207 724.517 174.667 724.103 173.96C723.69 173.24 723.483 172.4 723.483 171.44C723.483 170.24 723.743 169.167 724.263 168.22C724.783 167.273 725.497 166.533 726.403 166C727.323 165.467 728.35 165.2 729.483 165.2C730.323 165.2 731.05 165.34 731.663 165.62C732.29 165.9 732.777 166.313 733.123 166.86L734.263 161.16H736.763ZM728.823 174C729.517 174 730.143 173.833 730.703 173.5C731.263 173.153 731.697 172.68 732.003 172.08C732.323 171.467 732.483 170.773 732.483 170C732.483 169.16 732.237 168.507 731.743 168.04C731.25 167.56 730.557 167.32 729.663 167.32C728.97 167.32 728.343 167.493 727.783 167.84C727.223 168.173 726.783 168.647 726.463 169.26C726.157 169.86 726.003 170.547 726.003 171.32C726.003 172.16 726.25 172.82 726.743 173.3C727.237 173.767 727.93 174 728.823 174ZM748.274 169.88C748.274 170.4 748.22 170.907 748.114 171.4H739.634C739.674 173.147 740.7 174.02 742.714 174.02C743.327 174.02 743.9 173.927 744.434 173.74C744.967 173.54 745.42 173.267 745.794 172.92L746.834 174.66C746.287 175.153 745.627 175.527 744.854 175.78C744.094 176.02 743.294 176.14 742.454 176.14C741.387 176.14 740.454 175.947 739.654 175.56C738.867 175.173 738.26 174.627 737.834 173.92C737.407 173.2 737.194 172.373 737.194 171.44C737.194 170.253 737.454 169.187 737.974 168.24C738.507 167.28 739.24 166.533 740.174 166C741.12 165.467 742.18 165.2 743.354 165.2C744.847 165.2 746.04 165.62 746.934 166.46C747.827 167.287 748.274 168.427 748.274 169.88ZM743.234 167.2C742.394 167.2 741.674 167.427 741.074 167.88C740.487 168.333 740.08 168.953 739.854 169.74H745.974C745.987 168.94 745.74 168.32 745.234 167.88C744.74 167.427 744.074 167.2 743.234 167.2ZM757.416 165.2C758.616 165.2 759.563 165.513 760.256 166.14C760.963 166.767 761.316 167.653 761.316 168.8C761.316 169.12 761.27 169.547 761.176 170.08L759.996 176H757.496L758.656 170.14C758.71 169.873 758.736 169.6 758.736 169.32C758.736 168.027 758.023 167.38 756.596 167.38C755.676 167.38 754.916 167.64 754.316 168.16C753.716 168.667 753.31 169.433 753.096 170.46L751.976 176H749.476L751.596 165.32H753.976L753.736 166.5C754.696 165.633 755.923 165.2 757.416 165.2ZM768.606 176.14C767.552 176.14 766.626 175.947 765.826 175.56C765.039 175.16 764.432 174.607 764.006 173.9C763.579 173.193 763.366 172.373 763.366 171.44C763.366 170.253 763.639 169.187 764.186 168.24C764.732 167.293 765.486 166.553 766.446 166.02C767.419 165.473 768.526 165.2 769.766 165.2C770.846 165.2 771.772 165.413 772.546 165.84C773.332 166.253 773.939 166.873 774.366 167.7L772.226 168.8C771.732 167.813 770.846 167.32 769.566 167.32C768.859 167.32 768.226 167.493 767.666 167.84C767.119 168.173 766.686 168.647 766.366 169.26C766.046 169.86 765.886 170.547 765.886 171.32C765.886 172.16 766.132 172.82 766.626 173.3C767.119 173.767 767.819 174 768.726 174C769.339 174 769.892 173.88 770.386 173.64C770.879 173.387 771.299 173.013 771.646 172.52L773.486 173.76C772.992 174.507 772.312 175.093 771.446 175.52C770.579 175.933 769.632 176.14 768.606 176.14ZM777.007 165.32H779.507L777.387 176H774.887L777.007 165.32ZM778.827 163.56C778.387 163.56 778.027 163.427 777.747 163.16C777.467 162.88 777.327 162.547 777.327 162.16C777.327 161.707 777.48 161.327 777.787 161.02C778.107 160.713 778.52 160.56 779.027 160.56C779.467 160.56 779.827 160.693 780.107 160.96C780.387 161.213 780.527 161.527 780.527 161.9C780.527 162.393 780.367 162.793 780.047 163.1C779.74 163.407 779.333 163.56 778.827 163.56ZM793.228 165.32L791.108 176H788.728L788.948 174.9C788.015 175.727 786.855 176.14 785.468 176.14C784.588 176.14 783.788 175.953 783.068 175.58C782.361 175.207 781.801 174.667 781.388 173.96C780.975 173.24 780.768 172.4 780.768 171.44C780.768 170.253 781.028 169.187 781.548 168.24C782.081 167.28 782.801 166.533 783.708 166C784.628 165.467 785.655 165.2 786.788 165.2C788.495 165.2 789.708 165.767 790.428 166.9L790.728 165.32H793.228ZM786.108 174C786.815 174 787.441 173.833 787.988 173.5C788.548 173.153 788.988 172.68 789.308 172.08C789.628 171.467 789.788 170.773 789.788 170C789.788 169.16 789.541 168.507 789.048 168.04C788.555 167.56 787.861 167.32 786.968 167.32C786.261 167.32 785.628 167.493 785.068 167.84C784.521 168.173 784.088 168.647 783.768 169.26C783.448 169.86 783.288 170.547 783.288 171.32C783.288 172.16 783.535 172.82 784.028 173.3C784.521 173.767 785.215 174 786.108 174ZM809.699 165.2C810.899 165.2 811.839 165.507 812.519 166.12C813.212 166.733 813.559 167.613 813.559 168.76C813.559 169.187 813.512 169.627 813.419 170.08L812.239 176H809.739L810.919 170.14C810.972 169.873 810.999 169.593 810.999 169.3C810.999 168.02 810.319 167.38 808.959 167.38C807.185 167.38 806.092 168.4 805.679 170.44L804.559 176H802.059L803.239 170.14C803.292 169.873 803.319 169.593 803.319 169.3C803.319 168.02 802.639 167.38 801.279 167.38C799.505 167.38 798.412 168.407 797.999 170.46L796.879 176H794.379L796.499 165.32H798.879L798.659 166.48C799.565 165.627 800.732 165.2 802.159 165.2C802.932 165.2 803.605 165.353 804.179 165.66C804.752 165.953 805.185 166.387 805.479 166.96C806.572 165.787 807.979 165.2 809.699 165.2ZM826.711 169.88C826.711 170.4 826.658 170.907 826.551 171.4H818.071C818.111 173.147 819.138 174.02 821.151 174.02C821.765 174.02 822.338 173.927 822.871 173.74C823.405 173.54 823.858 173.267 824.231 172.92L825.271 174.66C824.725 175.153 824.065 175.527 823.291 175.78C822.531 176.02 821.731 176.14 820.891 176.14C819.825 176.14 818.891 175.947 818.091 175.56C817.305 175.173 816.698 174.627 816.271 173.92C815.845 173.2 815.631 172.373 815.631 171.44C815.631 170.253 815.891 169.187 816.411 168.24C816.945 167.28 817.678 166.533 818.611 166C819.558 165.467 820.618 165.2 821.791 165.2C823.285 165.2 824.478 165.62 825.371 166.46C826.265 167.287 826.711 168.427 826.711 169.88ZM821.671 167.2C820.831 167.2 820.111 167.427 819.511 167.88C818.925 168.333 818.518 168.953 818.291 169.74H824.411C824.425 168.94 824.178 168.32 823.671 167.88C823.178 167.427 822.511 167.2 821.671 167.2ZM835.854 165.2C837.054 165.2 838.001 165.513 838.694 166.14C839.401 166.767 839.754 167.653 839.754 168.8C839.754 169.12 839.707 169.547 839.614 170.08L838.434 176H835.934L837.094 170.14C837.147 169.873 837.174 169.6 837.174 169.32C837.174 168.027 836.461 167.38 835.034 167.38C834.114 167.38 833.354 167.64 832.754 168.16C832.154 168.667 831.747 169.433 831.534 170.46L830.414 176H827.914L830.034 165.32H832.414L832.174 166.5C833.134 165.633 834.361 165.2 835.854 165.2ZM845.125 172.42C845.099 172.633 845.085 172.787 845.085 172.88C845.085 173.68 845.505 174.08 846.345 174.08C846.865 174.08 847.332 173.94 847.745 173.66L848.185 175.5C847.505 175.927 846.645 176.14 845.605 176.14C844.685 176.14 843.945 175.887 843.385 175.38C842.825 174.873 842.545 174.173 842.545 173.28C842.545 172.987 842.572 172.707 842.625 172.44L843.645 167.4H841.905L842.305 165.4H844.045L844.525 162.96H847.025L846.525 165.4H849.405L849.005 167.4H846.125L845.125 172.42ZM855.01 176.14C853.97 176.14 853.057 175.947 852.27 175.56C851.497 175.16 850.897 174.607 850.47 173.9C850.044 173.193 849.83 172.373 849.83 171.44C849.83 170.253 850.097 169.187 850.63 168.24C851.177 167.293 851.93 166.553 852.89 166.02C853.864 165.473 854.957 165.2 856.17 165.2C857.21 165.2 858.124 165.393 858.91 165.78C859.697 166.167 860.304 166.713 860.73 167.42C861.157 168.127 861.37 168.947 861.37 169.88C861.37 171.067 861.097 172.133 860.55 173.08C860.004 174.027 859.244 174.773 858.27 175.32C857.31 175.867 856.224 176.14 855.01 176.14ZM855.17 174C855.877 174 856.504 173.833 857.05 173.5C857.61 173.153 858.05 172.68 858.37 172.08C858.69 171.467 858.85 170.773 858.85 170C858.85 169.16 858.604 168.507 858.11 168.04C857.617 167.56 856.924 167.32 856.03 167.32C855.324 167.32 854.69 167.493 854.13 167.84C853.584 168.173 853.15 168.647 852.83 169.26C852.51 169.86 852.35 170.547 852.35 171.32C852.35 172.16 852.597 172.82 853.09 173.3C853.584 173.767 854.277 174 855.17 174ZM866.261 176.14C865.354 176.14 864.488 176.033 863.661 175.82C862.848 175.593 862.214 175.313 861.761 174.98L862.801 173.06C863.241 173.38 863.794 173.633 864.461 173.82C865.128 174.007 865.814 174.1 866.521 174.1C867.321 174.1 867.921 173.993 868.321 173.78C868.734 173.553 868.941 173.233 868.941 172.82C868.941 172.5 868.768 172.267 868.421 172.12C868.088 171.973 867.554 171.82 866.821 171.66C866.061 171.513 865.434 171.36 864.941 171.2C864.461 171.027 864.041 170.753 863.681 170.38C863.334 169.993 863.161 169.467 863.161 168.8C863.161 167.693 863.621 166.82 864.541 166.18C865.474 165.527 866.708 165.2 868.241 165.2C868.974 165.2 869.688 165.287 870.381 165.46C871.074 165.62 871.641 165.84 872.081 166.12L871.161 168.04C870.721 167.76 870.221 167.553 869.661 167.42C869.114 167.287 868.561 167.22 868.001 167.22C867.214 167.22 866.614 167.34 866.201 167.58C865.801 167.82 865.601 168.133 865.601 168.52C865.601 168.867 865.774 169.12 866.121 169.28C866.481 169.427 867.034 169.58 867.781 169.74C868.528 169.887 869.141 170.047 869.621 170.22C870.101 170.38 870.514 170.647 870.861 171.02C871.208 171.393 871.381 171.9 871.381 172.54C871.381 173.687 870.914 174.573 869.981 175.2C869.048 175.827 867.808 176.14 866.261 176.14Z" fill="#5B6568"/>
<path d="M789.673 93C795.473 94.2 799.906 96.6 802.973 100.2C806.106 103.733 807.673 108.033 807.673 113.1C807.673 117.233 806.54 121.067 804.273 124.6C802.073 128.133 798.673 131 794.073 133.2C789.54 135.333 783.906 136.4 777.173 136.4C772.24 136.4 767.34 135.8 762.473 134.6C757.673 133.4 753.506 131.7 749.973 129.5L757.173 114.6C759.906 116.467 762.973 117.9 766.373 118.9C769.84 119.9 773.24 120.4 776.573 120.4C779.973 120.4 782.673 119.767 784.673 118.5C786.673 117.233 787.673 115.433 787.673 113.1C787.673 108.567 784.106 106.3 776.973 106.3H768.673V93.8L781.173 80.3H753.573V65H804.173V77.4L789.673 93Z" fill="#99A8AD"/>
</svg>
