<svg width="218" height="106" viewBox="0 0 218 106" fill="none" xmlns="http://www.w3.org/2000/svg">
<g filter="url(#filter0_d)">
<path d="M45.126 19.76H38.126L36.746 23H34.066L40.366 9H42.926L49.246 23H46.526L45.126 19.76ZM44.266 17.72L41.626 11.6L39.006 17.72H44.266ZM62.2338 12.2C63.2738 12.2 64.2005 12.4267 65.0138 12.88C65.8405 13.3333 66.4872 13.9733 66.9538 14.8C67.4205 15.6267 67.6538 16.58 67.6538 17.66C67.6538 18.74 67.4205 19.7 66.9538 20.54C66.4872 21.3667 65.8405 22.0067 65.0138 22.46C64.2005 22.9133 63.2738 23.14 62.2338 23.14C60.7938 23.14 59.6538 22.66 58.8138 21.7V26.88H56.3138V12.32H58.6938V13.72C59.1072 13.2133 59.6138 12.8333 60.2138 12.58C60.8272 12.3267 61.5005 12.2 62.2338 12.2ZM61.9538 21C62.8738 21 63.6272 20.6933 64.2138 20.08C64.8138 19.4667 65.1138 18.66 65.1138 17.66C65.1138 16.66 64.8138 15.8533 64.2138 15.24C63.6272 14.6267 62.8738 14.32 61.9538 14.32C61.3538 14.32 60.8138 14.46 60.3338 14.74C59.8538 15.0067 59.4738 15.3933 59.1938 15.9C58.9138 16.4067 58.7738 16.9933 58.7738 17.66C58.7738 18.3267 58.9138 18.9133 59.1938 19.42C59.4738 19.9267 59.8538 20.32 60.3338 20.6C60.8138 20.8667 61.3538 21 61.9538 21ZM70.0248 8.16H72.5248V23H70.0248V8.16ZM79.886 12.2C81.4593 12.2 82.6593 12.58 83.486 13.34C84.326 14.0867 84.746 15.22 84.746 16.74V23H82.386V21.7C82.0793 22.1667 81.6393 22.5267 81.066 22.78C80.506 23.02 79.826 23.14 79.026 23.14C78.226 23.14 77.526 23.0067 76.926 22.74C76.326 22.46 75.8593 22.08 75.526 21.6C75.206 21.1067 75.046 20.5533 75.046 19.94C75.046 18.98 75.3993 18.2133 76.106 17.64C76.826 17.0533 77.9527 16.76 79.486 16.76H82.246V16.6C82.246 15.8533 82.0193 15.28 81.566 14.88C81.126 14.48 80.466 14.28 79.586 14.28C78.986 14.28 78.3927 14.3733 77.806 14.56C77.2327 14.7467 76.746 15.0067 76.346 15.34L75.366 13.52C75.926 13.0933 76.5993 12.7667 77.386 12.54C78.1727 12.3133 79.006 12.2 79.886 12.2ZM79.546 21.32C80.1727 21.32 80.726 21.18 81.206 20.9C81.6993 20.6067 82.046 20.1933 82.246 19.66V18.42H79.666C78.226 18.42 77.506 18.8933 77.506 19.84C77.506 20.2933 77.686 20.6533 78.046 20.92C78.406 21.1867 78.906 21.32 79.546 21.32ZM94.3745 22.42C94.0811 22.66 93.7211 22.84 93.2945 22.96C92.8811 23.08 92.4411 23.14 91.9745 23.14C90.8011 23.14 89.8945 22.8333 89.2545 22.22C88.6145 21.6067 88.2945 20.7133 88.2945 19.54V14.4H86.5345V12.4H88.2945V9.96H90.7945V12.4H93.6545V14.4H90.7945V19.48C90.7945 20 90.9211 20.4 91.1745 20.68C91.4278 20.9467 91.7945 21.08 92.2745 21.08C92.8345 21.08 93.3011 20.9333 93.6745 20.64L94.3745 22.42ZM100.771 10.04C99.7177 10.04 99.191 10.6133 99.191 11.76V12.4H102.131V14.4H99.271V23H96.771V14.4H95.011V12.4H96.771V11.72C96.771 10.5733 97.1043 9.67333 97.771 9.02C98.4377 8.35333 99.3777 8.02 100.591 8.02C101.551 8.02 102.304 8.21333 102.851 8.6L102.151 10.48C101.724 10.1867 101.264 10.04 100.771 10.04ZM108.458 23.14C107.378 23.14 106.404 22.9067 105.538 22.44C104.671 21.9733 103.991 21.3267 103.498 20.5C103.018 19.66 102.778 18.7133 102.778 17.66C102.778 16.6067 103.018 15.6667 103.498 14.84C103.991 14.0133 104.671 13.3667 105.538 12.9C106.404 12.4333 107.378 12.2 108.458 12.2C109.551 12.2 110.531 12.4333 111.398 12.9C112.264 13.3667 112.938 14.0133 113.418 14.84C113.911 15.6667 114.158 16.6067 114.158 17.66C114.158 18.7133 113.911 19.66 113.418 20.5C112.938 21.3267 112.264 21.9733 111.398 22.44C110.531 22.9067 109.551 23.14 108.458 23.14ZM108.458 21C109.378 21 110.138 20.6933 110.738 20.08C111.338 19.4667 111.638 18.66 111.638 17.66C111.638 16.66 111.338 15.8533 110.738 15.24C110.138 14.6267 109.378 14.32 108.458 14.32C107.538 14.32 106.778 14.6267 106.178 15.24C105.591 15.8533 105.298 16.66 105.298 17.66C105.298 18.66 105.591 19.4667 106.178 20.08C106.778 20.6933 107.538 21 108.458 21ZM118.928 13.88C119.648 12.76 120.915 12.2 122.728 12.2V14.58C122.515 14.54 122.322 14.52 122.148 14.52C121.175 14.52 120.415 14.8067 119.868 15.38C119.322 15.94 119.048 16.7533 119.048 17.82V23H116.548V12.32H118.928V13.88ZM138.329 12.2C139.676 12.2 140.742 12.5933 141.529 13.38C142.316 14.1533 142.709 15.32 142.709 16.88V23H140.209V17.2C140.209 16.2667 140.002 15.5667 139.589 15.1C139.176 14.62 138.582 14.38 137.809 14.38C136.969 14.38 136.296 14.66 135.789 15.22C135.282 15.7667 135.029 16.5533 135.029 17.58V23H132.529V17.2C132.529 16.2667 132.322 15.5667 131.909 15.1C131.496 14.62 130.902 14.38 130.129 14.38C129.276 14.38 128.596 14.6533 128.089 15.2C127.596 15.7467 127.349 16.54 127.349 17.58V23H124.849V12.32H127.229V13.68C127.629 13.2 128.129 12.8333 128.729 12.58C129.329 12.3267 129.996 12.2 130.729 12.2C131.529 12.2 132.236 12.3533 132.849 12.66C133.476 12.9533 133.969 13.3933 134.329 13.98C134.769 13.42 135.336 12.9867 136.029 12.68C136.722 12.36 137.489 12.2 138.329 12.2ZM155.771 10.04C154.718 10.04 154.191 10.6133 154.191 11.76V12.4H157.131V14.4H154.271V23H151.771V14.4H150.011V12.4H151.771V11.72C151.771 10.5733 152.104 9.67333 152.771 9.02C153.438 8.35333 154.378 8.02 155.591 8.02C156.551 8.02 157.304 8.21333 157.851 8.6L157.151 10.48C156.724 10.1867 156.264 10.04 155.771 10.04ZM163.458 23.14C162.378 23.14 161.404 22.9067 160.538 22.44C159.671 21.9733 158.991 21.3267 158.498 20.5C158.018 19.66 157.778 18.7133 157.778 17.66C157.778 16.6067 158.018 15.6667 158.498 14.84C158.991 14.0133 159.671 13.3667 160.538 12.9C161.404 12.4333 162.378 12.2 163.458 12.2C164.551 12.2 165.531 12.4333 166.398 12.9C167.264 13.3667 167.938 14.0133 168.418 14.84C168.911 15.6667 169.158 16.6067 169.158 17.66C169.158 18.7133 168.911 19.66 168.418 20.5C167.938 21.3267 167.264 21.9733 166.398 22.44C165.531 22.9067 164.551 23.14 163.458 23.14ZM163.458 21C164.378 21 165.138 20.6933 165.738 20.08C166.338 19.4667 166.638 18.66 166.638 17.66C166.638 16.66 166.338 15.8533 165.738 15.24C165.138 14.6267 164.378 14.32 163.458 14.32C162.538 14.32 161.778 14.6267 161.178 15.24C160.591 15.8533 160.298 16.66 160.298 17.66C160.298 18.66 160.591 19.4667 161.178 20.08C161.778 20.6933 162.538 21 163.458 21ZM173.928 13.88C174.648 12.76 175.915 12.2 177.728 12.2V14.58C177.515 14.54 177.322 14.52 177.148 14.52C176.175 14.52 175.415 14.8067 174.868 15.38C174.322 15.94 174.048 16.7533 174.048 17.82V23H171.548V12.32H173.928V13.88ZM14.8662 47.14C13.7595 47.14 12.7662 46.9067 11.8862 46.44C11.0062 45.9733 10.3195 45.3267 9.82617 44.5C9.33284 43.66 9.08617 42.7133 9.08617 41.66C9.08617 40.6067 9.33284 39.6667 9.82617 38.84C10.3195 38.0133 10.9995 37.3667 11.8662 36.9C12.7462 36.4333 13.7462 36.2 14.8662 36.2C15.9195 36.2 16.8395 36.4133 17.6262 36.84C18.4262 37.2667 19.0262 37.88 19.4262 38.68L17.5062 39.8C17.1995 39.3067 16.8128 38.94 16.3462 38.7C15.8928 38.4467 15.3928 38.32 14.8462 38.32C13.9128 38.32 13.1395 38.6267 12.5262 39.24C11.9128 39.84 11.6062 40.6467 11.6062 41.66C11.6062 42.6733 11.9062 43.4867 12.5062 44.1C13.1195 44.7 13.8995 45 14.8462 45C15.3928 45 15.8928 44.88 16.3462 44.64C16.8128 44.3867 17.1995 44.0133 17.5062 43.52L19.4262 44.64C19.0128 45.44 18.4062 46.06 17.6062 46.5C16.8195 46.9267 15.9062 47.14 14.8662 47.14ZM26.231 47.14C25.151 47.14 24.1777 46.9067 23.311 46.44C22.4443 45.9733 21.7643 45.3267 21.271 44.5C20.791 43.66 20.551 42.7133 20.551 41.66C20.551 40.6067 20.791 39.6667 21.271 38.84C21.7643 38.0133 22.4443 37.3667 23.311 36.9C24.1777 36.4333 25.151 36.2 26.231 36.2C27.3243 36.2 28.3043 36.4333 29.171 36.9C30.0377 37.3667 30.711 38.0133 31.191 38.84C31.6844 39.6667 31.931 40.6067 31.931 41.66C31.931 42.7133 31.6844 43.66 31.191 44.5C30.711 45.3267 30.0377 45.9733 29.171 46.44C28.3043 46.9067 27.3243 47.14 26.231 47.14ZM26.231 45C27.151 45 27.911 44.6933 28.511 44.08C29.111 43.4667 29.411 42.66 29.411 41.66C29.411 40.66 29.111 39.8533 28.511 39.24C27.911 38.6267 27.151 38.32 26.231 38.32C25.311 38.32 24.551 38.6267 23.951 39.24C23.3643 39.8533 23.071 40.66 23.071 41.66C23.071 42.66 23.3643 43.4667 23.951 44.08C24.551 44.6933 25.311 45 26.231 45ZM47.8016 36.2C49.1483 36.2 50.215 36.5933 51.0016 37.38C51.7883 38.1533 52.1816 39.32 52.1816 40.88V47H49.6816V41.2C49.6816 40.2667 49.475 39.5667 49.0616 39.1C48.6483 38.62 48.055 38.38 47.2816 38.38C46.4416 38.38 45.7683 38.66 45.2616 39.22C44.755 39.7667 44.5016 40.5533 44.5016 41.58V47H42.0016V41.2C42.0016 40.2667 41.795 39.5667 41.3816 39.1C40.9683 38.62 40.375 38.38 39.6016 38.38C38.7483 38.38 38.0683 38.6533 37.5616 39.2C37.0683 39.7467 36.8216 40.54 36.8216 41.58V47H34.3216V36.32H36.7016V37.68C37.1016 37.2 37.6016 36.8333 38.2016 36.58C38.8016 36.3267 39.4683 36.2 40.2016 36.2C41.0016 36.2 41.7083 36.3533 42.3216 36.66C42.9483 36.9533 43.4416 37.3933 43.8016 37.98C44.2416 37.42 44.8083 36.9867 45.5016 36.68C46.195 36.36 46.9616 36.2 47.8016 36.2ZM68.8563 36.2C70.203 36.2 71.2697 36.5933 72.0563 37.38C72.843 38.1533 73.2363 39.32 73.2363 40.88V47H70.7363V41.2C70.7363 40.2667 70.5297 39.5667 70.1163 39.1C69.703 38.62 69.1097 38.38 68.3363 38.38C67.4963 38.38 66.823 38.66 66.3163 39.22C65.8097 39.7667 65.5563 40.5533 65.5563 41.58V47H63.0563V41.2C63.0563 40.2667 62.8497 39.5667 62.4363 39.1C62.023 38.62 61.4297 38.38 60.6563 38.38C59.803 38.38 59.123 38.6533 58.6163 39.2C58.123 39.7467 57.8763 40.54 57.8763 41.58V47H55.3763V36.32H57.7563V37.68C58.1563 37.2 58.6563 36.8333 59.2563 36.58C59.8563 36.3267 60.523 36.2 61.2563 36.2C62.0563 36.2 62.763 36.3533 63.3763 36.66C64.003 36.9533 64.4963 37.3933 64.8563 37.98C65.2963 37.42 65.863 36.9867 66.5563 36.68C67.2497 36.36 68.0163 36.2 68.8563 36.2ZM86.771 36.32V47H84.391V45.64C83.991 46.12 83.491 46.4933 82.891 46.76C82.291 47.0133 81.6443 47.14 80.951 47.14C79.5243 47.14 78.3977 46.7467 77.571 45.96C76.7577 45.16 76.351 43.98 76.351 42.42V36.32H78.851V42.08C78.851 43.04 79.0643 43.76 79.491 44.24C79.931 44.7067 80.551 44.94 81.351 44.94C82.2443 44.94 82.951 44.6667 83.471 44.12C84.0043 43.56 84.271 42.76 84.271 41.72V36.32H86.771ZM96.1043 36.2C97.451 36.2 98.531 36.5933 99.3443 37.38C100.158 38.1667 100.564 39.3333 100.564 40.88V47H98.0643V41.2C98.0643 40.2667 97.8443 39.5667 97.4043 39.1C96.9643 38.62 96.3376 38.38 95.5243 38.38C94.6043 38.38 93.8776 38.66 93.3443 39.22C92.811 39.7667 92.5443 40.56 92.5443 41.6V47H90.0443V36.32H92.4243V37.7C92.8376 37.2067 93.3576 36.8333 93.9843 36.58C94.611 36.3267 95.3176 36.2 96.1043 36.2ZM103.736 36.32H106.236V47H103.736V36.32ZM104.996 34.56C104.542 34.56 104.162 34.42 103.856 34.14C103.549 33.8467 103.396 33.4867 103.396 33.06C103.396 32.6333 103.549 32.28 103.856 32C104.162 31.7067 104.542 31.56 104.996 31.56C105.449 31.56 105.829 31.7 106.136 31.98C106.442 32.2467 106.596 32.5867 106.596 33C106.596 33.44 106.442 33.8133 106.136 34.12C105.842 34.4133 105.462 34.56 104.996 34.56ZM114.417 47.14C113.31 47.14 112.317 46.9067 111.437 46.44C110.557 45.9733 109.87 45.3267 109.377 44.5C108.884 43.66 108.637 42.7133 108.637 41.66C108.637 40.6067 108.884 39.6667 109.377 38.84C109.87 38.0133 110.55 37.3667 111.417 36.9C112.297 36.4333 113.297 36.2 114.417 36.2C115.47 36.2 116.39 36.4133 117.177 36.84C117.977 37.2667 118.577 37.88 118.977 38.68L117.057 39.8C116.75 39.3067 116.364 38.94 115.897 38.7C115.444 38.4467 114.944 38.32 114.397 38.32C113.464 38.32 112.69 38.6267 112.077 39.24C111.464 39.84 111.157 40.6467 111.157 41.66C111.157 42.6733 111.457 43.4867 112.057 44.1C112.67 44.7 113.45 45 114.397 45C114.944 45 115.444 44.88 115.897 44.64C116.364 44.3867 116.75 44.0133 117.057 43.52L118.977 44.64C118.564 45.44 117.957 46.06 117.157 46.5C116.37 46.9267 115.457 47.14 114.417 47.14ZM125.218 36.2C126.791 36.2 127.991 36.58 128.818 37.34C129.658 38.0867 130.078 39.22 130.078 40.74V47H127.718V45.7C127.411 46.1667 126.971 46.5267 126.398 46.78C125.838 47.02 125.158 47.14 124.358 47.14C123.558 47.14 122.858 47.0067 122.258 46.74C121.658 46.46 121.191 46.08 120.858 45.6C120.538 45.1067 120.378 44.5533 120.378 43.94C120.378 42.98 120.731 42.2133 121.438 41.64C122.158 41.0533 123.285 40.76 124.818 40.76H127.578V40.6C127.578 39.8533 127.351 39.28 126.898 38.88C126.458 38.48 125.798 38.28 124.918 38.28C124.318 38.28 123.725 38.3733 123.138 38.56C122.565 38.7467 122.078 39.0067 121.678 39.34L120.698 37.52C121.258 37.0933 121.931 36.7667 122.718 36.54C123.505 36.3133 124.338 36.2 125.218 36.2ZM124.878 45.32C125.505 45.32 126.058 45.18 126.538 44.9C127.031 44.6067 127.378 44.1933 127.578 43.66V42.42H124.998C123.558 42.42 122.838 42.8933 122.838 43.84C122.838 44.2933 123.018 44.6533 123.378 44.92C123.738 45.1867 124.238 45.32 124.878 45.32ZM139.706 46.42C139.413 46.66 139.053 46.84 138.626 46.96C138.213 47.08 137.773 47.14 137.306 47.14C136.133 47.14 135.226 46.8333 134.586 46.22C133.946 45.6067 133.626 44.7133 133.626 43.54V38.4H131.866V36.4H133.626V33.96H136.126V36.4H138.986V38.4H136.126V43.48C136.126 44 136.253 44.4 136.506 44.68C136.76 44.9467 137.126 45.08 137.606 45.08C138.166 45.08 138.633 44.9333 139.006 44.64L139.706 46.42ZM141.763 36.32H144.263V47H141.763V36.32ZM143.023 34.56C142.57 34.56 142.19 34.42 141.883 34.14C141.576 33.8467 141.423 33.4867 141.423 33.06C141.423 32.6333 141.576 32.28 141.883 32C142.19 31.7067 142.57 31.56 143.023 31.56C143.476 31.56 143.856 31.7 144.163 31.98C144.47 32.2467 144.623 32.5867 144.623 33C144.623 33.44 144.47 33.8133 144.163 34.12C143.87 34.4133 143.49 34.56 143.023 34.56ZM152.344 47.14C151.264 47.14 150.291 46.9067 149.424 46.44C148.558 45.9733 147.878 45.3267 147.384 44.5C146.904 43.66 146.664 42.7133 146.664 41.66C146.664 40.6067 146.904 39.6667 147.384 38.84C147.878 38.0133 148.558 37.3667 149.424 36.9C150.291 36.4333 151.264 36.2 152.344 36.2C153.438 36.2 154.418 36.4333 155.284 36.9C156.151 37.3667 156.824 38.0133 157.304 38.84C157.798 39.6667 158.044 40.6067 158.044 41.66C158.044 42.7133 157.798 43.66 157.304 44.5C156.824 45.3267 156.151 45.9733 155.284 46.44C154.418 46.9067 153.438 47.14 152.344 47.14ZM152.344 45C153.264 45 154.024 44.6933 154.624 44.08C155.224 43.4667 155.524 42.66 155.524 41.66C155.524 40.66 155.224 39.8533 154.624 39.24C154.024 38.6267 153.264 38.32 152.344 38.32C151.424 38.32 150.664 38.6267 150.064 39.24C149.478 39.8533 149.184 40.66 149.184 41.66C149.184 42.66 149.478 43.4667 150.064 44.08C150.664 44.6933 151.424 45 152.344 45ZM166.495 36.2C167.842 36.2 168.922 36.5933 169.735 37.38C170.548 38.1667 170.955 39.3333 170.955 40.88V47H168.455V41.2C168.455 40.2667 168.235 39.5667 167.795 39.1C167.355 38.62 166.728 38.38 165.915 38.38C164.995 38.38 164.268 38.66 163.735 39.22C163.202 39.7667 162.935 40.56 162.935 41.6V47H160.435V36.32H162.815V37.7C163.228 37.2067 163.748 36.8333 164.375 36.58C165.002 36.3267 165.708 36.2 166.495 36.2ZM183.734 36.2C185.307 36.2 186.507 36.58 187.334 37.34C188.174 38.0867 188.594 39.22 188.594 40.74V47H186.234V45.7C185.927 46.1667 185.487 46.5267 184.914 46.78C184.354 47.02 183.674 47.14 182.874 47.14C182.074 47.14 181.374 47.0067 180.774 46.74C180.174 46.46 179.707 46.08 179.374 45.6C179.054 45.1067 178.894 44.5533 178.894 43.94C178.894 42.98 179.247 42.2133 179.954 41.64C180.674 41.0533 181.8 40.76 183.334 40.76H186.094V40.6C186.094 39.8533 185.867 39.28 185.414 38.88C184.974 38.48 184.314 38.28 183.434 38.28C182.834 38.28 182.24 38.3733 181.654 38.56C181.08 38.7467 180.594 39.0067 180.194 39.34L179.214 37.52C179.774 37.0933 180.447 36.7667 181.234 36.54C182.02 36.3133 182.854 36.2 183.734 36.2ZM183.394 45.32C184.02 45.32 184.574 45.18 185.054 44.9C185.547 44.6067 185.894 44.1933 186.094 43.66V42.42H183.514C182.074 42.42 181.354 42.8933 181.354 43.84C181.354 44.2933 181.534 44.6533 181.894 44.92C182.254 45.1867 182.754 45.32 183.394 45.32ZM191.802 36.32H194.302V47H191.802V36.32ZM193.062 34.56C192.609 34.56 192.229 34.42 191.922 34.14C191.615 33.8467 191.462 33.4867 191.462 33.06C191.462 32.6333 191.615 32.28 191.922 32C192.229 31.7067 192.609 31.56 193.062 31.56C193.515 31.56 193.895 31.7 194.202 31.98C194.509 32.2467 194.662 32.5867 194.662 33C194.662 33.44 194.509 33.8133 194.202 34.12C193.909 34.4133 193.529 34.56 193.062 34.56ZM208.043 32.16V47H205.643V45.62C205.23 46.1267 204.717 46.5067 204.103 46.76C203.503 47.0133 202.837 47.14 202.103 47.14C201.077 47.14 200.15 46.9133 199.323 46.46C198.51 46.0067 197.87 45.3667 197.403 44.54C196.937 43.7 196.703 42.74 196.703 41.66C196.703 40.58 196.937 39.6267 197.403 38.8C197.87 37.9733 198.51 37.3333 199.323 36.88C200.15 36.4267 201.077 36.2 202.103 36.2C202.81 36.2 203.457 36.32 204.043 36.56C204.63 36.8 205.13 37.16 205.543 37.64V32.16H208.043ZM202.403 45C203.003 45 203.543 44.8667 204.023 44.6C204.503 44.32 204.883 43.9267 205.163 43.42C205.443 42.9133 205.583 42.3267 205.583 41.66C205.583 40.9933 205.443 40.4067 205.163 39.9C204.883 39.3933 204.503 39.0067 204.023 38.74C203.543 38.46 203.003 38.32 202.403 38.32C201.803 38.32 201.263 38.46 200.783 38.74C200.303 39.0067 199.923 39.3933 199.643 39.9C199.363 40.4067 199.223 40.9933 199.223 41.66C199.223 42.3267 199.363 42.9133 199.643 43.42C199.923 43.9267 200.303 44.32 200.783 44.6C201.263 44.8667 201.803 45 202.403 45ZM48.897 71.14C47.817 71.14 46.8437 70.9067 45.977 70.44C45.1104 69.9733 44.4304 69.3267 43.937 68.5C43.457 67.66 43.217 66.7133 43.217 65.66C43.217 64.6067 43.457 63.6667 43.937 62.84C44.4304 62.0133 45.1104 61.3667 45.977 60.9C46.8437 60.4333 47.817 60.2 48.897 60.2C49.9904 60.2 50.9704 60.4333 51.837 60.9C52.7037 61.3667 53.377 62.0133 53.857 62.84C54.3504 63.6667 54.597 64.6067 54.597 65.66C54.597 66.7133 54.3504 67.66 53.857 68.5C53.377 69.3267 52.7037 69.9733 51.837 70.44C50.9704 70.9067 49.9904 71.14 48.897 71.14ZM48.897 69C49.817 69 50.577 68.6933 51.177 68.08C51.777 67.4667 52.077 66.66 52.077 65.66C52.077 64.66 51.777 63.8533 51.177 63.24C50.577 62.6267 49.817 62.32 48.897 62.32C47.977 62.32 47.217 62.6267 46.617 63.24C46.0304 63.8533 45.737 64.66 45.737 65.66C45.737 66.66 46.0304 67.4667 46.617 68.08C47.217 68.6933 47.977 69 48.897 69ZM61.3277 58.04C60.2743 58.04 59.7477 58.6133 59.7477 59.76V60.4H62.6877V62.4H59.8277V71H57.3277V62.4H55.5677V60.4H57.3277V59.72C57.3277 58.5733 57.661 57.6733 58.3277 57.02C58.9943 56.3533 59.9343 56.02 61.1477 56.02C62.1077 56.02 62.861 56.2133 63.4077 56.6L62.7077 58.48C62.281 58.1867 61.821 58.04 61.3277 58.04ZM80.3578 56.16V71H77.9578V69.62C77.5445 70.1267 77.0311 70.5067 76.4178 70.76C75.8178 71.0133 75.1511 71.14 74.4178 71.14C73.3911 71.14 72.4645 70.9133 71.6378 70.46C70.8245 70.0067 70.1845 69.3667 69.7178 68.54C69.2511 67.7 69.0178 66.74 69.0178 65.66C69.0178 64.58 69.2511 63.6267 69.7178 62.8C70.1845 61.9733 70.8245 61.3333 71.6378 60.88C72.4645 60.4267 73.3911 60.2 74.4178 60.2C75.1245 60.2 75.7711 60.32 76.3578 60.56C76.9445 60.8 77.4445 61.16 77.8578 61.64V56.16H80.3578ZM74.7178 69C75.3178 69 75.8578 68.8667 76.3378 68.6C76.8178 68.32 77.1978 67.9267 77.4778 67.42C77.7578 66.9133 77.8978 66.3267 77.8978 65.66C77.8978 64.9933 77.7578 64.4067 77.4778 63.9C77.1978 63.3933 76.8178 63.0067 76.3378 62.74C75.8578 62.46 75.3178 62.32 74.7178 62.32C74.1178 62.32 73.5778 62.46 73.0978 62.74C72.6178 63.0067 72.2378 63.3933 71.9578 63.9C71.6778 64.4067 71.5378 64.9933 71.5378 65.66C71.5378 66.3267 71.6778 66.9133 71.9578 67.42C72.2378 67.9267 72.6178 68.32 73.0978 68.6C73.5778 68.8667 74.1178 69 74.7178 69ZM93.6683 65.72C93.6683 65.8933 93.6549 66.14 93.6283 66.46H85.2483C85.3949 67.2467 85.7749 67.8733 86.3883 68.34C87.0149 68.7933 87.7883 69.02 88.7083 69.02C89.8816 69.02 90.8483 68.6333 91.6083 67.86L92.9483 69.4C92.4683 69.9733 91.8616 70.4067 91.1283 70.7C90.3949 70.9933 89.5683 71.14 88.6483 71.14C87.4749 71.14 86.4416 70.9067 85.5483 70.44C84.6549 69.9733 83.9616 69.3267 83.4683 68.5C82.9883 67.66 82.7483 66.7133 82.7483 65.66C82.7483 64.62 82.9816 63.6867 83.4483 62.86C83.9283 62.02 84.5883 61.3667 85.4283 60.9C86.2683 60.4333 87.2149 60.2 88.2683 60.2C89.3083 60.2 90.2349 60.4333 91.0483 60.9C91.8749 61.3533 92.5149 62 92.9683 62.84C93.4349 63.6667 93.6683 64.6267 93.6683 65.72ZM88.2683 62.2C87.4683 62.2 86.7883 62.44 86.2283 62.92C85.6816 63.3867 85.3483 64.0133 85.2283 64.8H91.2883C91.1816 64.0267 90.8549 63.4 90.3083 62.92C89.7616 62.44 89.0816 62.2 88.2683 62.2ZM101.99 60.2C103.03 60.2 103.956 60.4267 104.77 60.88C105.596 61.3333 106.243 61.9733 106.71 62.8C107.176 63.6267 107.41 64.58 107.41 65.66C107.41 66.74 107.176 67.7 106.71 68.54C106.243 69.3667 105.596 70.0067 104.77 70.46C103.956 70.9133 103.03 71.14 101.99 71.14C100.55 71.14 99.4097 70.66 98.5697 69.7V74.88H96.0697V60.32H98.4497V61.72C98.863 61.2133 99.3697 60.8333 99.9697 60.58C100.583 60.3267 101.256 60.2 101.99 60.2ZM101.71 69C102.63 69 103.383 68.6933 103.97 68.08C104.57 67.4667 104.87 66.66 104.87 65.66C104.87 64.66 104.57 63.8533 103.97 63.24C103.383 62.6267 102.63 62.32 101.71 62.32C101.11 62.32 100.57 62.46 100.09 62.74C99.6097 63.0067 99.2297 63.3933 98.9497 63.9C98.6697 64.4067 98.5297 64.9933 98.5297 65.66C98.5297 66.3267 98.6697 66.9133 98.9497 67.42C99.2297 67.9267 99.6097 68.32 100.09 68.6C100.57 68.8667 101.11 69 101.71 69ZM112.161 61.88C112.881 60.76 114.147 60.2 115.961 60.2V62.58C115.747 62.54 115.554 62.52 115.381 62.52C114.407 62.52 113.647 62.8067 113.101 63.38C112.554 63.94 112.281 64.7533 112.281 65.82V71H109.781V60.32H112.161V61.88ZM128.024 65.72C128.024 65.8933 128.01 66.14 127.984 66.46H119.604C119.75 67.2467 120.13 67.8733 120.744 68.34C121.37 68.7933 122.144 69.02 123.064 69.02C124.237 69.02 125.204 68.6333 125.964 67.86L127.304 69.4C126.824 69.9733 126.217 70.4067 125.484 70.7C124.75 70.9933 123.924 71.14 123.004 71.14C121.83 71.14 120.797 70.9067 119.904 70.44C119.01 69.9733 118.317 69.3267 117.824 68.5C117.344 67.66 117.104 66.7133 117.104 65.66C117.104 64.62 117.337 63.6867 117.804 62.86C118.284 62.02 118.944 61.3667 119.784 60.9C120.624 60.4333 121.57 60.2 122.624 60.2C123.664 60.2 124.59 60.4333 125.404 60.9C126.23 61.3533 126.87 62 127.324 62.84C127.79 63.6667 128.024 64.6267 128.024 65.72ZM122.624 62.2C121.824 62.2 121.144 62.44 120.584 62.92C120.037 63.3867 119.704 64.0133 119.584 64.8H125.644C125.537 64.0267 125.21 63.4 124.664 62.92C124.117 62.44 123.437 62.2 122.624 62.2ZM133.725 71.14C132.858 71.14 132.012 71.0267 131.185 70.8C130.358 70.5733 129.698 70.2867 129.205 69.94L130.165 68.04C130.645 68.36 131.218 68.62 131.885 68.82C132.565 69.0067 133.232 69.1 133.885 69.1C135.378 69.1 136.125 68.7067 136.125 67.92C136.125 67.5467 135.932 67.2867 135.545 67.14C135.172 66.9933 134.565 66.8533 133.725 66.72C132.845 66.5867 132.125 66.4333 131.565 66.26C131.018 66.0867 130.538 65.7867 130.125 65.36C129.725 64.92 129.525 64.3133 129.525 63.54C129.525 62.5267 129.945 61.72 130.785 61.12C131.638 60.5067 132.785 60.2 134.225 60.2C134.958 60.2 135.692 60.2867 136.425 60.46C137.158 60.62 137.758 60.84 138.225 61.12L137.265 63.02C136.358 62.4867 135.338 62.22 134.205 62.22C133.472 62.22 132.912 62.3333 132.525 62.56C132.152 62.7733 131.965 63.06 131.965 63.42C131.965 63.82 132.165 64.1067 132.565 64.28C132.978 64.44 133.612 64.5933 134.465 64.74C135.318 64.8733 136.018 65.0267 136.565 65.2C137.112 65.3733 137.578 65.6667 137.965 66.08C138.365 66.4933 138.565 67.08 138.565 67.84C138.565 68.84 138.132 69.64 137.265 70.24C136.398 70.84 135.218 71.14 133.725 71.14ZM144.018 71.14C143.151 71.14 142.305 71.0267 141.478 70.8C140.651 70.5733 139.991 70.2867 139.498 69.94L140.458 68.04C140.938 68.36 141.511 68.62 142.178 68.82C142.858 69.0067 143.525 69.1 144.178 69.1C145.671 69.1 146.418 68.7067 146.418 67.92C146.418 67.5467 146.225 67.2867 145.838 67.14C145.465 66.9933 144.858 66.8533 144.018 66.72C143.138 66.5867 142.418 66.4333 141.858 66.26C141.311 66.0867 140.831 65.7867 140.418 65.36C140.018 64.92 139.818 64.3133 139.818 63.54C139.818 62.5267 140.238 61.72 141.078 61.12C141.931 60.5067 143.078 60.2 144.518 60.2C145.251 60.2 145.985 60.2867 146.718 60.46C147.451 60.62 148.051 60.84 148.518 61.12L147.558 63.02C146.651 62.4867 145.631 62.22 144.498 62.22C143.765 62.22 143.205 62.3333 142.818 62.56C142.445 62.7733 142.258 63.06 142.258 63.42C142.258 63.82 142.458 64.1067 142.858 64.28C143.271 64.44 143.905 64.5933 144.758 64.74C145.611 64.8733 146.311 65.0267 146.858 65.2C147.405 65.3733 147.871 65.6667 148.258 66.08C148.658 66.4933 148.858 67.08 148.858 67.84C148.858 68.84 148.425 69.64 147.558 70.24C146.691 70.84 145.511 71.14 144.018 71.14ZM161.051 65.72C161.051 65.8933 161.038 66.14 161.011 66.46H152.631C152.778 67.2467 153.158 67.8733 153.771 68.34C154.398 68.7933 155.171 69.02 156.091 69.02C157.264 69.02 158.231 68.6333 158.991 67.86L160.331 69.4C159.851 69.9733 159.244 70.4067 158.511 70.7C157.778 70.9933 156.951 71.14 156.031 71.14C154.858 71.14 153.824 70.9067 152.931 70.44C152.038 69.9733 151.344 69.3267 150.851 68.5C150.371 67.66 150.131 66.7133 150.131 65.66C150.131 64.62 150.364 63.6867 150.831 62.86C151.311 62.02 151.971 61.3667 152.811 60.9C153.651 60.4333 154.598 60.2 155.651 60.2C156.691 60.2 157.618 60.4333 158.431 60.9C159.258 61.3533 159.898 62 160.351 62.84C160.818 63.6667 161.051 64.6267 161.051 65.72ZM155.651 62.2C154.851 62.2 154.171 62.44 153.611 62.92C153.064 63.3867 152.731 64.0133 152.611 64.8H158.671C158.564 64.0267 158.238 63.4 157.691 62.92C157.144 62.44 156.464 62.2 155.651 62.2ZM173.913 56.16V71H171.513V69.62C171.099 70.1267 170.586 70.5067 169.973 70.76C169.373 71.0133 168.706 71.14 167.973 71.14C166.946 71.14 166.019 70.9133 165.193 70.46C164.379 70.0067 163.739 69.3667 163.273 68.54C162.806 67.7 162.573 66.74 162.573 65.66C162.573 64.58 162.806 63.6267 163.273 62.8C163.739 61.9733 164.379 61.3333 165.193 60.88C166.019 60.4267 166.946 60.2 167.973 60.2C168.679 60.2 169.326 60.32 169.913 60.56C170.499 60.8 170.999 61.16 171.413 61.64V56.16H173.913ZM168.273 69C168.873 69 169.413 68.8667 169.893 68.6C170.373 68.32 170.753 67.9267 171.033 67.42C171.313 66.9133 171.453 66.3267 171.453 65.66C171.453 64.9933 171.313 64.4067 171.033 63.9C170.753 63.3933 170.373 63.0067 169.893 62.74C169.413 62.46 168.873 62.32 168.273 62.32C167.673 62.32 167.133 62.46 166.653 62.74C166.173 63.0067 165.793 63.3933 165.513 63.9C165.233 64.4067 165.093 64.9933 165.093 65.66C165.093 66.3267 165.233 66.9133 165.513 67.42C165.793 67.9267 166.173 68.32 166.653 68.6C167.133 68.8667 167.673 69 168.273 69ZM52.845 84.2C54.4183 84.2 55.6183 84.58 56.445 85.34C57.285 86.0867 57.705 87.22 57.705 88.74V95H55.345V93.7C55.0383 94.1667 54.5983 94.5267 54.025 94.78C53.465 95.02 52.785 95.14 51.985 95.14C51.185 95.14 50.485 95.0067 49.885 94.74C49.285 94.46 48.8183 94.08 48.485 93.6C48.165 93.1067 48.005 92.5533 48.005 91.94C48.005 90.98 48.3583 90.2133 49.065 89.64C49.785 89.0533 50.9117 88.76 52.445 88.76H55.205V88.6C55.205 87.8533 54.9783 87.28 54.525 86.88C54.085 86.48 53.425 86.28 52.545 86.28C51.945 86.28 51.3517 86.3733 50.765 86.56C50.1917 86.7467 49.705 87.0067 49.305 87.34L48.325 85.52C48.885 85.0933 49.5583 84.7667 50.345 84.54C51.1317 84.3133 51.965 84.2 52.845 84.2ZM52.505 93.32C53.1317 93.32 53.685 93.18 54.165 92.9C54.6583 92.6067 55.005 92.1933 55.205 91.66V90.42H52.625C51.185 90.42 50.465 90.8933 50.465 91.84C50.465 92.2933 50.645 92.6533 51.005 92.92C51.365 93.1867 51.865 93.32 52.505 93.32ZM71.4711 80.16V95H69.0711V93.62C68.6578 94.1267 68.1444 94.5067 67.5311 94.76C66.9311 95.0133 66.2644 95.14 65.5311 95.14C64.5044 95.14 63.5778 94.9133 62.7511 94.46C61.9378 94.0067 61.2978 93.3667 60.8311 92.54C60.3644 91.7 60.1311 90.74 60.1311 89.66C60.1311 88.58 60.3644 87.6267 60.8311 86.8C61.2978 85.9733 61.9378 85.3333 62.7511 84.88C63.5778 84.4267 64.5044 84.2 65.5311 84.2C66.2378 84.2 66.8844 84.32 67.4711 84.56C68.0578 84.8 68.5578 85.16 68.9711 85.64V80.16H71.4711ZM65.8311 93C66.4311 93 66.9711 92.8667 67.4511 92.6C67.9311 92.32 68.3111 91.9267 68.5911 91.42C68.8711 90.9133 69.0111 90.3267 69.0111 89.66C69.0111 88.9933 68.8711 88.4067 68.5911 87.9C68.3111 87.3933 67.9311 87.0067 67.4511 86.74C66.9711 86.46 66.4311 86.32 65.8311 86.32C65.2311 86.32 64.6911 86.46 64.2111 86.74C63.7311 87.0067 63.3511 87.3933 63.0711 87.9C62.7911 88.4067 62.6511 88.9933 62.6511 89.66C62.6511 90.3267 62.7911 90.9133 63.0711 91.42C63.3511 91.9267 63.7311 92.32 64.2111 92.6C64.6911 92.8667 65.2311 93 65.8311 93ZM79.5416 95.14C78.4616 95.14 77.4882 94.9067 76.6216 94.44C75.7549 93.9733 75.0749 93.3267 74.5816 92.5C74.1016 91.66 73.8616 90.7133 73.8616 89.66C73.8616 88.6067 74.1016 87.6667 74.5816 86.84C75.0749 86.0133 75.7549 85.3667 76.6216 84.9C77.4882 84.4333 78.4616 84.2 79.5416 84.2C80.6349 84.2 81.6149 84.4333 82.4816 84.9C83.3482 85.3667 84.0216 86.0133 84.5016 86.84C84.9949 87.6667 85.2416 88.6067 85.2416 89.66C85.2416 90.7133 84.9949 91.66 84.5016 92.5C84.0216 93.3267 83.3482 93.9733 82.4816 94.44C81.6149 94.9067 80.6349 95.14 79.5416 95.14ZM79.5416 93C80.4616 93 81.2216 92.6933 81.8216 92.08C82.4216 91.4667 82.7216 90.66 82.7216 89.66C82.7216 88.66 82.4216 87.8533 81.8216 87.24C81.2216 86.6267 80.4616 86.32 79.5416 86.32C78.6216 86.32 77.8616 86.6267 77.2616 87.24C76.6749 87.8533 76.3816 88.66 76.3816 89.66C76.3816 90.66 76.6749 91.4667 77.2616 92.08C77.8616 92.6933 78.6216 93 79.5416 93ZM87.6322 80.16H90.1322V95H87.6322V80.16ZM103.453 89.72C103.453 89.8933 103.44 90.14 103.413 90.46H95.0334C95.1801 91.2467 95.5601 91.8733 96.1734 92.34C96.8001 92.7933 97.5734 93.02 98.4934 93.02C99.6668 93.02 100.633 92.6333 101.393 91.86L102.733 93.4C102.253 93.9733 101.647 94.4067 100.913 94.7C100.18 94.9933 99.3534 95.14 98.4334 95.14C97.2601 95.14 96.2268 94.9067 95.3334 94.44C94.4401 93.9733 93.7468 93.3267 93.2534 92.5C92.7734 91.66 92.5334 90.7133 92.5334 89.66C92.5334 88.62 92.7668 87.6867 93.2334 86.86C93.7134 86.02 94.3734 85.3667 95.2134 84.9C96.0534 84.4333 97.0001 84.2 98.0534 84.2C99.0934 84.2 100.02 84.4333 100.833 84.9C101.66 85.3533 102.3 86 102.753 86.84C103.22 87.6667 103.453 88.6267 103.453 89.72ZM98.0534 86.2C97.2534 86.2 96.5734 86.44 96.0134 86.92C95.4668 87.3867 95.1334 88.0133 95.0134 88.8H101.073C100.967 88.0267 100.64 87.4 100.093 86.92C99.5468 86.44 98.8668 86.2 98.0534 86.2ZM109.155 95.14C108.288 95.14 107.442 95.0267 106.615 94.8C105.788 94.5733 105.128 94.2867 104.635 93.94L105.595 92.04C106.075 92.36 106.648 92.62 107.315 92.82C107.995 93.0067 108.662 93.1 109.315 93.1C110.808 93.1 111.555 92.7067 111.555 91.92C111.555 91.5467 111.362 91.2867 110.975 91.14C110.602 90.9933 109.995 90.8533 109.155 90.72C108.275 90.5867 107.555 90.4333 106.995 90.26C106.448 90.0867 105.968 89.7867 105.555 89.36C105.155 88.92 104.955 88.3133 104.955 87.54C104.955 86.5267 105.375 85.72 106.215 85.12C107.068 84.5067 108.215 84.2 109.655 84.2C110.388 84.2 111.122 84.2867 111.855 84.46C112.588 84.62 113.188 84.84 113.655 85.12L112.695 87.02C111.788 86.4867 110.768 86.22 109.635 86.22C108.902 86.22 108.342 86.3333 107.955 86.56C107.582 86.7733 107.395 87.06 107.395 87.42C107.395 87.82 107.595 88.1067 107.995 88.28C108.408 88.44 109.042 88.5933 109.895 88.74C110.748 88.8733 111.448 89.0267 111.995 89.2C112.542 89.3733 113.008 89.6667 113.395 90.08C113.795 90.4933 113.995 91.08 113.995 91.84C113.995 92.84 113.562 93.64 112.695 94.24C111.828 94.84 110.648 95.14 109.155 95.14ZM121.048 95.14C119.941 95.14 118.948 94.9067 118.068 94.44C117.188 93.9733 116.501 93.3267 116.008 92.5C115.514 91.66 115.268 90.7133 115.268 89.66C115.268 88.6067 115.514 87.6667 116.008 86.84C116.501 86.0133 117.181 85.3667 118.048 84.9C118.928 84.4333 119.928 84.2 121.048 84.2C122.101 84.2 123.021 84.4133 123.808 84.84C124.608 85.2667 125.208 85.88 125.608 86.68L123.688 87.8C123.381 87.3067 122.994 86.94 122.528 86.7C122.074 86.4467 121.574 86.32 121.028 86.32C120.094 86.32 119.321 86.6267 118.708 87.24C118.094 87.84 117.788 88.6467 117.788 89.66C117.788 90.6733 118.088 91.4867 118.688 92.1C119.301 92.7 120.081 93 121.028 93C121.574 93 122.074 92.88 122.528 92.64C122.994 92.3867 123.381 92.0133 123.688 91.52L125.608 92.64C125.194 93.44 124.588 94.06 123.788 94.5C123.001 94.9267 122.088 95.14 121.048 95.14ZM137.653 89.72C137.653 89.8933 137.639 90.14 137.613 90.46H129.233C129.379 91.2467 129.759 91.8733 130.373 92.34C130.999 92.7933 131.773 93.02 132.693 93.02C133.866 93.02 134.833 92.6333 135.593 91.86L136.933 93.4C136.453 93.9733 135.846 94.4067 135.113 94.7C134.379 94.9933 133.553 95.14 132.633 95.14C131.459 95.14 130.426 94.9067 129.533 94.44C128.639 93.9733 127.946 93.3267 127.453 92.5C126.973 91.66 126.733 90.7133 126.733 89.66C126.733 88.62 126.966 87.6867 127.433 86.86C127.913 86.02 128.573 85.3667 129.413 84.9C130.253 84.4333 131.199 84.2 132.253 84.2C133.293 84.2 134.219 84.4333 135.033 84.9C135.859 85.3533 136.499 86 136.953 86.84C137.419 87.6667 137.653 88.6267 137.653 89.72ZM132.253 86.2C131.453 86.2 130.773 86.44 130.213 86.92C129.666 87.3867 129.333 88.0133 129.213 88.8H135.273C135.166 88.0267 134.839 87.4 134.293 86.92C133.746 86.44 133.066 86.2 132.253 86.2ZM146.114 84.2C147.461 84.2 148.541 84.5933 149.354 85.38C150.167 86.1667 150.574 87.3333 150.574 88.88V95H148.074V89.2C148.074 88.2667 147.854 87.5667 147.414 87.1C146.974 86.62 146.347 86.38 145.534 86.38C144.614 86.38 143.887 86.66 143.354 87.22C142.821 87.7667 142.554 88.56 142.554 89.6V95H140.054V84.32H142.434V85.7C142.847 85.2067 143.367 84.8333 143.994 84.58C144.621 84.3267 145.327 84.2 146.114 84.2ZM160.165 94.42C159.872 94.66 159.512 94.84 159.085 94.96C158.672 95.08 158.232 95.14 157.765 95.14C156.592 95.14 155.685 94.8333 155.045 94.22C154.405 93.6067 154.085 92.7133 154.085 91.54V86.4H152.325V84.4H154.085V81.96H156.585V84.4H159.445V86.4H156.585V91.48C156.585 92 156.712 92.4 156.965 92.68C157.219 92.9467 157.585 93.08 158.065 93.08C158.625 93.08 159.092 92.9333 159.465 92.64L160.165 94.42ZM165.522 95.14C164.655 95.14 163.809 95.0267 162.982 94.8C162.155 94.5733 161.495 94.2867 161.002 93.94L161.962 92.04C162.442 92.36 163.015 92.62 163.682 92.82C164.362 93.0067 165.029 93.1 165.682 93.1C167.175 93.1 167.922 92.7067 167.922 91.92C167.922 91.5467 167.729 91.2867 167.342 91.14C166.969 90.9933 166.362 90.8533 165.522 90.72C164.642 90.5867 163.922 90.4333 163.362 90.26C162.815 90.0867 162.335 89.7867 161.922 89.36C161.522 88.92 161.322 88.3133 161.322 87.54C161.322 86.5267 161.742 85.72 162.582 85.12C163.435 84.5067 164.582 84.2 166.022 84.2C166.755 84.2 167.489 84.2867 168.222 84.46C168.955 84.62 169.555 84.84 170.022 85.12L169.062 87.02C168.155 86.4867 167.135 86.22 166.002 86.22C165.269 86.22 164.709 86.3333 164.322 86.56C163.949 86.7733 163.762 87.06 163.762 87.42C163.762 87.82 163.962 88.1067 164.362 88.28C164.775 88.44 165.409 88.5933 166.262 88.74C167.115 88.8733 167.815 89.0267 168.362 89.2C168.909 89.3733 169.375 89.6667 169.762 90.08C170.162 90.4933 170.362 91.08 170.362 91.84C170.362 92.84 169.929 93.64 169.062 94.24C168.195 94.84 167.015 95.14 165.522 95.14Z" fill="#4B525C"/>
</g>
<path d="M46.126 18.76H39.126L37.746 22H35.066L41.366 8H43.926L50.246 22H47.526L46.126 18.76ZM45.266 16.72L42.626 10.6L40.006 16.72H45.266ZM63.2338 11.2C64.2738 11.2 65.2005 11.4267 66.0138 11.88C66.8405 12.3333 67.4872 12.9733 67.9538 13.8C68.4205 14.6267 68.6538 15.58 68.6538 16.66C68.6538 17.74 68.4205 18.7 67.9538 19.54C67.4872 20.3667 66.8405 21.0067 66.0138 21.46C65.2005 21.9133 64.2738 22.14 63.2338 22.14C61.7938 22.14 60.6538 21.66 59.8138 20.7V25.88H57.3138V11.32H59.6938V12.72C60.1072 12.2133 60.6138 11.8333 61.2138 11.58C61.8272 11.3267 62.5005 11.2 63.2338 11.2ZM62.9538 20C63.8738 20 64.6272 19.6933 65.2138 19.08C65.8138 18.4667 66.1138 17.66 66.1138 16.66C66.1138 15.66 65.8138 14.8533 65.2138 14.24C64.6272 13.6267 63.8738 13.32 62.9538 13.32C62.3538 13.32 61.8138 13.46 61.3338 13.74C60.8538 14.0067 60.4738 14.3933 60.1938 14.9C59.9138 15.4067 59.7738 15.9933 59.7738 16.66C59.7738 17.3267 59.9138 17.9133 60.1938 18.42C60.4738 18.9267 60.8538 19.32 61.3338 19.6C61.8138 19.8667 62.3538 20 62.9538 20ZM71.0248 7.16H73.5248V22H71.0248V7.16ZM80.886 11.2C82.4593 11.2 83.6593 11.58 84.486 12.34C85.326 13.0867 85.746 14.22 85.746 15.74V22H83.386V20.7C83.0793 21.1667 82.6393 21.5267 82.066 21.78C81.506 22.02 80.826 22.14 80.026 22.14C79.226 22.14 78.526 22.0067 77.926 21.74C77.326 21.46 76.8593 21.08 76.526 20.6C76.206 20.1067 76.046 19.5533 76.046 18.94C76.046 17.98 76.3993 17.2133 77.106 16.64C77.826 16.0533 78.9527 15.76 80.486 15.76H83.246V15.6C83.246 14.8533 83.0193 14.28 82.566 13.88C82.126 13.48 81.466 13.28 80.586 13.28C79.986 13.28 79.3927 13.3733 78.806 13.56C78.2327 13.7467 77.746 14.0067 77.346 14.34L76.366 12.52C76.926 12.0933 77.5993 11.7667 78.386 11.54C79.1727 11.3133 80.006 11.2 80.886 11.2ZM80.546 20.32C81.1727 20.32 81.726 20.18 82.206 19.9C82.6993 19.6067 83.046 19.1933 83.246 18.66V17.42H80.666C79.226 17.42 78.506 17.8933 78.506 18.84C78.506 19.2933 78.686 19.6533 79.046 19.92C79.406 20.1867 79.906 20.32 80.546 20.32ZM95.3745 21.42C95.0811 21.66 94.7211 21.84 94.2945 21.96C93.8811 22.08 93.4411 22.14 92.9745 22.14C91.8011 22.14 90.8945 21.8333 90.2545 21.22C89.6145 20.6067 89.2945 19.7133 89.2945 18.54V13.4H87.5345V11.4H89.2945V8.96H91.7945V11.4H94.6545V13.4H91.7945V18.48C91.7945 19 91.9211 19.4 92.1745 19.68C92.4278 19.9467 92.7945 20.08 93.2745 20.08C93.8345 20.08 94.3011 19.9333 94.6745 19.64L95.3745 21.42ZM101.771 9.04C100.718 9.04 100.191 9.61333 100.191 10.76V11.4H103.131V13.4H100.271V22H97.771V13.4H96.011V11.4H97.771V10.72C97.771 9.57333 98.1043 8.67333 98.771 8.02C99.4377 7.35333 100.378 7.02 101.591 7.02C102.551 7.02 103.304 7.21333 103.851 7.6L103.151 9.48C102.724 9.18667 102.264 9.04 101.771 9.04ZM109.458 22.14C108.378 22.14 107.404 21.9067 106.538 21.44C105.671 20.9733 104.991 20.3267 104.498 19.5C104.018 18.66 103.778 17.7133 103.778 16.66C103.778 15.6067 104.018 14.6667 104.498 13.84C104.991 13.0133 105.671 12.3667 106.538 11.9C107.404 11.4333 108.378 11.2 109.458 11.2C110.551 11.2 111.531 11.4333 112.398 11.9C113.264 12.3667 113.938 13.0133 114.418 13.84C114.911 14.6667 115.158 15.6067 115.158 16.66C115.158 17.7133 114.911 18.66 114.418 19.5C113.938 20.3267 113.264 20.9733 112.398 21.44C111.531 21.9067 110.551 22.14 109.458 22.14ZM109.458 20C110.378 20 111.138 19.6933 111.738 19.08C112.338 18.4667 112.638 17.66 112.638 16.66C112.638 15.66 112.338 14.8533 111.738 14.24C111.138 13.6267 110.378 13.32 109.458 13.32C108.538 13.32 107.778 13.6267 107.178 14.24C106.591 14.8533 106.298 15.66 106.298 16.66C106.298 17.66 106.591 18.4667 107.178 19.08C107.778 19.6933 108.538 20 109.458 20ZM119.928 12.88C120.648 11.76 121.915 11.2 123.728 11.2V13.58C123.515 13.54 123.322 13.52 123.148 13.52C122.175 13.52 121.415 13.8067 120.868 14.38C120.322 14.94 120.048 15.7533 120.048 16.82V22H117.548V11.32H119.928V12.88ZM139.329 11.2C140.676 11.2 141.742 11.5933 142.529 12.38C143.316 13.1533 143.709 14.32 143.709 15.88V22H141.209V16.2C141.209 15.2667 141.002 14.5667 140.589 14.1C140.176 13.62 139.582 13.38 138.809 13.38C137.969 13.38 137.296 13.66 136.789 14.22C136.282 14.7667 136.029 15.5533 136.029 16.58V22H133.529V16.2C133.529 15.2667 133.322 14.5667 132.909 14.1C132.496 13.62 131.902 13.38 131.129 13.38C130.276 13.38 129.596 13.6533 129.089 14.2C128.596 14.7467 128.349 15.54 128.349 16.58V22H125.849V11.32H128.229V12.68C128.629 12.2 129.129 11.8333 129.729 11.58C130.329 11.3267 130.996 11.2 131.729 11.2C132.529 11.2 133.236 11.3533 133.849 11.66C134.476 11.9533 134.969 12.3933 135.329 12.98C135.769 12.42 136.336 11.9867 137.029 11.68C137.722 11.36 138.489 11.2 139.329 11.2ZM156.771 9.04C155.718 9.04 155.191 9.61333 155.191 10.76V11.4H158.131V13.4H155.271V22H152.771V13.4H151.011V11.4H152.771V10.72C152.771 9.57333 153.104 8.67333 153.771 8.02C154.438 7.35333 155.378 7.02 156.591 7.02C157.551 7.02 158.304 7.21333 158.851 7.6L158.151 9.48C157.724 9.18667 157.264 9.04 156.771 9.04ZM164.458 22.14C163.378 22.14 162.404 21.9067 161.538 21.44C160.671 20.9733 159.991 20.3267 159.498 19.5C159.018 18.66 158.778 17.7133 158.778 16.66C158.778 15.6067 159.018 14.6667 159.498 13.84C159.991 13.0133 160.671 12.3667 161.538 11.9C162.404 11.4333 163.378 11.2 164.458 11.2C165.551 11.2 166.531 11.4333 167.398 11.9C168.264 12.3667 168.938 13.0133 169.418 13.84C169.911 14.6667 170.158 15.6067 170.158 16.66C170.158 17.7133 169.911 18.66 169.418 19.5C168.938 20.3267 168.264 20.9733 167.398 21.44C166.531 21.9067 165.551 22.14 164.458 22.14ZM164.458 20C165.378 20 166.138 19.6933 166.738 19.08C167.338 18.4667 167.638 17.66 167.638 16.66C167.638 15.66 167.338 14.8533 166.738 14.24C166.138 13.6267 165.378 13.32 164.458 13.32C163.538 13.32 162.778 13.6267 162.178 14.24C161.591 14.8533 161.298 15.66 161.298 16.66C161.298 17.66 161.591 18.4667 162.178 19.08C162.778 19.6933 163.538 20 164.458 20ZM174.928 12.88C175.648 11.76 176.915 11.2 178.728 11.2V13.58C178.515 13.54 178.322 13.52 178.148 13.52C177.175 13.52 176.415 13.8067 175.868 14.38C175.322 14.94 175.048 15.7533 175.048 16.82V22H172.548V11.32H174.928V12.88ZM15.8662 46.14C14.7595 46.14 13.7662 45.9067 12.8862 45.44C12.0062 44.9733 11.3195 44.3267 10.8262 43.5C10.3328 42.66 10.0862 41.7133 10.0862 40.66C10.0862 39.6067 10.3328 38.6667 10.8262 37.84C11.3195 37.0133 11.9995 36.3667 12.8662 35.9C13.7462 35.4333 14.7462 35.2 15.8662 35.2C16.9195 35.2 17.8395 35.4133 18.6262 35.84C19.4262 36.2667 20.0262 36.88 20.4262 37.68L18.5062 38.8C18.1995 38.3067 17.8128 37.94 17.3462 37.7C16.8928 37.4467 16.3928 37.32 15.8462 37.32C14.9128 37.32 14.1395 37.6267 13.5262 38.24C12.9128 38.84 12.6062 39.6467 12.6062 40.66C12.6062 41.6733 12.9062 42.4867 13.5062 43.1C14.1195 43.7 14.8995 44 15.8462 44C16.3928 44 16.8928 43.88 17.3462 43.64C17.8128 43.3867 18.1995 43.0133 18.5062 42.52L20.4262 43.64C20.0128 44.44 19.4062 45.06 18.6062 45.5C17.8195 45.9267 16.9062 46.14 15.8662 46.14ZM27.231 46.14C26.151 46.14 25.1777 45.9067 24.311 45.44C23.4443 44.9733 22.7643 44.3267 22.271 43.5C21.791 42.66 21.551 41.7133 21.551 40.66C21.551 39.6067 21.791 38.6667 22.271 37.84C22.7643 37.0133 23.4443 36.3667 24.311 35.9C25.1777 35.4333 26.151 35.2 27.231 35.2C28.3243 35.2 29.3043 35.4333 30.171 35.9C31.0377 36.3667 31.711 37.0133 32.191 37.84C32.6844 38.6667 32.931 39.6067 32.931 40.66C32.931 41.7133 32.6844 42.66 32.191 43.5C31.711 44.3267 31.0377 44.9733 30.171 45.44C29.3043 45.9067 28.3243 46.14 27.231 46.14ZM27.231 44C28.151 44 28.911 43.6933 29.511 43.08C30.111 42.4667 30.411 41.66 30.411 40.66C30.411 39.66 30.111 38.8533 29.511 38.24C28.911 37.6267 28.151 37.32 27.231 37.32C26.311 37.32 25.551 37.6267 24.951 38.24C24.3643 38.8533 24.071 39.66 24.071 40.66C24.071 41.66 24.3643 42.4667 24.951 43.08C25.551 43.6933 26.311 44 27.231 44ZM48.8016 35.2C50.1483 35.2 51.215 35.5933 52.0016 36.38C52.7883 37.1533 53.1816 38.32 53.1816 39.88V46H50.6816V40.2C50.6816 39.2667 50.475 38.5667 50.0616 38.1C49.6483 37.62 49.055 37.38 48.2816 37.38C47.4416 37.38 46.7683 37.66 46.2616 38.22C45.755 38.7667 45.5016 39.5533 45.5016 40.58V46H43.0016V40.2C43.0016 39.2667 42.795 38.5667 42.3816 38.1C41.9683 37.62 41.375 37.38 40.6016 37.38C39.7483 37.38 39.0683 37.6533 38.5616 38.2C38.0683 38.7467 37.8216 39.54 37.8216 40.58V46H35.3216V35.32H37.7016V36.68C38.1016 36.2 38.6016 35.8333 39.2016 35.58C39.8016 35.3267 40.4683 35.2 41.2016 35.2C42.0016 35.2 42.7083 35.3533 43.3216 35.66C43.9483 35.9533 44.4416 36.3933 44.8016 36.98C45.2416 36.42 45.8083 35.9867 46.5016 35.68C47.195 35.36 47.9616 35.2 48.8016 35.2ZM69.8563 35.2C71.203 35.2 72.2697 35.5933 73.0563 36.38C73.843 37.1533 74.2363 38.32 74.2363 39.88V46H71.7363V40.2C71.7363 39.2667 71.5297 38.5667 71.1163 38.1C70.703 37.62 70.1097 37.38 69.3363 37.38C68.4963 37.38 67.823 37.66 67.3163 38.22C66.8097 38.7667 66.5563 39.5533 66.5563 40.58V46H64.0563V40.2C64.0563 39.2667 63.8497 38.5667 63.4363 38.1C63.023 37.62 62.4297 37.38 61.6563 37.38C60.803 37.38 60.123 37.6533 59.6163 38.2C59.123 38.7467 58.8763 39.54 58.8763 40.58V46H56.3763V35.32H58.7563V36.68C59.1563 36.2 59.6563 35.8333 60.2563 35.58C60.8563 35.3267 61.523 35.2 62.2563 35.2C63.0563 35.2 63.763 35.3533 64.3763 35.66C65.003 35.9533 65.4963 36.3933 65.8563 36.98C66.2963 36.42 66.863 35.9867 67.5563 35.68C68.2497 35.36 69.0163 35.2 69.8563 35.2ZM87.771 35.32V46H85.391V44.64C84.991 45.12 84.491 45.4933 83.891 45.76C83.291 46.0133 82.6443 46.14 81.951 46.14C80.5243 46.14 79.3977 45.7467 78.571 44.96C77.7577 44.16 77.351 42.98 77.351 41.42V35.32H79.851V41.08C79.851 42.04 80.0643 42.76 80.491 43.24C80.931 43.7067 81.551 43.94 82.351 43.94C83.2443 43.94 83.951 43.6667 84.471 43.12C85.0043 42.56 85.271 41.76 85.271 40.72V35.32H87.771ZM97.1043 35.2C98.451 35.2 99.531 35.5933 100.344 36.38C101.158 37.1667 101.564 38.3333 101.564 39.88V46H99.0643V40.2C99.0643 39.2667 98.8443 38.5667 98.4043 38.1C97.9643 37.62 97.3376 37.38 96.5243 37.38C95.6043 37.38 94.8776 37.66 94.3443 38.22C93.811 38.7667 93.5443 39.56 93.5443 40.6V46H91.0443V35.32H93.4243V36.7C93.8376 36.2067 94.3576 35.8333 94.9843 35.58C95.611 35.3267 96.3176 35.2 97.1043 35.2ZM104.736 35.32H107.236V46H104.736V35.32ZM105.996 33.56C105.542 33.56 105.162 33.42 104.856 33.14C104.549 32.8467 104.396 32.4867 104.396 32.06C104.396 31.6333 104.549 31.28 104.856 31C105.162 30.7067 105.542 30.56 105.996 30.56C106.449 30.56 106.829 30.7 107.136 30.98C107.442 31.2467 107.596 31.5867 107.596 32C107.596 32.44 107.442 32.8133 107.136 33.12C106.842 33.4133 106.462 33.56 105.996 33.56ZM115.417 46.14C114.31 46.14 113.317 45.9067 112.437 45.44C111.557 44.9733 110.87 44.3267 110.377 43.5C109.884 42.66 109.637 41.7133 109.637 40.66C109.637 39.6067 109.884 38.6667 110.377 37.84C110.87 37.0133 111.55 36.3667 112.417 35.9C113.297 35.4333 114.297 35.2 115.417 35.2C116.47 35.2 117.39 35.4133 118.177 35.84C118.977 36.2667 119.577 36.88 119.977 37.68L118.057 38.8C117.75 38.3067 117.364 37.94 116.897 37.7C116.444 37.4467 115.944 37.32 115.397 37.32C114.464 37.32 113.69 37.6267 113.077 38.24C112.464 38.84 112.157 39.6467 112.157 40.66C112.157 41.6733 112.457 42.4867 113.057 43.1C113.67 43.7 114.45 44 115.397 44C115.944 44 116.444 43.88 116.897 43.64C117.364 43.3867 117.75 43.0133 118.057 42.52L119.977 43.64C119.564 44.44 118.957 45.06 118.157 45.5C117.37 45.9267 116.457 46.14 115.417 46.14ZM126.218 35.2C127.791 35.2 128.991 35.58 129.818 36.34C130.658 37.0867 131.078 38.22 131.078 39.74V46H128.718V44.7C128.411 45.1667 127.971 45.5267 127.398 45.78C126.838 46.02 126.158 46.14 125.358 46.14C124.558 46.14 123.858 46.0067 123.258 45.74C122.658 45.46 122.191 45.08 121.858 44.6C121.538 44.1067 121.378 43.5533 121.378 42.94C121.378 41.98 121.731 41.2133 122.438 40.64C123.158 40.0533 124.285 39.76 125.818 39.76H128.578V39.6C128.578 38.8533 128.351 38.28 127.898 37.88C127.458 37.48 126.798 37.28 125.918 37.28C125.318 37.28 124.725 37.3733 124.138 37.56C123.565 37.7467 123.078 38.0067 122.678 38.34L121.698 36.52C122.258 36.0933 122.931 35.7667 123.718 35.54C124.505 35.3133 125.338 35.2 126.218 35.2ZM125.878 44.32C126.505 44.32 127.058 44.18 127.538 43.9C128.031 43.6067 128.378 43.1933 128.578 42.66V41.42H125.998C124.558 41.42 123.838 41.8933 123.838 42.84C123.838 43.2933 124.018 43.6533 124.378 43.92C124.738 44.1867 125.238 44.32 125.878 44.32ZM140.706 45.42C140.413 45.66 140.053 45.84 139.626 45.96C139.213 46.08 138.773 46.14 138.306 46.14C137.133 46.14 136.226 45.8333 135.586 45.22C134.946 44.6067 134.626 43.7133 134.626 42.54V37.4H132.866V35.4H134.626V32.96H137.126V35.4H139.986V37.4H137.126V42.48C137.126 43 137.253 43.4 137.506 43.68C137.76 43.9467 138.126 44.08 138.606 44.08C139.166 44.08 139.633 43.9333 140.006 43.64L140.706 45.42ZM142.763 35.32H145.263V46H142.763V35.32ZM144.023 33.56C143.57 33.56 143.19 33.42 142.883 33.14C142.576 32.8467 142.423 32.4867 142.423 32.06C142.423 31.6333 142.576 31.28 142.883 31C143.19 30.7067 143.57 30.56 144.023 30.56C144.476 30.56 144.856 30.7 145.163 30.98C145.47 31.2467 145.623 31.5867 145.623 32C145.623 32.44 145.47 32.8133 145.163 33.12C144.87 33.4133 144.49 33.56 144.023 33.56ZM153.344 46.14C152.264 46.14 151.291 45.9067 150.424 45.44C149.558 44.9733 148.878 44.3267 148.384 43.5C147.904 42.66 147.664 41.7133 147.664 40.66C147.664 39.6067 147.904 38.6667 148.384 37.84C148.878 37.0133 149.558 36.3667 150.424 35.9C151.291 35.4333 152.264 35.2 153.344 35.2C154.438 35.2 155.418 35.4333 156.284 35.9C157.151 36.3667 157.824 37.0133 158.304 37.84C158.798 38.6667 159.044 39.6067 159.044 40.66C159.044 41.7133 158.798 42.66 158.304 43.5C157.824 44.3267 157.151 44.9733 156.284 45.44C155.418 45.9067 154.438 46.14 153.344 46.14ZM153.344 44C154.264 44 155.024 43.6933 155.624 43.08C156.224 42.4667 156.524 41.66 156.524 40.66C156.524 39.66 156.224 38.8533 155.624 38.24C155.024 37.6267 154.264 37.32 153.344 37.32C152.424 37.32 151.664 37.6267 151.064 38.24C150.478 38.8533 150.184 39.66 150.184 40.66C150.184 41.66 150.478 42.4667 151.064 43.08C151.664 43.6933 152.424 44 153.344 44ZM167.495 35.2C168.842 35.2 169.922 35.5933 170.735 36.38C171.548 37.1667 171.955 38.3333 171.955 39.88V46H169.455V40.2C169.455 39.2667 169.235 38.5667 168.795 38.1C168.355 37.62 167.728 37.38 166.915 37.38C165.995 37.38 165.268 37.66 164.735 38.22C164.202 38.7667 163.935 39.56 163.935 40.6V46H161.435V35.32H163.815V36.7C164.228 36.2067 164.748 35.8333 165.375 35.58C166.002 35.3267 166.708 35.2 167.495 35.2ZM184.734 35.2C186.307 35.2 187.507 35.58 188.334 36.34C189.174 37.0867 189.594 38.22 189.594 39.74V46H187.234V44.7C186.927 45.1667 186.487 45.5267 185.914 45.78C185.354 46.02 184.674 46.14 183.874 46.14C183.074 46.14 182.374 46.0067 181.774 45.74C181.174 45.46 180.707 45.08 180.374 44.6C180.054 44.1067 179.894 43.5533 179.894 42.94C179.894 41.98 180.247 41.2133 180.954 40.64C181.674 40.0533 182.8 39.76 184.334 39.76H187.094V39.6C187.094 38.8533 186.867 38.28 186.414 37.88C185.974 37.48 185.314 37.28 184.434 37.28C183.834 37.28 183.24 37.3733 182.654 37.56C182.08 37.7467 181.594 38.0067 181.194 38.34L180.214 36.52C180.774 36.0933 181.447 35.7667 182.234 35.54C183.02 35.3133 183.854 35.2 184.734 35.2ZM184.394 44.32C185.02 44.32 185.574 44.18 186.054 43.9C186.547 43.6067 186.894 43.1933 187.094 42.66V41.42H184.514C183.074 41.42 182.354 41.8933 182.354 42.84C182.354 43.2933 182.534 43.6533 182.894 43.92C183.254 44.1867 183.754 44.32 184.394 44.32ZM192.802 35.32H195.302V46H192.802V35.32ZM194.062 33.56C193.609 33.56 193.229 33.42 192.922 33.14C192.615 32.8467 192.462 32.4867 192.462 32.06C192.462 31.6333 192.615 31.28 192.922 31C193.229 30.7067 193.609 30.56 194.062 30.56C194.515 30.56 194.895 30.7 195.202 30.98C195.509 31.2467 195.662 31.5867 195.662 32C195.662 32.44 195.509 32.8133 195.202 33.12C194.909 33.4133 194.529 33.56 194.062 33.56ZM209.043 31.16V46H206.643V44.62C206.23 45.1267 205.717 45.5067 205.103 45.76C204.503 46.0133 203.837 46.14 203.103 46.14C202.077 46.14 201.15 45.9133 200.323 45.46C199.51 45.0067 198.87 44.3667 198.403 43.54C197.937 42.7 197.703 41.74 197.703 40.66C197.703 39.58 197.937 38.6267 198.403 37.8C198.87 36.9733 199.51 36.3333 200.323 35.88C201.15 35.4267 202.077 35.2 203.103 35.2C203.81 35.2 204.457 35.32 205.043 35.56C205.63 35.8 206.13 36.16 206.543 36.64V31.16H209.043ZM203.403 44C204.003 44 204.543 43.8667 205.023 43.6C205.503 43.32 205.883 42.9267 206.163 42.42C206.443 41.9133 206.583 41.3267 206.583 40.66C206.583 39.9933 206.443 39.4067 206.163 38.9C205.883 38.3933 205.503 38.0067 205.023 37.74C204.543 37.46 204.003 37.32 203.403 37.32C202.803 37.32 202.263 37.46 201.783 37.74C201.303 38.0067 200.923 38.3933 200.643 38.9C200.363 39.4067 200.223 39.9933 200.223 40.66C200.223 41.3267 200.363 41.9133 200.643 42.42C200.923 42.9267 201.303 43.32 201.783 43.6C202.263 43.8667 202.803 44 203.403 44ZM49.897 70.14C48.817 70.14 47.8437 69.9067 46.977 69.44C46.1104 68.9733 45.4304 68.3267 44.937 67.5C44.457 66.66 44.217 65.7133 44.217 64.66C44.217 63.6067 44.457 62.6667 44.937 61.84C45.4304 61.0133 46.1104 60.3667 46.977 59.9C47.8437 59.4333 48.817 59.2 49.897 59.2C50.9904 59.2 51.9704 59.4333 52.837 59.9C53.7037 60.3667 54.377 61.0133 54.857 61.84C55.3504 62.6667 55.597 63.6067 55.597 64.66C55.597 65.7133 55.3504 66.66 54.857 67.5C54.377 68.3267 53.7037 68.9733 52.837 69.44C51.9704 69.9067 50.9904 70.14 49.897 70.14ZM49.897 68C50.817 68 51.577 67.6933 52.177 67.08C52.777 66.4667 53.077 65.66 53.077 64.66C53.077 63.66 52.777 62.8533 52.177 62.24C51.577 61.6267 50.817 61.32 49.897 61.32C48.977 61.32 48.217 61.6267 47.617 62.24C47.0304 62.8533 46.737 63.66 46.737 64.66C46.737 65.66 47.0304 66.4667 47.617 67.08C48.217 67.6933 48.977 68 49.897 68ZM62.3277 57.04C61.2743 57.04 60.7477 57.6133 60.7477 58.76V59.4H63.6877V61.4H60.8277V70H58.3277V61.4H56.5677V59.4H58.3277V58.72C58.3277 57.5733 58.661 56.6733 59.3277 56.02C59.9943 55.3533 60.9343 55.02 62.1477 55.02C63.1077 55.02 63.861 55.2133 64.4077 55.6L63.7077 57.48C63.281 57.1867 62.821 57.04 62.3277 57.04ZM81.3578 55.16V70H78.9578V68.62C78.5445 69.1267 78.0311 69.5067 77.4178 69.76C76.8178 70.0133 76.1511 70.14 75.4178 70.14C74.3911 70.14 73.4645 69.9133 72.6378 69.46C71.8245 69.0067 71.1845 68.3667 70.7178 67.54C70.2511 66.7 70.0178 65.74 70.0178 64.66C70.0178 63.58 70.2511 62.6267 70.7178 61.8C71.1845 60.9733 71.8245 60.3333 72.6378 59.88C73.4645 59.4267 74.3911 59.2 75.4178 59.2C76.1245 59.2 76.7711 59.32 77.3578 59.56C77.9445 59.8 78.4445 60.16 78.8578 60.64V55.16H81.3578ZM75.7178 68C76.3178 68 76.8578 67.8667 77.3378 67.6C77.8178 67.32 78.1978 66.9267 78.4778 66.42C78.7578 65.9133 78.8978 65.3267 78.8978 64.66C78.8978 63.9933 78.7578 63.4067 78.4778 62.9C78.1978 62.3933 77.8178 62.0067 77.3378 61.74C76.8578 61.46 76.3178 61.32 75.7178 61.32C75.1178 61.32 74.5778 61.46 74.0978 61.74C73.6178 62.0067 73.2378 62.3933 72.9578 62.9C72.6778 63.4067 72.5378 63.9933 72.5378 64.66C72.5378 65.3267 72.6778 65.9133 72.9578 66.42C73.2378 66.9267 73.6178 67.32 74.0978 67.6C74.5778 67.8667 75.1178 68 75.7178 68ZM94.6683 64.72C94.6683 64.8933 94.6549 65.14 94.6283 65.46H86.2483C86.3949 66.2467 86.7749 66.8733 87.3883 67.34C88.0149 67.7933 88.7883 68.02 89.7083 68.02C90.8816 68.02 91.8483 67.6333 92.6083 66.86L93.9483 68.4C93.4683 68.9733 92.8616 69.4067 92.1283 69.7C91.3949 69.9933 90.5683 70.14 89.6483 70.14C88.4749 70.14 87.4416 69.9067 86.5483 69.44C85.6549 68.9733 84.9616 68.3267 84.4683 67.5C83.9883 66.66 83.7483 65.7133 83.7483 64.66C83.7483 63.62 83.9816 62.6867 84.4483 61.86C84.9283 61.02 85.5883 60.3667 86.4283 59.9C87.2683 59.4333 88.2149 59.2 89.2683 59.2C90.3083 59.2 91.2349 59.4333 92.0483 59.9C92.8749 60.3533 93.5149 61 93.9683 61.84C94.4349 62.6667 94.6683 63.6267 94.6683 64.72ZM89.2683 61.2C88.4683 61.2 87.7883 61.44 87.2283 61.92C86.6816 62.3867 86.3483 63.0133 86.2283 63.8H92.2883C92.1816 63.0267 91.8549 62.4 91.3083 61.92C90.7616 61.44 90.0816 61.2 89.2683 61.2ZM102.99 59.2C104.03 59.2 104.956 59.4267 105.77 59.88C106.596 60.3333 107.243 60.9733 107.71 61.8C108.176 62.6267 108.41 63.58 108.41 64.66C108.41 65.74 108.176 66.7 107.71 67.54C107.243 68.3667 106.596 69.0067 105.77 69.46C104.956 69.9133 104.03 70.14 102.99 70.14C101.55 70.14 100.41 69.66 99.5697 68.7V73.88H97.0697V59.32H99.4497V60.72C99.863 60.2133 100.37 59.8333 100.97 59.58C101.583 59.3267 102.256 59.2 102.99 59.2ZM102.71 68C103.63 68 104.383 67.6933 104.97 67.08C105.57 66.4667 105.87 65.66 105.87 64.66C105.87 63.66 105.57 62.8533 104.97 62.24C104.383 61.6267 103.63 61.32 102.71 61.32C102.11 61.32 101.57 61.46 101.09 61.74C100.61 62.0067 100.23 62.3933 99.9497 62.9C99.6697 63.4067 99.5297 63.9933 99.5297 64.66C99.5297 65.3267 99.6697 65.9133 99.9497 66.42C100.23 66.9267 100.61 67.32 101.09 67.6C101.57 67.8667 102.11 68 102.71 68ZM113.161 60.88C113.881 59.76 115.147 59.2 116.961 59.2V61.58C116.747 61.54 116.554 61.52 116.381 61.52C115.407 61.52 114.647 61.8067 114.101 62.38C113.554 62.94 113.281 63.7533 113.281 64.82V70H110.781V59.32H113.161V60.88ZM129.024 64.72C129.024 64.8933 129.01 65.14 128.984 65.46H120.604C120.75 66.2467 121.13 66.8733 121.744 67.34C122.37 67.7933 123.144 68.02 124.064 68.02C125.237 68.02 126.204 67.6333 126.964 66.86L128.304 68.4C127.824 68.9733 127.217 69.4067 126.484 69.7C125.75 69.9933 124.924 70.14 124.004 70.14C122.83 70.14 121.797 69.9067 120.904 69.44C120.01 68.9733 119.317 68.3267 118.824 67.5C118.344 66.66 118.104 65.7133 118.104 64.66C118.104 63.62 118.337 62.6867 118.804 61.86C119.284 61.02 119.944 60.3667 120.784 59.9C121.624 59.4333 122.57 59.2 123.624 59.2C124.664 59.2 125.59 59.4333 126.404 59.9C127.23 60.3533 127.87 61 128.324 61.84C128.79 62.6667 129.024 63.6267 129.024 64.72ZM123.624 61.2C122.824 61.2 122.144 61.44 121.584 61.92C121.037 62.3867 120.704 63.0133 120.584 63.8H126.644C126.537 63.0267 126.21 62.4 125.664 61.92C125.117 61.44 124.437 61.2 123.624 61.2ZM134.725 70.14C133.858 70.14 133.012 70.0267 132.185 69.8C131.358 69.5733 130.698 69.2867 130.205 68.94L131.165 67.04C131.645 67.36 132.218 67.62 132.885 67.82C133.565 68.0067 134.232 68.1 134.885 68.1C136.378 68.1 137.125 67.7067 137.125 66.92C137.125 66.5467 136.932 66.2867 136.545 66.14C136.172 65.9933 135.565 65.8533 134.725 65.72C133.845 65.5867 133.125 65.4333 132.565 65.26C132.018 65.0867 131.538 64.7867 131.125 64.36C130.725 63.92 130.525 63.3133 130.525 62.54C130.525 61.5267 130.945 60.72 131.785 60.12C132.638 59.5067 133.785 59.2 135.225 59.2C135.958 59.2 136.692 59.2867 137.425 59.46C138.158 59.62 138.758 59.84 139.225 60.12L138.265 62.02C137.358 61.4867 136.338 61.22 135.205 61.22C134.472 61.22 133.912 61.3333 133.525 61.56C133.152 61.7733 132.965 62.06 132.965 62.42C132.965 62.82 133.165 63.1067 133.565 63.28C133.978 63.44 134.612 63.5933 135.465 63.74C136.318 63.8733 137.018 64.0267 137.565 64.2C138.112 64.3733 138.578 64.6667 138.965 65.08C139.365 65.4933 139.565 66.08 139.565 66.84C139.565 67.84 139.132 68.64 138.265 69.24C137.398 69.84 136.218 70.14 134.725 70.14ZM145.018 70.14C144.151 70.14 143.305 70.0267 142.478 69.8C141.651 69.5733 140.991 69.2867 140.498 68.94L141.458 67.04C141.938 67.36 142.511 67.62 143.178 67.82C143.858 68.0067 144.525 68.1 145.178 68.1C146.671 68.1 147.418 67.7067 147.418 66.92C147.418 66.5467 147.225 66.2867 146.838 66.14C146.465 65.9933 145.858 65.8533 145.018 65.72C144.138 65.5867 143.418 65.4333 142.858 65.26C142.311 65.0867 141.831 64.7867 141.418 64.36C141.018 63.92 140.818 63.3133 140.818 62.54C140.818 61.5267 141.238 60.72 142.078 60.12C142.931 59.5067 144.078 59.2 145.518 59.2C146.251 59.2 146.985 59.2867 147.718 59.46C148.451 59.62 149.051 59.84 149.518 60.12L148.558 62.02C147.651 61.4867 146.631 61.22 145.498 61.22C144.765 61.22 144.205 61.3333 143.818 61.56C143.445 61.7733 143.258 62.06 143.258 62.42C143.258 62.82 143.458 63.1067 143.858 63.28C144.271 63.44 144.905 63.5933 145.758 63.74C146.611 63.8733 147.311 64.0267 147.858 64.2C148.405 64.3733 148.871 64.6667 149.258 65.08C149.658 65.4933 149.858 66.08 149.858 66.84C149.858 67.84 149.425 68.64 148.558 69.24C147.691 69.84 146.511 70.14 145.018 70.14ZM162.051 64.72C162.051 64.8933 162.038 65.14 162.011 65.46H153.631C153.778 66.2467 154.158 66.8733 154.771 67.34C155.398 67.7933 156.171 68.02 157.091 68.02C158.264 68.02 159.231 67.6333 159.991 66.86L161.331 68.4C160.851 68.9733 160.244 69.4067 159.511 69.7C158.778 69.9933 157.951 70.14 157.031 70.14C155.858 70.14 154.824 69.9067 153.931 69.44C153.038 68.9733 152.344 68.3267 151.851 67.5C151.371 66.66 151.131 65.7133 151.131 64.66C151.131 63.62 151.364 62.6867 151.831 61.86C152.311 61.02 152.971 60.3667 153.811 59.9C154.651 59.4333 155.598 59.2 156.651 59.2C157.691 59.2 158.618 59.4333 159.431 59.9C160.258 60.3533 160.898 61 161.351 61.84C161.818 62.6667 162.051 63.6267 162.051 64.72ZM156.651 61.2C155.851 61.2 155.171 61.44 154.611 61.92C154.064 62.3867 153.731 63.0133 153.611 63.8H159.671C159.564 63.0267 159.238 62.4 158.691 61.92C158.144 61.44 157.464 61.2 156.651 61.2ZM174.913 55.16V70H172.513V68.62C172.099 69.1267 171.586 69.5067 170.973 69.76C170.373 70.0133 169.706 70.14 168.973 70.14C167.946 70.14 167.019 69.9133 166.193 69.46C165.379 69.0067 164.739 68.3667 164.273 67.54C163.806 66.7 163.573 65.74 163.573 64.66C163.573 63.58 163.806 62.6267 164.273 61.8C164.739 60.9733 165.379 60.3333 166.193 59.88C167.019 59.4267 167.946 59.2 168.973 59.2C169.679 59.2 170.326 59.32 170.913 59.56C171.499 59.8 171.999 60.16 172.413 60.64V55.16H174.913ZM169.273 68C169.873 68 170.413 67.8667 170.893 67.6C171.373 67.32 171.753 66.9267 172.033 66.42C172.313 65.9133 172.453 65.3267 172.453 64.66C172.453 63.9933 172.313 63.4067 172.033 62.9C171.753 62.3933 171.373 62.0067 170.893 61.74C170.413 61.46 169.873 61.32 169.273 61.32C168.673 61.32 168.133 61.46 167.653 61.74C167.173 62.0067 166.793 62.3933 166.513 62.9C166.233 63.4067 166.093 63.9933 166.093 64.66C166.093 65.3267 166.233 65.9133 166.513 66.42C166.793 66.9267 167.173 67.32 167.653 67.6C168.133 67.8667 168.673 68 169.273 68ZM53.845 83.2C55.4183 83.2 56.6183 83.58 57.445 84.34C58.285 85.0867 58.705 86.22 58.705 87.74V94H56.345V92.7C56.0383 93.1667 55.5983 93.5267 55.025 93.78C54.465 94.02 53.785 94.14 52.985 94.14C52.185 94.14 51.485 94.0067 50.885 93.74C50.285 93.46 49.8183 93.08 49.485 92.6C49.165 92.1067 49.005 91.5533 49.005 90.94C49.005 89.98 49.3583 89.2133 50.065 88.64C50.785 88.0533 51.9117 87.76 53.445 87.76H56.205V87.6C56.205 86.8533 55.9783 86.28 55.525 85.88C55.085 85.48 54.425 85.28 53.545 85.28C52.945 85.28 52.3517 85.3733 51.765 85.56C51.1917 85.7467 50.705 86.0067 50.305 86.34L49.325 84.52C49.885 84.0933 50.5583 83.7667 51.345 83.54C52.1317 83.3133 52.965 83.2 53.845 83.2ZM53.505 92.32C54.1317 92.32 54.685 92.18 55.165 91.9C55.6583 91.6067 56.005 91.1933 56.205 90.66V89.42H53.625C52.185 89.42 51.465 89.8933 51.465 90.84C51.465 91.2933 51.645 91.6533 52.005 91.92C52.365 92.1867 52.865 92.32 53.505 92.32ZM72.4711 79.16V94H70.0711V92.62C69.6578 93.1267 69.1444 93.5067 68.5311 93.76C67.9311 94.0133 67.2644 94.14 66.5311 94.14C65.5044 94.14 64.5778 93.9133 63.7511 93.46C62.9378 93.0067 62.2978 92.3667 61.8311 91.54C61.3644 90.7 61.1311 89.74 61.1311 88.66C61.1311 87.58 61.3644 86.6267 61.8311 85.8C62.2978 84.9733 62.9378 84.3333 63.7511 83.88C64.5778 83.4267 65.5044 83.2 66.5311 83.2C67.2378 83.2 67.8844 83.32 68.4711 83.56C69.0578 83.8 69.5578 84.16 69.9711 84.64V79.16H72.4711ZM66.8311 92C67.4311 92 67.9711 91.8667 68.4511 91.6C68.9311 91.32 69.3111 90.9267 69.5911 90.42C69.8711 89.9133 70.0111 89.3267 70.0111 88.66C70.0111 87.9933 69.8711 87.4067 69.5911 86.9C69.3111 86.3933 68.9311 86.0067 68.4511 85.74C67.9711 85.46 67.4311 85.32 66.8311 85.32C66.2311 85.32 65.6911 85.46 65.2111 85.74C64.7311 86.0067 64.3511 86.3933 64.0711 86.9C63.7911 87.4067 63.6511 87.9933 63.6511 88.66C63.6511 89.3267 63.7911 89.9133 64.0711 90.42C64.3511 90.9267 64.7311 91.32 65.2111 91.6C65.6911 91.8667 66.2311 92 66.8311 92ZM80.5416 94.14C79.4616 94.14 78.4882 93.9067 77.6216 93.44C76.7549 92.9733 76.0749 92.3267 75.5816 91.5C75.1016 90.66 74.8616 89.7133 74.8616 88.66C74.8616 87.6067 75.1016 86.6667 75.5816 85.84C76.0749 85.0133 76.7549 84.3667 77.6216 83.9C78.4882 83.4333 79.4616 83.2 80.5416 83.2C81.6349 83.2 82.6149 83.4333 83.4816 83.9C84.3482 84.3667 85.0216 85.0133 85.5016 85.84C85.9949 86.6667 86.2416 87.6067 86.2416 88.66C86.2416 89.7133 85.9949 90.66 85.5016 91.5C85.0216 92.3267 84.3482 92.9733 83.4816 93.44C82.6149 93.9067 81.6349 94.14 80.5416 94.14ZM80.5416 92C81.4616 92 82.2216 91.6933 82.8216 91.08C83.4216 90.4667 83.7216 89.66 83.7216 88.66C83.7216 87.66 83.4216 86.8533 82.8216 86.24C82.2216 85.6267 81.4616 85.32 80.5416 85.32C79.6216 85.32 78.8616 85.6267 78.2616 86.24C77.6749 86.8533 77.3816 87.66 77.3816 88.66C77.3816 89.66 77.6749 90.4667 78.2616 91.08C78.8616 91.6933 79.6216 92 80.5416 92ZM88.6322 79.16H91.1322V94H88.6322V79.16ZM104.453 88.72C104.453 88.8933 104.44 89.14 104.413 89.46H96.0334C96.1801 90.2467 96.5601 90.8733 97.1734 91.34C97.8001 91.7933 98.5734 92.02 99.4934 92.02C100.667 92.02 101.633 91.6333 102.393 90.86L103.733 92.4C103.253 92.9733 102.647 93.4067 101.913 93.7C101.18 93.9933 100.353 94.14 99.4334 94.14C98.2601 94.14 97.2268 93.9067 96.3334 93.44C95.4401 92.9733 94.7468 92.3267 94.2534 91.5C93.7734 90.66 93.5334 89.7133 93.5334 88.66C93.5334 87.62 93.7668 86.6867 94.2334 85.86C94.7134 85.02 95.3734 84.3667 96.2134 83.9C97.0534 83.4333 98.0001 83.2 99.0534 83.2C100.093 83.2 101.02 83.4333 101.833 83.9C102.66 84.3533 103.3 85 103.753 85.84C104.22 86.6667 104.453 87.6267 104.453 88.72ZM99.0534 85.2C98.2534 85.2 97.5734 85.44 97.0134 85.92C96.4668 86.3867 96.1334 87.0133 96.0134 87.8H102.073C101.967 87.0267 101.64 86.4 101.093 85.92C100.547 85.44 99.8668 85.2 99.0534 85.2ZM110.155 94.14C109.288 94.14 108.442 94.0267 107.615 93.8C106.788 93.5733 106.128 93.2867 105.635 92.94L106.595 91.04C107.075 91.36 107.648 91.62 108.315 91.82C108.995 92.0067 109.662 92.1 110.315 92.1C111.808 92.1 112.555 91.7067 112.555 90.92C112.555 90.5467 112.362 90.2867 111.975 90.14C111.602 89.9933 110.995 89.8533 110.155 89.72C109.275 89.5867 108.555 89.4333 107.995 89.26C107.448 89.0867 106.968 88.7867 106.555 88.36C106.155 87.92 105.955 87.3133 105.955 86.54C105.955 85.5267 106.375 84.72 107.215 84.12C108.068 83.5067 109.215 83.2 110.655 83.2C111.388 83.2 112.122 83.2867 112.855 83.46C113.588 83.62 114.188 83.84 114.655 84.12L113.695 86.02C112.788 85.4867 111.768 85.22 110.635 85.22C109.902 85.22 109.342 85.3333 108.955 85.56C108.582 85.7733 108.395 86.06 108.395 86.42C108.395 86.82 108.595 87.1067 108.995 87.28C109.408 87.44 110.042 87.5933 110.895 87.74C111.748 87.8733 112.448 88.0267 112.995 88.2C113.542 88.3733 114.008 88.6667 114.395 89.08C114.795 89.4933 114.995 90.08 114.995 90.84C114.995 91.84 114.562 92.64 113.695 93.24C112.828 93.84 111.648 94.14 110.155 94.14ZM122.048 94.14C120.941 94.14 119.948 93.9067 119.068 93.44C118.188 92.9733 117.501 92.3267 117.008 91.5C116.514 90.66 116.268 89.7133 116.268 88.66C116.268 87.6067 116.514 86.6667 117.008 85.84C117.501 85.0133 118.181 84.3667 119.048 83.9C119.928 83.4333 120.928 83.2 122.048 83.2C123.101 83.2 124.021 83.4133 124.808 83.84C125.608 84.2667 126.208 84.88 126.608 85.68L124.688 86.8C124.381 86.3067 123.994 85.94 123.528 85.7C123.074 85.4467 122.574 85.32 122.028 85.32C121.094 85.32 120.321 85.6267 119.708 86.24C119.094 86.84 118.788 87.6467 118.788 88.66C118.788 89.6733 119.088 90.4867 119.688 91.1C120.301 91.7 121.081 92 122.028 92C122.574 92 123.074 91.88 123.528 91.64C123.994 91.3867 124.381 91.0133 124.688 90.52L126.608 91.64C126.194 92.44 125.588 93.06 124.788 93.5C124.001 93.9267 123.088 94.14 122.048 94.14ZM138.653 88.72C138.653 88.8933 138.639 89.14 138.613 89.46H130.233C130.379 90.2467 130.759 90.8733 131.373 91.34C131.999 91.7933 132.773 92.02 133.693 92.02C134.866 92.02 135.833 91.6333 136.593 90.86L137.933 92.4C137.453 92.9733 136.846 93.4067 136.113 93.7C135.379 93.9933 134.553 94.14 133.633 94.14C132.459 94.14 131.426 93.9067 130.533 93.44C129.639 92.9733 128.946 92.3267 128.453 91.5C127.973 90.66 127.733 89.7133 127.733 88.66C127.733 87.62 127.966 86.6867 128.433 85.86C128.913 85.02 129.573 84.3667 130.413 83.9C131.253 83.4333 132.199 83.2 133.253 83.2C134.293 83.2 135.219 83.4333 136.033 83.9C136.859 84.3533 137.499 85 137.953 85.84C138.419 86.6667 138.653 87.6267 138.653 88.72ZM133.253 85.2C132.453 85.2 131.773 85.44 131.213 85.92C130.666 86.3867 130.333 87.0133 130.213 87.8H136.273C136.166 87.0267 135.839 86.4 135.293 85.92C134.746 85.44 134.066 85.2 133.253 85.2ZM147.114 83.2C148.461 83.2 149.541 83.5933 150.354 84.38C151.167 85.1667 151.574 86.3333 151.574 87.88V94H149.074V88.2C149.074 87.2667 148.854 86.5667 148.414 86.1C147.974 85.62 147.347 85.38 146.534 85.38C145.614 85.38 144.887 85.66 144.354 86.22C143.821 86.7667 143.554 87.56 143.554 88.6V94H141.054V83.32H143.434V84.7C143.847 84.2067 144.367 83.8333 144.994 83.58C145.621 83.3267 146.327 83.2 147.114 83.2ZM161.165 93.42C160.872 93.66 160.512 93.84 160.085 93.96C159.672 94.08 159.232 94.14 158.765 94.14C157.592 94.14 156.685 93.8333 156.045 93.22C155.405 92.6067 155.085 91.7133 155.085 90.54V85.4H153.325V83.4H155.085V80.96H157.585V83.4H160.445V85.4H157.585V90.48C157.585 91 157.712 91.4 157.965 91.68C158.219 91.9467 158.585 92.08 159.065 92.08C159.625 92.08 160.092 91.9333 160.465 91.64L161.165 93.42ZM166.522 94.14C165.655 94.14 164.809 94.0267 163.982 93.8C163.155 93.5733 162.495 93.2867 162.002 92.94L162.962 91.04C163.442 91.36 164.015 91.62 164.682 91.82C165.362 92.0067 166.029 92.1 166.682 92.1C168.175 92.1 168.922 91.7067 168.922 90.92C168.922 90.5467 168.729 90.2867 168.342 90.14C167.969 89.9933 167.362 89.8533 166.522 89.72C165.642 89.5867 164.922 89.4333 164.362 89.26C163.815 89.0867 163.335 88.7867 162.922 88.36C162.522 87.92 162.322 87.3133 162.322 86.54C162.322 85.5267 162.742 84.72 163.582 84.12C164.435 83.5067 165.582 83.2 167.022 83.2C167.755 83.2 168.489 83.2867 169.222 83.46C169.955 83.62 170.555 83.84 171.022 84.12L170.062 86.02C169.155 85.4867 168.135 85.22 167.002 85.22C166.269 85.22 165.709 85.3333 165.322 85.56C164.949 85.7733 164.762 86.06 164.762 86.42C164.762 86.82 164.962 87.1067 165.362 87.28C165.775 87.44 166.409 87.5933 167.262 87.74C168.115 87.8733 168.815 88.0267 169.362 88.2C169.909 88.3733 170.375 88.6667 170.762 89.08C171.162 89.4933 171.362 90.08 171.362 90.84C171.362 91.84 170.929 92.64 170.062 93.24C169.195 93.84 168.015 94.14 166.522 94.14Z" fill="white"/>
<defs>
<filter id="filter0_d" x="0.0861816" y="0.0200043" width="216.957" height="105.12" filterUnits="userSpaceOnUse" color-interpolation-filters="sRGB">
<feFlood flood-opacity="0" result="BackgroundImageFix"/>
<feColorMatrix in="SourceAlpha" type="matrix" values="0 0 0 0 0 0 0 0 0 0 0 0 0 0 0 0 0 0 127 0"/>
<feOffset dy="1"/>
<feGaussianBlur stdDeviation="4.5"/>
<feColorMatrix type="matrix" values="0 0 0 0 0 0 0 0 0 0 0 0 0 0 0 0 0 0 0.45 0"/>
<feBlend mode="normal" in2="BackgroundImageFix" result="effect1_dropShadow"/>
<feBlend mode="normal" in="SourceGraphic" in2="effect1_dropShadow" result="shape"/>
</filter>
</defs>
</svg>
