<svg width="230" height="118" viewBox="0 0 230 118" fill="none" xmlns="http://www.w3.org/2000/svg">
<g filter="url(#filter0_d)">
<path d="M51.126 23.76H44.126L42.746 27H40.066L46.366 13H48.926L55.246 27H52.526L51.126 23.76ZM50.266 21.72L47.626 15.6L45.006 21.72H50.266ZM68.2338 16.2C69.2738 16.2 70.2005 16.4267 71.0138 16.88C71.8405 17.3333 72.4872 17.9733 72.9538 18.8C73.4205 19.6267 73.6538 20.58 73.6538 21.66C73.6538 22.74 73.4205 23.7 72.9538 24.54C72.4872 25.3667 71.8405 26.0067 71.0138 26.46C70.2005 26.9133 69.2738 27.14 68.2338 27.14C66.7938 27.14 65.6538 26.66 64.8138 25.7V30.88H62.3138V16.32H64.6938V17.72C65.1072 17.2133 65.6138 16.8333 66.2138 16.58C66.8272 16.3267 67.5005 16.2 68.2338 16.2ZM67.9538 25C68.8738 25 69.6272 24.6933 70.2138 24.08C70.8138 23.4667 71.1138 22.66 71.1138 21.66C71.1138 20.66 70.8138 19.8533 70.2138 19.24C69.6272 18.6267 68.8738 18.32 67.9538 18.32C67.3538 18.32 66.8138 18.46 66.3338 18.74C65.8538 19.0067 65.4738 19.3933 65.1938 19.9C64.9138 20.4067 64.7738 20.9933 64.7738 21.66C64.7738 22.3267 64.9138 22.9133 65.1938 23.42C65.4738 23.9267 65.8538 24.32 66.3338 24.6C66.8138 24.8667 67.3538 25 67.9538 25ZM76.0248 12.16H78.5248V27H76.0248V12.16ZM85.886 16.2C87.4593 16.2 88.6593 16.58 89.486 17.34C90.326 18.0867 90.746 19.22 90.746 20.74V27H88.386V25.7C88.0793 26.1667 87.6393 26.5267 87.066 26.78C86.506 27.02 85.826 27.14 85.026 27.14C84.226 27.14 83.526 27.0067 82.926 26.74C82.326 26.46 81.8593 26.08 81.526 25.6C81.206 25.1067 81.046 24.5533 81.046 23.94C81.046 22.98 81.3993 22.2133 82.106 21.64C82.826 21.0533 83.9527 20.76 85.486 20.76H88.246V20.6C88.246 19.8533 88.0193 19.28 87.566 18.88C87.126 18.48 86.466 18.28 85.586 18.28C84.986 18.28 84.3927 18.3733 83.806 18.56C83.2327 18.7467 82.746 19.0067 82.346 19.34L81.366 17.52C81.926 17.0933 82.5993 16.7667 83.386 16.54C84.1727 16.3133 85.006 16.2 85.886 16.2ZM85.546 25.32C86.1727 25.32 86.726 25.18 87.206 24.9C87.6993 24.6067 88.046 24.1933 88.246 23.66V22.42H85.666C84.226 22.42 83.506 22.8933 83.506 23.84C83.506 24.2933 83.686 24.6533 84.046 24.92C84.406 25.1867 84.906 25.32 85.546 25.32ZM100.374 26.42C100.081 26.66 99.7211 26.84 99.2945 26.96C98.8811 27.08 98.4411 27.14 97.9745 27.14C96.8011 27.14 95.8945 26.8333 95.2545 26.22C94.6145 25.6067 94.2945 24.7133 94.2945 23.54V18.4H92.5345V16.4H94.2945V13.96H96.7945V16.4H99.6545V18.4H96.7945V23.48C96.7945 24 96.9211 24.4 97.1745 24.68C97.4278 24.9467 97.7945 25.08 98.2745 25.08C98.8345 25.08 99.3011 24.9333 99.6745 24.64L100.374 26.42ZM106.771 14.04C105.718 14.04 105.191 14.6133 105.191 15.76V16.4H108.131V18.4H105.271V27H102.771V18.4H101.011V16.4H102.771V15.72C102.771 14.5733 103.104 13.6733 103.771 13.02C104.438 12.3533 105.378 12.02 106.591 12.02C107.551 12.02 108.304 12.2133 108.851 12.6L108.151 14.48C107.724 14.1867 107.264 14.04 106.771 14.04ZM114.458 27.14C113.378 27.14 112.404 26.9067 111.538 26.44C110.671 25.9733 109.991 25.3267 109.498 24.5C109.018 23.66 108.778 22.7133 108.778 21.66C108.778 20.6067 109.018 19.6667 109.498 18.84C109.991 18.0133 110.671 17.3667 111.538 16.9C112.404 16.4333 113.378 16.2 114.458 16.2C115.551 16.2 116.531 16.4333 117.398 16.9C118.264 17.3667 118.938 18.0133 119.418 18.84C119.911 19.6667 120.158 20.6067 120.158 21.66C120.158 22.7133 119.911 23.66 119.418 24.5C118.938 25.3267 118.264 25.9733 117.398 26.44C116.531 26.9067 115.551 27.14 114.458 27.14ZM114.458 25C115.378 25 116.138 24.6933 116.738 24.08C117.338 23.4667 117.638 22.66 117.638 21.66C117.638 20.66 117.338 19.8533 116.738 19.24C116.138 18.6267 115.378 18.32 114.458 18.32C113.538 18.32 112.778 18.6267 112.178 19.24C111.591 19.8533 111.298 20.66 111.298 21.66C111.298 22.66 111.591 23.4667 112.178 24.08C112.778 24.6933 113.538 25 114.458 25ZM124.928 17.88C125.648 16.76 126.915 16.2 128.728 16.2V18.58C128.515 18.54 128.322 18.52 128.148 18.52C127.175 18.52 126.415 18.8067 125.868 19.38C125.322 19.94 125.048 20.7533 125.048 21.82V27H122.548V16.32H124.928V17.88ZM144.329 16.2C145.676 16.2 146.742 16.5933 147.529 17.38C148.316 18.1533 148.709 19.32 148.709 20.88V27H146.209V21.2C146.209 20.2667 146.002 19.5667 145.589 19.1C145.176 18.62 144.582 18.38 143.809 18.38C142.969 18.38 142.296 18.66 141.789 19.22C141.282 19.7667 141.029 20.5533 141.029 21.58V27H138.529V21.2C138.529 20.2667 138.322 19.5667 137.909 19.1C137.496 18.62 136.902 18.38 136.129 18.38C135.276 18.38 134.596 18.6533 134.089 19.2C133.596 19.7467 133.349 20.54 133.349 21.58V27H130.849V16.32H133.229V17.68C133.629 17.2 134.129 16.8333 134.729 16.58C135.329 16.3267 135.996 16.2 136.729 16.2C137.529 16.2 138.236 16.3533 138.849 16.66C139.476 16.9533 139.969 17.3933 140.329 17.98C140.769 17.42 141.336 16.9867 142.029 16.68C142.722 16.36 143.489 16.2 144.329 16.2ZM161.771 14.04C160.718 14.04 160.191 14.6133 160.191 15.76V16.4H163.131V18.4H160.271V27H157.771V18.4H156.011V16.4H157.771V15.72C157.771 14.5733 158.104 13.6733 158.771 13.02C159.438 12.3533 160.378 12.02 161.591 12.02C162.551 12.02 163.304 12.2133 163.851 12.6L163.151 14.48C162.724 14.1867 162.264 14.04 161.771 14.04ZM169.458 27.14C168.378 27.14 167.404 26.9067 166.538 26.44C165.671 25.9733 164.991 25.3267 164.498 24.5C164.018 23.66 163.778 22.7133 163.778 21.66C163.778 20.6067 164.018 19.6667 164.498 18.84C164.991 18.0133 165.671 17.3667 166.538 16.9C167.404 16.4333 168.378 16.2 169.458 16.2C170.551 16.2 171.531 16.4333 172.398 16.9C173.264 17.3667 173.938 18.0133 174.418 18.84C174.911 19.6667 175.158 20.6067 175.158 21.66C175.158 22.7133 174.911 23.66 174.418 24.5C173.938 25.3267 173.264 25.9733 172.398 26.44C171.531 26.9067 170.551 27.14 169.458 27.14ZM169.458 25C170.378 25 171.138 24.6933 171.738 24.08C172.338 23.4667 172.638 22.66 172.638 21.66C172.638 20.66 172.338 19.8533 171.738 19.24C171.138 18.6267 170.378 18.32 169.458 18.32C168.538 18.32 167.778 18.6267 167.178 19.24C166.591 19.8533 166.298 20.66 166.298 21.66C166.298 22.66 166.591 23.4667 167.178 24.08C167.778 24.6933 168.538 25 169.458 25ZM179.928 17.88C180.648 16.76 181.915 16.2 183.728 16.2V18.58C183.515 18.54 183.322 18.52 183.148 18.52C182.175 18.52 181.415 18.8067 180.868 19.38C180.322 19.94 180.048 20.7533 180.048 21.82V27H177.548V16.32H179.928V17.88ZM20.8662 51.14C19.7595 51.14 18.7662 50.9067 17.8862 50.44C17.0062 49.9733 16.3195 49.3267 15.8262 48.5C15.3328 47.66 15.0862 46.7133 15.0862 45.66C15.0862 44.6067 15.3328 43.6667 15.8262 42.84C16.3195 42.0133 16.9995 41.3667 17.8662 40.9C18.7462 40.4333 19.7462 40.2 20.8662 40.2C21.9195 40.2 22.8395 40.4133 23.6262 40.84C24.4262 41.2667 25.0262 41.88 25.4262 42.68L23.5062 43.8C23.1995 43.3067 22.8128 42.94 22.3462 42.7C21.8928 42.4467 21.3928 42.32 20.8462 42.32C19.9128 42.32 19.1395 42.6267 18.5262 43.24C17.9128 43.84 17.6062 44.6467 17.6062 45.66C17.6062 46.6733 17.9062 47.4867 18.5062 48.1C19.1195 48.7 19.8995 49 20.8462 49C21.3928 49 21.8928 48.88 22.3462 48.64C22.8128 48.3867 23.1995 48.0133 23.5062 47.52L25.4262 48.64C25.0128 49.44 24.4062 50.06 23.6062 50.5C22.8195 50.9267 21.9062 51.14 20.8662 51.14ZM32.231 51.14C31.151 51.14 30.1777 50.9067 29.311 50.44C28.4443 49.9733 27.7643 49.3267 27.271 48.5C26.791 47.66 26.551 46.7133 26.551 45.66C26.551 44.6067 26.791 43.6667 27.271 42.84C27.7643 42.0133 28.4443 41.3667 29.311 40.9C30.1777 40.4333 31.151 40.2 32.231 40.2C33.3243 40.2 34.3043 40.4333 35.171 40.9C36.0377 41.3667 36.711 42.0133 37.191 42.84C37.6844 43.6667 37.931 44.6067 37.931 45.66C37.931 46.7133 37.6844 47.66 37.191 48.5C36.711 49.3267 36.0377 49.9733 35.171 50.44C34.3043 50.9067 33.3243 51.14 32.231 51.14ZM32.231 49C33.151 49 33.911 48.6933 34.511 48.08C35.111 47.4667 35.411 46.66 35.411 45.66C35.411 44.66 35.111 43.8533 34.511 43.24C33.911 42.6267 33.151 42.32 32.231 42.32C31.311 42.32 30.551 42.6267 29.951 43.24C29.3643 43.8533 29.071 44.66 29.071 45.66C29.071 46.66 29.3643 47.4667 29.951 48.08C30.551 48.6933 31.311 49 32.231 49ZM53.8016 40.2C55.1483 40.2 56.215 40.5933 57.0016 41.38C57.7883 42.1533 58.1816 43.32 58.1816 44.88V51H55.6816V45.2C55.6816 44.2667 55.475 43.5667 55.0616 43.1C54.6483 42.62 54.055 42.38 53.2816 42.38C52.4416 42.38 51.7683 42.66 51.2616 43.22C50.755 43.7667 50.5016 44.5533 50.5016 45.58V51H48.0016V45.2C48.0016 44.2667 47.795 43.5667 47.3816 43.1C46.9683 42.62 46.375 42.38 45.6016 42.38C44.7483 42.38 44.0683 42.6533 43.5616 43.2C43.0683 43.7467 42.8216 44.54 42.8216 45.58V51H40.3216V40.32H42.7016V41.68C43.1016 41.2 43.6016 40.8333 44.2016 40.58C44.8016 40.3267 45.4683 40.2 46.2016 40.2C47.0016 40.2 47.7083 40.3533 48.3216 40.66C48.9483 40.9533 49.4416 41.3933 49.8016 41.98C50.2416 41.42 50.8083 40.9867 51.5016 40.68C52.195 40.36 52.9616 40.2 53.8016 40.2ZM74.8563 40.2C76.203 40.2 77.2697 40.5933 78.0563 41.38C78.843 42.1533 79.2363 43.32 79.2363 44.88V51H76.7363V45.2C76.7363 44.2667 76.5297 43.5667 76.1163 43.1C75.703 42.62 75.1097 42.38 74.3363 42.38C73.4963 42.38 72.823 42.66 72.3163 43.22C71.8097 43.7667 71.5563 44.5533 71.5563 45.58V51H69.0563V45.2C69.0563 44.2667 68.8497 43.5667 68.4363 43.1C68.023 42.62 67.4297 42.38 66.6563 42.38C65.803 42.38 65.123 42.6533 64.6163 43.2C64.123 43.7467 63.8763 44.54 63.8763 45.58V51H61.3763V40.32H63.7563V41.68C64.1563 41.2 64.6563 40.8333 65.2563 40.58C65.8563 40.3267 66.523 40.2 67.2563 40.2C68.0563 40.2 68.763 40.3533 69.3763 40.66C70.003 40.9533 70.4963 41.3933 70.8563 41.98C71.2963 41.42 71.863 40.9867 72.5563 40.68C73.2497 40.36 74.0163 40.2 74.8563 40.2ZM92.771 40.32V51H90.391V49.64C89.991 50.12 89.491 50.4933 88.891 50.76C88.291 51.0133 87.6443 51.14 86.951 51.14C85.5243 51.14 84.3977 50.7467 83.571 49.96C82.7577 49.16 82.351 47.98 82.351 46.42V40.32H84.851V46.08C84.851 47.04 85.0643 47.76 85.491 48.24C85.931 48.7067 86.551 48.94 87.351 48.94C88.2443 48.94 88.951 48.6667 89.471 48.12C90.0043 47.56 90.271 46.76 90.271 45.72V40.32H92.771ZM102.104 40.2C103.451 40.2 104.531 40.5933 105.344 41.38C106.158 42.1667 106.564 43.3333 106.564 44.88V51H104.064V45.2C104.064 44.2667 103.844 43.5667 103.404 43.1C102.964 42.62 102.338 42.38 101.524 42.38C100.604 42.38 99.8776 42.66 99.3443 43.22C98.811 43.7667 98.5443 44.56 98.5443 45.6V51H96.0443V40.32H98.4243V41.7C98.8376 41.2067 99.3576 40.8333 99.9843 40.58C100.611 40.3267 101.318 40.2 102.104 40.2ZM109.736 40.32H112.236V51H109.736V40.32ZM110.996 38.56C110.542 38.56 110.162 38.42 109.856 38.14C109.549 37.8467 109.396 37.4867 109.396 37.06C109.396 36.6333 109.549 36.28 109.856 36C110.162 35.7067 110.542 35.56 110.996 35.56C111.449 35.56 111.829 35.7 112.136 35.98C112.442 36.2467 112.596 36.5867 112.596 37C112.596 37.44 112.442 37.8133 112.136 38.12C111.842 38.4133 111.462 38.56 110.996 38.56ZM120.417 51.14C119.31 51.14 118.317 50.9067 117.437 50.44C116.557 49.9733 115.87 49.3267 115.377 48.5C114.884 47.66 114.637 46.7133 114.637 45.66C114.637 44.6067 114.884 43.6667 115.377 42.84C115.87 42.0133 116.55 41.3667 117.417 40.9C118.297 40.4333 119.297 40.2 120.417 40.2C121.47 40.2 122.39 40.4133 123.177 40.84C123.977 41.2667 124.577 41.88 124.977 42.68L123.057 43.8C122.75 43.3067 122.364 42.94 121.897 42.7C121.444 42.4467 120.944 42.32 120.397 42.32C119.464 42.32 118.69 42.6267 118.077 43.24C117.464 43.84 117.157 44.6467 117.157 45.66C117.157 46.6733 117.457 47.4867 118.057 48.1C118.67 48.7 119.45 49 120.397 49C120.944 49 121.444 48.88 121.897 48.64C122.364 48.3867 122.75 48.0133 123.057 47.52L124.977 48.64C124.564 49.44 123.957 50.06 123.157 50.5C122.37 50.9267 121.457 51.14 120.417 51.14ZM131.218 40.2C132.791 40.2 133.991 40.58 134.818 41.34C135.658 42.0867 136.078 43.22 136.078 44.74V51H133.718V49.7C133.411 50.1667 132.971 50.5267 132.398 50.78C131.838 51.02 131.158 51.14 130.358 51.14C129.558 51.14 128.858 51.0067 128.258 50.74C127.658 50.46 127.191 50.08 126.858 49.6C126.538 49.1067 126.378 48.5533 126.378 47.94C126.378 46.98 126.731 46.2133 127.438 45.64C128.158 45.0533 129.285 44.76 130.818 44.76H133.578V44.6C133.578 43.8533 133.351 43.28 132.898 42.88C132.458 42.48 131.798 42.28 130.918 42.28C130.318 42.28 129.725 42.3733 129.138 42.56C128.565 42.7467 128.078 43.0067 127.678 43.34L126.698 41.52C127.258 41.0933 127.931 40.7667 128.718 40.54C129.505 40.3133 130.338 40.2 131.218 40.2ZM130.878 49.32C131.505 49.32 132.058 49.18 132.538 48.9C133.031 48.6067 133.378 48.1933 133.578 47.66V46.42H130.998C129.558 46.42 128.838 46.8933 128.838 47.84C128.838 48.2933 129.018 48.6533 129.378 48.92C129.738 49.1867 130.238 49.32 130.878 49.32ZM145.706 50.42C145.413 50.66 145.053 50.84 144.626 50.96C144.213 51.08 143.773 51.14 143.306 51.14C142.133 51.14 141.226 50.8333 140.586 50.22C139.946 49.6067 139.626 48.7133 139.626 47.54V42.4H137.866V40.4H139.626V37.96H142.126V40.4H144.986V42.4H142.126V47.48C142.126 48 142.253 48.4 142.506 48.68C142.76 48.9467 143.126 49.08 143.606 49.08C144.166 49.08 144.633 48.9333 145.006 48.64L145.706 50.42ZM147.763 40.32H150.263V51H147.763V40.32ZM149.023 38.56C148.57 38.56 148.19 38.42 147.883 38.14C147.576 37.8467 147.423 37.4867 147.423 37.06C147.423 36.6333 147.576 36.28 147.883 36C148.19 35.7067 148.57 35.56 149.023 35.56C149.476 35.56 149.856 35.7 150.163 35.98C150.47 36.2467 150.623 36.5867 150.623 37C150.623 37.44 150.47 37.8133 150.163 38.12C149.87 38.4133 149.49 38.56 149.023 38.56ZM158.344 51.14C157.264 51.14 156.291 50.9067 155.424 50.44C154.558 49.9733 153.878 49.3267 153.384 48.5C152.904 47.66 152.664 46.7133 152.664 45.66C152.664 44.6067 152.904 43.6667 153.384 42.84C153.878 42.0133 154.558 41.3667 155.424 40.9C156.291 40.4333 157.264 40.2 158.344 40.2C159.438 40.2 160.418 40.4333 161.284 40.9C162.151 41.3667 162.824 42.0133 163.304 42.84C163.798 43.6667 164.044 44.6067 164.044 45.66C164.044 46.7133 163.798 47.66 163.304 48.5C162.824 49.3267 162.151 49.9733 161.284 50.44C160.418 50.9067 159.438 51.14 158.344 51.14ZM158.344 49C159.264 49 160.024 48.6933 160.624 48.08C161.224 47.4667 161.524 46.66 161.524 45.66C161.524 44.66 161.224 43.8533 160.624 43.24C160.024 42.6267 159.264 42.32 158.344 42.32C157.424 42.32 156.664 42.6267 156.064 43.24C155.478 43.8533 155.184 44.66 155.184 45.66C155.184 46.66 155.478 47.4667 156.064 48.08C156.664 48.6933 157.424 49 158.344 49ZM172.495 40.2C173.842 40.2 174.922 40.5933 175.735 41.38C176.548 42.1667 176.955 43.3333 176.955 44.88V51H174.455V45.2C174.455 44.2667 174.235 43.5667 173.795 43.1C173.355 42.62 172.728 42.38 171.915 42.38C170.995 42.38 170.268 42.66 169.735 43.22C169.202 43.7667 168.935 44.56 168.935 45.6V51H166.435V40.32H168.815V41.7C169.228 41.2067 169.748 40.8333 170.375 40.58C171.002 40.3267 171.708 40.2 172.495 40.2ZM189.734 40.2C191.307 40.2 192.507 40.58 193.334 41.34C194.174 42.0867 194.594 43.22 194.594 44.74V51H192.234V49.7C191.927 50.1667 191.487 50.5267 190.914 50.78C190.354 51.02 189.674 51.14 188.874 51.14C188.074 51.14 187.374 51.0067 186.774 50.74C186.174 50.46 185.707 50.08 185.374 49.6C185.054 49.1067 184.894 48.5533 184.894 47.94C184.894 46.98 185.247 46.2133 185.954 45.64C186.674 45.0533 187.8 44.76 189.334 44.76H192.094V44.6C192.094 43.8533 191.867 43.28 191.414 42.88C190.974 42.48 190.314 42.28 189.434 42.28C188.834 42.28 188.24 42.3733 187.654 42.56C187.08 42.7467 186.594 43.0067 186.194 43.34L185.214 41.52C185.774 41.0933 186.447 40.7667 187.234 40.54C188.02 40.3133 188.854 40.2 189.734 40.2ZM189.394 49.32C190.02 49.32 190.574 49.18 191.054 48.9C191.547 48.6067 191.894 48.1933 192.094 47.66V46.42H189.514C188.074 46.42 187.354 46.8933 187.354 47.84C187.354 48.2933 187.534 48.6533 187.894 48.92C188.254 49.1867 188.754 49.32 189.394 49.32ZM197.802 40.32H200.302V51H197.802V40.32ZM199.062 38.56C198.609 38.56 198.229 38.42 197.922 38.14C197.615 37.8467 197.462 37.4867 197.462 37.06C197.462 36.6333 197.615 36.28 197.922 36C198.229 35.7067 198.609 35.56 199.062 35.56C199.515 35.56 199.895 35.7 200.202 35.98C200.509 36.2467 200.662 36.5867 200.662 37C200.662 37.44 200.509 37.8133 200.202 38.12C199.909 38.4133 199.529 38.56 199.062 38.56ZM214.043 36.16V51H211.643V49.62C211.23 50.1267 210.717 50.5067 210.103 50.76C209.503 51.0133 208.837 51.14 208.103 51.14C207.077 51.14 206.15 50.9133 205.323 50.46C204.51 50.0067 203.87 49.3667 203.403 48.54C202.937 47.7 202.703 46.74 202.703 45.66C202.703 44.58 202.937 43.6267 203.403 42.8C203.87 41.9733 204.51 41.3333 205.323 40.88C206.15 40.4267 207.077 40.2 208.103 40.2C208.81 40.2 209.457 40.32 210.043 40.56C210.63 40.8 211.13 41.16 211.543 41.64V36.16H214.043ZM208.403 49C209.003 49 209.543 48.8667 210.023 48.6C210.503 48.32 210.883 47.9267 211.163 47.42C211.443 46.9133 211.583 46.3267 211.583 45.66C211.583 44.9933 211.443 44.4067 211.163 43.9C210.883 43.3933 210.503 43.0067 210.023 42.74C209.543 42.46 209.003 42.32 208.403 42.32C207.803 42.32 207.263 42.46 206.783 42.74C206.303 43.0067 205.923 43.3933 205.643 43.9C205.363 44.4067 205.223 44.9933 205.223 45.66C205.223 46.3267 205.363 46.9133 205.643 47.42C205.923 47.9267 206.303 48.32 206.783 48.6C207.263 48.8667 207.803 49 208.403 49ZM54.897 75.14C53.817 75.14 52.8437 74.9067 51.977 74.44C51.1104 73.9733 50.4304 73.3267 49.937 72.5C49.457 71.66 49.217 70.7133 49.217 69.66C49.217 68.6067 49.457 67.6667 49.937 66.84C50.4304 66.0133 51.1104 65.3667 51.977 64.9C52.8437 64.4333 53.817 64.2 54.897 64.2C55.9904 64.2 56.9704 64.4333 57.837 64.9C58.7037 65.3667 59.377 66.0133 59.857 66.84C60.3504 67.6667 60.597 68.6067 60.597 69.66C60.597 70.7133 60.3504 71.66 59.857 72.5C59.377 73.3267 58.7037 73.9733 57.837 74.44C56.9704 74.9067 55.9904 75.14 54.897 75.14ZM54.897 73C55.817 73 56.577 72.6933 57.177 72.08C57.777 71.4667 58.077 70.66 58.077 69.66C58.077 68.66 57.777 67.8533 57.177 67.24C56.577 66.6267 55.817 66.32 54.897 66.32C53.977 66.32 53.217 66.6267 52.617 67.24C52.0304 67.8533 51.737 68.66 51.737 69.66C51.737 70.66 52.0304 71.4667 52.617 72.08C53.217 72.6933 53.977 73 54.897 73ZM67.3277 62.04C66.2743 62.04 65.7477 62.6133 65.7477 63.76V64.4H68.6877V66.4H65.8277V75H63.3277V66.4H61.5677V64.4H63.3277V63.72C63.3277 62.5733 63.661 61.6733 64.3277 61.02C64.9943 60.3533 65.9343 60.02 67.1477 60.02C68.1077 60.02 68.861 60.2133 69.4077 60.6L68.7077 62.48C68.281 62.1867 67.821 62.04 67.3277 62.04ZM86.3578 60.16V75H83.9578V73.62C83.5445 74.1267 83.0311 74.5067 82.4178 74.76C81.8178 75.0133 81.1511 75.14 80.4178 75.14C79.3911 75.14 78.4645 74.9133 77.6378 74.46C76.8245 74.0067 76.1845 73.3667 75.7178 72.54C75.2511 71.7 75.0178 70.74 75.0178 69.66C75.0178 68.58 75.2511 67.6267 75.7178 66.8C76.1845 65.9733 76.8245 65.3333 77.6378 64.88C78.4645 64.4267 79.3911 64.2 80.4178 64.2C81.1245 64.2 81.7711 64.32 82.3578 64.56C82.9445 64.8 83.4445 65.16 83.8578 65.64V60.16H86.3578ZM80.7178 73C81.3178 73 81.8578 72.8667 82.3378 72.6C82.8178 72.32 83.1978 71.9267 83.4778 71.42C83.7578 70.9133 83.8978 70.3267 83.8978 69.66C83.8978 68.9933 83.7578 68.4067 83.4778 67.9C83.1978 67.3933 82.8178 67.0067 82.3378 66.74C81.8578 66.46 81.3178 66.32 80.7178 66.32C80.1178 66.32 79.5778 66.46 79.0978 66.74C78.6178 67.0067 78.2378 67.3933 77.9578 67.9C77.6778 68.4067 77.5378 68.9933 77.5378 69.66C77.5378 70.3267 77.6778 70.9133 77.9578 71.42C78.2378 71.9267 78.6178 72.32 79.0978 72.6C79.5778 72.8667 80.1178 73 80.7178 73ZM99.6683 69.72C99.6683 69.8933 99.6549 70.14 99.6283 70.46H91.2483C91.3949 71.2467 91.7749 71.8733 92.3883 72.34C93.0149 72.7933 93.7883 73.02 94.7083 73.02C95.8816 73.02 96.8483 72.6333 97.6083 71.86L98.9483 73.4C98.4683 73.9733 97.8616 74.4067 97.1283 74.7C96.3949 74.9933 95.5683 75.14 94.6483 75.14C93.4749 75.14 92.4416 74.9067 91.5483 74.44C90.6549 73.9733 89.9616 73.3267 89.4683 72.5C88.9883 71.66 88.7483 70.7133 88.7483 69.66C88.7483 68.62 88.9816 67.6867 89.4483 66.86C89.9283 66.02 90.5883 65.3667 91.4283 64.9C92.2683 64.4333 93.2149 64.2 94.2683 64.2C95.3083 64.2 96.2349 64.4333 97.0483 64.9C97.8749 65.3533 98.5149 66 98.9683 66.84C99.4349 67.6667 99.6683 68.6267 99.6683 69.72ZM94.2683 66.2C93.4683 66.2 92.7883 66.44 92.2283 66.92C91.6816 67.3867 91.3483 68.0133 91.2283 68.8H97.2883C97.1816 68.0267 96.8549 67.4 96.3083 66.92C95.7616 66.44 95.0816 66.2 94.2683 66.2ZM107.99 64.2C109.03 64.2 109.956 64.4267 110.77 64.88C111.596 65.3333 112.243 65.9733 112.71 66.8C113.176 67.6267 113.41 68.58 113.41 69.66C113.41 70.74 113.176 71.7 112.71 72.54C112.243 73.3667 111.596 74.0067 110.77 74.46C109.956 74.9133 109.03 75.14 107.99 75.14C106.55 75.14 105.41 74.66 104.57 73.7V78.88H102.07V64.32H104.45V65.72C104.863 65.2133 105.37 64.8333 105.97 64.58C106.583 64.3267 107.256 64.2 107.99 64.2ZM107.71 73C108.63 73 109.383 72.6933 109.97 72.08C110.57 71.4667 110.87 70.66 110.87 69.66C110.87 68.66 110.57 67.8533 109.97 67.24C109.383 66.6267 108.63 66.32 107.71 66.32C107.11 66.32 106.57 66.46 106.09 66.74C105.61 67.0067 105.23 67.3933 104.95 67.9C104.67 68.4067 104.53 68.9933 104.53 69.66C104.53 70.3267 104.67 70.9133 104.95 71.42C105.23 71.9267 105.61 72.32 106.09 72.6C106.57 72.8667 107.11 73 107.71 73ZM118.161 65.88C118.881 64.76 120.147 64.2 121.961 64.2V66.58C121.747 66.54 121.554 66.52 121.381 66.52C120.407 66.52 119.647 66.8067 119.101 67.38C118.554 67.94 118.281 68.7533 118.281 69.82V75H115.781V64.32H118.161V65.88ZM134.024 69.72C134.024 69.8933 134.01 70.14 133.984 70.46H125.604C125.75 71.2467 126.13 71.8733 126.744 72.34C127.37 72.7933 128.144 73.02 129.064 73.02C130.237 73.02 131.204 72.6333 131.964 71.86L133.304 73.4C132.824 73.9733 132.217 74.4067 131.484 74.7C130.75 74.9933 129.924 75.14 129.004 75.14C127.83 75.14 126.797 74.9067 125.904 74.44C125.01 73.9733 124.317 73.3267 123.824 72.5C123.344 71.66 123.104 70.7133 123.104 69.66C123.104 68.62 123.337 67.6867 123.804 66.86C124.284 66.02 124.944 65.3667 125.784 64.9C126.624 64.4333 127.57 64.2 128.624 64.2C129.664 64.2 130.59 64.4333 131.404 64.9C132.23 65.3533 132.87 66 133.324 66.84C133.79 67.6667 134.024 68.6267 134.024 69.72ZM128.624 66.2C127.824 66.2 127.144 66.44 126.584 66.92C126.037 67.3867 125.704 68.0133 125.584 68.8H131.644C131.537 68.0267 131.21 67.4 130.664 66.92C130.117 66.44 129.437 66.2 128.624 66.2ZM139.725 75.14C138.858 75.14 138.012 75.0267 137.185 74.8C136.358 74.5733 135.698 74.2867 135.205 73.94L136.165 72.04C136.645 72.36 137.218 72.62 137.885 72.82C138.565 73.0067 139.232 73.1 139.885 73.1C141.378 73.1 142.125 72.7067 142.125 71.92C142.125 71.5467 141.932 71.2867 141.545 71.14C141.172 70.9933 140.565 70.8533 139.725 70.72C138.845 70.5867 138.125 70.4333 137.565 70.26C137.018 70.0867 136.538 69.7867 136.125 69.36C135.725 68.92 135.525 68.3133 135.525 67.54C135.525 66.5267 135.945 65.72 136.785 65.12C137.638 64.5067 138.785 64.2 140.225 64.2C140.958 64.2 141.692 64.2867 142.425 64.46C143.158 64.62 143.758 64.84 144.225 65.12L143.265 67.02C142.358 66.4867 141.338 66.22 140.205 66.22C139.472 66.22 138.912 66.3333 138.525 66.56C138.152 66.7733 137.965 67.06 137.965 67.42C137.965 67.82 138.165 68.1067 138.565 68.28C138.978 68.44 139.612 68.5933 140.465 68.74C141.318 68.8733 142.018 69.0267 142.565 69.2C143.112 69.3733 143.578 69.6667 143.965 70.08C144.365 70.4933 144.565 71.08 144.565 71.84C144.565 72.84 144.132 73.64 143.265 74.24C142.398 74.84 141.218 75.14 139.725 75.14ZM150.018 75.14C149.151 75.14 148.305 75.0267 147.478 74.8C146.651 74.5733 145.991 74.2867 145.498 73.94L146.458 72.04C146.938 72.36 147.511 72.62 148.178 72.82C148.858 73.0067 149.525 73.1 150.178 73.1C151.671 73.1 152.418 72.7067 152.418 71.92C152.418 71.5467 152.225 71.2867 151.838 71.14C151.465 70.9933 150.858 70.8533 150.018 70.72C149.138 70.5867 148.418 70.4333 147.858 70.26C147.311 70.0867 146.831 69.7867 146.418 69.36C146.018 68.92 145.818 68.3133 145.818 67.54C145.818 66.5267 146.238 65.72 147.078 65.12C147.931 64.5067 149.078 64.2 150.518 64.2C151.251 64.2 151.985 64.2867 152.718 64.46C153.451 64.62 154.051 64.84 154.518 65.12L153.558 67.02C152.651 66.4867 151.631 66.22 150.498 66.22C149.765 66.22 149.205 66.3333 148.818 66.56C148.445 66.7733 148.258 67.06 148.258 67.42C148.258 67.82 148.458 68.1067 148.858 68.28C149.271 68.44 149.905 68.5933 150.758 68.74C151.611 68.8733 152.311 69.0267 152.858 69.2C153.405 69.3733 153.871 69.6667 154.258 70.08C154.658 70.4933 154.858 71.08 154.858 71.84C154.858 72.84 154.425 73.64 153.558 74.24C152.691 74.84 151.511 75.14 150.018 75.14ZM167.051 69.72C167.051 69.8933 167.038 70.14 167.011 70.46H158.631C158.778 71.2467 159.158 71.8733 159.771 72.34C160.398 72.7933 161.171 73.02 162.091 73.02C163.264 73.02 164.231 72.6333 164.991 71.86L166.331 73.4C165.851 73.9733 165.244 74.4067 164.511 74.7C163.778 74.9933 162.951 75.14 162.031 75.14C160.858 75.14 159.824 74.9067 158.931 74.44C158.038 73.9733 157.344 73.3267 156.851 72.5C156.371 71.66 156.131 70.7133 156.131 69.66C156.131 68.62 156.364 67.6867 156.831 66.86C157.311 66.02 157.971 65.3667 158.811 64.9C159.651 64.4333 160.598 64.2 161.651 64.2C162.691 64.2 163.618 64.4333 164.431 64.9C165.258 65.3533 165.898 66 166.351 66.84C166.818 67.6667 167.051 68.6267 167.051 69.72ZM161.651 66.2C160.851 66.2 160.171 66.44 159.611 66.92C159.064 67.3867 158.731 68.0133 158.611 68.8H164.671C164.564 68.0267 164.238 67.4 163.691 66.92C163.144 66.44 162.464 66.2 161.651 66.2ZM179.913 60.16V75H177.513V73.62C177.099 74.1267 176.586 74.5067 175.973 74.76C175.373 75.0133 174.706 75.14 173.973 75.14C172.946 75.14 172.019 74.9133 171.193 74.46C170.379 74.0067 169.739 73.3667 169.273 72.54C168.806 71.7 168.573 70.74 168.573 69.66C168.573 68.58 168.806 67.6267 169.273 66.8C169.739 65.9733 170.379 65.3333 171.193 64.88C172.019 64.4267 172.946 64.2 173.973 64.2C174.679 64.2 175.326 64.32 175.913 64.56C176.499 64.8 176.999 65.16 177.413 65.64V60.16H179.913ZM174.273 73C174.873 73 175.413 72.8667 175.893 72.6C176.373 72.32 176.753 71.9267 177.033 71.42C177.313 70.9133 177.453 70.3267 177.453 69.66C177.453 68.9933 177.313 68.4067 177.033 67.9C176.753 67.3933 176.373 67.0067 175.893 66.74C175.413 66.46 174.873 66.32 174.273 66.32C173.673 66.32 173.133 66.46 172.653 66.74C172.173 67.0067 171.793 67.3933 171.513 67.9C171.233 68.4067 171.093 68.9933 171.093 69.66C171.093 70.3267 171.233 70.9133 171.513 71.42C171.793 71.9267 172.173 72.32 172.653 72.6C173.133 72.8667 173.673 73 174.273 73ZM58.845 88.2C60.4183 88.2 61.6183 88.58 62.445 89.34C63.285 90.0867 63.705 91.22 63.705 92.74V99H61.345V97.7C61.0383 98.1667 60.5983 98.5267 60.025 98.78C59.465 99.02 58.785 99.14 57.985 99.14C57.185 99.14 56.485 99.0067 55.885 98.74C55.285 98.46 54.8183 98.08 54.485 97.6C54.165 97.1067 54.005 96.5533 54.005 95.94C54.005 94.98 54.3583 94.2133 55.065 93.64C55.785 93.0533 56.9117 92.76 58.445 92.76H61.205V92.6C61.205 91.8533 60.9783 91.28 60.525 90.88C60.085 90.48 59.425 90.28 58.545 90.28C57.945 90.28 57.3517 90.3733 56.765 90.56C56.1917 90.7467 55.705 91.0067 55.305 91.34L54.325 89.52C54.885 89.0933 55.5583 88.7667 56.345 88.54C57.1317 88.3133 57.965 88.2 58.845 88.2ZM58.505 97.32C59.1317 97.32 59.685 97.18 60.165 96.9C60.6583 96.6067 61.005 96.1933 61.205 95.66V94.42H58.625C57.185 94.42 56.465 94.8933 56.465 95.84C56.465 96.2933 56.645 96.6533 57.005 96.92C57.365 97.1867 57.865 97.32 58.505 97.32ZM77.4711 84.16V99H75.0711V97.62C74.6578 98.1267 74.1444 98.5067 73.5311 98.76C72.9311 99.0133 72.2644 99.14 71.5311 99.14C70.5044 99.14 69.5778 98.9133 68.7511 98.46C67.9378 98.0067 67.2978 97.3667 66.8311 96.54C66.3644 95.7 66.1311 94.74 66.1311 93.66C66.1311 92.58 66.3644 91.6267 66.8311 90.8C67.2978 89.9733 67.9378 89.3333 68.7511 88.88C69.5778 88.4267 70.5044 88.2 71.5311 88.2C72.2378 88.2 72.8844 88.32 73.4711 88.56C74.0578 88.8 74.5578 89.16 74.9711 89.64V84.16H77.4711ZM71.8311 97C72.4311 97 72.9711 96.8667 73.4511 96.6C73.9311 96.32 74.3111 95.9267 74.5911 95.42C74.8711 94.9133 75.0111 94.3267 75.0111 93.66C75.0111 92.9933 74.8711 92.4067 74.5911 91.9C74.3111 91.3933 73.9311 91.0067 73.4511 90.74C72.9711 90.46 72.4311 90.32 71.8311 90.32C71.2311 90.32 70.6911 90.46 70.2111 90.74C69.7311 91.0067 69.3511 91.3933 69.0711 91.9C68.7911 92.4067 68.6511 92.9933 68.6511 93.66C68.6511 94.3267 68.7911 94.9133 69.0711 95.42C69.3511 95.9267 69.7311 96.32 70.2111 96.6C70.6911 96.8667 71.2311 97 71.8311 97ZM85.5416 99.14C84.4616 99.14 83.4882 98.9067 82.6216 98.44C81.7549 97.9733 81.0749 97.3267 80.5816 96.5C80.1016 95.66 79.8616 94.7133 79.8616 93.66C79.8616 92.6067 80.1016 91.6667 80.5816 90.84C81.0749 90.0133 81.7549 89.3667 82.6216 88.9C83.4882 88.4333 84.4616 88.2 85.5416 88.2C86.6349 88.2 87.6149 88.4333 88.4816 88.9C89.3482 89.3667 90.0216 90.0133 90.5016 90.84C90.9949 91.6667 91.2416 92.6067 91.2416 93.66C91.2416 94.7133 90.9949 95.66 90.5016 96.5C90.0216 97.3267 89.3482 97.9733 88.4816 98.44C87.6149 98.9067 86.6349 99.14 85.5416 99.14ZM85.5416 97C86.4616 97 87.2216 96.6933 87.8216 96.08C88.4216 95.4667 88.7216 94.66 88.7216 93.66C88.7216 92.66 88.4216 91.8533 87.8216 91.24C87.2216 90.6267 86.4616 90.32 85.5416 90.32C84.6216 90.32 83.8616 90.6267 83.2616 91.24C82.6749 91.8533 82.3816 92.66 82.3816 93.66C82.3816 94.66 82.6749 95.4667 83.2616 96.08C83.8616 96.6933 84.6216 97 85.5416 97ZM93.6322 84.16H96.1322V99H93.6322V84.16ZM109.453 93.72C109.453 93.8933 109.44 94.14 109.413 94.46H101.033C101.18 95.2467 101.56 95.8733 102.173 96.34C102.8 96.7933 103.573 97.02 104.493 97.02C105.667 97.02 106.633 96.6333 107.393 95.86L108.733 97.4C108.253 97.9733 107.647 98.4067 106.913 98.7C106.18 98.9933 105.353 99.14 104.433 99.14C103.26 99.14 102.227 98.9067 101.333 98.44C100.44 97.9733 99.7468 97.3267 99.2534 96.5C98.7734 95.66 98.5334 94.7133 98.5334 93.66C98.5334 92.62 98.7668 91.6867 99.2334 90.86C99.7134 90.02 100.373 89.3667 101.213 88.9C102.053 88.4333 103 88.2 104.053 88.2C105.093 88.2 106.02 88.4333 106.833 88.9C107.66 89.3533 108.3 90 108.753 90.84C109.22 91.6667 109.453 92.6267 109.453 93.72ZM104.053 90.2C103.253 90.2 102.573 90.44 102.013 90.92C101.467 91.3867 101.133 92.0133 101.013 92.8H107.073C106.967 92.0267 106.64 91.4 106.093 90.92C105.547 90.44 104.867 90.2 104.053 90.2ZM115.155 99.14C114.288 99.14 113.442 99.0267 112.615 98.8C111.788 98.5733 111.128 98.2867 110.635 97.94L111.595 96.04C112.075 96.36 112.648 96.62 113.315 96.82C113.995 97.0067 114.662 97.1 115.315 97.1C116.808 97.1 117.555 96.7067 117.555 95.92C117.555 95.5467 117.362 95.2867 116.975 95.14C116.602 94.9933 115.995 94.8533 115.155 94.72C114.275 94.5867 113.555 94.4333 112.995 94.26C112.448 94.0867 111.968 93.7867 111.555 93.36C111.155 92.92 110.955 92.3133 110.955 91.54C110.955 90.5267 111.375 89.72 112.215 89.12C113.068 88.5067 114.215 88.2 115.655 88.2C116.388 88.2 117.122 88.2867 117.855 88.46C118.588 88.62 119.188 88.84 119.655 89.12L118.695 91.02C117.788 90.4867 116.768 90.22 115.635 90.22C114.902 90.22 114.342 90.3333 113.955 90.56C113.582 90.7733 113.395 91.06 113.395 91.42C113.395 91.82 113.595 92.1067 113.995 92.28C114.408 92.44 115.042 92.5933 115.895 92.74C116.748 92.8733 117.448 93.0267 117.995 93.2C118.542 93.3733 119.008 93.6667 119.395 94.08C119.795 94.4933 119.995 95.08 119.995 95.84C119.995 96.84 119.562 97.64 118.695 98.24C117.828 98.84 116.648 99.14 115.155 99.14ZM127.048 99.14C125.941 99.14 124.948 98.9067 124.068 98.44C123.188 97.9733 122.501 97.3267 122.008 96.5C121.514 95.66 121.268 94.7133 121.268 93.66C121.268 92.6067 121.514 91.6667 122.008 90.84C122.501 90.0133 123.181 89.3667 124.048 88.9C124.928 88.4333 125.928 88.2 127.048 88.2C128.101 88.2 129.021 88.4133 129.808 88.84C130.608 89.2667 131.208 89.88 131.608 90.68L129.688 91.8C129.381 91.3067 128.994 90.94 128.528 90.7C128.074 90.4467 127.574 90.32 127.028 90.32C126.094 90.32 125.321 90.6267 124.708 91.24C124.094 91.84 123.788 92.6467 123.788 93.66C123.788 94.6733 124.088 95.4867 124.688 96.1C125.301 96.7 126.081 97 127.028 97C127.574 97 128.074 96.88 128.528 96.64C128.994 96.3867 129.381 96.0133 129.688 95.52L131.608 96.64C131.194 97.44 130.588 98.06 129.788 98.5C129.001 98.9267 128.088 99.14 127.048 99.14ZM143.653 93.72C143.653 93.8933 143.639 94.14 143.613 94.46H135.233C135.379 95.2467 135.759 95.8733 136.373 96.34C136.999 96.7933 137.773 97.02 138.693 97.02C139.866 97.02 140.833 96.6333 141.593 95.86L142.933 97.4C142.453 97.9733 141.846 98.4067 141.113 98.7C140.379 98.9933 139.553 99.14 138.633 99.14C137.459 99.14 136.426 98.9067 135.533 98.44C134.639 97.9733 133.946 97.3267 133.453 96.5C132.973 95.66 132.733 94.7133 132.733 93.66C132.733 92.62 132.966 91.6867 133.433 90.86C133.913 90.02 134.573 89.3667 135.413 88.9C136.253 88.4333 137.199 88.2 138.253 88.2C139.293 88.2 140.219 88.4333 141.033 88.9C141.859 89.3533 142.499 90 142.953 90.84C143.419 91.6667 143.653 92.6267 143.653 93.72ZM138.253 90.2C137.453 90.2 136.773 90.44 136.213 90.92C135.666 91.3867 135.333 92.0133 135.213 92.8H141.273C141.166 92.0267 140.839 91.4 140.293 90.92C139.746 90.44 139.066 90.2 138.253 90.2ZM152.114 88.2C153.461 88.2 154.541 88.5933 155.354 89.38C156.167 90.1667 156.574 91.3333 156.574 92.88V99H154.074V93.2C154.074 92.2667 153.854 91.5667 153.414 91.1C152.974 90.62 152.347 90.38 151.534 90.38C150.614 90.38 149.887 90.66 149.354 91.22C148.821 91.7667 148.554 92.56 148.554 93.6V99H146.054V88.32H148.434V89.7C148.847 89.2067 149.367 88.8333 149.994 88.58C150.621 88.3267 151.327 88.2 152.114 88.2ZM166.165 98.42C165.872 98.66 165.512 98.84 165.085 98.96C164.672 99.08 164.232 99.14 163.765 99.14C162.592 99.14 161.685 98.8333 161.045 98.22C160.405 97.6067 160.085 96.7133 160.085 95.54V90.4H158.325V88.4H160.085V85.96H162.585V88.4H165.445V90.4H162.585V95.48C162.585 96 162.712 96.4 162.965 96.68C163.219 96.9467 163.585 97.08 164.065 97.08C164.625 97.08 165.092 96.9333 165.465 96.64L166.165 98.42ZM171.522 99.14C170.655 99.14 169.809 99.0267 168.982 98.8C168.155 98.5733 167.495 98.2867 167.002 97.94L167.962 96.04C168.442 96.36 169.015 96.62 169.682 96.82C170.362 97.0067 171.029 97.1 171.682 97.1C173.175 97.1 173.922 96.7067 173.922 95.92C173.922 95.5467 173.729 95.2867 173.342 95.14C172.969 94.9933 172.362 94.8533 171.522 94.72C170.642 94.5867 169.922 94.4333 169.362 94.26C168.815 94.0867 168.335 93.7867 167.922 93.36C167.522 92.92 167.322 92.3133 167.322 91.54C167.322 90.5267 167.742 89.72 168.582 89.12C169.435 88.5067 170.582 88.2 172.022 88.2C172.755 88.2 173.489 88.2867 174.222 88.46C174.955 88.62 175.555 88.84 176.022 89.12L175.062 91.02C174.155 90.4867 173.135 90.22 172.002 90.22C171.269 90.22 170.709 90.3333 170.322 90.56C169.949 90.7733 169.762 91.06 169.762 91.42C169.762 91.82 169.962 92.1067 170.362 92.28C170.775 92.44 171.409 92.5933 172.262 92.74C173.115 92.8733 173.815 93.0267 174.362 93.2C174.909 93.3733 175.375 93.6667 175.762 94.08C176.162 94.4933 176.362 95.08 176.362 95.84C176.362 96.84 175.929 97.64 175.062 98.24C174.195 98.84 173.015 99.14 171.522 99.14Z" fill="#4B525C"/>
</g>
<path d="M52.126 22.76H45.126L43.746 26H41.066L47.366 12H49.926L56.246 26H53.526L52.126 22.76ZM51.266 20.72L48.626 14.6L46.006 20.72H51.266ZM69.2338 15.2C70.2738 15.2 71.2005 15.4267 72.0138 15.88C72.8405 16.3333 73.4872 16.9733 73.9538 17.8C74.4205 18.6267 74.6538 19.58 74.6538 20.66C74.6538 21.74 74.4205 22.7 73.9538 23.54C73.4872 24.3667 72.8405 25.0067 72.0138 25.46C71.2005 25.9133 70.2738 26.14 69.2338 26.14C67.7938 26.14 66.6538 25.66 65.8138 24.7V29.88H63.3138V15.32H65.6938V16.72C66.1072 16.2133 66.6138 15.8333 67.2138 15.58C67.8272 15.3267 68.5005 15.2 69.2338 15.2ZM68.9538 24C69.8738 24 70.6272 23.6933 71.2138 23.08C71.8138 22.4667 72.1138 21.66 72.1138 20.66C72.1138 19.66 71.8138 18.8533 71.2138 18.24C70.6272 17.6267 69.8738 17.32 68.9538 17.32C68.3538 17.32 67.8138 17.46 67.3338 17.74C66.8538 18.0067 66.4738 18.3933 66.1938 18.9C65.9138 19.4067 65.7738 19.9933 65.7738 20.66C65.7738 21.3267 65.9138 21.9133 66.1938 22.42C66.4738 22.9267 66.8538 23.32 67.3338 23.6C67.8138 23.8667 68.3538 24 68.9538 24ZM77.0248 11.16H79.5248V26H77.0248V11.16ZM86.886 15.2C88.4593 15.2 89.6593 15.58 90.486 16.34C91.326 17.0867 91.746 18.22 91.746 19.74V26H89.386V24.7C89.0793 25.1667 88.6393 25.5267 88.066 25.78C87.506 26.02 86.826 26.14 86.026 26.14C85.226 26.14 84.526 26.0067 83.926 25.74C83.326 25.46 82.8593 25.08 82.526 24.6C82.206 24.1067 82.046 23.5533 82.046 22.94C82.046 21.98 82.3993 21.2133 83.106 20.64C83.826 20.0533 84.9527 19.76 86.486 19.76H89.246V19.6C89.246 18.8533 89.0193 18.28 88.566 17.88C88.126 17.48 87.466 17.28 86.586 17.28C85.986 17.28 85.3927 17.3733 84.806 17.56C84.2327 17.7467 83.746 18.0067 83.346 18.34L82.366 16.52C82.926 16.0933 83.5993 15.7667 84.386 15.54C85.1727 15.3133 86.006 15.2 86.886 15.2ZM86.546 24.32C87.1727 24.32 87.726 24.18 88.206 23.9C88.6993 23.6067 89.046 23.1933 89.246 22.66V21.42H86.666C85.226 21.42 84.506 21.8933 84.506 22.84C84.506 23.2933 84.686 23.6533 85.046 23.92C85.406 24.1867 85.906 24.32 86.546 24.32ZM101.374 25.42C101.081 25.66 100.721 25.84 100.294 25.96C99.8811 26.08 99.4411 26.14 98.9745 26.14C97.8011 26.14 96.8945 25.8333 96.2545 25.22C95.6145 24.6067 95.2945 23.7133 95.2945 22.54V17.4H93.5345V15.4H95.2945V12.96H97.7945V15.4H100.654V17.4H97.7945V22.48C97.7945 23 97.9211 23.4 98.1745 23.68C98.4278 23.9467 98.7945 24.08 99.2745 24.08C99.8345 24.08 100.301 23.9333 100.674 23.64L101.374 25.42ZM107.771 13.04C106.718 13.04 106.191 13.6133 106.191 14.76V15.4H109.131V17.4H106.271V26H103.771V17.4H102.011V15.4H103.771V14.72C103.771 13.5733 104.104 12.6733 104.771 12.02C105.438 11.3533 106.378 11.02 107.591 11.02C108.551 11.02 109.304 11.2133 109.851 11.6L109.151 13.48C108.724 13.1867 108.264 13.04 107.771 13.04ZM115.458 26.14C114.378 26.14 113.404 25.9067 112.538 25.44C111.671 24.9733 110.991 24.3267 110.498 23.5C110.018 22.66 109.778 21.7133 109.778 20.66C109.778 19.6067 110.018 18.6667 110.498 17.84C110.991 17.0133 111.671 16.3667 112.538 15.9C113.404 15.4333 114.378 15.2 115.458 15.2C116.551 15.2 117.531 15.4333 118.398 15.9C119.264 16.3667 119.938 17.0133 120.418 17.84C120.911 18.6667 121.158 19.6067 121.158 20.66C121.158 21.7133 120.911 22.66 120.418 23.5C119.938 24.3267 119.264 24.9733 118.398 25.44C117.531 25.9067 116.551 26.14 115.458 26.14ZM115.458 24C116.378 24 117.138 23.6933 117.738 23.08C118.338 22.4667 118.638 21.66 118.638 20.66C118.638 19.66 118.338 18.8533 117.738 18.24C117.138 17.6267 116.378 17.32 115.458 17.32C114.538 17.32 113.778 17.6267 113.178 18.24C112.591 18.8533 112.298 19.66 112.298 20.66C112.298 21.66 112.591 22.4667 113.178 23.08C113.778 23.6933 114.538 24 115.458 24ZM125.928 16.88C126.648 15.76 127.915 15.2 129.728 15.2V17.58C129.515 17.54 129.322 17.52 129.148 17.52C128.175 17.52 127.415 17.8067 126.868 18.38C126.322 18.94 126.048 19.7533 126.048 20.82V26H123.548V15.32H125.928V16.88ZM145.329 15.2C146.676 15.2 147.742 15.5933 148.529 16.38C149.316 17.1533 149.709 18.32 149.709 19.88V26H147.209V20.2C147.209 19.2667 147.002 18.5667 146.589 18.1C146.176 17.62 145.582 17.38 144.809 17.38C143.969 17.38 143.296 17.66 142.789 18.22C142.282 18.7667 142.029 19.5533 142.029 20.58V26H139.529V20.2C139.529 19.2667 139.322 18.5667 138.909 18.1C138.496 17.62 137.902 17.38 137.129 17.38C136.276 17.38 135.596 17.6533 135.089 18.2C134.596 18.7467 134.349 19.54 134.349 20.58V26H131.849V15.32H134.229V16.68C134.629 16.2 135.129 15.8333 135.729 15.58C136.329 15.3267 136.996 15.2 137.729 15.2C138.529 15.2 139.236 15.3533 139.849 15.66C140.476 15.9533 140.969 16.3933 141.329 16.98C141.769 16.42 142.336 15.9867 143.029 15.68C143.722 15.36 144.489 15.2 145.329 15.2ZM162.771 13.04C161.718 13.04 161.191 13.6133 161.191 14.76V15.4H164.131V17.4H161.271V26H158.771V17.4H157.011V15.4H158.771V14.72C158.771 13.5733 159.104 12.6733 159.771 12.02C160.438 11.3533 161.378 11.02 162.591 11.02C163.551 11.02 164.304 11.2133 164.851 11.6L164.151 13.48C163.724 13.1867 163.264 13.04 162.771 13.04ZM170.458 26.14C169.378 26.14 168.404 25.9067 167.538 25.44C166.671 24.9733 165.991 24.3267 165.498 23.5C165.018 22.66 164.778 21.7133 164.778 20.66C164.778 19.6067 165.018 18.6667 165.498 17.84C165.991 17.0133 166.671 16.3667 167.538 15.9C168.404 15.4333 169.378 15.2 170.458 15.2C171.551 15.2 172.531 15.4333 173.398 15.9C174.264 16.3667 174.938 17.0133 175.418 17.84C175.911 18.6667 176.158 19.6067 176.158 20.66C176.158 21.7133 175.911 22.66 175.418 23.5C174.938 24.3267 174.264 24.9733 173.398 25.44C172.531 25.9067 171.551 26.14 170.458 26.14ZM170.458 24C171.378 24 172.138 23.6933 172.738 23.08C173.338 22.4667 173.638 21.66 173.638 20.66C173.638 19.66 173.338 18.8533 172.738 18.24C172.138 17.6267 171.378 17.32 170.458 17.32C169.538 17.32 168.778 17.6267 168.178 18.24C167.591 18.8533 167.298 19.66 167.298 20.66C167.298 21.66 167.591 22.4667 168.178 23.08C168.778 23.6933 169.538 24 170.458 24ZM180.928 16.88C181.648 15.76 182.915 15.2 184.728 15.2V17.58C184.515 17.54 184.322 17.52 184.148 17.52C183.175 17.52 182.415 17.8067 181.868 18.38C181.322 18.94 181.048 19.7533 181.048 20.82V26H178.548V15.32H180.928V16.88ZM21.8662 50.14C20.7595 50.14 19.7662 49.9067 18.8862 49.44C18.0062 48.9733 17.3195 48.3267 16.8262 47.5C16.3328 46.66 16.0862 45.7133 16.0862 44.66C16.0862 43.6067 16.3328 42.6667 16.8262 41.84C17.3195 41.0133 17.9995 40.3667 18.8662 39.9C19.7462 39.4333 20.7462 39.2 21.8662 39.2C22.9195 39.2 23.8395 39.4133 24.6262 39.84C25.4262 40.2667 26.0262 40.88 26.4262 41.68L24.5062 42.8C24.1995 42.3067 23.8128 41.94 23.3462 41.7C22.8928 41.4467 22.3928 41.32 21.8462 41.32C20.9128 41.32 20.1395 41.6267 19.5262 42.24C18.9128 42.84 18.6062 43.6467 18.6062 44.66C18.6062 45.6733 18.9062 46.4867 19.5062 47.1C20.1195 47.7 20.8995 48 21.8462 48C22.3928 48 22.8928 47.88 23.3462 47.64C23.8128 47.3867 24.1995 47.0133 24.5062 46.52L26.4262 47.64C26.0128 48.44 25.4062 49.06 24.6062 49.5C23.8195 49.9267 22.9062 50.14 21.8662 50.14ZM33.231 50.14C32.151 50.14 31.1777 49.9067 30.311 49.44C29.4443 48.9733 28.7643 48.3267 28.271 47.5C27.791 46.66 27.551 45.7133 27.551 44.66C27.551 43.6067 27.791 42.6667 28.271 41.84C28.7643 41.0133 29.4443 40.3667 30.311 39.9C31.1777 39.4333 32.151 39.2 33.231 39.2C34.3243 39.2 35.3043 39.4333 36.171 39.9C37.0377 40.3667 37.711 41.0133 38.191 41.84C38.6844 42.6667 38.931 43.6067 38.931 44.66C38.931 45.7133 38.6844 46.66 38.191 47.5C37.711 48.3267 37.0377 48.9733 36.171 49.44C35.3043 49.9067 34.3243 50.14 33.231 50.14ZM33.231 48C34.151 48 34.911 47.6933 35.511 47.08C36.111 46.4667 36.411 45.66 36.411 44.66C36.411 43.66 36.111 42.8533 35.511 42.24C34.911 41.6267 34.151 41.32 33.231 41.32C32.311 41.32 31.551 41.6267 30.951 42.24C30.3643 42.8533 30.071 43.66 30.071 44.66C30.071 45.66 30.3643 46.4667 30.951 47.08C31.551 47.6933 32.311 48 33.231 48ZM54.8016 39.2C56.1483 39.2 57.215 39.5933 58.0016 40.38C58.7883 41.1533 59.1816 42.32 59.1816 43.88V50H56.6816V44.2C56.6816 43.2667 56.475 42.5667 56.0616 42.1C55.6483 41.62 55.055 41.38 54.2816 41.38C53.4416 41.38 52.7683 41.66 52.2616 42.22C51.755 42.7667 51.5016 43.5533 51.5016 44.58V50H49.0016V44.2C49.0016 43.2667 48.795 42.5667 48.3816 42.1C47.9683 41.62 47.375 41.38 46.6016 41.38C45.7483 41.38 45.0683 41.6533 44.5616 42.2C44.0683 42.7467 43.8216 43.54 43.8216 44.58V50H41.3216V39.32H43.7016V40.68C44.1016 40.2 44.6016 39.8333 45.2016 39.58C45.8016 39.3267 46.4683 39.2 47.2016 39.2C48.0016 39.2 48.7083 39.3533 49.3216 39.66C49.9483 39.9533 50.4416 40.3933 50.8016 40.98C51.2416 40.42 51.8083 39.9867 52.5016 39.68C53.195 39.36 53.9616 39.2 54.8016 39.2ZM75.8563 39.2C77.203 39.2 78.2697 39.5933 79.0563 40.38C79.843 41.1533 80.2363 42.32 80.2363 43.88V50H77.7363V44.2C77.7363 43.2667 77.5297 42.5667 77.1163 42.1C76.703 41.62 76.1097 41.38 75.3363 41.38C74.4963 41.38 73.823 41.66 73.3163 42.22C72.8097 42.7667 72.5563 43.5533 72.5563 44.58V50H70.0563V44.2C70.0563 43.2667 69.8497 42.5667 69.4363 42.1C69.023 41.62 68.4297 41.38 67.6563 41.38C66.803 41.38 66.123 41.6533 65.6163 42.2C65.123 42.7467 64.8763 43.54 64.8763 44.58V50H62.3763V39.32H64.7563V40.68C65.1563 40.2 65.6563 39.8333 66.2563 39.58C66.8563 39.3267 67.523 39.2 68.2563 39.2C69.0563 39.2 69.763 39.3533 70.3763 39.66C71.003 39.9533 71.4963 40.3933 71.8563 40.98C72.2963 40.42 72.863 39.9867 73.5563 39.68C74.2497 39.36 75.0163 39.2 75.8563 39.2ZM93.771 39.32V50H91.391V48.64C90.991 49.12 90.491 49.4933 89.891 49.76C89.291 50.0133 88.6443 50.14 87.951 50.14C86.5243 50.14 85.3977 49.7467 84.571 48.96C83.7577 48.16 83.351 46.98 83.351 45.42V39.32H85.851V45.08C85.851 46.04 86.0643 46.76 86.491 47.24C86.931 47.7067 87.551 47.94 88.351 47.94C89.2443 47.94 89.951 47.6667 90.471 47.12C91.0043 46.56 91.271 45.76 91.271 44.72V39.32H93.771ZM103.104 39.2C104.451 39.2 105.531 39.5933 106.344 40.38C107.158 41.1667 107.564 42.3333 107.564 43.88V50H105.064V44.2C105.064 43.2667 104.844 42.5667 104.404 42.1C103.964 41.62 103.338 41.38 102.524 41.38C101.604 41.38 100.878 41.66 100.344 42.22C99.811 42.7667 99.5443 43.56 99.5443 44.6V50H97.0443V39.32H99.4243V40.7C99.8376 40.2067 100.358 39.8333 100.984 39.58C101.611 39.3267 102.318 39.2 103.104 39.2ZM110.736 39.32H113.236V50H110.736V39.32ZM111.996 37.56C111.542 37.56 111.162 37.42 110.856 37.14C110.549 36.8467 110.396 36.4867 110.396 36.06C110.396 35.6333 110.549 35.28 110.856 35C111.162 34.7067 111.542 34.56 111.996 34.56C112.449 34.56 112.829 34.7 113.136 34.98C113.442 35.2467 113.596 35.5867 113.596 36C113.596 36.44 113.442 36.8133 113.136 37.12C112.842 37.4133 112.462 37.56 111.996 37.56ZM121.417 50.14C120.31 50.14 119.317 49.9067 118.437 49.44C117.557 48.9733 116.87 48.3267 116.377 47.5C115.884 46.66 115.637 45.7133 115.637 44.66C115.637 43.6067 115.884 42.6667 116.377 41.84C116.87 41.0133 117.55 40.3667 118.417 39.9C119.297 39.4333 120.297 39.2 121.417 39.2C122.47 39.2 123.39 39.4133 124.177 39.84C124.977 40.2667 125.577 40.88 125.977 41.68L124.057 42.8C123.75 42.3067 123.364 41.94 122.897 41.7C122.444 41.4467 121.944 41.32 121.397 41.32C120.464 41.32 119.69 41.6267 119.077 42.24C118.464 42.84 118.157 43.6467 118.157 44.66C118.157 45.6733 118.457 46.4867 119.057 47.1C119.67 47.7 120.45 48 121.397 48C121.944 48 122.444 47.88 122.897 47.64C123.364 47.3867 123.75 47.0133 124.057 46.52L125.977 47.64C125.564 48.44 124.957 49.06 124.157 49.5C123.37 49.9267 122.457 50.14 121.417 50.14ZM132.218 39.2C133.791 39.2 134.991 39.58 135.818 40.34C136.658 41.0867 137.078 42.22 137.078 43.74V50H134.718V48.7C134.411 49.1667 133.971 49.5267 133.398 49.78C132.838 50.02 132.158 50.14 131.358 50.14C130.558 50.14 129.858 50.0067 129.258 49.74C128.658 49.46 128.191 49.08 127.858 48.6C127.538 48.1067 127.378 47.5533 127.378 46.94C127.378 45.98 127.731 45.2133 128.438 44.64C129.158 44.0533 130.285 43.76 131.818 43.76H134.578V43.6C134.578 42.8533 134.351 42.28 133.898 41.88C133.458 41.48 132.798 41.28 131.918 41.28C131.318 41.28 130.725 41.3733 130.138 41.56C129.565 41.7467 129.078 42.0067 128.678 42.34L127.698 40.52C128.258 40.0933 128.931 39.7667 129.718 39.54C130.505 39.3133 131.338 39.2 132.218 39.2ZM131.878 48.32C132.505 48.32 133.058 48.18 133.538 47.9C134.031 47.6067 134.378 47.1933 134.578 46.66V45.42H131.998C130.558 45.42 129.838 45.8933 129.838 46.84C129.838 47.2933 130.018 47.6533 130.378 47.92C130.738 48.1867 131.238 48.32 131.878 48.32ZM146.706 49.42C146.413 49.66 146.053 49.84 145.626 49.96C145.213 50.08 144.773 50.14 144.306 50.14C143.133 50.14 142.226 49.8333 141.586 49.22C140.946 48.6067 140.626 47.7133 140.626 46.54V41.4H138.866V39.4H140.626V36.96H143.126V39.4H145.986V41.4H143.126V46.48C143.126 47 143.253 47.4 143.506 47.68C143.76 47.9467 144.126 48.08 144.606 48.08C145.166 48.08 145.633 47.9333 146.006 47.64L146.706 49.42ZM148.763 39.32H151.263V50H148.763V39.32ZM150.023 37.56C149.57 37.56 149.19 37.42 148.883 37.14C148.576 36.8467 148.423 36.4867 148.423 36.06C148.423 35.6333 148.576 35.28 148.883 35C149.19 34.7067 149.57 34.56 150.023 34.56C150.476 34.56 150.856 34.7 151.163 34.98C151.47 35.2467 151.623 35.5867 151.623 36C151.623 36.44 151.47 36.8133 151.163 37.12C150.87 37.4133 150.49 37.56 150.023 37.56ZM159.344 50.14C158.264 50.14 157.291 49.9067 156.424 49.44C155.558 48.9733 154.878 48.3267 154.384 47.5C153.904 46.66 153.664 45.7133 153.664 44.66C153.664 43.6067 153.904 42.6667 154.384 41.84C154.878 41.0133 155.558 40.3667 156.424 39.9C157.291 39.4333 158.264 39.2 159.344 39.2C160.438 39.2 161.418 39.4333 162.284 39.9C163.151 40.3667 163.824 41.0133 164.304 41.84C164.798 42.6667 165.044 43.6067 165.044 44.66C165.044 45.7133 164.798 46.66 164.304 47.5C163.824 48.3267 163.151 48.9733 162.284 49.44C161.418 49.9067 160.438 50.14 159.344 50.14ZM159.344 48C160.264 48 161.024 47.6933 161.624 47.08C162.224 46.4667 162.524 45.66 162.524 44.66C162.524 43.66 162.224 42.8533 161.624 42.24C161.024 41.6267 160.264 41.32 159.344 41.32C158.424 41.32 157.664 41.6267 157.064 42.24C156.478 42.8533 156.184 43.66 156.184 44.66C156.184 45.66 156.478 46.4667 157.064 47.08C157.664 47.6933 158.424 48 159.344 48ZM173.495 39.2C174.842 39.2 175.922 39.5933 176.735 40.38C177.548 41.1667 177.955 42.3333 177.955 43.88V50H175.455V44.2C175.455 43.2667 175.235 42.5667 174.795 42.1C174.355 41.62 173.728 41.38 172.915 41.38C171.995 41.38 171.268 41.66 170.735 42.22C170.202 42.7667 169.935 43.56 169.935 44.6V50H167.435V39.32H169.815V40.7C170.228 40.2067 170.748 39.8333 171.375 39.58C172.002 39.3267 172.708 39.2 173.495 39.2ZM190.734 39.2C192.307 39.2 193.507 39.58 194.334 40.34C195.174 41.0867 195.594 42.22 195.594 43.74V50H193.234V48.7C192.927 49.1667 192.487 49.5267 191.914 49.78C191.354 50.02 190.674 50.14 189.874 50.14C189.074 50.14 188.374 50.0067 187.774 49.74C187.174 49.46 186.707 49.08 186.374 48.6C186.054 48.1067 185.894 47.5533 185.894 46.94C185.894 45.98 186.247 45.2133 186.954 44.64C187.674 44.0533 188.8 43.76 190.334 43.76H193.094V43.6C193.094 42.8533 192.867 42.28 192.414 41.88C191.974 41.48 191.314 41.28 190.434 41.28C189.834 41.28 189.24 41.3733 188.654 41.56C188.08 41.7467 187.594 42.0067 187.194 42.34L186.214 40.52C186.774 40.0933 187.447 39.7667 188.234 39.54C189.02 39.3133 189.854 39.2 190.734 39.2ZM190.394 48.32C191.02 48.32 191.574 48.18 192.054 47.9C192.547 47.6067 192.894 47.1933 193.094 46.66V45.42H190.514C189.074 45.42 188.354 45.8933 188.354 46.84C188.354 47.2933 188.534 47.6533 188.894 47.92C189.254 48.1867 189.754 48.32 190.394 48.32ZM198.802 39.32H201.302V50H198.802V39.32ZM200.062 37.56C199.609 37.56 199.229 37.42 198.922 37.14C198.615 36.8467 198.462 36.4867 198.462 36.06C198.462 35.6333 198.615 35.28 198.922 35C199.229 34.7067 199.609 34.56 200.062 34.56C200.515 34.56 200.895 34.7 201.202 34.98C201.509 35.2467 201.662 35.5867 201.662 36C201.662 36.44 201.509 36.8133 201.202 37.12C200.909 37.4133 200.529 37.56 200.062 37.56ZM215.043 35.16V50H212.643V48.62C212.23 49.1267 211.717 49.5067 211.103 49.76C210.503 50.0133 209.837 50.14 209.103 50.14C208.077 50.14 207.15 49.9133 206.323 49.46C205.51 49.0067 204.87 48.3667 204.403 47.54C203.937 46.7 203.703 45.74 203.703 44.66C203.703 43.58 203.937 42.6267 204.403 41.8C204.87 40.9733 205.51 40.3333 206.323 39.88C207.15 39.4267 208.077 39.2 209.103 39.2C209.81 39.2 210.457 39.32 211.043 39.56C211.63 39.8 212.13 40.16 212.543 40.64V35.16H215.043ZM209.403 48C210.003 48 210.543 47.8667 211.023 47.6C211.503 47.32 211.883 46.9267 212.163 46.42C212.443 45.9133 212.583 45.3267 212.583 44.66C212.583 43.9933 212.443 43.4067 212.163 42.9C211.883 42.3933 211.503 42.0067 211.023 41.74C210.543 41.46 210.003 41.32 209.403 41.32C208.803 41.32 208.263 41.46 207.783 41.74C207.303 42.0067 206.923 42.3933 206.643 42.9C206.363 43.4067 206.223 43.9933 206.223 44.66C206.223 45.3267 206.363 45.9133 206.643 46.42C206.923 46.9267 207.303 47.32 207.783 47.6C208.263 47.8667 208.803 48 209.403 48ZM55.897 74.14C54.817 74.14 53.8437 73.9067 52.977 73.44C52.1104 72.9733 51.4304 72.3267 50.937 71.5C50.457 70.66 50.217 69.7133 50.217 68.66C50.217 67.6067 50.457 66.6667 50.937 65.84C51.4304 65.0133 52.1104 64.3667 52.977 63.9C53.8437 63.4333 54.817 63.2 55.897 63.2C56.9904 63.2 57.9704 63.4333 58.837 63.9C59.7037 64.3667 60.377 65.0133 60.857 65.84C61.3504 66.6667 61.597 67.6067 61.597 68.66C61.597 69.7133 61.3504 70.66 60.857 71.5C60.377 72.3267 59.7037 72.9733 58.837 73.44C57.9704 73.9067 56.9904 74.14 55.897 74.14ZM55.897 72C56.817 72 57.577 71.6933 58.177 71.08C58.777 70.4667 59.077 69.66 59.077 68.66C59.077 67.66 58.777 66.8533 58.177 66.24C57.577 65.6267 56.817 65.32 55.897 65.32C54.977 65.32 54.217 65.6267 53.617 66.24C53.0304 66.8533 52.737 67.66 52.737 68.66C52.737 69.66 53.0304 70.4667 53.617 71.08C54.217 71.6933 54.977 72 55.897 72ZM68.3277 61.04C67.2743 61.04 66.7477 61.6133 66.7477 62.76V63.4H69.6877V65.4H66.8277V74H64.3277V65.4H62.5677V63.4H64.3277V62.72C64.3277 61.5733 64.661 60.6733 65.3277 60.02C65.9943 59.3533 66.9343 59.02 68.1477 59.02C69.1077 59.02 69.861 59.2133 70.4077 59.6L69.7077 61.48C69.281 61.1867 68.821 61.04 68.3277 61.04ZM87.3578 59.16V74H84.9578V72.62C84.5445 73.1267 84.0311 73.5067 83.4178 73.76C82.8178 74.0133 82.1511 74.14 81.4178 74.14C80.3911 74.14 79.4645 73.9133 78.6378 73.46C77.8245 73.0067 77.1845 72.3667 76.7178 71.54C76.2511 70.7 76.0178 69.74 76.0178 68.66C76.0178 67.58 76.2511 66.6267 76.7178 65.8C77.1845 64.9733 77.8245 64.3333 78.6378 63.88C79.4645 63.4267 80.3911 63.2 81.4178 63.2C82.1245 63.2 82.7711 63.32 83.3578 63.56C83.9445 63.8 84.4445 64.16 84.8578 64.64V59.16H87.3578ZM81.7178 72C82.3178 72 82.8578 71.8667 83.3378 71.6C83.8178 71.32 84.1978 70.9267 84.4778 70.42C84.7578 69.9133 84.8978 69.3267 84.8978 68.66C84.8978 67.9933 84.7578 67.4067 84.4778 66.9C84.1978 66.3933 83.8178 66.0067 83.3378 65.74C82.8578 65.46 82.3178 65.32 81.7178 65.32C81.1178 65.32 80.5778 65.46 80.0978 65.74C79.6178 66.0067 79.2378 66.3933 78.9578 66.9C78.6778 67.4067 78.5378 67.9933 78.5378 68.66C78.5378 69.3267 78.6778 69.9133 78.9578 70.42C79.2378 70.9267 79.6178 71.32 80.0978 71.6C80.5778 71.8667 81.1178 72 81.7178 72ZM100.668 68.72C100.668 68.8933 100.655 69.14 100.628 69.46H92.2483C92.3949 70.2467 92.7749 70.8733 93.3883 71.34C94.0149 71.7933 94.7883 72.02 95.7083 72.02C96.8816 72.02 97.8483 71.6333 98.6083 70.86L99.9483 72.4C99.4683 72.9733 98.8616 73.4067 98.1283 73.7C97.3949 73.9933 96.5683 74.14 95.6483 74.14C94.4749 74.14 93.4416 73.9067 92.5483 73.44C91.6549 72.9733 90.9616 72.3267 90.4683 71.5C89.9883 70.66 89.7483 69.7133 89.7483 68.66C89.7483 67.62 89.9816 66.6867 90.4483 65.86C90.9283 65.02 91.5883 64.3667 92.4283 63.9C93.2683 63.4333 94.2149 63.2 95.2683 63.2C96.3083 63.2 97.2349 63.4333 98.0483 63.9C98.8749 64.3533 99.5149 65 99.9683 65.84C100.435 66.6667 100.668 67.6267 100.668 68.72ZM95.2683 65.2C94.4683 65.2 93.7883 65.44 93.2283 65.92C92.6816 66.3867 92.3483 67.0133 92.2283 67.8H98.2883C98.1816 67.0267 97.8549 66.4 97.3083 65.92C96.7616 65.44 96.0816 65.2 95.2683 65.2ZM108.99 63.2C110.03 63.2 110.956 63.4267 111.77 63.88C112.596 64.3333 113.243 64.9733 113.71 65.8C114.176 66.6267 114.41 67.58 114.41 68.66C114.41 69.74 114.176 70.7 113.71 71.54C113.243 72.3667 112.596 73.0067 111.77 73.46C110.956 73.9133 110.03 74.14 108.99 74.14C107.55 74.14 106.41 73.66 105.57 72.7V77.88H103.07V63.32H105.45V64.72C105.863 64.2133 106.37 63.8333 106.97 63.58C107.583 63.3267 108.256 63.2 108.99 63.2ZM108.71 72C109.63 72 110.383 71.6933 110.97 71.08C111.57 70.4667 111.87 69.66 111.87 68.66C111.87 67.66 111.57 66.8533 110.97 66.24C110.383 65.6267 109.63 65.32 108.71 65.32C108.11 65.32 107.57 65.46 107.09 65.74C106.61 66.0067 106.23 66.3933 105.95 66.9C105.67 67.4067 105.53 67.9933 105.53 68.66C105.53 69.3267 105.67 69.9133 105.95 70.42C106.23 70.9267 106.61 71.32 107.09 71.6C107.57 71.8667 108.11 72 108.71 72ZM119.161 64.88C119.881 63.76 121.147 63.2 122.961 63.2V65.58C122.747 65.54 122.554 65.52 122.381 65.52C121.407 65.52 120.647 65.8067 120.101 66.38C119.554 66.94 119.281 67.7533 119.281 68.82V74H116.781V63.32H119.161V64.88ZM135.024 68.72C135.024 68.8933 135.01 69.14 134.984 69.46H126.604C126.75 70.2467 127.13 70.8733 127.744 71.34C128.37 71.7933 129.144 72.02 130.064 72.02C131.237 72.02 132.204 71.6333 132.964 70.86L134.304 72.4C133.824 72.9733 133.217 73.4067 132.484 73.7C131.75 73.9933 130.924 74.14 130.004 74.14C128.83 74.14 127.797 73.9067 126.904 73.44C126.01 72.9733 125.317 72.3267 124.824 71.5C124.344 70.66 124.104 69.7133 124.104 68.66C124.104 67.62 124.337 66.6867 124.804 65.86C125.284 65.02 125.944 64.3667 126.784 63.9C127.624 63.4333 128.57 63.2 129.624 63.2C130.664 63.2 131.59 63.4333 132.404 63.9C133.23 64.3533 133.87 65 134.324 65.84C134.79 66.6667 135.024 67.6267 135.024 68.72ZM129.624 65.2C128.824 65.2 128.144 65.44 127.584 65.92C127.037 66.3867 126.704 67.0133 126.584 67.8H132.644C132.537 67.0267 132.21 66.4 131.664 65.92C131.117 65.44 130.437 65.2 129.624 65.2ZM140.725 74.14C139.858 74.14 139.012 74.0267 138.185 73.8C137.358 73.5733 136.698 73.2867 136.205 72.94L137.165 71.04C137.645 71.36 138.218 71.62 138.885 71.82C139.565 72.0067 140.232 72.1 140.885 72.1C142.378 72.1 143.125 71.7067 143.125 70.92C143.125 70.5467 142.932 70.2867 142.545 70.14C142.172 69.9933 141.565 69.8533 140.725 69.72C139.845 69.5867 139.125 69.4333 138.565 69.26C138.018 69.0867 137.538 68.7867 137.125 68.36C136.725 67.92 136.525 67.3133 136.525 66.54C136.525 65.5267 136.945 64.72 137.785 64.12C138.638 63.5067 139.785 63.2 141.225 63.2C141.958 63.2 142.692 63.2867 143.425 63.46C144.158 63.62 144.758 63.84 145.225 64.12L144.265 66.02C143.358 65.4867 142.338 65.22 141.205 65.22C140.472 65.22 139.912 65.3333 139.525 65.56C139.152 65.7733 138.965 66.06 138.965 66.42C138.965 66.82 139.165 67.1067 139.565 67.28C139.978 67.44 140.612 67.5933 141.465 67.74C142.318 67.8733 143.018 68.0267 143.565 68.2C144.112 68.3733 144.578 68.6667 144.965 69.08C145.365 69.4933 145.565 70.08 145.565 70.84C145.565 71.84 145.132 72.64 144.265 73.24C143.398 73.84 142.218 74.14 140.725 74.14ZM151.018 74.14C150.151 74.14 149.305 74.0267 148.478 73.8C147.651 73.5733 146.991 73.2867 146.498 72.94L147.458 71.04C147.938 71.36 148.511 71.62 149.178 71.82C149.858 72.0067 150.525 72.1 151.178 72.1C152.671 72.1 153.418 71.7067 153.418 70.92C153.418 70.5467 153.225 70.2867 152.838 70.14C152.465 69.9933 151.858 69.8533 151.018 69.72C150.138 69.5867 149.418 69.4333 148.858 69.26C148.311 69.0867 147.831 68.7867 147.418 68.36C147.018 67.92 146.818 67.3133 146.818 66.54C146.818 65.5267 147.238 64.72 148.078 64.12C148.931 63.5067 150.078 63.2 151.518 63.2C152.251 63.2 152.985 63.2867 153.718 63.46C154.451 63.62 155.051 63.84 155.518 64.12L154.558 66.02C153.651 65.4867 152.631 65.22 151.498 65.22C150.765 65.22 150.205 65.3333 149.818 65.56C149.445 65.7733 149.258 66.06 149.258 66.42C149.258 66.82 149.458 67.1067 149.858 67.28C150.271 67.44 150.905 67.5933 151.758 67.74C152.611 67.8733 153.311 68.0267 153.858 68.2C154.405 68.3733 154.871 68.6667 155.258 69.08C155.658 69.4933 155.858 70.08 155.858 70.84C155.858 71.84 155.425 72.64 154.558 73.24C153.691 73.84 152.511 74.14 151.018 74.14ZM168.051 68.72C168.051 68.8933 168.038 69.14 168.011 69.46H159.631C159.778 70.2467 160.158 70.8733 160.771 71.34C161.398 71.7933 162.171 72.02 163.091 72.02C164.264 72.02 165.231 71.6333 165.991 70.86L167.331 72.4C166.851 72.9733 166.244 73.4067 165.511 73.7C164.778 73.9933 163.951 74.14 163.031 74.14C161.858 74.14 160.824 73.9067 159.931 73.44C159.038 72.9733 158.344 72.3267 157.851 71.5C157.371 70.66 157.131 69.7133 157.131 68.66C157.131 67.62 157.364 66.6867 157.831 65.86C158.311 65.02 158.971 64.3667 159.811 63.9C160.651 63.4333 161.598 63.2 162.651 63.2C163.691 63.2 164.618 63.4333 165.431 63.9C166.258 64.3533 166.898 65 167.351 65.84C167.818 66.6667 168.051 67.6267 168.051 68.72ZM162.651 65.2C161.851 65.2 161.171 65.44 160.611 65.92C160.064 66.3867 159.731 67.0133 159.611 67.8H165.671C165.564 67.0267 165.238 66.4 164.691 65.92C164.144 65.44 163.464 65.2 162.651 65.2ZM180.913 59.16V74H178.513V72.62C178.099 73.1267 177.586 73.5067 176.973 73.76C176.373 74.0133 175.706 74.14 174.973 74.14C173.946 74.14 173.019 73.9133 172.193 73.46C171.379 73.0067 170.739 72.3667 170.273 71.54C169.806 70.7 169.573 69.74 169.573 68.66C169.573 67.58 169.806 66.6267 170.273 65.8C170.739 64.9733 171.379 64.3333 172.193 63.88C173.019 63.4267 173.946 63.2 174.973 63.2C175.679 63.2 176.326 63.32 176.913 63.56C177.499 63.8 177.999 64.16 178.413 64.64V59.16H180.913ZM175.273 72C175.873 72 176.413 71.8667 176.893 71.6C177.373 71.32 177.753 70.9267 178.033 70.42C178.313 69.9133 178.453 69.3267 178.453 68.66C178.453 67.9933 178.313 67.4067 178.033 66.9C177.753 66.3933 177.373 66.0067 176.893 65.74C176.413 65.46 175.873 65.32 175.273 65.32C174.673 65.32 174.133 65.46 173.653 65.74C173.173 66.0067 172.793 66.3933 172.513 66.9C172.233 67.4067 172.093 67.9933 172.093 68.66C172.093 69.3267 172.233 69.9133 172.513 70.42C172.793 70.9267 173.173 71.32 173.653 71.6C174.133 71.8667 174.673 72 175.273 72ZM59.845 87.2C61.4183 87.2 62.6183 87.58 63.445 88.34C64.285 89.0867 64.705 90.22 64.705 91.74V98H62.345V96.7C62.0383 97.1667 61.5983 97.5267 61.025 97.78C60.465 98.02 59.785 98.14 58.985 98.14C58.185 98.14 57.485 98.0067 56.885 97.74C56.285 97.46 55.8183 97.08 55.485 96.6C55.165 96.1067 55.005 95.5533 55.005 94.94C55.005 93.98 55.3583 93.2133 56.065 92.64C56.785 92.0533 57.9117 91.76 59.445 91.76H62.205V91.6C62.205 90.8533 61.9783 90.28 61.525 89.88C61.085 89.48 60.425 89.28 59.545 89.28C58.945 89.28 58.3517 89.3733 57.765 89.56C57.1917 89.7467 56.705 90.0067 56.305 90.34L55.325 88.52C55.885 88.0933 56.5583 87.7667 57.345 87.54C58.1317 87.3133 58.965 87.2 59.845 87.2ZM59.505 96.32C60.1317 96.32 60.685 96.18 61.165 95.9C61.6583 95.6067 62.005 95.1933 62.205 94.66V93.42H59.625C58.185 93.42 57.465 93.8933 57.465 94.84C57.465 95.2933 57.645 95.6533 58.005 95.92C58.365 96.1867 58.865 96.32 59.505 96.32ZM78.4711 83.16V98H76.0711V96.62C75.6578 97.1267 75.1444 97.5067 74.5311 97.76C73.9311 98.0133 73.2644 98.14 72.5311 98.14C71.5044 98.14 70.5778 97.9133 69.7511 97.46C68.9378 97.0067 68.2978 96.3667 67.8311 95.54C67.3644 94.7 67.1311 93.74 67.1311 92.66C67.1311 91.58 67.3644 90.6267 67.8311 89.8C68.2978 88.9733 68.9378 88.3333 69.7511 87.88C70.5778 87.4267 71.5044 87.2 72.5311 87.2C73.2378 87.2 73.8844 87.32 74.4711 87.56C75.0578 87.8 75.5578 88.16 75.9711 88.64V83.16H78.4711ZM72.8311 96C73.4311 96 73.9711 95.8667 74.4511 95.6C74.9311 95.32 75.3111 94.9267 75.5911 94.42C75.8711 93.9133 76.0111 93.3267 76.0111 92.66C76.0111 91.9933 75.8711 91.4067 75.5911 90.9C75.3111 90.3933 74.9311 90.0067 74.4511 89.74C73.9711 89.46 73.4311 89.32 72.8311 89.32C72.2311 89.32 71.6911 89.46 71.2111 89.74C70.7311 90.0067 70.3511 90.3933 70.0711 90.9C69.7911 91.4067 69.6511 91.9933 69.6511 92.66C69.6511 93.3267 69.7911 93.9133 70.0711 94.42C70.3511 94.9267 70.7311 95.32 71.2111 95.6C71.6911 95.8667 72.2311 96 72.8311 96ZM86.5416 98.14C85.4616 98.14 84.4882 97.9067 83.6216 97.44C82.7549 96.9733 82.0749 96.3267 81.5816 95.5C81.1016 94.66 80.8616 93.7133 80.8616 92.66C80.8616 91.6067 81.1016 90.6667 81.5816 89.84C82.0749 89.0133 82.7549 88.3667 83.6216 87.9C84.4882 87.4333 85.4616 87.2 86.5416 87.2C87.6349 87.2 88.6149 87.4333 89.4816 87.9C90.3482 88.3667 91.0216 89.0133 91.5016 89.84C91.9949 90.6667 92.2416 91.6067 92.2416 92.66C92.2416 93.7133 91.9949 94.66 91.5016 95.5C91.0216 96.3267 90.3482 96.9733 89.4816 97.44C88.6149 97.9067 87.6349 98.14 86.5416 98.14ZM86.5416 96C87.4616 96 88.2216 95.6933 88.8216 95.08C89.4216 94.4667 89.7216 93.66 89.7216 92.66C89.7216 91.66 89.4216 90.8533 88.8216 90.24C88.2216 89.6267 87.4616 89.32 86.5416 89.32C85.6216 89.32 84.8616 89.6267 84.2616 90.24C83.6749 90.8533 83.3816 91.66 83.3816 92.66C83.3816 93.66 83.6749 94.4667 84.2616 95.08C84.8616 95.6933 85.6216 96 86.5416 96ZM94.6322 83.16H97.1322V98H94.6322V83.16ZM110.453 92.72C110.453 92.8933 110.44 93.14 110.413 93.46H102.033C102.18 94.2467 102.56 94.8733 103.173 95.34C103.8 95.7933 104.573 96.02 105.493 96.02C106.667 96.02 107.633 95.6333 108.393 94.86L109.733 96.4C109.253 96.9733 108.647 97.4067 107.913 97.7C107.18 97.9933 106.353 98.14 105.433 98.14C104.26 98.14 103.227 97.9067 102.333 97.44C101.44 96.9733 100.747 96.3267 100.253 95.5C99.7734 94.66 99.5334 93.7133 99.5334 92.66C99.5334 91.62 99.7668 90.6867 100.233 89.86C100.713 89.02 101.373 88.3667 102.213 87.9C103.053 87.4333 104 87.2 105.053 87.2C106.093 87.2 107.02 87.4333 107.833 87.9C108.66 88.3533 109.3 89 109.753 89.84C110.22 90.6667 110.453 91.6267 110.453 92.72ZM105.053 89.2C104.253 89.2 103.573 89.44 103.013 89.92C102.467 90.3867 102.133 91.0133 102.013 91.8H108.073C107.967 91.0267 107.64 90.4 107.093 89.92C106.547 89.44 105.867 89.2 105.053 89.2ZM116.155 98.14C115.288 98.14 114.442 98.0267 113.615 97.8C112.788 97.5733 112.128 97.2867 111.635 96.94L112.595 95.04C113.075 95.36 113.648 95.62 114.315 95.82C114.995 96.0067 115.662 96.1 116.315 96.1C117.808 96.1 118.555 95.7067 118.555 94.92C118.555 94.5467 118.362 94.2867 117.975 94.14C117.602 93.9933 116.995 93.8533 116.155 93.72C115.275 93.5867 114.555 93.4333 113.995 93.26C113.448 93.0867 112.968 92.7867 112.555 92.36C112.155 91.92 111.955 91.3133 111.955 90.54C111.955 89.5267 112.375 88.72 113.215 88.12C114.068 87.5067 115.215 87.2 116.655 87.2C117.388 87.2 118.122 87.2867 118.855 87.46C119.588 87.62 120.188 87.84 120.655 88.12L119.695 90.02C118.788 89.4867 117.768 89.22 116.635 89.22C115.902 89.22 115.342 89.3333 114.955 89.56C114.582 89.7733 114.395 90.06 114.395 90.42C114.395 90.82 114.595 91.1067 114.995 91.28C115.408 91.44 116.042 91.5933 116.895 91.74C117.748 91.8733 118.448 92.0267 118.995 92.2C119.542 92.3733 120.008 92.6667 120.395 93.08C120.795 93.4933 120.995 94.08 120.995 94.84C120.995 95.84 120.562 96.64 119.695 97.24C118.828 97.84 117.648 98.14 116.155 98.14ZM128.048 98.14C126.941 98.14 125.948 97.9067 125.068 97.44C124.188 96.9733 123.501 96.3267 123.008 95.5C122.514 94.66 122.268 93.7133 122.268 92.66C122.268 91.6067 122.514 90.6667 123.008 89.84C123.501 89.0133 124.181 88.3667 125.048 87.9C125.928 87.4333 126.928 87.2 128.048 87.2C129.101 87.2 130.021 87.4133 130.808 87.84C131.608 88.2667 132.208 88.88 132.608 89.68L130.688 90.8C130.381 90.3067 129.994 89.94 129.528 89.7C129.074 89.4467 128.574 89.32 128.028 89.32C127.094 89.32 126.321 89.6267 125.708 90.24C125.094 90.84 124.788 91.6467 124.788 92.66C124.788 93.6733 125.088 94.4867 125.688 95.1C126.301 95.7 127.081 96 128.028 96C128.574 96 129.074 95.88 129.528 95.64C129.994 95.3867 130.381 95.0133 130.688 94.52L132.608 95.64C132.194 96.44 131.588 97.06 130.788 97.5C130.001 97.9267 129.088 98.14 128.048 98.14ZM144.653 92.72C144.653 92.8933 144.639 93.14 144.613 93.46H136.233C136.379 94.2467 136.759 94.8733 137.373 95.34C137.999 95.7933 138.773 96.02 139.693 96.02C140.866 96.02 141.833 95.6333 142.593 94.86L143.933 96.4C143.453 96.9733 142.846 97.4067 142.113 97.7C141.379 97.9933 140.553 98.14 139.633 98.14C138.459 98.14 137.426 97.9067 136.533 97.44C135.639 96.9733 134.946 96.3267 134.453 95.5C133.973 94.66 133.733 93.7133 133.733 92.66C133.733 91.62 133.966 90.6867 134.433 89.86C134.913 89.02 135.573 88.3667 136.413 87.9C137.253 87.4333 138.199 87.2 139.253 87.2C140.293 87.2 141.219 87.4333 142.033 87.9C142.859 88.3533 143.499 89 143.953 89.84C144.419 90.6667 144.653 91.6267 144.653 92.72ZM139.253 89.2C138.453 89.2 137.773 89.44 137.213 89.92C136.666 90.3867 136.333 91.0133 136.213 91.8H142.273C142.166 91.0267 141.839 90.4 141.293 89.92C140.746 89.44 140.066 89.2 139.253 89.2ZM153.114 87.2C154.461 87.2 155.541 87.5933 156.354 88.38C157.167 89.1667 157.574 90.3333 157.574 91.88V98H155.074V92.2C155.074 91.2667 154.854 90.5667 154.414 90.1C153.974 89.62 153.347 89.38 152.534 89.38C151.614 89.38 150.887 89.66 150.354 90.22C149.821 90.7667 149.554 91.56 149.554 92.6V98H147.054V87.32H149.434V88.7C149.847 88.2067 150.367 87.8333 150.994 87.58C151.621 87.3267 152.327 87.2 153.114 87.2ZM167.165 97.42C166.872 97.66 166.512 97.84 166.085 97.96C165.672 98.08 165.232 98.14 164.765 98.14C163.592 98.14 162.685 97.8333 162.045 97.22C161.405 96.6067 161.085 95.7133 161.085 94.54V89.4H159.325V87.4H161.085V84.96H163.585V87.4H166.445V89.4H163.585V94.48C163.585 95 163.712 95.4 163.965 95.68C164.219 95.9467 164.585 96.08 165.065 96.08C165.625 96.08 166.092 95.9333 166.465 95.64L167.165 97.42ZM172.522 98.14C171.655 98.14 170.809 98.0267 169.982 97.8C169.155 97.5733 168.495 97.2867 168.002 96.94L168.962 95.04C169.442 95.36 170.015 95.62 170.682 95.82C171.362 96.0067 172.029 96.1 172.682 96.1C174.175 96.1 174.922 95.7067 174.922 94.92C174.922 94.5467 174.729 94.2867 174.342 94.14C173.969 93.9933 173.362 93.8533 172.522 93.72C171.642 93.5867 170.922 93.4333 170.362 93.26C169.815 93.0867 169.335 92.7867 168.922 92.36C168.522 91.92 168.322 91.3133 168.322 90.54C168.322 89.5267 168.742 88.72 169.582 88.12C170.435 87.5067 171.582 87.2 173.022 87.2C173.755 87.2 174.489 87.2867 175.222 87.46C175.955 87.62 176.555 87.84 177.022 88.12L176.062 90.02C175.155 89.4867 174.135 89.22 173.002 89.22C172.269 89.22 171.709 89.3333 171.322 89.56C170.949 89.7733 170.762 90.06 170.762 90.42C170.762 90.82 170.962 91.1067 171.362 91.28C171.775 91.44 172.409 91.5933 173.262 91.74C174.115 91.8733 174.815 92.0267 175.362 92.2C175.909 92.3733 176.375 92.6667 176.762 93.08C177.162 93.4933 177.362 94.08 177.362 94.84C177.362 95.84 176.929 96.64 176.062 97.24C175.195 97.84 174.015 98.14 172.522 98.14Z" fill="white"/>
<defs>
<filter id="filter0_d" x="0.0861816" y="0.0200043" width="228.957" height="117.12" filterUnits="userSpaceOnUse" color-interpolation-filters="sRGB">
<feFlood flood-opacity="0" result="BackgroundImageFix"/>
<feColorMatrix in="SourceAlpha" type="matrix" values="0 0 0 0 0 0 0 0 0 0 0 0 0 0 0 0 0 0 127 0"/>
<feOffset dy="3"/>
<feGaussianBlur stdDeviation="7.5"/>
<feColorMatrix type="matrix" values="0 0 0 0 0 0 0 0 0 0 0 0 0 0 0 0 0 0 0.75 0"/>
<feBlend mode="normal" in2="BackgroundImageFix" result="effect1_dropShadow"/>
<feBlend mode="normal" in="SourceGraphic" in2="effect1_dropShadow" result="shape"/>
</filter>
</defs>
</svg>
