<svg width="471" height="313" viewBox="0 0 471 313" fill="none" xmlns="http://www.w3.org/2000/svg">
<g filter="url(#filter0_d)">
<path d="M105.892 104.302H95.742L93.741 109H89.855L98.99 88.7H102.702L111.866 109H107.922L105.892 104.302ZM104.645 101.344L100.817 92.47L97.018 101.344H104.645ZM130.698 93.34C132.206 93.34 133.55 93.6687 134.729 94.326C135.928 94.9833 136.866 95.9113 137.542 97.11C138.219 98.3087 138.557 99.691 138.557 101.257C138.557 102.823 138.219 104.215 137.542 105.433C136.866 106.632 135.928 107.56 134.729 108.217C133.55 108.874 132.206 109.203 130.698 109.203C128.61 109.203 126.957 108.507 125.739 107.115V114.626H122.114V93.514H125.565V95.544C126.165 94.8093 126.899 94.2583 127.769 93.891C128.659 93.5237 129.635 93.34 130.698 93.34ZM130.292 106.1C131.626 106.1 132.719 105.655 133.569 104.766C134.439 103.877 134.874 102.707 134.874 101.257C134.874 99.807 134.439 98.6373 133.569 97.748C132.719 96.8587 131.626 96.414 130.292 96.414C129.422 96.414 128.639 96.617 127.943 97.023C127.247 97.4097 126.696 97.9703 126.29 98.705C125.884 99.4397 125.681 100.29 125.681 101.257C125.681 102.224 125.884 103.074 126.29 103.809C126.696 104.544 127.247 105.114 127.943 105.52C128.639 105.907 129.422 106.1 130.292 106.1ZM141.995 87.482H145.62V109H141.995V87.482ZM156.294 93.34C158.575 93.34 160.315 93.891 161.514 94.993C162.732 96.0757 163.341 97.719 163.341 99.923V109H159.919V107.115C159.474 107.792 158.836 108.314 158.005 108.681C157.193 109.029 156.207 109.203 155.047 109.203C153.887 109.203 152.872 109.01 152.002 108.623C151.132 108.217 150.455 107.666 149.972 106.97C149.508 106.255 149.276 105.452 149.276 104.563C149.276 103.171 149.788 102.059 150.813 101.228C151.857 100.377 153.491 99.952 155.714 99.952H159.716V99.72C159.716 98.6373 159.387 97.806 158.73 97.226C158.092 96.646 157.135 96.356 155.859 96.356C154.989 96.356 154.129 96.4913 153.278 96.762C152.447 97.0327 151.741 97.4097 151.161 97.893L149.74 95.254C150.552 94.6353 151.528 94.1617 152.669 93.833C153.81 93.5043 155.018 93.34 156.294 93.34ZM155.801 106.564C156.71 106.564 157.512 106.361 158.208 105.955C158.923 105.53 159.426 104.93 159.716 104.157V102.359H155.975C153.887 102.359 152.843 103.045 152.843 104.418C152.843 105.075 153.104 105.597 153.626 105.984C154.148 106.371 154.873 106.564 155.801 106.564ZM177.302 108.159C176.877 108.507 176.355 108.768 175.736 108.942C175.137 109.116 174.499 109.203 173.822 109.203C172.121 109.203 170.806 108.758 169.878 107.869C168.95 106.98 168.486 105.684 168.486 103.983V96.53H165.934V93.63H168.486V90.092H172.111V93.63H176.258V96.53H172.111V103.896C172.111 104.65 172.295 105.23 172.662 105.636C173.03 106.023 173.561 106.216 174.257 106.216C175.069 106.216 175.746 106.003 176.287 105.578L177.302 108.159ZM186.577 90.208C185.05 90.208 184.286 91.0393 184.286 92.702V93.63H188.549V96.53H184.402V109H180.777V96.53H178.225V93.63H180.777V92.644C180.777 90.9813 181.261 89.6763 182.227 88.729C183.194 87.7623 184.557 87.279 186.316 87.279C187.708 87.279 188.801 87.5593 189.593 88.12L188.578 90.846C187.96 90.4207 187.293 90.208 186.577 90.208ZM197.723 109.203C196.157 109.203 194.745 108.865 193.489 108.188C192.232 107.511 191.246 106.574 190.531 105.375C189.835 104.157 189.487 102.784 189.487 101.257C189.487 99.7297 189.835 98.3667 190.531 97.168C191.246 95.9693 192.232 95.0317 193.489 94.355C194.745 93.6783 196.157 93.34 197.723 93.34C199.308 93.34 200.729 93.6783 201.986 94.355C203.242 95.0317 204.219 95.9693 204.915 97.168C205.63 98.3667 205.988 99.7297 205.988 101.257C205.988 102.784 205.63 104.157 204.915 105.375C204.219 106.574 203.242 107.511 201.986 108.188C200.729 108.865 199.308 109.203 197.723 109.203ZM197.723 106.1C199.057 106.1 200.159 105.655 201.029 104.766C201.899 103.877 202.334 102.707 202.334 101.257C202.334 99.807 201.899 98.6373 201.029 97.748C200.159 96.8587 199.057 96.414 197.723 96.414C196.389 96.414 195.287 96.8587 194.417 97.748C193.566 98.6373 193.141 99.807 193.141 101.257C193.141 102.707 193.566 103.877 194.417 104.766C195.287 105.655 196.389 106.1 197.723 106.1ZM212.905 95.776C213.949 94.152 215.786 93.34 218.415 93.34V96.791C218.106 96.733 217.826 96.704 217.574 96.704C216.163 96.704 215.061 97.1197 214.268 97.951C213.476 98.763 213.079 99.9423 213.079 101.489V109H209.454V93.514H212.905V95.776ZM241.036 93.34C242.989 93.34 244.536 93.9103 245.676 95.051C246.817 96.1723 247.387 97.864 247.387 100.126V109H243.762V100.59C243.762 99.2367 243.463 98.2217 242.863 97.545C242.264 96.849 241.404 96.501 240.282 96.501C239.064 96.501 238.088 96.907 237.353 97.719C236.619 98.5117 236.251 99.6523 236.251 101.141V109H232.626V100.59C232.626 99.2367 232.327 98.2217 231.727 97.545C231.128 96.849 230.268 96.501 229.146 96.501C227.909 96.501 226.923 96.8973 226.188 97.69C225.473 98.4827 225.115 99.633 225.115 101.141V109H221.49V93.514H224.941V95.486C225.521 94.79 226.246 94.2583 227.116 93.891C227.986 93.5237 228.953 93.34 230.016 93.34C231.176 93.34 232.201 93.5623 233.09 94.007C233.999 94.4323 234.714 95.0703 235.236 95.921C235.874 95.109 236.696 94.4807 237.701 94.036C238.707 93.572 239.818 93.34 241.036 93.34ZM266.327 90.208C264.8 90.208 264.036 91.0393 264.036 92.702V93.63H268.299V96.53H264.152V109H260.527V96.53H257.975V93.63H260.527V92.644C260.527 90.9813 261.011 89.6763 261.977 88.729C262.944 87.7623 264.307 87.279 266.066 87.279C267.458 87.279 268.551 87.5593 269.343 88.12L268.328 90.846C267.71 90.4207 267.043 90.208 266.327 90.208ZM277.473 109.203C275.907 109.203 274.495 108.865 273.239 108.188C271.982 107.511 270.996 106.574 270.281 105.375C269.585 104.157 269.237 102.784 269.237 101.257C269.237 99.7297 269.585 98.3667 270.281 97.168C270.996 95.9693 271.982 95.0317 273.239 94.355C274.495 93.6783 275.907 93.34 277.473 93.34C279.058 93.34 280.479 93.6783 281.736 94.355C282.992 95.0317 283.969 95.9693 284.665 97.168C285.38 98.3667 285.738 99.7297 285.738 101.257C285.738 102.784 285.38 104.157 284.665 105.375C283.969 106.574 282.992 107.511 281.736 108.188C280.479 108.865 279.058 109.203 277.473 109.203ZM277.473 106.1C278.807 106.1 279.909 105.655 280.779 104.766C281.649 103.877 282.084 102.707 282.084 101.257C282.084 99.807 281.649 98.6373 280.779 97.748C279.909 96.8587 278.807 96.414 277.473 96.414C276.139 96.414 275.037 96.8587 274.167 97.748C273.316 98.6373 272.891 99.807 272.891 101.257C272.891 102.707 273.316 103.877 274.167 104.766C275.037 105.655 276.139 106.1 277.473 106.1ZM292.655 95.776C293.699 94.152 295.536 93.34 298.165 93.34V96.791C297.856 96.733 297.576 96.704 297.324 96.704C295.913 96.704 294.811 97.1197 294.018 97.951C293.226 98.763 292.829 99.9423 292.829 101.489V109H289.204V93.514H292.655V95.776ZM99.483 144.203C97.8783 144.203 96.438 143.865 95.162 143.188C93.886 142.511 92.8903 141.574 92.175 140.375C91.4597 139.157 91.102 137.784 91.102 136.257C91.102 134.73 91.4597 133.367 92.175 132.168C92.8903 130.969 93.8763 130.032 95.133 129.355C96.409 128.678 97.859 128.34 99.483 128.34C101.01 128.34 102.344 128.649 103.485 129.268C104.645 129.887 105.515 130.776 106.095 131.936L103.311 133.56C102.866 132.845 102.306 132.313 101.629 131.965C100.972 131.598 100.247 131.414 99.454 131.414C98.1007 131.414 96.9793 131.859 96.09 132.748C95.2007 133.618 94.756 134.788 94.756 136.257C94.756 137.726 95.191 138.906 96.061 139.795C96.9503 140.665 98.0813 141.1 99.454 141.1C100.247 141.1 100.972 140.926 101.629 140.578C102.306 140.211 102.866 139.669 103.311 138.954L106.095 140.578C105.496 141.738 104.616 142.637 103.456 143.275C102.315 143.894 100.991 144.203 99.483 144.203ZM115.962 144.203C114.396 144.203 112.985 143.865 111.728 143.188C110.471 142.511 109.485 141.574 108.77 140.375C108.074 139.157 107.726 137.784 107.726 136.257C107.726 134.73 108.074 133.367 108.77 132.168C109.485 130.969 110.471 130.032 111.728 129.355C112.985 128.678 114.396 128.34 115.962 128.34C117.547 128.34 118.968 128.678 120.225 129.355C121.482 130.032 122.458 130.969 123.154 132.168C123.869 133.367 124.227 134.73 124.227 136.257C124.227 137.784 123.869 139.157 123.154 140.375C122.458 141.574 121.482 142.511 120.225 143.188C118.968 143.865 117.547 144.203 115.962 144.203ZM115.962 141.1C117.296 141.1 118.398 140.655 119.268 139.766C120.138 138.877 120.573 137.707 120.573 136.257C120.573 134.807 120.138 133.637 119.268 132.748C118.398 131.859 117.296 131.414 115.962 131.414C114.628 131.414 113.526 131.859 112.656 132.748C111.805 133.637 111.38 134.807 111.38 136.257C111.38 137.707 111.805 138.877 112.656 139.766C113.526 140.655 114.628 141.1 115.962 141.1ZM147.239 128.34C149.192 128.34 150.739 128.91 151.879 130.051C153.02 131.172 153.59 132.864 153.59 135.126V144H149.965V135.59C149.965 134.237 149.666 133.222 149.066 132.545C148.467 131.849 147.607 131.501 146.485 131.501C145.267 131.501 144.291 131.907 143.556 132.719C142.822 133.512 142.454 134.652 142.454 136.141V144H138.829V135.59C138.829 134.237 138.53 133.222 137.93 132.545C137.331 131.849 136.471 131.501 135.349 131.501C134.112 131.501 133.126 131.897 132.391 132.69C131.676 133.483 131.318 134.633 131.318 136.141V144H127.693V128.514H131.144V130.486C131.724 129.79 132.449 129.258 133.319 128.891C134.189 128.524 135.156 128.34 136.219 128.34C137.379 128.34 138.404 128.562 139.293 129.007C140.202 129.432 140.917 130.07 141.439 130.921C142.077 130.109 142.899 129.481 143.904 129.036C144.91 128.572 146.021 128.34 147.239 128.34ZM177.769 128.34C179.721 128.34 181.268 128.91 182.409 130.051C183.549 131.172 184.12 132.864 184.12 135.126V144H180.495V135.59C180.495 134.237 180.195 133.222 179.596 132.545C178.996 131.849 178.136 131.501 177.015 131.501C175.797 131.501 174.82 131.907 174.086 132.719C173.351 133.512 172.984 134.652 172.984 136.141V144H169.359V135.59C169.359 134.237 169.059 133.222 168.46 132.545C167.86 131.849 167 131.501 165.879 131.501C164.641 131.501 163.655 131.897 162.921 132.69C162.205 133.483 161.848 134.633 161.848 136.141V144H158.223V128.514H161.674V130.486C162.254 129.79 162.979 129.258 163.849 128.891C164.719 128.524 165.685 128.34 166.749 128.34C167.909 128.34 168.933 128.562 169.823 129.007C170.731 129.432 171.447 130.07 171.969 130.921C172.607 130.109 173.428 129.481 174.434 129.036C175.439 128.572 176.551 128.34 177.769 128.34ZM203.745 128.514V144H200.294V142.028C199.714 142.724 198.989 143.265 198.119 143.652C197.249 144.019 196.311 144.203 195.306 144.203C193.237 144.203 191.604 143.633 190.405 142.492C189.226 141.332 188.636 139.621 188.636 137.359V128.514H192.261V136.866C192.261 138.258 192.57 139.302 193.189 139.998C193.827 140.675 194.726 141.013 195.886 141.013C197.181 141.013 198.206 140.617 198.96 139.824C199.733 139.012 200.12 137.852 200.12 136.344V128.514H203.745ZM217.278 128.34C219.231 128.34 220.797 128.91 221.976 130.051C223.156 131.192 223.745 132.883 223.745 135.126V144H220.12V135.59C220.12 134.237 219.801 133.222 219.163 132.545C218.525 131.849 217.617 131.501 216.437 131.501C215.103 131.501 214.05 131.907 213.276 132.719C212.503 133.512 212.116 134.662 212.116 136.17V144H208.491V128.514H211.942V130.515C212.542 129.8 213.296 129.258 214.204 128.891C215.113 128.524 216.138 128.34 217.278 128.34ZM228.344 128.514H231.969V144H228.344V128.514ZM230.171 125.962C229.513 125.962 228.962 125.759 228.518 125.353C228.073 124.928 227.851 124.406 227.851 123.787C227.851 123.168 228.073 122.656 228.518 122.25C228.962 121.825 229.513 121.612 230.171 121.612C230.828 121.612 231.379 121.815 231.824 122.221C232.268 122.608 232.491 123.101 232.491 123.7C232.491 124.338 232.268 124.879 231.824 125.324C231.398 125.749 230.847 125.962 230.171 125.962ZM243.832 144.203C242.227 144.203 240.787 143.865 239.511 143.188C238.235 142.511 237.239 141.574 236.524 140.375C235.808 139.157 235.451 137.784 235.451 136.257C235.451 134.73 235.808 133.367 236.524 132.168C237.239 130.969 238.225 130.032 239.482 129.355C240.758 128.678 242.208 128.34 243.832 128.34C245.359 128.34 246.693 128.649 247.834 129.268C248.994 129.887 249.864 130.776 250.444 131.936L247.66 133.56C247.215 132.845 246.654 132.313 245.978 131.965C245.32 131.598 244.595 131.414 243.803 131.414C242.449 131.414 241.328 131.859 240.439 132.748C239.549 133.618 239.105 134.788 239.105 136.257C239.105 137.726 239.54 138.906 240.41 139.795C241.299 140.665 242.43 141.1 243.803 141.1C244.595 141.1 245.32 140.926 245.978 140.578C246.654 140.211 247.215 139.669 247.66 138.954L250.444 140.578C249.844 141.738 248.965 142.637 247.805 143.275C246.664 143.894 245.34 144.203 243.832 144.203ZM259.493 128.34C261.775 128.34 263.515 128.891 264.713 129.993C265.931 131.076 266.54 132.719 266.54 134.923V144H263.118V142.115C262.674 142.792 262.036 143.314 261.204 143.681C260.392 144.029 259.406 144.203 258.246 144.203C257.086 144.203 256.071 144.01 255.201 143.623C254.331 143.217 253.655 142.666 253.171 141.97C252.707 141.255 252.475 140.452 252.475 139.563C252.475 138.171 252.988 137.059 254.012 136.228C255.056 135.377 256.69 134.952 258.913 134.952H262.915V134.72C262.915 133.637 262.587 132.806 261.929 132.226C261.291 131.646 260.334 131.356 259.058 131.356C258.188 131.356 257.328 131.491 256.477 131.762C255.646 132.033 254.94 132.41 254.36 132.893L252.939 130.254C253.751 129.635 254.728 129.162 255.868 128.833C257.009 128.504 258.217 128.34 259.493 128.34ZM259 141.564C259.909 141.564 260.711 141.361 261.407 140.955C262.123 140.53 262.625 139.93 262.915 139.157V137.359H259.174C257.086 137.359 256.042 138.045 256.042 139.418C256.042 140.075 256.303 140.597 256.825 140.984C257.347 141.371 258.072 141.564 259 141.564ZM280.501 143.159C280.076 143.507 279.554 143.768 278.935 143.942C278.336 144.116 277.698 144.203 277.021 144.203C275.32 144.203 274.005 143.758 273.077 142.869C272.149 141.98 271.685 140.684 271.685 138.983V131.53H269.133V128.63H271.685V125.092H275.31V128.63H279.457V131.53H275.31V138.896C275.31 139.65 275.494 140.23 275.861 140.636C276.229 141.023 276.76 141.216 277.456 141.216C278.268 141.216 278.945 141.003 279.486 140.578L280.501 143.159ZM283.483 128.514H287.108V144H283.483V128.514ZM285.31 125.962C284.653 125.962 284.102 125.759 283.657 125.353C283.213 124.928 282.99 124.406 282.99 123.787C282.99 123.168 283.213 122.656 283.657 122.25C284.102 121.825 284.653 121.612 285.31 121.612C285.968 121.612 286.519 121.815 286.963 122.221C287.408 122.608 287.63 123.101 287.63 123.7C287.63 124.338 287.408 124.879 286.963 125.324C286.538 125.749 285.987 125.962 285.31 125.962ZM298.826 144.203C297.26 144.203 295.849 143.865 294.592 143.188C293.336 142.511 292.35 141.574 291.634 140.375C290.938 139.157 290.59 137.784 290.59 136.257C290.59 134.73 290.938 133.367 291.634 132.168C292.35 130.969 293.336 130.032 294.592 129.355C295.849 128.678 297.26 128.34 298.826 128.34C300.412 128.34 301.833 128.678 303.089 129.355C304.346 130.032 305.322 130.969 306.018 132.168C306.734 133.367 307.091 134.73 307.091 136.257C307.091 137.784 306.734 139.157 306.018 140.375C305.322 141.574 304.346 142.511 303.089 143.188C301.833 143.865 300.412 144.203 298.826 144.203ZM298.826 141.1C300.16 141.1 301.262 140.655 302.132 139.766C303.002 138.877 303.437 137.707 303.437 136.257C303.437 134.807 303.002 133.637 302.132 132.748C301.262 131.859 300.16 131.414 298.826 131.414C297.492 131.414 296.39 131.859 295.52 132.748C294.67 133.637 294.244 134.807 294.244 136.257C294.244 137.707 294.67 138.877 295.52 139.766C296.39 140.655 297.492 141.1 298.826 141.1ZM319.345 128.34C321.297 128.34 322.863 128.91 324.043 130.051C325.222 131.192 325.812 132.883 325.812 135.126V144H322.187V135.59C322.187 134.237 321.868 133.222 321.23 132.545C320.592 131.849 319.683 131.501 318.504 131.501C317.17 131.501 316.116 131.907 315.343 132.719C314.569 133.512 314.183 134.662 314.183 136.17V144H310.558V128.514H314.009V130.515C314.608 129.8 315.362 129.258 316.271 128.891C317.179 128.524 318.204 128.34 319.345 128.34ZM344.341 128.34C346.622 128.34 348.362 128.891 349.561 129.993C350.779 131.076 351.388 132.719 351.388 134.923V144H347.966V142.115C347.521 142.792 346.883 143.314 346.052 143.681C345.24 144.029 344.254 144.203 343.094 144.203C341.934 144.203 340.919 144.01 340.049 143.623C339.179 143.217 338.502 142.666 338.019 141.97C337.555 141.255 337.323 140.452 337.323 139.563C337.323 138.171 337.835 137.059 338.86 136.228C339.904 135.377 341.538 134.952 343.761 134.952H347.763V134.72C347.763 133.637 347.434 132.806 346.777 132.226C346.139 131.646 345.182 131.356 343.906 131.356C343.036 131.356 342.176 131.491 341.325 131.762C340.494 132.033 339.788 132.41 339.208 132.893L337.787 130.254C338.599 129.635 339.575 129.162 340.716 128.833C341.857 128.504 343.065 128.34 344.341 128.34ZM343.848 141.564C344.757 141.564 345.559 141.361 346.255 140.955C346.97 140.53 347.473 139.93 347.763 139.157V137.359H344.022C341.934 137.359 340.89 138.045 340.89 139.418C340.89 140.075 341.151 140.597 341.673 140.984C342.195 141.371 342.92 141.564 343.848 141.564ZM356.04 128.514H359.665V144H356.04V128.514ZM357.867 125.962C357.21 125.962 356.659 125.759 356.214 125.353C355.769 124.928 355.547 124.406 355.547 123.787C355.547 123.168 355.769 122.656 356.214 122.25C356.659 121.825 357.21 121.612 357.867 121.612C358.524 121.612 359.075 121.815 359.52 122.221C359.965 122.608 360.187 123.101 360.187 123.7C360.187 124.338 359.965 124.879 359.52 125.324C359.095 125.749 358.544 125.962 357.867 125.962ZM379.59 122.482V144H376.11V141.999C375.511 142.734 374.766 143.285 373.877 143.652C373.007 144.019 372.04 144.203 370.977 144.203C369.488 144.203 368.145 143.874 366.946 143.217C365.767 142.56 364.839 141.632 364.162 140.433C363.485 139.215 363.147 137.823 363.147 136.257C363.147 134.691 363.485 133.309 364.162 132.11C364.839 130.911 365.767 129.983 366.946 129.326C368.145 128.669 369.488 128.34 370.977 128.34C372.002 128.34 372.939 128.514 373.79 128.862C374.641 129.21 375.366 129.732 375.965 130.428V122.482H379.59ZM371.412 141.1C372.282 141.1 373.065 140.907 373.761 140.52C374.457 140.114 375.008 139.544 375.414 138.809C375.82 138.074 376.023 137.224 376.023 136.257C376.023 135.29 375.82 134.44 375.414 133.705C375.008 132.97 374.457 132.41 373.761 132.023C373.065 131.617 372.282 131.414 371.412 131.414C370.542 131.414 369.759 131.617 369.063 132.023C368.367 132.41 367.816 132.97 367.41 133.705C367.004 134.44 366.801 135.29 366.801 136.257C366.801 137.224 367.004 138.074 367.41 138.809C367.816 139.544 368.367 140.114 369.063 140.52C369.759 140.907 370.542 141.1 371.412 141.1ZM99.338 179.203C97.772 179.203 96.3607 178.865 95.104 178.188C93.8473 177.511 92.8613 176.574 92.146 175.375C91.45 174.157 91.102 172.784 91.102 171.257C91.102 169.73 91.45 168.367 92.146 167.168C92.8613 165.969 93.8473 165.032 95.104 164.355C96.3607 163.678 97.772 163.34 99.338 163.34C100.923 163.34 102.344 163.678 103.601 164.355C104.858 165.032 105.834 165.969 106.53 167.168C107.245 168.367 107.603 169.73 107.603 171.257C107.603 172.784 107.245 174.157 106.53 175.375C105.834 176.574 104.858 177.511 103.601 178.188C102.344 178.865 100.923 179.203 99.338 179.203ZM99.338 176.1C100.672 176.1 101.774 175.655 102.644 174.766C103.514 173.877 103.949 172.707 103.949 171.257C103.949 169.807 103.514 168.637 102.644 167.748C101.774 166.859 100.672 166.414 99.338 166.414C98.004 166.414 96.902 166.859 96.032 167.748C95.1813 168.637 94.756 169.807 94.756 171.257C94.756 172.707 95.1813 173.877 96.032 174.766C96.902 175.655 98.004 176.1 99.338 176.1ZM117.362 160.208C115.835 160.208 115.071 161.039 115.071 162.702V163.63H119.334V166.53H115.187V179H111.562V166.53H109.01V163.63H111.562V162.644C111.562 160.981 112.046 159.676 113.012 158.729C113.979 157.762 115.342 157.279 117.101 157.279C118.493 157.279 119.586 157.559 120.378 158.12L119.363 160.846C118.745 160.421 118.078 160.208 117.362 160.208ZM139.098 178.159C138.673 178.507 138.151 178.768 137.532 178.942C136.933 179.116 136.295 179.203 135.618 179.203C133.917 179.203 132.602 178.758 131.674 177.869C130.746 176.98 130.282 175.684 130.282 173.983V166.53H127.73V163.63H130.282V160.092H133.907V163.63H138.054V166.53H133.907V173.896C133.907 174.65 134.091 175.23 134.458 175.636C134.825 176.023 135.357 176.216 136.053 176.216C136.865 176.216 137.542 176.003 138.083 175.578L139.098 178.159ZM156.128 171.344C156.128 171.595 156.109 171.953 156.07 172.417H143.919C144.132 173.558 144.683 174.466 145.572 175.143C146.481 175.8 147.602 176.129 148.936 176.129C150.638 176.129 152.039 175.568 153.141 174.447L155.084 176.68C154.388 177.511 153.509 178.14 152.445 178.565C151.382 178.99 150.183 179.203 148.849 179.203C147.148 179.203 145.65 178.865 144.354 178.188C143.059 177.511 142.054 176.574 141.338 175.375C140.642 174.157 140.294 172.784 140.294 171.257C140.294 169.749 140.633 168.396 141.309 167.197C142.005 165.979 142.962 165.032 144.18 164.355C145.398 163.678 146.771 163.34 148.298 163.34C149.806 163.34 151.15 163.678 152.329 164.355C153.528 165.012 154.456 165.95 155.113 167.168C155.79 168.367 156.128 169.759 156.128 171.344ZM148.298 166.24C147.138 166.24 146.152 166.588 145.34 167.284C144.548 167.961 144.064 168.869 143.89 170.01H152.677C152.523 168.889 152.049 167.98 151.256 167.284C150.464 166.588 149.478 166.24 148.298 166.24ZM174.168 171.344C174.168 171.595 174.149 171.953 174.11 172.417H161.959C162.172 173.558 162.723 174.466 163.612 175.143C164.521 175.8 165.642 176.129 166.976 176.129C168.678 176.129 170.079 175.568 171.181 174.447L173.124 176.68C172.428 177.511 171.549 178.14 170.485 178.565C169.422 178.99 168.223 179.203 166.889 179.203C165.188 179.203 163.69 178.865 162.394 178.188C161.099 177.511 160.094 176.574 159.378 175.375C158.682 174.157 158.334 172.784 158.334 171.257C158.334 169.749 158.673 168.396 159.349 167.197C160.045 165.979 161.002 165.032 162.22 164.355C163.438 163.678 164.811 163.34 166.338 163.34C167.846 163.34 169.19 163.678 170.369 164.355C171.568 165.012 172.496 165.95 173.153 167.168C173.83 168.367 174.168 169.759 174.168 171.344ZM166.338 166.24C165.178 166.24 164.192 166.588 163.38 167.284C162.588 167.961 162.104 168.869 161.93 170.01H170.717C170.563 168.889 170.089 167.98 169.296 167.284C168.504 166.588 167.518 166.24 166.338 166.24ZM186.437 163.34C188.39 163.34 189.956 163.91 191.135 165.051C192.315 166.192 192.904 167.883 192.904 170.126V179H189.279V170.59C189.279 169.237 188.96 168.222 188.322 167.545C187.684 166.849 186.776 166.501 185.596 166.501C184.262 166.501 183.209 166.907 182.435 167.719C181.662 168.512 181.275 169.662 181.275 171.17V179H177.65V163.514H181.101V165.515C181.701 164.8 182.455 164.258 183.363 163.891C184.272 163.524 185.297 163.34 186.437 163.34ZM203.419 163.34C205.7 163.34 207.44 163.891 208.639 164.993C209.857 166.076 210.466 167.719 210.466 169.923V179H207.044V177.115C206.599 177.792 205.961 178.314 205.13 178.681C204.318 179.029 203.332 179.203 202.172 179.203C201.012 179.203 199.997 179.01 199.127 178.623C198.257 178.217 197.58 177.666 197.097 176.97C196.633 176.255 196.401 175.452 196.401 174.563C196.401 173.171 196.913 172.059 197.938 171.228C198.982 170.377 200.616 169.952 202.839 169.952H206.841V169.72C206.841 168.637 206.512 167.806 205.855 167.226C205.217 166.646 204.26 166.356 202.984 166.356C202.114 166.356 201.254 166.491 200.403 166.762C199.572 167.033 198.866 167.41 198.286 167.893L196.865 165.254C197.677 164.635 198.653 164.162 199.794 163.833C200.935 163.504 202.143 163.34 203.419 163.34ZM202.926 176.564C203.835 176.564 204.637 176.361 205.333 175.955C206.048 175.53 206.551 174.93 206.841 174.157V172.359H203.1C201.012 172.359 199.968 173.045 199.968 174.418C199.968 175.075 200.229 175.597 200.751 175.984C201.273 176.371 201.998 176.564 202.926 176.564ZM230.63 163.514V176.651C230.63 182.103 227.846 184.829 222.278 184.829C220.789 184.829 219.378 184.636 218.044 184.249C216.71 183.882 215.608 183.34 214.738 182.625L216.362 179.899C217.039 180.46 217.889 180.904 218.914 181.233C219.958 181.581 221.012 181.755 222.075 181.755C223.776 181.755 225.023 181.368 225.816 180.595C226.609 179.822 227.005 178.642 227.005 177.057V176.245C226.386 176.922 225.632 177.434 224.743 177.782C223.854 178.13 222.877 178.304 221.814 178.304C220.345 178.304 219.011 177.995 217.812 177.376C216.633 176.738 215.695 175.849 214.999 174.708C214.322 173.567 213.984 172.262 213.984 170.793C213.984 169.324 214.322 168.028 214.999 166.907C215.695 165.766 216.633 164.887 217.812 164.268C219.011 163.649 220.345 163.34 221.814 163.34C222.935 163.34 223.95 163.524 224.859 163.891C225.787 164.258 226.56 164.819 227.179 165.573V163.514H230.63ZM222.365 175.23C223.738 175.23 224.859 174.824 225.729 174.012C226.618 173.181 227.063 172.108 227.063 170.793C227.063 169.498 226.618 168.444 225.729 167.632C224.859 166.82 223.738 166.414 222.365 166.414C220.973 166.414 219.832 166.82 218.943 167.632C218.073 168.444 217.638 169.498 217.638 170.793C217.638 172.108 218.073 173.181 218.943 174.012C219.832 174.824 220.973 175.23 222.365 175.23ZM249.954 171.344C249.954 171.595 249.934 171.953 249.896 172.417H237.745C237.957 173.558 238.508 174.466 239.398 175.143C240.306 175.8 241.428 176.129 242.762 176.129C244.463 176.129 245.865 175.568 246.967 174.447L248.91 176.68C248.214 177.511 247.334 178.14 246.271 178.565C245.207 178.99 244.009 179.203 242.675 179.203C240.973 179.203 239.475 178.865 238.18 178.188C236.884 177.511 235.879 176.574 235.164 175.375C234.468 174.157 234.12 172.784 234.12 171.257C234.12 169.749 234.458 168.396 235.135 167.197C235.831 165.979 236.788 165.032 238.006 164.355C239.224 163.678 240.596 163.34 242.124 163.34C243.632 163.34 244.975 163.678 246.155 164.355C247.353 165.012 248.281 165.95 248.939 167.168C249.615 168.367 249.954 169.759 249.954 171.344ZM242.124 166.24C240.964 166.24 239.978 166.588 239.166 167.284C238.373 167.961 237.89 168.869 237.716 170.01H246.503C246.348 168.889 245.874 167.98 245.082 167.284C244.289 166.588 243.303 166.24 242.124 166.24ZM256.887 165.776C257.931 164.152 259.767 163.34 262.397 163.34V166.791C262.087 166.733 261.807 166.704 261.556 166.704C260.144 166.704 259.042 167.12 258.25 167.951C257.457 168.763 257.061 169.942 257.061 171.489V179H253.436V163.514H256.887V165.776ZM270.313 179.203C269.057 179.203 267.829 179.039 266.63 178.71C265.432 178.381 264.475 177.966 263.759 177.463L265.151 174.708C265.847 175.172 266.679 175.549 267.645 175.839C268.631 176.11 269.598 176.245 270.545 176.245C272.711 176.245 273.793 175.675 273.793 174.534C273.793 173.993 273.513 173.616 272.952 173.403C272.411 173.19 271.531 172.987 270.313 172.794C269.037 172.601 267.993 172.378 267.181 172.127C266.389 171.876 265.693 171.441 265.093 170.822C264.513 170.184 264.223 169.304 264.223 168.183C264.223 166.714 264.832 165.544 266.05 164.674C267.288 163.785 268.95 163.34 271.038 163.34C272.102 163.34 273.165 163.466 274.228 163.717C275.292 163.949 276.162 164.268 276.838 164.674L275.446 167.429C274.132 166.656 272.653 166.269 271.009 166.269C269.946 166.269 269.134 166.433 268.573 166.762C268.032 167.071 267.761 167.487 267.761 168.009C267.761 168.589 268.051 169.005 268.631 169.256C269.231 169.488 270.149 169.71 271.386 169.923C272.624 170.116 273.639 170.339 274.431 170.59C275.224 170.841 275.901 171.267 276.461 171.866C277.041 172.465 277.331 173.316 277.331 174.418C277.331 175.868 276.703 177.028 275.446 177.898C274.19 178.768 272.479 179.203 270.313 179.203ZM312.625 163.514L306.912 179H303.432L299.43 168.328L295.37 179H291.89L286.206 163.514H289.628L293.717 174.94L297.98 163.514H301.025L305.201 174.998L309.406 163.514H312.625ZM315.117 163.514H318.742V179H315.117V163.514ZM316.944 160.962C316.287 160.962 315.736 160.759 315.291 160.353C314.847 159.928 314.624 159.406 314.624 158.787C314.624 158.168 314.847 157.656 315.291 157.25C315.736 156.825 316.287 156.612 316.944 156.612C317.602 156.612 318.153 156.815 318.597 157.221C319.042 157.608 319.264 158.101 319.264 158.7C319.264 159.338 319.042 159.879 318.597 160.324C318.172 160.749 317.621 160.962 316.944 160.962ZM332.809 178.159C332.384 178.507 331.862 178.768 331.243 178.942C330.644 179.116 330.006 179.203 329.329 179.203C327.628 179.203 326.313 178.758 325.385 177.869C324.457 176.98 323.993 175.684 323.993 173.983V166.53H321.441V163.63H323.993V160.092H327.618V163.63H331.765V166.53H327.618V173.896C327.618 174.65 327.802 175.23 328.169 175.636C328.536 176.023 329.068 176.216 329.764 176.216C330.576 176.216 331.253 176.003 331.794 175.578L332.809 178.159ZM344.578 163.34C346.531 163.34 348.097 163.91 349.276 165.051C350.455 166.192 351.045 167.883 351.045 170.126V179H347.42V170.59C347.42 169.237 347.101 168.222 346.463 167.545C345.825 166.849 344.916 166.501 343.737 166.501C342.403 166.501 341.349 166.907 340.576 167.719C339.803 168.512 339.416 169.662 339.416 171.17V179H335.791V157.482H339.416V165.312C340.015 164.674 340.75 164.191 341.62 163.862C342.509 163.514 343.495 163.34 344.578 163.34ZM107.545 192.482V214H104.065V211.999C103.466 212.734 102.721 213.285 101.832 213.652C100.962 214.019 99.9953 214.203 98.932 214.203C97.4433 214.203 96.0997 213.874 94.901 213.217C93.7217 212.56 92.7937 211.632 92.117 210.433C91.4403 209.215 91.102 207.823 91.102 206.257C91.102 204.691 91.4403 203.309 92.117 202.11C92.7937 200.911 93.7217 199.983 94.901 199.326C96.0997 198.669 97.4433 198.34 98.932 198.34C99.9567 198.34 100.894 198.514 101.745 198.862C102.596 199.21 103.321 199.732 103.92 200.428V192.482H107.545ZM99.367 211.1C100.237 211.1 101.02 210.907 101.716 210.52C102.412 210.114 102.963 209.544 103.369 208.809C103.775 208.074 103.978 207.224 103.978 206.257C103.978 205.29 103.775 204.44 103.369 203.705C102.963 202.97 102.412 202.41 101.716 202.023C101.02 201.617 100.237 201.414 99.367 201.414C98.497 201.414 97.714 201.617 97.018 202.023C96.322 202.41 95.771 202.97 95.365 203.705C94.959 204.44 94.756 205.29 94.756 206.257C94.756 207.224 94.959 208.074 95.365 208.809C95.771 209.544 96.322 210.114 97.018 210.52C97.714 210.907 98.497 211.1 99.367 211.1ZM126.845 206.344C126.845 206.595 126.826 206.953 126.787 207.417H114.636C114.849 208.558 115.4 209.466 116.289 210.143C117.198 210.8 118.319 211.129 119.653 211.129C121.355 211.129 122.756 210.568 123.858 209.447L125.801 211.68C125.105 212.511 124.226 213.14 123.162 213.565C122.099 213.99 120.9 214.203 119.566 214.203C117.865 214.203 116.367 213.865 115.071 213.188C113.776 212.511 112.771 211.574 112.055 210.375C111.359 209.157 111.011 207.784 111.011 206.257C111.011 204.749 111.35 203.396 112.026 202.197C112.722 200.979 113.679 200.032 114.897 199.355C116.115 198.678 117.488 198.34 119.015 198.34C120.523 198.34 121.867 198.678 123.046 199.355C124.245 200.012 125.173 200.95 125.83 202.168C126.507 203.367 126.845 204.759 126.845 206.344ZM119.015 201.24C117.855 201.24 116.869 201.588 116.057 202.284C115.265 202.961 114.781 203.869 114.607 205.01H123.394C123.24 203.889 122.766 202.98 121.973 202.284C121.181 201.588 120.195 201.24 119.015 201.24ZM138.911 198.34C140.419 198.34 141.763 198.669 142.942 199.326C144.141 199.983 145.079 200.911 145.755 202.11C146.432 203.309 146.77 204.691 146.77 206.257C146.77 207.823 146.432 209.215 145.755 210.433C145.079 211.632 144.141 212.56 142.942 213.217C141.763 213.874 140.419 214.203 138.911 214.203C136.823 214.203 135.17 213.507 133.952 212.115V219.626H130.327V198.514H133.778V200.544C134.378 199.809 135.112 199.258 135.982 198.891C136.872 198.524 137.848 198.34 138.911 198.34ZM138.505 211.1C139.839 211.1 140.932 210.655 141.782 209.766C142.652 208.877 143.087 207.707 143.087 206.257C143.087 204.807 142.652 203.637 141.782 202.748C140.932 201.859 139.839 201.414 138.505 201.414C137.635 201.414 136.852 201.617 136.156 202.023C135.46 202.41 134.909 202.97 134.503 203.705C134.097 204.44 133.894 205.29 133.894 206.257C133.894 207.224 134.097 208.074 134.503 208.809C134.909 209.544 135.46 210.114 136.156 210.52C136.852 210.907 137.635 211.1 138.505 211.1ZM153.659 200.776C154.703 199.152 156.54 198.34 159.169 198.34V201.791C158.86 201.733 158.579 201.704 158.328 201.704C156.917 201.704 155.815 202.12 155.022 202.951C154.229 203.763 153.833 204.942 153.833 206.489V214H150.208V198.514H153.659V200.776ZM176.661 206.344C176.661 206.595 176.641 206.953 176.603 207.417H164.452C164.664 208.558 165.215 209.466 166.105 210.143C167.013 210.8 168.135 211.129 169.469 211.129C171.17 211.129 172.572 210.568 173.674 209.447L175.617 211.68C174.921 212.511 174.041 213.14 172.978 213.565C171.914 213.99 170.716 214.203 169.382 214.203C167.68 214.203 166.182 213.865 164.887 213.188C163.591 212.511 162.586 211.574 161.871 210.375C161.175 209.157 160.827 207.784 160.827 206.257C160.827 204.749 161.165 203.396 161.842 202.197C162.538 200.979 163.495 200.032 164.713 199.355C165.931 198.678 167.303 198.34 168.831 198.34C170.339 198.34 171.682 198.678 172.862 199.355C174.06 200.012 174.988 200.95 175.646 202.168C176.322 203.367 176.661 204.759 176.661 206.344ZM168.831 201.24C167.671 201.24 166.685 201.588 165.873 202.284C165.08 202.961 164.597 203.869 164.423 205.01H173.21C173.055 203.889 172.581 202.98 171.789 202.284C170.996 201.588 170.01 201.24 168.831 201.24ZM184.928 214.203C183.671 214.203 182.443 214.039 181.245 213.71C180.046 213.381 179.089 212.966 178.374 212.463L179.766 209.708C180.462 210.172 181.293 210.549 182.26 210.839C183.246 211.11 184.212 211.245 185.16 211.245C187.325 211.245 188.408 210.675 188.408 209.534C188.408 208.993 188.127 208.616 187.567 208.403C187.025 208.19 186.146 207.987 184.928 207.794C183.652 207.601 182.608 207.378 181.796 207.127C181.003 206.876 180.307 206.441 179.708 205.822C179.128 205.184 178.838 204.304 178.838 203.183C178.838 201.714 179.447 200.544 180.665 199.674C181.902 198.785 183.565 198.34 185.653 198.34C186.716 198.34 187.779 198.466 188.843 198.717C189.906 198.949 190.776 199.268 191.453 199.674L190.061 202.429C188.746 201.656 187.267 201.269 185.624 201.269C184.56 201.269 183.748 201.433 183.188 201.762C182.646 202.071 182.376 202.487 182.376 203.009C182.376 203.589 182.666 204.005 183.246 204.256C183.845 204.488 184.763 204.71 186.001 204.923C187.238 205.116 188.253 205.339 189.046 205.59C189.838 205.841 190.515 206.267 191.076 206.866C191.656 207.465 191.946 208.316 191.946 209.418C191.946 210.868 191.317 212.028 190.061 212.898C188.804 213.768 187.093 214.203 184.928 214.203ZM199.852 214.203C198.596 214.203 197.368 214.039 196.169 213.71C194.971 213.381 194.014 212.966 193.298 212.463L194.69 209.708C195.386 210.172 196.218 210.549 197.184 210.839C198.17 211.11 199.137 211.245 200.084 211.245C202.25 211.245 203.332 210.675 203.332 209.534C203.332 208.993 203.052 208.616 202.491 208.403C201.95 208.19 201.07 207.987 199.852 207.794C198.576 207.601 197.532 207.378 196.72 207.127C195.928 206.876 195.232 206.441 194.632 205.822C194.052 205.184 193.762 204.304 193.762 203.183C193.762 201.714 194.371 200.544 195.589 199.674C196.827 198.785 198.489 198.34 200.577 198.34C201.641 198.34 202.704 198.466 203.767 198.717C204.831 198.949 205.701 199.268 206.377 199.674L204.985 202.429C203.671 201.656 202.192 201.269 200.548 201.269C199.485 201.269 198.673 201.433 198.112 201.762C197.571 202.071 197.3 202.487 197.3 203.009C197.3 203.589 197.59 204.005 198.17 204.256C198.77 204.488 199.688 204.71 200.925 204.923C202.163 205.116 203.178 205.339 203.97 205.59C204.763 205.841 205.44 206.267 206 206.866C206.58 207.465 206.87 208.316 206.87 209.418C206.87 210.868 206.242 212.028 204.985 212.898C203.729 213.768 202.018 214.203 199.852 214.203ZM209.992 198.514H213.617V214H209.992V198.514ZM211.819 195.962C211.162 195.962 210.611 195.759 210.166 195.353C209.722 194.928 209.499 194.406 209.499 193.787C209.499 193.168 209.722 192.656 210.166 192.25C210.611 191.825 211.162 191.612 211.819 191.612C212.477 191.612 213.028 191.815 213.472 192.221C213.917 192.608 214.139 193.101 214.139 193.7C214.139 194.338 213.917 194.879 213.472 195.324C213.047 195.749 212.496 195.962 211.819 195.962ZM225.335 214.203C223.769 214.203 222.358 213.865 221.101 213.188C219.844 212.511 218.858 211.574 218.143 210.375C217.447 209.157 217.099 207.784 217.099 206.257C217.099 204.73 217.447 203.367 218.143 202.168C218.858 200.969 219.844 200.032 221.101 199.355C222.358 198.678 223.769 198.34 225.335 198.34C226.92 198.34 228.341 198.678 229.598 199.355C230.855 200.032 231.831 200.969 232.527 202.168C233.242 203.367 233.6 204.73 233.6 206.257C233.6 207.784 233.242 209.157 232.527 210.375C231.831 211.574 230.855 212.511 229.598 213.188C228.341 213.865 226.92 214.203 225.335 214.203ZM225.335 211.1C226.669 211.1 227.771 210.655 228.641 209.766C229.511 208.877 229.946 207.707 229.946 206.257C229.946 204.807 229.511 203.637 228.641 202.748C227.771 201.859 226.669 201.414 225.335 201.414C224.001 201.414 222.899 201.859 222.029 202.748C221.178 203.637 220.753 204.807 220.753 206.257C220.753 207.707 221.178 208.877 222.029 209.766C222.899 210.655 224.001 211.1 225.335 211.1ZM245.853 198.34C247.806 198.34 249.372 198.91 250.551 200.051C251.731 201.192 252.32 202.883 252.32 205.126V214H248.695V205.59C248.695 204.237 248.376 203.222 247.738 202.545C247.1 201.849 246.192 201.501 245.012 201.501C243.678 201.501 242.625 201.907 241.851 202.719C241.078 203.512 240.691 204.662 240.691 206.17V214H237.066V198.514H240.517V200.515C241.117 199.8 241.871 199.258 242.779 198.891C243.688 198.524 244.713 198.34 245.853 198.34Z" fill="#4B525C"/>
</g>
<g filter="url(#filter1_d)">
<path d="M106.892 103.302H96.742L94.741 108H90.855L99.99 87.7H103.702L112.866 108H108.922L106.892 103.302ZM105.645 100.344L101.817 91.47L98.018 100.344H105.645ZM131.698 92.34C133.206 92.34 134.55 92.6687 135.729 93.326C136.928 93.9833 137.866 94.9113 138.542 96.11C139.219 97.3087 139.557 98.691 139.557 100.257C139.557 101.823 139.219 103.215 138.542 104.433C137.866 105.632 136.928 106.56 135.729 107.217C134.55 107.874 133.206 108.203 131.698 108.203C129.61 108.203 127.957 107.507 126.739 106.115V113.626H123.114V92.514H126.565V94.544C127.165 93.8093 127.899 93.2583 128.769 92.891C129.659 92.5237 130.635 92.34 131.698 92.34ZM131.292 105.1C132.626 105.1 133.719 104.655 134.569 103.766C135.439 102.877 135.874 101.707 135.874 100.257C135.874 98.807 135.439 97.6373 134.569 96.748C133.719 95.8587 132.626 95.414 131.292 95.414C130.422 95.414 129.639 95.617 128.943 96.023C128.247 96.4097 127.696 96.9703 127.29 97.705C126.884 98.4397 126.681 99.2903 126.681 100.257C126.681 101.224 126.884 102.074 127.29 102.809C127.696 103.544 128.247 104.114 128.943 104.52C129.639 104.907 130.422 105.1 131.292 105.1ZM142.995 86.482H146.62V108H142.995V86.482ZM157.294 92.34C159.575 92.34 161.315 92.891 162.514 93.993C163.732 95.0757 164.341 96.719 164.341 98.923V108H160.919V106.115C160.474 106.792 159.836 107.314 159.005 107.681C158.193 108.029 157.207 108.203 156.047 108.203C154.887 108.203 153.872 108.01 153.002 107.623C152.132 107.217 151.455 106.666 150.972 105.97C150.508 105.255 150.276 104.452 150.276 103.563C150.276 102.171 150.788 101.059 151.813 100.228C152.857 99.3773 154.491 98.952 156.714 98.952H160.716V98.72C160.716 97.6373 160.387 96.806 159.73 96.226C159.092 95.646 158.135 95.356 156.859 95.356C155.989 95.356 155.129 95.4913 154.278 95.762C153.447 96.0327 152.741 96.4097 152.161 96.893L150.74 94.254C151.552 93.6353 152.528 93.1617 153.669 92.833C154.81 92.5043 156.018 92.34 157.294 92.34ZM156.801 105.564C157.71 105.564 158.512 105.361 159.208 104.955C159.923 104.53 160.426 103.93 160.716 103.157V101.359H156.975C154.887 101.359 153.843 102.045 153.843 103.418C153.843 104.075 154.104 104.597 154.626 104.984C155.148 105.371 155.873 105.564 156.801 105.564ZM178.302 107.159C177.877 107.507 177.355 107.768 176.736 107.942C176.137 108.116 175.499 108.203 174.822 108.203C173.121 108.203 171.806 107.758 170.878 106.869C169.95 105.98 169.486 104.684 169.486 102.983V95.53H166.934V92.63H169.486V89.092H173.111V92.63H177.258V95.53H173.111V102.896C173.111 103.65 173.295 104.23 173.662 104.636C174.03 105.023 174.561 105.216 175.257 105.216C176.069 105.216 176.746 105.003 177.287 104.578L178.302 107.159ZM187.577 89.208C186.05 89.208 185.286 90.0393 185.286 91.702V92.63H189.549V95.53H185.402V108H181.777V95.53H179.225V92.63H181.777V91.644C181.777 89.9813 182.261 88.6763 183.227 87.729C184.194 86.7623 185.557 86.279 187.316 86.279C188.708 86.279 189.801 86.5593 190.593 87.12L189.578 89.846C188.96 89.4207 188.293 89.208 187.577 89.208ZM198.723 108.203C197.157 108.203 195.745 107.865 194.489 107.188C193.232 106.511 192.246 105.574 191.531 104.375C190.835 103.157 190.487 101.784 190.487 100.257C190.487 98.7297 190.835 97.3667 191.531 96.168C192.246 94.9693 193.232 94.0317 194.489 93.355C195.745 92.6783 197.157 92.34 198.723 92.34C200.308 92.34 201.729 92.6783 202.986 93.355C204.242 94.0317 205.219 94.9693 205.915 96.168C206.63 97.3667 206.988 98.7297 206.988 100.257C206.988 101.784 206.63 103.157 205.915 104.375C205.219 105.574 204.242 106.511 202.986 107.188C201.729 107.865 200.308 108.203 198.723 108.203ZM198.723 105.1C200.057 105.1 201.159 104.655 202.029 103.766C202.899 102.877 203.334 101.707 203.334 100.257C203.334 98.807 202.899 97.6373 202.029 96.748C201.159 95.8587 200.057 95.414 198.723 95.414C197.389 95.414 196.287 95.8587 195.417 96.748C194.566 97.6373 194.141 98.807 194.141 100.257C194.141 101.707 194.566 102.877 195.417 103.766C196.287 104.655 197.389 105.1 198.723 105.1ZM213.905 94.776C214.949 93.152 216.786 92.34 219.415 92.34V95.791C219.106 95.733 218.826 95.704 218.574 95.704C217.163 95.704 216.061 96.1197 215.268 96.951C214.476 97.763 214.079 98.9423 214.079 100.489V108H210.454V92.514H213.905V94.776ZM242.036 92.34C243.989 92.34 245.536 92.9103 246.676 94.051C247.817 95.1723 248.387 96.864 248.387 99.126V108H244.762V99.59C244.762 98.2367 244.463 97.2217 243.863 96.545C243.264 95.849 242.404 95.501 241.282 95.501C240.064 95.501 239.088 95.907 238.353 96.719C237.619 97.5117 237.251 98.6523 237.251 100.141V108H233.626V99.59C233.626 98.2367 233.327 97.2217 232.727 96.545C232.128 95.849 231.268 95.501 230.146 95.501C228.909 95.501 227.923 95.8973 227.188 96.69C226.473 97.4827 226.115 98.633 226.115 100.141V108H222.49V92.514H225.941V94.486C226.521 93.79 227.246 93.2583 228.116 92.891C228.986 92.5237 229.953 92.34 231.016 92.34C232.176 92.34 233.201 92.5623 234.09 93.007C234.999 93.4323 235.714 94.0703 236.236 94.921C236.874 94.109 237.696 93.4807 238.701 93.036C239.707 92.572 240.818 92.34 242.036 92.34ZM267.327 89.208C265.8 89.208 265.036 90.0393 265.036 91.702V92.63H269.299V95.53H265.152V108H261.527V95.53H258.975V92.63H261.527V91.644C261.527 89.9813 262.011 88.6763 262.977 87.729C263.944 86.7623 265.307 86.279 267.066 86.279C268.458 86.279 269.551 86.5593 270.343 87.12L269.328 89.846C268.71 89.4207 268.043 89.208 267.327 89.208ZM278.473 108.203C276.907 108.203 275.495 107.865 274.239 107.188C272.982 106.511 271.996 105.574 271.281 104.375C270.585 103.157 270.237 101.784 270.237 100.257C270.237 98.7297 270.585 97.3667 271.281 96.168C271.996 94.9693 272.982 94.0317 274.239 93.355C275.495 92.6783 276.907 92.34 278.473 92.34C280.058 92.34 281.479 92.6783 282.736 93.355C283.992 94.0317 284.969 94.9693 285.665 96.168C286.38 97.3667 286.738 98.7297 286.738 100.257C286.738 101.784 286.38 103.157 285.665 104.375C284.969 105.574 283.992 106.511 282.736 107.188C281.479 107.865 280.058 108.203 278.473 108.203ZM278.473 105.1C279.807 105.1 280.909 104.655 281.779 103.766C282.649 102.877 283.084 101.707 283.084 100.257C283.084 98.807 282.649 97.6373 281.779 96.748C280.909 95.8587 279.807 95.414 278.473 95.414C277.139 95.414 276.037 95.8587 275.167 96.748C274.316 97.6373 273.891 98.807 273.891 100.257C273.891 101.707 274.316 102.877 275.167 103.766C276.037 104.655 277.139 105.1 278.473 105.1ZM293.655 94.776C294.699 93.152 296.536 92.34 299.165 92.34V95.791C298.856 95.733 298.576 95.704 298.324 95.704C296.913 95.704 295.811 96.1197 295.018 96.951C294.226 97.763 293.829 98.9423 293.829 100.489V108H290.204V92.514H293.655V94.776ZM100.483 143.203C98.8783 143.203 97.438 142.865 96.162 142.188C94.886 141.511 93.8903 140.574 93.175 139.375C92.4597 138.157 92.102 136.784 92.102 135.257C92.102 133.73 92.4597 132.367 93.175 131.168C93.8903 129.969 94.8763 129.032 96.133 128.355C97.409 127.678 98.859 127.34 100.483 127.34C102.01 127.34 103.344 127.649 104.485 128.268C105.645 128.887 106.515 129.776 107.095 130.936L104.311 132.56C103.866 131.845 103.306 131.313 102.629 130.965C101.972 130.598 101.247 130.414 100.454 130.414C99.1007 130.414 97.9793 130.859 97.09 131.748C96.2007 132.618 95.756 133.788 95.756 135.257C95.756 136.726 96.191 137.906 97.061 138.795C97.9503 139.665 99.0813 140.1 100.454 140.1C101.247 140.1 101.972 139.926 102.629 139.578C103.306 139.211 103.866 138.669 104.311 137.954L107.095 139.578C106.496 140.738 105.616 141.637 104.456 142.275C103.315 142.894 101.991 143.203 100.483 143.203ZM116.962 143.203C115.396 143.203 113.985 142.865 112.728 142.188C111.471 141.511 110.485 140.574 109.77 139.375C109.074 138.157 108.726 136.784 108.726 135.257C108.726 133.73 109.074 132.367 109.77 131.168C110.485 129.969 111.471 129.032 112.728 128.355C113.985 127.678 115.396 127.34 116.962 127.34C118.547 127.34 119.968 127.678 121.225 128.355C122.482 129.032 123.458 129.969 124.154 131.168C124.869 132.367 125.227 133.73 125.227 135.257C125.227 136.784 124.869 138.157 124.154 139.375C123.458 140.574 122.482 141.511 121.225 142.188C119.968 142.865 118.547 143.203 116.962 143.203ZM116.962 140.1C118.296 140.1 119.398 139.655 120.268 138.766C121.138 137.877 121.573 136.707 121.573 135.257C121.573 133.807 121.138 132.637 120.268 131.748C119.398 130.859 118.296 130.414 116.962 130.414C115.628 130.414 114.526 130.859 113.656 131.748C112.805 132.637 112.38 133.807 112.38 135.257C112.38 136.707 112.805 137.877 113.656 138.766C114.526 139.655 115.628 140.1 116.962 140.1ZM148.239 127.34C150.192 127.34 151.739 127.91 152.879 129.051C154.02 130.172 154.59 131.864 154.59 134.126V143H150.965V134.59C150.965 133.237 150.666 132.222 150.066 131.545C149.467 130.849 148.607 130.501 147.485 130.501C146.267 130.501 145.291 130.907 144.556 131.719C143.822 132.512 143.454 133.652 143.454 135.141V143H139.829V134.59C139.829 133.237 139.53 132.222 138.93 131.545C138.331 130.849 137.471 130.501 136.349 130.501C135.112 130.501 134.126 130.897 133.391 131.69C132.676 132.483 132.318 133.633 132.318 135.141V143H128.693V127.514H132.144V129.486C132.724 128.79 133.449 128.258 134.319 127.891C135.189 127.524 136.156 127.34 137.219 127.34C138.379 127.34 139.404 127.562 140.293 128.007C141.202 128.432 141.917 129.07 142.439 129.921C143.077 129.109 143.899 128.481 144.904 128.036C145.91 127.572 147.021 127.34 148.239 127.34ZM178.769 127.34C180.721 127.34 182.268 127.91 183.409 129.051C184.549 130.172 185.12 131.864 185.12 134.126V143H181.495V134.59C181.495 133.237 181.195 132.222 180.596 131.545C179.996 130.849 179.136 130.501 178.015 130.501C176.797 130.501 175.82 130.907 175.086 131.719C174.351 132.512 173.984 133.652 173.984 135.141V143H170.359V134.59C170.359 133.237 170.059 132.222 169.46 131.545C168.86 130.849 168 130.501 166.879 130.501C165.641 130.501 164.655 130.897 163.921 131.69C163.205 132.483 162.848 133.633 162.848 135.141V143H159.223V127.514H162.674V129.486C163.254 128.79 163.979 128.258 164.849 127.891C165.719 127.524 166.685 127.34 167.749 127.34C168.909 127.34 169.933 127.562 170.823 128.007C171.731 128.432 172.447 129.07 172.969 129.921C173.607 129.109 174.428 128.481 175.434 128.036C176.439 127.572 177.551 127.34 178.769 127.34ZM204.745 127.514V143H201.294V141.028C200.714 141.724 199.989 142.265 199.119 142.652C198.249 143.019 197.311 143.203 196.306 143.203C194.237 143.203 192.604 142.633 191.405 141.492C190.226 140.332 189.636 138.621 189.636 136.359V127.514H193.261V135.866C193.261 137.258 193.57 138.302 194.189 138.998C194.827 139.675 195.726 140.013 196.886 140.013C198.181 140.013 199.206 139.617 199.96 138.824C200.733 138.012 201.12 136.852 201.12 135.344V127.514H204.745ZM218.278 127.34C220.231 127.34 221.797 127.91 222.976 129.051C224.156 130.192 224.745 131.883 224.745 134.126V143H221.12V134.59C221.12 133.237 220.801 132.222 220.163 131.545C219.525 130.849 218.617 130.501 217.437 130.501C216.103 130.501 215.05 130.907 214.276 131.719C213.503 132.512 213.116 133.662 213.116 135.17V143H209.491V127.514H212.942V129.515C213.542 128.8 214.296 128.258 215.204 127.891C216.113 127.524 217.138 127.34 218.278 127.34ZM229.344 127.514H232.969V143H229.344V127.514ZM231.171 124.962C230.513 124.962 229.962 124.759 229.518 124.353C229.073 123.928 228.851 123.406 228.851 122.787C228.851 122.168 229.073 121.656 229.518 121.25C229.962 120.825 230.513 120.612 231.171 120.612C231.828 120.612 232.379 120.815 232.824 121.221C233.268 121.608 233.491 122.101 233.491 122.7C233.491 123.338 233.268 123.879 232.824 124.324C232.398 124.749 231.847 124.962 231.171 124.962ZM244.832 143.203C243.227 143.203 241.787 142.865 240.511 142.188C239.235 141.511 238.239 140.574 237.524 139.375C236.808 138.157 236.451 136.784 236.451 135.257C236.451 133.73 236.808 132.367 237.524 131.168C238.239 129.969 239.225 129.032 240.482 128.355C241.758 127.678 243.208 127.34 244.832 127.34C246.359 127.34 247.693 127.649 248.834 128.268C249.994 128.887 250.864 129.776 251.444 130.936L248.66 132.56C248.215 131.845 247.654 131.313 246.978 130.965C246.32 130.598 245.595 130.414 244.803 130.414C243.449 130.414 242.328 130.859 241.439 131.748C240.549 132.618 240.105 133.788 240.105 135.257C240.105 136.726 240.54 137.906 241.41 138.795C242.299 139.665 243.43 140.1 244.803 140.1C245.595 140.1 246.32 139.926 246.978 139.578C247.654 139.211 248.215 138.669 248.66 137.954L251.444 139.578C250.844 140.738 249.965 141.637 248.805 142.275C247.664 142.894 246.34 143.203 244.832 143.203ZM260.493 127.34C262.775 127.34 264.515 127.891 265.713 128.993C266.931 130.076 267.54 131.719 267.54 133.923V143H264.118V141.115C263.674 141.792 263.036 142.314 262.204 142.681C261.392 143.029 260.406 143.203 259.246 143.203C258.086 143.203 257.071 143.01 256.201 142.623C255.331 142.217 254.655 141.666 254.171 140.97C253.707 140.255 253.475 139.452 253.475 138.563C253.475 137.171 253.988 136.059 255.012 135.228C256.056 134.377 257.69 133.952 259.913 133.952H263.915V133.72C263.915 132.637 263.587 131.806 262.929 131.226C262.291 130.646 261.334 130.356 260.058 130.356C259.188 130.356 258.328 130.491 257.477 130.762C256.646 131.033 255.94 131.41 255.36 131.893L253.939 129.254C254.751 128.635 255.728 128.162 256.868 127.833C258.009 127.504 259.217 127.34 260.493 127.34ZM260 140.564C260.909 140.564 261.711 140.361 262.407 139.955C263.123 139.53 263.625 138.93 263.915 138.157V136.359H260.174C258.086 136.359 257.042 137.045 257.042 138.418C257.042 139.075 257.303 139.597 257.825 139.984C258.347 140.371 259.072 140.564 260 140.564ZM281.501 142.159C281.076 142.507 280.554 142.768 279.935 142.942C279.336 143.116 278.698 143.203 278.021 143.203C276.32 143.203 275.005 142.758 274.077 141.869C273.149 140.98 272.685 139.684 272.685 137.983V130.53H270.133V127.63H272.685V124.092H276.31V127.63H280.457V130.53H276.31V137.896C276.31 138.65 276.494 139.23 276.861 139.636C277.229 140.023 277.76 140.216 278.456 140.216C279.268 140.216 279.945 140.003 280.486 139.578L281.501 142.159ZM284.483 127.514H288.108V143H284.483V127.514ZM286.31 124.962C285.653 124.962 285.102 124.759 284.657 124.353C284.213 123.928 283.99 123.406 283.99 122.787C283.99 122.168 284.213 121.656 284.657 121.25C285.102 120.825 285.653 120.612 286.31 120.612C286.968 120.612 287.519 120.815 287.963 121.221C288.408 121.608 288.63 122.101 288.63 122.7C288.63 123.338 288.408 123.879 287.963 124.324C287.538 124.749 286.987 124.962 286.31 124.962ZM299.826 143.203C298.26 143.203 296.849 142.865 295.592 142.188C294.336 141.511 293.35 140.574 292.634 139.375C291.938 138.157 291.59 136.784 291.59 135.257C291.59 133.73 291.938 132.367 292.634 131.168C293.35 129.969 294.336 129.032 295.592 128.355C296.849 127.678 298.26 127.34 299.826 127.34C301.412 127.34 302.833 127.678 304.089 128.355C305.346 129.032 306.322 129.969 307.018 131.168C307.734 132.367 308.091 133.73 308.091 135.257C308.091 136.784 307.734 138.157 307.018 139.375C306.322 140.574 305.346 141.511 304.089 142.188C302.833 142.865 301.412 143.203 299.826 143.203ZM299.826 140.1C301.16 140.1 302.262 139.655 303.132 138.766C304.002 137.877 304.437 136.707 304.437 135.257C304.437 133.807 304.002 132.637 303.132 131.748C302.262 130.859 301.16 130.414 299.826 130.414C298.492 130.414 297.39 130.859 296.52 131.748C295.67 132.637 295.244 133.807 295.244 135.257C295.244 136.707 295.67 137.877 296.52 138.766C297.39 139.655 298.492 140.1 299.826 140.1ZM320.345 127.34C322.297 127.34 323.863 127.91 325.043 129.051C326.222 130.192 326.812 131.883 326.812 134.126V143H323.187V134.59C323.187 133.237 322.868 132.222 322.23 131.545C321.592 130.849 320.683 130.501 319.504 130.501C318.17 130.501 317.116 130.907 316.343 131.719C315.569 132.512 315.183 133.662 315.183 135.17V143H311.558V127.514H315.009V129.515C315.608 128.8 316.362 128.258 317.271 127.891C318.179 127.524 319.204 127.34 320.345 127.34ZM345.341 127.34C347.622 127.34 349.362 127.891 350.561 128.993C351.779 130.076 352.388 131.719 352.388 133.923V143H348.966V141.115C348.521 141.792 347.883 142.314 347.052 142.681C346.24 143.029 345.254 143.203 344.094 143.203C342.934 143.203 341.919 143.01 341.049 142.623C340.179 142.217 339.502 141.666 339.019 140.97C338.555 140.255 338.323 139.452 338.323 138.563C338.323 137.171 338.835 136.059 339.86 135.228C340.904 134.377 342.538 133.952 344.761 133.952H348.763V133.72C348.763 132.637 348.434 131.806 347.777 131.226C347.139 130.646 346.182 130.356 344.906 130.356C344.036 130.356 343.176 130.491 342.325 130.762C341.494 131.033 340.788 131.41 340.208 131.893L338.787 129.254C339.599 128.635 340.575 128.162 341.716 127.833C342.857 127.504 344.065 127.34 345.341 127.34ZM344.848 140.564C345.757 140.564 346.559 140.361 347.255 139.955C347.97 139.53 348.473 138.93 348.763 138.157V136.359H345.022C342.934 136.359 341.89 137.045 341.89 138.418C341.89 139.075 342.151 139.597 342.673 139.984C343.195 140.371 343.92 140.564 344.848 140.564ZM357.04 127.514H360.665V143H357.04V127.514ZM358.867 124.962C358.21 124.962 357.659 124.759 357.214 124.353C356.769 123.928 356.547 123.406 356.547 122.787C356.547 122.168 356.769 121.656 357.214 121.25C357.659 120.825 358.21 120.612 358.867 120.612C359.524 120.612 360.075 120.815 360.52 121.221C360.965 121.608 361.187 122.101 361.187 122.7C361.187 123.338 360.965 123.879 360.52 124.324C360.095 124.749 359.544 124.962 358.867 124.962ZM380.59 121.482V143H377.11V140.999C376.511 141.734 375.766 142.285 374.877 142.652C374.007 143.019 373.04 143.203 371.977 143.203C370.488 143.203 369.145 142.874 367.946 142.217C366.767 141.56 365.839 140.632 365.162 139.433C364.485 138.215 364.147 136.823 364.147 135.257C364.147 133.691 364.485 132.309 365.162 131.11C365.839 129.911 366.767 128.983 367.946 128.326C369.145 127.669 370.488 127.34 371.977 127.34C373.002 127.34 373.939 127.514 374.79 127.862C375.641 128.21 376.366 128.732 376.965 129.428V121.482H380.59ZM372.412 140.1C373.282 140.1 374.065 139.907 374.761 139.52C375.457 139.114 376.008 138.544 376.414 137.809C376.82 137.074 377.023 136.224 377.023 135.257C377.023 134.29 376.82 133.44 376.414 132.705C376.008 131.97 375.457 131.41 374.761 131.023C374.065 130.617 373.282 130.414 372.412 130.414C371.542 130.414 370.759 130.617 370.063 131.023C369.367 131.41 368.816 131.97 368.41 132.705C368.004 133.44 367.801 134.29 367.801 135.257C367.801 136.224 368.004 137.074 368.41 137.809C368.816 138.544 369.367 139.114 370.063 139.52C370.759 139.907 371.542 140.1 372.412 140.1ZM100.338 178.203C98.772 178.203 97.3607 177.865 96.104 177.188C94.8473 176.511 93.8613 175.574 93.146 174.375C92.45 173.157 92.102 171.784 92.102 170.257C92.102 168.73 92.45 167.367 93.146 166.168C93.8613 164.969 94.8473 164.032 96.104 163.355C97.3607 162.678 98.772 162.34 100.338 162.34C101.923 162.34 103.344 162.678 104.601 163.355C105.858 164.032 106.834 164.969 107.53 166.168C108.245 167.367 108.603 168.73 108.603 170.257C108.603 171.784 108.245 173.157 107.53 174.375C106.834 175.574 105.858 176.511 104.601 177.188C103.344 177.865 101.923 178.203 100.338 178.203ZM100.338 175.1C101.672 175.1 102.774 174.655 103.644 173.766C104.514 172.877 104.949 171.707 104.949 170.257C104.949 168.807 104.514 167.637 103.644 166.748C102.774 165.859 101.672 165.414 100.338 165.414C99.004 165.414 97.902 165.859 97.032 166.748C96.1813 167.637 95.756 168.807 95.756 170.257C95.756 171.707 96.1813 172.877 97.032 173.766C97.902 174.655 99.004 175.1 100.338 175.1ZM118.362 159.208C116.835 159.208 116.071 160.039 116.071 161.702V162.63H120.334V165.53H116.187V178H112.562V165.53H110.01V162.63H112.562V161.644C112.562 159.981 113.046 158.676 114.012 157.729C114.979 156.762 116.342 156.279 118.101 156.279C119.493 156.279 120.586 156.559 121.378 157.12L120.363 159.846C119.745 159.421 119.078 159.208 118.362 159.208ZM140.098 177.159C139.673 177.507 139.151 177.768 138.532 177.942C137.933 178.116 137.295 178.203 136.618 178.203C134.917 178.203 133.602 177.758 132.674 176.869C131.746 175.98 131.282 174.684 131.282 172.983V165.53H128.73V162.63H131.282V159.092H134.907V162.63H139.054V165.53H134.907V172.896C134.907 173.65 135.091 174.23 135.458 174.636C135.825 175.023 136.357 175.216 137.053 175.216C137.865 175.216 138.542 175.003 139.083 174.578L140.098 177.159ZM157.128 170.344C157.128 170.595 157.109 170.953 157.07 171.417H144.919C145.132 172.558 145.683 173.466 146.572 174.143C147.481 174.8 148.602 175.129 149.936 175.129C151.638 175.129 153.039 174.568 154.141 173.447L156.084 175.68C155.388 176.511 154.509 177.14 153.445 177.565C152.382 177.99 151.183 178.203 149.849 178.203C148.148 178.203 146.65 177.865 145.354 177.188C144.059 176.511 143.054 175.574 142.338 174.375C141.642 173.157 141.294 171.784 141.294 170.257C141.294 168.749 141.633 167.396 142.309 166.197C143.005 164.979 143.962 164.032 145.18 163.355C146.398 162.678 147.771 162.34 149.298 162.34C150.806 162.34 152.15 162.678 153.329 163.355C154.528 164.012 155.456 164.95 156.113 166.168C156.79 167.367 157.128 168.759 157.128 170.344ZM149.298 165.24C148.138 165.24 147.152 165.588 146.34 166.284C145.548 166.961 145.064 167.869 144.89 169.01H153.677C153.523 167.889 153.049 166.98 152.256 166.284C151.464 165.588 150.478 165.24 149.298 165.24ZM175.168 170.344C175.168 170.595 175.149 170.953 175.11 171.417H162.959C163.172 172.558 163.723 173.466 164.612 174.143C165.521 174.8 166.642 175.129 167.976 175.129C169.678 175.129 171.079 174.568 172.181 173.447L174.124 175.68C173.428 176.511 172.549 177.14 171.485 177.565C170.422 177.99 169.223 178.203 167.889 178.203C166.188 178.203 164.69 177.865 163.394 177.188C162.099 176.511 161.094 175.574 160.378 174.375C159.682 173.157 159.334 171.784 159.334 170.257C159.334 168.749 159.673 167.396 160.349 166.197C161.045 164.979 162.002 164.032 163.22 163.355C164.438 162.678 165.811 162.34 167.338 162.34C168.846 162.34 170.19 162.678 171.369 163.355C172.568 164.012 173.496 164.95 174.153 166.168C174.83 167.367 175.168 168.759 175.168 170.344ZM167.338 165.24C166.178 165.24 165.192 165.588 164.38 166.284C163.588 166.961 163.104 167.869 162.93 169.01H171.717C171.563 167.889 171.089 166.98 170.296 166.284C169.504 165.588 168.518 165.24 167.338 165.24ZM187.437 162.34C189.39 162.34 190.956 162.91 192.135 164.051C193.315 165.192 193.904 166.883 193.904 169.126V178H190.279V169.59C190.279 168.237 189.96 167.222 189.322 166.545C188.684 165.849 187.776 165.501 186.596 165.501C185.262 165.501 184.209 165.907 183.435 166.719C182.662 167.512 182.275 168.662 182.275 170.17V178H178.65V162.514H182.101V164.515C182.701 163.8 183.455 163.258 184.363 162.891C185.272 162.524 186.297 162.34 187.437 162.34ZM204.419 162.34C206.7 162.34 208.44 162.891 209.639 163.993C210.857 165.076 211.466 166.719 211.466 168.923V178H208.044V176.115C207.599 176.792 206.961 177.314 206.13 177.681C205.318 178.029 204.332 178.203 203.172 178.203C202.012 178.203 200.997 178.01 200.127 177.623C199.257 177.217 198.58 176.666 198.097 175.97C197.633 175.255 197.401 174.452 197.401 173.563C197.401 172.171 197.913 171.059 198.938 170.228C199.982 169.377 201.616 168.952 203.839 168.952H207.841V168.72C207.841 167.637 207.512 166.806 206.855 166.226C206.217 165.646 205.26 165.356 203.984 165.356C203.114 165.356 202.254 165.491 201.403 165.762C200.572 166.033 199.866 166.41 199.286 166.893L197.865 164.254C198.677 163.635 199.653 163.162 200.794 162.833C201.935 162.504 203.143 162.34 204.419 162.34ZM203.926 175.564C204.835 175.564 205.637 175.361 206.333 174.955C207.048 174.53 207.551 173.93 207.841 173.157V171.359H204.1C202.012 171.359 200.968 172.045 200.968 173.418C200.968 174.075 201.229 174.597 201.751 174.984C202.273 175.371 202.998 175.564 203.926 175.564ZM231.63 162.514V175.651C231.63 181.103 228.846 183.829 223.278 183.829C221.789 183.829 220.378 183.636 219.044 183.249C217.71 182.882 216.608 182.34 215.738 181.625L217.362 178.899C218.039 179.46 218.889 179.904 219.914 180.233C220.958 180.581 222.012 180.755 223.075 180.755C224.776 180.755 226.023 180.368 226.816 179.595C227.609 178.822 228.005 177.642 228.005 176.057V175.245C227.386 175.922 226.632 176.434 225.743 176.782C224.854 177.13 223.877 177.304 222.814 177.304C221.345 177.304 220.011 176.995 218.812 176.376C217.633 175.738 216.695 174.849 215.999 173.708C215.322 172.567 214.984 171.262 214.984 169.793C214.984 168.324 215.322 167.028 215.999 165.907C216.695 164.766 217.633 163.887 218.812 163.268C220.011 162.649 221.345 162.34 222.814 162.34C223.935 162.34 224.95 162.524 225.859 162.891C226.787 163.258 227.56 163.819 228.179 164.573V162.514H231.63ZM223.365 174.23C224.738 174.23 225.859 173.824 226.729 173.012C227.618 172.181 228.063 171.108 228.063 169.793C228.063 168.498 227.618 167.444 226.729 166.632C225.859 165.82 224.738 165.414 223.365 165.414C221.973 165.414 220.832 165.82 219.943 166.632C219.073 167.444 218.638 168.498 218.638 169.793C218.638 171.108 219.073 172.181 219.943 173.012C220.832 173.824 221.973 174.23 223.365 174.23ZM250.954 170.344C250.954 170.595 250.934 170.953 250.896 171.417H238.745C238.957 172.558 239.508 173.466 240.398 174.143C241.306 174.8 242.428 175.129 243.762 175.129C245.463 175.129 246.865 174.568 247.967 173.447L249.91 175.68C249.214 176.511 248.334 177.14 247.271 177.565C246.207 177.99 245.009 178.203 243.675 178.203C241.973 178.203 240.475 177.865 239.18 177.188C237.884 176.511 236.879 175.574 236.164 174.375C235.468 173.157 235.12 171.784 235.12 170.257C235.12 168.749 235.458 167.396 236.135 166.197C236.831 164.979 237.788 164.032 239.006 163.355C240.224 162.678 241.596 162.34 243.124 162.34C244.632 162.34 245.975 162.678 247.155 163.355C248.353 164.012 249.281 164.95 249.939 166.168C250.615 167.367 250.954 168.759 250.954 170.344ZM243.124 165.24C241.964 165.24 240.978 165.588 240.166 166.284C239.373 166.961 238.89 167.869 238.716 169.01H247.503C247.348 167.889 246.874 166.98 246.082 166.284C245.289 165.588 244.303 165.24 243.124 165.24ZM257.887 164.776C258.931 163.152 260.767 162.34 263.397 162.34V165.791C263.087 165.733 262.807 165.704 262.556 165.704C261.144 165.704 260.042 166.12 259.25 166.951C258.457 167.763 258.061 168.942 258.061 170.489V178H254.436V162.514H257.887V164.776ZM271.313 178.203C270.057 178.203 268.829 178.039 267.63 177.71C266.432 177.381 265.475 176.966 264.759 176.463L266.151 173.708C266.847 174.172 267.679 174.549 268.645 174.839C269.631 175.11 270.598 175.245 271.545 175.245C273.711 175.245 274.793 174.675 274.793 173.534C274.793 172.993 274.513 172.616 273.952 172.403C273.411 172.19 272.531 171.987 271.313 171.794C270.037 171.601 268.993 171.378 268.181 171.127C267.389 170.876 266.693 170.441 266.093 169.822C265.513 169.184 265.223 168.304 265.223 167.183C265.223 165.714 265.832 164.544 267.05 163.674C268.288 162.785 269.95 162.34 272.038 162.34C273.102 162.34 274.165 162.466 275.228 162.717C276.292 162.949 277.162 163.268 277.838 163.674L276.446 166.429C275.132 165.656 273.653 165.269 272.009 165.269C270.946 165.269 270.134 165.433 269.573 165.762C269.032 166.071 268.761 166.487 268.761 167.009C268.761 167.589 269.051 168.005 269.631 168.256C270.231 168.488 271.149 168.71 272.386 168.923C273.624 169.116 274.639 169.339 275.431 169.59C276.224 169.841 276.901 170.267 277.461 170.866C278.041 171.465 278.331 172.316 278.331 173.418C278.331 174.868 277.703 176.028 276.446 176.898C275.19 177.768 273.479 178.203 271.313 178.203ZM313.625 162.514L307.912 178H304.432L300.43 167.328L296.37 178H292.89L287.206 162.514H290.628L294.717 173.94L298.98 162.514H302.025L306.201 173.998L310.406 162.514H313.625ZM316.117 162.514H319.742V178H316.117V162.514ZM317.944 159.962C317.287 159.962 316.736 159.759 316.291 159.353C315.847 158.928 315.624 158.406 315.624 157.787C315.624 157.168 315.847 156.656 316.291 156.25C316.736 155.825 317.287 155.612 317.944 155.612C318.602 155.612 319.153 155.815 319.597 156.221C320.042 156.608 320.264 157.101 320.264 157.7C320.264 158.338 320.042 158.879 319.597 159.324C319.172 159.749 318.621 159.962 317.944 159.962ZM333.809 177.159C333.384 177.507 332.862 177.768 332.243 177.942C331.644 178.116 331.006 178.203 330.329 178.203C328.628 178.203 327.313 177.758 326.385 176.869C325.457 175.98 324.993 174.684 324.993 172.983V165.53H322.441V162.63H324.993V159.092H328.618V162.63H332.765V165.53H328.618V172.896C328.618 173.65 328.802 174.23 329.169 174.636C329.536 175.023 330.068 175.216 330.764 175.216C331.576 175.216 332.253 175.003 332.794 174.578L333.809 177.159ZM345.578 162.34C347.531 162.34 349.097 162.91 350.276 164.051C351.455 165.192 352.045 166.883 352.045 169.126V178H348.42V169.59C348.42 168.237 348.101 167.222 347.463 166.545C346.825 165.849 345.916 165.501 344.737 165.501C343.403 165.501 342.349 165.907 341.576 166.719C340.803 167.512 340.416 168.662 340.416 170.17V178H336.791V156.482H340.416V164.312C341.015 163.674 341.75 163.191 342.62 162.862C343.509 162.514 344.495 162.34 345.578 162.34ZM108.545 191.482V213H105.065V210.999C104.466 211.734 103.721 212.285 102.832 212.652C101.962 213.019 100.995 213.203 99.932 213.203C98.4433 213.203 97.0997 212.874 95.901 212.217C94.7217 211.56 93.7937 210.632 93.117 209.433C92.4403 208.215 92.102 206.823 92.102 205.257C92.102 203.691 92.4403 202.309 93.117 201.11C93.7937 199.911 94.7217 198.983 95.901 198.326C97.0997 197.669 98.4433 197.34 99.932 197.34C100.957 197.34 101.894 197.514 102.745 197.862C103.596 198.21 104.321 198.732 104.92 199.428V191.482H108.545ZM100.367 210.1C101.237 210.1 102.02 209.907 102.716 209.52C103.412 209.114 103.963 208.544 104.369 207.809C104.775 207.074 104.978 206.224 104.978 205.257C104.978 204.29 104.775 203.44 104.369 202.705C103.963 201.97 103.412 201.41 102.716 201.023C102.02 200.617 101.237 200.414 100.367 200.414C99.497 200.414 98.714 200.617 98.018 201.023C97.322 201.41 96.771 201.97 96.365 202.705C95.959 203.44 95.756 204.29 95.756 205.257C95.756 206.224 95.959 207.074 96.365 207.809C96.771 208.544 97.322 209.114 98.018 209.52C98.714 209.907 99.497 210.1 100.367 210.1ZM127.845 205.344C127.845 205.595 127.826 205.953 127.787 206.417H115.636C115.849 207.558 116.4 208.466 117.289 209.143C118.198 209.8 119.319 210.129 120.653 210.129C122.355 210.129 123.756 209.568 124.858 208.447L126.801 210.68C126.105 211.511 125.226 212.14 124.162 212.565C123.099 212.99 121.9 213.203 120.566 213.203C118.865 213.203 117.367 212.865 116.071 212.188C114.776 211.511 113.771 210.574 113.055 209.375C112.359 208.157 112.011 206.784 112.011 205.257C112.011 203.749 112.35 202.396 113.026 201.197C113.722 199.979 114.679 199.032 115.897 198.355C117.115 197.678 118.488 197.34 120.015 197.34C121.523 197.34 122.867 197.678 124.046 198.355C125.245 199.012 126.173 199.95 126.83 201.168C127.507 202.367 127.845 203.759 127.845 205.344ZM120.015 200.24C118.855 200.24 117.869 200.588 117.057 201.284C116.265 201.961 115.781 202.869 115.607 204.01H124.394C124.24 202.889 123.766 201.98 122.973 201.284C122.181 200.588 121.195 200.24 120.015 200.24ZM139.911 197.34C141.419 197.34 142.763 197.669 143.942 198.326C145.141 198.983 146.079 199.911 146.755 201.11C147.432 202.309 147.77 203.691 147.77 205.257C147.77 206.823 147.432 208.215 146.755 209.433C146.079 210.632 145.141 211.56 143.942 212.217C142.763 212.874 141.419 213.203 139.911 213.203C137.823 213.203 136.17 212.507 134.952 211.115V218.626H131.327V197.514H134.778V199.544C135.378 198.809 136.112 198.258 136.982 197.891C137.872 197.524 138.848 197.34 139.911 197.34ZM139.505 210.1C140.839 210.1 141.932 209.655 142.782 208.766C143.652 207.877 144.087 206.707 144.087 205.257C144.087 203.807 143.652 202.637 142.782 201.748C141.932 200.859 140.839 200.414 139.505 200.414C138.635 200.414 137.852 200.617 137.156 201.023C136.46 201.41 135.909 201.97 135.503 202.705C135.097 203.44 134.894 204.29 134.894 205.257C134.894 206.224 135.097 207.074 135.503 207.809C135.909 208.544 136.46 209.114 137.156 209.52C137.852 209.907 138.635 210.1 139.505 210.1ZM154.659 199.776C155.703 198.152 157.54 197.34 160.169 197.34V200.791C159.86 200.733 159.579 200.704 159.328 200.704C157.917 200.704 156.815 201.12 156.022 201.951C155.229 202.763 154.833 203.942 154.833 205.489V213H151.208V197.514H154.659V199.776ZM177.661 205.344C177.661 205.595 177.641 205.953 177.603 206.417H165.452C165.664 207.558 166.215 208.466 167.105 209.143C168.013 209.8 169.135 210.129 170.469 210.129C172.17 210.129 173.572 209.568 174.674 208.447L176.617 210.68C175.921 211.511 175.041 212.14 173.978 212.565C172.914 212.99 171.716 213.203 170.382 213.203C168.68 213.203 167.182 212.865 165.887 212.188C164.591 211.511 163.586 210.574 162.871 209.375C162.175 208.157 161.827 206.784 161.827 205.257C161.827 203.749 162.165 202.396 162.842 201.197C163.538 199.979 164.495 199.032 165.713 198.355C166.931 197.678 168.303 197.34 169.831 197.34C171.339 197.34 172.682 197.678 173.862 198.355C175.06 199.012 175.988 199.95 176.646 201.168C177.322 202.367 177.661 203.759 177.661 205.344ZM169.831 200.24C168.671 200.24 167.685 200.588 166.873 201.284C166.08 201.961 165.597 202.869 165.423 204.01H174.21C174.055 202.889 173.581 201.98 172.789 201.284C171.996 200.588 171.01 200.24 169.831 200.24ZM185.928 213.203C184.671 213.203 183.443 213.039 182.245 212.71C181.046 212.381 180.089 211.966 179.374 211.463L180.766 208.708C181.462 209.172 182.293 209.549 183.26 209.839C184.246 210.11 185.212 210.245 186.16 210.245C188.325 210.245 189.408 209.675 189.408 208.534C189.408 207.993 189.127 207.616 188.567 207.403C188.025 207.19 187.146 206.987 185.928 206.794C184.652 206.601 183.608 206.378 182.796 206.127C182.003 205.876 181.307 205.441 180.708 204.822C180.128 204.184 179.838 203.304 179.838 202.183C179.838 200.714 180.447 199.544 181.665 198.674C182.902 197.785 184.565 197.34 186.653 197.34C187.716 197.34 188.779 197.466 189.843 197.717C190.906 197.949 191.776 198.268 192.453 198.674L191.061 201.429C189.746 200.656 188.267 200.269 186.624 200.269C185.56 200.269 184.748 200.433 184.188 200.762C183.646 201.071 183.376 201.487 183.376 202.009C183.376 202.589 183.666 203.005 184.246 203.256C184.845 203.488 185.763 203.71 187.001 203.923C188.238 204.116 189.253 204.339 190.046 204.59C190.838 204.841 191.515 205.267 192.076 205.866C192.656 206.465 192.946 207.316 192.946 208.418C192.946 209.868 192.317 211.028 191.061 211.898C189.804 212.768 188.093 213.203 185.928 213.203ZM200.852 213.203C199.596 213.203 198.368 213.039 197.169 212.71C195.971 212.381 195.014 211.966 194.298 211.463L195.69 208.708C196.386 209.172 197.218 209.549 198.184 209.839C199.17 210.11 200.137 210.245 201.084 210.245C203.25 210.245 204.332 209.675 204.332 208.534C204.332 207.993 204.052 207.616 203.491 207.403C202.95 207.19 202.07 206.987 200.852 206.794C199.576 206.601 198.532 206.378 197.72 206.127C196.928 205.876 196.232 205.441 195.632 204.822C195.052 204.184 194.762 203.304 194.762 202.183C194.762 200.714 195.371 199.544 196.589 198.674C197.827 197.785 199.489 197.34 201.577 197.34C202.641 197.34 203.704 197.466 204.767 197.717C205.831 197.949 206.701 198.268 207.377 198.674L205.985 201.429C204.671 200.656 203.192 200.269 201.548 200.269C200.485 200.269 199.673 200.433 199.112 200.762C198.571 201.071 198.3 201.487 198.3 202.009C198.3 202.589 198.59 203.005 199.17 203.256C199.77 203.488 200.688 203.71 201.925 203.923C203.163 204.116 204.178 204.339 204.97 204.59C205.763 204.841 206.44 205.267 207 205.866C207.58 206.465 207.87 207.316 207.87 208.418C207.87 209.868 207.242 211.028 205.985 211.898C204.729 212.768 203.018 213.203 200.852 213.203ZM210.992 197.514H214.617V213H210.992V197.514ZM212.819 194.962C212.162 194.962 211.611 194.759 211.166 194.353C210.722 193.928 210.499 193.406 210.499 192.787C210.499 192.168 210.722 191.656 211.166 191.25C211.611 190.825 212.162 190.612 212.819 190.612C213.477 190.612 214.028 190.815 214.472 191.221C214.917 191.608 215.139 192.101 215.139 192.7C215.139 193.338 214.917 193.879 214.472 194.324C214.047 194.749 213.496 194.962 212.819 194.962ZM226.335 213.203C224.769 213.203 223.358 212.865 222.101 212.188C220.844 211.511 219.858 210.574 219.143 209.375C218.447 208.157 218.099 206.784 218.099 205.257C218.099 203.73 218.447 202.367 219.143 201.168C219.858 199.969 220.844 199.032 222.101 198.355C223.358 197.678 224.769 197.34 226.335 197.34C227.92 197.34 229.341 197.678 230.598 198.355C231.855 199.032 232.831 199.969 233.527 201.168C234.242 202.367 234.6 203.73 234.6 205.257C234.6 206.784 234.242 208.157 233.527 209.375C232.831 210.574 231.855 211.511 230.598 212.188C229.341 212.865 227.92 213.203 226.335 213.203ZM226.335 210.1C227.669 210.1 228.771 209.655 229.641 208.766C230.511 207.877 230.946 206.707 230.946 205.257C230.946 203.807 230.511 202.637 229.641 201.748C228.771 200.859 227.669 200.414 226.335 200.414C225.001 200.414 223.899 200.859 223.029 201.748C222.178 202.637 221.753 203.807 221.753 205.257C221.753 206.707 222.178 207.877 223.029 208.766C223.899 209.655 225.001 210.1 226.335 210.1ZM246.853 197.34C248.806 197.34 250.372 197.91 251.551 199.051C252.731 200.192 253.32 201.883 253.32 204.126V213H249.695V204.59C249.695 203.237 249.376 202.222 248.738 201.545C248.1 200.849 247.192 200.501 246.012 200.501C244.678 200.501 243.625 200.907 242.851 201.719C242.078 202.512 241.691 203.662 241.691 205.17V213H238.066V197.514H241.517V199.515C242.117 198.8 242.871 198.258 243.779 197.891C244.688 197.524 245.713 197.34 246.853 197.34Z" fill="white"/>
</g>
<defs>
<filter id="filter0_d" x="81.855" y="83.279" width="305.735" height="148.347" filterUnits="userSpaceOnUse" color-interpolation-filters="sRGB">
<feFlood flood-opacity="0" result="BackgroundImageFix"/>
<feColorMatrix in="SourceAlpha" type="matrix" values="0 0 0 0 0 0 0 0 0 0 0 0 0 0 0 0 0 0 127 0"/>
<feOffset dy="4"/>
<feGaussianBlur stdDeviation="4"/>
<feColorMatrix type="matrix" values="0 0 0 0 0 0 0 0 0 0 0 0 0 0 0 0 0 0 0.51 0"/>
<feBlend mode="normal" in2="BackgroundImageFix" result="effect1_dropShadow"/>
<feBlend mode="normal" in="SourceGraphic" in2="effect1_dropShadow" result="shape"/>
</filter>
<filter id="filter1_d" x="0.85498" y="0.278999" width="469.735" height="312.347" filterUnits="userSpaceOnUse" color-interpolation-filters="sRGB">
<feFlood flood-opacity="0" result="BackgroundImageFix"/>
<feColorMatrix in="SourceAlpha" type="matrix" values="0 0 0 0 0 0 0 0 0 0 0 0 0 0 0 0 0 0 127 0"/>
<feOffset dy="4"/>
<feGaussianBlur stdDeviation="45"/>
<feColorMatrix type="matrix" values="0 0 0 0 0 0 0 0 0 0 0 0 0 0 0 0 0 0 1 0"/>
<feBlend mode="normal" in2="BackgroundImageFix" result="effect1_dropShadow"/>
<feBlend mode="normal" in="SourceGraphic" in2="effect1_dropShadow" result="shape"/>
</filter>
</defs>
</svg>
