<svg width="471" height="308" viewBox="0 0 471 308" fill="none" xmlns="http://www.w3.org/2000/svg">
<g filter="url(#filter0_d)">
<path d="M105.892 104.302H95.742L93.741 109H89.855L98.99 88.7H102.702L111.866 109H107.922L105.892 104.302ZM104.645 101.344L100.817 92.47L97.018 101.344H104.645ZM130.698 93.34C132.206 93.34 133.55 93.6687 134.729 94.326C135.928 94.9833 136.866 95.9113 137.542 97.11C138.219 98.3087 138.557 99.691 138.557 101.257C138.557 102.823 138.219 104.215 137.542 105.433C136.866 106.632 135.928 107.56 134.729 108.217C133.55 108.874 132.206 109.203 130.698 109.203C128.61 109.203 126.957 108.507 125.739 107.115V114.626H122.114V93.514H125.565V95.544C126.165 94.8093 126.899 94.2583 127.769 93.891C128.659 93.5237 129.635 93.34 130.698 93.34ZM130.292 106.1C131.626 106.1 132.719 105.655 133.569 104.766C134.439 103.877 134.874 102.707 134.874 101.257C134.874 99.807 134.439 98.6373 133.569 97.748C132.719 96.8587 131.626 96.414 130.292 96.414C129.422 96.414 128.639 96.617 127.943 97.023C127.247 97.4097 126.696 97.9703 126.29 98.705C125.884 99.4397 125.681 100.29 125.681 101.257C125.681 102.224 125.884 103.074 126.29 103.809C126.696 104.544 127.247 105.114 127.943 105.52C128.639 105.907 129.422 106.1 130.292 106.1ZM141.995 87.482H145.62V109H141.995V87.482ZM156.294 93.34C158.575 93.34 160.315 93.891 161.514 94.993C162.732 96.0757 163.341 97.719 163.341 99.923V109H159.919V107.115C159.474 107.792 158.836 108.314 158.005 108.681C157.193 109.029 156.207 109.203 155.047 109.203C153.887 109.203 152.872 109.01 152.002 108.623C151.132 108.217 150.455 107.666 149.972 106.97C149.508 106.255 149.276 105.452 149.276 104.563C149.276 103.171 149.788 102.059 150.813 101.228C151.857 100.377 153.491 99.952 155.714 99.952H159.716V99.72C159.716 98.6373 159.387 97.806 158.73 97.226C158.092 96.646 157.135 96.356 155.859 96.356C154.989 96.356 154.129 96.4913 153.278 96.762C152.447 97.0327 151.741 97.4097 151.161 97.893L149.74 95.254C150.552 94.6353 151.528 94.1617 152.669 93.833C153.81 93.5043 155.018 93.34 156.294 93.34ZM155.801 106.564C156.71 106.564 157.512 106.361 158.208 105.955C158.923 105.53 159.426 104.93 159.716 104.157V102.359H155.975C153.887 102.359 152.843 103.045 152.843 104.418C152.843 105.075 153.104 105.597 153.626 105.984C154.148 106.371 154.873 106.564 155.801 106.564ZM177.302 108.159C176.877 108.507 176.355 108.768 175.736 108.942C175.137 109.116 174.499 109.203 173.822 109.203C172.121 109.203 170.806 108.758 169.878 107.869C168.95 106.98 168.486 105.684 168.486 103.983V96.53H165.934V93.63H168.486V90.092H172.111V93.63H176.258V96.53H172.111V103.896C172.111 104.65 172.295 105.23 172.662 105.636C173.03 106.023 173.561 106.216 174.257 106.216C175.069 106.216 175.746 106.003 176.287 105.578L177.302 108.159ZM186.577 90.208C185.05 90.208 184.286 91.0393 184.286 92.702V93.63H188.549V96.53H184.402V109H180.777V96.53H178.225V93.63H180.777V92.644C180.777 90.9813 181.261 89.6763 182.227 88.729C183.194 87.7623 184.557 87.279 186.316 87.279C187.708 87.279 188.801 87.5593 189.593 88.12L188.578 90.846C187.96 90.4207 187.293 90.208 186.577 90.208ZM197.723 109.203C196.157 109.203 194.745 108.865 193.489 108.188C192.232 107.511 191.246 106.574 190.531 105.375C189.835 104.157 189.487 102.784 189.487 101.257C189.487 99.7297 189.835 98.3667 190.531 97.168C191.246 95.9693 192.232 95.0317 193.489 94.355C194.745 93.6783 196.157 93.34 197.723 93.34C199.308 93.34 200.729 93.6783 201.986 94.355C203.242 95.0317 204.219 95.9693 204.915 97.168C205.63 98.3667 205.988 99.7297 205.988 101.257C205.988 102.784 205.63 104.157 204.915 105.375C204.219 106.574 203.242 107.511 201.986 108.188C200.729 108.865 199.308 109.203 197.723 109.203ZM197.723 106.1C199.057 106.1 200.159 105.655 201.029 104.766C201.899 103.877 202.334 102.707 202.334 101.257C202.334 99.807 201.899 98.6373 201.029 97.748C200.159 96.8587 199.057 96.414 197.723 96.414C196.389 96.414 195.287 96.8587 194.417 97.748C193.566 98.6373 193.141 99.807 193.141 101.257C193.141 102.707 193.566 103.877 194.417 104.766C195.287 105.655 196.389 106.1 197.723 106.1ZM212.905 95.776C213.949 94.152 215.786 93.34 218.415 93.34V96.791C218.106 96.733 217.826 96.704 217.574 96.704C216.163 96.704 215.061 97.1197 214.268 97.951C213.476 98.763 213.079 99.9423 213.079 101.489V109H209.454V93.514H212.905V95.776ZM241.036 93.34C242.989 93.34 244.536 93.9103 245.676 95.051C246.817 96.1723 247.387 97.864 247.387 100.126V109H243.762V100.59C243.762 99.2367 243.463 98.2217 242.863 97.545C242.264 96.849 241.404 96.501 240.282 96.501C239.064 96.501 238.088 96.907 237.353 97.719C236.619 98.5117 236.251 99.6523 236.251 101.141V109H232.626V100.59C232.626 99.2367 232.327 98.2217 231.727 97.545C231.128 96.849 230.268 96.501 229.146 96.501C227.909 96.501 226.923 96.8973 226.188 97.69C225.473 98.4827 225.115 99.633 225.115 101.141V109H221.49V93.514H224.941V95.486C225.521 94.79 226.246 94.2583 227.116 93.891C227.986 93.5237 228.953 93.34 230.016 93.34C231.176 93.34 232.201 93.5623 233.09 94.007C233.999 94.4323 234.714 95.0703 235.236 95.921C235.874 95.109 236.696 94.4807 237.701 94.036C238.707 93.572 239.818 93.34 241.036 93.34ZM266.327 90.208C264.8 90.208 264.036 91.0393 264.036 92.702V93.63H268.299V96.53H264.152V109H260.527V96.53H257.975V93.63H260.527V92.644C260.527 90.9813 261.011 89.6763 261.977 88.729C262.944 87.7623 264.307 87.279 266.066 87.279C267.458 87.279 268.551 87.5593 269.343 88.12L268.328 90.846C267.71 90.4207 267.043 90.208 266.327 90.208ZM277.473 109.203C275.907 109.203 274.495 108.865 273.239 108.188C271.982 107.511 270.996 106.574 270.281 105.375C269.585 104.157 269.237 102.784 269.237 101.257C269.237 99.7297 269.585 98.3667 270.281 97.168C270.996 95.9693 271.982 95.0317 273.239 94.355C274.495 93.6783 275.907 93.34 277.473 93.34C279.058 93.34 280.479 93.6783 281.736 94.355C282.992 95.0317 283.969 95.9693 284.665 97.168C285.38 98.3667 285.738 99.7297 285.738 101.257C285.738 102.784 285.38 104.157 284.665 105.375C283.969 106.574 282.992 107.511 281.736 108.188C280.479 108.865 279.058 109.203 277.473 109.203ZM277.473 106.1C278.807 106.1 279.909 105.655 280.779 104.766C281.649 103.877 282.084 102.707 282.084 101.257C282.084 99.807 281.649 98.6373 280.779 97.748C279.909 96.8587 278.807 96.414 277.473 96.414C276.139 96.414 275.037 96.8587 274.167 97.748C273.316 98.6373 272.891 99.807 272.891 101.257C272.891 102.707 273.316 103.877 274.167 104.766C275.037 105.655 276.139 106.1 277.473 106.1ZM292.655 95.776C293.699 94.152 295.536 93.34 298.165 93.34V96.791C297.856 96.733 297.576 96.704 297.324 96.704C295.913 96.704 294.811 97.1197 294.018 97.951C293.226 98.763 292.829 99.9423 292.829 101.489V109H289.204V93.514H292.655V95.776ZM99.483 144.203C97.8783 144.203 96.438 143.865 95.162 143.188C93.886 142.511 92.8903 141.574 92.175 140.375C91.4597 139.157 91.102 137.784 91.102 136.257C91.102 134.73 91.4597 133.367 92.175 132.168C92.8903 130.969 93.8763 130.032 95.133 129.355C96.409 128.678 97.859 128.34 99.483 128.34C101.01 128.34 102.344 128.649 103.485 129.268C104.645 129.887 105.515 130.776 106.095 131.936L103.311 133.56C102.866 132.845 102.306 132.313 101.629 131.965C100.972 131.598 100.247 131.414 99.454 131.414C98.1007 131.414 96.9793 131.859 96.09 132.748C95.2007 133.618 94.756 134.788 94.756 136.257C94.756 137.726 95.191 138.906 96.061 139.795C96.9503 140.665 98.0813 141.1 99.454 141.1C100.247 141.1 100.972 140.926 101.629 140.578C102.306 140.211 102.866 139.669 103.311 138.954L106.095 140.578C105.496 141.738 104.616 142.637 103.456 143.275C102.315 143.894 100.991 144.203 99.483 144.203ZM115.962 144.203C114.396 144.203 112.985 143.865 111.728 143.188C110.471 142.511 109.485 141.574 108.77 140.375C108.074 139.157 107.726 137.784 107.726 136.257C107.726 134.73 108.074 133.367 108.77 132.168C109.485 130.969 110.471 130.032 111.728 129.355C112.985 128.678 114.396 128.34 115.962 128.34C117.547 128.34 118.968 128.678 120.225 129.355C121.482 130.032 122.458 130.969 123.154 132.168C123.869 133.367 124.227 134.73 124.227 136.257C124.227 137.784 123.869 139.157 123.154 140.375C122.458 141.574 121.482 142.511 120.225 143.188C118.968 143.865 117.547 144.203 115.962 144.203ZM115.962 141.1C117.296 141.1 118.398 140.655 119.268 139.766C120.138 138.877 120.573 137.707 120.573 136.257C120.573 134.807 120.138 133.637 119.268 132.748C118.398 131.859 117.296 131.414 115.962 131.414C114.628 131.414 113.526 131.859 112.656 132.748C111.805 133.637 111.38 134.807 111.38 136.257C111.38 137.707 111.805 138.877 112.656 139.766C113.526 140.655 114.628 141.1 115.962 141.1ZM147.239 128.34C149.192 128.34 150.739 128.91 151.879 130.051C153.02 131.172 153.59 132.864 153.59 135.126V144H149.965V135.59C149.965 134.237 149.666 133.222 149.066 132.545C148.467 131.849 147.607 131.501 146.485 131.501C145.267 131.501 144.291 131.907 143.556 132.719C142.822 133.512 142.454 134.652 142.454 136.141V144H138.829V135.59C138.829 134.237 138.53 133.222 137.93 132.545C137.331 131.849 136.471 131.501 135.349 131.501C134.112 131.501 133.126 131.897 132.391 132.69C131.676 133.483 131.318 134.633 131.318 136.141V144H127.693V128.514H131.144V130.486C131.724 129.79 132.449 129.258 133.319 128.891C134.189 128.524 135.156 128.34 136.219 128.34C137.379 128.34 138.404 128.562 139.293 129.007C140.202 129.432 140.917 130.07 141.439 130.921C142.077 130.109 142.899 129.481 143.904 129.036C144.91 128.572 146.021 128.34 147.239 128.34ZM177.769 128.34C179.721 128.34 181.268 128.91 182.409 130.051C183.549 131.172 184.12 132.864 184.12 135.126V144H180.495V135.59C180.495 134.237 180.195 133.222 179.596 132.545C178.996 131.849 178.136 131.501 177.015 131.501C175.797 131.501 174.82 131.907 174.086 132.719C173.351 133.512 172.984 134.652 172.984 136.141V144H169.359V135.59C169.359 134.237 169.059 133.222 168.46 132.545C167.86 131.849 167 131.501 165.879 131.501C164.641 131.501 163.655 131.897 162.921 132.69C162.205 133.483 161.848 134.633 161.848 136.141V144H158.223V128.514H161.674V130.486C162.254 129.79 162.979 129.258 163.849 128.891C164.719 128.524 165.685 128.34 166.749 128.34C167.909 128.34 168.933 128.562 169.823 129.007C170.731 129.432 171.447 130.07 171.969 130.921C172.607 130.109 173.428 129.481 174.434 129.036C175.439 128.572 176.551 128.34 177.769 128.34ZM203.745 128.514V144H200.294V142.028C199.714 142.724 198.989 143.265 198.119 143.652C197.249 144.019 196.311 144.203 195.306 144.203C193.237 144.203 191.604 143.633 190.405 142.492C189.226 141.332 188.636 139.621 188.636 137.359V128.514H192.261V136.866C192.261 138.258 192.57 139.302 193.189 139.998C193.827 140.675 194.726 141.013 195.886 141.013C197.181 141.013 198.206 140.617 198.96 139.824C199.733 139.012 200.12 137.852 200.12 136.344V128.514H203.745ZM217.278 128.34C219.231 128.34 220.797 128.91 221.976 130.051C223.156 131.192 223.745 132.883 223.745 135.126V144H220.12V135.59C220.12 134.237 219.801 133.222 219.163 132.545C218.525 131.849 217.617 131.501 216.437 131.501C215.103 131.501 214.05 131.907 213.276 132.719C212.503 133.512 212.116 134.662 212.116 136.17V144H208.491V128.514H211.942V130.515C212.542 129.8 213.296 129.258 214.204 128.891C215.113 128.524 216.138 128.34 217.278 128.34ZM228.344 128.514H231.969V144H228.344V128.514ZM230.171 125.962C229.513 125.962 228.962 125.759 228.518 125.353C228.073 124.928 227.851 124.406 227.851 123.787C227.851 123.168 228.073 122.656 228.518 122.25C228.962 121.825 229.513 121.612 230.171 121.612C230.828 121.612 231.379 121.815 231.824 122.221C232.268 122.608 232.491 123.101 232.491 123.7C232.491 124.338 232.268 124.879 231.824 125.324C231.398 125.749 230.847 125.962 230.171 125.962ZM243.832 144.203C242.227 144.203 240.787 143.865 239.511 143.188C238.235 142.511 237.239 141.574 236.524 140.375C235.808 139.157 235.451 137.784 235.451 136.257C235.451 134.73 235.808 133.367 236.524 132.168C237.239 130.969 238.225 130.032 239.482 129.355C240.758 128.678 242.208 128.34 243.832 128.34C245.359 128.34 246.693 128.649 247.834 129.268C248.994 129.887 249.864 130.776 250.444 131.936L247.66 133.56C247.215 132.845 246.654 132.313 245.978 131.965C245.32 131.598 244.595 131.414 243.803 131.414C242.449 131.414 241.328 131.859 240.439 132.748C239.549 133.618 239.105 134.788 239.105 136.257C239.105 137.726 239.54 138.906 240.41 139.795C241.299 140.665 242.43 141.1 243.803 141.1C244.595 141.1 245.32 140.926 245.978 140.578C246.654 140.211 247.215 139.669 247.66 138.954L250.444 140.578C249.844 141.738 248.965 142.637 247.805 143.275C246.664 143.894 245.34 144.203 243.832 144.203ZM259.493 128.34C261.775 128.34 263.515 128.891 264.713 129.993C265.931 131.076 266.54 132.719 266.54 134.923V144H263.118V142.115C262.674 142.792 262.036 143.314 261.204 143.681C260.392 144.029 259.406 144.203 258.246 144.203C257.086 144.203 256.071 144.01 255.201 143.623C254.331 143.217 253.655 142.666 253.171 141.97C252.707 141.255 252.475 140.452 252.475 139.563C252.475 138.171 252.988 137.059 254.012 136.228C255.056 135.377 256.69 134.952 258.913 134.952H262.915V134.72C262.915 133.637 262.587 132.806 261.929 132.226C261.291 131.646 260.334 131.356 259.058 131.356C258.188 131.356 257.328 131.491 256.477 131.762C255.646 132.033 254.94 132.41 254.36 132.893L252.939 130.254C253.751 129.635 254.728 129.162 255.868 128.833C257.009 128.504 258.217 128.34 259.493 128.34ZM259 141.564C259.909 141.564 260.711 141.361 261.407 140.955C262.123 140.53 262.625 139.93 262.915 139.157V137.359H259.174C257.086 137.359 256.042 138.045 256.042 139.418C256.042 140.075 256.303 140.597 256.825 140.984C257.347 141.371 258.072 141.564 259 141.564ZM280.501 143.159C280.076 143.507 279.554 143.768 278.935 143.942C278.336 144.116 277.698 144.203 277.021 144.203C275.32 144.203 274.005 143.758 273.077 142.869C272.149 141.98 271.685 140.684 271.685 138.983V131.53H269.133V128.63H271.685V125.092H275.31V128.63H279.457V131.53H275.31V138.896C275.31 139.65 275.494 140.23 275.861 140.636C276.229 141.023 276.76 141.216 277.456 141.216C278.268 141.216 278.945 141.003 279.486 140.578L280.501 143.159ZM283.483 128.514H287.108V144H283.483V128.514ZM285.31 125.962C284.653 125.962 284.102 125.759 283.657 125.353C283.213 124.928 282.99 124.406 282.99 123.787C282.99 123.168 283.213 122.656 283.657 122.25C284.102 121.825 284.653 121.612 285.31 121.612C285.968 121.612 286.519 121.815 286.963 122.221C287.408 122.608 287.63 123.101 287.63 123.7C287.63 124.338 287.408 124.879 286.963 125.324C286.538 125.749 285.987 125.962 285.31 125.962ZM298.826 144.203C297.26 144.203 295.849 143.865 294.592 143.188C293.336 142.511 292.35 141.574 291.634 140.375C290.938 139.157 290.59 137.784 290.59 136.257C290.59 134.73 290.938 133.367 291.634 132.168C292.35 130.969 293.336 130.032 294.592 129.355C295.849 128.678 297.26 128.34 298.826 128.34C300.412 128.34 301.833 128.678 303.089 129.355C304.346 130.032 305.322 130.969 306.018 132.168C306.734 133.367 307.091 134.73 307.091 136.257C307.091 137.784 306.734 139.157 306.018 140.375C305.322 141.574 304.346 142.511 303.089 143.188C301.833 143.865 300.412 144.203 298.826 144.203ZM298.826 141.1C300.16 141.1 301.262 140.655 302.132 139.766C303.002 138.877 303.437 137.707 303.437 136.257C303.437 134.807 303.002 133.637 302.132 132.748C301.262 131.859 300.16 131.414 298.826 131.414C297.492 131.414 296.39 131.859 295.52 132.748C294.67 133.637 294.244 134.807 294.244 136.257C294.244 137.707 294.67 138.877 295.52 139.766C296.39 140.655 297.492 141.1 298.826 141.1ZM319.345 128.34C321.297 128.34 322.863 128.91 324.043 130.051C325.222 131.192 325.812 132.883 325.812 135.126V144H322.187V135.59C322.187 134.237 321.868 133.222 321.23 132.545C320.592 131.849 319.683 131.501 318.504 131.501C317.17 131.501 316.116 131.907 315.343 132.719C314.569 133.512 314.183 134.662 314.183 136.17V144H310.558V128.514H314.009V130.515C314.608 129.8 315.362 129.258 316.271 128.891C317.179 128.524 318.204 128.34 319.345 128.34ZM344.341 128.34C346.622 128.34 348.362 128.891 349.561 129.993C350.779 131.076 351.388 132.719 351.388 134.923V144H347.966V142.115C347.521 142.792 346.883 143.314 346.052 143.681C345.24 144.029 344.254 144.203 343.094 144.203C341.934 144.203 340.919 144.01 340.049 143.623C339.179 143.217 338.502 142.666 338.019 141.97C337.555 141.255 337.323 140.452 337.323 139.563C337.323 138.171 337.835 137.059 338.86 136.228C339.904 135.377 341.538 134.952 343.761 134.952H347.763V134.72C347.763 133.637 347.434 132.806 346.777 132.226C346.139 131.646 345.182 131.356 343.906 131.356C343.036 131.356 342.176 131.491 341.325 131.762C340.494 132.033 339.788 132.41 339.208 132.893L337.787 130.254C338.599 129.635 339.575 129.162 340.716 128.833C341.857 128.504 343.065 128.34 344.341 128.34ZM343.848 141.564C344.757 141.564 345.559 141.361 346.255 140.955C346.97 140.53 347.473 139.93 347.763 139.157V137.359H344.022C341.934 137.359 340.89 138.045 340.89 139.418C340.89 140.075 341.151 140.597 341.673 140.984C342.195 141.371 342.92 141.564 343.848 141.564ZM356.04 128.514H359.665V144H356.04V128.514ZM357.867 125.962C357.21 125.962 356.659 125.759 356.214 125.353C355.769 124.928 355.547 124.406 355.547 123.787C355.547 123.168 355.769 122.656 356.214 122.25C356.659 121.825 357.21 121.612 357.867 121.612C358.524 121.612 359.075 121.815 359.52 122.221C359.965 122.608 360.187 123.101 360.187 123.7C360.187 124.338 359.965 124.879 359.52 125.324C359.095 125.749 358.544 125.962 357.867 125.962ZM379.59 122.482V144H376.11V141.999C375.511 142.734 374.766 143.285 373.877 143.652C373.007 144.019 372.04 144.203 370.977 144.203C369.488 144.203 368.145 143.874 366.946 143.217C365.767 142.56 364.839 141.632 364.162 140.433C363.485 139.215 363.147 137.823 363.147 136.257C363.147 134.691 363.485 133.309 364.162 132.11C364.839 130.911 365.767 129.983 366.946 129.326C368.145 128.669 369.488 128.34 370.977 128.34C372.002 128.34 372.939 128.514 373.79 128.862C374.641 129.21 375.366 129.732 375.965 130.428V122.482H379.59ZM371.412 141.1C372.282 141.1 373.065 140.907 373.761 140.52C374.457 140.114 375.008 139.544 375.414 138.809C375.82 138.074 376.023 137.224 376.023 136.257C376.023 135.29 375.82 134.44 375.414 133.705C375.008 132.97 374.457 132.41 373.761 132.023C373.065 131.617 372.282 131.414 371.412 131.414C370.542 131.414 369.759 131.617 369.063 132.023C368.367 132.41 367.816 132.97 367.41 133.705C367.004 134.44 366.801 135.29 366.801 136.257C366.801 137.224 367.004 138.074 367.41 138.809C367.816 139.544 368.367 140.114 369.063 140.52C369.759 140.907 370.542 141.1 371.412 141.1ZM99.338 179.203C97.772 179.203 96.3607 178.865 95.104 178.188C93.8473 177.511 92.8613 176.574 92.146 175.375C91.45 174.157 91.102 172.784 91.102 171.257C91.102 169.73 91.45 168.367 92.146 167.168C92.8613 165.969 93.8473 165.032 95.104 164.355C96.3607 163.678 97.772 163.34 99.338 163.34C100.923 163.34 102.344 163.678 103.601 164.355C104.858 165.032 105.834 165.969 106.53 167.168C107.245 168.367 107.603 169.73 107.603 171.257C107.603 172.784 107.245 174.157 106.53 175.375C105.834 176.574 104.858 177.511 103.601 178.188C102.344 178.865 100.923 179.203 99.338 179.203ZM99.338 176.1C100.672 176.1 101.774 175.655 102.644 174.766C103.514 173.877 103.949 172.707 103.949 171.257C103.949 169.807 103.514 168.637 102.644 167.748C101.774 166.859 100.672 166.414 99.338 166.414C98.004 166.414 96.902 166.859 96.032 167.748C95.1813 168.637 94.756 169.807 94.756 171.257C94.756 172.707 95.1813 173.877 96.032 174.766C96.902 175.655 98.004 176.1 99.338 176.1ZM117.362 160.208C115.835 160.208 115.071 161.039 115.071 162.702V163.63H119.334V166.53H115.187V179H111.562V166.53H109.01V163.63H111.562V162.644C111.562 160.981 112.046 159.676 113.012 158.729C113.979 157.762 115.342 157.279 117.101 157.279C118.493 157.279 119.586 157.559 120.378 158.12L119.363 160.846C118.745 160.421 118.078 160.208 117.362 160.208ZM144.956 157.482V179H141.476V176.999C140.877 177.734 140.132 178.285 139.243 178.652C138.373 179.019 137.406 179.203 136.343 179.203C134.854 179.203 133.511 178.874 132.312 178.217C131.133 177.56 130.205 176.632 129.528 175.433C128.851 174.215 128.513 172.823 128.513 171.257C128.513 169.691 128.851 168.309 129.528 167.11C130.205 165.911 131.133 164.983 132.312 164.326C133.511 163.669 134.854 163.34 136.343 163.34C137.368 163.34 138.305 163.514 139.156 163.862C140.007 164.21 140.732 164.732 141.331 165.428V157.482H144.956ZM136.778 176.1C137.648 176.1 138.431 175.907 139.127 175.52C139.823 175.114 140.374 174.544 140.78 173.809C141.186 173.074 141.389 172.224 141.389 171.257C141.389 170.29 141.186 169.44 140.78 168.705C140.374 167.97 139.823 167.41 139.127 167.023C138.431 166.617 137.648 166.414 136.778 166.414C135.908 166.414 135.125 166.617 134.429 167.023C133.733 167.41 133.182 167.97 132.776 168.705C132.37 169.44 132.167 170.29 132.167 171.257C132.167 172.224 132.37 173.074 132.776 173.809C133.182 174.544 133.733 175.114 134.429 175.52C135.125 175.907 135.908 176.1 136.778 176.1ZM164.256 171.344C164.256 171.595 164.237 171.953 164.198 172.417H152.047C152.26 173.558 152.811 174.466 153.7 175.143C154.609 175.8 155.73 176.129 157.064 176.129C158.766 176.129 160.167 175.568 161.269 174.447L163.212 176.68C162.516 177.511 161.637 178.14 160.573 178.565C159.51 178.99 158.311 179.203 156.977 179.203C155.276 179.203 153.778 178.865 152.482 178.188C151.187 177.511 150.182 176.574 149.466 175.375C148.77 174.157 148.422 172.784 148.422 171.257C148.422 169.749 148.761 168.396 149.437 167.197C150.133 165.979 151.09 165.032 152.308 164.355C153.526 163.678 154.899 163.34 156.426 163.34C157.934 163.34 159.278 163.678 160.457 164.355C161.656 165.012 162.584 165.95 163.241 167.168C163.918 168.367 164.256 169.759 164.256 171.344ZM156.426 166.24C155.266 166.24 154.28 166.588 153.468 167.284C152.676 167.961 152.192 168.869 152.018 170.01H160.805C160.651 168.889 160.177 167.98 159.384 167.284C158.592 166.588 157.606 166.24 156.426 166.24ZM176.322 163.34C177.83 163.34 179.174 163.669 180.353 164.326C181.552 164.983 182.49 165.911 183.166 167.11C183.843 168.309 184.181 169.691 184.181 171.257C184.181 172.823 183.843 174.215 183.166 175.433C182.49 176.632 181.552 177.56 180.353 178.217C179.174 178.874 177.83 179.203 176.322 179.203C174.234 179.203 172.581 178.507 171.363 177.115V184.626H167.738V163.514H171.189V165.544C171.789 164.809 172.523 164.258 173.393 163.891C174.283 163.524 175.259 163.34 176.322 163.34ZM175.916 176.1C177.25 176.1 178.343 175.655 179.193 174.766C180.063 173.877 180.498 172.707 180.498 171.257C180.498 169.807 180.063 168.637 179.193 167.748C178.343 166.859 177.25 166.414 175.916 166.414C175.046 166.414 174.263 166.617 173.567 167.023C172.871 167.41 172.32 167.97 171.914 168.705C171.508 169.44 171.305 170.29 171.305 171.257C171.305 172.224 171.508 173.074 171.914 173.809C172.32 174.544 172.871 175.114 173.567 175.52C174.263 175.907 175.046 176.1 175.916 176.1ZM191.07 165.776C192.114 164.152 193.951 163.34 196.58 163.34V166.791C196.271 166.733 195.991 166.704 195.739 166.704C194.328 166.704 193.226 167.12 192.433 167.951C191.641 168.763 191.244 169.942 191.244 171.489V179H187.619V163.514H191.07V165.776ZM214.072 171.344C214.072 171.595 214.052 171.953 214.014 172.417H201.863C202.075 173.558 202.626 174.466 203.516 175.143C204.424 175.8 205.546 176.129 206.88 176.129C208.581 176.129 209.983 175.568 211.085 174.447L213.028 176.68C212.332 177.511 211.452 178.14 210.389 178.565C209.325 178.99 208.127 179.203 206.793 179.203C205.091 179.203 203.593 178.865 202.298 178.188C201.002 177.511 199.997 176.574 199.282 175.375C198.586 174.157 198.238 172.784 198.238 171.257C198.238 169.749 198.576 168.396 199.253 167.197C199.949 165.979 200.906 165.032 202.124 164.355C203.342 163.678 204.714 163.34 206.242 163.34C207.75 163.34 209.093 163.678 210.273 164.355C211.471 165.012 212.399 165.95 213.057 167.168C213.733 168.367 214.072 169.759 214.072 171.344ZM206.242 166.24C205.082 166.24 204.096 166.588 203.284 167.284C202.491 167.961 202.008 168.869 201.834 170.01H210.621C210.466 168.889 209.992 167.98 209.2 167.284C208.407 166.588 207.421 166.24 206.242 166.24ZM222.339 179.203C221.082 179.203 219.854 179.039 218.656 178.71C217.457 178.381 216.5 177.966 215.785 177.463L217.177 174.708C217.873 175.172 218.704 175.549 219.671 175.839C220.657 176.11 221.623 176.245 222.571 176.245C224.736 176.245 225.819 175.675 225.819 174.534C225.819 173.993 225.538 173.616 224.978 173.403C224.436 173.19 223.557 172.987 222.339 172.794C221.063 172.601 220.019 172.378 219.207 172.127C218.414 171.876 217.718 171.441 217.119 170.822C216.539 170.184 216.249 169.304 216.249 168.183C216.249 166.714 216.858 165.544 218.076 164.674C219.313 163.785 220.976 163.34 223.064 163.34C224.127 163.34 225.19 163.466 226.254 163.717C227.317 163.949 228.187 164.268 228.864 164.674L227.472 167.429C226.157 166.656 224.678 166.269 223.035 166.269C221.971 166.269 221.159 166.433 220.599 166.762C220.057 167.071 219.787 167.487 219.787 168.009C219.787 168.589 220.077 169.005 220.657 169.256C221.256 169.488 222.174 169.71 223.412 169.923C224.649 170.116 225.664 170.339 226.457 170.59C227.249 170.841 227.926 171.267 228.487 171.866C229.067 172.465 229.357 173.316 229.357 174.418C229.357 175.868 228.728 177.028 227.472 177.898C226.215 178.768 224.504 179.203 222.339 179.203ZM237.264 179.203C236.007 179.203 234.779 179.039 233.581 178.71C232.382 178.381 231.425 177.966 230.71 177.463L232.102 174.708C232.798 175.172 233.629 175.549 234.596 175.839C235.582 176.11 236.548 176.245 237.496 176.245C239.661 176.245 240.744 175.675 240.744 174.534C240.744 173.993 240.463 173.616 239.903 173.403C239.361 173.19 238.482 172.987 237.264 172.794C235.988 172.601 234.944 172.378 234.132 172.127C233.339 171.876 232.643 171.441 232.044 170.822C231.464 170.184 231.174 169.304 231.174 168.183C231.174 166.714 231.783 165.544 233.001 164.674C234.238 163.785 235.901 163.34 237.989 163.34C239.052 163.34 240.115 163.466 241.179 163.717C242.242 163.949 243.112 164.268 243.789 164.674L242.397 167.429C241.082 166.656 239.603 166.269 237.96 166.269C236.896 166.269 236.084 166.433 235.524 166.762C234.982 167.071 234.712 167.487 234.712 168.009C234.712 168.589 235.002 169.005 235.582 169.256C236.181 169.488 237.099 169.71 238.337 169.923C239.574 170.116 240.589 170.339 241.382 170.59C242.174 170.841 242.851 171.267 243.412 171.866C243.992 172.465 244.282 173.316 244.282 174.418C244.282 175.868 243.653 177.028 242.397 177.898C241.14 178.768 239.429 179.203 237.264 179.203ZM261.961 171.344C261.961 171.595 261.942 171.953 261.903 172.417H249.752C249.965 173.558 250.516 174.466 251.405 175.143C252.314 175.8 253.435 176.129 254.769 176.129C256.471 176.129 257.872 175.568 258.974 174.447L260.917 176.68C260.221 177.511 259.342 178.14 258.278 178.565C257.215 178.99 256.016 179.203 254.682 179.203C252.981 179.203 251.483 178.865 250.187 178.188C248.892 177.511 247.887 176.574 247.171 175.375C246.475 174.157 246.127 172.784 246.127 171.257C246.127 169.749 246.466 168.396 247.142 167.197C247.838 165.979 248.795 165.032 250.013 164.355C251.231 163.678 252.604 163.34 254.131 163.34C255.639 163.34 256.983 163.678 258.162 164.355C259.361 165.012 260.289 165.95 260.946 167.168C261.623 168.367 261.961 169.759 261.961 171.344ZM254.131 166.24C252.971 166.24 251.985 166.588 251.173 167.284C250.381 167.961 249.897 168.869 249.723 170.01H258.51C258.356 168.889 257.882 167.98 257.089 167.284C256.297 166.588 255.311 166.24 254.131 166.24ZM280.61 157.482V179H277.13V176.999C276.531 177.734 275.787 178.285 274.897 178.652C274.027 179.019 273.061 179.203 271.997 179.203C270.509 179.203 269.165 178.874 267.966 178.217C266.787 177.56 265.859 176.632 265.182 175.433C264.506 174.215 264.167 172.823 264.167 171.257C264.167 169.691 264.506 168.309 265.182 167.11C265.859 165.911 266.787 164.983 267.966 164.326C269.165 163.669 270.509 163.34 271.997 163.34C273.022 163.34 273.96 163.514 274.81 163.862C275.661 164.21 276.386 164.732 276.985 165.428V157.482H280.61ZM272.432 176.1C273.302 176.1 274.085 175.907 274.781 175.52C275.477 175.114 276.028 174.544 276.434 173.809C276.84 173.074 277.043 172.224 277.043 171.257C277.043 170.29 276.84 169.44 276.434 168.705C276.028 167.97 275.477 167.41 274.781 167.023C274.085 166.617 273.302 166.414 272.432 166.414C271.562 166.414 270.779 166.617 270.083 167.023C269.387 167.41 268.836 167.97 268.43 168.705C268.024 169.44 267.821 170.29 267.821 171.257C267.821 172.224 268.024 173.074 268.43 173.809C268.836 174.544 269.387 175.114 270.083 175.52C270.779 175.907 271.562 176.1 272.432 176.1ZM98.294 198.34C100.575 198.34 102.315 198.891 103.514 199.993C104.732 201.076 105.341 202.719 105.341 204.923V214H101.919V212.115C101.474 212.792 100.836 213.314 100.005 213.681C99.193 214.029 98.207 214.203 97.047 214.203C95.887 214.203 94.872 214.01 94.002 213.623C93.132 213.217 92.4553 212.666 91.972 211.97C91.508 211.255 91.276 210.452 91.276 209.563C91.276 208.171 91.7883 207.059 92.813 206.228C93.857 205.377 95.4907 204.952 97.714 204.952H101.716V204.72C101.716 203.637 101.387 202.806 100.73 202.226C100.092 201.646 99.135 201.356 97.859 201.356C96.989 201.356 96.1287 201.491 95.278 201.762C94.4467 202.033 93.741 202.41 93.161 202.893L91.74 200.254C92.552 199.635 93.5283 199.162 94.669 198.833C95.8097 198.504 97.018 198.34 98.294 198.34ZM97.801 211.564C98.7097 211.564 99.512 211.361 100.208 210.955C100.923 210.53 101.426 209.93 101.716 209.157V207.359H97.975C95.887 207.359 94.843 208.045 94.843 209.418C94.843 210.075 95.104 210.597 95.626 210.984C96.148 211.371 96.873 211.564 97.801 211.564ZM125.302 192.482V214H121.822V211.999C121.223 212.734 120.478 213.285 119.589 213.652C118.719 214.019 117.752 214.203 116.689 214.203C115.2 214.203 113.857 213.874 112.658 213.217C111.479 212.56 110.551 211.632 109.874 210.433C109.197 209.215 108.859 207.823 108.859 206.257C108.859 204.691 109.197 203.309 109.874 202.11C110.551 200.911 111.479 199.983 112.658 199.326C113.857 198.669 115.2 198.34 116.689 198.34C117.714 198.34 118.651 198.514 119.502 198.862C120.353 199.21 121.078 199.732 121.677 200.428V192.482H125.302ZM117.124 211.1C117.994 211.1 118.777 210.907 119.473 210.52C120.169 210.114 120.72 209.544 121.126 208.809C121.532 208.074 121.735 207.224 121.735 206.257C121.735 205.29 121.532 204.44 121.126 203.705C120.72 202.97 120.169 202.41 119.473 202.023C118.777 201.617 117.994 201.414 117.124 201.414C116.254 201.414 115.471 201.617 114.775 202.023C114.079 202.41 113.528 202.97 113.122 203.705C112.716 204.44 112.513 205.29 112.513 206.257C112.513 207.224 112.716 208.074 113.122 208.809C113.528 209.544 114.079 210.114 114.775 210.52C115.471 210.907 116.254 211.1 117.124 211.1ZM137.004 214.203C135.438 214.203 134.027 213.865 132.77 213.188C131.513 212.511 130.527 211.574 129.812 210.375C129.116 209.157 128.768 207.784 128.768 206.257C128.768 204.73 129.116 203.367 129.812 202.168C130.527 200.969 131.513 200.032 132.77 199.355C134.027 198.678 135.438 198.34 137.004 198.34C138.589 198.34 140.01 198.678 141.267 199.355C142.524 200.032 143.5 200.969 144.196 202.168C144.911 203.367 145.269 204.73 145.269 206.257C145.269 207.784 144.911 209.157 144.196 210.375C143.5 211.574 142.524 212.511 141.267 213.188C140.01 213.865 138.589 214.203 137.004 214.203ZM137.004 211.1C138.338 211.1 139.44 210.655 140.31 209.766C141.18 208.877 141.615 207.707 141.615 206.257C141.615 204.807 141.18 203.637 140.31 202.748C139.44 201.859 138.338 201.414 137.004 201.414C135.67 201.414 134.568 201.859 133.698 202.748C132.847 203.637 132.422 204.807 132.422 206.257C132.422 207.707 132.847 208.877 133.698 209.766C134.568 210.655 135.67 211.1 137.004 211.1ZM148.735 192.482H152.36V214H148.735V192.482ZM171.676 206.344C171.676 206.595 171.657 206.953 171.618 207.417H159.467C159.68 208.558 160.231 209.466 161.12 210.143C162.029 210.8 163.15 211.129 164.484 211.129C166.186 211.129 167.587 210.568 168.689 209.447L170.632 211.68C169.936 212.511 169.057 213.14 167.993 213.565C166.93 213.99 165.731 214.203 164.397 214.203C162.696 214.203 161.198 213.865 159.902 213.188C158.607 212.511 157.602 211.574 156.886 210.375C156.19 209.157 155.842 207.784 155.842 206.257C155.842 204.749 156.181 203.396 156.857 202.197C157.553 200.979 158.51 200.032 159.728 199.355C160.946 198.678 162.319 198.34 163.846 198.34C165.354 198.34 166.698 198.678 167.877 199.355C169.076 200.012 170.004 200.95 170.661 202.168C171.338 203.367 171.676 204.759 171.676 206.344ZM163.846 201.24C162.686 201.24 161.7 201.588 160.888 202.284C160.096 202.961 159.612 203.869 159.438 205.01H168.225C168.071 203.889 167.597 202.98 166.804 202.284C166.012 201.588 165.026 201.24 163.846 201.24ZM179.943 214.203C178.687 214.203 177.459 214.039 176.26 213.71C175.062 213.381 174.105 212.966 173.389 212.463L174.781 209.708C175.477 210.172 176.309 210.549 177.275 210.839C178.261 211.11 179.228 211.245 180.175 211.245C182.341 211.245 183.423 210.675 183.423 209.534C183.423 208.993 183.143 208.616 182.582 208.403C182.041 208.19 181.161 207.987 179.943 207.794C178.667 207.601 177.623 207.378 176.811 207.127C176.019 206.876 175.323 206.441 174.723 205.822C174.143 205.184 173.853 204.304 173.853 203.183C173.853 201.714 174.462 200.544 175.68 199.674C176.918 198.785 178.58 198.34 180.668 198.34C181.732 198.34 182.795 198.466 183.858 198.717C184.922 198.949 185.792 199.268 186.468 199.674L185.076 202.429C183.762 201.656 182.283 201.269 180.639 201.269C179.576 201.269 178.764 201.433 178.203 201.762C177.662 202.071 177.391 202.487 177.391 203.009C177.391 203.589 177.681 204.005 178.261 204.256C178.861 204.488 179.779 204.71 181.016 204.923C182.254 205.116 183.269 205.339 184.061 205.59C184.854 205.841 185.531 206.267 186.091 206.866C186.671 207.465 186.961 208.316 186.961 209.418C186.961 210.868 186.333 212.028 185.076 212.898C183.82 213.768 182.109 214.203 179.943 214.203ZM197.188 214.203C195.583 214.203 194.143 213.865 192.867 213.188C191.591 212.511 190.595 211.574 189.88 210.375C189.165 209.157 188.807 207.784 188.807 206.257C188.807 204.73 189.165 203.367 189.88 202.168C190.595 200.969 191.581 200.032 192.838 199.355C194.114 198.678 195.564 198.34 197.188 198.34C198.715 198.34 200.049 198.649 201.19 199.268C202.35 199.887 203.22 200.776 203.8 201.936L201.016 203.56C200.571 202.845 200.011 202.313 199.334 201.965C198.677 201.598 197.952 201.414 197.159 201.414C195.806 201.414 194.684 201.859 193.795 202.748C192.906 203.618 192.461 204.788 192.461 206.257C192.461 207.726 192.896 208.906 193.766 209.795C194.655 210.665 195.786 211.1 197.159 211.1C197.952 211.1 198.677 210.926 199.334 210.578C200.011 210.211 200.571 209.669 201.016 208.954L203.8 210.578C203.201 211.738 202.321 212.637 201.161 213.275C200.02 213.894 198.696 214.203 197.188 214.203ZM221.265 206.344C221.265 206.595 221.246 206.953 221.207 207.417H209.056C209.269 208.558 209.82 209.466 210.709 210.143C211.618 210.8 212.739 211.129 214.073 211.129C215.774 211.129 217.176 210.568 218.278 209.447L220.221 211.68C219.525 212.511 218.645 213.14 217.582 213.565C216.519 213.99 215.32 214.203 213.986 214.203C212.285 214.203 210.786 213.865 209.491 213.188C208.196 212.511 207.19 211.574 206.475 210.375C205.779 209.157 205.431 207.784 205.431 206.257C205.431 204.749 205.769 203.396 206.446 202.197C207.142 200.979 208.099 200.032 209.317 199.355C210.535 198.678 211.908 198.34 213.435 198.34C214.943 198.34 216.287 198.678 217.466 199.355C218.665 200.012 219.593 200.95 220.25 202.168C220.927 203.367 221.265 204.759 221.265 206.344ZM213.435 201.24C212.275 201.24 211.289 201.588 210.477 202.284C209.684 202.961 209.201 203.869 209.027 205.01H217.814C217.659 203.889 217.186 202.98 216.393 202.284C215.6 201.588 214.614 201.24 213.435 201.24ZM233.534 198.34C235.487 198.34 237.053 198.91 238.232 200.051C239.411 201.192 240.001 202.883 240.001 205.126V214H236.376V205.59C236.376 204.237 236.057 203.222 235.419 202.545C234.781 201.849 233.872 201.501 232.693 201.501C231.359 201.501 230.305 201.907 229.532 202.719C228.759 203.512 228.372 204.662 228.372 206.17V214H224.747V198.514H228.198V200.515C228.797 199.8 229.551 199.258 230.46 198.891C231.369 198.524 232.393 198.34 233.534 198.34ZM253.909 213.159C253.483 213.507 252.961 213.768 252.343 213.942C251.743 214.116 251.105 214.203 250.429 214.203C248.727 214.203 247.413 213.758 246.485 212.869C245.557 211.98 245.093 210.684 245.093 208.983V201.53H242.541V198.63H245.093V195.092H248.718V198.63H252.865V201.53H248.718V208.896C248.718 209.65 248.901 210.23 249.269 210.636C249.636 211.023 250.168 211.216 250.864 211.216C251.676 211.216 252.352 211.003 252.894 210.578L253.909 213.159ZM261.676 214.203C260.419 214.203 259.191 214.039 257.993 213.71C256.794 213.381 255.837 212.966 255.122 212.463L256.514 209.708C257.21 210.172 258.041 210.549 259.008 210.839C259.994 211.11 260.96 211.245 261.908 211.245C264.073 211.245 265.156 210.675 265.156 209.534C265.156 208.993 264.875 208.616 264.315 208.403C263.773 208.19 262.894 207.987 261.676 207.794C260.4 207.601 259.356 207.378 258.544 207.127C257.751 206.876 257.055 206.441 256.456 205.822C255.876 205.184 255.586 204.304 255.586 203.183C255.586 201.714 256.195 200.544 257.413 199.674C258.65 198.785 260.313 198.34 262.401 198.34C263.464 198.34 264.527 198.466 265.591 198.717C266.654 198.949 267.524 199.268 268.201 199.674L266.809 202.429C265.494 201.656 264.015 201.269 262.372 201.269C261.308 201.269 260.496 201.433 259.936 201.762C259.394 202.071 259.124 202.487 259.124 203.009C259.124 203.589 259.414 204.005 259.994 204.256C260.593 204.488 261.511 204.71 262.749 204.923C263.986 205.116 265.001 205.339 265.794 205.59C266.586 205.841 267.263 206.267 267.824 206.866C268.404 207.465 268.694 208.316 268.694 209.418C268.694 210.868 268.065 212.028 266.809 212.898C265.552 213.768 263.841 214.203 261.676 214.203Z" fill="#4B525C"/>
</g>
<g filter="url(#filter1_d)">
<path d="M106.892 103.302H96.742L94.741 108H90.855L99.99 87.7H103.702L112.866 108H108.922L106.892 103.302ZM105.645 100.344L101.817 91.47L98.018 100.344H105.645ZM131.698 92.34C133.206 92.34 134.55 92.6687 135.729 93.326C136.928 93.9833 137.866 94.9113 138.542 96.11C139.219 97.3087 139.557 98.691 139.557 100.257C139.557 101.823 139.219 103.215 138.542 104.433C137.866 105.632 136.928 106.56 135.729 107.217C134.55 107.874 133.206 108.203 131.698 108.203C129.61 108.203 127.957 107.507 126.739 106.115V113.626H123.114V92.514H126.565V94.544C127.165 93.8093 127.899 93.2583 128.769 92.891C129.659 92.5237 130.635 92.34 131.698 92.34ZM131.292 105.1C132.626 105.1 133.719 104.655 134.569 103.766C135.439 102.877 135.874 101.707 135.874 100.257C135.874 98.807 135.439 97.6373 134.569 96.748C133.719 95.8587 132.626 95.414 131.292 95.414C130.422 95.414 129.639 95.617 128.943 96.023C128.247 96.4097 127.696 96.9703 127.29 97.705C126.884 98.4397 126.681 99.2903 126.681 100.257C126.681 101.224 126.884 102.074 127.29 102.809C127.696 103.544 128.247 104.114 128.943 104.52C129.639 104.907 130.422 105.1 131.292 105.1ZM142.995 86.482H146.62V108H142.995V86.482ZM157.294 92.34C159.575 92.34 161.315 92.891 162.514 93.993C163.732 95.0757 164.341 96.719 164.341 98.923V108H160.919V106.115C160.474 106.792 159.836 107.314 159.005 107.681C158.193 108.029 157.207 108.203 156.047 108.203C154.887 108.203 153.872 108.01 153.002 107.623C152.132 107.217 151.455 106.666 150.972 105.97C150.508 105.255 150.276 104.452 150.276 103.563C150.276 102.171 150.788 101.059 151.813 100.228C152.857 99.3773 154.491 98.952 156.714 98.952H160.716V98.72C160.716 97.6373 160.387 96.806 159.73 96.226C159.092 95.646 158.135 95.356 156.859 95.356C155.989 95.356 155.129 95.4913 154.278 95.762C153.447 96.0327 152.741 96.4097 152.161 96.893L150.74 94.254C151.552 93.6353 152.528 93.1617 153.669 92.833C154.81 92.5043 156.018 92.34 157.294 92.34ZM156.801 105.564C157.71 105.564 158.512 105.361 159.208 104.955C159.923 104.53 160.426 103.93 160.716 103.157V101.359H156.975C154.887 101.359 153.843 102.045 153.843 103.418C153.843 104.075 154.104 104.597 154.626 104.984C155.148 105.371 155.873 105.564 156.801 105.564ZM178.302 107.159C177.877 107.507 177.355 107.768 176.736 107.942C176.137 108.116 175.499 108.203 174.822 108.203C173.121 108.203 171.806 107.758 170.878 106.869C169.95 105.98 169.486 104.684 169.486 102.983V95.53H166.934V92.63H169.486V89.092H173.111V92.63H177.258V95.53H173.111V102.896C173.111 103.65 173.295 104.23 173.662 104.636C174.03 105.023 174.561 105.216 175.257 105.216C176.069 105.216 176.746 105.003 177.287 104.578L178.302 107.159ZM187.577 89.208C186.05 89.208 185.286 90.0393 185.286 91.702V92.63H189.549V95.53H185.402V108H181.777V95.53H179.225V92.63H181.777V91.644C181.777 89.9813 182.261 88.6763 183.227 87.729C184.194 86.7623 185.557 86.279 187.316 86.279C188.708 86.279 189.801 86.5593 190.593 87.12L189.578 89.846C188.96 89.4207 188.293 89.208 187.577 89.208ZM198.723 108.203C197.157 108.203 195.745 107.865 194.489 107.188C193.232 106.511 192.246 105.574 191.531 104.375C190.835 103.157 190.487 101.784 190.487 100.257C190.487 98.7297 190.835 97.3667 191.531 96.168C192.246 94.9693 193.232 94.0317 194.489 93.355C195.745 92.6783 197.157 92.34 198.723 92.34C200.308 92.34 201.729 92.6783 202.986 93.355C204.242 94.0317 205.219 94.9693 205.915 96.168C206.63 97.3667 206.988 98.7297 206.988 100.257C206.988 101.784 206.63 103.157 205.915 104.375C205.219 105.574 204.242 106.511 202.986 107.188C201.729 107.865 200.308 108.203 198.723 108.203ZM198.723 105.1C200.057 105.1 201.159 104.655 202.029 103.766C202.899 102.877 203.334 101.707 203.334 100.257C203.334 98.807 202.899 97.6373 202.029 96.748C201.159 95.8587 200.057 95.414 198.723 95.414C197.389 95.414 196.287 95.8587 195.417 96.748C194.566 97.6373 194.141 98.807 194.141 100.257C194.141 101.707 194.566 102.877 195.417 103.766C196.287 104.655 197.389 105.1 198.723 105.1ZM213.905 94.776C214.949 93.152 216.786 92.34 219.415 92.34V95.791C219.106 95.733 218.826 95.704 218.574 95.704C217.163 95.704 216.061 96.1197 215.268 96.951C214.476 97.763 214.079 98.9423 214.079 100.489V108H210.454V92.514H213.905V94.776ZM242.036 92.34C243.989 92.34 245.536 92.9103 246.676 94.051C247.817 95.1723 248.387 96.864 248.387 99.126V108H244.762V99.59C244.762 98.2367 244.463 97.2217 243.863 96.545C243.264 95.849 242.404 95.501 241.282 95.501C240.064 95.501 239.088 95.907 238.353 96.719C237.619 97.5117 237.251 98.6523 237.251 100.141V108H233.626V99.59C233.626 98.2367 233.327 97.2217 232.727 96.545C232.128 95.849 231.268 95.501 230.146 95.501C228.909 95.501 227.923 95.8973 227.188 96.69C226.473 97.4827 226.115 98.633 226.115 100.141V108H222.49V92.514H225.941V94.486C226.521 93.79 227.246 93.2583 228.116 92.891C228.986 92.5237 229.953 92.34 231.016 92.34C232.176 92.34 233.201 92.5623 234.09 93.007C234.999 93.4323 235.714 94.0703 236.236 94.921C236.874 94.109 237.696 93.4807 238.701 93.036C239.707 92.572 240.818 92.34 242.036 92.34ZM267.327 89.208C265.8 89.208 265.036 90.0393 265.036 91.702V92.63H269.299V95.53H265.152V108H261.527V95.53H258.975V92.63H261.527V91.644C261.527 89.9813 262.011 88.6763 262.977 87.729C263.944 86.7623 265.307 86.279 267.066 86.279C268.458 86.279 269.551 86.5593 270.343 87.12L269.328 89.846C268.71 89.4207 268.043 89.208 267.327 89.208ZM278.473 108.203C276.907 108.203 275.495 107.865 274.239 107.188C272.982 106.511 271.996 105.574 271.281 104.375C270.585 103.157 270.237 101.784 270.237 100.257C270.237 98.7297 270.585 97.3667 271.281 96.168C271.996 94.9693 272.982 94.0317 274.239 93.355C275.495 92.6783 276.907 92.34 278.473 92.34C280.058 92.34 281.479 92.6783 282.736 93.355C283.992 94.0317 284.969 94.9693 285.665 96.168C286.38 97.3667 286.738 98.7297 286.738 100.257C286.738 101.784 286.38 103.157 285.665 104.375C284.969 105.574 283.992 106.511 282.736 107.188C281.479 107.865 280.058 108.203 278.473 108.203ZM278.473 105.1C279.807 105.1 280.909 104.655 281.779 103.766C282.649 102.877 283.084 101.707 283.084 100.257C283.084 98.807 282.649 97.6373 281.779 96.748C280.909 95.8587 279.807 95.414 278.473 95.414C277.139 95.414 276.037 95.8587 275.167 96.748C274.316 97.6373 273.891 98.807 273.891 100.257C273.891 101.707 274.316 102.877 275.167 103.766C276.037 104.655 277.139 105.1 278.473 105.1ZM293.655 94.776C294.699 93.152 296.536 92.34 299.165 92.34V95.791C298.856 95.733 298.576 95.704 298.324 95.704C296.913 95.704 295.811 96.1197 295.018 96.951C294.226 97.763 293.829 98.9423 293.829 100.489V108H290.204V92.514H293.655V94.776ZM100.483 143.203C98.8783 143.203 97.438 142.865 96.162 142.188C94.886 141.511 93.8903 140.574 93.175 139.375C92.4597 138.157 92.102 136.784 92.102 135.257C92.102 133.73 92.4597 132.367 93.175 131.168C93.8903 129.969 94.8763 129.032 96.133 128.355C97.409 127.678 98.859 127.34 100.483 127.34C102.01 127.34 103.344 127.649 104.485 128.268C105.645 128.887 106.515 129.776 107.095 130.936L104.311 132.56C103.866 131.845 103.306 131.313 102.629 130.965C101.972 130.598 101.247 130.414 100.454 130.414C99.1007 130.414 97.9793 130.859 97.09 131.748C96.2007 132.618 95.756 133.788 95.756 135.257C95.756 136.726 96.191 137.906 97.061 138.795C97.9503 139.665 99.0813 140.1 100.454 140.1C101.247 140.1 101.972 139.926 102.629 139.578C103.306 139.211 103.866 138.669 104.311 137.954L107.095 139.578C106.496 140.738 105.616 141.637 104.456 142.275C103.315 142.894 101.991 143.203 100.483 143.203ZM116.962 143.203C115.396 143.203 113.985 142.865 112.728 142.188C111.471 141.511 110.485 140.574 109.77 139.375C109.074 138.157 108.726 136.784 108.726 135.257C108.726 133.73 109.074 132.367 109.77 131.168C110.485 129.969 111.471 129.032 112.728 128.355C113.985 127.678 115.396 127.34 116.962 127.34C118.547 127.34 119.968 127.678 121.225 128.355C122.482 129.032 123.458 129.969 124.154 131.168C124.869 132.367 125.227 133.73 125.227 135.257C125.227 136.784 124.869 138.157 124.154 139.375C123.458 140.574 122.482 141.511 121.225 142.188C119.968 142.865 118.547 143.203 116.962 143.203ZM116.962 140.1C118.296 140.1 119.398 139.655 120.268 138.766C121.138 137.877 121.573 136.707 121.573 135.257C121.573 133.807 121.138 132.637 120.268 131.748C119.398 130.859 118.296 130.414 116.962 130.414C115.628 130.414 114.526 130.859 113.656 131.748C112.805 132.637 112.38 133.807 112.38 135.257C112.38 136.707 112.805 137.877 113.656 138.766C114.526 139.655 115.628 140.1 116.962 140.1ZM148.239 127.34C150.192 127.34 151.739 127.91 152.879 129.051C154.02 130.172 154.59 131.864 154.59 134.126V143H150.965V134.59C150.965 133.237 150.666 132.222 150.066 131.545C149.467 130.849 148.607 130.501 147.485 130.501C146.267 130.501 145.291 130.907 144.556 131.719C143.822 132.512 143.454 133.652 143.454 135.141V143H139.829V134.59C139.829 133.237 139.53 132.222 138.93 131.545C138.331 130.849 137.471 130.501 136.349 130.501C135.112 130.501 134.126 130.897 133.391 131.69C132.676 132.483 132.318 133.633 132.318 135.141V143H128.693V127.514H132.144V129.486C132.724 128.79 133.449 128.258 134.319 127.891C135.189 127.524 136.156 127.34 137.219 127.34C138.379 127.34 139.404 127.562 140.293 128.007C141.202 128.432 141.917 129.07 142.439 129.921C143.077 129.109 143.899 128.481 144.904 128.036C145.91 127.572 147.021 127.34 148.239 127.34ZM178.769 127.34C180.721 127.34 182.268 127.91 183.409 129.051C184.549 130.172 185.12 131.864 185.12 134.126V143H181.495V134.59C181.495 133.237 181.195 132.222 180.596 131.545C179.996 130.849 179.136 130.501 178.015 130.501C176.797 130.501 175.82 130.907 175.086 131.719C174.351 132.512 173.984 133.652 173.984 135.141V143H170.359V134.59C170.359 133.237 170.059 132.222 169.46 131.545C168.86 130.849 168 130.501 166.879 130.501C165.641 130.501 164.655 130.897 163.921 131.69C163.205 132.483 162.848 133.633 162.848 135.141V143H159.223V127.514H162.674V129.486C163.254 128.79 163.979 128.258 164.849 127.891C165.719 127.524 166.685 127.34 167.749 127.34C168.909 127.34 169.933 127.562 170.823 128.007C171.731 128.432 172.447 129.07 172.969 129.921C173.607 129.109 174.428 128.481 175.434 128.036C176.439 127.572 177.551 127.34 178.769 127.34ZM204.745 127.514V143H201.294V141.028C200.714 141.724 199.989 142.265 199.119 142.652C198.249 143.019 197.311 143.203 196.306 143.203C194.237 143.203 192.604 142.633 191.405 141.492C190.226 140.332 189.636 138.621 189.636 136.359V127.514H193.261V135.866C193.261 137.258 193.57 138.302 194.189 138.998C194.827 139.675 195.726 140.013 196.886 140.013C198.181 140.013 199.206 139.617 199.96 138.824C200.733 138.012 201.12 136.852 201.12 135.344V127.514H204.745ZM218.278 127.34C220.231 127.34 221.797 127.91 222.976 129.051C224.156 130.192 224.745 131.883 224.745 134.126V143H221.12V134.59C221.12 133.237 220.801 132.222 220.163 131.545C219.525 130.849 218.617 130.501 217.437 130.501C216.103 130.501 215.05 130.907 214.276 131.719C213.503 132.512 213.116 133.662 213.116 135.17V143H209.491V127.514H212.942V129.515C213.542 128.8 214.296 128.258 215.204 127.891C216.113 127.524 217.138 127.34 218.278 127.34ZM229.344 127.514H232.969V143H229.344V127.514ZM231.171 124.962C230.513 124.962 229.962 124.759 229.518 124.353C229.073 123.928 228.851 123.406 228.851 122.787C228.851 122.168 229.073 121.656 229.518 121.25C229.962 120.825 230.513 120.612 231.171 120.612C231.828 120.612 232.379 120.815 232.824 121.221C233.268 121.608 233.491 122.101 233.491 122.7C233.491 123.338 233.268 123.879 232.824 124.324C232.398 124.749 231.847 124.962 231.171 124.962ZM244.832 143.203C243.227 143.203 241.787 142.865 240.511 142.188C239.235 141.511 238.239 140.574 237.524 139.375C236.808 138.157 236.451 136.784 236.451 135.257C236.451 133.73 236.808 132.367 237.524 131.168C238.239 129.969 239.225 129.032 240.482 128.355C241.758 127.678 243.208 127.34 244.832 127.34C246.359 127.34 247.693 127.649 248.834 128.268C249.994 128.887 250.864 129.776 251.444 130.936L248.66 132.56C248.215 131.845 247.654 131.313 246.978 130.965C246.32 130.598 245.595 130.414 244.803 130.414C243.449 130.414 242.328 130.859 241.439 131.748C240.549 132.618 240.105 133.788 240.105 135.257C240.105 136.726 240.54 137.906 241.41 138.795C242.299 139.665 243.43 140.1 244.803 140.1C245.595 140.1 246.32 139.926 246.978 139.578C247.654 139.211 248.215 138.669 248.66 137.954L251.444 139.578C250.844 140.738 249.965 141.637 248.805 142.275C247.664 142.894 246.34 143.203 244.832 143.203ZM260.493 127.34C262.775 127.34 264.515 127.891 265.713 128.993C266.931 130.076 267.54 131.719 267.54 133.923V143H264.118V141.115C263.674 141.792 263.036 142.314 262.204 142.681C261.392 143.029 260.406 143.203 259.246 143.203C258.086 143.203 257.071 143.01 256.201 142.623C255.331 142.217 254.655 141.666 254.171 140.97C253.707 140.255 253.475 139.452 253.475 138.563C253.475 137.171 253.988 136.059 255.012 135.228C256.056 134.377 257.69 133.952 259.913 133.952H263.915V133.72C263.915 132.637 263.587 131.806 262.929 131.226C262.291 130.646 261.334 130.356 260.058 130.356C259.188 130.356 258.328 130.491 257.477 130.762C256.646 131.033 255.94 131.41 255.36 131.893L253.939 129.254C254.751 128.635 255.728 128.162 256.868 127.833C258.009 127.504 259.217 127.34 260.493 127.34ZM260 140.564C260.909 140.564 261.711 140.361 262.407 139.955C263.123 139.53 263.625 138.93 263.915 138.157V136.359H260.174C258.086 136.359 257.042 137.045 257.042 138.418C257.042 139.075 257.303 139.597 257.825 139.984C258.347 140.371 259.072 140.564 260 140.564ZM281.501 142.159C281.076 142.507 280.554 142.768 279.935 142.942C279.336 143.116 278.698 143.203 278.021 143.203C276.32 143.203 275.005 142.758 274.077 141.869C273.149 140.98 272.685 139.684 272.685 137.983V130.53H270.133V127.63H272.685V124.092H276.31V127.63H280.457V130.53H276.31V137.896C276.31 138.65 276.494 139.23 276.861 139.636C277.229 140.023 277.76 140.216 278.456 140.216C279.268 140.216 279.945 140.003 280.486 139.578L281.501 142.159ZM284.483 127.514H288.108V143H284.483V127.514ZM286.31 124.962C285.653 124.962 285.102 124.759 284.657 124.353C284.213 123.928 283.99 123.406 283.99 122.787C283.99 122.168 284.213 121.656 284.657 121.25C285.102 120.825 285.653 120.612 286.31 120.612C286.968 120.612 287.519 120.815 287.963 121.221C288.408 121.608 288.63 122.101 288.63 122.7C288.63 123.338 288.408 123.879 287.963 124.324C287.538 124.749 286.987 124.962 286.31 124.962ZM299.826 143.203C298.26 143.203 296.849 142.865 295.592 142.188C294.336 141.511 293.35 140.574 292.634 139.375C291.938 138.157 291.59 136.784 291.59 135.257C291.59 133.73 291.938 132.367 292.634 131.168C293.35 129.969 294.336 129.032 295.592 128.355C296.849 127.678 298.26 127.34 299.826 127.34C301.412 127.34 302.833 127.678 304.089 128.355C305.346 129.032 306.322 129.969 307.018 131.168C307.734 132.367 308.091 133.73 308.091 135.257C308.091 136.784 307.734 138.157 307.018 139.375C306.322 140.574 305.346 141.511 304.089 142.188C302.833 142.865 301.412 143.203 299.826 143.203ZM299.826 140.1C301.16 140.1 302.262 139.655 303.132 138.766C304.002 137.877 304.437 136.707 304.437 135.257C304.437 133.807 304.002 132.637 303.132 131.748C302.262 130.859 301.16 130.414 299.826 130.414C298.492 130.414 297.39 130.859 296.52 131.748C295.67 132.637 295.244 133.807 295.244 135.257C295.244 136.707 295.67 137.877 296.52 138.766C297.39 139.655 298.492 140.1 299.826 140.1ZM320.345 127.34C322.297 127.34 323.863 127.91 325.043 129.051C326.222 130.192 326.812 131.883 326.812 134.126V143H323.187V134.59C323.187 133.237 322.868 132.222 322.23 131.545C321.592 130.849 320.683 130.501 319.504 130.501C318.17 130.501 317.116 130.907 316.343 131.719C315.569 132.512 315.183 133.662 315.183 135.17V143H311.558V127.514H315.009V129.515C315.608 128.8 316.362 128.258 317.271 127.891C318.179 127.524 319.204 127.34 320.345 127.34ZM345.341 127.34C347.622 127.34 349.362 127.891 350.561 128.993C351.779 130.076 352.388 131.719 352.388 133.923V143H348.966V141.115C348.521 141.792 347.883 142.314 347.052 142.681C346.24 143.029 345.254 143.203 344.094 143.203C342.934 143.203 341.919 143.01 341.049 142.623C340.179 142.217 339.502 141.666 339.019 140.97C338.555 140.255 338.323 139.452 338.323 138.563C338.323 137.171 338.835 136.059 339.86 135.228C340.904 134.377 342.538 133.952 344.761 133.952H348.763V133.72C348.763 132.637 348.434 131.806 347.777 131.226C347.139 130.646 346.182 130.356 344.906 130.356C344.036 130.356 343.176 130.491 342.325 130.762C341.494 131.033 340.788 131.41 340.208 131.893L338.787 129.254C339.599 128.635 340.575 128.162 341.716 127.833C342.857 127.504 344.065 127.34 345.341 127.34ZM344.848 140.564C345.757 140.564 346.559 140.361 347.255 139.955C347.97 139.53 348.473 138.93 348.763 138.157V136.359H345.022C342.934 136.359 341.89 137.045 341.89 138.418C341.89 139.075 342.151 139.597 342.673 139.984C343.195 140.371 343.92 140.564 344.848 140.564ZM357.04 127.514H360.665V143H357.04V127.514ZM358.867 124.962C358.21 124.962 357.659 124.759 357.214 124.353C356.769 123.928 356.547 123.406 356.547 122.787C356.547 122.168 356.769 121.656 357.214 121.25C357.659 120.825 358.21 120.612 358.867 120.612C359.524 120.612 360.075 120.815 360.52 121.221C360.965 121.608 361.187 122.101 361.187 122.7C361.187 123.338 360.965 123.879 360.52 124.324C360.095 124.749 359.544 124.962 358.867 124.962ZM380.59 121.482V143H377.11V140.999C376.511 141.734 375.766 142.285 374.877 142.652C374.007 143.019 373.04 143.203 371.977 143.203C370.488 143.203 369.145 142.874 367.946 142.217C366.767 141.56 365.839 140.632 365.162 139.433C364.485 138.215 364.147 136.823 364.147 135.257C364.147 133.691 364.485 132.309 365.162 131.11C365.839 129.911 366.767 128.983 367.946 128.326C369.145 127.669 370.488 127.34 371.977 127.34C373.002 127.34 373.939 127.514 374.79 127.862C375.641 128.21 376.366 128.732 376.965 129.428V121.482H380.59ZM372.412 140.1C373.282 140.1 374.065 139.907 374.761 139.52C375.457 139.114 376.008 138.544 376.414 137.809C376.82 137.074 377.023 136.224 377.023 135.257C377.023 134.29 376.82 133.44 376.414 132.705C376.008 131.97 375.457 131.41 374.761 131.023C374.065 130.617 373.282 130.414 372.412 130.414C371.542 130.414 370.759 130.617 370.063 131.023C369.367 131.41 368.816 131.97 368.41 132.705C368.004 133.44 367.801 134.29 367.801 135.257C367.801 136.224 368.004 137.074 368.41 137.809C368.816 138.544 369.367 139.114 370.063 139.52C370.759 139.907 371.542 140.1 372.412 140.1ZM100.338 178.203C98.772 178.203 97.3607 177.865 96.104 177.188C94.8473 176.511 93.8613 175.574 93.146 174.375C92.45 173.157 92.102 171.784 92.102 170.257C92.102 168.73 92.45 167.367 93.146 166.168C93.8613 164.969 94.8473 164.032 96.104 163.355C97.3607 162.678 98.772 162.34 100.338 162.34C101.923 162.34 103.344 162.678 104.601 163.355C105.858 164.032 106.834 164.969 107.53 166.168C108.245 167.367 108.603 168.73 108.603 170.257C108.603 171.784 108.245 173.157 107.53 174.375C106.834 175.574 105.858 176.511 104.601 177.188C103.344 177.865 101.923 178.203 100.338 178.203ZM100.338 175.1C101.672 175.1 102.774 174.655 103.644 173.766C104.514 172.877 104.949 171.707 104.949 170.257C104.949 168.807 104.514 167.637 103.644 166.748C102.774 165.859 101.672 165.414 100.338 165.414C99.004 165.414 97.902 165.859 97.032 166.748C96.1813 167.637 95.756 168.807 95.756 170.257C95.756 171.707 96.1813 172.877 97.032 173.766C97.902 174.655 99.004 175.1 100.338 175.1ZM118.362 159.208C116.835 159.208 116.071 160.039 116.071 161.702V162.63H120.334V165.53H116.187V178H112.562V165.53H110.01V162.63H112.562V161.644C112.562 159.981 113.046 158.676 114.012 157.729C114.979 156.762 116.342 156.279 118.101 156.279C119.493 156.279 120.586 156.559 121.378 157.12L120.363 159.846C119.745 159.421 119.078 159.208 118.362 159.208ZM145.956 156.482V178H142.476V175.999C141.877 176.734 141.132 177.285 140.243 177.652C139.373 178.019 138.406 178.203 137.343 178.203C135.854 178.203 134.511 177.874 133.312 177.217C132.133 176.56 131.205 175.632 130.528 174.433C129.851 173.215 129.513 171.823 129.513 170.257C129.513 168.691 129.851 167.309 130.528 166.11C131.205 164.911 132.133 163.983 133.312 163.326C134.511 162.669 135.854 162.34 137.343 162.34C138.368 162.34 139.305 162.514 140.156 162.862C141.007 163.21 141.732 163.732 142.331 164.428V156.482H145.956ZM137.778 175.1C138.648 175.1 139.431 174.907 140.127 174.52C140.823 174.114 141.374 173.544 141.78 172.809C142.186 172.074 142.389 171.224 142.389 170.257C142.389 169.29 142.186 168.44 141.78 167.705C141.374 166.97 140.823 166.41 140.127 166.023C139.431 165.617 138.648 165.414 137.778 165.414C136.908 165.414 136.125 165.617 135.429 166.023C134.733 166.41 134.182 166.97 133.776 167.705C133.37 168.44 133.167 169.29 133.167 170.257C133.167 171.224 133.37 172.074 133.776 172.809C134.182 173.544 134.733 174.114 135.429 174.52C136.125 174.907 136.908 175.1 137.778 175.1ZM165.256 170.344C165.256 170.595 165.237 170.953 165.198 171.417H153.047C153.26 172.558 153.811 173.466 154.7 174.143C155.609 174.8 156.73 175.129 158.064 175.129C159.766 175.129 161.167 174.568 162.269 173.447L164.212 175.68C163.516 176.511 162.637 177.14 161.573 177.565C160.51 177.99 159.311 178.203 157.977 178.203C156.276 178.203 154.778 177.865 153.482 177.188C152.187 176.511 151.182 175.574 150.466 174.375C149.77 173.157 149.422 171.784 149.422 170.257C149.422 168.749 149.761 167.396 150.437 166.197C151.133 164.979 152.09 164.032 153.308 163.355C154.526 162.678 155.899 162.34 157.426 162.34C158.934 162.34 160.278 162.678 161.457 163.355C162.656 164.012 163.584 164.95 164.241 166.168C164.918 167.367 165.256 168.759 165.256 170.344ZM157.426 165.24C156.266 165.24 155.28 165.588 154.468 166.284C153.676 166.961 153.192 167.869 153.018 169.01H161.805C161.651 167.889 161.177 166.98 160.384 166.284C159.592 165.588 158.606 165.24 157.426 165.24ZM177.322 162.34C178.83 162.34 180.174 162.669 181.353 163.326C182.552 163.983 183.49 164.911 184.166 166.11C184.843 167.309 185.181 168.691 185.181 170.257C185.181 171.823 184.843 173.215 184.166 174.433C183.49 175.632 182.552 176.56 181.353 177.217C180.174 177.874 178.83 178.203 177.322 178.203C175.234 178.203 173.581 177.507 172.363 176.115V183.626H168.738V162.514H172.189V164.544C172.789 163.809 173.523 163.258 174.393 162.891C175.283 162.524 176.259 162.34 177.322 162.34ZM176.916 175.1C178.25 175.1 179.343 174.655 180.193 173.766C181.063 172.877 181.498 171.707 181.498 170.257C181.498 168.807 181.063 167.637 180.193 166.748C179.343 165.859 178.25 165.414 176.916 165.414C176.046 165.414 175.263 165.617 174.567 166.023C173.871 166.41 173.32 166.97 172.914 167.705C172.508 168.44 172.305 169.29 172.305 170.257C172.305 171.224 172.508 172.074 172.914 172.809C173.32 173.544 173.871 174.114 174.567 174.52C175.263 174.907 176.046 175.1 176.916 175.1ZM192.07 164.776C193.114 163.152 194.951 162.34 197.58 162.34V165.791C197.271 165.733 196.991 165.704 196.739 165.704C195.328 165.704 194.226 166.12 193.433 166.951C192.641 167.763 192.244 168.942 192.244 170.489V178H188.619V162.514H192.07V164.776ZM215.072 170.344C215.072 170.595 215.052 170.953 215.014 171.417H202.863C203.075 172.558 203.626 173.466 204.516 174.143C205.424 174.8 206.546 175.129 207.88 175.129C209.581 175.129 210.983 174.568 212.085 173.447L214.028 175.68C213.332 176.511 212.452 177.14 211.389 177.565C210.325 177.99 209.127 178.203 207.793 178.203C206.091 178.203 204.593 177.865 203.298 177.188C202.002 176.511 200.997 175.574 200.282 174.375C199.586 173.157 199.238 171.784 199.238 170.257C199.238 168.749 199.576 167.396 200.253 166.197C200.949 164.979 201.906 164.032 203.124 163.355C204.342 162.678 205.714 162.34 207.242 162.34C208.75 162.34 210.093 162.678 211.273 163.355C212.471 164.012 213.399 164.95 214.057 166.168C214.733 167.367 215.072 168.759 215.072 170.344ZM207.242 165.24C206.082 165.24 205.096 165.588 204.284 166.284C203.491 166.961 203.008 167.869 202.834 169.01H211.621C211.466 167.889 210.992 166.98 210.2 166.284C209.407 165.588 208.421 165.24 207.242 165.24ZM223.339 178.203C222.082 178.203 220.854 178.039 219.656 177.71C218.457 177.381 217.5 176.966 216.785 176.463L218.177 173.708C218.873 174.172 219.704 174.549 220.671 174.839C221.657 175.11 222.623 175.245 223.571 175.245C225.736 175.245 226.819 174.675 226.819 173.534C226.819 172.993 226.538 172.616 225.978 172.403C225.436 172.19 224.557 171.987 223.339 171.794C222.063 171.601 221.019 171.378 220.207 171.127C219.414 170.876 218.718 170.441 218.119 169.822C217.539 169.184 217.249 168.304 217.249 167.183C217.249 165.714 217.858 164.544 219.076 163.674C220.313 162.785 221.976 162.34 224.064 162.34C225.127 162.34 226.19 162.466 227.254 162.717C228.317 162.949 229.187 163.268 229.864 163.674L228.472 166.429C227.157 165.656 225.678 165.269 224.035 165.269C222.971 165.269 222.159 165.433 221.599 165.762C221.057 166.071 220.787 166.487 220.787 167.009C220.787 167.589 221.077 168.005 221.657 168.256C222.256 168.488 223.174 168.71 224.412 168.923C225.649 169.116 226.664 169.339 227.457 169.59C228.249 169.841 228.926 170.267 229.487 170.866C230.067 171.465 230.357 172.316 230.357 173.418C230.357 174.868 229.728 176.028 228.472 176.898C227.215 177.768 225.504 178.203 223.339 178.203ZM238.264 178.203C237.007 178.203 235.779 178.039 234.581 177.71C233.382 177.381 232.425 176.966 231.71 176.463L233.102 173.708C233.798 174.172 234.629 174.549 235.596 174.839C236.582 175.11 237.548 175.245 238.496 175.245C240.661 175.245 241.744 174.675 241.744 173.534C241.744 172.993 241.463 172.616 240.903 172.403C240.361 172.19 239.482 171.987 238.264 171.794C236.988 171.601 235.944 171.378 235.132 171.127C234.339 170.876 233.643 170.441 233.044 169.822C232.464 169.184 232.174 168.304 232.174 167.183C232.174 165.714 232.783 164.544 234.001 163.674C235.238 162.785 236.901 162.34 238.989 162.34C240.052 162.34 241.115 162.466 242.179 162.717C243.242 162.949 244.112 163.268 244.789 163.674L243.397 166.429C242.082 165.656 240.603 165.269 238.96 165.269C237.896 165.269 237.084 165.433 236.524 165.762C235.982 166.071 235.712 166.487 235.712 167.009C235.712 167.589 236.002 168.005 236.582 168.256C237.181 168.488 238.099 168.71 239.337 168.923C240.574 169.116 241.589 169.339 242.382 169.59C243.174 169.841 243.851 170.267 244.412 170.866C244.992 171.465 245.282 172.316 245.282 173.418C245.282 174.868 244.653 176.028 243.397 176.898C242.14 177.768 240.429 178.203 238.264 178.203ZM262.961 170.344C262.961 170.595 262.942 170.953 262.903 171.417H250.752C250.965 172.558 251.516 173.466 252.405 174.143C253.314 174.8 254.435 175.129 255.769 175.129C257.471 175.129 258.872 174.568 259.974 173.447L261.917 175.68C261.221 176.511 260.342 177.14 259.278 177.565C258.215 177.99 257.016 178.203 255.682 178.203C253.981 178.203 252.483 177.865 251.187 177.188C249.892 176.511 248.887 175.574 248.171 174.375C247.475 173.157 247.127 171.784 247.127 170.257C247.127 168.749 247.466 167.396 248.142 166.197C248.838 164.979 249.795 164.032 251.013 163.355C252.231 162.678 253.604 162.34 255.131 162.34C256.639 162.34 257.983 162.678 259.162 163.355C260.361 164.012 261.289 164.95 261.946 166.168C262.623 167.367 262.961 168.759 262.961 170.344ZM255.131 165.24C253.971 165.24 252.985 165.588 252.173 166.284C251.381 166.961 250.897 167.869 250.723 169.01H259.51C259.356 167.889 258.882 166.98 258.089 166.284C257.297 165.588 256.311 165.24 255.131 165.24ZM281.61 156.482V178H278.13V175.999C277.531 176.734 276.787 177.285 275.897 177.652C275.027 178.019 274.061 178.203 272.997 178.203C271.509 178.203 270.165 177.874 268.966 177.217C267.787 176.56 266.859 175.632 266.182 174.433C265.506 173.215 265.167 171.823 265.167 170.257C265.167 168.691 265.506 167.309 266.182 166.11C266.859 164.911 267.787 163.983 268.966 163.326C270.165 162.669 271.509 162.34 272.997 162.34C274.022 162.34 274.96 162.514 275.81 162.862C276.661 163.21 277.386 163.732 277.985 164.428V156.482H281.61ZM273.432 175.1C274.302 175.1 275.085 174.907 275.781 174.52C276.477 174.114 277.028 173.544 277.434 172.809C277.84 172.074 278.043 171.224 278.043 170.257C278.043 169.29 277.84 168.44 277.434 167.705C277.028 166.97 276.477 166.41 275.781 166.023C275.085 165.617 274.302 165.414 273.432 165.414C272.562 165.414 271.779 165.617 271.083 166.023C270.387 166.41 269.836 166.97 269.43 167.705C269.024 168.44 268.821 169.29 268.821 170.257C268.821 171.224 269.024 172.074 269.43 172.809C269.836 173.544 270.387 174.114 271.083 174.52C271.779 174.907 272.562 175.1 273.432 175.1ZM99.294 197.34C101.575 197.34 103.315 197.891 104.514 198.993C105.732 200.076 106.341 201.719 106.341 203.923V213H102.919V211.115C102.474 211.792 101.836 212.314 101.005 212.681C100.193 213.029 99.207 213.203 98.047 213.203C96.887 213.203 95.872 213.01 95.002 212.623C94.132 212.217 93.4553 211.666 92.972 210.97C92.508 210.255 92.276 209.452 92.276 208.563C92.276 207.171 92.7883 206.059 93.813 205.228C94.857 204.377 96.4907 203.952 98.714 203.952H102.716V203.72C102.716 202.637 102.387 201.806 101.73 201.226C101.092 200.646 100.135 200.356 98.859 200.356C97.989 200.356 97.1287 200.491 96.278 200.762C95.4467 201.033 94.741 201.41 94.161 201.893L92.74 199.254C93.552 198.635 94.5283 198.162 95.669 197.833C96.8097 197.504 98.018 197.34 99.294 197.34ZM98.801 210.564C99.7097 210.564 100.512 210.361 101.208 209.955C101.923 209.53 102.426 208.93 102.716 208.157V206.359H98.975C96.887 206.359 95.843 207.045 95.843 208.418C95.843 209.075 96.104 209.597 96.626 209.984C97.148 210.371 97.873 210.564 98.801 210.564ZM126.302 191.482V213H122.822V210.999C122.223 211.734 121.478 212.285 120.589 212.652C119.719 213.019 118.752 213.203 117.689 213.203C116.2 213.203 114.857 212.874 113.658 212.217C112.479 211.56 111.551 210.632 110.874 209.433C110.197 208.215 109.859 206.823 109.859 205.257C109.859 203.691 110.197 202.309 110.874 201.11C111.551 199.911 112.479 198.983 113.658 198.326C114.857 197.669 116.2 197.34 117.689 197.34C118.714 197.34 119.651 197.514 120.502 197.862C121.353 198.21 122.078 198.732 122.677 199.428V191.482H126.302ZM118.124 210.1C118.994 210.1 119.777 209.907 120.473 209.52C121.169 209.114 121.72 208.544 122.126 207.809C122.532 207.074 122.735 206.224 122.735 205.257C122.735 204.29 122.532 203.44 122.126 202.705C121.72 201.97 121.169 201.41 120.473 201.023C119.777 200.617 118.994 200.414 118.124 200.414C117.254 200.414 116.471 200.617 115.775 201.023C115.079 201.41 114.528 201.97 114.122 202.705C113.716 203.44 113.513 204.29 113.513 205.257C113.513 206.224 113.716 207.074 114.122 207.809C114.528 208.544 115.079 209.114 115.775 209.52C116.471 209.907 117.254 210.1 118.124 210.1ZM138.004 213.203C136.438 213.203 135.027 212.865 133.77 212.188C132.513 211.511 131.527 210.574 130.812 209.375C130.116 208.157 129.768 206.784 129.768 205.257C129.768 203.73 130.116 202.367 130.812 201.168C131.527 199.969 132.513 199.032 133.77 198.355C135.027 197.678 136.438 197.34 138.004 197.34C139.589 197.34 141.01 197.678 142.267 198.355C143.524 199.032 144.5 199.969 145.196 201.168C145.911 202.367 146.269 203.73 146.269 205.257C146.269 206.784 145.911 208.157 145.196 209.375C144.5 210.574 143.524 211.511 142.267 212.188C141.01 212.865 139.589 213.203 138.004 213.203ZM138.004 210.1C139.338 210.1 140.44 209.655 141.31 208.766C142.18 207.877 142.615 206.707 142.615 205.257C142.615 203.807 142.18 202.637 141.31 201.748C140.44 200.859 139.338 200.414 138.004 200.414C136.67 200.414 135.568 200.859 134.698 201.748C133.847 202.637 133.422 203.807 133.422 205.257C133.422 206.707 133.847 207.877 134.698 208.766C135.568 209.655 136.67 210.1 138.004 210.1ZM149.735 191.482H153.36V213H149.735V191.482ZM172.676 205.344C172.676 205.595 172.657 205.953 172.618 206.417H160.467C160.68 207.558 161.231 208.466 162.12 209.143C163.029 209.8 164.15 210.129 165.484 210.129C167.186 210.129 168.587 209.568 169.689 208.447L171.632 210.68C170.936 211.511 170.057 212.14 168.993 212.565C167.93 212.99 166.731 213.203 165.397 213.203C163.696 213.203 162.198 212.865 160.902 212.188C159.607 211.511 158.602 210.574 157.886 209.375C157.19 208.157 156.842 206.784 156.842 205.257C156.842 203.749 157.181 202.396 157.857 201.197C158.553 199.979 159.51 199.032 160.728 198.355C161.946 197.678 163.319 197.34 164.846 197.34C166.354 197.34 167.698 197.678 168.877 198.355C170.076 199.012 171.004 199.95 171.661 201.168C172.338 202.367 172.676 203.759 172.676 205.344ZM164.846 200.24C163.686 200.24 162.7 200.588 161.888 201.284C161.096 201.961 160.612 202.869 160.438 204.01H169.225C169.071 202.889 168.597 201.98 167.804 201.284C167.012 200.588 166.026 200.24 164.846 200.24ZM180.943 213.203C179.687 213.203 178.459 213.039 177.26 212.71C176.062 212.381 175.105 211.966 174.389 211.463L175.781 208.708C176.477 209.172 177.309 209.549 178.275 209.839C179.261 210.11 180.228 210.245 181.175 210.245C183.341 210.245 184.423 209.675 184.423 208.534C184.423 207.993 184.143 207.616 183.582 207.403C183.041 207.19 182.161 206.987 180.943 206.794C179.667 206.601 178.623 206.378 177.811 206.127C177.019 205.876 176.323 205.441 175.723 204.822C175.143 204.184 174.853 203.304 174.853 202.183C174.853 200.714 175.462 199.544 176.68 198.674C177.918 197.785 179.58 197.34 181.668 197.34C182.732 197.34 183.795 197.466 184.858 197.717C185.922 197.949 186.792 198.268 187.468 198.674L186.076 201.429C184.762 200.656 183.283 200.269 181.639 200.269C180.576 200.269 179.764 200.433 179.203 200.762C178.662 201.071 178.391 201.487 178.391 202.009C178.391 202.589 178.681 203.005 179.261 203.256C179.861 203.488 180.779 203.71 182.016 203.923C183.254 204.116 184.269 204.339 185.061 204.59C185.854 204.841 186.531 205.267 187.091 205.866C187.671 206.465 187.961 207.316 187.961 208.418C187.961 209.868 187.333 211.028 186.076 211.898C184.82 212.768 183.109 213.203 180.943 213.203ZM198.188 213.203C196.583 213.203 195.143 212.865 193.867 212.188C192.591 211.511 191.595 210.574 190.88 209.375C190.165 208.157 189.807 206.784 189.807 205.257C189.807 203.73 190.165 202.367 190.88 201.168C191.595 199.969 192.581 199.032 193.838 198.355C195.114 197.678 196.564 197.34 198.188 197.34C199.715 197.34 201.049 197.649 202.19 198.268C203.35 198.887 204.22 199.776 204.8 200.936L202.016 202.56C201.571 201.845 201.011 201.313 200.334 200.965C199.677 200.598 198.952 200.414 198.159 200.414C196.806 200.414 195.684 200.859 194.795 201.748C193.906 202.618 193.461 203.788 193.461 205.257C193.461 206.726 193.896 207.906 194.766 208.795C195.655 209.665 196.786 210.1 198.159 210.1C198.952 210.1 199.677 209.926 200.334 209.578C201.011 209.211 201.571 208.669 202.016 207.954L204.8 209.578C204.201 210.738 203.321 211.637 202.161 212.275C201.02 212.894 199.696 213.203 198.188 213.203ZM222.265 205.344C222.265 205.595 222.246 205.953 222.207 206.417H210.056C210.269 207.558 210.82 208.466 211.709 209.143C212.618 209.8 213.739 210.129 215.073 210.129C216.774 210.129 218.176 209.568 219.278 208.447L221.221 210.68C220.525 211.511 219.645 212.14 218.582 212.565C217.519 212.99 216.32 213.203 214.986 213.203C213.285 213.203 211.786 212.865 210.491 212.188C209.196 211.511 208.19 210.574 207.475 209.375C206.779 208.157 206.431 206.784 206.431 205.257C206.431 203.749 206.769 202.396 207.446 201.197C208.142 199.979 209.099 199.032 210.317 198.355C211.535 197.678 212.908 197.34 214.435 197.34C215.943 197.34 217.287 197.678 218.466 198.355C219.665 199.012 220.593 199.95 221.25 201.168C221.927 202.367 222.265 203.759 222.265 205.344ZM214.435 200.24C213.275 200.24 212.289 200.588 211.477 201.284C210.684 201.961 210.201 202.869 210.027 204.01H218.814C218.659 202.889 218.186 201.98 217.393 201.284C216.6 200.588 215.614 200.24 214.435 200.24ZM234.534 197.34C236.487 197.34 238.053 197.91 239.232 199.051C240.411 200.192 241.001 201.883 241.001 204.126V213H237.376V204.59C237.376 203.237 237.057 202.222 236.419 201.545C235.781 200.849 234.872 200.501 233.693 200.501C232.359 200.501 231.305 200.907 230.532 201.719C229.759 202.512 229.372 203.662 229.372 205.17V213H225.747V197.514H229.198V199.515C229.797 198.8 230.551 198.258 231.46 197.891C232.369 197.524 233.393 197.34 234.534 197.34ZM254.909 212.159C254.483 212.507 253.961 212.768 253.343 212.942C252.743 213.116 252.105 213.203 251.429 213.203C249.727 213.203 248.413 212.758 247.485 211.869C246.557 210.98 246.093 209.684 246.093 207.983V200.53H243.541V197.63H246.093V194.092H249.718V197.63H253.865V200.53H249.718V207.896C249.718 208.65 249.901 209.23 250.269 209.636C250.636 210.023 251.168 210.216 251.864 210.216C252.676 210.216 253.352 210.003 253.894 209.578L254.909 212.159ZM262.676 213.203C261.419 213.203 260.191 213.039 258.993 212.71C257.794 212.381 256.837 211.966 256.122 211.463L257.514 208.708C258.21 209.172 259.041 209.549 260.008 209.839C260.994 210.11 261.96 210.245 262.908 210.245C265.073 210.245 266.156 209.675 266.156 208.534C266.156 207.993 265.875 207.616 265.315 207.403C264.773 207.19 263.894 206.987 262.676 206.794C261.4 206.601 260.356 206.378 259.544 206.127C258.751 205.876 258.055 205.441 257.456 204.822C256.876 204.184 256.586 203.304 256.586 202.183C256.586 200.714 257.195 199.544 258.413 198.674C259.65 197.785 261.313 197.34 263.401 197.34C264.464 197.34 265.527 197.466 266.591 197.717C267.654 197.949 268.524 198.268 269.201 198.674L267.809 201.429C266.494 200.656 265.015 200.269 263.372 200.269C262.308 200.269 261.496 200.433 260.936 200.762C260.394 201.071 260.124 201.487 260.124 202.009C260.124 202.589 260.414 203.005 260.994 203.256C261.593 203.488 262.511 203.71 263.749 203.923C264.986 204.116 266.001 204.339 266.794 204.59C267.586 204.841 268.263 205.267 268.824 205.866C269.404 206.465 269.694 207.316 269.694 208.418C269.694 209.868 269.065 211.028 267.809 211.898C266.552 212.768 264.841 213.203 262.676 213.203Z" fill="white"/>
</g>
<defs>
<filter id="filter0_d" x="81.855" y="83.279" width="305.735" height="142.924" filterUnits="userSpaceOnUse" color-interpolation-filters="sRGB">
<feFlood flood-opacity="0" result="BackgroundImageFix"/>
<feColorMatrix in="SourceAlpha" type="matrix" values="0 0 0 0 0 0 0 0 0 0 0 0 0 0 0 0 0 0 127 0"/>
<feOffset dy="4"/>
<feGaussianBlur stdDeviation="4"/>
<feColorMatrix type="matrix" values="0 0 0 0 0 0 0 0 0 0 0 0 0 0 0 0 0 0 0.51 0"/>
<feBlend mode="normal" in2="BackgroundImageFix" result="effect1_dropShadow"/>
<feBlend mode="normal" in="SourceGraphic" in2="effect1_dropShadow" result="shape"/>
</filter>
<filter id="filter1_d" x="0.85498" y="0.278999" width="469.735" height="306.924" filterUnits="userSpaceOnUse" color-interpolation-filters="sRGB">
<feFlood flood-opacity="0" result="BackgroundImageFix"/>
<feColorMatrix in="SourceAlpha" type="matrix" values="0 0 0 0 0 0 0 0 0 0 0 0 0 0 0 0 0 0 127 0"/>
<feOffset dy="4"/>
<feGaussianBlur stdDeviation="45"/>
<feColorMatrix type="matrix" values="0 0 0 0 0 0 0 0 0 0 0 0 0 0 0 0 0 0 1 0"/>
<feBlend mode="normal" in2="BackgroundImageFix" result="effect1_dropShadow"/>
<feBlend mode="normal" in="SourceGraphic" in2="effect1_dropShadow" result="shape"/>
</filter>
</defs>
</svg>
