<svg width="279" height="109" viewBox="0 0 279 109" fill="none" xmlns="http://www.w3.org/2000/svg">
<g filter="url(#filter0_d)">
<path d="M37.4569 23.2C35.5236 23.2 34.0169 22.66 32.9369 21.58C31.8569 20.4867 31.3169 18.9267 31.3169 16.9V9H33.9169V16.8C33.9169 19.5467 35.1036 20.92 37.4769 20.92C39.8369 20.92 41.0169 19.5467 41.0169 16.8V9H43.5769V16.9C43.5769 18.9267 43.0369 20.4867 41.9569 21.58C40.8902 22.66 39.3902 23.2 37.4569 23.2ZM60.4582 12.2C61.8048 12.2 62.8715 12.5933 63.6582 13.38C64.4448 14.1533 64.8382 15.32 64.8382 16.88V23H62.3382V17.2C62.3382 16.2667 62.1315 15.5667 61.7182 15.1C61.3048 14.62 60.7115 14.38 59.9382 14.38C59.0982 14.38 58.4248 14.66 57.9182 15.22C57.4115 15.7667 57.1582 16.5533 57.1582 17.58V23H54.6582V17.2C54.6582 16.2667 54.4515 15.5667 54.0382 15.1C53.6248 14.62 53.0315 14.38 52.2582 14.38C51.4048 14.38 50.7248 14.6533 50.2182 15.2C49.7248 15.7467 49.4782 16.54 49.4782 17.58V23H46.9782V12.32H49.3582V13.68C49.7582 13.2 50.2582 12.8333 50.8582 12.58C51.4582 12.3267 52.1248 12.2 52.8582 12.2C53.6582 12.2 54.3648 12.3533 54.9782 12.66C55.6048 12.9533 56.0982 13.3933 56.4582 13.98C56.8982 13.42 57.4648 12.9867 58.1582 12.68C58.8515 12.36 59.6182 12.2 60.4582 12.2ZM72.1128 12.2C73.6862 12.2 74.8862 12.58 75.7128 13.34C76.5528 14.0867 76.9728 15.22 76.9728 16.74V23H74.6128V21.7C74.3062 22.1667 73.8662 22.5267 73.2928 22.78C72.7328 23.02 72.0528 23.14 71.2528 23.14C70.4528 23.14 69.7528 23.0067 69.1528 22.74C68.5528 22.46 68.0862 22.08 67.7528 21.6C67.4328 21.1067 67.2728 20.5533 67.2728 19.94C67.2728 18.98 67.6262 18.2133 68.3328 17.64C69.0528 17.0533 70.1795 16.76 71.7128 16.76H74.4728V16.6C74.4728 15.8533 74.2462 15.28 73.7928 14.88C73.3528 14.48 72.6928 14.28 71.8128 14.28C71.2128 14.28 70.6195 14.3733 70.0328 14.56C69.4595 14.7467 68.9728 15.0067 68.5728 15.34L67.5928 13.52C68.1528 13.0933 68.8262 12.7667 69.6128 12.54C70.3995 12.3133 71.2328 12.2 72.1128 12.2ZM71.7728 21.32C72.3995 21.32 72.9528 21.18 73.4328 20.9C73.9262 20.6067 74.2728 20.1933 74.4728 19.66V18.42H71.8928C70.4528 18.42 69.7328 18.8933 69.7328 19.84C69.7328 20.2933 69.9128 20.6533 70.2728 20.92C70.6328 21.1867 71.1328 21.32 71.7728 21.32ZM91.6286 12.2C92.6686 12.2 93.5953 12.4267 94.4086 12.88C95.2353 13.3333 95.882 13.9733 96.3486 14.8C96.8153 15.6267 97.0486 16.58 97.0486 17.66C97.0486 18.74 96.8153 19.7 96.3486 20.54C95.882 21.3667 95.2353 22.0067 94.4086 22.46C93.5953 22.9133 92.6686 23.14 91.6286 23.14C90.1886 23.14 89.0486 22.66 88.2086 21.7V26.88H85.7086V12.32H88.0886V13.72C88.502 13.2133 89.0086 12.8333 89.6086 12.58C90.222 12.3267 90.8953 12.2 91.6286 12.2ZM91.3486 21C92.2686 21 93.022 20.6933 93.6086 20.08C94.2086 19.4667 94.5086 18.66 94.5086 17.66C94.5086 16.66 94.2086 15.8533 93.6086 15.24C93.022 14.6267 92.2686 14.32 91.3486 14.32C90.7486 14.32 90.2086 14.46 89.7286 14.74C89.2486 15.0067 88.8686 15.3933 88.5886 15.9C88.3086 16.4067 88.1686 16.9933 88.1686 17.66C88.1686 18.3267 88.3086 18.9133 88.5886 19.42C88.8686 19.9267 89.2486 20.32 89.7286 20.6C90.2086 20.8667 90.7486 21 91.3486 21ZM99.4196 8.16H101.92V23H99.4196V8.16ZM109.281 12.2C110.854 12.2 112.054 12.58 112.881 13.34C113.721 14.0867 114.141 15.22 114.141 16.74V23H111.781V21.7C111.474 22.1667 111.034 22.5267 110.461 22.78C109.901 23.02 109.221 23.14 108.421 23.14C107.621 23.14 106.921 23.0067 106.321 22.74C105.721 22.46 105.254 22.08 104.921 21.6C104.601 21.1067 104.441 20.5533 104.441 19.94C104.441 18.98 104.794 18.2133 105.501 17.64C106.221 17.0533 107.347 16.76 108.881 16.76H111.641V16.6C111.641 15.8533 111.414 15.28 110.961 14.88C110.521 14.48 109.861 14.28 108.981 14.28C108.381 14.28 107.787 14.3733 107.201 14.56C106.627 14.7467 106.141 15.0067 105.741 15.34L104.761 13.52C105.321 13.0933 105.994 12.7667 106.781 12.54C107.567 12.3133 108.401 12.2 109.281 12.2ZM108.941 21.32C109.567 21.32 110.121 21.18 110.601 20.9C111.094 20.6067 111.441 20.1933 111.641 19.66V18.42H109.061C107.621 18.42 106.901 18.8933 106.901 19.84C106.901 20.2933 107.081 20.6533 107.441 20.92C107.801 21.1867 108.301 21.32 108.941 21.32ZM123.769 22.42C123.476 22.66 123.116 22.84 122.689 22.96C122.276 23.08 121.836 23.14 121.369 23.14C120.196 23.14 119.289 22.8333 118.649 22.22C118.009 21.6067 117.689 20.7133 117.689 19.54V14.4H115.929V12.4H117.689V9.96H120.189V12.4H123.049V14.4H120.189V19.48C120.189 20 120.316 20.4 120.569 20.68C120.823 20.9467 121.189 21.08 121.669 21.08C122.229 21.08 122.696 20.9333 123.069 20.64L123.769 22.42ZM129.906 12.2C131.479 12.2 132.679 12.58 133.506 13.34C134.346 14.0867 134.766 15.22 134.766 16.74V23H132.406V21.7C132.099 22.1667 131.659 22.5267 131.086 22.78C130.526 23.02 129.846 23.14 129.046 23.14C128.246 23.14 127.546 23.0067 126.946 22.74C126.346 22.46 125.879 22.08 125.546 21.6C125.226 21.1067 125.066 20.5533 125.066 19.94C125.066 18.98 125.419 18.2133 126.126 17.64C126.846 17.0533 127.972 16.76 129.506 16.76H132.266V16.6C132.266 15.8533 132.039 15.28 131.586 14.88C131.146 14.48 130.486 14.28 129.606 14.28C129.006 14.28 128.412 14.3733 127.826 14.56C127.252 14.7467 126.766 15.0067 126.366 15.34L125.386 13.52C125.946 13.0933 126.619 12.7667 127.406 12.54C128.192 12.3133 129.026 12.2 129.906 12.2ZM129.566 21.32C130.192 21.32 130.746 21.18 131.226 20.9C131.719 20.6067 132.066 20.1933 132.266 19.66V18.42H129.686C128.246 18.42 127.526 18.8933 127.526 19.84C127.526 20.2933 127.706 20.6533 128.066 20.92C128.426 21.1867 128.926 21.32 129.566 21.32ZM142.314 10.04C141.261 10.04 140.734 10.6133 140.734 11.76V12.4H143.674V14.4H140.814V23H138.314V14.4H136.554V12.4H138.314V11.72C138.314 10.5733 138.648 9.67333 139.314 9.02C139.981 8.35333 140.921 8.02 142.134 8.02C143.094 8.02 143.848 8.21333 144.394 8.6L143.694 10.48C143.268 10.1867 142.808 10.04 142.314 10.04ZM150.001 23.14C148.921 23.14 147.947 22.9067 147.081 22.44C146.214 21.9733 145.534 21.3267 145.041 20.5C144.561 19.66 144.321 18.7133 144.321 17.66C144.321 16.6067 144.561 15.6667 145.041 14.84C145.534 14.0133 146.214 13.3667 147.081 12.9C147.947 12.4333 148.921 12.2 150.001 12.2C151.094 12.2 152.074 12.4333 152.941 12.9C153.807 13.3667 154.481 14.0133 154.961 14.84C155.454 15.6667 155.701 16.6067 155.701 17.66C155.701 18.7133 155.454 19.66 154.961 20.5C154.481 21.3267 153.807 21.9733 152.941 22.44C152.074 22.9067 151.094 23.14 150.001 23.14ZM150.001 21C150.921 21 151.681 20.6933 152.281 20.08C152.881 19.4667 153.181 18.66 153.181 17.66C153.181 16.66 152.881 15.8533 152.281 15.24C151.681 14.6267 150.921 14.32 150.001 14.32C149.081 14.32 148.321 14.6267 147.721 15.24C147.134 15.8533 146.841 16.66 146.841 17.66C146.841 18.66 147.134 19.4667 147.721 20.08C148.321 20.6933 149.081 21 150.001 21ZM160.471 13.88C161.191 12.76 162.458 12.2 164.271 12.2V14.58C164.058 14.54 163.865 14.52 163.691 14.52C162.718 14.52 161.958 14.8067 161.411 15.38C160.865 15.94 160.591 16.7533 160.591 17.82V23H158.091V12.32H160.471V13.88ZM179.872 12.2C181.219 12.2 182.286 12.5933 183.072 13.38C183.859 14.1533 184.252 15.32 184.252 16.88V23H181.752V17.2C181.752 16.2667 181.546 15.5667 181.132 15.1C180.719 14.62 180.126 14.38 179.352 14.38C178.512 14.38 177.839 14.66 177.332 15.22C176.826 15.7667 176.572 16.5533 176.572 17.58V23H174.072V17.2C174.072 16.2667 173.866 15.5667 173.452 15.1C173.039 14.62 172.446 14.38 171.672 14.38C170.819 14.38 170.139 14.6533 169.632 15.2C169.139 15.7467 168.892 16.54 168.892 17.58V23H166.392V12.32H168.772V13.68C169.172 13.2 169.672 12.8333 170.272 12.58C170.872 12.3267 171.539 12.2 172.272 12.2C173.072 12.2 173.779 12.3533 174.392 12.66C175.019 12.9533 175.512 13.3933 175.872 13.98C176.312 13.42 176.879 12.9867 177.572 12.68C178.266 12.36 179.032 12.2 179.872 12.2ZM191.527 12.2C193.1 12.2 194.3 12.58 195.127 13.34C195.967 14.0867 196.387 15.22 196.387 16.74V23H194.027V21.7C193.72 22.1667 193.28 22.5267 192.707 22.78C192.147 23.02 191.467 23.14 190.667 23.14C189.867 23.14 189.167 23.0067 188.567 22.74C187.967 22.46 187.5 22.08 187.167 21.6C186.847 21.1067 186.687 20.5533 186.687 19.94C186.687 18.98 187.04 18.2133 187.747 17.64C188.467 17.0533 189.594 16.76 191.127 16.76H193.887V16.6C193.887 15.8533 193.66 15.28 193.207 14.88C192.767 14.48 192.107 14.28 191.227 14.28C190.627 14.28 190.034 14.3733 189.447 14.56C188.874 14.7467 188.387 15.0067 187.987 15.34L187.007 13.52C187.567 13.0933 188.24 12.7667 189.027 12.54C189.814 12.3133 190.647 12.2 191.527 12.2ZM191.187 21.32C191.814 21.32 192.367 21.18 192.847 20.9C193.34 20.6067 193.687 20.1933 193.887 19.66V18.42H191.307C189.867 18.42 189.147 18.8933 189.147 19.84C189.147 20.2933 189.327 20.6533 189.687 20.92C190.047 21.1867 190.547 21.32 191.187 21.32ZM211.043 12.2C212.083 12.2 213.009 12.4267 213.823 12.88C214.649 13.3333 215.296 13.9733 215.763 14.8C216.229 15.6267 216.463 16.58 216.463 17.66C216.463 18.74 216.229 19.7 215.763 20.54C215.296 21.3667 214.649 22.0067 213.823 22.46C213.009 22.9133 212.083 23.14 211.043 23.14C209.603 23.14 208.463 22.66 207.623 21.7V26.88H205.123V12.32H207.503V13.72C207.916 13.2133 208.423 12.8333 209.023 12.58C209.636 12.3267 210.309 12.2 211.043 12.2ZM210.763 21C211.683 21 212.436 20.6933 213.023 20.08C213.623 19.4667 213.923 18.66 213.923 17.66C213.923 16.66 213.623 15.8533 213.023 15.24C212.436 14.6267 211.683 14.32 210.763 14.32C210.163 14.32 209.623 14.46 209.143 14.74C208.663 15.0067 208.283 15.3933 208.003 15.9C207.723 16.4067 207.583 16.9933 207.583 17.66C207.583 18.3267 207.723 18.9133 208.003 19.42C208.283 19.9267 208.663 20.32 209.143 20.6C209.623 20.8667 210.163 21 210.763 21ZM222.777 12.2C224.35 12.2 225.55 12.58 226.377 13.34C227.217 14.0867 227.637 15.22 227.637 16.74V23H225.277V21.7C224.97 22.1667 224.53 22.5267 223.957 22.78C223.397 23.02 222.717 23.14 221.917 23.14C221.117 23.14 220.417 23.0067 219.817 22.74C219.217 22.46 218.75 22.08 218.417 21.6C218.097 21.1067 217.937 20.5533 217.937 19.94C217.937 18.98 218.29 18.2133 218.997 17.64C219.717 17.0533 220.844 16.76 222.377 16.76H225.137V16.6C225.137 15.8533 224.91 15.28 224.457 14.88C224.017 14.48 223.357 14.28 222.477 14.28C221.877 14.28 221.284 14.3733 220.697 14.56C220.124 14.7467 219.637 15.0067 219.237 15.34L218.257 13.52C218.817 13.0933 219.49 12.7667 220.277 12.54C221.064 12.3133 221.897 12.2 222.777 12.2ZM222.437 21.32C223.064 21.32 223.617 21.18 224.097 20.9C224.59 20.6067 224.937 20.1933 225.137 19.66V18.42H222.557C221.117 18.42 220.397 18.8933 220.397 19.84C220.397 20.2933 220.577 20.6533 220.937 20.92C221.297 21.1867 221.797 21.32 222.437 21.32ZM233.225 13.88C233.945 12.76 235.212 12.2 237.025 12.2V14.58C236.812 14.54 236.619 14.52 236.445 14.52C235.472 14.52 234.712 14.8067 234.165 15.38C233.619 15.94 233.345 16.7533 233.345 17.82V23H230.845V12.32H233.225V13.88ZM243.168 12.2C244.741 12.2 245.941 12.58 246.768 13.34C247.608 14.0867 248.028 15.22 248.028 16.74V23H245.668V21.7C245.361 22.1667 244.921 22.5267 244.348 22.78C243.788 23.02 243.108 23.14 242.308 23.14C241.508 23.14 240.808 23.0067 240.208 22.74C239.608 22.46 239.141 22.08 238.808 21.6C238.488 21.1067 238.328 20.5533 238.328 19.94C238.328 18.98 238.681 18.2133 239.388 17.64C240.108 17.0533 241.234 16.76 242.768 16.76H245.528V16.6C245.528 15.8533 245.301 15.28 244.848 14.88C244.408 14.48 243.748 14.28 242.868 14.28C242.268 14.28 241.674 14.3733 241.088 14.56C240.514 14.7467 240.028 15.0067 239.628 15.34L238.648 13.52C239.208 13.0933 239.881 12.7667 240.668 12.54C241.454 12.3133 242.288 12.2 243.168 12.2ZM242.828 21.32C243.454 21.32 244.008 21.18 244.488 20.9C244.981 20.6067 245.328 20.1933 245.528 19.66V18.42H242.948C241.508 18.42 240.788 18.8933 240.788 19.84C240.788 20.2933 240.968 20.6533 241.328 20.92C241.688 21.1867 242.188 21.32 242.828 21.32ZM15.0496 47.14C13.9696 47.14 12.9963 46.9067 12.1296 46.44C11.263 45.9733 10.583 45.3267 10.0896 44.5C9.60963 43.66 9.36963 42.7133 9.36963 41.66C9.36963 40.6067 9.60963 39.6667 10.0896 38.84C10.583 38.0133 11.263 37.3667 12.1296 36.9C12.9963 36.4333 13.9696 36.2 15.0496 36.2C16.143 36.2 17.123 36.4333 17.9896 36.9C18.8563 37.3667 19.5296 38.0133 20.0096 38.84C20.503 39.6667 20.7496 40.6067 20.7496 41.66C20.7496 42.7133 20.503 43.66 20.0096 44.5C19.5296 45.3267 18.8563 45.9733 17.9896 46.44C17.123 46.9067 16.143 47.14 15.0496 47.14ZM15.0496 45C15.9696 45 16.7296 44.6933 17.3296 44.08C17.9296 43.4667 18.2296 42.66 18.2296 41.66C18.2296 40.66 17.9296 39.8533 17.3296 39.24C16.7296 38.6267 15.9696 38.32 15.0496 38.32C14.1296 38.32 13.3696 38.6267 12.7696 39.24C12.183 39.8533 11.8896 40.66 11.8896 41.66C11.8896 42.66 12.183 43.4667 12.7696 44.08C13.3696 44.6933 14.1296 45 15.0496 45ZM32.7476 36.2C34.3209 36.2 35.5209 36.58 36.3476 37.34C37.1876 38.0867 37.6076 39.22 37.6076 40.74V47H35.2476V45.7C34.9409 46.1667 34.5009 46.5267 33.9276 46.78C33.3676 47.02 32.6876 47.14 31.8876 47.14C31.0876 47.14 30.3876 47.0067 29.7876 46.74C29.1876 46.46 28.7209 46.08 28.3876 45.6C28.0676 45.1067 27.9076 44.5533 27.9076 43.94C27.9076 42.98 28.2609 42.2133 28.9676 41.64C29.6876 41.0533 30.8143 40.76 32.3476 40.76H35.1076V40.6C35.1076 39.8533 34.8809 39.28 34.4276 38.88C33.9876 38.48 33.3276 38.28 32.4476 38.28C31.8476 38.28 31.2543 38.3733 30.6676 38.56C30.0943 38.7467 29.6076 39.0067 29.2076 39.34L28.2276 37.52C28.7876 37.0933 29.4609 36.7667 30.2476 36.54C31.0343 36.3133 31.8676 36.2 32.7476 36.2ZM32.4076 45.32C33.0343 45.32 33.5876 45.18 34.0676 44.9C34.5609 44.6067 34.9076 44.1933 35.1076 43.66V42.42H32.5276C31.0876 42.42 30.3676 42.8933 30.3676 43.84C30.3676 44.2933 30.5476 44.6533 30.9076 44.92C31.2676 45.1867 31.7676 45.32 32.4076 45.32ZM51.156 36.32V47H48.776V45.64C48.376 46.12 47.876 46.4933 47.276 46.76C46.676 47.0133 46.0294 47.14 45.336 47.14C43.9094 47.14 42.7827 46.7467 41.956 45.96C41.1427 45.16 40.736 43.98 40.736 42.42V36.32H43.236V42.08C43.236 43.04 43.4494 43.76 43.876 44.24C44.316 44.7067 44.936 44.94 45.736 44.94C46.6294 44.94 47.336 44.6667 47.856 44.12C48.3894 43.56 48.656 42.76 48.656 41.72V36.32H51.156ZM61.2293 47L58.4893 43.3L55.7293 47H52.9693L57.1293 41.58L53.1493 36.32H55.9293L58.5493 39.82L61.1693 36.32H63.8693L59.8693 41.54L64.0493 47H61.2293ZM65.8942 36.32H68.3942V47H65.8942V36.32ZM68.1742 32.12H71.1142L67.6342 34.86H65.4742L68.1742 32.12ZM71.6754 32.16H74.1754V47H71.6754V32.16ZM77.4567 36.32H79.9567V47H77.4567V36.32ZM78.7167 34.56C78.2633 34.56 77.8833 34.42 77.5767 34.14C77.27 33.8467 77.1167 33.4867 77.1167 33.06C77.1167 32.6333 77.27 32.28 77.5767 32C77.8833 31.7067 78.2633 31.56 78.7167 31.56C79.17 31.56 79.55 31.7 79.8567 31.98C80.1633 32.2467 80.3167 32.5867 80.3167 33C80.3167 33.44 80.1633 33.8133 79.8567 34.12C79.5633 34.4133 79.1833 34.56 78.7167 34.56ZM88.0379 47.14C86.9579 47.14 85.9846 46.9067 85.1179 46.44C84.2512 45.9733 83.5712 45.3267 83.0779 44.5C82.5979 43.66 82.3579 42.7133 82.3579 41.66C82.3579 40.6067 82.5979 39.6667 83.0779 38.84C83.5712 38.0133 84.2512 37.3667 85.1179 36.9C85.9846 36.4333 86.9579 36.2 88.0379 36.2C89.1312 36.2 90.1112 36.4333 90.9779 36.9C91.8446 37.3667 92.5179 38.0133 92.9979 38.84C93.4913 39.6667 93.7379 40.6067 93.7379 41.66C93.7379 42.7133 93.4913 43.66 92.9979 44.5C92.5179 45.3267 91.8446 45.9733 90.9779 46.44C90.1112 46.9067 89.1312 47.14 88.0379 47.14ZM88.0379 45C88.9579 45 89.7179 44.6933 90.3179 44.08C90.9179 43.4667 91.2179 42.66 91.2179 41.66C91.2179 40.66 90.9179 39.8533 90.3179 39.24C89.7179 38.6267 88.9579 38.32 88.0379 38.32C87.1179 38.32 86.3579 38.6267 85.7579 39.24C85.1712 39.8533 84.8779 40.66 84.8779 41.66C84.8779 42.66 85.1712 43.4667 85.7579 44.08C86.3579 44.6933 87.1179 45 88.0379 45ZM112.116 32.16V47H109.716V45.62C109.303 46.1267 108.789 46.5067 108.176 46.76C107.576 47.0133 106.909 47.14 106.176 47.14C105.149 47.14 104.223 46.9133 103.396 46.46C102.583 46.0067 101.943 45.3667 101.476 44.54C101.009 43.7 100.776 42.74 100.776 41.66C100.776 40.58 101.009 39.6267 101.476 38.8C101.943 37.9733 102.583 37.3333 103.396 36.88C104.223 36.4267 105.149 36.2 106.176 36.2C106.883 36.2 107.529 36.32 108.116 36.56C108.703 36.8 109.203 37.16 109.616 37.64V32.16H112.116ZM106.476 45C107.076 45 107.616 44.8667 108.096 44.6C108.576 44.32 108.956 43.9267 109.236 43.42C109.516 42.9133 109.656 42.3267 109.656 41.66C109.656 40.9933 109.516 40.4067 109.236 39.9C108.956 39.3933 108.576 39.0067 108.096 38.74C107.616 38.46 107.076 38.32 106.476 38.32C105.876 38.32 105.336 38.46 104.856 38.74C104.376 39.0067 103.996 39.3933 103.716 39.9C103.436 40.4067 103.296 40.9933 103.296 41.66C103.296 42.3267 103.436 42.9133 103.716 43.42C103.996 43.9267 104.376 44.32 104.856 44.6C105.336 44.8667 105.876 45 106.476 45ZM119.466 36.2C121.04 36.2 122.24 36.58 123.066 37.34C123.906 38.0867 124.326 39.22 124.326 40.74V47H121.966V45.7C121.66 46.1667 121.22 46.5267 120.646 46.78C120.086 47.02 119.406 47.14 118.606 47.14C117.806 47.14 117.106 47.0067 116.506 46.74C115.906 46.46 115.44 46.08 115.106 45.6C114.786 45.1067 114.626 44.5533 114.626 43.94C114.626 42.98 114.98 42.2133 115.686 41.64C116.406 41.0533 117.533 40.76 119.066 40.76H121.826V40.6C121.826 39.8533 121.6 39.28 121.146 38.88C120.706 38.48 120.046 38.28 119.166 38.28C118.566 38.28 117.973 38.3733 117.386 38.56C116.813 38.7467 116.326 39.0067 115.926 39.34L114.946 37.52C115.506 37.0933 116.18 36.7667 116.966 36.54C117.753 36.3133 118.586 36.2 119.466 36.2ZM119.126 45.32C119.753 45.32 120.306 45.18 120.786 44.9C121.28 44.6067 121.626 44.1933 121.826 43.66V42.42H119.246C117.806 42.42 117.086 42.8933 117.086 43.84C117.086 44.2933 117.266 44.6533 117.626 44.92C117.986 45.1867 118.486 45.32 119.126 45.32ZM137.962 47.14C136.855 47.14 135.862 46.9067 134.982 46.44C134.102 45.9733 133.415 45.3267 132.922 44.5C132.429 43.66 132.182 42.7133 132.182 41.66C132.182 40.6067 132.429 39.6667 132.922 38.84C133.415 38.0133 134.095 37.3667 134.962 36.9C135.842 36.4333 136.842 36.2 137.962 36.2C139.015 36.2 139.935 36.4133 140.722 36.84C141.522 37.2667 142.122 37.88 142.522 38.68L140.602 39.8C140.295 39.3067 139.909 38.94 139.442 38.7C138.989 38.4467 138.489 38.32 137.942 38.32C137.009 38.32 136.235 38.6267 135.622 39.24C135.009 39.84 134.702 40.6467 134.702 41.66C134.702 42.6733 135.002 43.4867 135.602 44.1C136.215 44.7 136.995 45 137.942 45C138.489 45 138.989 44.88 139.442 44.64C139.909 44.3867 140.295 44.0133 140.602 43.52L142.522 44.64C142.109 45.44 141.502 46.06 140.702 46.5C139.915 46.9267 139.002 47.14 137.962 47.14ZM149.327 47.14C148.247 47.14 147.274 46.9067 146.407 46.44C145.54 45.9733 144.86 45.3267 144.367 44.5C143.887 43.66 143.647 42.7133 143.647 41.66C143.647 40.6067 143.887 39.6667 144.367 38.84C144.86 38.0133 145.54 37.3667 146.407 36.9C147.274 36.4333 148.247 36.2 149.327 36.2C150.42 36.2 151.4 36.4333 152.267 36.9C153.134 37.3667 153.807 38.0133 154.287 38.84C154.78 39.6667 155.027 40.6067 155.027 41.66C155.027 42.7133 154.78 43.66 154.287 44.5C153.807 45.3267 153.134 45.9733 152.267 46.44C151.4 46.9067 150.42 47.14 149.327 47.14ZM149.327 45C150.247 45 151.007 44.6933 151.607 44.08C152.207 43.4667 152.507 42.66 152.507 41.66C152.507 40.66 152.207 39.8533 151.607 39.24C151.007 38.6267 150.247 38.32 149.327 38.32C148.407 38.32 147.647 38.6267 147.047 39.24C146.46 39.8533 146.167 40.66 146.167 41.66C146.167 42.66 146.46 43.4667 147.047 44.08C147.647 44.6933 148.407 45 149.327 45ZM170.898 36.2C172.244 36.2 173.311 36.5933 174.098 37.38C174.884 38.1533 175.278 39.32 175.278 40.88V47H172.778V41.2C172.778 40.2667 172.571 39.5667 172.158 39.1C171.744 38.62 171.151 38.38 170.378 38.38C169.538 38.38 168.864 38.66 168.358 39.22C167.851 39.7667 167.598 40.5533 167.598 41.58V47H165.098V41.2C165.098 40.2667 164.891 39.5667 164.478 39.1C164.064 38.62 163.471 38.38 162.698 38.38C161.844 38.38 161.164 38.6533 160.658 39.2C160.164 39.7467 159.918 40.54 159.918 41.58V47H157.418V36.32H159.798V37.68C160.198 37.2 160.698 36.8333 161.298 36.58C161.898 36.3267 162.564 36.2 163.298 36.2C164.098 36.2 164.804 36.3533 165.418 36.66C166.044 36.9533 166.538 37.3933 166.898 37.98C167.338 37.42 167.904 36.9867 168.598 36.68C169.291 36.36 170.058 36.2 170.898 36.2ZM188.812 36.32V47H186.432V45.64C186.032 46.12 185.532 46.4933 184.932 46.76C184.332 47.0133 183.686 47.14 182.992 47.14C181.566 47.14 180.439 46.7467 179.612 45.96C178.799 45.16 178.392 43.98 178.392 42.42V36.32H180.892V42.08C180.892 43.04 181.106 43.76 181.532 44.24C181.972 44.7067 182.592 44.94 183.392 44.94C184.286 44.94 184.992 44.6667 185.512 44.12C186.046 43.56 186.312 42.76 186.312 41.72V36.32H188.812ZM198.146 36.2C199.492 36.2 200.572 36.5933 201.386 37.38C202.199 38.1667 202.606 39.3333 202.606 40.88V47H200.106V41.2C200.106 40.2667 199.886 39.5667 199.446 39.1C199.006 38.62 198.379 38.38 197.566 38.38C196.646 38.38 195.919 38.66 195.386 39.22C194.852 39.7667 194.586 40.56 194.586 41.6V47H192.086V36.32H194.466V37.7C194.879 37.2067 195.399 36.8333 196.026 36.58C196.652 36.3267 197.359 36.2 198.146 36.2ZM205.777 36.32H208.277V47H205.777V36.32ZM207.037 34.56C206.584 34.56 206.204 34.42 205.897 34.14C205.59 33.8467 205.437 33.4867 205.437 33.06C205.437 32.6333 205.59 32.28 205.897 32C206.204 31.7067 206.584 31.56 207.037 31.56C207.49 31.56 207.87 31.7 208.177 31.98C208.484 32.2467 208.637 32.5867 208.637 33C208.637 33.44 208.484 33.8133 208.177 34.12C207.884 34.4133 207.504 34.56 207.037 34.56ZM216.458 47.14C215.352 47.14 214.358 46.9067 213.478 46.44C212.598 45.9733 211.912 45.3267 211.418 44.5C210.925 43.66 210.678 42.7133 210.678 41.66C210.678 40.6067 210.925 39.6667 211.418 38.84C211.912 38.0133 212.592 37.3667 213.458 36.9C214.338 36.4333 215.338 36.2 216.458 36.2C217.512 36.2 218.432 36.4133 219.218 36.84C220.018 37.2667 220.618 37.88 221.018 38.68L219.098 39.8C218.792 39.3067 218.405 38.94 217.938 38.7C217.485 38.4467 216.985 38.32 216.438 38.32C215.505 38.32 214.732 38.6267 214.118 39.24C213.505 39.84 213.198 40.6467 213.198 41.66C213.198 42.6733 213.498 43.4867 214.098 44.1C214.712 44.7 215.492 45 216.438 45C216.985 45 217.485 44.88 217.938 44.64C218.405 44.3867 218.792 44.0133 219.098 43.52L221.018 44.64C220.605 45.44 219.998 46.06 219.198 46.5C218.412 46.9267 217.498 47.14 216.458 47.14ZM227.259 36.2C228.833 36.2 230.033 36.58 230.859 37.34C231.699 38.0867 232.119 39.22 232.119 40.74V47H229.759V45.7C229.453 46.1667 229.013 46.5267 228.439 46.78C227.879 47.02 227.199 47.14 226.399 47.14C225.599 47.14 224.899 47.0067 224.299 46.74C223.699 46.46 223.233 46.08 222.899 45.6C222.579 45.1067 222.419 44.5533 222.419 43.94C222.419 42.98 222.773 42.2133 223.479 41.64C224.199 41.0533 225.326 40.76 226.859 40.76H229.619V40.6C229.619 39.8533 229.393 39.28 228.939 38.88C228.499 38.48 227.839 38.28 226.959 38.28C226.359 38.28 225.766 38.3733 225.179 38.56C224.606 38.7467 224.119 39.0067 223.719 39.34L222.739 37.52C223.299 37.0933 223.973 36.7667 224.759 36.54C225.546 36.3133 226.379 36.2 227.259 36.2ZM226.919 45.32C227.546 45.32 228.099 45.18 228.579 44.9C229.073 44.6067 229.419 44.1933 229.619 43.66V42.42H227.039C225.599 42.42 224.879 42.8933 224.879 43.84C224.879 44.2933 225.059 44.6533 225.419 44.92C225.779 45.1867 226.279 45.32 226.919 45.32ZM240.325 47.14C239.219 47.14 238.225 46.9067 237.345 46.44C236.465 45.9733 235.779 45.3267 235.285 44.5C234.792 43.66 234.545 42.7133 234.545 41.66C234.545 40.6067 234.792 39.6667 235.285 38.84C235.779 38.0133 236.459 37.3667 237.325 36.9C238.205 36.4333 239.205 36.2 240.325 36.2C241.379 36.2 242.299 36.4133 243.085 36.84C243.885 37.2667 244.485 37.88 244.885 38.68L242.965 39.8C242.659 39.3067 242.272 38.94 241.805 38.7C241.352 38.4467 240.852 38.32 240.305 38.32C239.372 38.32 238.599 38.6267 237.985 39.24C237.372 39.84 237.065 40.6467 237.065 41.66C237.065 42.6733 237.365 43.4867 237.965 44.1C238.579 44.7 239.359 45 240.305 45C240.852 45 241.352 44.88 241.805 44.64C242.272 44.3867 242.659 44.0133 242.965 43.52L244.885 44.64C244.472 45.44 243.865 46.06 243.065 46.5C242.279 46.9267 241.365 47.14 240.325 47.14ZM239.285 51.56C238.565 51.56 237.952 51.42 237.445 51.14L237.905 49.96C238.319 50.1733 238.772 50.28 239.265 50.28C239.972 50.28 240.325 50.04 240.325 49.56C240.325 49.36 240.239 49.2 240.065 49.08C239.892 48.96 239.625 48.9 239.265 48.9H238.645L239.185 46.86H240.545L240.265 47.98C240.839 48.0467 241.272 48.2267 241.565 48.52C241.859 48.8267 242.005 49.2067 242.005 49.66C242.005 50.2333 241.759 50.6933 241.265 51.04C240.772 51.3867 240.112 51.56 239.285 51.56ZM251.127 36.2C252.7 36.2 253.9 36.58 254.727 37.34C255.567 38.0867 255.987 39.22 255.987 40.74V47H253.627V45.7C253.32 46.1667 252.88 46.5267 252.307 46.78C251.747 47.02 251.067 47.14 250.267 47.14C249.467 47.14 248.767 47.0067 248.167 46.74C247.567 46.46 247.1 46.08 246.767 45.6C246.447 45.1067 246.287 44.5533 246.287 43.94C246.287 42.98 246.64 42.2133 247.347 41.64C248.067 41.0533 249.193 40.76 250.727 40.76H253.487V40.6C253.487 39.8533 253.26 39.28 252.807 38.88C252.367 38.48 251.707 38.28 250.827 38.28C250.227 38.28 249.633 38.3733 249.047 38.56C248.473 38.7467 247.987 39.0067 247.587 39.34L246.607 37.52C247.167 37.0933 247.84 36.7667 248.627 36.54C249.413 36.3133 250.247 36.2 251.127 36.2ZM250.787 45.32C251.413 45.32 251.967 45.18 252.447 44.9C252.94 44.6067 253.287 44.1933 253.487 43.66V42.42H250.907C249.467 42.42 248.747 42.8933 248.747 43.84C248.747 44.2933 248.927 44.6533 249.287 44.92C249.647 45.1867 250.147 45.32 250.787 45.32ZM252.787 34.86C252.453 34.86 252.16 34.7933 251.907 34.66C251.667 34.5267 251.367 34.3267 251.007 34.06C250.793 33.8867 250.613 33.76 250.467 33.68C250.333 33.5867 250.2 33.54 250.067 33.54C249.787 33.54 249.553 33.6467 249.367 33.86C249.193 34.0733 249.1 34.3667 249.087 34.74H247.747C247.76 33.9267 247.96 33.28 248.347 32.8C248.747 32.3067 249.267 32.06 249.907 32.06C250.24 32.06 250.527 32.1267 250.767 32.26C251.02 32.3933 251.327 32.5933 251.687 32.86C251.9 33.0333 252.073 33.1667 252.207 33.26C252.353 33.34 252.493 33.38 252.627 33.38C252.907 33.38 253.133 33.28 253.307 33.08C253.493 32.88 253.593 32.6 253.607 32.24H254.947C254.92 33.0267 254.713 33.66 254.327 34.14C253.94 34.62 253.427 34.86 252.787 34.86ZM264.093 47.14C263.013 47.14 262.039 46.9067 261.173 46.44C260.306 45.9733 259.626 45.3267 259.133 44.5C258.653 43.66 258.413 42.7133 258.413 41.66C258.413 40.6067 258.653 39.6667 259.133 38.84C259.626 38.0133 260.306 37.3667 261.173 36.9C262.039 36.4333 263.013 36.2 264.093 36.2C265.186 36.2 266.166 36.4333 267.033 36.9C267.899 37.3667 268.573 38.0133 269.053 38.84C269.546 39.6667 269.793 40.6067 269.793 41.66C269.793 42.7133 269.546 43.66 269.053 44.5C268.573 45.3267 267.899 45.9733 267.033 46.44C266.166 46.9067 265.186 47.14 264.093 47.14ZM264.093 45C265.013 45 265.773 44.6933 266.373 44.08C266.973 43.4667 267.273 42.66 267.273 41.66C267.273 40.66 266.973 39.8533 266.373 39.24C265.773 38.6267 265.013 38.32 264.093 38.32C263.173 38.32 262.413 38.6267 261.813 39.24C261.226 39.8533 260.933 40.66 260.933 41.66C260.933 42.66 261.226 43.4667 261.813 44.08C262.413 44.6933 263.173 45 264.093 45ZM42.4382 56.16V71H40.0382V69.62C39.6248 70.1267 39.1115 70.5067 38.4982 70.76C37.8982 71.0133 37.2315 71.14 36.4982 71.14C35.4715 71.14 34.5448 70.9133 33.7182 70.46C32.9048 70.0067 32.2648 69.3667 31.7982 68.54C31.3315 67.7 31.0982 66.74 31.0982 65.66C31.0982 64.58 31.3315 63.6267 31.7982 62.8C32.2648 61.9733 32.9048 61.3333 33.7182 60.88C34.5448 60.4267 35.4715 60.2 36.4982 60.2C37.2048 60.2 37.8515 60.32 38.4382 60.56C39.0248 60.8 39.5248 61.16 39.9382 61.64V56.16H42.4382ZM36.7982 69C37.3982 69 37.9382 68.8667 38.4182 68.6C38.8982 68.32 39.2782 67.9267 39.5582 67.42C39.8382 66.9133 39.9782 66.3267 39.9782 65.66C39.9782 64.9933 39.8382 64.4067 39.5582 63.9C39.2782 63.3933 38.8982 63.0067 38.4182 62.74C37.9382 62.46 37.3982 62.32 36.7982 62.32C36.1982 62.32 35.6582 62.46 35.1782 62.74C34.6982 63.0067 34.3182 63.3933 34.0382 63.9C33.7582 64.4067 33.6182 64.9933 33.6182 65.66C33.6182 66.3267 33.7582 66.9133 34.0382 67.42C34.3182 67.9267 34.6982 68.32 35.1782 68.6C35.6582 68.8667 36.1982 69 36.7982 69ZM55.7486 65.72C55.7486 65.8933 55.7353 66.14 55.7086 66.46H47.3286C47.4753 67.2467 47.8553 67.8733 48.4686 68.34C49.0953 68.7933 49.8686 69.02 50.7886 69.02C51.962 69.02 52.9286 68.6333 53.6886 67.86L55.0286 69.4C54.5486 69.9733 53.942 70.4067 53.2086 70.7C52.4753 70.9933 51.6486 71.14 50.7286 71.14C49.5553 71.14 48.522 70.9067 47.6286 70.44C46.7353 69.9733 46.042 69.3267 45.5486 68.5C45.0686 67.66 44.8286 66.7133 44.8286 65.66C44.8286 64.62 45.062 63.6867 45.5286 62.86C46.0086 62.02 46.6686 61.3667 47.5086 60.9C48.3486 60.4333 49.2953 60.2 50.3486 60.2C51.3886 60.2 52.3153 60.4333 53.1286 60.9C53.9553 61.3533 54.5953 62 55.0486 62.84C55.5153 63.6667 55.7486 64.6267 55.7486 65.72ZM50.3486 62.2C49.5486 62.2 48.8686 62.44 48.3086 62.92C47.762 63.3867 47.4286 64.0133 47.3086 64.8H53.3686C53.262 64.0267 52.9353 63.4 52.3886 62.92C51.842 62.44 51.162 62.2 50.3486 62.2ZM67.7574 60.2C69.3307 60.2 70.5307 60.58 71.3574 61.34C72.1974 62.0867 72.6174 63.22 72.6174 64.74V71H70.2574V69.7C69.9507 70.1667 69.5107 70.5267 68.9374 70.78C68.3774 71.02 67.6974 71.14 66.8974 71.14C66.0974 71.14 65.3974 71.0067 64.7974 70.74C64.1974 70.46 63.7307 70.08 63.3974 69.6C63.0774 69.1067 62.9174 68.5533 62.9174 67.94C62.9174 66.98 63.2707 66.2133 63.9774 65.64C64.6974 65.0533 65.824 64.76 67.3574 64.76H70.1174V64.6C70.1174 63.8533 69.8907 63.28 69.4374 62.88C68.9974 62.48 68.3374 62.28 67.4574 62.28C66.8574 62.28 66.264 62.3733 65.6774 62.56C65.104 62.7467 64.6174 63.0067 64.2174 63.34L63.2374 61.52C63.7974 61.0933 64.4707 60.7667 65.2574 60.54C66.044 60.3133 66.8774 60.2 67.7574 60.2ZM67.4174 69.32C68.044 69.32 68.5974 69.18 69.0774 68.9C69.5707 68.6067 69.9174 68.1933 70.1174 67.66V66.42H67.5374C66.0974 66.42 65.3774 66.8933 65.3774 67.84C65.3774 68.2933 65.5574 68.6533 65.9174 68.92C66.2774 69.1867 66.7774 69.32 67.4174 69.32ZM86.3835 56.16V71H83.9835V69.62C83.5701 70.1267 83.0568 70.5067 82.4435 70.76C81.8435 71.0133 81.1768 71.14 80.4435 71.14C79.4168 71.14 78.4901 70.9133 77.6635 70.46C76.8501 70.0067 76.2101 69.3667 75.7435 68.54C75.2768 67.7 75.0435 66.74 75.0435 65.66C75.0435 64.58 75.2768 63.6267 75.7435 62.8C76.2101 61.9733 76.8501 61.3333 77.6635 60.88C78.4901 60.4267 79.4168 60.2 80.4435 60.2C81.1501 60.2 81.7968 60.32 82.3835 60.56C82.9701 60.8 83.4701 61.16 83.8835 61.64V56.16H86.3835ZM80.7435 69C81.3435 69 81.8835 68.8667 82.3635 68.6C82.8435 68.32 83.2235 67.9267 83.5035 67.42C83.7835 66.9133 83.9235 66.3267 83.9235 65.66C83.9235 64.9933 83.7835 64.4067 83.5035 63.9C83.2235 63.3933 82.8435 63.0067 82.3635 62.74C81.8835 62.46 81.3435 62.32 80.7435 62.32C80.1435 62.32 79.6035 62.46 79.1235 62.74C78.6435 63.0067 78.2635 63.3933 77.9835 63.9C77.7035 64.4067 77.5635 64.9933 77.5635 65.66C77.5635 66.3267 77.7035 66.9133 77.9835 67.42C78.2635 67.9267 78.6435 68.32 79.1235 68.6C79.6035 68.8667 80.1435 69 80.7435 69ZM94.4539 71.14C93.3739 71.14 92.4006 70.9067 91.5339 70.44C90.6673 69.9733 89.9873 69.3267 89.4939 68.5C89.0139 67.66 88.7739 66.7133 88.7739 65.66C88.7739 64.6067 89.0139 63.6667 89.4939 62.84C89.9873 62.0133 90.6673 61.3667 91.5339 60.9C92.4006 60.4333 93.3739 60.2 94.4539 60.2C95.5473 60.2 96.5273 60.4333 97.3939 60.9C98.2606 61.3667 98.9339 62.0133 99.4139 62.84C99.9073 63.6667 100.154 64.6067 100.154 65.66C100.154 66.7133 99.9073 67.66 99.4139 68.5C98.9339 69.3267 98.2606 69.9733 97.3939 70.44C96.5273 70.9067 95.5473 71.14 94.4539 71.14ZM94.4539 69C95.3739 69 96.1339 68.6933 96.7339 68.08C97.3339 67.4667 97.6339 66.66 97.6339 65.66C97.6339 64.66 97.3339 63.8533 96.7339 63.24C96.1339 62.6267 95.3739 62.32 94.4539 62.32C93.5339 62.32 92.7739 62.6267 92.1739 63.24C91.5873 63.8533 91.2939 64.66 91.2939 65.66C91.2939 66.66 91.5873 67.4667 92.1739 68.08C92.7739 68.6933 93.5339 69 94.4539 69ZM102.545 56.16H105.045V71H102.545V56.16ZM118.366 65.72C118.366 65.8933 118.352 66.14 118.326 66.46H109.946C110.092 67.2467 110.472 67.8733 111.086 68.34C111.712 68.7933 112.486 69.02 113.406 69.02C114.579 69.02 115.546 68.6333 116.306 67.86L117.646 69.4C117.166 69.9733 116.559 70.4067 115.826 70.7C115.092 70.9933 114.266 71.14 113.346 71.14C112.172 71.14 111.139 70.9067 110.246 70.44C109.352 69.9733 108.659 69.3267 108.166 68.5C107.686 67.66 107.446 66.7133 107.446 65.66C107.446 64.62 107.679 63.6867 108.146 62.86C108.626 62.02 109.286 61.3667 110.126 60.9C110.966 60.4333 111.912 60.2 112.966 60.2C114.006 60.2 114.932 60.4333 115.746 60.9C116.572 61.3533 117.212 62 117.666 62.84C118.132 63.6667 118.366 64.6267 118.366 65.72ZM112.966 62.2C112.166 62.2 111.486 62.44 110.926 62.92C110.379 63.3867 110.046 64.0133 109.926 64.8H115.986C115.879 64.0267 115.552 63.4 115.006 62.92C114.459 62.44 113.779 62.2 112.966 62.2ZM124.067 71.14C123.201 71.14 122.354 71.0267 121.527 70.8C120.701 70.5733 120.041 70.2867 119.547 69.94L120.507 68.04C120.987 68.36 121.561 68.62 122.227 68.82C122.907 69.0067 123.574 69.1 124.227 69.1C125.721 69.1 126.467 68.7067 126.467 67.92C126.467 67.5467 126.274 67.2867 125.887 67.14C125.514 66.9933 124.907 66.8533 124.067 66.72C123.187 66.5867 122.467 66.4333 121.907 66.26C121.361 66.0867 120.881 65.7867 120.467 65.36C120.067 64.92 119.867 64.3133 119.867 63.54C119.867 62.5267 120.287 61.72 121.127 61.12C121.981 60.5067 123.127 60.2 124.567 60.2C125.301 60.2 126.034 60.2867 126.767 60.46C127.501 60.62 128.101 60.84 128.567 61.12L127.607 63.02C126.701 62.4867 125.681 62.22 124.547 62.22C123.814 62.22 123.254 62.3333 122.867 62.56C122.494 62.7733 122.307 63.06 122.307 63.42C122.307 63.82 122.507 64.1067 122.907 64.28C123.321 64.44 123.954 64.5933 124.807 64.74C125.661 64.8733 126.361 65.0267 126.907 65.2C127.454 65.3733 127.921 65.6667 128.307 66.08C128.707 66.4933 128.907 67.08 128.907 67.84C128.907 68.84 128.474 69.64 127.607 70.24C126.741 70.84 125.561 71.14 124.067 71.14ZM135.96 71.14C134.854 71.14 133.86 70.9067 132.98 70.44C132.1 69.9733 131.414 69.3267 130.92 68.5C130.427 67.66 130.18 66.7133 130.18 65.66C130.18 64.6067 130.427 63.6667 130.92 62.84C131.414 62.0133 132.094 61.3667 132.96 60.9C133.84 60.4333 134.84 60.2 135.96 60.2C137.014 60.2 137.934 60.4133 138.72 60.84C139.52 61.2667 140.12 61.88 140.52 62.68L138.6 63.8C138.294 63.3067 137.907 62.94 137.44 62.7C136.987 62.4467 136.487 62.32 135.94 62.32C135.007 62.32 134.234 62.6267 133.62 63.24C133.007 63.84 132.7 64.6467 132.7 65.66C132.7 66.6733 133 67.4867 133.6 68.1C134.214 68.7 134.994 69 135.94 69C136.487 69 136.987 68.88 137.44 68.64C137.907 68.3867 138.294 68.0133 138.6 67.52L140.52 68.64C140.107 69.44 139.5 70.06 138.7 70.5C137.914 70.9267 137 71.14 135.96 71.14ZM152.565 65.72C152.565 65.8933 152.552 66.14 152.525 66.46H144.145C144.292 67.2467 144.672 67.8733 145.285 68.34C145.912 68.7933 146.685 69.02 147.605 69.02C148.778 69.02 149.745 68.6333 150.505 67.86L151.845 69.4C151.365 69.9733 150.758 70.4067 150.025 70.7C149.292 70.9933 148.465 71.14 147.545 71.14C146.372 71.14 145.338 70.9067 144.445 70.44C143.552 69.9733 142.858 69.3267 142.365 68.5C141.885 67.66 141.645 66.7133 141.645 65.66C141.645 64.62 141.878 63.6867 142.345 62.86C142.825 62.02 143.485 61.3667 144.325 60.9C145.165 60.4333 146.112 60.2 147.165 60.2C148.205 60.2 149.132 60.4333 149.945 60.9C150.772 61.3533 151.412 62 151.865 62.84C152.332 63.6667 152.565 64.6267 152.565 65.72ZM147.165 62.2C146.365 62.2 145.685 62.44 145.125 62.92C144.578 63.3867 144.245 64.0133 144.125 64.8H150.185C150.078 64.0267 149.752 63.4 149.205 62.92C148.658 62.44 147.978 62.2 147.165 62.2ZM161.026 60.2C162.373 60.2 163.453 60.5933 164.266 61.38C165.08 62.1667 165.486 63.3333 165.486 64.88V71H162.986V65.2C162.986 64.2667 162.766 63.5667 162.326 63.1C161.886 62.62 161.26 62.38 160.446 62.38C159.526 62.38 158.8 62.66 158.266 63.22C157.733 63.7667 157.466 64.56 157.466 65.6V71H154.966V60.32H157.346V61.7C157.76 61.2067 158.28 60.8333 158.906 60.58C159.533 60.3267 160.24 60.2 161.026 60.2ZM175.078 70.42C174.785 70.66 174.425 70.84 173.998 70.96C173.585 71.08 173.145 71.14 172.678 71.14C171.505 71.14 170.598 70.8333 169.958 70.22C169.318 69.6067 168.998 68.7133 168.998 67.54V62.4H167.238V60.4H168.998V57.96H171.498V60.4H174.358V62.4H171.498V67.48C171.498 68 171.625 68.4 171.878 68.68C172.131 68.9467 172.498 69.08 172.978 69.08C173.538 69.08 174.005 68.9333 174.378 68.64L175.078 70.42ZM186.823 65.72C186.823 65.8933 186.81 66.14 186.783 66.46H178.403C178.55 67.2467 178.93 67.8733 179.543 68.34C180.17 68.7933 180.943 69.02 181.863 69.02C183.036 69.02 184.003 68.6333 184.763 67.86L186.103 69.4C185.623 69.9733 185.016 70.4067 184.283 70.7C183.55 70.9933 182.723 71.14 181.803 71.14C180.63 71.14 179.596 70.9067 178.703 70.44C177.81 69.9733 177.116 69.3267 176.623 68.5C176.143 67.66 175.903 66.7133 175.903 65.66C175.903 64.62 176.136 63.6867 176.603 62.86C177.083 62.02 177.743 61.3667 178.583 60.9C179.423 60.4333 180.37 60.2 181.423 60.2C182.463 60.2 183.39 60.4333 184.203 60.9C185.03 61.3533 185.67 62 186.123 62.84C186.59 63.6667 186.823 64.6267 186.823 65.72ZM181.423 62.2C180.623 62.2 179.943 62.44 179.383 62.92C178.836 63.3867 178.503 64.0133 178.383 64.8H184.443C184.336 64.0267 184.01 63.4 183.463 62.92C182.916 62.44 182.236 62.2 181.423 62.2ZM192.524 71.14C191.658 71.14 190.811 71.0267 189.984 70.8C189.158 70.5733 188.498 70.2867 188.004 69.94L188.964 68.04C189.444 68.36 190.018 68.62 190.684 68.82C191.364 69.0067 192.031 69.1 192.684 69.1C194.178 69.1 194.924 68.7067 194.924 67.92C194.924 67.5467 194.731 67.2867 194.344 67.14C193.971 66.9933 193.364 66.8533 192.524 66.72C191.644 66.5867 190.924 66.4333 190.364 66.26C189.818 66.0867 189.338 65.7867 188.924 65.36C188.524 64.92 188.324 64.3133 188.324 63.54C188.324 62.5267 188.744 61.72 189.584 61.12C190.438 60.5067 191.584 60.2 193.024 60.2C193.758 60.2 194.491 60.2867 195.224 60.46C195.958 60.62 196.558 60.84 197.024 61.12L196.064 63.02C195.158 62.4867 194.138 62.22 193.004 62.22C192.271 62.22 191.711 62.3333 191.324 62.56C190.951 62.7733 190.764 63.06 190.764 63.42C190.764 63.82 190.964 64.1067 191.364 64.28C191.778 64.44 192.411 64.5933 193.264 64.74C194.118 64.8733 194.818 65.0267 195.364 65.2C195.911 65.3733 196.378 65.6667 196.764 66.08C197.164 66.4933 197.364 67.08 197.364 67.84C197.364 68.84 196.931 69.64 196.064 70.24C195.198 70.84 194.018 71.14 192.524 71.14ZM209.945 71.14C208.838 71.14 207.845 70.9067 206.965 70.44C206.085 69.9733 205.398 69.3267 204.905 68.5C204.411 67.66 204.165 66.7133 204.165 65.66C204.165 64.6067 204.411 63.6667 204.905 62.84C205.398 62.0133 206.078 61.3667 206.945 60.9C207.825 60.4333 208.825 60.2 209.945 60.2C210.998 60.2 211.918 60.4133 212.705 60.84C213.505 61.2667 214.105 61.88 214.505 62.68L212.585 63.8C212.278 63.3067 211.891 62.94 211.425 62.7C210.971 62.4467 210.471 62.32 209.925 62.32C208.991 62.32 208.218 62.6267 207.605 63.24C206.991 63.84 206.685 64.6467 206.685 65.66C206.685 66.6733 206.985 67.4867 207.585 68.1C208.198 68.7 208.978 69 209.925 69C210.471 69 210.971 68.88 211.425 68.64C211.891 68.3867 212.278 68.0133 212.585 67.52L214.505 68.64C214.091 69.44 213.485 70.06 212.685 70.5C211.898 70.9267 210.985 71.14 209.945 71.14ZM221.309 71.14C220.229 71.14 219.256 70.9067 218.389 70.44C217.523 69.9733 216.843 69.3267 216.349 68.5C215.869 67.66 215.629 66.7133 215.629 65.66C215.629 64.6067 215.869 63.6667 216.349 62.84C216.843 62.0133 217.523 61.3667 218.389 60.9C219.256 60.4333 220.229 60.2 221.309 60.2C222.403 60.2 223.383 60.4333 224.249 60.9C225.116 61.3667 225.789 62.0133 226.269 62.84C226.763 63.6667 227.009 64.6067 227.009 65.66C227.009 66.7133 226.763 67.66 226.269 68.5C225.789 69.3267 225.116 69.9733 224.249 70.44C223.383 70.9067 222.403 71.14 221.309 71.14ZM221.309 69C222.229 69 222.989 68.6933 223.589 68.08C224.189 67.4667 224.489 66.66 224.489 65.66C224.489 64.66 224.189 63.8533 223.589 63.24C222.989 62.6267 222.229 62.32 221.309 62.32C220.389 62.32 219.629 62.6267 219.029 63.24C218.443 63.8533 218.149 64.66 218.149 65.66C218.149 66.66 218.443 67.4667 219.029 68.08C219.629 68.6933 220.389 69 221.309 69ZM242.88 60.2C244.227 60.2 245.293 60.5933 246.08 61.38C246.867 62.1533 247.26 63.32 247.26 64.88V71H244.76V65.2C244.76 64.2667 244.553 63.5667 244.14 63.1C243.727 62.62 243.133 62.38 242.36 62.38C241.52 62.38 240.847 62.66 240.34 63.22C239.833 63.7667 239.58 64.5533 239.58 65.58V71H237.08V65.2C237.08 64.2667 236.873 63.5667 236.46 63.1C236.047 62.62 235.453 62.38 234.68 62.38C233.827 62.38 233.147 62.6533 232.64 63.2C232.147 63.7467 231.9 64.54 231.9 65.58V71H229.4V60.32H231.78V61.68C232.18 61.2 232.68 60.8333 233.28 60.58C233.88 60.3267 234.547 60.2 235.28 60.2C236.08 60.2 236.787 60.3533 237.4 60.66C238.027 60.9533 238.52 61.3933 238.88 61.98C239.32 61.42 239.887 60.9867 240.58 60.68C241.273 60.36 242.04 60.2 242.88 60.2ZM98.5514 80.16V95H96.1514V93.62C95.7381 94.1267 95.2248 94.5067 94.6114 94.76C94.0114 95.0133 93.3448 95.14 92.6114 95.14C91.5848 95.14 90.6581 94.9133 89.8314 94.46C89.0181 94.0067 88.3781 93.3667 87.9114 92.54C87.4448 91.7 87.2114 90.74 87.2114 89.66C87.2114 88.58 87.4448 87.6267 87.9114 86.8C88.3781 85.9733 89.0181 85.3333 89.8314 84.88C90.6581 84.4267 91.5848 84.2 92.6114 84.2C93.3181 84.2 93.9648 84.32 94.5514 84.56C95.1381 84.8 95.6381 85.16 96.0514 85.64V80.16H98.5514ZM92.9114 93C93.5114 93 94.0514 92.8667 94.5314 92.6C95.0114 92.32 95.3914 91.9267 95.6714 91.42C95.9514 90.9133 96.0914 90.3267 96.0914 89.66C96.0914 88.9933 95.9514 88.4067 95.6714 87.9C95.3914 87.3933 95.0114 87.0067 94.5314 86.74C94.0514 86.46 93.5114 86.32 92.9114 86.32C92.3114 86.32 91.7714 86.46 91.2914 86.74C90.8114 87.0067 90.4314 87.3933 90.1514 87.9C89.8714 88.4067 89.7314 88.9933 89.7314 89.66C89.7314 90.3267 89.8714 90.9133 90.1514 91.42C90.4314 91.9267 90.8114 92.32 91.2914 92.6C91.7714 92.8667 92.3114 93 92.9114 93ZM111.862 89.72C111.862 89.8933 111.849 90.14 111.822 90.46H103.442C103.589 91.2467 103.969 91.8733 104.582 92.34C105.209 92.7933 105.982 93.02 106.902 93.02C108.075 93.02 109.042 92.6333 109.802 91.86L111.142 93.4C110.662 93.9733 110.055 94.4067 109.322 94.7C108.589 94.9933 107.762 95.14 106.842 95.14C105.669 95.14 104.635 94.9067 103.742 94.44C102.849 93.9733 102.155 93.3267 101.662 92.5C101.182 91.66 100.942 90.7133 100.942 89.66C100.942 88.62 101.175 87.6867 101.642 86.86C102.122 86.02 102.782 85.3667 103.622 84.9C104.462 84.4333 105.409 84.2 106.462 84.2C107.502 84.2 108.429 84.4333 109.242 84.9C110.069 85.3533 110.709 86 111.162 86.84C111.629 87.6667 111.862 88.6267 111.862 89.72ZM106.462 86.2C105.662 86.2 104.982 86.44 104.422 86.92C103.875 87.3867 103.542 88.0133 103.422 88.8H109.482C109.375 88.0267 109.049 87.4 108.502 86.92C107.955 86.44 107.275 86.2 106.462 86.2ZM120.183 84.2C121.223 84.2 122.15 84.4267 122.963 84.88C123.79 85.3333 124.437 85.9733 124.903 86.8C125.37 87.6267 125.603 88.58 125.603 89.66C125.603 90.74 125.37 91.7 124.903 92.54C124.437 93.3667 123.79 94.0067 122.963 94.46C122.15 94.9133 121.223 95.14 120.183 95.14C118.743 95.14 117.603 94.66 116.763 93.7V98.88H114.263V84.32H116.643V85.72C117.057 85.2133 117.563 84.8333 118.163 84.58C118.777 84.3267 119.45 84.2 120.183 84.2ZM119.903 93C120.823 93 121.577 92.6933 122.163 92.08C122.763 91.4667 123.063 90.66 123.063 89.66C123.063 88.66 122.763 87.8533 122.163 87.24C121.577 86.6267 120.823 86.32 119.903 86.32C119.303 86.32 118.763 86.46 118.283 86.74C117.803 87.0067 117.423 87.3933 117.143 87.9C116.863 88.4067 116.723 88.9933 116.723 89.66C116.723 90.3267 116.863 90.9133 117.143 91.42C117.423 91.9267 117.803 92.32 118.283 92.6C118.763 92.8667 119.303 93 119.903 93ZM130.354 85.88C131.074 84.76 132.341 84.2 134.154 84.2V86.58C133.941 86.54 133.748 86.52 133.574 86.52C132.601 86.52 131.841 86.8067 131.294 87.38C130.748 87.94 130.474 88.7533 130.474 89.82V95H127.974V84.32H130.354V85.88ZM146.217 89.72C146.217 89.8933 146.204 90.14 146.177 90.46H137.797C137.944 91.2467 138.324 91.8733 138.937 92.34C139.564 92.7933 140.337 93.02 141.257 93.02C142.431 93.02 143.397 92.6333 144.157 91.86L145.497 93.4C145.017 93.9733 144.411 94.4067 143.677 94.7C142.944 94.9933 142.117 95.14 141.197 95.14C140.024 95.14 138.991 94.9067 138.097 94.44C137.204 93.9733 136.511 93.3267 136.017 92.5C135.537 91.66 135.297 90.7133 135.297 89.66C135.297 88.62 135.531 87.6867 135.997 86.86C136.477 86.02 137.137 85.3667 137.977 84.9C138.817 84.4333 139.764 84.2 140.817 84.2C141.857 84.2 142.784 84.4333 143.597 84.9C144.424 85.3533 145.064 86 145.517 86.84C145.984 87.6667 146.217 88.6267 146.217 89.72ZM140.817 86.2C140.017 86.2 139.337 86.44 138.777 86.92C138.231 87.3867 137.897 88.0133 137.777 88.8H143.837C143.731 88.0267 143.404 87.4 142.857 86.92C142.311 86.44 141.631 86.2 140.817 86.2ZM151.919 95.14C151.052 95.14 150.205 95.0267 149.379 94.8C148.552 94.5733 147.892 94.2867 147.399 93.94L148.359 92.04C148.839 92.36 149.412 92.62 150.079 92.82C150.759 93.0067 151.425 93.1 152.079 93.1C153.572 93.1 154.319 92.7067 154.319 91.92C154.319 91.5467 154.125 91.2867 153.739 91.14C153.365 90.9933 152.759 90.8533 151.919 90.72C151.039 90.5867 150.319 90.4333 149.759 90.26C149.212 90.0867 148.732 89.7867 148.319 89.36C147.919 88.92 147.719 88.3133 147.719 87.54C147.719 86.5267 148.139 85.72 148.979 85.12C149.832 84.5067 150.979 84.2 152.419 84.2C153.152 84.2 153.885 84.2867 154.619 84.46C155.352 84.62 155.952 84.84 156.419 85.12L155.459 87.02C154.552 86.4867 153.532 86.22 152.399 86.22C151.665 86.22 151.105 86.3333 150.719 86.56C150.345 86.7733 150.159 87.06 150.159 87.42C150.159 87.82 150.359 88.1067 150.759 88.28C151.172 88.44 151.805 88.5933 152.659 88.74C153.512 88.8733 154.212 89.0267 154.759 89.2C155.305 89.3733 155.772 89.6667 156.159 90.08C156.559 90.4933 156.759 91.08 156.759 91.84C156.759 92.84 156.325 93.64 155.459 94.24C154.592 94.84 153.412 95.14 151.919 95.14ZM162.212 95.14C161.345 95.14 160.498 95.0267 159.672 94.8C158.845 94.5733 158.185 94.2867 157.692 93.94L158.652 92.04C159.132 92.36 159.705 92.62 160.372 92.82C161.052 93.0067 161.718 93.1 162.372 93.1C163.865 93.1 164.612 92.7067 164.612 91.92C164.612 91.5467 164.418 91.2867 164.032 91.14C163.658 90.9933 163.052 90.8533 162.212 90.72C161.332 90.5867 160.612 90.4333 160.052 90.26C159.505 90.0867 159.025 89.7867 158.612 89.36C158.212 88.92 158.012 88.3133 158.012 87.54C158.012 86.5267 158.432 85.72 159.272 85.12C160.125 84.5067 161.272 84.2 162.712 84.2C163.445 84.2 164.178 84.2867 164.912 84.46C165.645 84.62 166.245 84.84 166.712 85.12L165.752 87.02C164.845 86.4867 163.825 86.22 162.692 86.22C161.958 86.22 161.398 86.3333 161.012 86.56C160.638 86.7733 160.452 87.06 160.452 87.42C160.452 87.82 160.652 88.1067 161.052 88.28C161.465 88.44 162.098 88.5933 162.952 88.74C163.805 88.8733 164.505 89.0267 165.052 89.2C165.598 89.3733 166.065 89.6667 166.452 90.08C166.852 90.4933 167.052 91.08 167.052 91.84C167.052 92.84 166.618 93.64 165.752 94.24C164.885 94.84 163.705 95.14 162.212 95.14ZM173.285 84.2C174.858 84.2 176.058 84.58 176.885 85.34C177.725 86.0867 178.145 87.22 178.145 88.74V95H175.785V93.7C175.478 94.1667 175.038 94.5267 174.465 94.78C173.905 95.02 173.225 95.14 172.425 95.14C171.625 95.14 170.925 95.0067 170.325 94.74C169.725 94.46 169.258 94.08 168.925 93.6C168.605 93.1067 168.445 92.5533 168.445 91.94C168.445 90.98 168.798 90.2133 169.505 89.64C170.225 89.0533 171.351 88.76 172.885 88.76H175.645V88.6C175.645 87.8533 175.418 87.28 174.965 86.88C174.525 86.48 173.865 86.28 172.985 86.28C172.385 86.28 171.791 86.3733 171.205 86.56C170.631 86.7467 170.145 87.0067 169.745 87.34L168.765 85.52C169.325 85.0933 169.998 84.7667 170.785 84.54C171.571 84.3133 172.405 84.2 173.285 84.2ZM172.945 93.32C173.571 93.32 174.125 93.18 174.605 92.9C175.098 92.6067 175.445 92.1933 175.645 91.66V90.42H173.065C171.625 90.42 170.905 90.8933 170.905 91.84C170.905 92.2933 171.085 92.6533 171.445 92.92C171.805 93.1867 172.305 93.32 172.945 93.32ZM174.945 82.86C174.611 82.86 174.318 82.7933 174.065 82.66C173.825 82.5267 173.525 82.3267 173.165 82.06C172.951 81.8867 172.771 81.76 172.625 81.68C172.491 81.5867 172.358 81.54 172.225 81.54C171.945 81.54 171.711 81.6467 171.525 81.86C171.351 82.0733 171.258 82.3667 171.245 82.74H169.905C169.918 81.9267 170.118 81.28 170.505 80.8C170.905 80.3067 171.425 80.06 172.065 80.06C172.398 80.06 172.685 80.1267 172.925 80.26C173.178 80.3933 173.485 80.5933 173.845 80.86C174.058 81.0333 174.231 81.1667 174.365 81.26C174.511 81.34 174.651 81.38 174.785 81.38C175.065 81.38 175.291 81.28 175.465 81.08C175.651 80.88 175.751 80.6 175.765 80.24H177.105C177.078 81.0267 176.871 81.66 176.485 82.14C176.098 82.62 175.585 82.86 174.945 82.86ZM186.251 95.14C185.171 95.14 184.197 94.9067 183.331 94.44C182.464 93.9733 181.784 93.3267 181.291 92.5C180.811 91.66 180.571 90.7133 180.571 89.66C180.571 88.6067 180.811 87.6667 181.291 86.84C181.784 86.0133 182.464 85.3667 183.331 84.9C184.197 84.4333 185.171 84.2 186.251 84.2C187.344 84.2 188.324 84.4333 189.191 84.9C190.057 85.3667 190.731 86.0133 191.211 86.84C191.704 87.6667 191.951 88.6067 191.951 89.66C191.951 90.7133 191.704 91.66 191.211 92.5C190.731 93.3267 190.057 93.9733 189.191 94.44C188.324 94.9067 187.344 95.14 186.251 95.14ZM186.251 93C187.171 93 187.931 92.6933 188.531 92.08C189.131 91.4667 189.431 90.66 189.431 89.66C189.431 88.66 189.131 87.8533 188.531 87.24C187.931 86.6267 187.171 86.32 186.251 86.32C185.331 86.32 184.571 86.6267 183.971 87.24C183.384 87.8533 183.091 88.66 183.091 89.66C183.091 90.66 183.384 91.4667 183.971 92.08C184.571 92.6933 185.331 93 186.251 93Z" fill="#4B525C"/>
</g>
<path d="M38.3041 22.2C36.3707 22.2 34.8641 21.66 33.7841 20.58C32.7041 19.4867 32.1641 17.9267 32.1641 15.9V8H34.7641V15.8C34.7641 18.5467 35.9507 19.92 38.3241 19.92C40.6841 19.92 41.8641 18.5467 41.8641 15.8V8H44.4241V15.9C44.4241 17.9267 43.8841 19.4867 42.8041 20.58C41.7374 21.66 40.2374 22.2 38.3041 22.2ZM61.3053 11.2C62.652 11.2 63.7187 11.5933 64.5053 12.38C65.292 13.1533 65.6853 14.32 65.6853 15.88V22H63.1853V16.2C63.1853 15.2667 62.9787 14.5667 62.5653 14.1C62.152 13.62 61.5587 13.38 60.7853 13.38C59.9453 13.38 59.272 13.66 58.7653 14.22C58.2587 14.7667 58.0053 15.5533 58.0053 16.58V22H55.5053V16.2C55.5053 15.2667 55.2987 14.5667 54.8853 14.1C54.472 13.62 53.8787 13.38 53.1053 13.38C52.252 13.38 51.572 13.6533 51.0653 14.2C50.572 14.7467 50.3253 15.54 50.3253 16.58V22H47.8253V11.32H50.2053V12.68C50.6053 12.2 51.1053 11.8333 51.7053 11.58C52.3053 11.3267 52.972 11.2 53.7053 11.2C54.5053 11.2 55.212 11.3533 55.8253 11.66C56.452 11.9533 56.9453 12.3933 57.3053 12.98C57.7453 12.42 58.312 11.9867 59.0053 11.68C59.6987 11.36 60.4653 11.2 61.3053 11.2ZM72.96 11.2C74.5333 11.2 75.7333 11.58 76.56 12.34C77.4 13.0867 77.82 14.22 77.82 15.74V22H75.46V20.7C75.1533 21.1667 74.7133 21.5267 74.14 21.78C73.58 22.02 72.9 22.14 72.1 22.14C71.3 22.14 70.6 22.0067 70 21.74C69.4 21.46 68.9333 21.08 68.6 20.6C68.28 20.1067 68.12 19.5533 68.12 18.94C68.12 17.98 68.4733 17.2133 69.18 16.64C69.9 16.0533 71.0267 15.76 72.56 15.76H75.32V15.6C75.32 14.8533 75.0933 14.28 74.64 13.88C74.2 13.48 73.54 13.28 72.66 13.28C72.06 13.28 71.4667 13.3733 70.88 13.56C70.3067 13.7467 69.82 14.0067 69.42 14.34L68.44 12.52C69 12.0933 69.6733 11.7667 70.46 11.54C71.2467 11.3133 72.08 11.2 72.96 11.2ZM72.62 20.32C73.2467 20.32 73.8 20.18 74.28 19.9C74.7733 19.6067 75.12 19.1933 75.32 18.66V17.42H72.74C71.3 17.42 70.58 17.8933 70.58 18.84C70.58 19.2933 70.76 19.6533 71.12 19.92C71.48 20.1867 71.98 20.32 72.62 20.32ZM92.4758 11.2C93.5158 11.2 94.4425 11.4267 95.2558 11.88C96.0825 12.3333 96.7291 12.9733 97.1958 13.8C97.6625 14.6267 97.8958 15.58 97.8958 16.66C97.8958 17.74 97.6625 18.7 97.1958 19.54C96.7291 20.3667 96.0825 21.0067 95.2558 21.46C94.4425 21.9133 93.5158 22.14 92.4758 22.14C91.0358 22.14 89.8958 21.66 89.0558 20.7V25.88H86.5558V11.32H88.9358V12.72C89.3491 12.2133 89.8558 11.8333 90.4558 11.58C91.0691 11.3267 91.7425 11.2 92.4758 11.2ZM92.1958 20C93.1158 20 93.8691 19.6933 94.4558 19.08C95.0558 18.4667 95.3558 17.66 95.3558 16.66C95.3558 15.66 95.0558 14.8533 94.4558 14.24C93.8691 13.6267 93.1158 13.32 92.1958 13.32C91.5958 13.32 91.0558 13.46 90.5758 13.74C90.0958 14.0067 89.7158 14.3933 89.4358 14.9C89.1558 15.4067 89.0158 15.9933 89.0158 16.66C89.0158 17.3267 89.1558 17.9133 89.4358 18.42C89.7158 18.9267 90.0958 19.32 90.5758 19.6C91.0558 19.8667 91.5958 20 92.1958 20ZM100.267 7.16H102.767V22H100.267V7.16ZM110.128 11.2C111.701 11.2 112.901 11.58 113.728 12.34C114.568 13.0867 114.988 14.22 114.988 15.74V22H112.628V20.7C112.321 21.1667 111.881 21.5267 111.308 21.78C110.748 22.02 110.068 22.14 109.268 22.14C108.468 22.14 107.768 22.0067 107.168 21.74C106.568 21.46 106.101 21.08 105.768 20.6C105.448 20.1067 105.288 19.5533 105.288 18.94C105.288 17.98 105.641 17.2133 106.348 16.64C107.068 16.0533 108.195 15.76 109.728 15.76H112.488V15.6C112.488 14.8533 112.261 14.28 111.808 13.88C111.368 13.48 110.708 13.28 109.828 13.28C109.228 13.28 108.635 13.3733 108.048 13.56C107.475 13.7467 106.988 14.0067 106.588 14.34L105.608 12.52C106.168 12.0933 106.841 11.7667 107.628 11.54C108.415 11.3133 109.248 11.2 110.128 11.2ZM109.788 20.32C110.415 20.32 110.968 20.18 111.448 19.9C111.941 19.6067 112.288 19.1933 112.488 18.66V17.42H109.908C108.468 17.42 107.748 17.8933 107.748 18.84C107.748 19.2933 107.928 19.6533 108.288 19.92C108.648 20.1867 109.148 20.32 109.788 20.32ZM124.616 21.42C124.323 21.66 123.963 21.84 123.536 21.96C123.123 22.08 122.683 22.14 122.216 22.14C121.043 22.14 120.136 21.8333 119.496 21.22C118.856 20.6067 118.536 19.7133 118.536 18.54V13.4H116.776V11.4H118.536V8.96H121.036V11.4H123.896V13.4H121.036V18.48C121.036 19 121.163 19.4 121.416 19.68C121.67 19.9467 122.036 20.08 122.516 20.08C123.076 20.08 123.543 19.9333 123.916 19.64L124.616 21.42ZM130.753 11.2C132.326 11.2 133.526 11.58 134.353 12.34C135.193 13.0867 135.613 14.22 135.613 15.74V22H133.253V20.7C132.946 21.1667 132.506 21.5267 131.933 21.78C131.373 22.02 130.693 22.14 129.893 22.14C129.093 22.14 128.393 22.0067 127.793 21.74C127.193 21.46 126.726 21.08 126.393 20.6C126.073 20.1067 125.913 19.5533 125.913 18.94C125.913 17.98 126.266 17.2133 126.973 16.64C127.693 16.0533 128.82 15.76 130.353 15.76H133.113V15.6C133.113 14.8533 132.886 14.28 132.433 13.88C131.993 13.48 131.333 13.28 130.453 13.28C129.853 13.28 129.26 13.3733 128.673 13.56C128.1 13.7467 127.613 14.0067 127.213 14.34L126.233 12.52C126.793 12.0933 127.466 11.7667 128.253 11.54C129.04 11.3133 129.873 11.2 130.753 11.2ZM130.413 20.32C131.04 20.32 131.593 20.18 132.073 19.9C132.566 19.6067 132.913 19.1933 133.113 18.66V17.42H130.533C129.093 17.42 128.373 17.8933 128.373 18.84C128.373 19.2933 128.553 19.6533 128.913 19.92C129.273 20.1867 129.773 20.32 130.413 20.32ZM143.161 9.04C142.108 9.04 141.581 9.61333 141.581 10.76V11.4H144.521V13.4H141.661V22H139.161V13.4H137.401V11.4H139.161V10.72C139.161 9.57333 139.495 8.67333 140.161 8.02C140.828 7.35333 141.768 7.02 142.981 7.02C143.941 7.02 144.695 7.21333 145.241 7.6L144.541 9.48C144.115 9.18667 143.655 9.04 143.161 9.04ZM150.848 22.14C149.768 22.14 148.795 21.9067 147.928 21.44C147.061 20.9733 146.381 20.3267 145.888 19.5C145.408 18.66 145.168 17.7133 145.168 16.66C145.168 15.6067 145.408 14.6667 145.888 13.84C146.381 13.0133 147.061 12.3667 147.928 11.9C148.795 11.4333 149.768 11.2 150.848 11.2C151.941 11.2 152.921 11.4333 153.788 11.9C154.655 12.3667 155.328 13.0133 155.808 13.84C156.301 14.6667 156.548 15.6067 156.548 16.66C156.548 17.7133 156.301 18.66 155.808 19.5C155.328 20.3267 154.655 20.9733 153.788 21.44C152.921 21.9067 151.941 22.14 150.848 22.14ZM150.848 20C151.768 20 152.528 19.6933 153.128 19.08C153.728 18.4667 154.028 17.66 154.028 16.66C154.028 15.66 153.728 14.8533 153.128 14.24C152.528 13.6267 151.768 13.32 150.848 13.32C149.928 13.32 149.168 13.6267 148.568 14.24C147.981 14.8533 147.688 15.66 147.688 16.66C147.688 17.66 147.981 18.4667 148.568 19.08C149.168 19.6933 149.928 20 150.848 20ZM161.319 12.88C162.039 11.76 163.305 11.2 165.119 11.2V13.58C164.905 13.54 164.712 13.52 164.539 13.52C163.565 13.52 162.805 13.8067 162.259 14.38C161.712 14.94 161.439 15.7533 161.439 16.82V22H158.939V11.32H161.319V12.88ZM180.719 11.2C182.066 11.2 183.133 11.5933 183.919 12.38C184.706 13.1533 185.099 14.32 185.099 15.88V22H182.599V16.2C182.599 15.2667 182.393 14.5667 181.979 14.1C181.566 13.62 180.973 13.38 180.199 13.38C179.359 13.38 178.686 13.66 178.179 14.22C177.673 14.7667 177.419 15.5533 177.419 16.58V22H174.919V16.2C174.919 15.2667 174.713 14.5667 174.299 14.1C173.886 13.62 173.293 13.38 172.519 13.38C171.666 13.38 170.986 13.6533 170.479 14.2C169.986 14.7467 169.739 15.54 169.739 16.58V22H167.239V11.32H169.619V12.68C170.019 12.2 170.519 11.8333 171.119 11.58C171.719 11.3267 172.386 11.2 173.119 11.2C173.919 11.2 174.626 11.3533 175.239 11.66C175.866 11.9533 176.359 12.3933 176.719 12.98C177.159 12.42 177.726 11.9867 178.419 11.68C179.113 11.36 179.879 11.2 180.719 11.2ZM192.374 11.2C193.947 11.2 195.147 11.58 195.974 12.34C196.814 13.0867 197.234 14.22 197.234 15.74V22H194.874V20.7C194.567 21.1667 194.127 21.5267 193.554 21.78C192.994 22.02 192.314 22.14 191.514 22.14C190.714 22.14 190.014 22.0067 189.414 21.74C188.814 21.46 188.347 21.08 188.014 20.6C187.694 20.1067 187.534 19.5533 187.534 18.94C187.534 17.98 187.887 17.2133 188.594 16.64C189.314 16.0533 190.441 15.76 191.974 15.76H194.734V15.6C194.734 14.8533 194.507 14.28 194.054 13.88C193.614 13.48 192.954 13.28 192.074 13.28C191.474 13.28 190.881 13.3733 190.294 13.56C189.721 13.7467 189.234 14.0067 188.834 14.34L187.854 12.52C188.414 12.0933 189.087 11.7667 189.874 11.54C190.661 11.3133 191.494 11.2 192.374 11.2ZM192.034 20.32C192.661 20.32 193.214 20.18 193.694 19.9C194.187 19.6067 194.534 19.1933 194.734 18.66V17.42H192.154C190.714 17.42 189.994 17.8933 189.994 18.84C189.994 19.2933 190.174 19.6533 190.534 19.92C190.894 20.1867 191.394 20.32 192.034 20.32ZM211.89 11.2C212.93 11.2 213.857 11.4267 214.67 11.88C215.497 12.3333 216.143 12.9733 216.61 13.8C217.077 14.6267 217.31 15.58 217.31 16.66C217.31 17.74 217.077 18.7 216.61 19.54C216.143 20.3667 215.497 21.0067 214.67 21.46C213.857 21.9133 212.93 22.14 211.89 22.14C210.45 22.14 209.31 21.66 208.47 20.7V25.88H205.97V11.32H208.35V12.72C208.763 12.2133 209.27 11.8333 209.87 11.58C210.483 11.3267 211.157 11.2 211.89 11.2ZM211.61 20C212.53 20 213.283 19.6933 213.87 19.08C214.47 18.4667 214.77 17.66 214.77 16.66C214.77 15.66 214.47 14.8533 213.87 14.24C213.283 13.6267 212.53 13.32 211.61 13.32C211.01 13.32 210.47 13.46 209.99 13.74C209.51 14.0067 209.13 14.3933 208.85 14.9C208.57 15.4067 208.43 15.9933 208.43 16.66C208.43 17.3267 208.57 17.9133 208.85 18.42C209.13 18.9267 209.51 19.32 209.99 19.6C210.47 19.8667 211.01 20 211.61 20ZM223.624 11.2C225.197 11.2 226.397 11.58 227.224 12.34C228.064 13.0867 228.484 14.22 228.484 15.74V22H226.124V20.7C225.817 21.1667 225.377 21.5267 224.804 21.78C224.244 22.02 223.564 22.14 222.764 22.14C221.964 22.14 221.264 22.0067 220.664 21.74C220.064 21.46 219.597 21.08 219.264 20.6C218.944 20.1067 218.784 19.5533 218.784 18.94C218.784 17.98 219.137 17.2133 219.844 16.64C220.564 16.0533 221.691 15.76 223.224 15.76H225.984V15.6C225.984 14.8533 225.757 14.28 225.304 13.88C224.864 13.48 224.204 13.28 223.324 13.28C222.724 13.28 222.131 13.3733 221.544 13.56C220.971 13.7467 220.484 14.0067 220.084 14.34L219.104 12.52C219.664 12.0933 220.337 11.7667 221.124 11.54C221.911 11.3133 222.744 11.2 223.624 11.2ZM223.284 20.32C223.911 20.32 224.464 20.18 224.944 19.9C225.437 19.6067 225.784 19.1933 225.984 18.66V17.42H223.404C221.964 17.42 221.244 17.8933 221.244 18.84C221.244 19.2933 221.424 19.6533 221.784 19.92C222.144 20.1867 222.644 20.32 223.284 20.32ZM234.073 12.88C234.793 11.76 236.059 11.2 237.873 11.2V13.58C237.659 13.54 237.466 13.52 237.293 13.52C236.319 13.52 235.559 13.8067 235.013 14.38C234.466 14.94 234.193 15.7533 234.193 16.82V22H231.693V11.32H234.073V12.88ZM244.015 11.2C245.588 11.2 246.788 11.58 247.615 12.34C248.455 13.0867 248.875 14.22 248.875 15.74V22H246.515V20.7C246.208 21.1667 245.768 21.5267 245.195 21.78C244.635 22.02 243.955 22.14 243.155 22.14C242.355 22.14 241.655 22.0067 241.055 21.74C240.455 21.46 239.988 21.08 239.655 20.6C239.335 20.1067 239.175 19.5533 239.175 18.94C239.175 17.98 239.528 17.2133 240.235 16.64C240.955 16.0533 242.081 15.76 243.615 15.76H246.375V15.6C246.375 14.8533 246.148 14.28 245.695 13.88C245.255 13.48 244.595 13.28 243.715 13.28C243.115 13.28 242.521 13.3733 241.935 13.56C241.361 13.7467 240.875 14.0067 240.475 14.34L239.495 12.52C240.055 12.0933 240.728 11.7667 241.515 11.54C242.301 11.3133 243.135 11.2 244.015 11.2ZM243.675 20.32C244.301 20.32 244.855 20.18 245.335 19.9C245.828 19.6067 246.175 19.1933 246.375 18.66V17.42H243.795C242.355 17.42 241.635 17.8933 241.635 18.84C241.635 19.2933 241.815 19.6533 242.175 19.92C242.535 20.1867 243.035 20.32 243.675 20.32ZM15.8968 46.14C14.8168 46.14 13.8435 45.9067 12.9768 45.44C12.1101 44.9733 11.4301 44.3267 10.9368 43.5C10.4568 42.66 10.2168 41.7133 10.2168 40.66C10.2168 39.6067 10.4568 38.6667 10.9368 37.84C11.4301 37.0133 12.1101 36.3667 12.9768 35.9C13.8435 35.4333 14.8168 35.2 15.8968 35.2C16.9901 35.2 17.9701 35.4333 18.8368 35.9C19.7035 36.3667 20.3768 37.0133 20.8568 37.84C21.3501 38.6667 21.5968 39.6067 21.5968 40.66C21.5968 41.7133 21.3501 42.66 20.8568 43.5C20.3768 44.3267 19.7035 44.9733 18.8368 45.44C17.9701 45.9067 16.9901 46.14 15.8968 46.14ZM15.8968 44C16.8168 44 17.5768 43.6933 18.1768 43.08C18.7768 42.4667 19.0768 41.66 19.0768 40.66C19.0768 39.66 18.7768 38.8533 18.1768 38.24C17.5768 37.6267 16.8168 37.32 15.8968 37.32C14.9768 37.32 14.2168 37.6267 13.6168 38.24C13.0301 38.8533 12.7368 39.66 12.7368 40.66C12.7368 41.66 13.0301 42.4667 13.6168 43.08C14.2168 43.6933 14.9768 44 15.8968 44ZM33.5948 35.2C35.1681 35.2 36.3681 35.58 37.1948 36.34C38.0348 37.0867 38.4548 38.22 38.4548 39.74V46H36.0948V44.7C35.7881 45.1667 35.3481 45.5267 34.7748 45.78C34.2148 46.02 33.5348 46.14 32.7348 46.14C31.9348 46.14 31.2348 46.0067 30.6348 45.74C30.0348 45.46 29.5681 45.08 29.2348 44.6C28.9148 44.1067 28.7548 43.5533 28.7548 42.94C28.7548 41.98 29.1081 41.2133 29.8148 40.64C30.5348 40.0533 31.6614 39.76 33.1948 39.76H35.9548V39.6C35.9548 38.8533 35.7281 38.28 35.2748 37.88C34.8348 37.48 34.1748 37.28 33.2948 37.28C32.6948 37.28 32.1014 37.3733 31.5148 37.56C30.9414 37.7467 30.4548 38.0067 30.0548 38.34L29.0748 36.52C29.6348 36.0933 30.3081 35.7667 31.0948 35.54C31.8814 35.3133 32.7148 35.2 33.5948 35.2ZM33.2548 44.32C33.8814 44.32 34.4348 44.18 34.9148 43.9C35.4081 43.6067 35.7548 43.1933 35.9548 42.66V41.42H33.3748C31.9348 41.42 31.2148 41.8933 31.2148 42.84C31.2148 43.2933 31.3948 43.6533 31.7548 43.92C32.1148 44.1867 32.6148 44.32 33.2548 44.32ZM52.0032 35.32V46H49.6232V44.64C49.2232 45.12 48.7232 45.4933 48.1232 45.76C47.5232 46.0133 46.8765 46.14 46.1832 46.14C44.7565 46.14 43.6299 45.7467 42.8032 44.96C41.9899 44.16 41.5832 42.98 41.5832 41.42V35.32H44.0832V41.08C44.0832 42.04 44.2965 42.76 44.7232 43.24C45.1632 43.7067 45.7832 43.94 46.5832 43.94C47.4765 43.94 48.1832 43.6667 48.7032 43.12C49.2365 42.56 49.5032 41.76 49.5032 40.72V35.32H52.0032ZM62.0765 46L59.3365 42.3L56.5765 46H53.8165L57.9765 40.58L53.9965 35.32H56.7765L59.3965 38.82L62.0165 35.32H64.7165L60.7165 40.54L64.8965 46H62.0765ZM66.7413 35.32H69.2413V46H66.7413V35.32ZM69.0213 31.12H71.9613L68.4813 33.86H66.3213L69.0213 31.12ZM72.5226 31.16H75.0226V46H72.5226V31.16ZM78.3038 35.32H80.8038V46H78.3038V35.32ZM79.5638 33.56C79.1105 33.56 78.7305 33.42 78.4238 33.14C78.1172 32.8467 77.9638 32.4867 77.9638 32.06C77.9638 31.6333 78.1172 31.28 78.4238 31C78.7305 30.7067 79.1105 30.56 79.5638 30.56C80.0172 30.56 80.3972 30.7 80.7038 30.98C81.0105 31.2467 81.1638 31.5867 81.1638 32C81.1638 32.44 81.0105 32.8133 80.7038 33.12C80.4105 33.4133 80.0305 33.56 79.5638 33.56ZM88.8851 46.14C87.8051 46.14 86.8318 45.9067 85.9651 45.44C85.0984 44.9733 84.4184 44.3267 83.9251 43.5C83.4451 42.66 83.2051 41.7133 83.2051 40.66C83.2051 39.6067 83.4451 38.6667 83.9251 37.84C84.4184 37.0133 85.0984 36.3667 85.9651 35.9C86.8318 35.4333 87.8051 35.2 88.8851 35.2C89.9784 35.2 90.9584 35.4333 91.8251 35.9C92.6918 36.3667 93.3651 37.0133 93.8451 37.84C94.3384 38.6667 94.5851 39.6067 94.5851 40.66C94.5851 41.7133 94.3384 42.66 93.8451 43.5C93.3651 44.3267 92.6918 44.9733 91.8251 45.44C90.9584 45.9067 89.9784 46.14 88.8851 46.14ZM88.8851 44C89.8051 44 90.5651 43.6933 91.1651 43.08C91.7651 42.4667 92.0651 41.66 92.0651 40.66C92.0651 39.66 91.7651 38.8533 91.1651 38.24C90.5651 37.6267 89.8051 37.32 88.8851 37.32C87.9651 37.32 87.2051 37.6267 86.6051 38.24C86.0184 38.8533 85.7251 39.66 85.7251 40.66C85.7251 41.66 86.0184 42.4667 86.6051 43.08C87.2051 43.6933 87.9651 44 88.8851 44ZM112.963 31.16V46H110.563V44.62C110.15 45.1267 109.636 45.5067 109.023 45.76C108.423 46.0133 107.756 46.14 107.023 46.14C105.996 46.14 105.07 45.9133 104.243 45.46C103.43 45.0067 102.79 44.3667 102.323 43.54C101.856 42.7 101.623 41.74 101.623 40.66C101.623 39.58 101.856 38.6267 102.323 37.8C102.79 36.9733 103.43 36.3333 104.243 35.88C105.07 35.4267 105.996 35.2 107.023 35.2C107.73 35.2 108.376 35.32 108.963 35.56C109.55 35.8 110.05 36.16 110.463 36.64V31.16H112.963ZM107.323 44C107.923 44 108.463 43.8667 108.943 43.6C109.423 43.32 109.803 42.9267 110.083 42.42C110.363 41.9133 110.503 41.3267 110.503 40.66C110.503 39.9933 110.363 39.4067 110.083 38.9C109.803 38.3933 109.423 38.0067 108.943 37.74C108.463 37.46 107.923 37.32 107.323 37.32C106.723 37.32 106.183 37.46 105.703 37.74C105.223 38.0067 104.843 38.3933 104.563 38.9C104.283 39.4067 104.143 39.9933 104.143 40.66C104.143 41.3267 104.283 41.9133 104.563 42.42C104.843 42.9267 105.223 43.32 105.703 43.6C106.183 43.8667 106.723 44 107.323 44ZM120.314 35.2C121.887 35.2 123.087 35.58 123.914 36.34C124.754 37.0867 125.174 38.22 125.174 39.74V46H122.814V44.7C122.507 45.1667 122.067 45.5267 121.494 45.78C120.934 46.02 120.254 46.14 119.454 46.14C118.654 46.14 117.954 46.0067 117.354 45.74C116.754 45.46 116.287 45.08 115.954 44.6C115.634 44.1067 115.474 43.5533 115.474 42.94C115.474 41.98 115.827 41.2133 116.534 40.64C117.254 40.0533 118.38 39.76 119.914 39.76H122.674V39.6C122.674 38.8533 122.447 38.28 121.994 37.88C121.554 37.48 120.894 37.28 120.014 37.28C119.414 37.28 118.82 37.3733 118.234 37.56C117.66 37.7467 117.174 38.0067 116.774 38.34L115.794 36.52C116.354 36.0933 117.027 35.7667 117.814 35.54C118.6 35.3133 119.434 35.2 120.314 35.2ZM119.974 44.32C120.6 44.32 121.154 44.18 121.634 43.9C122.127 43.6067 122.474 43.1933 122.674 42.66V41.42H120.094C118.654 41.42 117.934 41.8933 117.934 42.84C117.934 43.2933 118.114 43.6533 118.474 43.92C118.834 44.1867 119.334 44.32 119.974 44.32ZM138.809 46.14C137.703 46.14 136.709 45.9067 135.829 45.44C134.949 44.9733 134.263 44.3267 133.769 43.5C133.276 42.66 133.029 41.7133 133.029 40.66C133.029 39.6067 133.276 38.6667 133.769 37.84C134.263 37.0133 134.943 36.3667 135.809 35.9C136.689 35.4333 137.689 35.2 138.809 35.2C139.863 35.2 140.783 35.4133 141.569 35.84C142.369 36.2667 142.969 36.88 143.369 37.68L141.449 38.8C141.143 38.3067 140.756 37.94 140.289 37.7C139.836 37.4467 139.336 37.32 138.789 37.32C137.856 37.32 137.083 37.6267 136.469 38.24C135.856 38.84 135.549 39.6467 135.549 40.66C135.549 41.6733 135.849 42.4867 136.449 43.1C137.063 43.7 137.843 44 138.789 44C139.336 44 139.836 43.88 140.289 43.64C140.756 43.3867 141.143 43.0133 141.449 42.52L143.369 43.64C142.956 44.44 142.349 45.06 141.549 45.5C140.763 45.9267 139.849 46.14 138.809 46.14ZM150.174 46.14C149.094 46.14 148.121 45.9067 147.254 45.44C146.387 44.9733 145.707 44.3267 145.214 43.5C144.734 42.66 144.494 41.7133 144.494 40.66C144.494 39.6067 144.734 38.6667 145.214 37.84C145.707 37.0133 146.387 36.3667 147.254 35.9C148.121 35.4333 149.094 35.2 150.174 35.2C151.267 35.2 152.247 35.4333 153.114 35.9C153.981 36.3667 154.654 37.0133 155.134 37.84C155.627 38.6667 155.874 39.6067 155.874 40.66C155.874 41.7133 155.627 42.66 155.134 43.5C154.654 44.3267 153.981 44.9733 153.114 45.44C152.247 45.9067 151.267 46.14 150.174 46.14ZM150.174 44C151.094 44 151.854 43.6933 152.454 43.08C153.054 42.4667 153.354 41.66 153.354 40.66C153.354 39.66 153.054 38.8533 152.454 38.24C151.854 37.6267 151.094 37.32 150.174 37.32C149.254 37.32 148.494 37.6267 147.894 38.24C147.307 38.8533 147.014 39.66 147.014 40.66C147.014 41.66 147.307 42.4667 147.894 43.08C148.494 43.6933 149.254 44 150.174 44ZM171.745 35.2C173.091 35.2 174.158 35.5933 174.945 36.38C175.731 37.1533 176.125 38.32 176.125 39.88V46H173.625V40.2C173.625 39.2667 173.418 38.5667 173.005 38.1C172.591 37.62 171.998 37.38 171.225 37.38C170.385 37.38 169.711 37.66 169.205 38.22C168.698 38.7667 168.445 39.5533 168.445 40.58V46H165.945V40.2C165.945 39.2667 165.738 38.5667 165.325 38.1C164.911 37.62 164.318 37.38 163.545 37.38C162.691 37.38 162.011 37.6533 161.505 38.2C161.011 38.7467 160.765 39.54 160.765 40.58V46H158.265V35.32H160.645V36.68C161.045 36.2 161.545 35.8333 162.145 35.58C162.745 35.3267 163.411 35.2 164.145 35.2C164.945 35.2 165.651 35.3533 166.265 35.66C166.891 35.9533 167.385 36.3933 167.745 36.98C168.185 36.42 168.751 35.9867 169.445 35.68C170.138 35.36 170.905 35.2 171.745 35.2ZM189.659 35.32V46H187.279V44.64C186.879 45.12 186.379 45.4933 185.779 45.76C185.179 46.0133 184.533 46.14 183.839 46.14C182.413 46.14 181.286 45.7467 180.459 44.96C179.646 44.16 179.239 42.98 179.239 41.42V35.32H181.739V41.08C181.739 42.04 181.953 42.76 182.379 43.24C182.819 43.7067 183.439 43.94 184.239 43.94C185.133 43.94 185.839 43.6667 186.359 43.12C186.893 42.56 187.159 41.76 187.159 40.72V35.32H189.659ZM198.993 35.2C200.339 35.2 201.419 35.5933 202.233 36.38C203.046 37.1667 203.453 38.3333 203.453 39.88V46H200.953V40.2C200.953 39.2667 200.733 38.5667 200.293 38.1C199.853 37.62 199.226 37.38 198.413 37.38C197.493 37.38 196.766 37.66 196.233 38.22C195.699 38.7667 195.433 39.56 195.433 40.6V46H192.933V35.32H195.313V36.7C195.726 36.2067 196.246 35.8333 196.873 35.58C197.499 35.3267 198.206 35.2 198.993 35.2ZM206.624 35.32H209.124V46H206.624V35.32ZM207.884 33.56C207.431 33.56 207.051 33.42 206.744 33.14C206.437 32.8467 206.284 32.4867 206.284 32.06C206.284 31.6333 206.437 31.28 206.744 31C207.051 30.7067 207.431 30.56 207.884 30.56C208.337 30.56 208.717 30.7 209.024 30.98C209.331 31.2467 209.484 31.5867 209.484 32C209.484 32.44 209.331 32.8133 209.024 33.12C208.731 33.4133 208.351 33.56 207.884 33.56ZM217.305 46.14C216.199 46.14 215.205 45.9067 214.325 45.44C213.445 44.9733 212.759 44.3267 212.265 43.5C211.772 42.66 211.525 41.7133 211.525 40.66C211.525 39.6067 211.772 38.6667 212.265 37.84C212.759 37.0133 213.439 36.3667 214.305 35.9C215.185 35.4333 216.185 35.2 217.305 35.2C218.359 35.2 219.279 35.4133 220.065 35.84C220.865 36.2667 221.465 36.88 221.865 37.68L219.945 38.8C219.639 38.3067 219.252 37.94 218.785 37.7C218.332 37.4467 217.832 37.32 217.285 37.32C216.352 37.32 215.579 37.6267 214.965 38.24C214.352 38.84 214.045 39.6467 214.045 40.66C214.045 41.6733 214.345 42.4867 214.945 43.1C215.559 43.7 216.339 44 217.285 44C217.832 44 218.332 43.88 218.785 43.64C219.252 43.3867 219.639 43.0133 219.945 42.52L221.865 43.64C221.452 44.44 220.845 45.06 220.045 45.5C219.259 45.9267 218.345 46.14 217.305 46.14ZM228.106 35.2C229.68 35.2 230.88 35.58 231.706 36.34C232.546 37.0867 232.966 38.22 232.966 39.74V46H230.606V44.7C230.3 45.1667 229.86 45.5267 229.286 45.78C228.726 46.02 228.046 46.14 227.246 46.14C226.446 46.14 225.746 46.0067 225.146 45.74C224.546 45.46 224.08 45.08 223.746 44.6C223.426 44.1067 223.266 43.5533 223.266 42.94C223.266 41.98 223.62 41.2133 224.326 40.64C225.046 40.0533 226.173 39.76 227.706 39.76H230.466V39.6C230.466 38.8533 230.24 38.28 229.786 37.88C229.346 37.48 228.686 37.28 227.806 37.28C227.206 37.28 226.613 37.3733 226.026 37.56C225.453 37.7467 224.966 38.0067 224.566 38.34L223.586 36.52C224.146 36.0933 224.82 35.7667 225.606 35.54C226.393 35.3133 227.226 35.2 228.106 35.2ZM227.766 44.32C228.393 44.32 228.946 44.18 229.426 43.9C229.92 43.6067 230.266 43.1933 230.466 42.66V41.42H227.886C226.446 41.42 225.726 41.8933 225.726 42.84C225.726 43.2933 225.906 43.6533 226.266 43.92C226.626 44.1867 227.126 44.32 227.766 44.32ZM241.173 46.14C240.066 46.14 239.073 45.9067 238.193 45.44C237.313 44.9733 236.626 44.3267 236.133 43.5C235.639 42.66 235.393 41.7133 235.393 40.66C235.393 39.6067 235.639 38.6667 236.133 37.84C236.626 37.0133 237.306 36.3667 238.173 35.9C239.053 35.4333 240.053 35.2 241.173 35.2C242.226 35.2 243.146 35.4133 243.933 35.84C244.733 36.2667 245.333 36.88 245.733 37.68L243.813 38.8C243.506 38.3067 243.119 37.94 242.653 37.7C242.199 37.4467 241.699 37.32 241.153 37.32C240.219 37.32 239.446 37.6267 238.833 38.24C238.219 38.84 237.913 39.6467 237.913 40.66C237.913 41.6733 238.213 42.4867 238.813 43.1C239.426 43.7 240.206 44 241.153 44C241.699 44 242.199 43.88 242.653 43.64C243.119 43.3867 243.506 43.0133 243.813 42.52L245.733 43.64C245.319 44.44 244.713 45.06 243.913 45.5C243.126 45.9267 242.213 46.14 241.173 46.14ZM240.133 50.56C239.413 50.56 238.799 50.42 238.293 50.14L238.753 48.96C239.166 49.1733 239.619 49.28 240.113 49.28C240.819 49.28 241.173 49.04 241.173 48.56C241.173 48.36 241.086 48.2 240.913 48.08C240.739 47.96 240.473 47.9 240.113 47.9H239.493L240.033 45.86H241.393L241.113 46.98C241.686 47.0467 242.119 47.2267 242.413 47.52C242.706 47.8267 242.853 48.2067 242.853 48.66C242.853 49.2333 242.606 49.6933 242.113 50.04C241.619 50.3867 240.959 50.56 240.133 50.56ZM251.974 35.2C253.547 35.2 254.747 35.58 255.574 36.34C256.414 37.0867 256.834 38.22 256.834 39.74V46H254.474V44.7C254.167 45.1667 253.727 45.5267 253.154 45.78C252.594 46.02 251.914 46.14 251.114 46.14C250.314 46.14 249.614 46.0067 249.014 45.74C248.414 45.46 247.947 45.08 247.614 44.6C247.294 44.1067 247.134 43.5533 247.134 42.94C247.134 41.98 247.487 41.2133 248.194 40.64C248.914 40.0533 250.04 39.76 251.574 39.76H254.334V39.6C254.334 38.8533 254.107 38.28 253.654 37.88C253.214 37.48 252.554 37.28 251.674 37.28C251.074 37.28 250.48 37.3733 249.894 37.56C249.32 37.7467 248.834 38.0067 248.434 38.34L247.454 36.52C248.014 36.0933 248.687 35.7667 249.474 35.54C250.26 35.3133 251.094 35.2 251.974 35.2ZM251.634 44.32C252.26 44.32 252.814 44.18 253.294 43.9C253.787 43.6067 254.134 43.1933 254.334 42.66V41.42H251.754C250.314 41.42 249.594 41.8933 249.594 42.84C249.594 43.2933 249.774 43.6533 250.134 43.92C250.494 44.1867 250.994 44.32 251.634 44.32ZM253.634 33.86C253.3 33.86 253.007 33.7933 252.754 33.66C252.514 33.5267 252.214 33.3267 251.854 33.06C251.64 32.8867 251.46 32.76 251.314 32.68C251.18 32.5867 251.047 32.54 250.914 32.54C250.634 32.54 250.4 32.6467 250.214 32.86C250.04 33.0733 249.947 33.3667 249.934 33.74H248.594C248.607 32.9267 248.807 32.28 249.194 31.8C249.594 31.3067 250.114 31.06 250.754 31.06C251.087 31.06 251.374 31.1267 251.614 31.26C251.867 31.3933 252.174 31.5933 252.534 31.86C252.747 32.0333 252.92 32.1667 253.054 32.26C253.2 32.34 253.34 32.38 253.474 32.38C253.754 32.38 253.98 32.28 254.154 32.08C254.34 31.88 254.44 31.6 254.454 31.24H255.794C255.767 32.0267 255.56 32.66 255.174 33.14C254.787 33.62 254.274 33.86 253.634 33.86ZM264.94 46.14C263.86 46.14 262.886 45.9067 262.02 45.44C261.153 44.9733 260.473 44.3267 259.98 43.5C259.5 42.66 259.26 41.7133 259.26 40.66C259.26 39.6067 259.5 38.6667 259.98 37.84C260.473 37.0133 261.153 36.3667 262.02 35.9C262.886 35.4333 263.86 35.2 264.94 35.2C266.033 35.2 267.013 35.4333 267.88 35.9C268.746 36.3667 269.42 37.0133 269.9 37.84C270.393 38.6667 270.64 39.6067 270.64 40.66C270.64 41.7133 270.393 42.66 269.9 43.5C269.42 44.3267 268.746 44.9733 267.88 45.44C267.013 45.9067 266.033 46.14 264.94 46.14ZM264.94 44C265.86 44 266.62 43.6933 267.22 43.08C267.82 42.4667 268.12 41.66 268.12 40.66C268.12 39.66 267.82 38.8533 267.22 38.24C266.62 37.6267 265.86 37.32 264.94 37.32C264.02 37.32 263.26 37.6267 262.66 38.24C262.073 38.8533 261.78 39.66 261.78 40.66C261.78 41.66 262.073 42.4667 262.66 43.08C263.26 43.6933 264.02 44 264.94 44ZM43.2853 55.16V70H40.8853V68.62C40.472 69.1267 39.9587 69.5067 39.3453 69.76C38.7453 70.0133 38.0787 70.14 37.3453 70.14C36.3187 70.14 35.392 69.9133 34.5653 69.46C33.752 69.0067 33.112 68.3667 32.6453 67.54C32.1787 66.7 31.9453 65.74 31.9453 64.66C31.9453 63.58 32.1787 62.6267 32.6453 61.8C33.112 60.9733 33.752 60.3333 34.5653 59.88C35.392 59.4267 36.3187 59.2 37.3453 59.2C38.052 59.2 38.6987 59.32 39.2853 59.56C39.872 59.8 40.372 60.16 40.7853 60.64V55.16H43.2853ZM37.6453 68C38.2453 68 38.7853 67.8667 39.2653 67.6C39.7453 67.32 40.1253 66.9267 40.4053 66.42C40.6853 65.9133 40.8253 65.3267 40.8253 64.66C40.8253 63.9933 40.6853 63.4067 40.4053 62.9C40.1253 62.3933 39.7453 62.0067 39.2653 61.74C38.7853 61.46 38.2453 61.32 37.6453 61.32C37.0453 61.32 36.5053 61.46 36.0253 61.74C35.5453 62.0067 35.1653 62.3933 34.8853 62.9C34.6053 63.4067 34.4653 63.9933 34.4653 64.66C34.4653 65.3267 34.6053 65.9133 34.8853 66.42C35.1653 66.9267 35.5453 67.32 36.0253 67.6C36.5053 67.8667 37.0453 68 37.6453 68ZM56.5958 64.72C56.5958 64.8933 56.5825 65.14 56.5558 65.46H48.1758C48.3225 66.2467 48.7025 66.8733 49.3158 67.34C49.9425 67.7933 50.7158 68.02 51.6358 68.02C52.8091 68.02 53.7758 67.6333 54.5358 66.86L55.8758 68.4C55.3958 68.9733 54.7891 69.4067 54.0558 69.7C53.3225 69.9933 52.4958 70.14 51.5758 70.14C50.4025 70.14 49.3691 69.9067 48.4758 69.44C47.5825 68.9733 46.8891 68.3267 46.3958 67.5C45.9158 66.66 45.6758 65.7133 45.6758 64.66C45.6758 63.62 45.9091 62.6867 46.3758 61.86C46.8558 61.02 47.5158 60.3667 48.3558 59.9C49.1958 59.4333 50.1425 59.2 51.1958 59.2C52.2358 59.2 53.1625 59.4333 53.9758 59.9C54.8025 60.3533 55.4425 61 55.8958 61.84C56.3625 62.6667 56.5958 63.6267 56.5958 64.72ZM51.1958 61.2C50.3958 61.2 49.7158 61.44 49.1558 61.92C48.6091 62.3867 48.2758 63.0133 48.1558 63.8H54.2158C54.1091 63.0267 53.7825 62.4 53.2358 61.92C52.6891 61.44 52.0091 61.2 51.1958 61.2ZM68.6045 59.2C70.1779 59.2 71.3779 59.58 72.2045 60.34C73.0445 61.0867 73.4645 62.22 73.4645 63.74V70H71.1045V68.7C70.7979 69.1667 70.3579 69.5267 69.7845 69.78C69.2245 70.02 68.5445 70.14 67.7445 70.14C66.9445 70.14 66.2445 70.0067 65.6445 69.74C65.0445 69.46 64.5779 69.08 64.2445 68.6C63.9245 68.1067 63.7645 67.5533 63.7645 66.94C63.7645 65.98 64.1179 65.2133 64.8245 64.64C65.5445 64.0533 66.6712 63.76 68.2045 63.76H70.9645V63.6C70.9645 62.8533 70.7379 62.28 70.2845 61.88C69.8445 61.48 69.1845 61.28 68.3045 61.28C67.7045 61.28 67.1112 61.3733 66.5245 61.56C65.9512 61.7467 65.4645 62.0067 65.0645 62.34L64.0845 60.52C64.6445 60.0933 65.3179 59.7667 66.1045 59.54C66.8912 59.3133 67.7245 59.2 68.6045 59.2ZM68.2645 68.32C68.8912 68.32 69.4445 68.18 69.9245 67.9C70.4179 67.6067 70.7645 67.1933 70.9645 66.66V65.42H68.3845C66.9445 65.42 66.2245 65.8933 66.2245 66.84C66.2245 67.2933 66.4045 67.6533 66.7645 67.92C67.1245 68.1867 67.6245 68.32 68.2645 68.32ZM87.2306 55.16V70H84.8306V68.62C84.4173 69.1267 83.904 69.5067 83.2906 69.76C82.6906 70.0133 82.024 70.14 81.2906 70.14C80.264 70.14 79.3373 69.9133 78.5106 69.46C77.6973 69.0067 77.0573 68.3667 76.5906 67.54C76.124 66.7 75.8906 65.74 75.8906 64.66C75.8906 63.58 76.124 62.6267 76.5906 61.8C77.0573 60.9733 77.6973 60.3333 78.5106 59.88C79.3373 59.4267 80.264 59.2 81.2906 59.2C81.9973 59.2 82.644 59.32 83.2306 59.56C83.8173 59.8 84.3173 60.16 84.7306 60.64V55.16H87.2306ZM81.5906 68C82.1906 68 82.7306 67.8667 83.2106 67.6C83.6906 67.32 84.0706 66.9267 84.3506 66.42C84.6306 65.9133 84.7706 65.3267 84.7706 64.66C84.7706 63.9933 84.6306 63.4067 84.3506 62.9C84.0706 62.3933 83.6906 62.0067 83.2106 61.74C82.7306 61.46 82.1906 61.32 81.5906 61.32C80.9906 61.32 80.4506 61.46 79.9706 61.74C79.4906 62.0067 79.1106 62.3933 78.8306 62.9C78.5506 63.4067 78.4106 63.9933 78.4106 64.66C78.4106 65.3267 78.5506 65.9133 78.8306 66.42C79.1106 66.9267 79.4906 67.32 79.9706 67.6C80.4506 67.8667 80.9906 68 81.5906 68ZM95.3011 70.14C94.2211 70.14 93.2478 69.9067 92.3811 69.44C91.5144 68.9733 90.8344 68.3267 90.3411 67.5C89.8611 66.66 89.6211 65.7133 89.6211 64.66C89.6211 63.6067 89.8611 62.6667 90.3411 61.84C90.8344 61.0133 91.5144 60.3667 92.3811 59.9C93.2478 59.4333 94.2211 59.2 95.3011 59.2C96.3944 59.2 97.3744 59.4333 98.2411 59.9C99.1078 60.3667 99.7811 61.0133 100.261 61.84C100.754 62.6667 101.001 63.6067 101.001 64.66C101.001 65.7133 100.754 66.66 100.261 67.5C99.7811 68.3267 99.1078 68.9733 98.2411 69.44C97.3744 69.9067 96.3944 70.14 95.3011 70.14ZM95.3011 68C96.2211 68 96.9811 67.6933 97.5811 67.08C98.1811 66.4667 98.4811 65.66 98.4811 64.66C98.4811 63.66 98.1811 62.8533 97.5811 62.24C96.9811 61.6267 96.2211 61.32 95.3011 61.32C94.3811 61.32 93.6211 61.6267 93.0211 62.24C92.4344 62.8533 92.1411 63.66 92.1411 64.66C92.1411 65.66 92.4344 66.4667 93.0211 67.08C93.6211 67.6933 94.3811 68 95.3011 68ZM103.392 55.16H105.892V70H103.392V55.16ZM119.213 64.72C119.213 64.8933 119.2 65.14 119.173 65.46H110.793C110.94 66.2467 111.32 66.8733 111.933 67.34C112.56 67.7933 113.333 68.02 114.253 68.02C115.426 68.02 116.393 67.6333 117.153 66.86L118.493 68.4C118.013 68.9733 117.406 69.4067 116.673 69.7C115.94 69.9933 115.113 70.14 114.193 70.14C113.02 70.14 111.986 69.9067 111.093 69.44C110.2 68.9733 109.506 68.3267 109.013 67.5C108.533 66.66 108.293 65.7133 108.293 64.66C108.293 63.62 108.526 62.6867 108.993 61.86C109.473 61.02 110.133 60.3667 110.973 59.9C111.813 59.4333 112.76 59.2 113.813 59.2C114.853 59.2 115.78 59.4333 116.593 59.9C117.42 60.3533 118.06 61 118.513 61.84C118.98 62.6667 119.213 63.6267 119.213 64.72ZM113.813 61.2C113.013 61.2 112.333 61.44 111.773 61.92C111.226 62.3867 110.893 63.0133 110.773 63.8H116.833C116.726 63.0267 116.4 62.4 115.853 61.92C115.306 61.44 114.626 61.2 113.813 61.2ZM124.914 70.14C124.048 70.14 123.201 70.0267 122.374 69.8C121.548 69.5733 120.888 69.2867 120.394 68.94L121.354 67.04C121.834 67.36 122.408 67.62 123.074 67.82C123.754 68.0067 124.421 68.1 125.074 68.1C126.568 68.1 127.314 67.7067 127.314 66.92C127.314 66.5467 127.121 66.2867 126.734 66.14C126.361 65.9933 125.754 65.8533 124.914 65.72C124.034 65.5867 123.314 65.4333 122.754 65.26C122.208 65.0867 121.728 64.7867 121.314 64.36C120.914 63.92 120.714 63.3133 120.714 62.54C120.714 61.5267 121.134 60.72 121.974 60.12C122.828 59.5067 123.974 59.2 125.414 59.2C126.148 59.2 126.881 59.2867 127.614 59.46C128.348 59.62 128.948 59.84 129.414 60.12L128.454 62.02C127.548 61.4867 126.528 61.22 125.394 61.22C124.661 61.22 124.101 61.3333 123.714 61.56C123.341 61.7733 123.154 62.06 123.154 62.42C123.154 62.82 123.354 63.1067 123.754 63.28C124.168 63.44 124.801 63.5933 125.654 63.74C126.508 63.8733 127.208 64.0267 127.754 64.2C128.301 64.3733 128.768 64.6667 129.154 65.08C129.554 65.4933 129.754 66.08 129.754 66.84C129.754 67.84 129.321 68.64 128.454 69.24C127.588 69.84 126.408 70.14 124.914 70.14ZM136.807 70.14C135.701 70.14 134.707 69.9067 133.827 69.44C132.947 68.9733 132.261 68.3267 131.767 67.5C131.274 66.66 131.027 65.7133 131.027 64.66C131.027 63.6067 131.274 62.6667 131.767 61.84C132.261 61.0133 132.941 60.3667 133.807 59.9C134.687 59.4333 135.687 59.2 136.807 59.2C137.861 59.2 138.781 59.4133 139.567 59.84C140.367 60.2667 140.967 60.88 141.367 61.68L139.447 62.8C139.141 62.3067 138.754 61.94 138.287 61.7C137.834 61.4467 137.334 61.32 136.787 61.32C135.854 61.32 135.081 61.6267 134.467 62.24C133.854 62.84 133.547 63.6467 133.547 64.66C133.547 65.6733 133.847 66.4867 134.447 67.1C135.061 67.7 135.841 68 136.787 68C137.334 68 137.834 67.88 138.287 67.64C138.754 67.3867 139.141 67.0133 139.447 66.52L141.367 67.64C140.954 68.44 140.347 69.06 139.547 69.5C138.761 69.9267 137.847 70.14 136.807 70.14ZM153.412 64.72C153.412 64.8933 153.399 65.14 153.372 65.46H144.992C145.139 66.2467 145.519 66.8733 146.132 67.34C146.759 67.7933 147.532 68.02 148.452 68.02C149.626 68.02 150.592 67.6333 151.352 66.86L152.692 68.4C152.212 68.9733 151.606 69.4067 150.872 69.7C150.139 69.9933 149.312 70.14 148.392 70.14C147.219 70.14 146.186 69.9067 145.292 69.44C144.399 68.9733 143.706 68.3267 143.212 67.5C142.732 66.66 142.492 65.7133 142.492 64.66C142.492 63.62 142.726 62.6867 143.192 61.86C143.672 61.02 144.332 60.3667 145.172 59.9C146.012 59.4333 146.959 59.2 148.012 59.2C149.052 59.2 149.979 59.4333 150.792 59.9C151.619 60.3533 152.259 61 152.712 61.84C153.179 62.6667 153.412 63.6267 153.412 64.72ZM148.012 61.2C147.212 61.2 146.532 61.44 145.972 61.92C145.426 62.3867 145.092 63.0133 144.972 63.8H151.032C150.926 63.0267 150.599 62.4 150.052 61.92C149.506 61.44 148.826 61.2 148.012 61.2ZM161.874 59.2C163.22 59.2 164.3 59.5933 165.114 60.38C165.927 61.1667 166.334 62.3333 166.334 63.88V70H163.834V64.2C163.834 63.2667 163.614 62.5667 163.174 62.1C162.734 61.62 162.107 61.38 161.294 61.38C160.374 61.38 159.647 61.66 159.114 62.22C158.58 62.7667 158.314 63.56 158.314 64.6V70H155.814V59.32H158.194V60.7C158.607 60.2067 159.127 59.8333 159.754 59.58C160.38 59.3267 161.087 59.2 161.874 59.2ZM175.925 69.42C175.632 69.66 175.272 69.84 174.845 69.96C174.432 70.08 173.992 70.14 173.525 70.14C172.352 70.14 171.445 69.8333 170.805 69.22C170.165 68.6067 169.845 67.7133 169.845 66.54V61.4H168.085V59.4H169.845V56.96H172.345V59.4H175.205V61.4H172.345V66.48C172.345 67 172.472 67.4 172.725 67.68C172.978 67.9467 173.345 68.08 173.825 68.08C174.385 68.08 174.852 67.9333 175.225 67.64L175.925 69.42ZM187.67 64.72C187.67 64.8933 187.657 65.14 187.63 65.46H179.25C179.397 66.2467 179.777 66.8733 180.39 67.34C181.017 67.7933 181.79 68.02 182.71 68.02C183.883 68.02 184.85 67.6333 185.61 66.86L186.95 68.4C186.47 68.9733 185.863 69.4067 185.13 69.7C184.397 69.9933 183.57 70.14 182.65 70.14C181.477 70.14 180.443 69.9067 179.55 69.44C178.657 68.9733 177.963 68.3267 177.47 67.5C176.99 66.66 176.75 65.7133 176.75 64.66C176.75 63.62 176.983 62.6867 177.45 61.86C177.93 61.02 178.59 60.3667 179.43 59.9C180.27 59.4333 181.217 59.2 182.27 59.2C183.31 59.2 184.237 59.4333 185.05 59.9C185.877 60.3533 186.517 61 186.97 61.84C187.437 62.6667 187.67 63.6267 187.67 64.72ZM182.27 61.2C181.47 61.2 180.79 61.44 180.23 61.92C179.683 62.3867 179.35 63.0133 179.23 63.8H185.29C185.183 63.0267 184.857 62.4 184.31 61.92C183.763 61.44 183.083 61.2 182.27 61.2ZM193.371 70.14C192.505 70.14 191.658 70.0267 190.831 69.8C190.005 69.5733 189.345 69.2867 188.851 68.94L189.811 67.04C190.291 67.36 190.865 67.62 191.531 67.82C192.211 68.0067 192.878 68.1 193.531 68.1C195.025 68.1 195.771 67.7067 195.771 66.92C195.771 66.5467 195.578 66.2867 195.191 66.14C194.818 65.9933 194.211 65.8533 193.371 65.72C192.491 65.5867 191.771 65.4333 191.211 65.26C190.665 65.0867 190.185 64.7867 189.771 64.36C189.371 63.92 189.171 63.3133 189.171 62.54C189.171 61.5267 189.591 60.72 190.431 60.12C191.285 59.5067 192.431 59.2 193.871 59.2C194.605 59.2 195.338 59.2867 196.071 59.46C196.805 59.62 197.405 59.84 197.871 60.12L196.911 62.02C196.005 61.4867 194.985 61.22 193.851 61.22C193.118 61.22 192.558 61.3333 192.171 61.56C191.798 61.7733 191.611 62.06 191.611 62.42C191.611 62.82 191.811 63.1067 192.211 63.28C192.625 63.44 193.258 63.5933 194.111 63.74C194.965 63.8733 195.665 64.0267 196.211 64.2C196.758 64.3733 197.225 64.6667 197.611 65.08C198.011 65.4933 198.211 66.08 198.211 66.84C198.211 67.84 197.778 68.64 196.911 69.24C196.045 69.84 194.865 70.14 193.371 70.14ZM210.792 70.14C209.685 70.14 208.692 69.9067 207.812 69.44C206.932 68.9733 206.245 68.3267 205.752 67.5C205.258 66.66 205.012 65.7133 205.012 64.66C205.012 63.6067 205.258 62.6667 205.752 61.84C206.245 61.0133 206.925 60.3667 207.792 59.9C208.672 59.4333 209.672 59.2 210.792 59.2C211.845 59.2 212.765 59.4133 213.552 59.84C214.352 60.2667 214.952 60.88 215.352 61.68L213.432 62.8C213.125 62.3067 212.738 61.94 212.272 61.7C211.818 61.4467 211.318 61.32 210.772 61.32C209.838 61.32 209.065 61.6267 208.452 62.24C207.838 62.84 207.532 63.6467 207.532 64.66C207.532 65.6733 207.832 66.4867 208.432 67.1C209.045 67.7 209.825 68 210.772 68C211.318 68 211.818 67.88 212.272 67.64C212.738 67.3867 213.125 67.0133 213.432 66.52L215.352 67.64C214.938 68.44 214.332 69.06 213.532 69.5C212.745 69.9267 211.832 70.14 210.792 70.14ZM222.157 70.14C221.077 70.14 220.103 69.9067 219.237 69.44C218.37 68.9733 217.69 68.3267 217.197 67.5C216.717 66.66 216.477 65.7133 216.477 64.66C216.477 63.6067 216.717 62.6667 217.197 61.84C217.69 61.0133 218.37 60.3667 219.237 59.9C220.103 59.4333 221.077 59.2 222.157 59.2C223.25 59.2 224.23 59.4333 225.097 59.9C225.963 60.3667 226.637 61.0133 227.117 61.84C227.61 62.6667 227.857 63.6067 227.857 64.66C227.857 65.7133 227.61 66.66 227.117 67.5C226.637 68.3267 225.963 68.9733 225.097 69.44C224.23 69.9067 223.25 70.14 222.157 70.14ZM222.157 68C223.077 68 223.837 67.6933 224.437 67.08C225.037 66.4667 225.337 65.66 225.337 64.66C225.337 63.66 225.037 62.8533 224.437 62.24C223.837 61.6267 223.077 61.32 222.157 61.32C221.237 61.32 220.477 61.6267 219.877 62.24C219.29 62.8533 218.997 63.66 218.997 64.66C218.997 65.66 219.29 66.4667 219.877 67.08C220.477 67.6933 221.237 68 222.157 68ZM243.727 59.2C245.074 59.2 246.141 59.5933 246.927 60.38C247.714 61.1533 248.107 62.32 248.107 63.88V70H245.607V64.2C245.607 63.2667 245.401 62.5667 244.987 62.1C244.574 61.62 243.981 61.38 243.207 61.38C242.367 61.38 241.694 61.66 241.187 62.22C240.681 62.7667 240.427 63.5533 240.427 64.58V70H237.927V64.2C237.927 63.2667 237.721 62.5667 237.307 62.1C236.894 61.62 236.301 61.38 235.527 61.38C234.674 61.38 233.994 61.6533 233.487 62.2C232.994 62.7467 232.747 63.54 232.747 64.58V70H230.247V59.32H232.627V60.68C233.027 60.2 233.527 59.8333 234.127 59.58C234.727 59.3267 235.394 59.2 236.127 59.2C236.927 59.2 237.634 59.3533 238.247 59.66C238.874 59.9533 239.367 60.3933 239.727 60.98C240.167 60.42 240.734 59.9867 241.427 59.68C242.121 59.36 242.887 59.2 243.727 59.2ZM99.3986 79.16V94H96.9986V92.62C96.5853 93.1267 96.0719 93.5067 95.4586 93.76C94.8586 94.0133 94.1919 94.14 93.4586 94.14C92.4319 94.14 91.5053 93.9133 90.6786 93.46C89.8653 93.0067 89.2253 92.3667 88.7586 91.54C88.2919 90.7 88.0586 89.74 88.0586 88.66C88.0586 87.58 88.2919 86.6267 88.7586 85.8C89.2253 84.9733 89.8653 84.3333 90.6786 83.88C91.5053 83.4267 92.4319 83.2 93.4586 83.2C94.1653 83.2 94.8119 83.32 95.3986 83.56C95.9853 83.8 96.4853 84.16 96.8986 84.64V79.16H99.3986ZM93.7586 92C94.3586 92 94.8986 91.8667 95.3786 91.6C95.8586 91.32 96.2386 90.9267 96.5186 90.42C96.7986 89.9133 96.9386 89.3267 96.9386 88.66C96.9386 87.9933 96.7986 87.4067 96.5186 86.9C96.2386 86.3933 95.8586 86.0067 95.3786 85.74C94.8986 85.46 94.3586 85.32 93.7586 85.32C93.1586 85.32 92.6186 85.46 92.1386 85.74C91.6586 86.0067 91.2786 86.3933 90.9986 86.9C90.7186 87.4067 90.5786 87.9933 90.5786 88.66C90.5786 89.3267 90.7186 89.9133 90.9986 90.42C91.2786 90.9267 91.6586 91.32 92.1386 91.6C92.6186 91.8667 93.1586 92 93.7586 92ZM112.709 88.72C112.709 88.8933 112.696 89.14 112.669 89.46H104.289C104.436 90.2467 104.816 90.8733 105.429 91.34C106.056 91.7933 106.829 92.02 107.749 92.02C108.922 92.02 109.889 91.6333 110.649 90.86L111.989 92.4C111.509 92.9733 110.902 93.4067 110.169 93.7C109.436 93.9933 108.609 94.14 107.689 94.14C106.516 94.14 105.482 93.9067 104.589 93.44C103.696 92.9733 103.002 92.3267 102.509 91.5C102.029 90.66 101.789 89.7133 101.789 88.66C101.789 87.62 102.022 86.6867 102.489 85.86C102.969 85.02 103.629 84.3667 104.469 83.9C105.309 83.4333 106.256 83.2 107.309 83.2C108.349 83.2 109.276 83.4333 110.089 83.9C110.916 84.3533 111.556 85 112.009 85.84C112.476 86.6667 112.709 87.6267 112.709 88.72ZM107.309 85.2C106.509 85.2 105.829 85.44 105.269 85.92C104.722 86.3867 104.389 87.0133 104.269 87.8H110.329C110.222 87.0267 109.896 86.4 109.349 85.92C108.802 85.44 108.122 85.2 107.309 85.2ZM121.03 83.2C122.07 83.2 122.997 83.4267 123.81 83.88C124.637 84.3333 125.284 84.9733 125.75 85.8C126.217 86.6267 126.45 87.58 126.45 88.66C126.45 89.74 126.217 90.7 125.75 91.54C125.284 92.3667 124.637 93.0067 123.81 93.46C122.997 93.9133 122.07 94.14 121.03 94.14C119.59 94.14 118.45 93.66 117.61 92.7V97.88H115.11V83.32H117.49V84.72C117.904 84.2133 118.41 83.8333 119.01 83.58C119.624 83.3267 120.297 83.2 121.03 83.2ZM120.75 92C121.67 92 122.424 91.6933 123.01 91.08C123.61 90.4667 123.91 89.66 123.91 88.66C123.91 87.66 123.61 86.8533 123.01 86.24C122.424 85.6267 121.67 85.32 120.75 85.32C120.15 85.32 119.61 85.46 119.13 85.74C118.65 86.0067 118.27 86.3933 117.99 86.9C117.71 87.4067 117.57 87.9933 117.57 88.66C117.57 89.3267 117.71 89.9133 117.99 90.42C118.27 90.9267 118.65 91.32 119.13 91.6C119.61 91.8667 120.15 92 120.75 92ZM131.201 84.88C131.921 83.76 133.188 83.2 135.001 83.2V85.58C134.788 85.54 134.595 85.52 134.421 85.52C133.448 85.52 132.688 85.8067 132.141 86.38C131.595 86.94 131.321 87.7533 131.321 88.82V94H128.821V83.32H131.201V84.88ZM147.065 88.72C147.065 88.8933 147.051 89.14 147.025 89.46H138.645C138.791 90.2467 139.171 90.8733 139.785 91.34C140.411 91.7933 141.185 92.02 142.105 92.02C143.278 92.02 144.245 91.6333 145.005 90.86L146.345 92.4C145.865 92.9733 145.258 93.4067 144.525 93.7C143.791 93.9933 142.965 94.14 142.045 94.14C140.871 94.14 139.838 93.9067 138.945 93.44C138.051 92.9733 137.358 92.3267 136.865 91.5C136.385 90.66 136.145 89.7133 136.145 88.66C136.145 87.62 136.378 86.6867 136.845 85.86C137.325 85.02 137.985 84.3667 138.825 83.9C139.665 83.4333 140.611 83.2 141.665 83.2C142.705 83.2 143.631 83.4333 144.445 83.9C145.271 84.3533 145.911 85 146.365 85.84C146.831 86.6667 147.065 87.6267 147.065 88.72ZM141.665 85.2C140.865 85.2 140.185 85.44 139.625 85.92C139.078 86.3867 138.745 87.0133 138.625 87.8H144.685C144.578 87.0267 144.251 86.4 143.705 85.92C143.158 85.44 142.478 85.2 141.665 85.2ZM152.766 94.14C151.899 94.14 151.053 94.0267 150.226 93.8C149.399 93.5733 148.739 93.2867 148.246 92.94L149.206 91.04C149.686 91.36 150.259 91.62 150.926 91.82C151.606 92.0067 152.273 92.1 152.926 92.1C154.419 92.1 155.166 91.7067 155.166 90.92C155.166 90.5467 154.973 90.2867 154.586 90.14C154.213 89.9933 153.606 89.8533 152.766 89.72C151.886 89.5867 151.166 89.4333 150.606 89.26C150.059 89.0867 149.579 88.7867 149.166 88.36C148.766 87.92 148.566 87.3133 148.566 86.54C148.566 85.5267 148.986 84.72 149.826 84.12C150.679 83.5067 151.826 83.2 153.266 83.2C153.999 83.2 154.733 83.2867 155.466 83.46C156.199 83.62 156.799 83.84 157.266 84.12L156.306 86.02C155.399 85.4867 154.379 85.22 153.246 85.22C152.513 85.22 151.953 85.3333 151.566 85.56C151.193 85.7733 151.006 86.06 151.006 86.42C151.006 86.82 151.206 87.1067 151.606 87.28C152.019 87.44 152.653 87.5933 153.506 87.74C154.359 87.8733 155.059 88.0267 155.606 88.2C156.153 88.3733 156.619 88.6667 157.006 89.08C157.406 89.4933 157.606 90.08 157.606 90.84C157.606 91.84 157.173 92.64 156.306 93.24C155.439 93.84 154.259 94.14 152.766 94.14ZM163.059 94.14C162.192 94.14 161.346 94.0267 160.519 93.8C159.692 93.5733 159.032 93.2867 158.539 92.94L159.499 91.04C159.979 91.36 160.552 91.62 161.219 91.82C161.899 92.0067 162.566 92.1 163.219 92.1C164.712 92.1 165.459 91.7067 165.459 90.92C165.459 90.5467 165.266 90.2867 164.879 90.14C164.506 89.9933 163.899 89.8533 163.059 89.72C162.179 89.5867 161.459 89.4333 160.899 89.26C160.352 89.0867 159.872 88.7867 159.459 88.36C159.059 87.92 158.859 87.3133 158.859 86.54C158.859 85.5267 159.279 84.72 160.119 84.12C160.972 83.5067 162.119 83.2 163.559 83.2C164.292 83.2 165.026 83.2867 165.759 83.46C166.492 83.62 167.092 83.84 167.559 84.12L166.599 86.02C165.692 85.4867 164.672 85.22 163.539 85.22C162.806 85.22 162.246 85.3333 161.859 85.56C161.486 85.7733 161.299 86.06 161.299 86.42C161.299 86.82 161.499 87.1067 161.899 87.28C162.312 87.44 162.946 87.5933 163.799 87.74C164.652 87.8733 165.352 88.0267 165.899 88.2C166.446 88.3733 166.912 88.6667 167.299 89.08C167.699 89.4933 167.899 90.08 167.899 90.84C167.899 91.84 167.466 92.64 166.599 93.24C165.732 93.84 164.552 94.14 163.059 94.14ZM174.132 83.2C175.705 83.2 176.905 83.58 177.732 84.34C178.572 85.0867 178.992 86.22 178.992 87.74V94H176.632V92.7C176.325 93.1667 175.885 93.5267 175.312 93.78C174.752 94.02 174.072 94.14 173.272 94.14C172.472 94.14 171.772 94.0067 171.172 93.74C170.572 93.46 170.105 93.08 169.772 92.6C169.452 92.1067 169.292 91.5533 169.292 90.94C169.292 89.98 169.645 89.2133 170.352 88.64C171.072 88.0533 172.199 87.76 173.732 87.76H176.492V87.6C176.492 86.8533 176.265 86.28 175.812 85.88C175.372 85.48 174.712 85.28 173.832 85.28C173.232 85.28 172.639 85.3733 172.052 85.56C171.479 85.7467 170.992 86.0067 170.592 86.34L169.612 84.52C170.172 84.0933 170.845 83.7667 171.632 83.54C172.419 83.3133 173.252 83.2 174.132 83.2ZM173.792 92.32C174.419 92.32 174.972 92.18 175.452 91.9C175.945 91.6067 176.292 91.1933 176.492 90.66V89.42H173.912C172.472 89.42 171.752 89.8933 171.752 90.84C171.752 91.2933 171.932 91.6533 172.292 91.92C172.652 92.1867 173.152 92.32 173.792 92.32ZM175.792 81.86C175.459 81.86 175.165 81.7933 174.912 81.66C174.672 81.5267 174.372 81.3267 174.012 81.06C173.799 80.8867 173.619 80.76 173.472 80.68C173.339 80.5867 173.205 80.54 173.072 80.54C172.792 80.54 172.559 80.6467 172.372 80.86C172.199 81.0733 172.105 81.3667 172.092 81.74H170.752C170.765 80.9267 170.965 80.28 171.352 79.8C171.752 79.3067 172.272 79.06 172.912 79.06C173.245 79.06 173.532 79.1267 173.772 79.26C174.025 79.3933 174.332 79.5933 174.692 79.86C174.905 80.0333 175.079 80.1667 175.212 80.26C175.359 80.34 175.499 80.38 175.632 80.38C175.912 80.38 176.139 80.28 176.312 80.08C176.499 79.88 176.599 79.6 176.612 79.24H177.952C177.925 80.0267 177.719 80.66 177.332 81.14C176.945 81.62 176.432 81.86 175.792 81.86ZM187.098 94.14C186.018 94.14 185.045 93.9067 184.178 93.44C183.311 92.9733 182.631 92.3267 182.138 91.5C181.658 90.66 181.418 89.7133 181.418 88.66C181.418 87.6067 181.658 86.6667 182.138 85.84C182.631 85.0133 183.311 84.3667 184.178 83.9C185.045 83.4333 186.018 83.2 187.098 83.2C188.191 83.2 189.171 83.4333 190.038 83.9C190.905 84.3667 191.578 85.0133 192.058 85.84C192.551 86.6667 192.798 87.6067 192.798 88.66C192.798 89.7133 192.551 90.66 192.058 91.5C191.578 92.3267 190.905 92.9733 190.038 93.44C189.171 93.9067 188.191 94.14 187.098 94.14ZM187.098 92C188.018 92 188.778 91.6933 189.378 91.08C189.978 90.4667 190.278 89.66 190.278 88.66C190.278 87.66 189.978 86.8533 189.378 86.24C188.778 85.6267 188.018 85.32 187.098 85.32C186.178 85.32 185.418 85.6267 184.818 86.24C184.231 86.8533 183.938 87.66 183.938 88.66C183.938 89.66 184.231 90.4667 184.818 91.08C185.418 91.6933 186.178 92 187.098 92Z" fill="white"/>
<defs>
<filter id="filter0_d" x="0.369629" y="0.0200043" width="278.423" height="108.86" filterUnits="userSpaceOnUse" color-interpolation-filters="sRGB">
<feFlood flood-opacity="0" result="BackgroundImageFix"/>
<feColorMatrix in="SourceAlpha" type="matrix" values="0 0 0 0 0 0 0 0 0 0 0 0 0 0 0 0 0 0 127 0"/>
<feOffset dy="1"/>
<feGaussianBlur stdDeviation="4.5"/>
<feColorMatrix type="matrix" values="0 0 0 0 0 0 0 0 0 0 0 0 0 0 0 0 0 0 0.45 0"/>
<feBlend mode="normal" in2="BackgroundImageFix" result="effect1_dropShadow"/>
<feBlend mode="normal" in="SourceGraphic" in2="effect1_dropShadow" result="shape"/>
</filter>
</defs>
</svg>
