<svg width="336" height="227" viewBox="0 0 336 227" fill="none" xmlns="http://www.w3.org/2000/svg">
<g filter="url(#filter0_d)">
<path d="M105.89 76.76H98.8897L97.5097 80H94.8297L101.13 66H103.69L110.01 80H107.29L105.89 76.76ZM105.03 74.72L102.39 68.6L99.7697 74.72H105.03ZM122.998 69.2C124.038 69.2 124.964 69.4267 125.778 69.88C126.604 70.3333 127.251 70.9733 127.718 71.8C128.184 72.6267 128.418 73.58 128.418 74.66C128.418 75.74 128.184 76.7 127.718 77.54C127.251 78.3667 126.604 79.0067 125.778 79.46C124.964 79.9133 124.038 80.14 122.998 80.14C121.558 80.14 120.418 79.66 119.578 78.7V83.88H117.078V69.32H119.458V70.72C119.871 70.2133 120.378 69.8333 120.978 69.58C121.591 69.3267 122.264 69.2 122.998 69.2ZM122.718 78C123.638 78 124.391 77.6933 124.978 77.08C125.578 76.4667 125.878 75.66 125.878 74.66C125.878 73.66 125.578 72.8533 124.978 72.24C124.391 71.6267 123.638 71.32 122.718 71.32C122.118 71.32 121.578 71.46 121.098 71.74C120.618 72.0067 120.238 72.3933 119.958 72.9C119.678 73.4067 119.538 73.9933 119.538 74.66C119.538 75.3267 119.678 75.9133 119.958 76.42C120.238 76.9267 120.618 77.32 121.098 77.6C121.578 77.8667 122.118 78 122.718 78ZM130.788 65.16H133.288V80H130.788V65.16ZM140.65 69.2C142.223 69.2 143.423 69.58 144.25 70.34C145.09 71.0867 145.51 72.22 145.51 73.74V80H143.15V78.7C142.843 79.1667 142.403 79.5267 141.83 79.78C141.27 80.02 140.59 80.14 139.79 80.14C138.99 80.14 138.29 80.0067 137.69 79.74C137.09 79.46 136.623 79.08 136.29 78.6C135.97 78.1067 135.81 77.5533 135.81 76.94C135.81 75.98 136.163 75.2133 136.87 74.64C137.59 74.0533 138.716 73.76 140.25 73.76H143.01V73.6C143.01 72.8533 142.783 72.28 142.33 71.88C141.89 71.48 141.23 71.28 140.35 71.28C139.75 71.28 139.156 71.3733 138.57 71.56C137.996 71.7467 137.51 72.0067 137.11 72.34L136.13 70.52C136.69 70.0933 137.363 69.7667 138.15 69.54C138.936 69.3133 139.77 69.2 140.65 69.2ZM140.31 78.32C140.936 78.32 141.49 78.18 141.97 77.9C142.463 77.6067 142.81 77.1933 143.01 76.66V75.42H140.43C138.99 75.42 138.27 75.8933 138.27 76.84C138.27 77.2933 138.45 77.6533 138.81 77.92C139.17 78.1867 139.67 78.32 140.31 78.32ZM155.138 79.42C154.845 79.66 154.485 79.84 154.058 79.96C153.645 80.08 153.205 80.14 152.738 80.14C151.565 80.14 150.658 79.8333 150.018 79.22C149.378 78.6067 149.058 77.7133 149.058 76.54V71.4H147.298V69.4H149.058V66.96H151.558V69.4H154.418V71.4H151.558V76.48C151.558 77 151.685 77.4 151.938 77.68C152.191 77.9467 152.558 78.08 153.038 78.08C153.598 78.08 154.065 77.9333 154.438 77.64L155.138 79.42ZM161.535 67.04C160.481 67.04 159.955 67.6133 159.955 68.76V69.4H162.895V71.4H160.035V80H157.535V71.4H155.775V69.4H157.535V68.72C157.535 67.5733 157.868 66.6733 158.535 66.02C159.201 65.3533 160.141 65.02 161.355 65.02C162.315 65.02 163.068 65.2133 163.615 65.6L162.915 67.48C162.488 67.1867 162.028 67.04 161.535 67.04ZM169.221 80.14C168.141 80.14 167.168 79.9067 166.301 79.44C165.435 78.9733 164.755 78.3267 164.261 77.5C163.781 76.66 163.541 75.7133 163.541 74.66C163.541 73.6067 163.781 72.6667 164.261 71.84C164.755 71.0133 165.435 70.3667 166.301 69.9C167.168 69.4333 168.141 69.2 169.221 69.2C170.315 69.2 171.295 69.4333 172.161 69.9C173.028 70.3667 173.701 71.0133 174.181 71.84C174.675 72.6667 174.921 73.6067 174.921 74.66C174.921 75.7133 174.675 76.66 174.181 77.5C173.701 78.3267 173.028 78.9733 172.161 79.44C171.295 79.9067 170.315 80.14 169.221 80.14ZM169.221 78C170.141 78 170.901 77.6933 171.501 77.08C172.101 76.4667 172.401 75.66 172.401 74.66C172.401 73.66 172.101 72.8533 171.501 72.24C170.901 71.6267 170.141 71.32 169.221 71.32C168.301 71.32 167.541 71.6267 166.941 72.24C166.355 72.8533 166.061 73.66 166.061 74.66C166.061 75.66 166.355 76.4667 166.941 77.08C167.541 77.6933 168.301 78 169.221 78ZM179.692 70.88C180.412 69.76 181.679 69.2 183.492 69.2V71.58C183.279 71.54 183.085 71.52 182.912 71.52C181.939 71.52 181.179 71.8067 180.632 72.38C180.085 72.94 179.812 73.7533 179.812 74.82V80H177.312V69.32H179.692V70.88ZM199.093 69.2C200.439 69.2 201.506 69.5933 202.293 70.38C203.079 71.1533 203.473 72.32 203.473 73.88V80H200.973V74.2C200.973 73.2667 200.766 72.5667 200.353 72.1C199.939 71.62 199.346 71.38 198.573 71.38C197.733 71.38 197.059 71.66 196.553 72.22C196.046 72.7667 195.793 73.5533 195.793 74.58V80H193.293V74.2C193.293 73.2667 193.086 72.5667 192.673 72.1C192.259 71.62 191.666 71.38 190.893 71.38C190.039 71.38 189.359 71.6533 188.853 72.2C188.359 72.7467 188.113 73.54 188.113 74.58V80H185.613V69.32H187.993V70.68C188.393 70.2 188.893 69.8333 189.493 69.58C190.093 69.3267 190.759 69.2 191.493 69.2C192.293 69.2 192.999 69.3533 193.613 69.66C194.239 69.9533 194.733 70.3933 195.093 70.98C195.533 70.42 196.099 69.9867 196.793 69.68C197.486 69.36 198.253 69.2 199.093 69.2ZM216.535 67.04C215.481 67.04 214.955 67.6133 214.955 68.76V69.4H217.895V71.4H215.035V80H212.535V71.4H210.775V69.4H212.535V68.72C212.535 67.5733 212.868 66.6733 213.535 66.02C214.201 65.3533 215.141 65.02 216.355 65.02C217.315 65.02 218.068 65.2133 218.615 65.6L217.915 67.48C217.488 67.1867 217.028 67.04 216.535 67.04ZM224.221 80.14C223.141 80.14 222.168 79.9067 221.301 79.44C220.435 78.9733 219.755 78.3267 219.261 77.5C218.781 76.66 218.541 75.7133 218.541 74.66C218.541 73.6067 218.781 72.6667 219.261 71.84C219.755 71.0133 220.435 70.3667 221.301 69.9C222.168 69.4333 223.141 69.2 224.221 69.2C225.315 69.2 226.295 69.4333 227.161 69.9C228.028 70.3667 228.701 71.0133 229.181 71.84C229.675 72.6667 229.921 73.6067 229.921 74.66C229.921 75.7133 229.675 76.66 229.181 77.5C228.701 78.3267 228.028 78.9733 227.161 79.44C226.295 79.9067 225.315 80.14 224.221 80.14ZM224.221 78C225.141 78 225.901 77.6933 226.501 77.08C227.101 76.4667 227.401 75.66 227.401 74.66C227.401 73.66 227.101 72.8533 226.501 72.24C225.901 71.6267 225.141 71.32 224.221 71.32C223.301 71.32 222.541 71.6267 221.941 72.24C221.355 72.8533 221.061 73.66 221.061 74.66C221.061 75.66 221.355 76.4667 221.941 77.08C222.541 77.6933 223.301 78 224.221 78ZM234.692 70.88C235.412 69.76 236.679 69.2 238.492 69.2V71.58C238.279 71.54 238.085 71.52 237.912 71.52C236.939 71.52 236.179 71.8067 235.632 72.38C235.085 72.94 234.812 73.7533 234.812 74.82V80H232.312V69.32H234.692V70.88ZM72.8662 104.14C71.7595 104.14 70.7662 103.907 69.8862 103.44C69.0062 102.973 68.3195 102.327 67.8262 101.5C67.3328 100.66 67.0862 99.7133 67.0862 98.66C67.0862 97.6067 67.3328 96.6667 67.8262 95.84C68.3195 95.0133 68.9995 94.3667 69.8662 93.9C70.7462 93.4333 71.7462 93.2 72.8662 93.2C73.9195 93.2 74.8395 93.4133 75.6262 93.84C76.4262 94.2667 77.0262 94.88 77.4262 95.68L75.5062 96.8C75.1995 96.3067 74.8128 95.94 74.3462 95.7C73.8928 95.4467 73.3928 95.32 72.8462 95.32C71.9128 95.32 71.1395 95.6267 70.5262 96.24C69.9128 96.84 69.6062 97.6467 69.6062 98.66C69.6062 99.6733 69.9062 100.487 70.5062 101.1C71.1195 101.7 71.8995 102 72.8462 102C73.3928 102 73.8928 101.88 74.3462 101.64C74.8128 101.387 75.1995 101.013 75.5062 100.52L77.4262 101.64C77.0128 102.44 76.4062 103.06 75.6062 103.5C74.8195 103.927 73.9062 104.14 72.8662 104.14ZM84.231 104.14C83.151 104.14 82.1777 103.907 81.311 103.44C80.4443 102.973 79.7643 102.327 79.271 101.5C78.791 100.66 78.551 99.7133 78.551 98.66C78.551 97.6067 78.791 96.6667 79.271 95.84C79.7643 95.0133 80.4443 94.3667 81.311 93.9C82.1777 93.4333 83.151 93.2 84.231 93.2C85.3243 93.2 86.3043 93.4333 87.171 93.9C88.0377 94.3667 88.711 95.0133 89.191 95.84C89.6844 96.6667 89.931 97.6067 89.931 98.66C89.931 99.7133 89.6844 100.66 89.191 101.5C88.711 102.327 88.0377 102.973 87.171 103.44C86.3043 103.907 85.3243 104.14 84.231 104.14ZM84.231 102C85.151 102 85.911 101.693 86.511 101.08C87.111 100.467 87.411 99.66 87.411 98.66C87.411 97.66 87.111 96.8533 86.511 96.24C85.911 95.6267 85.151 95.32 84.231 95.32C83.311 95.32 82.551 95.6267 81.951 96.24C81.3643 96.8533 81.071 97.66 81.071 98.66C81.071 99.66 81.3643 100.467 81.951 101.08C82.551 101.693 83.311 102 84.231 102ZM105.802 93.2C107.148 93.2 108.215 93.5933 109.002 94.38C109.788 95.1533 110.182 96.32 110.182 97.88V104H107.682V98.2C107.682 97.2667 107.475 96.5667 107.062 96.1C106.648 95.62 106.055 95.38 105.282 95.38C104.442 95.38 103.768 95.66 103.262 96.22C102.755 96.7667 102.502 97.5533 102.502 98.58V104H100.002V98.2C100.002 97.2667 99.795 96.5667 99.3816 96.1C98.9683 95.62 98.375 95.38 97.6016 95.38C96.7483 95.38 96.0683 95.6533 95.5616 96.2C95.0683 96.7467 94.8216 97.54 94.8216 98.58V104H92.3216V93.32H94.7016V94.68C95.1016 94.2 95.6016 93.8333 96.2016 93.58C96.8016 93.3267 97.4683 93.2 98.2016 93.2C99.0016 93.2 99.7083 93.3533 100.322 93.66C100.948 93.9533 101.442 94.3933 101.802 94.98C102.242 94.42 102.808 93.9867 103.502 93.68C104.195 93.36 104.962 93.2 105.802 93.2ZM126.856 93.2C128.203 93.2 129.27 93.5933 130.056 94.38C130.843 95.1533 131.236 96.32 131.236 97.88V104H128.736V98.2C128.736 97.2667 128.53 96.5667 128.116 96.1C127.703 95.62 127.11 95.38 126.336 95.38C125.496 95.38 124.823 95.66 124.316 96.22C123.81 96.7667 123.556 97.5533 123.556 98.58V104H121.056V98.2C121.056 97.2667 120.85 96.5667 120.436 96.1C120.023 95.62 119.43 95.38 118.656 95.38C117.803 95.38 117.123 95.6533 116.616 96.2C116.123 96.7467 115.876 97.54 115.876 98.58V104H113.376V93.32H115.756V94.68C116.156 94.2 116.656 93.8333 117.256 93.58C117.856 93.3267 118.523 93.2 119.256 93.2C120.056 93.2 120.763 93.3533 121.376 93.66C122.003 93.9533 122.496 94.3933 122.856 94.98C123.296 94.42 123.863 93.9867 124.556 93.68C125.25 93.36 126.016 93.2 126.856 93.2ZM144.771 93.32V104H142.391V102.64C141.991 103.12 141.491 103.493 140.891 103.76C140.291 104.013 139.644 104.14 138.951 104.14C137.524 104.14 136.398 103.747 135.571 102.96C134.758 102.16 134.351 100.98 134.351 99.42V93.32H136.851V99.08C136.851 100.04 137.064 100.76 137.491 101.24C137.931 101.707 138.551 101.94 139.351 101.94C140.244 101.94 140.951 101.667 141.471 101.12C142.004 100.56 142.271 99.76 142.271 98.72V93.32H144.771ZM154.104 93.2C155.451 93.2 156.531 93.5933 157.344 94.38C158.158 95.1667 158.564 96.3333 158.564 97.88V104H156.064V98.2C156.064 97.2667 155.844 96.5667 155.404 96.1C154.964 95.62 154.338 95.38 153.524 95.38C152.604 95.38 151.878 95.66 151.344 96.22C150.811 96.7667 150.544 97.56 150.544 98.6V104H148.044V93.32H150.424V94.7C150.838 94.2067 151.358 93.8333 151.984 93.58C152.611 93.3267 153.318 93.2 154.104 93.2ZM161.736 93.32H164.236V104H161.736V93.32ZM162.996 91.56C162.542 91.56 162.162 91.42 161.856 91.14C161.549 90.8467 161.396 90.4867 161.396 90.06C161.396 89.6333 161.549 89.28 161.856 89C162.162 88.7067 162.542 88.56 162.996 88.56C163.449 88.56 163.829 88.7 164.136 88.98C164.442 89.2467 164.596 89.5867 164.596 90C164.596 90.44 164.442 90.8133 164.136 91.12C163.842 91.4133 163.462 91.56 162.996 91.56ZM172.417 104.14C171.31 104.14 170.317 103.907 169.437 103.44C168.557 102.973 167.87 102.327 167.377 101.5C166.884 100.66 166.637 99.7133 166.637 98.66C166.637 97.6067 166.884 96.6667 167.377 95.84C167.87 95.0133 168.55 94.3667 169.417 93.9C170.297 93.4333 171.297 93.2 172.417 93.2C173.47 93.2 174.39 93.4133 175.177 93.84C175.977 94.2667 176.577 94.88 176.977 95.68L175.057 96.8C174.75 96.3067 174.364 95.94 173.897 95.7C173.444 95.4467 172.944 95.32 172.397 95.32C171.464 95.32 170.69 95.6267 170.077 96.24C169.464 96.84 169.157 97.6467 169.157 98.66C169.157 99.6733 169.457 100.487 170.057 101.1C170.67 101.7 171.45 102 172.397 102C172.944 102 173.444 101.88 173.897 101.64C174.364 101.387 174.75 101.013 175.057 100.52L176.977 101.64C176.564 102.44 175.957 103.06 175.157 103.5C174.37 103.927 173.457 104.14 172.417 104.14ZM183.218 93.2C184.791 93.2 185.991 93.58 186.818 94.34C187.658 95.0867 188.078 96.22 188.078 97.74V104H185.718V102.7C185.411 103.167 184.971 103.527 184.398 103.78C183.838 104.02 183.158 104.14 182.358 104.14C181.558 104.14 180.858 104.007 180.258 103.74C179.658 103.46 179.191 103.08 178.858 102.6C178.538 102.107 178.378 101.553 178.378 100.94C178.378 99.98 178.731 99.2133 179.438 98.64C180.158 98.0533 181.285 97.76 182.818 97.76H185.578V97.6C185.578 96.8533 185.351 96.28 184.898 95.88C184.458 95.48 183.798 95.28 182.918 95.28C182.318 95.28 181.725 95.3733 181.138 95.56C180.565 95.7467 180.078 96.0067 179.678 96.34L178.698 94.52C179.258 94.0933 179.931 93.7667 180.718 93.54C181.505 93.3133 182.338 93.2 183.218 93.2ZM182.878 102.32C183.505 102.32 184.058 102.18 184.538 101.9C185.031 101.607 185.378 101.193 185.578 100.66V99.42H182.998C181.558 99.42 180.838 99.8933 180.838 100.84C180.838 101.293 181.018 101.653 181.378 101.92C181.738 102.187 182.238 102.32 182.878 102.32ZM197.706 103.42C197.413 103.66 197.053 103.84 196.626 103.96C196.213 104.08 195.773 104.14 195.306 104.14C194.133 104.14 193.226 103.833 192.586 103.22C191.946 102.607 191.626 101.713 191.626 100.54V95.4H189.866V93.4H191.626V90.96H194.126V93.4H196.986V95.4H194.126V100.48C194.126 101 194.253 101.4 194.506 101.68C194.76 101.947 195.126 102.08 195.606 102.08C196.166 102.08 196.633 101.933 197.006 101.64L197.706 103.42ZM199.763 93.32H202.263V104H199.763V93.32ZM201.023 91.56C200.57 91.56 200.19 91.42 199.883 91.14C199.576 90.8467 199.423 90.4867 199.423 90.06C199.423 89.6333 199.576 89.28 199.883 89C200.19 88.7067 200.57 88.56 201.023 88.56C201.476 88.56 201.856 88.7 202.163 88.98C202.47 89.2467 202.623 89.5867 202.623 90C202.623 90.44 202.47 90.8133 202.163 91.12C201.87 91.4133 201.49 91.56 201.023 91.56ZM210.344 104.14C209.264 104.14 208.291 103.907 207.424 103.44C206.558 102.973 205.878 102.327 205.384 101.5C204.904 100.66 204.664 99.7133 204.664 98.66C204.664 97.6067 204.904 96.6667 205.384 95.84C205.878 95.0133 206.558 94.3667 207.424 93.9C208.291 93.4333 209.264 93.2 210.344 93.2C211.438 93.2 212.418 93.4333 213.284 93.9C214.151 94.3667 214.824 95.0133 215.304 95.84C215.798 96.6667 216.044 97.6067 216.044 98.66C216.044 99.7133 215.798 100.66 215.304 101.5C214.824 102.327 214.151 102.973 213.284 103.44C212.418 103.907 211.438 104.14 210.344 104.14ZM210.344 102C211.264 102 212.024 101.693 212.624 101.08C213.224 100.467 213.524 99.66 213.524 98.66C213.524 97.66 213.224 96.8533 212.624 96.24C212.024 95.6267 211.264 95.32 210.344 95.32C209.424 95.32 208.664 95.6267 208.064 96.24C207.478 96.8533 207.184 97.66 207.184 98.66C207.184 99.66 207.478 100.467 208.064 101.08C208.664 101.693 209.424 102 210.344 102ZM224.495 93.2C225.842 93.2 226.922 93.5933 227.735 94.38C228.548 95.1667 228.955 96.3333 228.955 97.88V104H226.455V98.2C226.455 97.2667 226.235 96.5667 225.795 96.1C225.355 95.62 224.728 95.38 223.915 95.38C222.995 95.38 222.268 95.66 221.735 96.22C221.202 96.7667 220.935 97.56 220.935 98.6V104H218.435V93.32H220.815V94.7C221.228 94.2067 221.748 93.8333 222.375 93.58C223.002 93.3267 223.708 93.2 224.495 93.2ZM241.734 93.2C243.307 93.2 244.507 93.58 245.334 94.34C246.174 95.0867 246.594 96.22 246.594 97.74V104H244.234V102.7C243.927 103.167 243.487 103.527 242.914 103.78C242.354 104.02 241.674 104.14 240.874 104.14C240.074 104.14 239.374 104.007 238.774 103.74C238.174 103.46 237.707 103.08 237.374 102.6C237.054 102.107 236.894 101.553 236.894 100.94C236.894 99.98 237.247 99.2133 237.954 98.64C238.674 98.0533 239.8 97.76 241.334 97.76H244.094V97.6C244.094 96.8533 243.867 96.28 243.414 95.88C242.974 95.48 242.314 95.28 241.434 95.28C240.834 95.28 240.24 95.3733 239.654 95.56C239.08 95.7467 238.594 96.0067 238.194 96.34L237.214 94.52C237.774 94.0933 238.447 93.7667 239.234 93.54C240.02 93.3133 240.854 93.2 241.734 93.2ZM241.394 102.32C242.02 102.32 242.574 102.18 243.054 101.9C243.547 101.607 243.894 101.193 244.094 100.66V99.42H241.514C240.074 99.42 239.354 99.8933 239.354 100.84C239.354 101.293 239.534 101.653 239.894 101.92C240.254 102.187 240.754 102.32 241.394 102.32ZM249.802 93.32H252.302V104H249.802V93.32ZM251.062 91.56C250.609 91.56 250.229 91.42 249.922 91.14C249.615 90.8467 249.462 90.4867 249.462 90.06C249.462 89.6333 249.615 89.28 249.922 89C250.229 88.7067 250.609 88.56 251.062 88.56C251.515 88.56 251.895 88.7 252.202 88.98C252.509 89.2467 252.662 89.5867 252.662 90C252.662 90.44 252.509 90.8133 252.202 91.12C251.909 91.4133 251.529 91.56 251.062 91.56ZM266.043 89.16V104H263.643V102.62C263.23 103.127 262.717 103.507 262.103 103.76C261.503 104.013 260.837 104.14 260.103 104.14C259.077 104.14 258.15 103.913 257.323 103.46C256.51 103.007 255.87 102.367 255.403 101.54C254.937 100.7 254.703 99.74 254.703 98.66C254.703 97.58 254.937 96.6267 255.403 95.8C255.87 94.9733 256.51 94.3333 257.323 93.88C258.15 93.4267 259.077 93.2 260.103 93.2C260.81 93.2 261.457 93.32 262.043 93.56C262.63 93.8 263.13 94.16 263.543 94.64V89.16H266.043ZM260.403 102C261.003 102 261.543 101.867 262.023 101.6C262.503 101.32 262.883 100.927 263.163 100.42C263.443 99.9133 263.583 99.3267 263.583 98.66C263.583 97.9933 263.443 97.4067 263.163 96.9C262.883 96.3933 262.503 96.0067 262.023 95.74C261.543 95.46 261.003 95.32 260.403 95.32C259.803 95.32 259.263 95.46 258.783 95.74C258.303 96.0067 257.923 96.3933 257.643 96.9C257.363 97.4067 257.223 97.9933 257.223 98.66C257.223 99.3267 257.363 99.9133 257.643 100.42C257.923 100.927 258.303 101.32 258.783 101.6C259.263 101.867 259.803 102 260.403 102ZM82.6588 128.14C81.5788 128.14 80.6054 127.907 79.7388 127.44C78.8721 126.973 78.1921 126.327 77.6988 125.5C77.2188 124.66 76.9788 123.713 76.9788 122.66C76.9788 121.607 77.2188 120.667 77.6988 119.84C78.1921 119.013 78.8721 118.367 79.7388 117.9C80.6054 117.433 81.5788 117.2 82.6588 117.2C83.7521 117.2 84.7321 117.433 85.5988 117.9C86.4654 118.367 87.1388 119.013 87.6188 119.84C88.1121 120.667 88.3588 121.607 88.3588 122.66C88.3588 123.713 88.1121 124.66 87.6188 125.5C87.1388 126.327 86.4654 126.973 85.5988 127.44C84.7321 127.907 83.7521 128.14 82.6588 128.14ZM82.6588 126C83.5788 126 84.3388 125.693 84.9388 125.08C85.5388 124.467 85.8388 123.66 85.8388 122.66C85.8388 121.66 85.5388 120.853 84.9388 120.24C84.3388 119.627 83.5788 119.32 82.6588 119.32C81.7388 119.32 80.9788 119.627 80.3788 120.24C79.7921 120.853 79.4988 121.66 79.4988 122.66C79.4988 123.66 79.7921 124.467 80.3788 125.08C80.9788 125.693 81.7388 126 82.6588 126ZM95.0894 115.04C94.036 115.04 93.5094 115.613 93.5094 116.76V117.4H96.4494V119.4H93.5894V128H91.0894V119.4H89.3294V117.4H91.0894V116.72C91.0894 115.573 91.4227 114.673 92.0894 114.02C92.756 113.353 93.696 113.02 94.9094 113.02C95.8694 113.02 96.6227 113.213 97.1694 113.6L96.4694 115.48C96.0427 115.187 95.5827 115.04 95.0894 115.04ZM110.08 127.42C109.786 127.66 109.426 127.84 109 127.96C108.586 128.08 108.146 128.14 107.68 128.14C106.506 128.14 105.6 127.833 104.96 127.22C104.32 126.607 104 125.713 104 124.54V119.4H102.24V117.4H104V114.96H106.5V117.4H109.36V119.4H106.5V124.48C106.5 125 106.626 125.4 106.88 125.68C107.133 125.947 107.5 126.08 107.98 126.08C108.54 126.08 109.006 125.933 109.38 125.64L110.08 127.42ZM121.825 122.72C121.825 122.893 121.811 123.14 121.785 123.46H113.405C113.551 124.247 113.931 124.873 114.545 125.34C115.171 125.793 115.945 126.02 116.865 126.02C118.038 126.02 119.005 125.633 119.765 124.86L121.105 126.4C120.625 126.973 120.018 127.407 119.285 127.7C118.551 127.993 117.725 128.14 116.805 128.14C115.631 128.14 114.598 127.907 113.705 127.44C112.811 126.973 112.118 126.327 111.625 125.5C111.145 124.66 110.905 123.713 110.905 122.66C110.905 121.62 111.138 120.687 111.605 119.86C112.085 119.02 112.745 118.367 113.585 117.9C114.425 117.433 115.371 117.2 116.425 117.2C117.465 117.2 118.391 117.433 119.205 117.9C120.031 118.353 120.671 119 121.125 119.84C121.591 120.667 121.825 121.627 121.825 122.72ZM116.425 119.2C115.625 119.2 114.945 119.44 114.385 119.92C113.838 120.387 113.505 121.013 113.385 121.8H119.445C119.338 121.027 119.011 120.4 118.465 119.92C117.918 119.44 117.238 119.2 116.425 119.2ZM134.266 122.72C134.266 122.893 134.253 123.14 134.226 123.46H125.846C125.993 124.247 126.373 124.873 126.986 125.34C127.613 125.793 128.386 126.02 129.306 126.02C130.479 126.02 131.446 125.633 132.206 124.86L133.546 126.4C133.066 126.973 132.459 127.407 131.726 127.7C130.993 127.993 130.166 128.14 129.246 128.14C128.073 128.14 127.039 127.907 126.146 127.44C125.253 126.973 124.559 126.327 124.066 125.5C123.586 124.66 123.346 123.713 123.346 122.66C123.346 121.62 123.579 120.687 124.046 119.86C124.526 119.02 125.186 118.367 126.026 117.9C126.866 117.433 127.813 117.2 128.866 117.2C129.906 117.2 130.833 117.433 131.646 117.9C132.473 118.353 133.113 119 133.566 119.84C134.033 120.667 134.266 121.627 134.266 122.72ZM128.866 119.2C128.066 119.2 127.386 119.44 126.826 119.92C126.279 120.387 125.946 121.013 125.826 121.8H131.886C131.779 121.027 131.453 120.4 130.906 119.92C130.359 119.44 129.679 119.2 128.866 119.2ZM142.727 117.2C144.074 117.2 145.154 117.593 145.967 118.38C146.781 119.167 147.187 120.333 147.187 121.88V128H144.687V122.2C144.687 121.267 144.467 120.567 144.027 120.1C143.587 119.62 142.961 119.38 142.147 119.38C141.227 119.38 140.501 119.66 139.967 120.22C139.434 120.767 139.167 121.56 139.167 122.6V128H136.667V117.32H139.047V118.7C139.461 118.207 139.981 117.833 140.607 117.58C141.234 117.327 141.941 117.2 142.727 117.2ZM154.439 117.2C156.012 117.2 157.212 117.58 158.039 118.34C158.879 119.087 159.299 120.22 159.299 121.74V128H156.939V126.7C156.632 127.167 156.192 127.527 155.619 127.78C155.059 128.02 154.379 128.14 153.579 128.14C152.779 128.14 152.079 128.007 151.479 127.74C150.879 127.46 150.412 127.08 150.079 126.6C149.759 126.107 149.599 125.553 149.599 124.94C149.599 123.98 149.952 123.213 150.659 122.64C151.379 122.053 152.505 121.76 154.039 121.76H156.799V121.6C156.799 120.853 156.572 120.28 156.119 119.88C155.679 119.48 155.019 119.28 154.139 119.28C153.539 119.28 152.945 119.373 152.359 119.56C151.785 119.747 151.299 120.007 150.899 120.34L149.919 118.52C150.479 118.093 151.152 117.767 151.939 117.54C152.725 117.313 153.559 117.2 154.439 117.2ZM154.099 126.32C154.725 126.32 155.279 126.18 155.759 125.9C156.252 125.607 156.599 125.193 156.799 124.66V123.42H154.219C152.779 123.42 152.059 123.893 152.059 124.84C152.059 125.293 152.239 125.653 152.599 125.92C152.959 126.187 153.459 126.32 154.099 126.32ZM173.205 117.32V126.38C173.205 130.14 171.285 132.02 167.445 132.02C166.418 132.02 165.445 131.887 164.525 131.62C163.605 131.367 162.845 130.993 162.245 130.5L163.365 128.62C163.832 129.007 164.418 129.313 165.125 129.54C165.845 129.78 166.572 129.9 167.305 129.9C168.478 129.9 169.338 129.633 169.885 129.1C170.432 128.567 170.705 127.753 170.705 126.66V126.1C170.278 126.567 169.758 126.92 169.145 127.16C168.532 127.4 167.858 127.52 167.125 127.52C166.112 127.52 165.192 127.307 164.365 126.88C163.552 126.44 162.905 125.827 162.425 125.04C161.958 124.253 161.725 123.353 161.725 122.34C161.725 121.327 161.958 120.433 162.425 119.66C162.905 118.873 163.552 118.267 164.365 117.84C165.192 117.413 166.112 117.2 167.125 117.2C167.898 117.2 168.598 117.327 169.225 117.58C169.865 117.833 170.398 118.22 170.825 118.74V117.32H173.205ZM167.505 125.4C168.452 125.4 169.225 125.12 169.825 124.56C170.438 123.987 170.745 123.247 170.745 122.34C170.745 121.447 170.438 120.72 169.825 120.16C169.225 119.6 168.452 119.32 167.505 119.32C166.545 119.32 165.758 119.6 165.145 120.16C164.545 120.72 164.245 121.447 164.245 122.34C164.245 123.247 164.545 123.987 165.145 124.56C165.758 125.12 166.545 125.4 167.505 125.4ZM186.532 122.72C186.532 122.893 186.518 123.14 186.492 123.46H178.112C178.258 124.247 178.638 124.873 179.252 125.34C179.878 125.793 180.652 126.02 181.572 126.02C182.745 126.02 183.712 125.633 184.472 124.86L185.812 126.4C185.332 126.973 184.725 127.407 183.992 127.7C183.258 127.993 182.432 128.14 181.512 128.14C180.338 128.14 179.305 127.907 178.412 127.44C177.518 126.973 176.825 126.327 176.332 125.5C175.852 124.66 175.612 123.713 175.612 122.66C175.612 121.62 175.845 120.687 176.312 119.86C176.792 119.02 177.452 118.367 178.292 117.9C179.132 117.433 180.078 117.2 181.132 117.2C182.172 117.2 183.098 117.433 183.912 117.9C184.738 118.353 185.378 119 185.832 119.84C186.298 120.667 186.532 121.627 186.532 122.72ZM181.132 119.2C180.332 119.2 179.652 119.44 179.092 119.92C178.545 120.387 178.212 121.013 178.092 121.8H184.152C184.045 121.027 183.718 120.4 183.172 119.92C182.625 119.44 181.945 119.2 181.132 119.2ZM191.313 118.88C192.033 117.76 193.3 117.2 195.113 117.2V119.58C194.9 119.54 194.706 119.52 194.533 119.52C193.56 119.52 192.8 119.807 192.253 120.38C191.706 120.94 191.433 121.753 191.433 122.82V128H188.933V117.32H191.313V118.88ZM200.573 128.14C199.706 128.14 198.859 128.027 198.033 127.8C197.206 127.573 196.546 127.287 196.053 126.94L197.013 125.04C197.493 125.36 198.066 125.62 198.733 125.82C199.413 126.007 200.079 126.1 200.733 126.1C202.226 126.1 202.973 125.707 202.973 124.92C202.973 124.547 202.779 124.287 202.393 124.14C202.019 123.993 201.413 123.853 200.573 123.72C199.693 123.587 198.973 123.433 198.413 123.26C197.866 123.087 197.386 122.787 196.973 122.36C196.573 121.92 196.373 121.313 196.373 120.54C196.373 119.527 196.793 118.72 197.633 118.12C198.486 117.507 199.633 117.2 201.073 117.2C201.806 117.2 202.539 117.287 203.273 117.46C204.006 117.62 204.606 117.84 205.073 118.12L204.113 120.02C203.206 119.487 202.186 119.22 201.053 119.22C200.319 119.22 199.759 119.333 199.373 119.56C198.999 119.773 198.813 120.06 198.813 120.42C198.813 120.82 199.013 121.107 199.413 121.28C199.826 121.44 200.459 121.593 201.313 121.74C202.166 121.873 202.866 122.027 203.413 122.2C203.959 122.373 204.426 122.667 204.813 123.08C205.213 123.493 205.413 124.08 205.413 124.84C205.413 125.84 204.979 126.64 204.113 127.24C203.246 127.84 202.066 128.14 200.573 128.14ZM229.753 117.32L225.813 128H223.413L220.653 120.64L217.853 128H215.453L211.533 117.32H213.893L216.713 125.2L219.653 117.32H221.753L224.633 125.24L227.533 117.32H229.753ZM231.472 117.32H233.972V128H231.472V117.32ZM232.732 115.56C232.279 115.56 231.899 115.42 231.592 115.14C231.285 114.847 231.132 114.487 231.132 114.06C231.132 113.633 231.285 113.28 231.592 113C231.899 112.707 232.279 112.56 232.732 112.56C233.185 112.56 233.565 112.7 233.872 112.98C234.179 113.247 234.332 113.587 234.332 114C234.332 114.44 234.179 114.813 233.872 115.12C233.579 115.413 233.199 115.56 232.732 115.56ZM243.673 127.42C243.38 127.66 243.02 127.84 242.593 127.96C242.18 128.08 241.74 128.14 241.273 128.14C240.1 128.14 239.193 127.833 238.553 127.22C237.913 126.607 237.593 125.713 237.593 124.54V119.4H235.833V117.4H237.593V114.96H240.093V117.4H242.953V119.4H240.093V124.48C240.093 125 240.22 125.4 240.473 125.68C240.727 125.947 241.093 126.08 241.573 126.08C242.133 126.08 242.6 125.933 242.973 125.64L243.673 127.42ZM251.79 117.2C253.137 117.2 254.217 117.593 255.03 118.38C255.843 119.167 256.25 120.333 256.25 121.88V128H253.75V122.2C253.75 121.267 253.53 120.567 253.09 120.1C252.65 119.62 252.023 119.38 251.21 119.38C250.29 119.38 249.563 119.66 249.03 120.22C248.497 120.767 248.23 121.56 248.23 122.6V128H245.73V113.16H248.23V118.56C248.643 118.12 249.15 117.787 249.75 117.56C250.363 117.32 251.043 117.2 251.79 117.2ZM122.362 137.16V152H119.962V150.62C119.548 151.127 119.035 151.507 118.422 151.76C117.822 152.013 117.155 152.14 116.422 152.14C115.395 152.14 114.468 151.913 113.642 151.46C112.828 151.007 112.188 150.367 111.722 149.54C111.255 148.7 111.022 147.74 111.022 146.66C111.022 145.58 111.255 144.627 111.722 143.8C112.188 142.973 112.828 142.333 113.642 141.88C114.468 141.427 115.395 141.2 116.422 141.2C117.128 141.2 117.775 141.32 118.362 141.56C118.948 141.8 119.448 142.16 119.862 142.64V137.16H122.362ZM116.722 150C117.322 150 117.862 149.867 118.342 149.6C118.822 149.32 119.202 148.927 119.482 148.42C119.762 147.913 119.902 147.327 119.902 146.66C119.902 145.993 119.762 145.407 119.482 144.9C119.202 144.393 118.822 144.007 118.342 143.74C117.862 143.46 117.322 143.32 116.722 143.32C116.122 143.32 115.582 143.46 115.102 143.74C114.622 144.007 114.242 144.393 113.962 144.9C113.682 145.407 113.542 145.993 113.542 146.66C113.542 147.327 113.682 147.913 113.962 148.42C114.242 148.927 114.622 149.32 115.102 149.6C115.582 149.867 116.122 150 116.722 150ZM135.672 146.72C135.672 146.893 135.659 147.14 135.632 147.46H127.252C127.399 148.247 127.779 148.873 128.392 149.34C129.019 149.793 129.792 150.02 130.712 150.02C131.886 150.02 132.852 149.633 133.612 148.86L134.952 150.4C134.472 150.973 133.866 151.407 133.132 151.7C132.399 151.993 131.572 152.14 130.652 152.14C129.479 152.14 128.446 151.907 127.552 151.44C126.659 150.973 125.966 150.327 125.472 149.5C124.992 148.66 124.752 147.713 124.752 146.66C124.752 145.62 124.986 144.687 125.452 143.86C125.932 143.02 126.592 142.367 127.432 141.9C128.272 141.433 129.219 141.2 130.272 141.2C131.312 141.2 132.239 141.433 133.052 141.9C133.879 142.353 134.519 143 134.972 143.84C135.439 144.667 135.672 145.627 135.672 146.72ZM130.272 143.2C129.472 143.2 128.792 143.44 128.232 143.92C127.686 144.387 127.352 145.013 127.232 145.8H133.292C133.186 145.027 132.859 144.4 132.312 143.92C131.766 143.44 131.086 143.2 130.272 143.2ZM143.994 141.2C145.034 141.2 145.96 141.427 146.774 141.88C147.6 142.333 148.247 142.973 148.714 143.8C149.18 144.627 149.414 145.58 149.414 146.66C149.414 147.74 149.18 148.7 148.714 149.54C148.247 150.367 147.6 151.007 146.774 151.46C145.96 151.913 145.034 152.14 143.994 152.14C142.554 152.14 141.414 151.66 140.574 150.7V155.88H138.074V141.32H140.454V142.72C140.867 142.213 141.374 141.833 141.974 141.58C142.587 141.327 143.26 141.2 143.994 141.2ZM143.714 150C144.634 150 145.387 149.693 145.974 149.08C146.574 148.467 146.874 147.66 146.874 146.66C146.874 145.66 146.574 144.853 145.974 144.24C145.387 143.627 144.634 143.32 143.714 143.32C143.114 143.32 142.574 143.46 142.094 143.74C141.614 144.007 141.234 144.393 140.954 144.9C140.674 145.407 140.534 145.993 140.534 146.66C140.534 147.327 140.674 147.913 140.954 148.42C141.234 148.927 141.614 149.32 142.094 149.6C142.574 149.867 143.114 150 143.714 150ZM154.165 142.88C154.885 141.76 156.151 141.2 157.965 141.2V143.58C157.751 143.54 157.558 143.52 157.385 143.52C156.411 143.52 155.651 143.807 155.105 144.38C154.558 144.94 154.285 145.753 154.285 146.82V152H151.785V141.32H154.165V142.88ZM170.028 146.72C170.028 146.893 170.014 147.14 169.988 147.46H161.608C161.754 148.247 162.134 148.873 162.748 149.34C163.374 149.793 164.148 150.02 165.068 150.02C166.241 150.02 167.208 149.633 167.968 148.86L169.308 150.4C168.828 150.973 168.221 151.407 167.488 151.7C166.754 151.993 165.928 152.14 165.008 152.14C163.834 152.14 162.801 151.907 161.908 151.44C161.014 150.973 160.321 150.327 159.828 149.5C159.348 148.66 159.108 147.713 159.108 146.66C159.108 145.62 159.341 144.687 159.808 143.86C160.288 143.02 160.948 142.367 161.788 141.9C162.628 141.433 163.574 141.2 164.628 141.2C165.668 141.2 166.594 141.433 167.408 141.9C168.234 142.353 168.874 143 169.328 143.84C169.794 144.667 170.028 145.627 170.028 146.72ZM164.628 143.2C163.828 143.2 163.148 143.44 162.588 143.92C162.041 144.387 161.708 145.013 161.588 145.8H167.648C167.541 145.027 167.214 144.4 166.668 143.92C166.121 143.44 165.441 143.2 164.628 143.2ZM175.729 152.14C174.862 152.14 174.016 152.027 173.189 151.8C172.362 151.573 171.702 151.287 171.209 150.94L172.169 149.04C172.649 149.36 173.222 149.62 173.889 149.82C174.569 150.007 175.236 150.1 175.889 150.1C177.382 150.1 178.129 149.707 178.129 148.92C178.129 148.547 177.936 148.287 177.549 148.14C177.176 147.993 176.569 147.853 175.729 147.72C174.849 147.587 174.129 147.433 173.569 147.26C173.022 147.087 172.542 146.787 172.129 146.36C171.729 145.92 171.529 145.313 171.529 144.54C171.529 143.527 171.949 142.72 172.789 142.12C173.642 141.507 174.789 141.2 176.229 141.2C176.962 141.2 177.696 141.287 178.429 141.46C179.162 141.62 179.762 141.84 180.229 142.12L179.269 144.02C178.362 143.487 177.342 143.22 176.209 143.22C175.476 143.22 174.916 143.333 174.529 143.56C174.156 143.773 173.969 144.06 173.969 144.42C173.969 144.82 174.169 145.107 174.569 145.28C174.982 145.44 175.616 145.593 176.469 145.74C177.322 145.873 178.022 146.027 178.569 146.2C179.116 146.373 179.582 146.667 179.969 147.08C180.369 147.493 180.569 148.08 180.569 148.84C180.569 149.84 180.136 150.64 179.269 151.24C178.402 151.84 177.222 152.14 175.729 152.14ZM186.022 152.14C185.155 152.14 184.309 152.027 183.482 151.8C182.655 151.573 181.995 151.287 181.502 150.94L182.462 149.04C182.942 149.36 183.515 149.62 184.182 149.82C184.862 150.007 185.529 150.1 186.182 150.1C187.675 150.1 188.422 149.707 188.422 148.92C188.422 148.547 188.229 148.287 187.842 148.14C187.469 147.993 186.862 147.853 186.022 147.72C185.142 147.587 184.422 147.433 183.862 147.26C183.315 147.087 182.835 146.787 182.422 146.36C182.022 145.92 181.822 145.313 181.822 144.54C181.822 143.527 182.242 142.72 183.082 142.12C183.935 141.507 185.082 141.2 186.522 141.2C187.255 141.2 187.989 141.287 188.722 141.46C189.455 141.62 190.055 141.84 190.522 142.12L189.562 144.02C188.655 143.487 187.635 143.22 186.502 143.22C185.769 143.22 185.209 143.333 184.822 143.56C184.449 143.773 184.262 144.06 184.262 144.42C184.262 144.82 184.462 145.107 184.862 145.28C185.275 145.44 185.909 145.593 186.762 145.74C187.615 145.873 188.315 146.027 188.862 146.2C189.409 146.373 189.875 146.667 190.262 147.08C190.662 147.493 190.862 148.08 190.862 148.84C190.862 149.84 190.429 150.64 189.562 151.24C188.695 151.84 187.515 152.14 186.022 152.14ZM193.015 141.32H195.515V152H193.015V141.32ZM194.275 139.56C193.822 139.56 193.442 139.42 193.135 139.14C192.828 138.847 192.675 138.487 192.675 138.06C192.675 137.633 192.828 137.28 193.135 137C193.442 136.707 193.822 136.56 194.275 136.56C194.728 136.56 195.108 136.7 195.415 136.98C195.722 137.247 195.875 137.587 195.875 138C195.875 138.44 195.722 138.813 195.415 139.12C195.122 139.413 194.742 139.56 194.275 139.56ZM203.596 152.14C202.516 152.14 201.543 151.907 200.676 151.44C199.81 150.973 199.13 150.327 198.636 149.5C198.156 148.66 197.916 147.713 197.916 146.66C197.916 145.607 198.156 144.667 198.636 143.84C199.13 143.013 199.81 142.367 200.676 141.9C201.543 141.433 202.516 141.2 203.596 141.2C204.69 141.2 205.67 141.433 206.536 141.9C207.403 142.367 208.076 143.013 208.556 143.84C209.05 144.667 209.296 145.607 209.296 146.66C209.296 147.713 209.05 148.66 208.556 149.5C208.076 150.327 207.403 150.973 206.536 151.44C205.67 151.907 204.69 152.14 203.596 152.14ZM203.596 150C204.516 150 205.276 149.693 205.876 149.08C206.476 148.467 206.776 147.66 206.776 146.66C206.776 145.66 206.476 144.853 205.876 144.24C205.276 143.627 204.516 143.32 203.596 143.32C202.676 143.32 201.916 143.627 201.316 144.24C200.73 144.853 200.436 145.66 200.436 146.66C200.436 147.66 200.73 148.467 201.316 149.08C201.916 149.693 202.676 150 203.596 150ZM217.747 141.2C219.094 141.2 220.174 141.593 220.987 142.38C221.8 143.167 222.207 144.333 222.207 145.88V152H219.707V146.2C219.707 145.267 219.487 144.567 219.047 144.1C218.607 143.62 217.98 143.38 217.167 143.38C216.247 143.38 215.52 143.66 214.987 144.22C214.454 144.767 214.187 145.56 214.187 146.6V152H211.687V141.32H214.067V142.7C214.48 142.207 215 141.833 215.627 141.58C216.254 141.327 216.96 141.2 217.747 141.2Z" fill="#4B525C"/>
</g>
<g filter="url(#filter1_d)">
<path d="M106.89 75.76H99.8897L98.5097 79H95.8297L102.13 65H104.69L111.01 79H108.29L106.89 75.76ZM106.03 73.72L103.39 67.6L100.77 73.72H106.03ZM123.998 68.2C125.038 68.2 125.964 68.4267 126.778 68.88C127.604 69.3333 128.251 69.9733 128.718 70.8C129.184 71.6267 129.418 72.58 129.418 73.66C129.418 74.74 129.184 75.7 128.718 76.54C128.251 77.3667 127.604 78.0067 126.778 78.46C125.964 78.9133 125.038 79.14 123.998 79.14C122.558 79.14 121.418 78.66 120.578 77.7V82.88H118.078V68.32H120.458V69.72C120.871 69.2133 121.378 68.8333 121.978 68.58C122.591 68.3267 123.264 68.2 123.998 68.2ZM123.718 77C124.638 77 125.391 76.6933 125.978 76.08C126.578 75.4667 126.878 74.66 126.878 73.66C126.878 72.66 126.578 71.8533 125.978 71.24C125.391 70.6267 124.638 70.32 123.718 70.32C123.118 70.32 122.578 70.46 122.098 70.74C121.618 71.0067 121.238 71.3933 120.958 71.9C120.678 72.4067 120.538 72.9933 120.538 73.66C120.538 74.3267 120.678 74.9133 120.958 75.42C121.238 75.9267 121.618 76.32 122.098 76.6C122.578 76.8667 123.118 77 123.718 77ZM131.788 64.16H134.288V79H131.788V64.16ZM141.65 68.2C143.223 68.2 144.423 68.58 145.25 69.34C146.09 70.0867 146.51 71.22 146.51 72.74V79H144.15V77.7C143.843 78.1667 143.403 78.5267 142.83 78.78C142.27 79.02 141.59 79.14 140.79 79.14C139.99 79.14 139.29 79.0067 138.69 78.74C138.09 78.46 137.623 78.08 137.29 77.6C136.97 77.1067 136.81 76.5533 136.81 75.94C136.81 74.98 137.163 74.2133 137.87 73.64C138.59 73.0533 139.716 72.76 141.25 72.76H144.01V72.6C144.01 71.8533 143.783 71.28 143.33 70.88C142.89 70.48 142.23 70.28 141.35 70.28C140.75 70.28 140.156 70.3733 139.57 70.56C138.996 70.7467 138.51 71.0067 138.11 71.34L137.13 69.52C137.69 69.0933 138.363 68.7667 139.15 68.54C139.936 68.3133 140.77 68.2 141.65 68.2ZM141.31 77.32C141.936 77.32 142.49 77.18 142.97 76.9C143.463 76.6067 143.81 76.1933 144.01 75.66V74.42H141.43C139.99 74.42 139.27 74.8933 139.27 75.84C139.27 76.2933 139.45 76.6533 139.81 76.92C140.17 77.1867 140.67 77.32 141.31 77.32ZM156.138 78.42C155.845 78.66 155.485 78.84 155.058 78.96C154.645 79.08 154.205 79.14 153.738 79.14C152.565 79.14 151.658 78.8333 151.018 78.22C150.378 77.6067 150.058 76.7133 150.058 75.54V70.4H148.298V68.4H150.058V65.96H152.558V68.4H155.418V70.4H152.558V75.48C152.558 76 152.685 76.4 152.938 76.68C153.191 76.9467 153.558 77.08 154.038 77.08C154.598 77.08 155.065 76.9333 155.438 76.64L156.138 78.42ZM162.535 66.04C161.481 66.04 160.955 66.6133 160.955 67.76V68.4H163.895V70.4H161.035V79H158.535V70.4H156.775V68.4H158.535V67.72C158.535 66.5733 158.868 65.6733 159.535 65.02C160.201 64.3533 161.141 64.02 162.355 64.02C163.315 64.02 164.068 64.2133 164.615 64.6L163.915 66.48C163.488 66.1867 163.028 66.04 162.535 66.04ZM170.221 79.14C169.141 79.14 168.168 78.9067 167.301 78.44C166.435 77.9733 165.755 77.3267 165.261 76.5C164.781 75.66 164.541 74.7133 164.541 73.66C164.541 72.6067 164.781 71.6667 165.261 70.84C165.755 70.0133 166.435 69.3667 167.301 68.9C168.168 68.4333 169.141 68.2 170.221 68.2C171.315 68.2 172.295 68.4333 173.161 68.9C174.028 69.3667 174.701 70.0133 175.181 70.84C175.675 71.6667 175.921 72.6067 175.921 73.66C175.921 74.7133 175.675 75.66 175.181 76.5C174.701 77.3267 174.028 77.9733 173.161 78.44C172.295 78.9067 171.315 79.14 170.221 79.14ZM170.221 77C171.141 77 171.901 76.6933 172.501 76.08C173.101 75.4667 173.401 74.66 173.401 73.66C173.401 72.66 173.101 71.8533 172.501 71.24C171.901 70.6267 171.141 70.32 170.221 70.32C169.301 70.32 168.541 70.6267 167.941 71.24C167.355 71.8533 167.061 72.66 167.061 73.66C167.061 74.66 167.355 75.4667 167.941 76.08C168.541 76.6933 169.301 77 170.221 77ZM180.692 69.88C181.412 68.76 182.679 68.2 184.492 68.2V70.58C184.279 70.54 184.085 70.52 183.912 70.52C182.939 70.52 182.179 70.8067 181.632 71.38C181.085 71.94 180.812 72.7533 180.812 73.82V79H178.312V68.32H180.692V69.88ZM200.093 68.2C201.439 68.2 202.506 68.5933 203.293 69.38C204.079 70.1533 204.473 71.32 204.473 72.88V79H201.973V73.2C201.973 72.2667 201.766 71.5667 201.353 71.1C200.939 70.62 200.346 70.38 199.573 70.38C198.733 70.38 198.059 70.66 197.553 71.22C197.046 71.7667 196.793 72.5533 196.793 73.58V79H194.293V73.2C194.293 72.2667 194.086 71.5667 193.673 71.1C193.259 70.62 192.666 70.38 191.893 70.38C191.039 70.38 190.359 70.6533 189.853 71.2C189.359 71.7467 189.113 72.54 189.113 73.58V79H186.613V68.32H188.993V69.68C189.393 69.2 189.893 68.8333 190.493 68.58C191.093 68.3267 191.759 68.2 192.493 68.2C193.293 68.2 193.999 68.3533 194.613 68.66C195.239 68.9533 195.733 69.3933 196.093 69.98C196.533 69.42 197.099 68.9867 197.793 68.68C198.486 68.36 199.253 68.2 200.093 68.2ZM217.535 66.04C216.481 66.04 215.955 66.6133 215.955 67.76V68.4H218.895V70.4H216.035V79H213.535V70.4H211.775V68.4H213.535V67.72C213.535 66.5733 213.868 65.6733 214.535 65.02C215.201 64.3533 216.141 64.02 217.355 64.02C218.315 64.02 219.068 64.2133 219.615 64.6L218.915 66.48C218.488 66.1867 218.028 66.04 217.535 66.04ZM225.221 79.14C224.141 79.14 223.168 78.9067 222.301 78.44C221.435 77.9733 220.755 77.3267 220.261 76.5C219.781 75.66 219.541 74.7133 219.541 73.66C219.541 72.6067 219.781 71.6667 220.261 70.84C220.755 70.0133 221.435 69.3667 222.301 68.9C223.168 68.4333 224.141 68.2 225.221 68.2C226.315 68.2 227.295 68.4333 228.161 68.9C229.028 69.3667 229.701 70.0133 230.181 70.84C230.675 71.6667 230.921 72.6067 230.921 73.66C230.921 74.7133 230.675 75.66 230.181 76.5C229.701 77.3267 229.028 77.9733 228.161 78.44C227.295 78.9067 226.315 79.14 225.221 79.14ZM225.221 77C226.141 77 226.901 76.6933 227.501 76.08C228.101 75.4667 228.401 74.66 228.401 73.66C228.401 72.66 228.101 71.8533 227.501 71.24C226.901 70.6267 226.141 70.32 225.221 70.32C224.301 70.32 223.541 70.6267 222.941 71.24C222.355 71.8533 222.061 72.66 222.061 73.66C222.061 74.66 222.355 75.4667 222.941 76.08C223.541 76.6933 224.301 77 225.221 77ZM235.692 69.88C236.412 68.76 237.679 68.2 239.492 68.2V70.58C239.279 70.54 239.085 70.52 238.912 70.52C237.939 70.52 237.179 70.8067 236.632 71.38C236.085 71.94 235.812 72.7533 235.812 73.82V79H233.312V68.32H235.692V69.88ZM73.8662 103.14C72.7595 103.14 71.7662 102.907 70.8862 102.44C70.0062 101.973 69.3195 101.327 68.8262 100.5C68.3328 99.66 68.0862 98.7133 68.0862 97.66C68.0862 96.6067 68.3328 95.6667 68.8262 94.84C69.3195 94.0133 69.9995 93.3667 70.8662 92.9C71.7462 92.4333 72.7462 92.2 73.8662 92.2C74.9195 92.2 75.8395 92.4133 76.6262 92.84C77.4262 93.2667 78.0262 93.88 78.4262 94.68L76.5062 95.8C76.1995 95.3067 75.8128 94.94 75.3462 94.7C74.8928 94.4467 74.3928 94.32 73.8462 94.32C72.9128 94.32 72.1395 94.6267 71.5262 95.24C70.9128 95.84 70.6062 96.6467 70.6062 97.66C70.6062 98.6733 70.9062 99.4867 71.5062 100.1C72.1195 100.7 72.8995 101 73.8462 101C74.3928 101 74.8928 100.88 75.3462 100.64C75.8128 100.387 76.1995 100.013 76.5062 99.52L78.4262 100.64C78.0128 101.44 77.4062 102.06 76.6062 102.5C75.8195 102.927 74.9062 103.14 73.8662 103.14ZM85.231 103.14C84.151 103.14 83.1777 102.907 82.311 102.44C81.4443 101.973 80.7643 101.327 80.271 100.5C79.791 99.66 79.551 98.7133 79.551 97.66C79.551 96.6067 79.791 95.6667 80.271 94.84C80.7643 94.0133 81.4443 93.3667 82.311 92.9C83.1777 92.4333 84.151 92.2 85.231 92.2C86.3243 92.2 87.3043 92.4333 88.171 92.9C89.0377 93.3667 89.711 94.0133 90.191 94.84C90.6844 95.6667 90.931 96.6067 90.931 97.66C90.931 98.7133 90.6844 99.66 90.191 100.5C89.711 101.327 89.0377 101.973 88.171 102.44C87.3043 102.907 86.3243 103.14 85.231 103.14ZM85.231 101C86.151 101 86.911 100.693 87.511 100.08C88.111 99.4667 88.411 98.66 88.411 97.66C88.411 96.66 88.111 95.8533 87.511 95.24C86.911 94.6267 86.151 94.32 85.231 94.32C84.311 94.32 83.551 94.6267 82.951 95.24C82.3643 95.8533 82.071 96.66 82.071 97.66C82.071 98.66 82.3643 99.4667 82.951 100.08C83.551 100.693 84.311 101 85.231 101ZM106.802 92.2C108.148 92.2 109.215 92.5933 110.002 93.38C110.788 94.1533 111.182 95.32 111.182 96.88V103H108.682V97.2C108.682 96.2667 108.475 95.5667 108.062 95.1C107.648 94.62 107.055 94.38 106.282 94.38C105.442 94.38 104.768 94.66 104.262 95.22C103.755 95.7667 103.502 96.5533 103.502 97.58V103H101.002V97.2C101.002 96.2667 100.795 95.5667 100.382 95.1C99.9683 94.62 99.375 94.38 98.6016 94.38C97.7483 94.38 97.0683 94.6533 96.5616 95.2C96.0683 95.7467 95.8216 96.54 95.8216 97.58V103H93.3216V92.32H95.7016V93.68C96.1016 93.2 96.6016 92.8333 97.2016 92.58C97.8016 92.3267 98.4683 92.2 99.2016 92.2C100.002 92.2 100.708 92.3533 101.322 92.66C101.948 92.9533 102.442 93.3933 102.802 93.98C103.242 93.42 103.808 92.9867 104.502 92.68C105.195 92.36 105.962 92.2 106.802 92.2ZM127.856 92.2C129.203 92.2 130.27 92.5933 131.056 93.38C131.843 94.1533 132.236 95.32 132.236 96.88V103H129.736V97.2C129.736 96.2667 129.53 95.5667 129.116 95.1C128.703 94.62 128.11 94.38 127.336 94.38C126.496 94.38 125.823 94.66 125.316 95.22C124.81 95.7667 124.556 96.5533 124.556 97.58V103H122.056V97.2C122.056 96.2667 121.85 95.5667 121.436 95.1C121.023 94.62 120.43 94.38 119.656 94.38C118.803 94.38 118.123 94.6533 117.616 95.2C117.123 95.7467 116.876 96.54 116.876 97.58V103H114.376V92.32H116.756V93.68C117.156 93.2 117.656 92.8333 118.256 92.58C118.856 92.3267 119.523 92.2 120.256 92.2C121.056 92.2 121.763 92.3533 122.376 92.66C123.003 92.9533 123.496 93.3933 123.856 93.98C124.296 93.42 124.863 92.9867 125.556 92.68C126.25 92.36 127.016 92.2 127.856 92.2ZM145.771 92.32V103H143.391V101.64C142.991 102.12 142.491 102.493 141.891 102.76C141.291 103.013 140.644 103.14 139.951 103.14C138.524 103.14 137.398 102.747 136.571 101.96C135.758 101.16 135.351 99.98 135.351 98.42V92.32H137.851V98.08C137.851 99.04 138.064 99.76 138.491 100.24C138.931 100.707 139.551 100.94 140.351 100.94C141.244 100.94 141.951 100.667 142.471 100.12C143.004 99.56 143.271 98.76 143.271 97.72V92.32H145.771ZM155.104 92.2C156.451 92.2 157.531 92.5933 158.344 93.38C159.158 94.1667 159.564 95.3333 159.564 96.88V103H157.064V97.2C157.064 96.2667 156.844 95.5667 156.404 95.1C155.964 94.62 155.338 94.38 154.524 94.38C153.604 94.38 152.878 94.66 152.344 95.22C151.811 95.7667 151.544 96.56 151.544 97.6V103H149.044V92.32H151.424V93.7C151.838 93.2067 152.358 92.8333 152.984 92.58C153.611 92.3267 154.318 92.2 155.104 92.2ZM162.736 92.32H165.236V103H162.736V92.32ZM163.996 90.56C163.542 90.56 163.162 90.42 162.856 90.14C162.549 89.8467 162.396 89.4867 162.396 89.06C162.396 88.6333 162.549 88.28 162.856 88C163.162 87.7067 163.542 87.56 163.996 87.56C164.449 87.56 164.829 87.7 165.136 87.98C165.442 88.2467 165.596 88.5867 165.596 89C165.596 89.44 165.442 89.8133 165.136 90.12C164.842 90.4133 164.462 90.56 163.996 90.56ZM173.417 103.14C172.31 103.14 171.317 102.907 170.437 102.44C169.557 101.973 168.87 101.327 168.377 100.5C167.884 99.66 167.637 98.7133 167.637 97.66C167.637 96.6067 167.884 95.6667 168.377 94.84C168.87 94.0133 169.55 93.3667 170.417 92.9C171.297 92.4333 172.297 92.2 173.417 92.2C174.47 92.2 175.39 92.4133 176.177 92.84C176.977 93.2667 177.577 93.88 177.977 94.68L176.057 95.8C175.75 95.3067 175.364 94.94 174.897 94.7C174.444 94.4467 173.944 94.32 173.397 94.32C172.464 94.32 171.69 94.6267 171.077 95.24C170.464 95.84 170.157 96.6467 170.157 97.66C170.157 98.6733 170.457 99.4867 171.057 100.1C171.67 100.7 172.45 101 173.397 101C173.944 101 174.444 100.88 174.897 100.64C175.364 100.387 175.75 100.013 176.057 99.52L177.977 100.64C177.564 101.44 176.957 102.06 176.157 102.5C175.37 102.927 174.457 103.14 173.417 103.14ZM184.218 92.2C185.791 92.2 186.991 92.58 187.818 93.34C188.658 94.0867 189.078 95.22 189.078 96.74V103H186.718V101.7C186.411 102.167 185.971 102.527 185.398 102.78C184.838 103.02 184.158 103.14 183.358 103.14C182.558 103.14 181.858 103.007 181.258 102.74C180.658 102.46 180.191 102.08 179.858 101.6C179.538 101.107 179.378 100.553 179.378 99.94C179.378 98.98 179.731 98.2133 180.438 97.64C181.158 97.0533 182.285 96.76 183.818 96.76H186.578V96.6C186.578 95.8533 186.351 95.28 185.898 94.88C185.458 94.48 184.798 94.28 183.918 94.28C183.318 94.28 182.725 94.3733 182.138 94.56C181.565 94.7467 181.078 95.0067 180.678 95.34L179.698 93.52C180.258 93.0933 180.931 92.7667 181.718 92.54C182.505 92.3133 183.338 92.2 184.218 92.2ZM183.878 101.32C184.505 101.32 185.058 101.18 185.538 100.9C186.031 100.607 186.378 100.193 186.578 99.66V98.42H183.998C182.558 98.42 181.838 98.8933 181.838 99.84C181.838 100.293 182.018 100.653 182.378 100.92C182.738 101.187 183.238 101.32 183.878 101.32ZM198.706 102.42C198.413 102.66 198.053 102.84 197.626 102.96C197.213 103.08 196.773 103.14 196.306 103.14C195.133 103.14 194.226 102.833 193.586 102.22C192.946 101.607 192.626 100.713 192.626 99.54V94.4H190.866V92.4H192.626V89.96H195.126V92.4H197.986V94.4H195.126V99.48C195.126 100 195.253 100.4 195.506 100.68C195.76 100.947 196.126 101.08 196.606 101.08C197.166 101.08 197.633 100.933 198.006 100.64L198.706 102.42ZM200.763 92.32H203.263V103H200.763V92.32ZM202.023 90.56C201.57 90.56 201.19 90.42 200.883 90.14C200.576 89.8467 200.423 89.4867 200.423 89.06C200.423 88.6333 200.576 88.28 200.883 88C201.19 87.7067 201.57 87.56 202.023 87.56C202.476 87.56 202.856 87.7 203.163 87.98C203.47 88.2467 203.623 88.5867 203.623 89C203.623 89.44 203.47 89.8133 203.163 90.12C202.87 90.4133 202.49 90.56 202.023 90.56ZM211.344 103.14C210.264 103.14 209.291 102.907 208.424 102.44C207.558 101.973 206.878 101.327 206.384 100.5C205.904 99.66 205.664 98.7133 205.664 97.66C205.664 96.6067 205.904 95.6667 206.384 94.84C206.878 94.0133 207.558 93.3667 208.424 92.9C209.291 92.4333 210.264 92.2 211.344 92.2C212.438 92.2 213.418 92.4333 214.284 92.9C215.151 93.3667 215.824 94.0133 216.304 94.84C216.798 95.6667 217.044 96.6067 217.044 97.66C217.044 98.7133 216.798 99.66 216.304 100.5C215.824 101.327 215.151 101.973 214.284 102.44C213.418 102.907 212.438 103.14 211.344 103.14ZM211.344 101C212.264 101 213.024 100.693 213.624 100.08C214.224 99.4667 214.524 98.66 214.524 97.66C214.524 96.66 214.224 95.8533 213.624 95.24C213.024 94.6267 212.264 94.32 211.344 94.32C210.424 94.32 209.664 94.6267 209.064 95.24C208.478 95.8533 208.184 96.66 208.184 97.66C208.184 98.66 208.478 99.4667 209.064 100.08C209.664 100.693 210.424 101 211.344 101ZM225.495 92.2C226.842 92.2 227.922 92.5933 228.735 93.38C229.548 94.1667 229.955 95.3333 229.955 96.88V103H227.455V97.2C227.455 96.2667 227.235 95.5667 226.795 95.1C226.355 94.62 225.728 94.38 224.915 94.38C223.995 94.38 223.268 94.66 222.735 95.22C222.202 95.7667 221.935 96.56 221.935 97.6V103H219.435V92.32H221.815V93.7C222.228 93.2067 222.748 92.8333 223.375 92.58C224.002 92.3267 224.708 92.2 225.495 92.2ZM242.734 92.2C244.307 92.2 245.507 92.58 246.334 93.34C247.174 94.0867 247.594 95.22 247.594 96.74V103H245.234V101.7C244.927 102.167 244.487 102.527 243.914 102.78C243.354 103.02 242.674 103.14 241.874 103.14C241.074 103.14 240.374 103.007 239.774 102.74C239.174 102.46 238.707 102.08 238.374 101.6C238.054 101.107 237.894 100.553 237.894 99.94C237.894 98.98 238.247 98.2133 238.954 97.64C239.674 97.0533 240.8 96.76 242.334 96.76H245.094V96.6C245.094 95.8533 244.867 95.28 244.414 94.88C243.974 94.48 243.314 94.28 242.434 94.28C241.834 94.28 241.24 94.3733 240.654 94.56C240.08 94.7467 239.594 95.0067 239.194 95.34L238.214 93.52C238.774 93.0933 239.447 92.7667 240.234 92.54C241.02 92.3133 241.854 92.2 242.734 92.2ZM242.394 101.32C243.02 101.32 243.574 101.18 244.054 100.9C244.547 100.607 244.894 100.193 245.094 99.66V98.42H242.514C241.074 98.42 240.354 98.8933 240.354 99.84C240.354 100.293 240.534 100.653 240.894 100.92C241.254 101.187 241.754 101.32 242.394 101.32ZM250.802 92.32H253.302V103H250.802V92.32ZM252.062 90.56C251.609 90.56 251.229 90.42 250.922 90.14C250.615 89.8467 250.462 89.4867 250.462 89.06C250.462 88.6333 250.615 88.28 250.922 88C251.229 87.7067 251.609 87.56 252.062 87.56C252.515 87.56 252.895 87.7 253.202 87.98C253.509 88.2467 253.662 88.5867 253.662 89C253.662 89.44 253.509 89.8133 253.202 90.12C252.909 90.4133 252.529 90.56 252.062 90.56ZM267.043 88.16V103H264.643V101.62C264.23 102.127 263.717 102.507 263.103 102.76C262.503 103.013 261.837 103.14 261.103 103.14C260.077 103.14 259.15 102.913 258.323 102.46C257.51 102.007 256.87 101.367 256.403 100.54C255.937 99.7 255.703 98.74 255.703 97.66C255.703 96.58 255.937 95.6267 256.403 94.8C256.87 93.9733 257.51 93.3333 258.323 92.88C259.15 92.4267 260.077 92.2 261.103 92.2C261.81 92.2 262.457 92.32 263.043 92.56C263.63 92.8 264.13 93.16 264.543 93.64V88.16H267.043ZM261.403 101C262.003 101 262.543 100.867 263.023 100.6C263.503 100.32 263.883 99.9267 264.163 99.42C264.443 98.9133 264.583 98.3267 264.583 97.66C264.583 96.9933 264.443 96.4067 264.163 95.9C263.883 95.3933 263.503 95.0067 263.023 94.74C262.543 94.46 262.003 94.32 261.403 94.32C260.803 94.32 260.263 94.46 259.783 94.74C259.303 95.0067 258.923 95.3933 258.643 95.9C258.363 96.4067 258.223 96.9933 258.223 97.66C258.223 98.3267 258.363 98.9133 258.643 99.42C258.923 99.9267 259.303 100.32 259.783 100.6C260.263 100.867 260.803 101 261.403 101ZM83.6588 127.14C82.5788 127.14 81.6054 126.907 80.7388 126.44C79.8721 125.973 79.1921 125.327 78.6988 124.5C78.2188 123.66 77.9788 122.713 77.9788 121.66C77.9788 120.607 78.2188 119.667 78.6988 118.84C79.1921 118.013 79.8721 117.367 80.7388 116.9C81.6054 116.433 82.5788 116.2 83.6588 116.2C84.7521 116.2 85.7321 116.433 86.5988 116.9C87.4654 117.367 88.1388 118.013 88.6188 118.84C89.1121 119.667 89.3588 120.607 89.3588 121.66C89.3588 122.713 89.1121 123.66 88.6188 124.5C88.1388 125.327 87.4654 125.973 86.5988 126.44C85.7321 126.907 84.7521 127.14 83.6588 127.14ZM83.6588 125C84.5788 125 85.3388 124.693 85.9388 124.08C86.5388 123.467 86.8388 122.66 86.8388 121.66C86.8388 120.66 86.5388 119.853 85.9388 119.24C85.3388 118.627 84.5788 118.32 83.6588 118.32C82.7388 118.32 81.9788 118.627 81.3788 119.24C80.7921 119.853 80.4988 120.66 80.4988 121.66C80.4988 122.66 80.7921 123.467 81.3788 124.08C81.9788 124.693 82.7388 125 83.6588 125ZM96.0894 114.04C95.036 114.04 94.5094 114.613 94.5094 115.76V116.4H97.4494V118.4H94.5894V127H92.0894V118.4H90.3294V116.4H92.0894V115.72C92.0894 114.573 92.4227 113.673 93.0894 113.02C93.756 112.353 94.696 112.02 95.9094 112.02C96.8694 112.02 97.6227 112.213 98.1694 112.6L97.4694 114.48C97.0427 114.187 96.5827 114.04 96.0894 114.04ZM111.08 126.42C110.786 126.66 110.426 126.84 110 126.96C109.586 127.08 109.146 127.14 108.68 127.14C107.506 127.14 106.6 126.833 105.96 126.22C105.32 125.607 105 124.713 105 123.54V118.4H103.24V116.4H105V113.96H107.5V116.4H110.36V118.4H107.5V123.48C107.5 124 107.626 124.4 107.88 124.68C108.133 124.947 108.5 125.08 108.98 125.08C109.54 125.08 110.006 124.933 110.38 124.64L111.08 126.42ZM122.825 121.72C122.825 121.893 122.811 122.14 122.785 122.46H114.405C114.551 123.247 114.931 123.873 115.545 124.34C116.171 124.793 116.945 125.02 117.865 125.02C119.038 125.02 120.005 124.633 120.765 123.86L122.105 125.4C121.625 125.973 121.018 126.407 120.285 126.7C119.551 126.993 118.725 127.14 117.805 127.14C116.631 127.14 115.598 126.907 114.705 126.44C113.811 125.973 113.118 125.327 112.625 124.5C112.145 123.66 111.905 122.713 111.905 121.66C111.905 120.62 112.138 119.687 112.605 118.86C113.085 118.02 113.745 117.367 114.585 116.9C115.425 116.433 116.371 116.2 117.425 116.2C118.465 116.2 119.391 116.433 120.205 116.9C121.031 117.353 121.671 118 122.125 118.84C122.591 119.667 122.825 120.627 122.825 121.72ZM117.425 118.2C116.625 118.2 115.945 118.44 115.385 118.92C114.838 119.387 114.505 120.013 114.385 120.8H120.445C120.338 120.027 120.011 119.4 119.465 118.92C118.918 118.44 118.238 118.2 117.425 118.2ZM135.266 121.72C135.266 121.893 135.253 122.14 135.226 122.46H126.846C126.993 123.247 127.373 123.873 127.986 124.34C128.613 124.793 129.386 125.02 130.306 125.02C131.479 125.02 132.446 124.633 133.206 123.86L134.546 125.4C134.066 125.973 133.459 126.407 132.726 126.7C131.993 126.993 131.166 127.14 130.246 127.14C129.073 127.14 128.039 126.907 127.146 126.44C126.253 125.973 125.559 125.327 125.066 124.5C124.586 123.66 124.346 122.713 124.346 121.66C124.346 120.62 124.579 119.687 125.046 118.86C125.526 118.02 126.186 117.367 127.026 116.9C127.866 116.433 128.813 116.2 129.866 116.2C130.906 116.2 131.833 116.433 132.646 116.9C133.473 117.353 134.113 118 134.566 118.84C135.033 119.667 135.266 120.627 135.266 121.72ZM129.866 118.2C129.066 118.2 128.386 118.44 127.826 118.92C127.279 119.387 126.946 120.013 126.826 120.8H132.886C132.779 120.027 132.453 119.4 131.906 118.92C131.359 118.44 130.679 118.2 129.866 118.2ZM143.727 116.2C145.074 116.2 146.154 116.593 146.967 117.38C147.781 118.167 148.187 119.333 148.187 120.88V127H145.687V121.2C145.687 120.267 145.467 119.567 145.027 119.1C144.587 118.62 143.961 118.38 143.147 118.38C142.227 118.38 141.501 118.66 140.967 119.22C140.434 119.767 140.167 120.56 140.167 121.6V127H137.667V116.32H140.047V117.7C140.461 117.207 140.981 116.833 141.607 116.58C142.234 116.327 142.941 116.2 143.727 116.2ZM155.439 116.2C157.012 116.2 158.212 116.58 159.039 117.34C159.879 118.087 160.299 119.22 160.299 120.74V127H157.939V125.7C157.632 126.167 157.192 126.527 156.619 126.78C156.059 127.02 155.379 127.14 154.579 127.14C153.779 127.14 153.079 127.007 152.479 126.74C151.879 126.46 151.412 126.08 151.079 125.6C150.759 125.107 150.599 124.553 150.599 123.94C150.599 122.98 150.952 122.213 151.659 121.64C152.379 121.053 153.505 120.76 155.039 120.76H157.799V120.6C157.799 119.853 157.572 119.28 157.119 118.88C156.679 118.48 156.019 118.28 155.139 118.28C154.539 118.28 153.945 118.373 153.359 118.56C152.785 118.747 152.299 119.007 151.899 119.34L150.919 117.52C151.479 117.093 152.152 116.767 152.939 116.54C153.725 116.313 154.559 116.2 155.439 116.2ZM155.099 125.32C155.725 125.32 156.279 125.18 156.759 124.9C157.252 124.607 157.599 124.193 157.799 123.66V122.42H155.219C153.779 122.42 153.059 122.893 153.059 123.84C153.059 124.293 153.239 124.653 153.599 124.92C153.959 125.187 154.459 125.32 155.099 125.32ZM174.205 116.32V125.38C174.205 129.14 172.285 131.02 168.445 131.02C167.418 131.02 166.445 130.887 165.525 130.62C164.605 130.367 163.845 129.993 163.245 129.5L164.365 127.62C164.832 128.007 165.418 128.313 166.125 128.54C166.845 128.78 167.572 128.9 168.305 128.9C169.478 128.9 170.338 128.633 170.885 128.1C171.432 127.567 171.705 126.753 171.705 125.66V125.1C171.278 125.567 170.758 125.92 170.145 126.16C169.532 126.4 168.858 126.52 168.125 126.52C167.112 126.52 166.192 126.307 165.365 125.88C164.552 125.44 163.905 124.827 163.425 124.04C162.958 123.253 162.725 122.353 162.725 121.34C162.725 120.327 162.958 119.433 163.425 118.66C163.905 117.873 164.552 117.267 165.365 116.84C166.192 116.413 167.112 116.2 168.125 116.2C168.898 116.2 169.598 116.327 170.225 116.58C170.865 116.833 171.398 117.22 171.825 117.74V116.32H174.205ZM168.505 124.4C169.452 124.4 170.225 124.12 170.825 123.56C171.438 122.987 171.745 122.247 171.745 121.34C171.745 120.447 171.438 119.72 170.825 119.16C170.225 118.6 169.452 118.32 168.505 118.32C167.545 118.32 166.758 118.6 166.145 119.16C165.545 119.72 165.245 120.447 165.245 121.34C165.245 122.247 165.545 122.987 166.145 123.56C166.758 124.12 167.545 124.4 168.505 124.4ZM187.532 121.72C187.532 121.893 187.518 122.14 187.492 122.46H179.112C179.258 123.247 179.638 123.873 180.252 124.34C180.878 124.793 181.652 125.02 182.572 125.02C183.745 125.02 184.712 124.633 185.472 123.86L186.812 125.4C186.332 125.973 185.725 126.407 184.992 126.7C184.258 126.993 183.432 127.14 182.512 127.14C181.338 127.14 180.305 126.907 179.412 126.44C178.518 125.973 177.825 125.327 177.332 124.5C176.852 123.66 176.612 122.713 176.612 121.66C176.612 120.62 176.845 119.687 177.312 118.86C177.792 118.02 178.452 117.367 179.292 116.9C180.132 116.433 181.078 116.2 182.132 116.2C183.172 116.2 184.098 116.433 184.912 116.9C185.738 117.353 186.378 118 186.832 118.84C187.298 119.667 187.532 120.627 187.532 121.72ZM182.132 118.2C181.332 118.2 180.652 118.44 180.092 118.92C179.545 119.387 179.212 120.013 179.092 120.8H185.152C185.045 120.027 184.718 119.4 184.172 118.92C183.625 118.44 182.945 118.2 182.132 118.2ZM192.313 117.88C193.033 116.76 194.3 116.2 196.113 116.2V118.58C195.9 118.54 195.706 118.52 195.533 118.52C194.56 118.52 193.8 118.807 193.253 119.38C192.706 119.94 192.433 120.753 192.433 121.82V127H189.933V116.32H192.313V117.88ZM201.573 127.14C200.706 127.14 199.859 127.027 199.033 126.8C198.206 126.573 197.546 126.287 197.053 125.94L198.013 124.04C198.493 124.36 199.066 124.62 199.733 124.82C200.413 125.007 201.079 125.1 201.733 125.1C203.226 125.1 203.973 124.707 203.973 123.92C203.973 123.547 203.779 123.287 203.393 123.14C203.019 122.993 202.413 122.853 201.573 122.72C200.693 122.587 199.973 122.433 199.413 122.26C198.866 122.087 198.386 121.787 197.973 121.36C197.573 120.92 197.373 120.313 197.373 119.54C197.373 118.527 197.793 117.72 198.633 117.12C199.486 116.507 200.633 116.2 202.073 116.2C202.806 116.2 203.539 116.287 204.273 116.46C205.006 116.62 205.606 116.84 206.073 117.12L205.113 119.02C204.206 118.487 203.186 118.22 202.053 118.22C201.319 118.22 200.759 118.333 200.373 118.56C199.999 118.773 199.813 119.06 199.813 119.42C199.813 119.82 200.013 120.107 200.413 120.28C200.826 120.44 201.459 120.593 202.313 120.74C203.166 120.873 203.866 121.027 204.413 121.2C204.959 121.373 205.426 121.667 205.813 122.08C206.213 122.493 206.413 123.08 206.413 123.84C206.413 124.84 205.979 125.64 205.113 126.24C204.246 126.84 203.066 127.14 201.573 127.14ZM230.753 116.32L226.813 127H224.413L221.653 119.64L218.853 127H216.453L212.533 116.32H214.893L217.713 124.2L220.653 116.32H222.753L225.633 124.24L228.533 116.32H230.753ZM232.472 116.32H234.972V127H232.472V116.32ZM233.732 114.56C233.279 114.56 232.899 114.42 232.592 114.14C232.285 113.847 232.132 113.487 232.132 113.06C232.132 112.633 232.285 112.28 232.592 112C232.899 111.707 233.279 111.56 233.732 111.56C234.185 111.56 234.565 111.7 234.872 111.98C235.179 112.247 235.332 112.587 235.332 113C235.332 113.44 235.179 113.813 234.872 114.12C234.579 114.413 234.199 114.56 233.732 114.56ZM244.673 126.42C244.38 126.66 244.02 126.84 243.593 126.96C243.18 127.08 242.74 127.14 242.273 127.14C241.1 127.14 240.193 126.833 239.553 126.22C238.913 125.607 238.593 124.713 238.593 123.54V118.4H236.833V116.4H238.593V113.96H241.093V116.4H243.953V118.4H241.093V123.48C241.093 124 241.22 124.4 241.473 124.68C241.727 124.947 242.093 125.08 242.573 125.08C243.133 125.08 243.6 124.933 243.973 124.64L244.673 126.42ZM252.79 116.2C254.137 116.2 255.217 116.593 256.03 117.38C256.843 118.167 257.25 119.333 257.25 120.88V127H254.75V121.2C254.75 120.267 254.53 119.567 254.09 119.1C253.65 118.62 253.023 118.38 252.21 118.38C251.29 118.38 250.563 118.66 250.03 119.22C249.497 119.767 249.23 120.56 249.23 121.6V127H246.73V112.16H249.23V117.56C249.643 117.12 250.15 116.787 250.75 116.56C251.363 116.32 252.043 116.2 252.79 116.2ZM123.362 136.16V151H120.962V149.62C120.548 150.127 120.035 150.507 119.422 150.76C118.822 151.013 118.155 151.14 117.422 151.14C116.395 151.14 115.468 150.913 114.642 150.46C113.828 150.007 113.188 149.367 112.722 148.54C112.255 147.7 112.022 146.74 112.022 145.66C112.022 144.58 112.255 143.627 112.722 142.8C113.188 141.973 113.828 141.333 114.642 140.88C115.468 140.427 116.395 140.2 117.422 140.2C118.128 140.2 118.775 140.32 119.362 140.56C119.948 140.8 120.448 141.16 120.862 141.64V136.16H123.362ZM117.722 149C118.322 149 118.862 148.867 119.342 148.6C119.822 148.32 120.202 147.927 120.482 147.42C120.762 146.913 120.902 146.327 120.902 145.66C120.902 144.993 120.762 144.407 120.482 143.9C120.202 143.393 119.822 143.007 119.342 142.74C118.862 142.46 118.322 142.32 117.722 142.32C117.122 142.32 116.582 142.46 116.102 142.74C115.622 143.007 115.242 143.393 114.962 143.9C114.682 144.407 114.542 144.993 114.542 145.66C114.542 146.327 114.682 146.913 114.962 147.42C115.242 147.927 115.622 148.32 116.102 148.6C116.582 148.867 117.122 149 117.722 149ZM136.672 145.72C136.672 145.893 136.659 146.14 136.632 146.46H128.252C128.399 147.247 128.779 147.873 129.392 148.34C130.019 148.793 130.792 149.02 131.712 149.02C132.886 149.02 133.852 148.633 134.612 147.86L135.952 149.4C135.472 149.973 134.866 150.407 134.132 150.7C133.399 150.993 132.572 151.14 131.652 151.14C130.479 151.14 129.446 150.907 128.552 150.44C127.659 149.973 126.966 149.327 126.472 148.5C125.992 147.66 125.752 146.713 125.752 145.66C125.752 144.62 125.986 143.687 126.452 142.86C126.932 142.02 127.592 141.367 128.432 140.9C129.272 140.433 130.219 140.2 131.272 140.2C132.312 140.2 133.239 140.433 134.052 140.9C134.879 141.353 135.519 142 135.972 142.84C136.439 143.667 136.672 144.627 136.672 145.72ZM131.272 142.2C130.472 142.2 129.792 142.44 129.232 142.92C128.686 143.387 128.352 144.013 128.232 144.8H134.292C134.186 144.027 133.859 143.4 133.312 142.92C132.766 142.44 132.086 142.2 131.272 142.2ZM144.994 140.2C146.034 140.2 146.96 140.427 147.774 140.88C148.6 141.333 149.247 141.973 149.714 142.8C150.18 143.627 150.414 144.58 150.414 145.66C150.414 146.74 150.18 147.7 149.714 148.54C149.247 149.367 148.6 150.007 147.774 150.46C146.96 150.913 146.034 151.14 144.994 151.14C143.554 151.14 142.414 150.66 141.574 149.7V154.88H139.074V140.32H141.454V141.72C141.867 141.213 142.374 140.833 142.974 140.58C143.587 140.327 144.26 140.2 144.994 140.2ZM144.714 149C145.634 149 146.387 148.693 146.974 148.08C147.574 147.467 147.874 146.66 147.874 145.66C147.874 144.66 147.574 143.853 146.974 143.24C146.387 142.627 145.634 142.32 144.714 142.32C144.114 142.32 143.574 142.46 143.094 142.74C142.614 143.007 142.234 143.393 141.954 143.9C141.674 144.407 141.534 144.993 141.534 145.66C141.534 146.327 141.674 146.913 141.954 147.42C142.234 147.927 142.614 148.32 143.094 148.6C143.574 148.867 144.114 149 144.714 149ZM155.165 141.88C155.885 140.76 157.151 140.2 158.965 140.2V142.58C158.751 142.54 158.558 142.52 158.385 142.52C157.411 142.52 156.651 142.807 156.105 143.38C155.558 143.94 155.285 144.753 155.285 145.82V151H152.785V140.32H155.165V141.88ZM171.028 145.72C171.028 145.893 171.014 146.14 170.988 146.46H162.608C162.754 147.247 163.134 147.873 163.748 148.34C164.374 148.793 165.148 149.02 166.068 149.02C167.241 149.02 168.208 148.633 168.968 147.86L170.308 149.4C169.828 149.973 169.221 150.407 168.488 150.7C167.754 150.993 166.928 151.14 166.008 151.14C164.834 151.14 163.801 150.907 162.908 150.44C162.014 149.973 161.321 149.327 160.828 148.5C160.348 147.66 160.108 146.713 160.108 145.66C160.108 144.62 160.341 143.687 160.808 142.86C161.288 142.02 161.948 141.367 162.788 140.9C163.628 140.433 164.574 140.2 165.628 140.2C166.668 140.2 167.594 140.433 168.408 140.9C169.234 141.353 169.874 142 170.328 142.84C170.794 143.667 171.028 144.627 171.028 145.72ZM165.628 142.2C164.828 142.2 164.148 142.44 163.588 142.92C163.041 143.387 162.708 144.013 162.588 144.8H168.648C168.541 144.027 168.214 143.4 167.668 142.92C167.121 142.44 166.441 142.2 165.628 142.2ZM176.729 151.14C175.862 151.14 175.016 151.027 174.189 150.8C173.362 150.573 172.702 150.287 172.209 149.94L173.169 148.04C173.649 148.36 174.222 148.62 174.889 148.82C175.569 149.007 176.236 149.1 176.889 149.1C178.382 149.1 179.129 148.707 179.129 147.92C179.129 147.547 178.936 147.287 178.549 147.14C178.176 146.993 177.569 146.853 176.729 146.72C175.849 146.587 175.129 146.433 174.569 146.26C174.022 146.087 173.542 145.787 173.129 145.36C172.729 144.92 172.529 144.313 172.529 143.54C172.529 142.527 172.949 141.72 173.789 141.12C174.642 140.507 175.789 140.2 177.229 140.2C177.962 140.2 178.696 140.287 179.429 140.46C180.162 140.62 180.762 140.84 181.229 141.12L180.269 143.02C179.362 142.487 178.342 142.22 177.209 142.22C176.476 142.22 175.916 142.333 175.529 142.56C175.156 142.773 174.969 143.06 174.969 143.42C174.969 143.82 175.169 144.107 175.569 144.28C175.982 144.44 176.616 144.593 177.469 144.74C178.322 144.873 179.022 145.027 179.569 145.2C180.116 145.373 180.582 145.667 180.969 146.08C181.369 146.493 181.569 147.08 181.569 147.84C181.569 148.84 181.136 149.64 180.269 150.24C179.402 150.84 178.222 151.14 176.729 151.14ZM187.022 151.14C186.155 151.14 185.309 151.027 184.482 150.8C183.655 150.573 182.995 150.287 182.502 149.94L183.462 148.04C183.942 148.36 184.515 148.62 185.182 148.82C185.862 149.007 186.529 149.1 187.182 149.1C188.675 149.1 189.422 148.707 189.422 147.92C189.422 147.547 189.229 147.287 188.842 147.14C188.469 146.993 187.862 146.853 187.022 146.72C186.142 146.587 185.422 146.433 184.862 146.26C184.315 146.087 183.835 145.787 183.422 145.36C183.022 144.92 182.822 144.313 182.822 143.54C182.822 142.527 183.242 141.72 184.082 141.12C184.935 140.507 186.082 140.2 187.522 140.2C188.255 140.2 188.989 140.287 189.722 140.46C190.455 140.62 191.055 140.84 191.522 141.12L190.562 143.02C189.655 142.487 188.635 142.22 187.502 142.22C186.769 142.22 186.209 142.333 185.822 142.56C185.449 142.773 185.262 143.06 185.262 143.42C185.262 143.82 185.462 144.107 185.862 144.28C186.275 144.44 186.909 144.593 187.762 144.74C188.615 144.873 189.315 145.027 189.862 145.2C190.409 145.373 190.875 145.667 191.262 146.08C191.662 146.493 191.862 147.08 191.862 147.84C191.862 148.84 191.429 149.64 190.562 150.24C189.695 150.84 188.515 151.14 187.022 151.14ZM194.015 140.32H196.515V151H194.015V140.32ZM195.275 138.56C194.822 138.56 194.442 138.42 194.135 138.14C193.828 137.847 193.675 137.487 193.675 137.06C193.675 136.633 193.828 136.28 194.135 136C194.442 135.707 194.822 135.56 195.275 135.56C195.728 135.56 196.108 135.7 196.415 135.98C196.722 136.247 196.875 136.587 196.875 137C196.875 137.44 196.722 137.813 196.415 138.12C196.122 138.413 195.742 138.56 195.275 138.56ZM204.596 151.14C203.516 151.14 202.543 150.907 201.676 150.44C200.81 149.973 200.13 149.327 199.636 148.5C199.156 147.66 198.916 146.713 198.916 145.66C198.916 144.607 199.156 143.667 199.636 142.84C200.13 142.013 200.81 141.367 201.676 140.9C202.543 140.433 203.516 140.2 204.596 140.2C205.69 140.2 206.67 140.433 207.536 140.9C208.403 141.367 209.076 142.013 209.556 142.84C210.05 143.667 210.296 144.607 210.296 145.66C210.296 146.713 210.05 147.66 209.556 148.5C209.076 149.327 208.403 149.973 207.536 150.44C206.67 150.907 205.69 151.14 204.596 151.14ZM204.596 149C205.516 149 206.276 148.693 206.876 148.08C207.476 147.467 207.776 146.66 207.776 145.66C207.776 144.66 207.476 143.853 206.876 143.24C206.276 142.627 205.516 142.32 204.596 142.32C203.676 142.32 202.916 142.627 202.316 143.24C201.73 143.853 201.436 144.66 201.436 145.66C201.436 146.66 201.73 147.467 202.316 148.08C202.916 148.693 203.676 149 204.596 149ZM218.747 140.2C220.094 140.2 221.174 140.593 221.987 141.38C222.8 142.167 223.207 143.333 223.207 144.88V151H220.707V145.2C220.707 144.267 220.487 143.567 220.047 143.1C219.607 142.62 218.98 142.38 218.167 142.38C217.247 142.38 216.52 142.66 215.987 143.22C215.454 143.767 215.187 144.56 215.187 145.6V151H212.687V140.32H215.067V141.7C215.48 141.207 216 140.833 216.627 140.58C217.254 140.327 217.96 140.2 218.747 140.2Z" fill="white"/>
</g>
<defs>
<filter id="filter0_d" x="37.0862" y="39.02" width="258.957" height="150.86" filterUnits="userSpaceOnUse" color-interpolation-filters="sRGB">
<feFlood flood-opacity="0" result="BackgroundImageFix"/>
<feColorMatrix in="SourceAlpha" type="matrix" values="0 0 0 0 0 0 0 0 0 0 0 0 0 0 0 0 0 0 127 0"/>
<feOffset dy="4"/>
<feGaussianBlur stdDeviation="15"/>
<feColorMatrix type="matrix" values="0 0 0 0 0 0 0 0 0 0 0 0 0 0 0 0 0 0 1 0"/>
<feBlend mode="normal" in2="BackgroundImageFix" result="effect1_dropShadow"/>
<feBlend mode="normal" in="SourceGraphic" in2="effect1_dropShadow" result="shape"/>
</filter>
<filter id="filter1_d" x="0.0861816" y="0.0200043" width="334.957" height="226.86" filterUnits="userSpaceOnUse" color-interpolation-filters="sRGB">
<feFlood flood-opacity="0" result="BackgroundImageFix"/>
<feColorMatrix in="SourceAlpha" type="matrix" values="0 0 0 0 0 0 0 0 0 0 0 0 0 0 0 0 0 0 127 0"/>
<feOffset dy="4"/>
<feGaussianBlur stdDeviation="34"/>
<feColorMatrix type="matrix" values="0 0 0 0 0 0 0 0 0 0 0 0 0 0 0 0 0 0 1 0"/>
<feBlend mode="normal" in2="BackgroundImageFix" result="effect1_dropShadow"/>
<feBlend mode="normal" in="SourceGraphic" in2="effect1_dropShadow" result="shape"/>
</filter>
</defs>
</svg>
