<svg width="336" height="224" viewBox="0 0 336 224" fill="none" xmlns="http://www.w3.org/2000/svg">
<g filter="url(#filter0_d)">
<path d="M103.126 76.76H96.126L94.746 80H92.066L98.366 66H100.926L107.246 80H104.526L103.126 76.76ZM102.266 74.72L99.626 68.6L97.006 74.72H102.266ZM120.234 69.2C121.274 69.2 122.2 69.4267 123.014 69.88C123.84 70.3333 124.487 70.9733 124.954 71.8C125.42 72.6267 125.654 73.58 125.654 74.66C125.654 75.74 125.42 76.7 124.954 77.54C124.487 78.3667 123.84 79.0067 123.014 79.46C122.2 79.9133 121.274 80.14 120.234 80.14C118.794 80.14 117.654 79.66 116.814 78.7V83.88H114.314V69.32H116.694V70.72C117.107 70.2133 117.614 69.8333 118.214 69.58C118.827 69.3267 119.5 69.2 120.234 69.2ZM119.954 78C120.874 78 121.627 77.6933 122.214 77.08C122.814 76.4667 123.114 75.66 123.114 74.66C123.114 73.66 122.814 72.8533 122.214 72.24C121.627 71.6267 120.874 71.32 119.954 71.32C119.354 71.32 118.814 71.46 118.334 71.74C117.854 72.0067 117.474 72.3933 117.194 72.9C116.914 73.4067 116.774 73.9933 116.774 74.66C116.774 75.3267 116.914 75.9133 117.194 76.42C117.474 76.9267 117.854 77.32 118.334 77.6C118.814 77.8667 119.354 78 119.954 78ZM128.025 65.16H130.525V80H128.025V65.16ZM137.886 69.2C139.459 69.2 140.659 69.58 141.486 70.34C142.326 71.0867 142.746 72.22 142.746 73.74V80H140.386V78.7C140.079 79.1667 139.639 79.5267 139.066 79.78C138.506 80.02 137.826 80.14 137.026 80.14C136.226 80.14 135.526 80.0067 134.926 79.74C134.326 79.46 133.859 79.08 133.526 78.6C133.206 78.1067 133.046 77.5533 133.046 76.94C133.046 75.98 133.399 75.2133 134.106 74.64C134.826 74.0533 135.953 73.76 137.486 73.76H140.246V73.6C140.246 72.8533 140.019 72.28 139.566 71.88C139.126 71.48 138.466 71.28 137.586 71.28C136.986 71.28 136.393 71.3733 135.806 71.56C135.233 71.7467 134.746 72.0067 134.346 72.34L133.366 70.52C133.926 70.0933 134.599 69.7667 135.386 69.54C136.173 69.3133 137.006 69.2 137.886 69.2ZM137.546 78.32C138.173 78.32 138.726 78.18 139.206 77.9C139.699 77.6067 140.046 77.1933 140.246 76.66V75.42H137.666C136.226 75.42 135.506 75.8933 135.506 76.84C135.506 77.2933 135.686 77.6533 136.046 77.92C136.406 78.1867 136.906 78.32 137.546 78.32ZM152.374 79.42C152.081 79.66 151.721 79.84 151.294 79.96C150.881 80.08 150.441 80.14 149.974 80.14C148.801 80.14 147.894 79.8333 147.254 79.22C146.614 78.6067 146.294 77.7133 146.294 76.54V71.4H144.534V69.4H146.294V66.96H148.794V69.4H151.654V71.4H148.794V76.48C148.794 77 148.921 77.4 149.174 77.68C149.428 77.9467 149.794 78.08 150.274 78.08C150.834 78.08 151.301 77.9333 151.674 77.64L152.374 79.42ZM158.771 67.04C157.718 67.04 157.191 67.6133 157.191 68.76V69.4H160.131V71.4H157.271V80H154.771V71.4H153.011V69.4H154.771V68.72C154.771 67.5733 155.104 66.6733 155.771 66.02C156.438 65.3533 157.378 65.02 158.591 65.02C159.551 65.02 160.304 65.2133 160.851 65.6L160.151 67.48C159.724 67.1867 159.264 67.04 158.771 67.04ZM166.458 80.14C165.378 80.14 164.404 79.9067 163.538 79.44C162.671 78.9733 161.991 78.3267 161.498 77.5C161.018 76.66 160.778 75.7133 160.778 74.66C160.778 73.6067 161.018 72.6667 161.498 71.84C161.991 71.0133 162.671 70.3667 163.538 69.9C164.404 69.4333 165.378 69.2 166.458 69.2C167.551 69.2 168.531 69.4333 169.398 69.9C170.264 70.3667 170.938 71.0133 171.418 71.84C171.911 72.6667 172.158 73.6067 172.158 74.66C172.158 75.7133 171.911 76.66 171.418 77.5C170.938 78.3267 170.264 78.9733 169.398 79.44C168.531 79.9067 167.551 80.14 166.458 80.14ZM166.458 78C167.378 78 168.138 77.6933 168.738 77.08C169.338 76.4667 169.638 75.66 169.638 74.66C169.638 73.66 169.338 72.8533 168.738 72.24C168.138 71.6267 167.378 71.32 166.458 71.32C165.538 71.32 164.778 71.6267 164.178 72.24C163.591 72.8533 163.298 73.66 163.298 74.66C163.298 75.66 163.591 76.4667 164.178 77.08C164.778 77.6933 165.538 78 166.458 78ZM176.928 70.88C177.648 69.76 178.915 69.2 180.728 69.2V71.58C180.515 71.54 180.322 71.52 180.148 71.52C179.175 71.52 178.415 71.8067 177.868 72.38C177.322 72.94 177.048 73.7533 177.048 74.82V80H174.548V69.32H176.928V70.88ZM196.329 69.2C197.676 69.2 198.742 69.5933 199.529 70.38C200.316 71.1533 200.709 72.32 200.709 73.88V80H198.209V74.2C198.209 73.2667 198.002 72.5667 197.589 72.1C197.176 71.62 196.582 71.38 195.809 71.38C194.969 71.38 194.296 71.66 193.789 72.22C193.282 72.7667 193.029 73.5533 193.029 74.58V80H190.529V74.2C190.529 73.2667 190.322 72.5667 189.909 72.1C189.496 71.62 188.902 71.38 188.129 71.38C187.276 71.38 186.596 71.6533 186.089 72.2C185.596 72.7467 185.349 73.54 185.349 74.58V80H182.849V69.32H185.229V70.68C185.629 70.2 186.129 69.8333 186.729 69.58C187.329 69.3267 187.996 69.2 188.729 69.2C189.529 69.2 190.236 69.3533 190.849 69.66C191.476 69.9533 191.969 70.3933 192.329 70.98C192.769 70.42 193.336 69.9867 194.029 69.68C194.722 69.36 195.489 69.2 196.329 69.2ZM213.771 67.04C212.718 67.04 212.191 67.6133 212.191 68.76V69.4H215.131V71.4H212.271V80H209.771V71.4H208.011V69.4H209.771V68.72C209.771 67.5733 210.104 66.6733 210.771 66.02C211.438 65.3533 212.378 65.02 213.591 65.02C214.551 65.02 215.304 65.2133 215.851 65.6L215.151 67.48C214.724 67.1867 214.264 67.04 213.771 67.04ZM221.458 80.14C220.378 80.14 219.404 79.9067 218.538 79.44C217.671 78.9733 216.991 78.3267 216.498 77.5C216.018 76.66 215.778 75.7133 215.778 74.66C215.778 73.6067 216.018 72.6667 216.498 71.84C216.991 71.0133 217.671 70.3667 218.538 69.9C219.404 69.4333 220.378 69.2 221.458 69.2C222.551 69.2 223.531 69.4333 224.398 69.9C225.264 70.3667 225.938 71.0133 226.418 71.84C226.911 72.6667 227.158 73.6067 227.158 74.66C227.158 75.7133 226.911 76.66 226.418 77.5C225.938 78.3267 225.264 78.9733 224.398 79.44C223.531 79.9067 222.551 80.14 221.458 80.14ZM221.458 78C222.378 78 223.138 77.6933 223.738 77.08C224.338 76.4667 224.638 75.66 224.638 74.66C224.638 73.66 224.338 72.8533 223.738 72.24C223.138 71.6267 222.378 71.32 221.458 71.32C220.538 71.32 219.778 71.6267 219.178 72.24C218.591 72.8533 218.298 73.66 218.298 74.66C218.298 75.66 218.591 76.4667 219.178 77.08C219.778 77.6933 220.538 78 221.458 78ZM231.928 70.88C232.648 69.76 233.915 69.2 235.728 69.2V71.58C235.515 71.54 235.322 71.52 235.148 71.52C234.175 71.52 233.415 71.8067 232.868 72.38C232.322 72.94 232.048 73.7533 232.048 74.82V80H229.548V69.32H231.928V70.88ZM72.8662 104.14C71.7595 104.14 70.7662 103.907 69.8862 103.44C69.0062 102.973 68.3195 102.327 67.8262 101.5C67.3328 100.66 67.0862 99.7133 67.0862 98.66C67.0862 97.6067 67.3328 96.6667 67.8262 95.84C68.3195 95.0133 68.9995 94.3667 69.8662 93.9C70.7462 93.4333 71.7462 93.2 72.8662 93.2C73.9195 93.2 74.8395 93.4133 75.6262 93.84C76.4262 94.2667 77.0262 94.88 77.4262 95.68L75.5062 96.8C75.1995 96.3067 74.8128 95.94 74.3462 95.7C73.8928 95.4467 73.3928 95.32 72.8462 95.32C71.9128 95.32 71.1395 95.6267 70.5262 96.24C69.9128 96.84 69.6062 97.6467 69.6062 98.66C69.6062 99.6733 69.9062 100.487 70.5062 101.1C71.1195 101.7 71.8995 102 72.8462 102C73.3928 102 73.8928 101.88 74.3462 101.64C74.8128 101.387 75.1995 101.013 75.5062 100.52L77.4262 101.64C77.0128 102.44 76.4062 103.06 75.6062 103.5C74.8195 103.927 73.9062 104.14 72.8662 104.14ZM84.231 104.14C83.151 104.14 82.1777 103.907 81.311 103.44C80.4443 102.973 79.7643 102.327 79.271 101.5C78.791 100.66 78.551 99.7133 78.551 98.66C78.551 97.6067 78.791 96.6667 79.271 95.84C79.7643 95.0133 80.4443 94.3667 81.311 93.9C82.1777 93.4333 83.151 93.2 84.231 93.2C85.3243 93.2 86.3043 93.4333 87.171 93.9C88.0377 94.3667 88.711 95.0133 89.191 95.84C89.6844 96.6667 89.931 97.6067 89.931 98.66C89.931 99.7133 89.6844 100.66 89.191 101.5C88.711 102.327 88.0377 102.973 87.171 103.44C86.3043 103.907 85.3243 104.14 84.231 104.14ZM84.231 102C85.151 102 85.911 101.693 86.511 101.08C87.111 100.467 87.411 99.66 87.411 98.66C87.411 97.66 87.111 96.8533 86.511 96.24C85.911 95.6267 85.151 95.32 84.231 95.32C83.311 95.32 82.551 95.6267 81.951 96.24C81.3643 96.8533 81.071 97.66 81.071 98.66C81.071 99.66 81.3643 100.467 81.951 101.08C82.551 101.693 83.311 102 84.231 102ZM105.802 93.2C107.148 93.2 108.215 93.5933 109.002 94.38C109.788 95.1533 110.182 96.32 110.182 97.88V104H107.682V98.2C107.682 97.2667 107.475 96.5667 107.062 96.1C106.648 95.62 106.055 95.38 105.282 95.38C104.442 95.38 103.768 95.66 103.262 96.22C102.755 96.7667 102.502 97.5533 102.502 98.58V104H100.002V98.2C100.002 97.2667 99.795 96.5667 99.3816 96.1C98.9683 95.62 98.375 95.38 97.6016 95.38C96.7483 95.38 96.0683 95.6533 95.5616 96.2C95.0683 96.7467 94.8216 97.54 94.8216 98.58V104H92.3216V93.32H94.7016V94.68C95.1016 94.2 95.6016 93.8333 96.2016 93.58C96.8016 93.3267 97.4683 93.2 98.2016 93.2C99.0016 93.2 99.7083 93.3533 100.322 93.66C100.948 93.9533 101.442 94.3933 101.802 94.98C102.242 94.42 102.808 93.9867 103.502 93.68C104.195 93.36 104.962 93.2 105.802 93.2ZM126.856 93.2C128.203 93.2 129.27 93.5933 130.056 94.38C130.843 95.1533 131.236 96.32 131.236 97.88V104H128.736V98.2C128.736 97.2667 128.53 96.5667 128.116 96.1C127.703 95.62 127.11 95.38 126.336 95.38C125.496 95.38 124.823 95.66 124.316 96.22C123.81 96.7667 123.556 97.5533 123.556 98.58V104H121.056V98.2C121.056 97.2667 120.85 96.5667 120.436 96.1C120.023 95.62 119.43 95.38 118.656 95.38C117.803 95.38 117.123 95.6533 116.616 96.2C116.123 96.7467 115.876 97.54 115.876 98.58V104H113.376V93.32H115.756V94.68C116.156 94.2 116.656 93.8333 117.256 93.58C117.856 93.3267 118.523 93.2 119.256 93.2C120.056 93.2 120.763 93.3533 121.376 93.66C122.003 93.9533 122.496 94.3933 122.856 94.98C123.296 94.42 123.863 93.9867 124.556 93.68C125.25 93.36 126.016 93.2 126.856 93.2ZM144.771 93.32V104H142.391V102.64C141.991 103.12 141.491 103.493 140.891 103.76C140.291 104.013 139.644 104.14 138.951 104.14C137.524 104.14 136.398 103.747 135.571 102.96C134.758 102.16 134.351 100.98 134.351 99.42V93.32H136.851V99.08C136.851 100.04 137.064 100.76 137.491 101.24C137.931 101.707 138.551 101.94 139.351 101.94C140.244 101.94 140.951 101.667 141.471 101.12C142.004 100.56 142.271 99.76 142.271 98.72V93.32H144.771ZM154.104 93.2C155.451 93.2 156.531 93.5933 157.344 94.38C158.158 95.1667 158.564 96.3333 158.564 97.88V104H156.064V98.2C156.064 97.2667 155.844 96.5667 155.404 96.1C154.964 95.62 154.338 95.38 153.524 95.38C152.604 95.38 151.878 95.66 151.344 96.22C150.811 96.7667 150.544 97.56 150.544 98.6V104H148.044V93.32H150.424V94.7C150.838 94.2067 151.358 93.8333 151.984 93.58C152.611 93.3267 153.318 93.2 154.104 93.2ZM161.736 93.32H164.236V104H161.736V93.32ZM162.996 91.56C162.542 91.56 162.162 91.42 161.856 91.14C161.549 90.8467 161.396 90.4867 161.396 90.06C161.396 89.6333 161.549 89.28 161.856 89C162.162 88.7067 162.542 88.56 162.996 88.56C163.449 88.56 163.829 88.7 164.136 88.98C164.442 89.2467 164.596 89.5867 164.596 90C164.596 90.44 164.442 90.8133 164.136 91.12C163.842 91.4133 163.462 91.56 162.996 91.56ZM172.417 104.14C171.31 104.14 170.317 103.907 169.437 103.44C168.557 102.973 167.87 102.327 167.377 101.5C166.884 100.66 166.637 99.7133 166.637 98.66C166.637 97.6067 166.884 96.6667 167.377 95.84C167.87 95.0133 168.55 94.3667 169.417 93.9C170.297 93.4333 171.297 93.2 172.417 93.2C173.47 93.2 174.39 93.4133 175.177 93.84C175.977 94.2667 176.577 94.88 176.977 95.68L175.057 96.8C174.75 96.3067 174.364 95.94 173.897 95.7C173.444 95.4467 172.944 95.32 172.397 95.32C171.464 95.32 170.69 95.6267 170.077 96.24C169.464 96.84 169.157 97.6467 169.157 98.66C169.157 99.6733 169.457 100.487 170.057 101.1C170.67 101.7 171.45 102 172.397 102C172.944 102 173.444 101.88 173.897 101.64C174.364 101.387 174.75 101.013 175.057 100.52L176.977 101.64C176.564 102.44 175.957 103.06 175.157 103.5C174.37 103.927 173.457 104.14 172.417 104.14ZM183.218 93.2C184.791 93.2 185.991 93.58 186.818 94.34C187.658 95.0867 188.078 96.22 188.078 97.74V104H185.718V102.7C185.411 103.167 184.971 103.527 184.398 103.78C183.838 104.02 183.158 104.14 182.358 104.14C181.558 104.14 180.858 104.007 180.258 103.74C179.658 103.46 179.191 103.08 178.858 102.6C178.538 102.107 178.378 101.553 178.378 100.94C178.378 99.98 178.731 99.2133 179.438 98.64C180.158 98.0533 181.285 97.76 182.818 97.76H185.578V97.6C185.578 96.8533 185.351 96.28 184.898 95.88C184.458 95.48 183.798 95.28 182.918 95.28C182.318 95.28 181.725 95.3733 181.138 95.56C180.565 95.7467 180.078 96.0067 179.678 96.34L178.698 94.52C179.258 94.0933 179.931 93.7667 180.718 93.54C181.505 93.3133 182.338 93.2 183.218 93.2ZM182.878 102.32C183.505 102.32 184.058 102.18 184.538 101.9C185.031 101.607 185.378 101.193 185.578 100.66V99.42H182.998C181.558 99.42 180.838 99.8933 180.838 100.84C180.838 101.293 181.018 101.653 181.378 101.92C181.738 102.187 182.238 102.32 182.878 102.32ZM197.706 103.42C197.413 103.66 197.053 103.84 196.626 103.96C196.213 104.08 195.773 104.14 195.306 104.14C194.133 104.14 193.226 103.833 192.586 103.22C191.946 102.607 191.626 101.713 191.626 100.54V95.4H189.866V93.4H191.626V90.96H194.126V93.4H196.986V95.4H194.126V100.48C194.126 101 194.253 101.4 194.506 101.68C194.76 101.947 195.126 102.08 195.606 102.08C196.166 102.08 196.633 101.933 197.006 101.64L197.706 103.42ZM199.763 93.32H202.263V104H199.763V93.32ZM201.023 91.56C200.57 91.56 200.19 91.42 199.883 91.14C199.576 90.8467 199.423 90.4867 199.423 90.06C199.423 89.6333 199.576 89.28 199.883 89C200.19 88.7067 200.57 88.56 201.023 88.56C201.476 88.56 201.856 88.7 202.163 88.98C202.47 89.2467 202.623 89.5867 202.623 90C202.623 90.44 202.47 90.8133 202.163 91.12C201.87 91.4133 201.49 91.56 201.023 91.56ZM210.344 104.14C209.264 104.14 208.291 103.907 207.424 103.44C206.558 102.973 205.878 102.327 205.384 101.5C204.904 100.66 204.664 99.7133 204.664 98.66C204.664 97.6067 204.904 96.6667 205.384 95.84C205.878 95.0133 206.558 94.3667 207.424 93.9C208.291 93.4333 209.264 93.2 210.344 93.2C211.438 93.2 212.418 93.4333 213.284 93.9C214.151 94.3667 214.824 95.0133 215.304 95.84C215.798 96.6667 216.044 97.6067 216.044 98.66C216.044 99.7133 215.798 100.66 215.304 101.5C214.824 102.327 214.151 102.973 213.284 103.44C212.418 103.907 211.438 104.14 210.344 104.14ZM210.344 102C211.264 102 212.024 101.693 212.624 101.08C213.224 100.467 213.524 99.66 213.524 98.66C213.524 97.66 213.224 96.8533 212.624 96.24C212.024 95.6267 211.264 95.32 210.344 95.32C209.424 95.32 208.664 95.6267 208.064 96.24C207.478 96.8533 207.184 97.66 207.184 98.66C207.184 99.66 207.478 100.467 208.064 101.08C208.664 101.693 209.424 102 210.344 102ZM224.495 93.2C225.842 93.2 226.922 93.5933 227.735 94.38C228.548 95.1667 228.955 96.3333 228.955 97.88V104H226.455V98.2C226.455 97.2667 226.235 96.5667 225.795 96.1C225.355 95.62 224.728 95.38 223.915 95.38C222.995 95.38 222.268 95.66 221.735 96.22C221.202 96.7667 220.935 97.56 220.935 98.6V104H218.435V93.32H220.815V94.7C221.228 94.2067 221.748 93.8333 222.375 93.58C223.002 93.3267 223.708 93.2 224.495 93.2ZM241.734 93.2C243.307 93.2 244.507 93.58 245.334 94.34C246.174 95.0867 246.594 96.22 246.594 97.74V104H244.234V102.7C243.927 103.167 243.487 103.527 242.914 103.78C242.354 104.02 241.674 104.14 240.874 104.14C240.074 104.14 239.374 104.007 238.774 103.74C238.174 103.46 237.707 103.08 237.374 102.6C237.054 102.107 236.894 101.553 236.894 100.94C236.894 99.98 237.247 99.2133 237.954 98.64C238.674 98.0533 239.8 97.76 241.334 97.76H244.094V97.6C244.094 96.8533 243.867 96.28 243.414 95.88C242.974 95.48 242.314 95.28 241.434 95.28C240.834 95.28 240.24 95.3733 239.654 95.56C239.08 95.7467 238.594 96.0067 238.194 96.34L237.214 94.52C237.774 94.0933 238.447 93.7667 239.234 93.54C240.02 93.3133 240.854 93.2 241.734 93.2ZM241.394 102.32C242.02 102.32 242.574 102.18 243.054 101.9C243.547 101.607 243.894 101.193 244.094 100.66V99.42H241.514C240.074 99.42 239.354 99.8933 239.354 100.84C239.354 101.293 239.534 101.653 239.894 101.92C240.254 102.187 240.754 102.32 241.394 102.32ZM249.802 93.32H252.302V104H249.802V93.32ZM251.062 91.56C250.609 91.56 250.229 91.42 249.922 91.14C249.615 90.8467 249.462 90.4867 249.462 90.06C249.462 89.6333 249.615 89.28 249.922 89C250.229 88.7067 250.609 88.56 251.062 88.56C251.515 88.56 251.895 88.7 252.202 88.98C252.509 89.2467 252.662 89.5867 252.662 90C252.662 90.44 252.509 90.8133 252.202 91.12C251.909 91.4133 251.529 91.56 251.062 91.56ZM266.043 89.16V104H263.643V102.62C263.23 103.127 262.717 103.507 262.103 103.76C261.503 104.013 260.837 104.14 260.103 104.14C259.077 104.14 258.15 103.913 257.323 103.46C256.51 103.007 255.87 102.367 255.403 101.54C254.937 100.7 254.703 99.74 254.703 98.66C254.703 97.58 254.937 96.6267 255.403 95.8C255.87 94.9733 256.51 94.3333 257.323 93.88C258.15 93.4267 259.077 93.2 260.103 93.2C260.81 93.2 261.457 93.32 262.043 93.56C262.63 93.8 263.13 94.16 263.543 94.64V89.16H266.043ZM260.403 102C261.003 102 261.543 101.867 262.023 101.6C262.503 101.32 262.883 100.927 263.163 100.42C263.443 99.9133 263.583 99.3267 263.583 98.66C263.583 97.9933 263.443 97.4067 263.163 96.9C262.883 96.3933 262.503 96.0067 262.023 95.74C261.543 95.46 261.003 95.32 260.403 95.32C259.803 95.32 259.263 95.46 258.783 95.74C258.303 96.0067 257.923 96.3933 257.643 96.9C257.363 97.4067 257.223 97.9933 257.223 98.66C257.223 99.3267 257.363 99.9133 257.643 100.42C257.923 100.927 258.303 101.32 258.783 101.6C259.263 101.867 259.803 102 260.403 102ZM106.897 128.14C105.817 128.14 104.844 127.907 103.977 127.44C103.11 126.973 102.43 126.327 101.937 125.5C101.457 124.66 101.217 123.713 101.217 122.66C101.217 121.607 101.457 120.667 101.937 119.84C102.43 119.013 103.11 118.367 103.977 117.9C104.844 117.433 105.817 117.2 106.897 117.2C107.99 117.2 108.97 117.433 109.837 117.9C110.704 118.367 111.377 119.013 111.857 119.84C112.35 120.667 112.597 121.607 112.597 122.66C112.597 123.713 112.35 124.66 111.857 125.5C111.377 126.327 110.704 126.973 109.837 127.44C108.97 127.907 107.99 128.14 106.897 128.14ZM106.897 126C107.817 126 108.577 125.693 109.177 125.08C109.777 124.467 110.077 123.66 110.077 122.66C110.077 121.66 109.777 120.853 109.177 120.24C108.577 119.627 107.817 119.32 106.897 119.32C105.977 119.32 105.217 119.627 104.617 120.24C104.03 120.853 103.737 121.66 103.737 122.66C103.737 123.66 104.03 124.467 104.617 125.08C105.217 125.693 105.977 126 106.897 126ZM119.328 115.04C118.274 115.04 117.748 115.613 117.748 116.76V117.4H120.688V119.4H117.828V128H115.328V119.4H113.568V117.4H115.328V116.72C115.328 115.573 115.661 114.673 116.328 114.02C116.994 113.353 117.934 113.02 119.148 113.02C120.108 113.02 120.861 113.213 121.408 113.6L120.708 115.48C120.281 115.187 119.821 115.04 119.328 115.04ZM138.358 113.16V128H135.958V126.62C135.544 127.127 135.031 127.507 134.418 127.76C133.818 128.013 133.151 128.14 132.418 128.14C131.391 128.14 130.464 127.913 129.638 127.46C128.824 127.007 128.184 126.367 127.718 125.54C127.251 124.7 127.018 123.74 127.018 122.66C127.018 121.58 127.251 120.627 127.718 119.8C128.184 118.973 128.824 118.333 129.638 117.88C130.464 117.427 131.391 117.2 132.418 117.2C133.124 117.2 133.771 117.32 134.358 117.56C134.944 117.8 135.444 118.16 135.858 118.64V113.16H138.358ZM132.718 126C133.318 126 133.858 125.867 134.338 125.6C134.818 125.32 135.198 124.927 135.478 124.42C135.758 123.913 135.898 123.327 135.898 122.66C135.898 121.993 135.758 121.407 135.478 120.9C135.198 120.393 134.818 120.007 134.338 119.74C133.858 119.46 133.318 119.32 132.718 119.32C132.118 119.32 131.578 119.46 131.098 119.74C130.618 120.007 130.238 120.393 129.958 120.9C129.678 121.407 129.538 121.993 129.538 122.66C129.538 123.327 129.678 123.913 129.958 124.42C130.238 124.927 130.618 125.32 131.098 125.6C131.578 125.867 132.118 126 132.718 126ZM151.668 122.72C151.668 122.893 151.655 123.14 151.628 123.46H143.248C143.395 124.247 143.775 124.873 144.388 125.34C145.015 125.793 145.788 126.02 146.708 126.02C147.882 126.02 148.848 125.633 149.608 124.86L150.948 126.4C150.468 126.973 149.862 127.407 149.128 127.7C148.395 127.993 147.568 128.14 146.648 128.14C145.475 128.14 144.442 127.907 143.548 127.44C142.655 126.973 141.962 126.327 141.468 125.5C140.988 124.66 140.748 123.713 140.748 122.66C140.748 121.62 140.982 120.687 141.448 119.86C141.928 119.02 142.588 118.367 143.428 117.9C144.268 117.433 145.215 117.2 146.268 117.2C147.308 117.2 148.235 117.433 149.048 117.9C149.875 118.353 150.515 119 150.968 119.84C151.435 120.667 151.668 121.627 151.668 122.72ZM146.268 119.2C145.468 119.2 144.788 119.44 144.228 119.92C143.682 120.387 143.348 121.013 143.228 121.8H149.288C149.182 121.027 148.855 120.4 148.308 119.92C147.762 119.44 147.082 119.2 146.268 119.2ZM159.99 117.2C161.03 117.2 161.956 117.427 162.77 117.88C163.596 118.333 164.243 118.973 164.71 119.8C165.176 120.627 165.41 121.58 165.41 122.66C165.41 123.74 165.176 124.7 164.71 125.54C164.243 126.367 163.596 127.007 162.77 127.46C161.956 127.913 161.03 128.14 159.99 128.14C158.55 128.14 157.41 127.66 156.57 126.7V131.88H154.07V117.32H156.45V118.72C156.863 118.213 157.37 117.833 157.97 117.58C158.583 117.327 159.256 117.2 159.99 117.2ZM159.71 126C160.63 126 161.383 125.693 161.97 125.08C162.57 124.467 162.87 123.66 162.87 122.66C162.87 121.66 162.57 120.853 161.97 120.24C161.383 119.627 160.63 119.32 159.71 119.32C159.11 119.32 158.57 119.46 158.09 119.74C157.61 120.007 157.23 120.393 156.95 120.9C156.67 121.407 156.53 121.993 156.53 122.66C156.53 123.327 156.67 123.913 156.95 124.42C157.23 124.927 157.61 125.32 158.09 125.6C158.57 125.867 159.11 126 159.71 126ZM170.161 118.88C170.881 117.76 172.147 117.2 173.961 117.2V119.58C173.747 119.54 173.554 119.52 173.381 119.52C172.407 119.52 171.647 119.807 171.101 120.38C170.554 120.94 170.281 121.753 170.281 122.82V128H167.781V117.32H170.161V118.88ZM186.024 122.72C186.024 122.893 186.01 123.14 185.984 123.46H177.604C177.75 124.247 178.13 124.873 178.744 125.34C179.37 125.793 180.144 126.02 181.064 126.02C182.237 126.02 183.204 125.633 183.964 124.86L185.304 126.4C184.824 126.973 184.217 127.407 183.484 127.7C182.75 127.993 181.924 128.14 181.004 128.14C179.83 128.14 178.797 127.907 177.904 127.44C177.01 126.973 176.317 126.327 175.824 125.5C175.344 124.66 175.104 123.713 175.104 122.66C175.104 121.62 175.337 120.687 175.804 119.86C176.284 119.02 176.944 118.367 177.784 117.9C178.624 117.433 179.57 117.2 180.624 117.2C181.664 117.2 182.59 117.433 183.404 117.9C184.23 118.353 184.87 119 185.324 119.84C185.79 120.667 186.024 121.627 186.024 122.72ZM180.624 119.2C179.824 119.2 179.144 119.44 178.584 119.92C178.037 120.387 177.704 121.013 177.584 121.8H183.644C183.537 121.027 183.21 120.4 182.664 119.92C182.117 119.44 181.437 119.2 180.624 119.2ZM191.725 128.14C190.858 128.14 190.012 128.027 189.185 127.8C188.358 127.573 187.698 127.287 187.205 126.94L188.165 125.04C188.645 125.36 189.218 125.62 189.885 125.82C190.565 126.007 191.232 126.1 191.885 126.1C193.378 126.1 194.125 125.707 194.125 124.92C194.125 124.547 193.932 124.287 193.545 124.14C193.172 123.993 192.565 123.853 191.725 123.72C190.845 123.587 190.125 123.433 189.565 123.26C189.018 123.087 188.538 122.787 188.125 122.36C187.725 121.92 187.525 121.313 187.525 120.54C187.525 119.527 187.945 118.72 188.785 118.12C189.638 117.507 190.785 117.2 192.225 117.2C192.958 117.2 193.692 117.287 194.425 117.46C195.158 117.62 195.758 117.84 196.225 118.12L195.265 120.02C194.358 119.487 193.338 119.22 192.205 119.22C191.472 119.22 190.912 119.333 190.525 119.56C190.152 119.773 189.965 120.06 189.965 120.42C189.965 120.82 190.165 121.107 190.565 121.28C190.978 121.44 191.612 121.593 192.465 121.74C193.318 121.873 194.018 122.027 194.565 122.2C195.112 122.373 195.578 122.667 195.965 123.08C196.365 123.493 196.565 124.08 196.565 124.84C196.565 125.84 196.132 126.64 195.265 127.24C194.398 127.84 193.218 128.14 191.725 128.14ZM202.018 128.14C201.151 128.14 200.305 128.027 199.478 127.8C198.651 127.573 197.991 127.287 197.498 126.94L198.458 125.04C198.938 125.36 199.511 125.62 200.178 125.82C200.858 126.007 201.525 126.1 202.178 126.1C203.671 126.1 204.418 125.707 204.418 124.92C204.418 124.547 204.225 124.287 203.838 124.14C203.465 123.993 202.858 123.853 202.018 123.72C201.138 123.587 200.418 123.433 199.858 123.26C199.311 123.087 198.831 122.787 198.418 122.36C198.018 121.92 197.818 121.313 197.818 120.54C197.818 119.527 198.238 118.72 199.078 118.12C199.931 117.507 201.078 117.2 202.518 117.2C203.251 117.2 203.985 117.287 204.718 117.46C205.451 117.62 206.051 117.84 206.518 118.12L205.558 120.02C204.651 119.487 203.631 119.22 202.498 119.22C201.765 119.22 201.205 119.333 200.818 119.56C200.445 119.773 200.258 120.06 200.258 120.42C200.258 120.82 200.458 121.107 200.858 121.28C201.271 121.44 201.905 121.593 202.758 121.74C203.611 121.873 204.311 122.027 204.858 122.2C205.405 122.373 205.871 122.667 206.258 123.08C206.658 123.493 206.858 124.08 206.858 124.84C206.858 125.84 206.425 126.64 205.558 127.24C204.691 127.84 203.511 128.14 202.018 128.14ZM219.051 122.72C219.051 122.893 219.038 123.14 219.011 123.46H210.631C210.778 124.247 211.158 124.873 211.771 125.34C212.398 125.793 213.171 126.02 214.091 126.02C215.264 126.02 216.231 125.633 216.991 124.86L218.331 126.4C217.851 126.973 217.244 127.407 216.511 127.7C215.778 127.993 214.951 128.14 214.031 128.14C212.858 128.14 211.824 127.907 210.931 127.44C210.038 126.973 209.344 126.327 208.851 125.5C208.371 124.66 208.131 123.713 208.131 122.66C208.131 121.62 208.364 120.687 208.831 119.86C209.311 119.02 209.971 118.367 210.811 117.9C211.651 117.433 212.598 117.2 213.651 117.2C214.691 117.2 215.618 117.433 216.431 117.9C217.258 118.353 217.898 119 218.351 119.84C218.818 120.667 219.051 121.627 219.051 122.72ZM213.651 119.2C212.851 119.2 212.171 119.44 211.611 119.92C211.064 120.387 210.731 121.013 210.611 121.8H216.671C216.564 121.027 216.238 120.4 215.691 119.92C215.144 119.44 214.464 119.2 213.651 119.2ZM231.913 113.16V128H229.513V126.62C229.099 127.127 228.586 127.507 227.973 127.76C227.373 128.013 226.706 128.14 225.973 128.14C224.946 128.14 224.019 127.913 223.193 127.46C222.379 127.007 221.739 126.367 221.273 125.54C220.806 124.7 220.573 123.74 220.573 122.66C220.573 121.58 220.806 120.627 221.273 119.8C221.739 118.973 222.379 118.333 223.193 117.88C224.019 117.427 224.946 117.2 225.973 117.2C226.679 117.2 227.326 117.32 227.913 117.56C228.499 117.8 228.999 118.16 229.413 118.64V113.16H231.913ZM226.273 126C226.873 126 227.413 125.867 227.893 125.6C228.373 125.32 228.753 124.927 229.033 124.42C229.313 123.913 229.453 123.327 229.453 122.66C229.453 121.993 229.313 121.407 229.033 120.9C228.753 120.393 228.373 120.007 227.893 119.74C227.413 119.46 226.873 119.32 226.273 119.32C225.673 119.32 225.133 119.46 224.653 119.74C224.173 120.007 223.793 120.393 223.513 120.9C223.233 121.407 223.093 121.993 223.093 122.66C223.093 123.327 223.233 123.913 223.513 124.42C223.793 124.927 224.173 125.32 224.653 125.6C225.133 125.867 225.673 126 226.273 126ZM110.845 141.2C112.418 141.2 113.618 141.58 114.445 142.34C115.285 143.087 115.705 144.22 115.705 145.74V152H113.345V150.7C113.038 151.167 112.598 151.527 112.025 151.78C111.465 152.02 110.785 152.14 109.985 152.14C109.185 152.14 108.485 152.007 107.885 151.74C107.285 151.46 106.818 151.08 106.485 150.6C106.165 150.107 106.005 149.553 106.005 148.94C106.005 147.98 106.358 147.213 107.065 146.64C107.785 146.053 108.912 145.76 110.445 145.76H113.205V145.6C113.205 144.853 112.978 144.28 112.525 143.88C112.085 143.48 111.425 143.28 110.545 143.28C109.945 143.28 109.352 143.373 108.765 143.56C108.192 143.747 107.705 144.007 107.305 144.34L106.325 142.52C106.885 142.093 107.558 141.767 108.345 141.54C109.132 141.313 109.965 141.2 110.845 141.2ZM110.505 150.32C111.132 150.32 111.685 150.18 112.165 149.9C112.658 149.607 113.005 149.193 113.205 148.66V147.42H110.625C109.185 147.42 108.465 147.893 108.465 148.84C108.465 149.293 108.645 149.653 109.005 149.92C109.365 150.187 109.865 150.32 110.505 150.32ZM129.471 137.16V152H127.071V150.62C126.658 151.127 126.144 151.507 125.531 151.76C124.931 152.013 124.264 152.14 123.531 152.14C122.504 152.14 121.578 151.913 120.751 151.46C119.938 151.007 119.298 150.367 118.831 149.54C118.364 148.7 118.131 147.74 118.131 146.66C118.131 145.58 118.364 144.627 118.831 143.8C119.298 142.973 119.938 142.333 120.751 141.88C121.578 141.427 122.504 141.2 123.531 141.2C124.238 141.2 124.884 141.32 125.471 141.56C126.058 141.8 126.558 142.16 126.971 142.64V137.16H129.471ZM123.831 150C124.431 150 124.971 149.867 125.451 149.6C125.931 149.32 126.311 148.927 126.591 148.42C126.871 147.913 127.011 147.327 127.011 146.66C127.011 145.993 126.871 145.407 126.591 144.9C126.311 144.393 125.931 144.007 125.451 143.74C124.971 143.46 124.431 143.32 123.831 143.32C123.231 143.32 122.691 143.46 122.211 143.74C121.731 144.007 121.351 144.393 121.071 144.9C120.791 145.407 120.651 145.993 120.651 146.66C120.651 147.327 120.791 147.913 121.071 148.42C121.351 148.927 121.731 149.32 122.211 149.6C122.691 149.867 123.231 150 123.831 150ZM137.542 152.14C136.462 152.14 135.488 151.907 134.622 151.44C133.755 150.973 133.075 150.327 132.582 149.5C132.102 148.66 131.862 147.713 131.862 146.66C131.862 145.607 132.102 144.667 132.582 143.84C133.075 143.013 133.755 142.367 134.622 141.9C135.488 141.433 136.462 141.2 137.542 141.2C138.635 141.2 139.615 141.433 140.482 141.9C141.348 142.367 142.022 143.013 142.502 143.84C142.995 144.667 143.242 145.607 143.242 146.66C143.242 147.713 142.995 148.66 142.502 149.5C142.022 150.327 141.348 150.973 140.482 151.44C139.615 151.907 138.635 152.14 137.542 152.14ZM137.542 150C138.462 150 139.222 149.693 139.822 149.08C140.422 148.467 140.722 147.66 140.722 146.66C140.722 145.66 140.422 144.853 139.822 144.24C139.222 143.627 138.462 143.32 137.542 143.32C136.622 143.32 135.862 143.627 135.262 144.24C134.675 144.853 134.382 145.66 134.382 146.66C134.382 147.66 134.675 148.467 135.262 149.08C135.862 149.693 136.622 150 137.542 150ZM145.632 137.16H148.132V152H145.632V137.16ZM161.453 146.72C161.453 146.893 161.44 147.14 161.413 147.46H153.033C153.18 148.247 153.56 148.873 154.173 149.34C154.8 149.793 155.573 150.02 156.493 150.02C157.667 150.02 158.633 149.633 159.393 148.86L160.733 150.4C160.253 150.973 159.647 151.407 158.913 151.7C158.18 151.993 157.353 152.14 156.433 152.14C155.26 152.14 154.227 151.907 153.333 151.44C152.44 150.973 151.747 150.327 151.253 149.5C150.773 148.66 150.533 147.713 150.533 146.66C150.533 145.62 150.767 144.687 151.233 143.86C151.713 143.02 152.373 142.367 153.213 141.9C154.053 141.433 155 141.2 156.053 141.2C157.093 141.2 158.02 141.433 158.833 141.9C159.66 142.353 160.3 143 160.753 143.84C161.22 144.667 161.453 145.627 161.453 146.72ZM156.053 143.2C155.253 143.2 154.573 143.44 154.013 143.92C153.467 144.387 153.133 145.013 153.013 145.8H159.073C158.967 145.027 158.64 144.4 158.093 143.92C157.547 143.44 156.867 143.2 156.053 143.2ZM167.155 152.14C166.288 152.14 165.442 152.027 164.615 151.8C163.788 151.573 163.128 151.287 162.635 150.94L163.595 149.04C164.075 149.36 164.648 149.62 165.315 149.82C165.995 150.007 166.662 150.1 167.315 150.1C168.808 150.1 169.555 149.707 169.555 148.92C169.555 148.547 169.362 148.287 168.975 148.14C168.602 147.993 167.995 147.853 167.155 147.72C166.275 147.587 165.555 147.433 164.995 147.26C164.448 147.087 163.968 146.787 163.555 146.36C163.155 145.92 162.955 145.313 162.955 144.54C162.955 143.527 163.375 142.72 164.215 142.12C165.068 141.507 166.215 141.2 167.655 141.2C168.388 141.2 169.122 141.287 169.855 141.46C170.588 141.62 171.188 141.84 171.655 142.12L170.695 144.02C169.788 143.487 168.768 143.22 167.635 143.22C166.902 143.22 166.342 143.333 165.955 143.56C165.582 143.773 165.395 144.06 165.395 144.42C165.395 144.82 165.595 145.107 165.995 145.28C166.408 145.44 167.042 145.593 167.895 145.74C168.748 145.873 169.448 146.027 169.995 146.2C170.542 146.373 171.008 146.667 171.395 147.08C171.795 147.493 171.995 148.08 171.995 148.84C171.995 149.84 171.562 150.64 170.695 151.24C169.828 151.84 168.648 152.14 167.155 152.14ZM179.048 152.14C177.941 152.14 176.948 151.907 176.068 151.44C175.188 150.973 174.501 150.327 174.008 149.5C173.514 148.66 173.268 147.713 173.268 146.66C173.268 145.607 173.514 144.667 174.008 143.84C174.501 143.013 175.181 142.367 176.048 141.9C176.928 141.433 177.928 141.2 179.048 141.2C180.101 141.2 181.021 141.413 181.808 141.84C182.608 142.267 183.208 142.88 183.608 143.68L181.688 144.8C181.381 144.307 180.994 143.94 180.528 143.7C180.074 143.447 179.574 143.32 179.028 143.32C178.094 143.32 177.321 143.627 176.708 144.24C176.094 144.84 175.788 145.647 175.788 146.66C175.788 147.673 176.088 148.487 176.688 149.1C177.301 149.7 178.081 150 179.028 150C179.574 150 180.074 149.88 180.528 149.64C180.994 149.387 181.381 149.013 181.688 148.52L183.608 149.64C183.194 150.44 182.588 151.06 181.788 151.5C181.001 151.927 180.088 152.14 179.048 152.14ZM195.653 146.72C195.653 146.893 195.639 147.14 195.613 147.46H187.233C187.379 148.247 187.759 148.873 188.373 149.34C188.999 149.793 189.773 150.02 190.693 150.02C191.866 150.02 192.833 149.633 193.593 148.86L194.933 150.4C194.453 150.973 193.846 151.407 193.113 151.7C192.379 151.993 191.553 152.14 190.633 152.14C189.459 152.14 188.426 151.907 187.533 151.44C186.639 150.973 185.946 150.327 185.453 149.5C184.973 148.66 184.733 147.713 184.733 146.66C184.733 145.62 184.966 144.687 185.433 143.86C185.913 143.02 186.573 142.367 187.413 141.9C188.253 141.433 189.199 141.2 190.253 141.2C191.293 141.2 192.219 141.433 193.033 141.9C193.859 142.353 194.499 143 194.953 143.84C195.419 144.667 195.653 145.627 195.653 146.72ZM190.253 143.2C189.453 143.2 188.773 143.44 188.213 143.92C187.666 144.387 187.333 145.013 187.213 145.8H193.273C193.166 145.027 192.839 144.4 192.293 143.92C191.746 143.44 191.066 143.2 190.253 143.2ZM204.114 141.2C205.461 141.2 206.541 141.593 207.354 142.38C208.167 143.167 208.574 144.333 208.574 145.88V152H206.074V146.2C206.074 145.267 205.854 144.567 205.414 144.1C204.974 143.62 204.347 143.38 203.534 143.38C202.614 143.38 201.887 143.66 201.354 144.22C200.821 144.767 200.554 145.56 200.554 146.6V152H198.054V141.32H200.434V142.7C200.847 142.207 201.367 141.833 201.994 141.58C202.621 141.327 203.327 141.2 204.114 141.2ZM218.165 151.42C217.872 151.66 217.512 151.84 217.085 151.96C216.672 152.08 216.232 152.14 215.765 152.14C214.592 152.14 213.685 151.833 213.045 151.22C212.405 150.607 212.085 149.713 212.085 148.54V143.4H210.325V141.4H212.085V138.96H214.585V141.4H217.445V143.4H214.585V148.48C214.585 149 214.712 149.4 214.965 149.68C215.219 149.947 215.585 150.08 216.065 150.08C216.625 150.08 217.092 149.933 217.465 149.64L218.165 151.42ZM223.522 152.14C222.655 152.14 221.809 152.027 220.982 151.8C220.155 151.573 219.495 151.287 219.002 150.94L219.962 149.04C220.442 149.36 221.015 149.62 221.682 149.82C222.362 150.007 223.029 150.1 223.682 150.1C225.175 150.1 225.922 149.707 225.922 148.92C225.922 148.547 225.729 148.287 225.342 148.14C224.969 147.993 224.362 147.853 223.522 147.72C222.642 147.587 221.922 147.433 221.362 147.26C220.815 147.087 220.335 146.787 219.922 146.36C219.522 145.92 219.322 145.313 219.322 144.54C219.322 143.527 219.742 142.72 220.582 142.12C221.435 141.507 222.582 141.2 224.022 141.2C224.755 141.2 225.489 141.287 226.222 141.46C226.955 141.62 227.555 141.84 228.022 142.12L227.062 144.02C226.155 143.487 225.135 143.22 224.002 143.22C223.269 143.22 222.709 143.333 222.322 143.56C221.949 143.773 221.762 144.06 221.762 144.42C221.762 144.82 221.962 145.107 222.362 145.28C222.775 145.44 223.409 145.593 224.262 145.74C225.115 145.873 225.815 146.027 226.362 146.2C226.909 146.373 227.375 146.667 227.762 147.08C228.162 147.493 228.362 148.08 228.362 148.84C228.362 149.84 227.929 150.64 227.062 151.24C226.195 151.84 225.015 152.14 223.522 152.14Z" fill="#4B525C"/>
</g>
<g filter="url(#filter1_d)">
<path d="M104.126 75.76H97.126L95.746 79H93.066L99.366 65H101.926L108.246 79H105.526L104.126 75.76ZM103.266 73.72L100.626 67.6L98.006 73.72H103.266ZM121.234 68.2C122.274 68.2 123.2 68.4267 124.014 68.88C124.84 69.3333 125.487 69.9733 125.954 70.8C126.42 71.6267 126.654 72.58 126.654 73.66C126.654 74.74 126.42 75.7 125.954 76.54C125.487 77.3667 124.84 78.0067 124.014 78.46C123.2 78.9133 122.274 79.14 121.234 79.14C119.794 79.14 118.654 78.66 117.814 77.7V82.88H115.314V68.32H117.694V69.72C118.107 69.2133 118.614 68.8333 119.214 68.58C119.827 68.3267 120.5 68.2 121.234 68.2ZM120.954 77C121.874 77 122.627 76.6933 123.214 76.08C123.814 75.4667 124.114 74.66 124.114 73.66C124.114 72.66 123.814 71.8533 123.214 71.24C122.627 70.6267 121.874 70.32 120.954 70.32C120.354 70.32 119.814 70.46 119.334 70.74C118.854 71.0067 118.474 71.3933 118.194 71.9C117.914 72.4067 117.774 72.9933 117.774 73.66C117.774 74.3267 117.914 74.9133 118.194 75.42C118.474 75.9267 118.854 76.32 119.334 76.6C119.814 76.8667 120.354 77 120.954 77ZM129.025 64.16H131.525V79H129.025V64.16ZM138.886 68.2C140.459 68.2 141.659 68.58 142.486 69.34C143.326 70.0867 143.746 71.22 143.746 72.74V79H141.386V77.7C141.079 78.1667 140.639 78.5267 140.066 78.78C139.506 79.02 138.826 79.14 138.026 79.14C137.226 79.14 136.526 79.0067 135.926 78.74C135.326 78.46 134.859 78.08 134.526 77.6C134.206 77.1067 134.046 76.5533 134.046 75.94C134.046 74.98 134.399 74.2133 135.106 73.64C135.826 73.0533 136.953 72.76 138.486 72.76H141.246V72.6C141.246 71.8533 141.019 71.28 140.566 70.88C140.126 70.48 139.466 70.28 138.586 70.28C137.986 70.28 137.393 70.3733 136.806 70.56C136.233 70.7467 135.746 71.0067 135.346 71.34L134.366 69.52C134.926 69.0933 135.599 68.7667 136.386 68.54C137.173 68.3133 138.006 68.2 138.886 68.2ZM138.546 77.32C139.173 77.32 139.726 77.18 140.206 76.9C140.699 76.6067 141.046 76.1933 141.246 75.66V74.42H138.666C137.226 74.42 136.506 74.8933 136.506 75.84C136.506 76.2933 136.686 76.6533 137.046 76.92C137.406 77.1867 137.906 77.32 138.546 77.32ZM153.374 78.42C153.081 78.66 152.721 78.84 152.294 78.96C151.881 79.08 151.441 79.14 150.974 79.14C149.801 79.14 148.894 78.8333 148.254 78.22C147.614 77.6067 147.294 76.7133 147.294 75.54V70.4H145.534V68.4H147.294V65.96H149.794V68.4H152.654V70.4H149.794V75.48C149.794 76 149.921 76.4 150.174 76.68C150.428 76.9467 150.794 77.08 151.274 77.08C151.834 77.08 152.301 76.9333 152.674 76.64L153.374 78.42ZM159.771 66.04C158.718 66.04 158.191 66.6133 158.191 67.76V68.4H161.131V70.4H158.271V79H155.771V70.4H154.011V68.4H155.771V67.72C155.771 66.5733 156.104 65.6733 156.771 65.02C157.438 64.3533 158.378 64.02 159.591 64.02C160.551 64.02 161.304 64.2133 161.851 64.6L161.151 66.48C160.724 66.1867 160.264 66.04 159.771 66.04ZM167.458 79.14C166.378 79.14 165.404 78.9067 164.538 78.44C163.671 77.9733 162.991 77.3267 162.498 76.5C162.018 75.66 161.778 74.7133 161.778 73.66C161.778 72.6067 162.018 71.6667 162.498 70.84C162.991 70.0133 163.671 69.3667 164.538 68.9C165.404 68.4333 166.378 68.2 167.458 68.2C168.551 68.2 169.531 68.4333 170.398 68.9C171.264 69.3667 171.938 70.0133 172.418 70.84C172.911 71.6667 173.158 72.6067 173.158 73.66C173.158 74.7133 172.911 75.66 172.418 76.5C171.938 77.3267 171.264 77.9733 170.398 78.44C169.531 78.9067 168.551 79.14 167.458 79.14ZM167.458 77C168.378 77 169.138 76.6933 169.738 76.08C170.338 75.4667 170.638 74.66 170.638 73.66C170.638 72.66 170.338 71.8533 169.738 71.24C169.138 70.6267 168.378 70.32 167.458 70.32C166.538 70.32 165.778 70.6267 165.178 71.24C164.591 71.8533 164.298 72.66 164.298 73.66C164.298 74.66 164.591 75.4667 165.178 76.08C165.778 76.6933 166.538 77 167.458 77ZM177.928 69.88C178.648 68.76 179.915 68.2 181.728 68.2V70.58C181.515 70.54 181.322 70.52 181.148 70.52C180.175 70.52 179.415 70.8067 178.868 71.38C178.322 71.94 178.048 72.7533 178.048 73.82V79H175.548V68.32H177.928V69.88ZM197.329 68.2C198.676 68.2 199.742 68.5933 200.529 69.38C201.316 70.1533 201.709 71.32 201.709 72.88V79H199.209V73.2C199.209 72.2667 199.002 71.5667 198.589 71.1C198.176 70.62 197.582 70.38 196.809 70.38C195.969 70.38 195.296 70.66 194.789 71.22C194.282 71.7667 194.029 72.5533 194.029 73.58V79H191.529V73.2C191.529 72.2667 191.322 71.5667 190.909 71.1C190.496 70.62 189.902 70.38 189.129 70.38C188.276 70.38 187.596 70.6533 187.089 71.2C186.596 71.7467 186.349 72.54 186.349 73.58V79H183.849V68.32H186.229V69.68C186.629 69.2 187.129 68.8333 187.729 68.58C188.329 68.3267 188.996 68.2 189.729 68.2C190.529 68.2 191.236 68.3533 191.849 68.66C192.476 68.9533 192.969 69.3933 193.329 69.98C193.769 69.42 194.336 68.9867 195.029 68.68C195.722 68.36 196.489 68.2 197.329 68.2ZM214.771 66.04C213.718 66.04 213.191 66.6133 213.191 67.76V68.4H216.131V70.4H213.271V79H210.771V70.4H209.011V68.4H210.771V67.72C210.771 66.5733 211.104 65.6733 211.771 65.02C212.438 64.3533 213.378 64.02 214.591 64.02C215.551 64.02 216.304 64.2133 216.851 64.6L216.151 66.48C215.724 66.1867 215.264 66.04 214.771 66.04ZM222.458 79.14C221.378 79.14 220.404 78.9067 219.538 78.44C218.671 77.9733 217.991 77.3267 217.498 76.5C217.018 75.66 216.778 74.7133 216.778 73.66C216.778 72.6067 217.018 71.6667 217.498 70.84C217.991 70.0133 218.671 69.3667 219.538 68.9C220.404 68.4333 221.378 68.2 222.458 68.2C223.551 68.2 224.531 68.4333 225.398 68.9C226.264 69.3667 226.938 70.0133 227.418 70.84C227.911 71.6667 228.158 72.6067 228.158 73.66C228.158 74.7133 227.911 75.66 227.418 76.5C226.938 77.3267 226.264 77.9733 225.398 78.44C224.531 78.9067 223.551 79.14 222.458 79.14ZM222.458 77C223.378 77 224.138 76.6933 224.738 76.08C225.338 75.4667 225.638 74.66 225.638 73.66C225.638 72.66 225.338 71.8533 224.738 71.24C224.138 70.6267 223.378 70.32 222.458 70.32C221.538 70.32 220.778 70.6267 220.178 71.24C219.591 71.8533 219.298 72.66 219.298 73.66C219.298 74.66 219.591 75.4667 220.178 76.08C220.778 76.6933 221.538 77 222.458 77ZM232.928 69.88C233.648 68.76 234.915 68.2 236.728 68.2V70.58C236.515 70.54 236.322 70.52 236.148 70.52C235.175 70.52 234.415 70.8067 233.868 71.38C233.322 71.94 233.048 72.7533 233.048 73.82V79H230.548V68.32H232.928V69.88ZM73.8662 103.14C72.7595 103.14 71.7662 102.907 70.8862 102.44C70.0062 101.973 69.3195 101.327 68.8262 100.5C68.3328 99.66 68.0862 98.7133 68.0862 97.66C68.0862 96.6067 68.3328 95.6667 68.8262 94.84C69.3195 94.0133 69.9995 93.3667 70.8662 92.9C71.7462 92.4333 72.7462 92.2 73.8662 92.2C74.9195 92.2 75.8395 92.4133 76.6262 92.84C77.4262 93.2667 78.0262 93.88 78.4262 94.68L76.5062 95.8C76.1995 95.3067 75.8128 94.94 75.3462 94.7C74.8928 94.4467 74.3928 94.32 73.8462 94.32C72.9128 94.32 72.1395 94.6267 71.5262 95.24C70.9128 95.84 70.6062 96.6467 70.6062 97.66C70.6062 98.6733 70.9062 99.4867 71.5062 100.1C72.1195 100.7 72.8995 101 73.8462 101C74.3928 101 74.8928 100.88 75.3462 100.64C75.8128 100.387 76.1995 100.013 76.5062 99.52L78.4262 100.64C78.0128 101.44 77.4062 102.06 76.6062 102.5C75.8195 102.927 74.9062 103.14 73.8662 103.14ZM85.231 103.14C84.151 103.14 83.1777 102.907 82.311 102.44C81.4443 101.973 80.7643 101.327 80.271 100.5C79.791 99.66 79.551 98.7133 79.551 97.66C79.551 96.6067 79.791 95.6667 80.271 94.84C80.7643 94.0133 81.4443 93.3667 82.311 92.9C83.1777 92.4333 84.151 92.2 85.231 92.2C86.3243 92.2 87.3043 92.4333 88.171 92.9C89.0377 93.3667 89.711 94.0133 90.191 94.84C90.6844 95.6667 90.931 96.6067 90.931 97.66C90.931 98.7133 90.6844 99.66 90.191 100.5C89.711 101.327 89.0377 101.973 88.171 102.44C87.3043 102.907 86.3243 103.14 85.231 103.14ZM85.231 101C86.151 101 86.911 100.693 87.511 100.08C88.111 99.4667 88.411 98.66 88.411 97.66C88.411 96.66 88.111 95.8533 87.511 95.24C86.911 94.6267 86.151 94.32 85.231 94.32C84.311 94.32 83.551 94.6267 82.951 95.24C82.3643 95.8533 82.071 96.66 82.071 97.66C82.071 98.66 82.3643 99.4667 82.951 100.08C83.551 100.693 84.311 101 85.231 101ZM106.802 92.2C108.148 92.2 109.215 92.5933 110.002 93.38C110.788 94.1533 111.182 95.32 111.182 96.88V103H108.682V97.2C108.682 96.2667 108.475 95.5667 108.062 95.1C107.648 94.62 107.055 94.38 106.282 94.38C105.442 94.38 104.768 94.66 104.262 95.22C103.755 95.7667 103.502 96.5533 103.502 97.58V103H101.002V97.2C101.002 96.2667 100.795 95.5667 100.382 95.1C99.9683 94.62 99.375 94.38 98.6016 94.38C97.7483 94.38 97.0683 94.6533 96.5616 95.2C96.0683 95.7467 95.8216 96.54 95.8216 97.58V103H93.3216V92.32H95.7016V93.68C96.1016 93.2 96.6016 92.8333 97.2016 92.58C97.8016 92.3267 98.4683 92.2 99.2016 92.2C100.002 92.2 100.708 92.3533 101.322 92.66C101.948 92.9533 102.442 93.3933 102.802 93.98C103.242 93.42 103.808 92.9867 104.502 92.68C105.195 92.36 105.962 92.2 106.802 92.2ZM127.856 92.2C129.203 92.2 130.27 92.5933 131.056 93.38C131.843 94.1533 132.236 95.32 132.236 96.88V103H129.736V97.2C129.736 96.2667 129.53 95.5667 129.116 95.1C128.703 94.62 128.11 94.38 127.336 94.38C126.496 94.38 125.823 94.66 125.316 95.22C124.81 95.7667 124.556 96.5533 124.556 97.58V103H122.056V97.2C122.056 96.2667 121.85 95.5667 121.436 95.1C121.023 94.62 120.43 94.38 119.656 94.38C118.803 94.38 118.123 94.6533 117.616 95.2C117.123 95.7467 116.876 96.54 116.876 97.58V103H114.376V92.32H116.756V93.68C117.156 93.2 117.656 92.8333 118.256 92.58C118.856 92.3267 119.523 92.2 120.256 92.2C121.056 92.2 121.763 92.3533 122.376 92.66C123.003 92.9533 123.496 93.3933 123.856 93.98C124.296 93.42 124.863 92.9867 125.556 92.68C126.25 92.36 127.016 92.2 127.856 92.2ZM145.771 92.32V103H143.391V101.64C142.991 102.12 142.491 102.493 141.891 102.76C141.291 103.013 140.644 103.14 139.951 103.14C138.524 103.14 137.398 102.747 136.571 101.96C135.758 101.16 135.351 99.98 135.351 98.42V92.32H137.851V98.08C137.851 99.04 138.064 99.76 138.491 100.24C138.931 100.707 139.551 100.94 140.351 100.94C141.244 100.94 141.951 100.667 142.471 100.12C143.004 99.56 143.271 98.76 143.271 97.72V92.32H145.771ZM155.104 92.2C156.451 92.2 157.531 92.5933 158.344 93.38C159.158 94.1667 159.564 95.3333 159.564 96.88V103H157.064V97.2C157.064 96.2667 156.844 95.5667 156.404 95.1C155.964 94.62 155.338 94.38 154.524 94.38C153.604 94.38 152.878 94.66 152.344 95.22C151.811 95.7667 151.544 96.56 151.544 97.6V103H149.044V92.32H151.424V93.7C151.838 93.2067 152.358 92.8333 152.984 92.58C153.611 92.3267 154.318 92.2 155.104 92.2ZM162.736 92.32H165.236V103H162.736V92.32ZM163.996 90.56C163.542 90.56 163.162 90.42 162.856 90.14C162.549 89.8467 162.396 89.4867 162.396 89.06C162.396 88.6333 162.549 88.28 162.856 88C163.162 87.7067 163.542 87.56 163.996 87.56C164.449 87.56 164.829 87.7 165.136 87.98C165.442 88.2467 165.596 88.5867 165.596 89C165.596 89.44 165.442 89.8133 165.136 90.12C164.842 90.4133 164.462 90.56 163.996 90.56ZM173.417 103.14C172.31 103.14 171.317 102.907 170.437 102.44C169.557 101.973 168.87 101.327 168.377 100.5C167.884 99.66 167.637 98.7133 167.637 97.66C167.637 96.6067 167.884 95.6667 168.377 94.84C168.87 94.0133 169.55 93.3667 170.417 92.9C171.297 92.4333 172.297 92.2 173.417 92.2C174.47 92.2 175.39 92.4133 176.177 92.84C176.977 93.2667 177.577 93.88 177.977 94.68L176.057 95.8C175.75 95.3067 175.364 94.94 174.897 94.7C174.444 94.4467 173.944 94.32 173.397 94.32C172.464 94.32 171.69 94.6267 171.077 95.24C170.464 95.84 170.157 96.6467 170.157 97.66C170.157 98.6733 170.457 99.4867 171.057 100.1C171.67 100.7 172.45 101 173.397 101C173.944 101 174.444 100.88 174.897 100.64C175.364 100.387 175.75 100.013 176.057 99.52L177.977 100.64C177.564 101.44 176.957 102.06 176.157 102.5C175.37 102.927 174.457 103.14 173.417 103.14ZM184.218 92.2C185.791 92.2 186.991 92.58 187.818 93.34C188.658 94.0867 189.078 95.22 189.078 96.74V103H186.718V101.7C186.411 102.167 185.971 102.527 185.398 102.78C184.838 103.02 184.158 103.14 183.358 103.14C182.558 103.14 181.858 103.007 181.258 102.74C180.658 102.46 180.191 102.08 179.858 101.6C179.538 101.107 179.378 100.553 179.378 99.94C179.378 98.98 179.731 98.2133 180.438 97.64C181.158 97.0533 182.285 96.76 183.818 96.76H186.578V96.6C186.578 95.8533 186.351 95.28 185.898 94.88C185.458 94.48 184.798 94.28 183.918 94.28C183.318 94.28 182.725 94.3733 182.138 94.56C181.565 94.7467 181.078 95.0067 180.678 95.34L179.698 93.52C180.258 93.0933 180.931 92.7667 181.718 92.54C182.505 92.3133 183.338 92.2 184.218 92.2ZM183.878 101.32C184.505 101.32 185.058 101.18 185.538 100.9C186.031 100.607 186.378 100.193 186.578 99.66V98.42H183.998C182.558 98.42 181.838 98.8933 181.838 99.84C181.838 100.293 182.018 100.653 182.378 100.92C182.738 101.187 183.238 101.32 183.878 101.32ZM198.706 102.42C198.413 102.66 198.053 102.84 197.626 102.96C197.213 103.08 196.773 103.14 196.306 103.14C195.133 103.14 194.226 102.833 193.586 102.22C192.946 101.607 192.626 100.713 192.626 99.54V94.4H190.866V92.4H192.626V89.96H195.126V92.4H197.986V94.4H195.126V99.48C195.126 100 195.253 100.4 195.506 100.68C195.76 100.947 196.126 101.08 196.606 101.08C197.166 101.08 197.633 100.933 198.006 100.64L198.706 102.42ZM200.763 92.32H203.263V103H200.763V92.32ZM202.023 90.56C201.57 90.56 201.19 90.42 200.883 90.14C200.576 89.8467 200.423 89.4867 200.423 89.06C200.423 88.6333 200.576 88.28 200.883 88C201.19 87.7067 201.57 87.56 202.023 87.56C202.476 87.56 202.856 87.7 203.163 87.98C203.47 88.2467 203.623 88.5867 203.623 89C203.623 89.44 203.47 89.8133 203.163 90.12C202.87 90.4133 202.49 90.56 202.023 90.56ZM211.344 103.14C210.264 103.14 209.291 102.907 208.424 102.44C207.558 101.973 206.878 101.327 206.384 100.5C205.904 99.66 205.664 98.7133 205.664 97.66C205.664 96.6067 205.904 95.6667 206.384 94.84C206.878 94.0133 207.558 93.3667 208.424 92.9C209.291 92.4333 210.264 92.2 211.344 92.2C212.438 92.2 213.418 92.4333 214.284 92.9C215.151 93.3667 215.824 94.0133 216.304 94.84C216.798 95.6667 217.044 96.6067 217.044 97.66C217.044 98.7133 216.798 99.66 216.304 100.5C215.824 101.327 215.151 101.973 214.284 102.44C213.418 102.907 212.438 103.14 211.344 103.14ZM211.344 101C212.264 101 213.024 100.693 213.624 100.08C214.224 99.4667 214.524 98.66 214.524 97.66C214.524 96.66 214.224 95.8533 213.624 95.24C213.024 94.6267 212.264 94.32 211.344 94.32C210.424 94.32 209.664 94.6267 209.064 95.24C208.478 95.8533 208.184 96.66 208.184 97.66C208.184 98.66 208.478 99.4667 209.064 100.08C209.664 100.693 210.424 101 211.344 101ZM225.495 92.2C226.842 92.2 227.922 92.5933 228.735 93.38C229.548 94.1667 229.955 95.3333 229.955 96.88V103H227.455V97.2C227.455 96.2667 227.235 95.5667 226.795 95.1C226.355 94.62 225.728 94.38 224.915 94.38C223.995 94.38 223.268 94.66 222.735 95.22C222.202 95.7667 221.935 96.56 221.935 97.6V103H219.435V92.32H221.815V93.7C222.228 93.2067 222.748 92.8333 223.375 92.58C224.002 92.3267 224.708 92.2 225.495 92.2ZM242.734 92.2C244.307 92.2 245.507 92.58 246.334 93.34C247.174 94.0867 247.594 95.22 247.594 96.74V103H245.234V101.7C244.927 102.167 244.487 102.527 243.914 102.78C243.354 103.02 242.674 103.14 241.874 103.14C241.074 103.14 240.374 103.007 239.774 102.74C239.174 102.46 238.707 102.08 238.374 101.6C238.054 101.107 237.894 100.553 237.894 99.94C237.894 98.98 238.247 98.2133 238.954 97.64C239.674 97.0533 240.8 96.76 242.334 96.76H245.094V96.6C245.094 95.8533 244.867 95.28 244.414 94.88C243.974 94.48 243.314 94.28 242.434 94.28C241.834 94.28 241.24 94.3733 240.654 94.56C240.08 94.7467 239.594 95.0067 239.194 95.34L238.214 93.52C238.774 93.0933 239.447 92.7667 240.234 92.54C241.02 92.3133 241.854 92.2 242.734 92.2ZM242.394 101.32C243.02 101.32 243.574 101.18 244.054 100.9C244.547 100.607 244.894 100.193 245.094 99.66V98.42H242.514C241.074 98.42 240.354 98.8933 240.354 99.84C240.354 100.293 240.534 100.653 240.894 100.92C241.254 101.187 241.754 101.32 242.394 101.32ZM250.802 92.32H253.302V103H250.802V92.32ZM252.062 90.56C251.609 90.56 251.229 90.42 250.922 90.14C250.615 89.8467 250.462 89.4867 250.462 89.06C250.462 88.6333 250.615 88.28 250.922 88C251.229 87.7067 251.609 87.56 252.062 87.56C252.515 87.56 252.895 87.7 253.202 87.98C253.509 88.2467 253.662 88.5867 253.662 89C253.662 89.44 253.509 89.8133 253.202 90.12C252.909 90.4133 252.529 90.56 252.062 90.56ZM267.043 88.16V103H264.643V101.62C264.23 102.127 263.717 102.507 263.103 102.76C262.503 103.013 261.837 103.14 261.103 103.14C260.077 103.14 259.15 102.913 258.323 102.46C257.51 102.007 256.87 101.367 256.403 100.54C255.937 99.7 255.703 98.74 255.703 97.66C255.703 96.58 255.937 95.6267 256.403 94.8C256.87 93.9733 257.51 93.3333 258.323 92.88C259.15 92.4267 260.077 92.2 261.103 92.2C261.81 92.2 262.457 92.32 263.043 92.56C263.63 92.8 264.13 93.16 264.543 93.64V88.16H267.043ZM261.403 101C262.003 101 262.543 100.867 263.023 100.6C263.503 100.32 263.883 99.9267 264.163 99.42C264.443 98.9133 264.583 98.3267 264.583 97.66C264.583 96.9933 264.443 96.4067 264.163 95.9C263.883 95.3933 263.503 95.0067 263.023 94.74C262.543 94.46 262.003 94.32 261.403 94.32C260.803 94.32 260.263 94.46 259.783 94.74C259.303 95.0067 258.923 95.3933 258.643 95.9C258.363 96.4067 258.223 96.9933 258.223 97.66C258.223 98.3267 258.363 98.9133 258.643 99.42C258.923 99.9267 259.303 100.32 259.783 100.6C260.263 100.867 260.803 101 261.403 101ZM107.897 127.14C106.817 127.14 105.844 126.907 104.977 126.44C104.11 125.973 103.43 125.327 102.937 124.5C102.457 123.66 102.217 122.713 102.217 121.66C102.217 120.607 102.457 119.667 102.937 118.84C103.43 118.013 104.11 117.367 104.977 116.9C105.844 116.433 106.817 116.2 107.897 116.2C108.99 116.2 109.97 116.433 110.837 116.9C111.704 117.367 112.377 118.013 112.857 118.84C113.35 119.667 113.597 120.607 113.597 121.66C113.597 122.713 113.35 123.66 112.857 124.5C112.377 125.327 111.704 125.973 110.837 126.44C109.97 126.907 108.99 127.14 107.897 127.14ZM107.897 125C108.817 125 109.577 124.693 110.177 124.08C110.777 123.467 111.077 122.66 111.077 121.66C111.077 120.66 110.777 119.853 110.177 119.24C109.577 118.627 108.817 118.32 107.897 118.32C106.977 118.32 106.217 118.627 105.617 119.24C105.03 119.853 104.737 120.66 104.737 121.66C104.737 122.66 105.03 123.467 105.617 124.08C106.217 124.693 106.977 125 107.897 125ZM120.328 114.04C119.274 114.04 118.748 114.613 118.748 115.76V116.4H121.688V118.4H118.828V127H116.328V118.4H114.568V116.4H116.328V115.72C116.328 114.573 116.661 113.673 117.328 113.02C117.994 112.353 118.934 112.02 120.148 112.02C121.108 112.02 121.861 112.213 122.408 112.6L121.708 114.48C121.281 114.187 120.821 114.04 120.328 114.04ZM139.358 112.16V127H136.958V125.62C136.544 126.127 136.031 126.507 135.418 126.76C134.818 127.013 134.151 127.14 133.418 127.14C132.391 127.14 131.464 126.913 130.638 126.46C129.824 126.007 129.184 125.367 128.718 124.54C128.251 123.7 128.018 122.74 128.018 121.66C128.018 120.58 128.251 119.627 128.718 118.8C129.184 117.973 129.824 117.333 130.638 116.88C131.464 116.427 132.391 116.2 133.418 116.2C134.124 116.2 134.771 116.32 135.358 116.56C135.944 116.8 136.444 117.16 136.858 117.64V112.16H139.358ZM133.718 125C134.318 125 134.858 124.867 135.338 124.6C135.818 124.32 136.198 123.927 136.478 123.42C136.758 122.913 136.898 122.327 136.898 121.66C136.898 120.993 136.758 120.407 136.478 119.9C136.198 119.393 135.818 119.007 135.338 118.74C134.858 118.46 134.318 118.32 133.718 118.32C133.118 118.32 132.578 118.46 132.098 118.74C131.618 119.007 131.238 119.393 130.958 119.9C130.678 120.407 130.538 120.993 130.538 121.66C130.538 122.327 130.678 122.913 130.958 123.42C131.238 123.927 131.618 124.32 132.098 124.6C132.578 124.867 133.118 125 133.718 125ZM152.668 121.72C152.668 121.893 152.655 122.14 152.628 122.46H144.248C144.395 123.247 144.775 123.873 145.388 124.34C146.015 124.793 146.788 125.02 147.708 125.02C148.882 125.02 149.848 124.633 150.608 123.86L151.948 125.4C151.468 125.973 150.862 126.407 150.128 126.7C149.395 126.993 148.568 127.14 147.648 127.14C146.475 127.14 145.442 126.907 144.548 126.44C143.655 125.973 142.962 125.327 142.468 124.5C141.988 123.66 141.748 122.713 141.748 121.66C141.748 120.62 141.982 119.687 142.448 118.86C142.928 118.02 143.588 117.367 144.428 116.9C145.268 116.433 146.215 116.2 147.268 116.2C148.308 116.2 149.235 116.433 150.048 116.9C150.875 117.353 151.515 118 151.968 118.84C152.435 119.667 152.668 120.627 152.668 121.72ZM147.268 118.2C146.468 118.2 145.788 118.44 145.228 118.92C144.682 119.387 144.348 120.013 144.228 120.8H150.288C150.182 120.027 149.855 119.4 149.308 118.92C148.762 118.44 148.082 118.2 147.268 118.2ZM160.99 116.2C162.03 116.2 162.956 116.427 163.77 116.88C164.596 117.333 165.243 117.973 165.71 118.8C166.176 119.627 166.41 120.58 166.41 121.66C166.41 122.74 166.176 123.7 165.71 124.54C165.243 125.367 164.596 126.007 163.77 126.46C162.956 126.913 162.03 127.14 160.99 127.14C159.55 127.14 158.41 126.66 157.57 125.7V130.88H155.07V116.32H157.45V117.72C157.863 117.213 158.37 116.833 158.97 116.58C159.583 116.327 160.256 116.2 160.99 116.2ZM160.71 125C161.63 125 162.383 124.693 162.97 124.08C163.57 123.467 163.87 122.66 163.87 121.66C163.87 120.66 163.57 119.853 162.97 119.24C162.383 118.627 161.63 118.32 160.71 118.32C160.11 118.32 159.57 118.46 159.09 118.74C158.61 119.007 158.23 119.393 157.95 119.9C157.67 120.407 157.53 120.993 157.53 121.66C157.53 122.327 157.67 122.913 157.95 123.42C158.23 123.927 158.61 124.32 159.09 124.6C159.57 124.867 160.11 125 160.71 125ZM171.161 117.88C171.881 116.76 173.147 116.2 174.961 116.2V118.58C174.747 118.54 174.554 118.52 174.381 118.52C173.407 118.52 172.647 118.807 172.101 119.38C171.554 119.94 171.281 120.753 171.281 121.82V127H168.781V116.32H171.161V117.88ZM187.024 121.72C187.024 121.893 187.01 122.14 186.984 122.46H178.604C178.75 123.247 179.13 123.873 179.744 124.34C180.37 124.793 181.144 125.02 182.064 125.02C183.237 125.02 184.204 124.633 184.964 123.86L186.304 125.4C185.824 125.973 185.217 126.407 184.484 126.7C183.75 126.993 182.924 127.14 182.004 127.14C180.83 127.14 179.797 126.907 178.904 126.44C178.01 125.973 177.317 125.327 176.824 124.5C176.344 123.66 176.104 122.713 176.104 121.66C176.104 120.62 176.337 119.687 176.804 118.86C177.284 118.02 177.944 117.367 178.784 116.9C179.624 116.433 180.57 116.2 181.624 116.2C182.664 116.2 183.59 116.433 184.404 116.9C185.23 117.353 185.87 118 186.324 118.84C186.79 119.667 187.024 120.627 187.024 121.72ZM181.624 118.2C180.824 118.2 180.144 118.44 179.584 118.92C179.037 119.387 178.704 120.013 178.584 120.8H184.644C184.537 120.027 184.21 119.4 183.664 118.92C183.117 118.44 182.437 118.2 181.624 118.2ZM192.725 127.14C191.858 127.14 191.012 127.027 190.185 126.8C189.358 126.573 188.698 126.287 188.205 125.94L189.165 124.04C189.645 124.36 190.218 124.62 190.885 124.82C191.565 125.007 192.232 125.1 192.885 125.1C194.378 125.1 195.125 124.707 195.125 123.92C195.125 123.547 194.932 123.287 194.545 123.14C194.172 122.993 193.565 122.853 192.725 122.72C191.845 122.587 191.125 122.433 190.565 122.26C190.018 122.087 189.538 121.787 189.125 121.36C188.725 120.92 188.525 120.313 188.525 119.54C188.525 118.527 188.945 117.72 189.785 117.12C190.638 116.507 191.785 116.2 193.225 116.2C193.958 116.2 194.692 116.287 195.425 116.46C196.158 116.62 196.758 116.84 197.225 117.12L196.265 119.02C195.358 118.487 194.338 118.22 193.205 118.22C192.472 118.22 191.912 118.333 191.525 118.56C191.152 118.773 190.965 119.06 190.965 119.42C190.965 119.82 191.165 120.107 191.565 120.28C191.978 120.44 192.612 120.593 193.465 120.74C194.318 120.873 195.018 121.027 195.565 121.2C196.112 121.373 196.578 121.667 196.965 122.08C197.365 122.493 197.565 123.08 197.565 123.84C197.565 124.84 197.132 125.64 196.265 126.24C195.398 126.84 194.218 127.14 192.725 127.14ZM203.018 127.14C202.151 127.14 201.305 127.027 200.478 126.8C199.651 126.573 198.991 126.287 198.498 125.94L199.458 124.04C199.938 124.36 200.511 124.62 201.178 124.82C201.858 125.007 202.525 125.1 203.178 125.1C204.671 125.1 205.418 124.707 205.418 123.92C205.418 123.547 205.225 123.287 204.838 123.14C204.465 122.993 203.858 122.853 203.018 122.72C202.138 122.587 201.418 122.433 200.858 122.26C200.311 122.087 199.831 121.787 199.418 121.36C199.018 120.92 198.818 120.313 198.818 119.54C198.818 118.527 199.238 117.72 200.078 117.12C200.931 116.507 202.078 116.2 203.518 116.2C204.251 116.2 204.985 116.287 205.718 116.46C206.451 116.62 207.051 116.84 207.518 117.12L206.558 119.02C205.651 118.487 204.631 118.22 203.498 118.22C202.765 118.22 202.205 118.333 201.818 118.56C201.445 118.773 201.258 119.06 201.258 119.42C201.258 119.82 201.458 120.107 201.858 120.28C202.271 120.44 202.905 120.593 203.758 120.74C204.611 120.873 205.311 121.027 205.858 121.2C206.405 121.373 206.871 121.667 207.258 122.08C207.658 122.493 207.858 123.08 207.858 123.84C207.858 124.84 207.425 125.64 206.558 126.24C205.691 126.84 204.511 127.14 203.018 127.14ZM220.051 121.72C220.051 121.893 220.038 122.14 220.011 122.46H211.631C211.778 123.247 212.158 123.873 212.771 124.34C213.398 124.793 214.171 125.02 215.091 125.02C216.264 125.02 217.231 124.633 217.991 123.86L219.331 125.4C218.851 125.973 218.244 126.407 217.511 126.7C216.778 126.993 215.951 127.14 215.031 127.14C213.858 127.14 212.824 126.907 211.931 126.44C211.038 125.973 210.344 125.327 209.851 124.5C209.371 123.66 209.131 122.713 209.131 121.66C209.131 120.62 209.364 119.687 209.831 118.86C210.311 118.02 210.971 117.367 211.811 116.9C212.651 116.433 213.598 116.2 214.651 116.2C215.691 116.2 216.618 116.433 217.431 116.9C218.258 117.353 218.898 118 219.351 118.84C219.818 119.667 220.051 120.627 220.051 121.72ZM214.651 118.2C213.851 118.2 213.171 118.44 212.611 118.92C212.064 119.387 211.731 120.013 211.611 120.8H217.671C217.564 120.027 217.238 119.4 216.691 118.92C216.144 118.44 215.464 118.2 214.651 118.2ZM232.913 112.16V127H230.513V125.62C230.099 126.127 229.586 126.507 228.973 126.76C228.373 127.013 227.706 127.14 226.973 127.14C225.946 127.14 225.019 126.913 224.193 126.46C223.379 126.007 222.739 125.367 222.273 124.54C221.806 123.7 221.573 122.74 221.573 121.66C221.573 120.58 221.806 119.627 222.273 118.8C222.739 117.973 223.379 117.333 224.193 116.88C225.019 116.427 225.946 116.2 226.973 116.2C227.679 116.2 228.326 116.32 228.913 116.56C229.499 116.8 229.999 117.16 230.413 117.64V112.16H232.913ZM227.273 125C227.873 125 228.413 124.867 228.893 124.6C229.373 124.32 229.753 123.927 230.033 123.42C230.313 122.913 230.453 122.327 230.453 121.66C230.453 120.993 230.313 120.407 230.033 119.9C229.753 119.393 229.373 119.007 228.893 118.74C228.413 118.46 227.873 118.32 227.273 118.32C226.673 118.32 226.133 118.46 225.653 118.74C225.173 119.007 224.793 119.393 224.513 119.9C224.233 120.407 224.093 120.993 224.093 121.66C224.093 122.327 224.233 122.913 224.513 123.42C224.793 123.927 225.173 124.32 225.653 124.6C226.133 124.867 226.673 125 227.273 125ZM111.845 140.2C113.418 140.2 114.618 140.58 115.445 141.34C116.285 142.087 116.705 143.22 116.705 144.74V151H114.345V149.7C114.038 150.167 113.598 150.527 113.025 150.78C112.465 151.02 111.785 151.14 110.985 151.14C110.185 151.14 109.485 151.007 108.885 150.74C108.285 150.46 107.818 150.08 107.485 149.6C107.165 149.107 107.005 148.553 107.005 147.94C107.005 146.98 107.358 146.213 108.065 145.64C108.785 145.053 109.912 144.76 111.445 144.76H114.205V144.6C114.205 143.853 113.978 143.28 113.525 142.88C113.085 142.48 112.425 142.28 111.545 142.28C110.945 142.28 110.352 142.373 109.765 142.56C109.192 142.747 108.705 143.007 108.305 143.34L107.325 141.52C107.885 141.093 108.558 140.767 109.345 140.54C110.132 140.313 110.965 140.2 111.845 140.2ZM111.505 149.32C112.132 149.32 112.685 149.18 113.165 148.9C113.658 148.607 114.005 148.193 114.205 147.66V146.42H111.625C110.185 146.42 109.465 146.893 109.465 147.84C109.465 148.293 109.645 148.653 110.005 148.92C110.365 149.187 110.865 149.32 111.505 149.32ZM130.471 136.16V151H128.071V149.62C127.658 150.127 127.144 150.507 126.531 150.76C125.931 151.013 125.264 151.14 124.531 151.14C123.504 151.14 122.578 150.913 121.751 150.46C120.938 150.007 120.298 149.367 119.831 148.54C119.364 147.7 119.131 146.74 119.131 145.66C119.131 144.58 119.364 143.627 119.831 142.8C120.298 141.973 120.938 141.333 121.751 140.88C122.578 140.427 123.504 140.2 124.531 140.2C125.238 140.2 125.884 140.32 126.471 140.56C127.058 140.8 127.558 141.16 127.971 141.64V136.16H130.471ZM124.831 149C125.431 149 125.971 148.867 126.451 148.6C126.931 148.32 127.311 147.927 127.591 147.42C127.871 146.913 128.011 146.327 128.011 145.66C128.011 144.993 127.871 144.407 127.591 143.9C127.311 143.393 126.931 143.007 126.451 142.74C125.971 142.46 125.431 142.32 124.831 142.32C124.231 142.32 123.691 142.46 123.211 142.74C122.731 143.007 122.351 143.393 122.071 143.9C121.791 144.407 121.651 144.993 121.651 145.66C121.651 146.327 121.791 146.913 122.071 147.42C122.351 147.927 122.731 148.32 123.211 148.6C123.691 148.867 124.231 149 124.831 149ZM138.542 151.14C137.462 151.14 136.488 150.907 135.622 150.44C134.755 149.973 134.075 149.327 133.582 148.5C133.102 147.66 132.862 146.713 132.862 145.66C132.862 144.607 133.102 143.667 133.582 142.84C134.075 142.013 134.755 141.367 135.622 140.9C136.488 140.433 137.462 140.2 138.542 140.2C139.635 140.2 140.615 140.433 141.482 140.9C142.348 141.367 143.022 142.013 143.502 142.84C143.995 143.667 144.242 144.607 144.242 145.66C144.242 146.713 143.995 147.66 143.502 148.5C143.022 149.327 142.348 149.973 141.482 150.44C140.615 150.907 139.635 151.14 138.542 151.14ZM138.542 149C139.462 149 140.222 148.693 140.822 148.08C141.422 147.467 141.722 146.66 141.722 145.66C141.722 144.66 141.422 143.853 140.822 143.24C140.222 142.627 139.462 142.32 138.542 142.32C137.622 142.32 136.862 142.627 136.262 143.24C135.675 143.853 135.382 144.66 135.382 145.66C135.382 146.66 135.675 147.467 136.262 148.08C136.862 148.693 137.622 149 138.542 149ZM146.632 136.16H149.132V151H146.632V136.16ZM162.453 145.72C162.453 145.893 162.44 146.14 162.413 146.46H154.033C154.18 147.247 154.56 147.873 155.173 148.34C155.8 148.793 156.573 149.02 157.493 149.02C158.667 149.02 159.633 148.633 160.393 147.86L161.733 149.4C161.253 149.973 160.647 150.407 159.913 150.7C159.18 150.993 158.353 151.14 157.433 151.14C156.26 151.14 155.227 150.907 154.333 150.44C153.44 149.973 152.747 149.327 152.253 148.5C151.773 147.66 151.533 146.713 151.533 145.66C151.533 144.62 151.767 143.687 152.233 142.86C152.713 142.02 153.373 141.367 154.213 140.9C155.053 140.433 156 140.2 157.053 140.2C158.093 140.2 159.02 140.433 159.833 140.9C160.66 141.353 161.3 142 161.753 142.84C162.22 143.667 162.453 144.627 162.453 145.72ZM157.053 142.2C156.253 142.2 155.573 142.44 155.013 142.92C154.467 143.387 154.133 144.013 154.013 144.8H160.073C159.967 144.027 159.64 143.4 159.093 142.92C158.547 142.44 157.867 142.2 157.053 142.2ZM168.155 151.14C167.288 151.14 166.442 151.027 165.615 150.8C164.788 150.573 164.128 150.287 163.635 149.94L164.595 148.04C165.075 148.36 165.648 148.62 166.315 148.82C166.995 149.007 167.662 149.1 168.315 149.1C169.808 149.1 170.555 148.707 170.555 147.92C170.555 147.547 170.362 147.287 169.975 147.14C169.602 146.993 168.995 146.853 168.155 146.72C167.275 146.587 166.555 146.433 165.995 146.26C165.448 146.087 164.968 145.787 164.555 145.36C164.155 144.92 163.955 144.313 163.955 143.54C163.955 142.527 164.375 141.72 165.215 141.12C166.068 140.507 167.215 140.2 168.655 140.2C169.388 140.2 170.122 140.287 170.855 140.46C171.588 140.62 172.188 140.84 172.655 141.12L171.695 143.02C170.788 142.487 169.768 142.22 168.635 142.22C167.902 142.22 167.342 142.333 166.955 142.56C166.582 142.773 166.395 143.06 166.395 143.42C166.395 143.82 166.595 144.107 166.995 144.28C167.408 144.44 168.042 144.593 168.895 144.74C169.748 144.873 170.448 145.027 170.995 145.2C171.542 145.373 172.008 145.667 172.395 146.08C172.795 146.493 172.995 147.08 172.995 147.84C172.995 148.84 172.562 149.64 171.695 150.24C170.828 150.84 169.648 151.14 168.155 151.14ZM180.048 151.14C178.941 151.14 177.948 150.907 177.068 150.44C176.188 149.973 175.501 149.327 175.008 148.5C174.514 147.66 174.268 146.713 174.268 145.66C174.268 144.607 174.514 143.667 175.008 142.84C175.501 142.013 176.181 141.367 177.048 140.9C177.928 140.433 178.928 140.2 180.048 140.2C181.101 140.2 182.021 140.413 182.808 140.84C183.608 141.267 184.208 141.88 184.608 142.68L182.688 143.8C182.381 143.307 181.994 142.94 181.528 142.7C181.074 142.447 180.574 142.32 180.028 142.32C179.094 142.32 178.321 142.627 177.708 143.24C177.094 143.84 176.788 144.647 176.788 145.66C176.788 146.673 177.088 147.487 177.688 148.1C178.301 148.7 179.081 149 180.028 149C180.574 149 181.074 148.88 181.528 148.64C181.994 148.387 182.381 148.013 182.688 147.52L184.608 148.64C184.194 149.44 183.588 150.06 182.788 150.5C182.001 150.927 181.088 151.14 180.048 151.14ZM196.653 145.72C196.653 145.893 196.639 146.14 196.613 146.46H188.233C188.379 147.247 188.759 147.873 189.373 148.34C189.999 148.793 190.773 149.02 191.693 149.02C192.866 149.02 193.833 148.633 194.593 147.86L195.933 149.4C195.453 149.973 194.846 150.407 194.113 150.7C193.379 150.993 192.553 151.14 191.633 151.14C190.459 151.14 189.426 150.907 188.533 150.44C187.639 149.973 186.946 149.327 186.453 148.5C185.973 147.66 185.733 146.713 185.733 145.66C185.733 144.62 185.966 143.687 186.433 142.86C186.913 142.02 187.573 141.367 188.413 140.9C189.253 140.433 190.199 140.2 191.253 140.2C192.293 140.2 193.219 140.433 194.033 140.9C194.859 141.353 195.499 142 195.953 142.84C196.419 143.667 196.653 144.627 196.653 145.72ZM191.253 142.2C190.453 142.2 189.773 142.44 189.213 142.92C188.666 143.387 188.333 144.013 188.213 144.8H194.273C194.166 144.027 193.839 143.4 193.293 142.92C192.746 142.44 192.066 142.2 191.253 142.2ZM205.114 140.2C206.461 140.2 207.541 140.593 208.354 141.38C209.167 142.167 209.574 143.333 209.574 144.88V151H207.074V145.2C207.074 144.267 206.854 143.567 206.414 143.1C205.974 142.62 205.347 142.38 204.534 142.38C203.614 142.38 202.887 142.66 202.354 143.22C201.821 143.767 201.554 144.56 201.554 145.6V151H199.054V140.32H201.434V141.7C201.847 141.207 202.367 140.833 202.994 140.58C203.621 140.327 204.327 140.2 205.114 140.2ZM219.165 150.42C218.872 150.66 218.512 150.84 218.085 150.96C217.672 151.08 217.232 151.14 216.765 151.14C215.592 151.14 214.685 150.833 214.045 150.22C213.405 149.607 213.085 148.713 213.085 147.54V142.4H211.325V140.4H213.085V137.96H215.585V140.4H218.445V142.4H215.585V147.48C215.585 148 215.712 148.4 215.965 148.68C216.219 148.947 216.585 149.08 217.065 149.08C217.625 149.08 218.092 148.933 218.465 148.64L219.165 150.42ZM224.522 151.14C223.655 151.14 222.809 151.027 221.982 150.8C221.155 150.573 220.495 150.287 220.002 149.94L220.962 148.04C221.442 148.36 222.015 148.62 222.682 148.82C223.362 149.007 224.029 149.1 224.682 149.1C226.175 149.1 226.922 148.707 226.922 147.92C226.922 147.547 226.729 147.287 226.342 147.14C225.969 146.993 225.362 146.853 224.522 146.72C223.642 146.587 222.922 146.433 222.362 146.26C221.815 146.087 221.335 145.787 220.922 145.36C220.522 144.92 220.322 144.313 220.322 143.54C220.322 142.527 220.742 141.72 221.582 141.12C222.435 140.507 223.582 140.2 225.022 140.2C225.755 140.2 226.489 140.287 227.222 140.46C227.955 140.62 228.555 140.84 229.022 141.12L228.062 143.02C227.155 142.487 226.135 142.22 225.002 142.22C224.269 142.22 223.709 142.333 223.322 142.56C222.949 142.773 222.762 143.06 222.762 143.42C222.762 143.82 222.962 144.107 223.362 144.28C223.775 144.44 224.409 144.593 225.262 144.74C226.115 144.873 226.815 145.027 227.362 145.2C227.909 145.373 228.375 145.667 228.762 146.08C229.162 146.493 229.362 147.08 229.362 147.84C229.362 148.84 228.929 149.64 228.062 150.24C227.195 150.84 226.015 151.14 224.522 151.14Z" fill="white"/>
</g>
<defs>
<filter id="filter0_d" x="37.0862" y="39.02" width="258.957" height="147.12" filterUnits="userSpaceOnUse" color-interpolation-filters="sRGB">
<feFlood flood-opacity="0" result="BackgroundImageFix"/>
<feColorMatrix in="SourceAlpha" type="matrix" values="0 0 0 0 0 0 0 0 0 0 0 0 0 0 0 0 0 0 127 0"/>
<feOffset dy="4"/>
<feGaussianBlur stdDeviation="15"/>
<feColorMatrix type="matrix" values="0 0 0 0 0 0 0 0 0 0 0 0 0 0 0 0 0 0 1 0"/>
<feBlend mode="normal" in2="BackgroundImageFix" result="effect1_dropShadow"/>
<feBlend mode="normal" in="SourceGraphic" in2="effect1_dropShadow" result="shape"/>
</filter>
<filter id="filter1_d" x="0.0861816" y="0.0200043" width="334.957" height="223.12" filterUnits="userSpaceOnUse" color-interpolation-filters="sRGB">
<feFlood flood-opacity="0" result="BackgroundImageFix"/>
<feColorMatrix in="SourceAlpha" type="matrix" values="0 0 0 0 0 0 0 0 0 0 0 0 0 0 0 0 0 0 127 0"/>
<feOffset dy="4"/>
<feGaussianBlur stdDeviation="34"/>
<feColorMatrix type="matrix" values="0 0 0 0 0 0 0 0 0 0 0 0 0 0 0 0 0 0 1 0"/>
<feBlend mode="normal" in2="BackgroundImageFix" result="effect1_dropShadow"/>
<feBlend mode="normal" in="SourceGraphic" in2="effect1_dropShadow" result="shape"/>
</filter>
</defs>
</svg>
