<svg width="41" height="43" viewBox="0 0 41 43" fill="none" xmlns="http://www.w3.org/2000/svg">
<rect x="0.230774" y="0.934082" width="40.4396" height="41.3187" rx="20.2198" fill="#FFCD29"/>
<path d="M31.8791 21.6115C31.8791 21.6115 31.8791 25.1781 31.4266 26.898C31.173 27.8393 30.4308 28.5816 29.4894 28.8349C27.7696 29.2876 20.8902 29.2876 20.8902 29.2876C20.8902 29.2876 14.0287 29.2876 12.2909 28.8169C11.3495 28.5636 10.6073 27.8211 10.3537 26.8797C9.901 25.1781 9.901 21.5935 9.901 21.5935C9.901 21.5935 9.901 18.0272 10.3537 16.3073C10.607 15.3659 11.3675 14.6054 12.2909 14.3521C14.0108 13.8994 20.8902 13.8994 20.8902 13.8994C20.8902 13.8994 27.7696 13.8994 29.4894 14.3701C30.4308 14.6234 31.173 15.3659 31.4266 16.3073C31.8973 18.0272 31.8791 21.6115 31.8791 21.6115Z" fill="white"/>
<path d="M18.6997 24.8883L24.4203 21.5935L18.6997 18.2987V24.8883Z" fill="#FFCD29"/>
</svg>
